<?xml version="1.0" encoding="UTF-8" standalone="no"?>
<!DOCTYPE svg PUBLIC "-//W3C//DTD SVG 1.1//EN"
 "http://www.w3.org/Graphics/SVG/1.1/DTD/svg11.dtd">
<!-- Generated by graphviz version 2.43.0 (0)
 -->
<!-- Title: dispatcher/AutoIndexHandler.cpp Pages: 1 -->
<svg width="1736pt" height="302pt"
 viewBox="0.00 0.00 1735.92 302.00" xmlns="http://www.w3.org/2000/svg" xmlns:xlink="http://www.w3.org/1999/xlink">
<g id="graph0" class="graph" transform="scale(1 1) rotate(0) translate(4 298)">
<title>dispatcher/AutoIndexHandler.cpp</title>
<!-- Node1 -->
<g id="Node000001" class="node">
<title>Node1</title>
<g id="a_Node000001"><a xlink:title=" ">
<polygon fill="#999999" stroke="#666666" points="511,-294 333,-294 333,-275 511,-275 511,-294"/>
<text text-anchor="middle" x="422" y="-282" font-family="Helvetica,sans-Serif" font-size="10.00">dispatcher/AutoIndexHandler.cpp</text>
</a>
</g>
</g>
<!-- Node2 -->
<g id="Node000002" class="node">
<title>Node2</title>
<g id="a_Node000002"><a xlink:title=" ">
<polygon fill="#e0e0e0" stroke="#999999" points="54,-239 0,-239 0,-220 54,-220 54,-239"/>
<text text-anchor="middle" x="27" y="-227" font-family="Helvetica,sans-Serif" font-size="10.00">dirent.h</text>
</a>
</g>
</g>
<!-- Node1&#45;&gt;Node2 -->
<g id="edge1_Node000001_Node000002" class="edge">
<title>Node1&#45;&gt;Node2</title>
<g id="a_edge1_Node000001_Node000002"><a xlink:title=" ">
<path fill="none" stroke="#63b8ff" d="M332.71,-275.15C262.24,-267.93 161.3,-256.2 64.06,-239.01"/>
<polygon fill="#63b8ff" stroke="#63b8ff" points="64.52,-235.54 54.06,-237.22 63.29,-242.43 64.52,-235.54"/>
</a>
</g>
</g>
<!-- Node3 -->
<g id="Node000003" class="node">
<title>Node3</title>
<g id="a_Node000003"><a xlink:title=" ">
<polygon fill="#e0e0e0" stroke="#999999" points="136,-239 72,-239 72,-220 136,-220 136,-239"/>
<text text-anchor="middle" x="104" y="-227" font-family="Helvetica,sans-Serif" font-size="10.00">sys/stat.h</text>
</a>
</g>
</g>
<!-- Node1&#45;&gt;Node3 -->
<g id="edge2_Node000001_Node000003" class="edge">
<title>Node1&#45;&gt;Node3</title>
<g id="a_edge2_Node000001_Node000003"><a xlink:title=" ">
<path fill="none" stroke="#63b8ff" d="M364.04,-274.97C310.1,-266.85 227.23,-253.93 146.09,-239.13"/>
<polygon fill="#63b8ff" stroke="#63b8ff" points="146.67,-235.68 136.2,-237.32 145.41,-242.57 146.67,-235.68"/>
</a>
</g>
</g>
<!-- Node4 -->
<g id="Node000004" class="node">
<title>Node4</title>
<g id="a_Node000004"><a xlink:title=" ">
<polygon fill="#e0e0e0" stroke="#999999" points="210,-239 154,-239 154,-220 210,-220 210,-239"/>
<text text-anchor="middle" x="182" y="-227" font-family="Helvetica,sans-Serif" font-size="10.00">unistd.h</text>
</a>
</g>
</g>
<!-- Node1&#45;&gt;Node4 -->
<g id="edge3_Node000001_Node000004" class="edge">
<title>Node1&#45;&gt;Node4</title>
<g id="a_edge3_Node000001_Node000004"><a xlink:title=" ">
<path fill="none" stroke="#63b8ff" d="M382.3,-274.92C343.44,-266.49 282.29,-253.16 220.24,-239.26"/>
<polygon fill="#63b8ff" stroke="#63b8ff" points="220.8,-235.8 210.28,-237.03 219.27,-242.63 220.8,-235.8"/>
</a>
</g>
</g>
<!-- Node5 -->
<g id="Node000005" class="node">
<title>Node5</title>
<g id="a_Node000005"><a xlink:title=" ">
<polygon fill="#e0e0e0" stroke="#999999" points="281.5,-239 228.5,-239 228.5,-220 281.5,-220 281.5,-239"/>
<text text-anchor="middle" x="255" y="-227" font-family="Helvetica,sans-Serif" font-size="10.00">limits.h</text>
</a>
</g>
</g>
<!-- Node1&#45;&gt;Node5 -->
<g id="edge4_Node000001_Node000005" class="edge">
<title>Node1&#45;&gt;Node5</title>
<g id="a_edge4_Node000001_Node000005"><a xlink:title=" ">
<path fill="none" stroke="#63b8ff" d="M395.17,-274.98C367.05,-266.06 322.69,-251.98 291.42,-242.06"/>
<polygon fill="#63b8ff" stroke="#63b8ff" points="292.36,-238.68 281.76,-238.99 290.24,-245.36 292.36,-238.68"/>
</a>
</g>
</g>
<!-- Node6 -->
<g id="Node000006" class="node">
<title>Node6</title>
<g id="a_Node000006"><a xlink:title=" ">
<polygon fill="#e0e0e0" stroke="#999999" points="626,-129 582,-129 582,-110 626,-110 626,-129"/>
<text text-anchor="middle" x="604" y="-117" font-family="Helvetica,sans-Serif" font-size="10.00">ctime</text>
</a>
</g>
</g>
<!-- Node1&#45;&gt;Node6 -->
<g id="edge5_Node000001_Node000006" class="edge">
<title>Node1&#45;&gt;Node6</title>
<g id="a_edge5_Node000001_Node000006"><a xlink:title=" ">
<path fill="none" stroke="#63b8ff" d="M495.91,-274.96C593.77,-261.86 757.8,-233.03 790,-184 794.64,-176.94 795.23,-171.63 790,-165 780.45,-152.89 686.8,-134.92 636.15,-125.97"/>
<polygon fill="#63b8ff" stroke="#63b8ff" points="636.49,-122.48 626.04,-124.21 635.28,-129.38 636.49,-122.48"/>
</a>
</g>
</g>
<!-- Node7 -->
<g id="Node000007" class="node">
<title>Node7</title>
<g id="a_Node000007"><a xlink:title=" ">
<polygon fill="#e0e0e0" stroke="#999999" points="452,-184 396,-184 396,-165 452,-165 452,-184"/>
<text text-anchor="middle" x="424" y="-172" font-family="Helvetica,sans-Serif" font-size="10.00">sstream</text>
</a>
</g>
</g>
<!-- Node1&#45;&gt;Node7 -->
<g id="edge6_Node000001_Node000007" class="edge">
<title>Node1&#45;&gt;Node7</title>
<g id="a_edge6_Node000001_Node000007"><a xlink:title=" ">
<path fill="none" stroke="#63b8ff" d="M426.88,-274.98C431.56,-266.26 438.31,-252.17 441,-239 444.18,-223.45 438.89,-206.06 433.39,-193.41"/>
<polygon fill="#63b8ff" stroke="#63b8ff" points="436.38,-191.56 428.91,-184.05 430.07,-194.58 436.38,-191.56"/>
</a>
</g>
</g>
<!-- Node8 -->
<g id="Node000008" class="node">
<title>Node8</title>
<g id="a_Node000008"><a xlink:title=" ">
<polygon fill="#e0e0e0" stroke="#999999" points="526,-184 470,-184 470,-165 526,-165 526,-184"/>
<text text-anchor="middle" x="498" y="-172" font-family="Helvetica,sans-Serif" font-size="10.00">iomanip</text>
</a>
</g>
</g>
<!-- Node1&#45;&gt;Node8 -->
<g id="edge7_Node000001_Node000008" class="edge">
<title>Node1&#45;&gt;Node8</title>
<g id="a_edge7_Node000001_Node000008"><a xlink:title=" ">
<path fill="none" stroke="#63b8ff" d="M428.69,-274.72C435.43,-265.8 446.1,-251.55 455,-239 466.03,-223.44 478.18,-205.42 486.74,-192.55"/>
<polygon fill="#63b8ff" stroke="#63b8ff" points="489.66,-194.48 492.27,-184.21 483.83,-190.61 489.66,-194.48"/>
</a>
</g>
</g>
<!-- Node9 -->
<g id="Node000009" class="node">
<title>Node9</title>
<g id="a_Node000009"><a xlink:title=" ">
<polygon fill="#e0e0e0" stroke="#999999" points="261.5,-184 206.5,-184 206.5,-165 261.5,-165 261.5,-184"/>
<text text-anchor="middle" x="234" y="-172" font-family="Helvetica,sans-Serif" font-size="10.00">fstream</text>
</a>
</g>
</g>
<!-- Node1&#45;&gt;Node9 -->
<g id="edge8_Node000001_Node000009" class="edge">
<title>Node1&#45;&gt;Node9</title>
<g id="a_edge8_Node000001_Node000009"><a xlink:title=" ">
<path fill="none" stroke="#63b8ff" d="M401.99,-274.92C382.86,-266.49 353.42,-252.91 329,-239 302.19,-223.73 272.88,-203.57 254.02,-190.1"/>
<polygon fill="#63b8ff" stroke="#63b8ff" points="255.81,-187.08 245.65,-184.08 251.72,-192.76 255.81,-187.08"/>
</a>
</g>
</g>
<!-- Node10 -->
<g id="Node000010" class="node">
<title>Node10</title>
<g id="a_Node000010"><a xlink:href="AutoIndexHandler_8hpp.html" target="_top" xlink:title=" ">
<polygon fill="white" stroke="#666666" points="1212.5,-184 1033.5,-184 1033.5,-165 1212.5,-165 1212.5,-184"/>
<text text-anchor="middle" x="1123" y="-172" font-family="Helvetica,sans-Serif" font-size="10.00">dispatcher/AutoIndexHandler.hpp</text>
</a>
</g>
</g>
<!-- Node1&#45;&gt;Node10 -->
<g id="edge9_Node000001_Node000010" class="edge">
<title>Node1&#45;&gt;Node10</title>
<g id="a_edge9_Node000001_Node000010"><a xlink:title=" ">
<path fill="none" stroke="#63b8ff" d="M511.13,-276.13C592.62,-268.8 716.33,-256.17 823,-239 914.23,-224.32 1019.67,-200.35 1078.1,-186.44"/>
<polygon fill="#63b8ff" stroke="#63b8ff" points="1079.2,-189.78 1088.11,-184.05 1077.57,-182.97 1079.2,-189.78"/>
</a>
</g>
</g>
<!-- Node21 -->
<g id="Node000021" class="node">
<title>Node21</title>
<g id="a_Node000021"><a xlink:href="string__utils_8hpp.html" target="_top" xlink:title="Collection of inline string utility functions used across Webservinho.">
<polygon fill="white" stroke="#666666" points="654,-239 538,-239 538,-220 654,-220 654,-239"/>
<text text-anchor="middle" x="596" y="-227" font-family="Helvetica,sans-Serif" font-size="10.00">utils/string_utils.hpp</text>
</a>
</g>
</g>
<!-- Node1&#45;&gt;Node21 -->
<g id="edge24_Node000001_Node000021" class="edge">
<title>Node1&#45;&gt;Node21</title>
<g id="a_edge24_Node000001_Node000021"><a xlink:title=" ">
<path fill="none" stroke="#63b8ff" d="M449.96,-274.98C479.3,-266.05 525.6,-251.94 558.19,-242.02"/>
<polygon fill="#63b8ff" stroke="#63b8ff" points="559.28,-245.34 567.82,-239.08 557.24,-238.65 559.28,-245.34"/>
</a>
</g>
</g>
<!-- Node25 -->
<g id="Node000025" class="node">
<title>Node25</title>
<g id="a_Node000025"><a xlink:href="Logger_8hpp.html" target="_top" xlink:title=" ">
<polygon fill="white" stroke="#666666" points="432,-239 338,-239 338,-220 432,-220 432,-239"/>
<text text-anchor="middle" x="385" y="-227" font-family="Helvetica,sans-Serif" font-size="10.00">utils/Logger.hpp</text>
</a>
</g>
</g>
<!-- Node1&#45;&gt;Node25 -->
<g id="edge32_Node000001_Node000025" class="edge">
<title>Node1&#45;&gt;Node25</title>
<g id="a_edge32_Node000001_Node000025"><a xlink:title=" ">
<path fill="none" stroke="#63b8ff" d="M415.89,-274.75C410.72,-267.34 403.15,-256.5 396.81,-247.41"/>
<polygon fill="#63b8ff" stroke="#63b8ff" points="399.59,-245.29 391,-239.09 393.85,-249.29 399.59,-245.29"/>
</a>
</g>
</g>
<!-- Node27 -->
<g id="Node000027" class="node">
<title>Node27</title>
<g id="a_Node000027"><a xlink:href="ResponseBuilder_8hpp.html" target="_top" xlink:title=" ">
<polygon fill="white" stroke="#666666" points="1214,-239 1048,-239 1048,-220 1214,-220 1214,-239"/>
<text text-anchor="middle" x="1131" y="-227" font-family="Helvetica,sans-Serif" font-size="10.00">response/ResponseBuilder.hpp</text>
</a>
</g>
</g>
<!-- Node1&#45;&gt;Node27 -->
<g id="edge37_Node000001_Node000027" class="edge">
<title>Node1&#45;&gt;Node27</title>
<g id="a_edge37_Node000001_Node000027"><a xlink:title=" ">
<path fill="none" stroke="#63b8ff" d="M511.08,-276.84C645.87,-266.76 900.46,-247.73 1037.71,-237.47"/>
<polygon fill="#63b8ff" stroke="#63b8ff" points="1038.08,-240.96 1047.79,-236.72 1037.55,-233.98 1038.08,-240.96"/>
</a>
</g>
</g>
<!-- Node11 -->
<g id="Node000011" class="node">
<title>Node11</title>
<g id="a_Node000011"><a xlink:href="HttpRequest_8hpp.html" target="_top" xlink:title=" ">
<polygon fill="white" stroke="#666666" points="1315,-129 1177,-129 1177,-110 1315,-110 1315,-129"/>
<text text-anchor="middle" x="1246" y="-117" font-family="Helvetica,sans-Serif" font-size="10.00">request/HttpRequest.hpp</text>
</a>
</g>
</g>
<!-- Node10&#45;&gt;Node11 -->
<g id="edge10_Node000010_Node000011" class="edge">
<title>Node10&#45;&gt;Node11</title>
<g id="a_edge10_Node000010_Node000011"><a xlink:title=" ">
<path fill="none" stroke="#63b8ff" d="M1142.76,-164.98C1162.73,-156.38 1193.8,-142.99 1216.65,-133.15"/>
<polygon fill="#63b8ff" stroke="#63b8ff" points="1218.08,-136.34 1225.88,-129.17 1215.31,-129.91 1218.08,-136.34"/>
</a>
</g>
</g>
<!-- Node20 -->
<g id="Node000020" class="node">
<title>Node20</title>
<g id="a_Node000020"><a xlink:href="HttpResponse_8hpp.html" target="_top" xlink:title=" ">
<polygon fill="white" stroke="#666666" points="1081.5,-129 928.5,-129 928.5,-110 1081.5,-110 1081.5,-129"/>
<text text-anchor="middle" x="1005" y="-117" font-family="Helvetica,sans-Serif" font-size="10.00">response/HttpResponse.hpp</text>
</a>
</g>
</g>
<!-- Node10&#45;&gt;Node20 -->
<g id="edge20_Node000010_Node000020" class="edge">
<title>Node10&#45;&gt;Node20</title>
<g id="a_edge20_Node000010_Node000020"><a xlink:title=" ">
<path fill="none" stroke="#63b8ff" d="M1104.04,-164.98C1084.97,-156.42 1055.34,-143.11 1033.45,-133.28"/>
<polygon fill="#63b8ff" stroke="#63b8ff" points="1034.86,-130.07 1024.3,-129.17 1031.99,-136.46 1034.86,-130.07"/>
</a>
</g>
</g>
<!-- Node12 -->
<g id="Node000012" class="node">
<title>Node12</title>
<g id="a_Node000012"><a xlink:title=" ">
<polygon fill="#e0e0e0" stroke="#999999" points="964,-19 920,-19 920,0 964,0 964,-19"/>
<text text-anchor="middle" x="942" y="-7" font-family="Helvetica,sans-Serif" font-size="10.00">string</text>
</a>
</g>
</g>
<!-- Node11&#45;&gt;Node12 -->
<g id="edge11_Node000011_Node000012" class="edge">
<title>Node11&#45;&gt;Node12</title>
<g id="a_edge11_Node000011_Node000012"><a xlink:title=" ">
<path fill="none" stroke="#63b8ff" d="M1282.16,-109.93C1318.98,-99.57 1367.68,-80.33 1345,-55 1320.35,-27.48 1065.11,-15.17 974.05,-11.63"/>
<polygon fill="#63b8ff" stroke="#63b8ff" points="974.16,-8.13 964.03,-11.25 973.89,-15.13 974.16,-8.13"/>
</a>
</g>
</g>
<!-- Node13 -->
<g id="Node000013" class="node">
<title>Node13</title>
<g id="a_Node000013"><a xlink:title=" ">
<polygon fill="#e0e0e0" stroke="#999999" points="1430,-74 1392,-74 1392,-55 1430,-55 1430,-74"/>
<text text-anchor="middle" x="1411" y="-62" font-family="Helvetica,sans-Serif" font-size="10.00">map</text>
</a>
</g>
</g>
<!-- Node11&#45;&gt;Node13 -->
<g id="edge12_Node000011_Node000013" class="edge">
<title>Node11&#45;&gt;Node13</title>
<g id="a_edge12_Node000011_Node000013"><a xlink:title=" ">
<path fill="none" stroke="#63b8ff" d="M1272.51,-109.98C1302.47,-100.36 1351.07,-84.75 1382.01,-74.81"/>
<polygon fill="#63b8ff" stroke="#63b8ff" points="1383.32,-78.07 1391.77,-71.68 1381.18,-71.4 1383.32,-78.07"/>
</a>
</g>
</g>
<!-- Node14 -->
<g id="Node000014" class="node">
<title>Node14</title>
<g id="a_Node000014"><a xlink:title=" ">
<polygon fill="#e0e0e0" stroke="#999999" points="1495.5,-74 1448.5,-74 1448.5,-55 1495.5,-55 1495.5,-74"/>
<text text-anchor="middle" x="1472" y="-62" font-family="Helvetica,sans-Serif" font-size="10.00">vector</text>
</a>
</g>
</g>
<!-- Node11&#45;&gt;Node14 -->
<g id="edge13_Node000011_Node000014" class="edge">
<title>Node11&#45;&gt;Node14</title>
<g id="a_edge13_Node000011_Node000014"><a xlink:title=" ">
<path fill="none" stroke="#63b8ff" d="M1284.52,-109.92C1321.47,-101.63 1379.07,-88.52 1438.32,-74.12"/>
<polygon fill="#63b8ff" stroke="#63b8ff" points="1439.34,-77.47 1448.23,-71.7 1437.68,-70.67 1439.34,-77.47"/>
</a>
</g>
</g>
<!-- Node15 -->
<g id="Node000015" class="node">
<title>Node15</title>
<g id="a_Node000015"><a xlink:href="RequestMethod_8hpp.html" target="_top" xlink:title=" ">
<polygon fill="white" stroke="#666666" points="1706,-74 1552,-74 1552,-55 1706,-55 1706,-74"/>
<text text-anchor="middle" x="1629" y="-62" font-family="Helvetica,sans-Serif" font-size="10.00">request/RequestMethod.hpp</text>
</a>
</g>
</g>
<!-- Node11&#45;&gt;Node15 -->
<g id="edge14_Node000011_Node000015" class="edge">
<title>Node11&#45;&gt;Node15</title>
<g id="a_edge14_Node000011_Node000015"><a xlink:title=" ">
<path fill="none" stroke="#63b8ff" d="M1307.54,-109.98C1375.56,-100.57 1485,-85.43 1556.96,-75.47"/>
<polygon fill="#63b8ff" stroke="#63b8ff" points="1557.87,-78.88 1567.3,-74.04 1556.91,-71.94 1557.87,-78.88"/>
</a>
</g>
</g>
<!-- Node16 -->
<g id="Node000016" class="node">
<title>Node16</title>
<g id="a_Node000016"><a xlink:href="RequestMeta_8hpp.html" target="_top" xlink:title=" ">
<polygon fill="white" stroke="#666666" points="1013,-74 871,-74 871,-55 1013,-55 1013,-74"/>
<text text-anchor="middle" x="942" y="-62" font-family="Helvetica,sans-Serif" font-size="10.00">request/RequestMeta.hpp</text>
</a>
</g>
</g>
<!-- Node11&#45;&gt;Node16 -->
<g id="edge15_Node000011_Node000016" class="edge">
<title>Node11&#45;&gt;Node16</title>
<g id="a_edge15_Node000011_Node000016"><a xlink:title=" ">
<path fill="none" stroke="#63b8ff" d="M1197.16,-109.98C1143.72,-100.67 1058.08,-85.74 1000.94,-75.78"/>
<polygon fill="#63b8ff" stroke="#63b8ff" points="1001.43,-72.31 990.97,-74.04 1000.22,-79.2 1001.43,-72.31"/>
</a>
</g>
</g>
<!-- Node17 -->
<g id="Node000017" class="node">
<title>Node17</title>
<g id="a_Node000017"><a xlink:href="RequestState_8hpp.html" target="_top" xlink:title=" ">
<polygon fill="white" stroke="#666666" points="1174.5,-74 1031.5,-74 1031.5,-55 1174.5,-55 1174.5,-74"/>
<text text-anchor="middle" x="1103" y="-62" font-family="Helvetica,sans-Serif" font-size="10.00">request/RequestState.hpp</text>
</a>
</g>
</g>
<!-- Node11&#45;&gt;Node17 -->
<g id="edge17_Node000011_Node000017" class="edge">
<title>Node11&#45;&gt;Node17</title>
<g id="a_edge17_Node000011_Node000017"><a xlink:title=" ">
<path fill="none" stroke="#63b8ff" d="M1223.02,-109.98C1199.5,-101.27 1162.71,-87.63 1136.06,-77.75"/>
<polygon fill="#63b8ff" stroke="#63b8ff" points="1136.99,-74.36 1126.39,-74.17 1134.55,-80.93 1136.99,-74.36"/>
</a>
</g>
</g>
<!-- Node18 -->
<g id="Node000018" class="node">
<title>Node18</title>
<g id="a_Node000018"><a xlink:href="ResponseStatus_8hpp.html" target="_top" xlink:title=" ">
<polygon fill="white" stroke="#666666" points="852.5,-74 689.5,-74 689.5,-55 852.5,-55 852.5,-74"/>
<text text-anchor="middle" x="771" y="-62" font-family="Helvetica,sans-Serif" font-size="10.00">response/ResponseStatus.hpp</text>
</a>
</g>
</g>
<!-- Node11&#45;&gt;Node18 -->
<g id="edge18_Node000011_Node000018" class="edge">
<title>Node11&#45;&gt;Node18</title>
<g id="a_edge18_Node000011_Node000018"><a xlink:title=" ">
<path fill="none" stroke="#63b8ff" d="M1176.93,-110.79C1092.36,-101.36 949.09,-85.37 857.33,-75.13"/>
<polygon fill="#63b8ff" stroke="#63b8ff" points="857.56,-71.64 847.23,-74.01 856.78,-78.59 857.56,-71.64"/>
</a>
</g>
</g>
<!-- Node19 -->
<g id="Node000019" class="node">
<title>Node19</title>
<g id="a_Node000019"><a xlink:href="RouteType_8hpp.html" target="_top" xlink:title=" ">
<polygon fill="white" stroke="#666666" points="1335.5,-74 1192.5,-74 1192.5,-55 1335.5,-55 1335.5,-74"/>
<text text-anchor="middle" x="1264" y="-62" font-family="Helvetica,sans-Serif" font-size="10.00">dispatcher/RouteType.hpp</text>
</a>
</g>
</g>
<!-- Node11&#45;&gt;Node19 -->
<g id="edge19_Node000011_Node000019" class="edge">
<title>Node11&#45;&gt;Node19</title>
<g id="a_edge19_Node000011_Node000019"><a xlink:title=" ">
<path fill="none" stroke="#63b8ff" d="M1248.97,-109.75C1251.36,-102.72 1254.79,-92.62 1257.77,-83.84"/>
<polygon fill="#63b8ff" stroke="#63b8ff" points="1261.18,-84.68 1261.08,-74.09 1254.55,-82.43 1261.18,-84.68"/>
</a>
</g>
</g>
<!-- Node16&#45;&gt;Node12 -->
<g id="edge16_Node000016_Node000012" class="edge">
<title>Node16&#45;&gt;Node12</title>
<g id="a_edge16_Node000016_Node000012"><a xlink:title=" ">
<path fill="none" stroke="#63b8ff" d="M942,-54.75C942,-47.8 942,-37.85 942,-29.13"/>
<polygon fill="#63b8ff" stroke="#63b8ff" points="945.5,-29.09 942,-19.09 938.5,-29.09 945.5,-29.09"/>
</a>
</g>
</g>
<!-- Node20&#45;&gt;Node12 -->
<g id="edge21_Node000020_Node000012" class="edge">
<title>Node20&#45;&gt;Node12</title>
<g id="a_edge21_Node000020_Node000012"><a xlink:title=" ">
<path fill="none" stroke="#63b8ff" d="M928.26,-110.51C835.04,-100.42 689.09,-83.28 681,-74 675.45,-67.64 675.55,-61.45 681,-55 709.94,-20.71 846.5,-12.84 909.73,-11.04"/>
<polygon fill="#63b8ff" stroke="#63b8ff" points="910.02,-14.53 919.93,-10.78 909.85,-7.53 910.02,-14.53"/>
</a>
</g>
</g>
<!-- Node20&#45;&gt;Node13 -->
<g id="edge22_Node000020_Node000013" class="edge">
<title>Node20&#45;&gt;Node13</title>
<g id="a_edge22_Node000020_Node000013"><a xlink:title=" ">
<path fill="none" stroke="#63b8ff" d="M1070.23,-109.98C1159.84,-98.29 1317.25,-77.74 1381.96,-69.29"/>
<polygon fill="#63b8ff" stroke="#63b8ff" points="1382.42,-72.76 1391.88,-68 1381.51,-65.82 1382.42,-72.76"/>
</a>
</g>
</g>
<!-- Node20&#45;&gt;Node18 -->
<g id="edge23_Node000020_Node000018" class="edge">
<title>Node20&#45;&gt;Node18</title>
<g id="a_edge23_Node000020_Node000018"><a xlink:title=" ">
<path fill="none" stroke="#63b8ff" d="M967.4,-109.98C927.01,-100.84 862.72,-86.27 818.77,-76.32"/>
<polygon fill="#63b8ff" stroke="#63b8ff" points="819.42,-72.88 808.89,-74.08 817.87,-79.7 819.42,-72.88"/>
</a>
</g>
</g>
<!-- Node21&#45;&gt;Node7 -->
<g id="edge26_Node000021_Node000007" class="edge">
<title>Node21&#45;&gt;Node7</title>
<g id="a_edge26_Node000021_Node000007"><a xlink:title=" ">
<path fill="none" stroke="#63b8ff" d="M568.37,-219.98C539.49,-211.09 493.99,-197.07 461.8,-187.15"/>
<polygon fill="#63b8ff" stroke="#63b8ff" points="462.44,-183.68 451.85,-184.08 460.38,-190.37 462.44,-183.68"/>
</a>
</g>
</g>
<!-- Node21&#45;&gt;Node8 -->
<g id="edge31_Node000021_Node000008" class="edge">
<title>Node21&#45;&gt;Node8</title>
<g id="a_edge31_Node000021_Node000008"><a xlink:title=" ">
<path fill="none" stroke="#63b8ff" d="M580.25,-219.98C564.77,-211.61 540.91,-198.7 522.86,-188.95"/>
<polygon fill="#63b8ff" stroke="#63b8ff" points="524.49,-185.85 514.03,-184.17 521.16,-192.01 524.49,-185.85"/>
</a>
</g>
</g>
<!-- Node21&#45;&gt;Node12 -->
<g id="edge25_Node000021_Node000012" class="edge">
<title>Node21&#45;&gt;Node12</title>
<g id="a_edge25_Node000021_Node000012"><a xlink:title=" ">
<path fill="none" stroke="#63b8ff" d="M590.67,-219.88C578.83,-199.49 552.87,-147.24 573,-110 594.22,-70.74 615.35,-71.02 657,-55 744.2,-21.45 855.66,-13.17 909.72,-11.14"/>
<polygon fill="#63b8ff" stroke="#63b8ff" points="909.86,-14.64 919.74,-10.81 909.63,-7.64 909.86,-14.64"/>
</a>
</g>
</g>
<!-- Node21&#45;&gt;Node14 -->
<g id="edge27_Node000021_Node000014" class="edge">
<title>Node21&#45;&gt;Node14</title>
<g id="a_edge27_Node000021_Node000014"><a xlink:title=" ">
<path fill="none" stroke="#63b8ff" d="M654.1,-227.11C788.15,-223.47 1115.7,-211.92 1222,-184 1311.4,-160.52 1407.67,-105.38 1449.96,-79.44"/>
<polygon fill="#63b8ff" stroke="#63b8ff" points="1451.94,-82.33 1458.6,-74.09 1448.25,-76.38 1451.94,-82.33"/>
</a>
</g>
</g>
<!-- Node22 -->
<g id="Node000022" class="node">
<title>Node22</title>
<g id="a_Node000022"><a xlink:title=" ">
<polygon fill="#e0e0e0" stroke="#999999" points="781,-184 717,-184 717,-165 781,-165 781,-184"/>
<text text-anchor="middle" x="749" y="-172" font-family="Helvetica,sans-Serif" font-size="10.00">algorithm</text>
</a>
</g>
</g>
<!-- Node21&#45;&gt;Node22 -->
<g id="edge28_Node000021_Node000022" class="edge">
<title>Node21&#45;&gt;Node22</title>
<g id="a_edge28_Node000021_Node000022"><a xlink:title=" ">
<path fill="none" stroke="#63b8ff" d="M620.58,-219.98C646.05,-211.16 686.04,-197.31 714.63,-187.41"/>
<polygon fill="#63b8ff" stroke="#63b8ff" points="715.92,-190.66 724.23,-184.08 713.63,-184.05 715.92,-190.66"/>
</a>
</g>
</g>
<!-- Node23 -->
<g id="Node000023" class="node">
<title>Node23</title>
<g id="a_Node000023"><a xlink:title=" ">
<polygon fill="#e0e0e0" stroke="#999999" points="631.5,-184 582.5,-184 582.5,-165 631.5,-165 631.5,-184"/>
<text text-anchor="middle" x="607" y="-172" font-family="Helvetica,sans-Serif" font-size="10.00">cctype</text>
</a>
</g>
</g>
<!-- Node21&#45;&gt;Node23 -->
<g id="edge29_Node000021_Node000023" class="edge">
<title>Node21&#45;&gt;Node23</title>
<g id="a_edge29_Node000021_Node000023"><a xlink:title=" ">
<path fill="none" stroke="#63b8ff" d="M597.82,-219.75C599.26,-212.8 601.32,-202.85 603.13,-194.13"/>
<polygon fill="#63b8ff" stroke="#63b8ff" points="606.61,-194.59 605.22,-184.09 599.76,-193.17 606.61,-194.59"/>
</a>
</g>
</g>
<!-- Node24 -->
<g id="Node000024" class="node">
<title>Node24</title>
<g id="a_Node000024"><a xlink:title=" ">
<polygon fill="#e0e0e0" stroke="#999999" points="698.5,-184 649.5,-184 649.5,-165 698.5,-165 698.5,-184"/>
<text text-anchor="middle" x="674" y="-172" font-family="Helvetica,sans-Serif" font-size="10.00">cstdlib</text>
</a>
</g>
</g>
<!-- Node21&#45;&gt;Node24 -->
<g id="edge30_Node000021_Node000024" class="edge">
<title>Node21&#45;&gt;Node24</title>
<g id="a_edge30_Node000021_Node000024"><a xlink:title=" ">
<path fill="none" stroke="#63b8ff" d="M608.53,-219.98C620.4,-211.92 638.46,-199.65 652.61,-190.03"/>
<polygon fill="#63b8ff" stroke="#63b8ff" points="654.94,-192.69 661.24,-184.17 651,-186.9 654.94,-192.69"/>
</a>
</g>
</g>
<!-- Node25&#45;&gt;Node6 -->
<g id="edge33_Node000025_Node000006" class="edge">
<title>Node25&#45;&gt;Node6</title>
<g id="a_edge33_Node000025_Node000006"><a xlink:title=" ">
<path fill="none" stroke="#63b8ff" d="M382.28,-219.94C378.61,-206.54 373.93,-180.52 387,-165 410.34,-137.29 516.9,-126.26 571.51,-122.37"/>
<polygon fill="#63b8ff" stroke="#63b8ff" points="571.96,-125.85 581.7,-121.69 571.49,-118.87 571.96,-125.85"/>
</a>
</g>
</g>
<!-- Node25&#45;&gt;Node7 -->
<g id="edge36_Node000025_Node000007" class="edge">
<title>Node25&#45;&gt;Node7</title>
<g id="a_edge36_Node000025_Node000007"><a xlink:title=" ">
<path fill="none" stroke="#63b8ff" d="M391.44,-219.75C396.89,-212.34 404.86,-201.5 411.56,-192.41"/>
<polygon fill="#63b8ff" stroke="#63b8ff" points="414.57,-194.22 417.68,-184.09 408.93,-190.07 414.57,-194.22"/>
</a>
</g>
</g>
<!-- Node25&#45;&gt;Node9 -->
<g id="edge34_Node000025_Node000009" class="edge">
<title>Node25&#45;&gt;Node9</title>
<g id="a_edge34_Node000025_Node000009"><a xlink:title=" ">
<path fill="none" stroke="#63b8ff" d="M360.74,-219.98C335.68,-211.19 296.37,-197.39 268.17,-187.49"/>
<polygon fill="#63b8ff" stroke="#63b8ff" points="269.3,-184.18 258.7,-184.17 266.98,-190.78 269.3,-184.18"/>
</a>
</g>
</g>
<!-- Node26 -->
<g id="Node000026" class="node">
<title>Node26</title>
<g id="a_Node000026"><a xlink:title=" ">
<polygon fill="#e0e0e0" stroke="#999999" points="340,-184 280,-184 280,-165 340,-165 340,-184"/>
<text text-anchor="middle" x="310" y="-172" font-family="Helvetica,sans-Serif" font-size="10.00">iostream</text>
</a>
</g>
</g>
<!-- Node25&#45;&gt;Node26 -->
<g id="edge35_Node000025_Node000026" class="edge">
<title>Node25&#45;&gt;Node26</title>
<g id="a_edge35_Node000025_Node000026"><a xlink:title=" ">
<path fill="none" stroke="#63b8ff" d="M372.95,-219.98C361.54,-211.92 344.17,-199.65 330.57,-190.03"/>
<polygon fill="#63b8ff" stroke="#63b8ff" points="332.46,-187.08 322.27,-184.17 328.42,-192.8 332.46,-187.08"/>
</a>
</g>
</g>
<!-- Node27&#45;&gt;Node18 -->
<g id="edge39_Node000027_Node000018" class="edge">
<title>Node27&#45;&gt;Node18</title>
<g id="a_edge39_Node000027_Node000018"><a xlink:title=" ">
<path fill="none" stroke="#63b8ff" d="M1164.59,-219.99C1197.22,-209.97 1239.49,-191.31 1222,-165 1204.52,-138.71 1121.45,-118.36 1091,-110 1048.66,-98.38 938.43,-84.33 859.18,-75.17"/>
<polygon fill="#63b8ff" stroke="#63b8ff" points="859.52,-71.68 849.19,-74.02 858.73,-78.64 859.52,-71.68"/>
</a>
</g>
</g>
<!-- Node27&#45;&gt;Node20 -->
<g id="edge38_Node000027_Node000020" class="edge">
<title>Node27&#45;&gt;Node20</title>
<g id="a_edge38_Node000027_Node000020"><a xlink:title=" ">
<path fill="none" stroke="#63b8ff" d="M1089.34,-219.95C1067.47,-213.48 1041.81,-202.44 1025,-184 1013.81,-171.72 1008.88,-153.21 1006.71,-139.34"/>
<polygon fill="#63b8ff" stroke="#63b8ff" points="1010.13,-138.52 1005.46,-129.01 1003.18,-139.36 1010.13,-138.52"/>
</a>
</g>
</g>
<!-- Node28 -->
<g id="Node000028" class="node">
<title>Node28</title>
<g id="a_Node000028"><a xlink:href="ClientConnection_8hpp.html" target="_top" xlink:title=" ">
<polygon fill="white" stroke="#666666" points="977,-184 837,-184 837,-165 977,-165 977,-184"/>
<text text-anchor="middle" x="907" y="-172" font-family="Helvetica,sans-Serif" font-size="10.00">init/ClientConnection.hpp</text>
</a>
</g>
</g>
<!-- Node27&#45;&gt;Node28 -->
<g id="edge40_Node000027_Node000028" class="edge">
<title>Node27&#45;&gt;Node28</title>
<g id="a_edge40_Node000027_Node000028"><a xlink:title=" ">
<path fill="none" stroke="#63b8ff" d="M1095.01,-219.98C1056.51,-210.87 995.31,-196.4 953.26,-186.45"/>
<polygon fill="#63b8ff" stroke="#63b8ff" points="953.81,-182.98 943.27,-184.08 952.2,-189.79 953.81,-182.98"/>
</a>
</g>
</g>
<!-- Node30 -->
<g id="Node000030" class="node">
<title>Node30</title>
<g id="a_Node000030"><a xlink:href="ServerConfig_8hpp.html" target="_top" xlink:title=" ">
<polygon fill="white" stroke="#666666" points="1555,-184 1423,-184 1423,-165 1555,-165 1555,-184"/>
<text text-anchor="middle" x="1489" y="-172" font-family="Helvetica,sans-Serif" font-size="10.00">config/ServerConfig.hpp</text>
</a>
</g>
</g>
<!-- Node27&#45;&gt;Node30 -->
<g id="edge46_Node000027_Node000030" class="edge">
<title>Node27&#45;&gt;Node30</title>
<g id="a_edge46_Node000027_Node000030"><a xlink:title=" ">
<path fill="none" stroke="#63b8ff" d="M1188.52,-219.98C1251.97,-210.59 1353.98,-195.49 1421.25,-185.53"/>
<polygon fill="#63b8ff" stroke="#63b8ff" points="1421.95,-188.96 1431.33,-184.04 1420.92,-182.04 1421.95,-188.96"/>
</a>
</g>
</g>
<!-- Node31 -->
<g id="Node000031" class="node">
<title>Node31</title>
<g id="a_Node000031"><a xlink:href="LocationConfig_8hpp.html" target="_top" xlink:title=" ">
<polygon fill="white" stroke="#666666" points="1596,-129 1454,-129 1454,-110 1596,-110 1596,-129"/>
<text text-anchor="middle" x="1525" y="-117" font-family="Helvetica,sans-Serif" font-size="10.00">config/LocationConfig.hpp</text>
</a>
</g>
</g>
<!-- Node27&#45;&gt;Node31 -->
<g id="edge56_Node000027_Node000031" class="edge">
<title>Node27&#45;&gt;Node31</title>
<g id="a_edge56_Node000027_Node000031"><a xlink:title=" ">
<path fill="none" stroke="#63b8ff" d="M1162.25,-219.94C1232.79,-200.6 1404.42,-153.55 1483.65,-131.83"/>
<polygon fill="#63b8ff" stroke="#63b8ff" points="1485.03,-135.08 1493.75,-129.07 1483.18,-128.33 1485.03,-135.08"/>
</a>
</g>
</g>
<!-- Node28&#45;&gt;Node6 -->
<g id="edge42_Node000028_Node000006" class="edge">
<title>Node28&#45;&gt;Node6</title>
<g id="a_edge42_Node000028_Node000006"><a xlink:title=" ">
<path fill="none" stroke="#63b8ff" d="M848.98,-164.97C794.76,-156.73 711.64,-143.41 640,-129 638.73,-128.74 637.43,-128.47 636.12,-128.2"/>
<polygon fill="#63b8ff" stroke="#63b8ff" points="636.56,-124.71 626.03,-125.95 635.03,-131.54 636.56,-124.71"/>
</a>
</g>
</g>
<!-- Node28&#45;&gt;Node11 -->
<g id="edge44_Node000028_Node000011" class="edge">
<title>Node28&#45;&gt;Node11</title>
<g id="a_edge44_Node000028_Node000011"><a xlink:title=" ">
<path fill="none" stroke="#63b8ff" d="M961.47,-164.98C1021.43,-155.61 1117.75,-140.55 1181.45,-130.59"/>
<polygon fill="#63b8ff" stroke="#63b8ff" points="1182.05,-134.04 1191.39,-129.04 1180.97,-127.12 1182.05,-134.04"/>
</a>
</g>
</g>
<!-- Node28&#45;&gt;Node12 -->
<g id="edge41_Node000028_Node000012" class="edge">
<title>Node28&#45;&gt;Node12</title>
<g id="a_edge41_Node000028_Node000012"><a xlink:title=" ">
<path fill="none" stroke="#63b8ff" d="M843.09,-164.95C756.58,-150.82 618.78,-117.71 672,-55 702.14,-19.49 844.51,-12.27 909.51,-10.84"/>
<polygon fill="#63b8ff" stroke="#63b8ff" points="909.68,-14.33 919.61,-10.65 909.54,-7.33 909.68,-14.33"/>
</a>
</g>
</g>
<!-- Node28&#45;&gt;Node20 -->
<g id="edge45_Node000028_Node000020" class="edge">
<title>Node28&#45;&gt;Node20</title>
<g id="a_edge45_Node000028_Node000020"><a xlink:title=" ">
<path fill="none" stroke="#63b8ff" d="M922.75,-164.98C938.23,-156.61 962.09,-143.7 980.14,-133.95"/>
<polygon fill="#63b8ff" stroke="#63b8ff" points="981.84,-137.01 988.97,-129.17 978.51,-130.85 981.84,-137.01"/>
</a>
</g>
</g>
<!-- Node29 -->
<g id="Node000029" class="node">
<title>Node29</title>
<g id="a_Node000029"><a xlink:title=" ">
<polygon fill="#e0e0e0" stroke="#999999" points="910,-129 838,-129 838,-110 910,-110 910,-129"/>
<text text-anchor="middle" x="874" y="-117" font-family="Helvetica,sans-Serif" font-size="10.00">sys/types.h</text>
</a>
</g>
</g>
<!-- Node28&#45;&gt;Node29 -->
<g id="edge43_Node000028_Node000029" class="edge">
<title>Node28&#45;&gt;Node29</title>
<g id="a_edge43_Node000028_Node000029"><a xlink:title=" ">
<path fill="none" stroke="#63b8ff" d="M901.55,-164.75C896.99,-157.42 890.33,-146.73 884.71,-137.7"/>
<polygon fill="#63b8ff" stroke="#63b8ff" points="887.6,-135.73 879.35,-129.09 881.66,-139.43 887.6,-135.73"/>
</a>
</g>
</g>
<!-- Node30&#45;&gt;Node12 -->
<g id="edge47_Node000030_Node000012" class="edge">
<title>Node30&#45;&gt;Node12</title>
<g id="a_edge47_Node000030_Node000012"><a xlink:title=" ">
<path fill="none" stroke="#63b8ff" d="M1544.49,-164.96C1628.18,-149.94 1771.26,-114.6 1715,-55 1689.2,-27.67 1118.38,-14.13 974.63,-11.14"/>
<polygon fill="#63b8ff" stroke="#63b8ff" points="974.35,-7.64 964.28,-10.93 974.21,-14.63 974.35,-7.64"/>
</a>
</g>
</g>
<!-- Node30&#45;&gt;Node13 -->
<g id="edge49_Node000030_Node000013" class="edge">
<title>Node30&#45;&gt;Node13</title>
<g id="a_edge49_Node000030_Node000013"><a xlink:title=" ">
<path fill="none" stroke="#63b8ff" d="M1476.22,-164.91C1464.92,-156.78 1448.63,-143.65 1438,-129 1428.11,-115.37 1420.94,-97.55 1416.48,-84.26"/>
<polygon fill="#63b8ff" stroke="#63b8ff" points="1419.71,-82.85 1413.38,-74.35 1413.03,-84.94 1419.71,-82.85"/>
</a>
</g>
</g>
<!-- Node30&#45;&gt;Node14 -->
<g id="edge48_Node000030_Node000014" class="edge">
<title>Node30&#45;&gt;Node14</title>
<g id="a_edge48_Node000030_Node000014"><a xlink:title=" ">
<path fill="none" stroke="#63b8ff" d="M1476.22,-165C1465.61,-157.1 1451.28,-144.27 1445,-129 1438.42,-112.97 1447.89,-94.79 1457.38,-82"/>
<polygon fill="#63b8ff" stroke="#63b8ff" points="1460.19,-84.08 1463.75,-74.1 1454.75,-79.68 1460.19,-84.08"/>
</a>
</g>
</g>
<!-- Node30&#45;&gt;Node15 -->
<g id="edge55_Node000030_Node000015" class="edge">
<title>Node30&#45;&gt;Node15</title>
<g id="a_edge55_Node000030_Node000015"><a xlink:title=" ">
<path fill="none" stroke="#63b8ff" d="M1536.11,-164.94C1559.45,-158.54 1586.51,-147.58 1605,-129 1617.07,-116.87 1623.17,-98.07 1626.19,-84.08"/>
<polygon fill="#63b8ff" stroke="#63b8ff" points="1629.66,-84.56 1628,-74.1 1622.77,-83.31 1629.66,-84.56"/>
</a>
</g>
</g>
<!-- Node30&#45;&gt;Node31 -->
<g id="edge50_Node000030_Node000031" class="edge">
<title>Node30&#45;&gt;Node31</title>
<g id="a_edge50_Node000030_Node000031"><a xlink:title=" ">
<path fill="none" stroke="#63b8ff" d="M1494.94,-164.75C1499.98,-157.34 1507.34,-146.5 1513.51,-137.41"/>
<polygon fill="#63b8ff" stroke="#63b8ff" points="1516.44,-139.33 1519.17,-129.09 1510.65,-135.39 1516.44,-139.33"/>
</a>
</g>
</g>
<!-- Node31&#45;&gt;Node12 -->
<g id="edge52_Node000031_Node000012" class="edge">
<title>Node31&#45;&gt;Node12</title>
<g id="a_edge52_Node000031_Node000012"><a xlink:title=" ">
<path fill="none" stroke="#63b8ff" d="M1525.1,-109.86C1524.76,-95.84 1521.82,-68.39 1505,-55 1463.38,-21.87 1087.79,-12.93 974.32,-10.98"/>
<polygon fill="#63b8ff" stroke="#63b8ff" points="974.23,-7.48 964.18,-10.81 974.12,-14.47 974.23,-7.48"/>
</a>
</g>
</g>
<!-- Node31&#45;&gt;Node13 -->
<g id="edge53_Node000031_Node000013" class="edge">
<title>Node31&#45;&gt;Node13</title>
<g id="a_edge53_Node000031_Node000013"><a xlink:title=" ">
<path fill="none" stroke="#63b8ff" d="M1506.68,-109.98C1488.34,-101.46 1459.89,-88.23 1438.77,-78.41"/>
<polygon fill="#63b8ff" stroke="#63b8ff" points="1440.19,-75.21 1429.65,-74.17 1437.24,-81.56 1440.19,-75.21"/>
</a>
</g>
</g>
<!-- Node31&#45;&gt;Node14 -->
<g id="edge51_Node000031_Node000014" class="edge">
<title>Node31&#45;&gt;Node14</title>
<g id="a_edge51_Node000031_Node000014"><a xlink:title=" ">
<path fill="none" stroke="#63b8ff" d="M1516.25,-109.75C1508.53,-102.03 1497.1,-90.6 1487.78,-81.28"/>
<polygon fill="#63b8ff" stroke="#63b8ff" points="1490.14,-78.69 1480.59,-74.09 1485.19,-83.64 1490.14,-78.69"/>
</a>
</g>
</g>
<!-- Node31&#45;&gt;Node15 -->
<g id="edge54_Node000031_Node000015" class="edge">
<title>Node31&#45;&gt;Node15</title>
<g id="a_edge54_Node000031_Node000015"><a xlink:title=" ">
<path fill="none" stroke="#63b8ff" d="M1541.71,-109.98C1558.21,-101.57 1583.7,-88.59 1602.88,-78.81"/>
<polygon fill="#63b8ff" stroke="#63b8ff" points="1604.67,-81.83 1611.99,-74.17 1601.49,-75.59 1604.67,-81.83"/>
</a>
</g>
</g>
</g>
</svg>
