<?xml version="1.0" encoding="UTF-8" standalone="no"?>
<!DOCTYPE svg PUBLIC "-//W3C//DTD SVG 1.1//EN"
 "http://www.w3.org/Graphics/SVG/1.1/DTD/svg11.dtd">
<!-- Generated by graphviz version 2.43.0 (0)
 -->
<!-- Title: dispatcher/AutoIndexHandler.hpp Pages: 1 -->
<svg width="1004pt" height="192pt"
 viewBox="0.00 0.00 1003.76 192.00" xmlns="http://www.w3.org/2000/svg" xmlns:xlink="http://www.w3.org/1999/xlink">
<g id="graph0" class="graph" transform="scale(1 1) rotate(0) translate(4 188)">
<title>dispatcher/AutoIndexHandler.hpp</title>
<!-- Node1 -->
<g id="Node000001" class="node">
<title>Node1</title>
<g id="a_Node000001"><a xlink:title=" ">
<polygon fill="#999999" stroke="#666666" points="388.76,-184 209.76,-184 209.76,-165 388.76,-165 388.76,-184"/>
<text text-anchor="middle" x="299.26" y="-172" font-family="Helvetica,sans-Serif" font-size="10.00">dispatcher/AutoIndexHandler.hpp</text>
</a>
</g>
</g>
<!-- Node2 -->
<g id="Node000002" class="node">
<title>Node2</title>
<g id="a_Node000002"><a xlink:href="HttpRequest_8hpp.html" target="_top" xlink:title=" ">
<polygon fill="white" stroke="#666666" points="568.26,-129 430.26,-129 430.26,-110 568.26,-110 568.26,-129"/>
<text text-anchor="middle" x="499.26" y="-117" font-family="Helvetica,sans-Serif" font-size="10.00">request/HttpRequest.hpp</text>
</a>
</g>
</g>
<!-- Node1&#45;&gt;Node2 -->
<g id="edge1_Node000001_Node000002" class="edge">
<title>Node1&#45;&gt;Node2</title>
<g id="a_edge1_Node000001_Node000002"><a xlink:title=" ">
<path fill="none" stroke="#63b8ff" d="M331.39,-164.98C365.41,-155.97 419.25,-141.7 456.76,-131.76"/>
<polygon fill="#63b8ff" stroke="#63b8ff" points="458.1,-135.03 466.87,-129.08 456.31,-128.26 458.1,-135.03"/>
</a>
</g>
</g>
<!-- Node11 -->
<g id="Node000011" class="node">
<title>Node11</title>
<g id="a_Node000011"><a xlink:href="HttpResponse_8hpp.html" target="_top" xlink:title=" ">
<polygon fill="white" stroke="#666666" points="235.76,-129 82.76,-129 82.76,-110 235.76,-110 235.76,-129"/>
<text text-anchor="middle" x="159.26" y="-117" font-family="Helvetica,sans-Serif" font-size="10.00">response/HttpResponse.hpp</text>
</a>
</g>
</g>
<!-- Node1&#45;&gt;Node11 -->
<g id="edge11_Node000001_Node000011" class="edge">
<title>Node1&#45;&gt;Node11</title>
<g id="a_edge11_Node000001_Node000011"><a xlink:title=" ">
<path fill="none" stroke="#63b8ff" d="M276.77,-164.98C253.74,-156.27 217.72,-142.63 191.63,-132.75"/>
<polygon fill="#63b8ff" stroke="#63b8ff" points="192.75,-129.44 182.16,-129.17 190.27,-135.98 192.75,-129.44"/>
</a>
</g>
</g>
<!-- Node3 -->
<g id="Node000003" class="node">
<title>Node3</title>
<g id="a_Node000003"><a xlink:title=" ">
<polygon fill="#e0e0e0" stroke="#999999" points="782.26,-19 738.26,-19 738.26,0 782.26,0 782.26,-19"/>
<text text-anchor="middle" x="760.26" y="-7" font-family="Helvetica,sans-Serif" font-size="10.00">string</text>
</a>
</g>
</g>
<!-- Node2&#45;&gt;Node3 -->
<g id="edge2_Node000002_Node000003" class="edge">
<title>Node2&#45;&gt;Node3</title>
<g id="a_edge2_Node000002_Node000003"><a xlink:title=" ">
<path fill="none" stroke="#63b8ff" d="M568.34,-113.75C630.66,-108.09 716.25,-96.42 741.26,-74 753.7,-62.85 758.14,-43.92 759.65,-29.62"/>
<polygon fill="#63b8ff" stroke="#63b8ff" points="763.16,-29.6 760.34,-19.39 756.18,-29.13 763.16,-29.6"/>
</a>
</g>
</g>
<!-- Node4 -->
<g id="Node000004" class="node">
<title>Node4</title>
<g id="a_Node000004"><a xlink:title=" ">
<polygon fill="#e0e0e0" stroke="#999999" points="237.26,-74 199.26,-74 199.26,-55 237.26,-55 237.26,-74"/>
<text text-anchor="middle" x="218.26" y="-62" font-family="Helvetica,sans-Serif" font-size="10.00">map</text>
</a>
</g>
</g>
<!-- Node2&#45;&gt;Node4 -->
<g id="edge3_Node000002_Node000004" class="edge">
<title>Node2&#45;&gt;Node4</title>
<g id="a_edge3_Node000002_Node000004"><a xlink:title=" ">
<path fill="none" stroke="#63b8ff" d="M439.03,-110C389.82,-102.58 318.32,-90.72 247.45,-74.04"/>
<polygon fill="#63b8ff" stroke="#63b8ff" points="247.99,-70.58 237.45,-71.66 246.37,-77.39 247.99,-70.58"/>
</a>
</g>
</g>
<!-- Node5 -->
<g id="Node000005" class="node">
<title>Node5</title>
<g id="a_Node000005"><a xlink:title=" ">
<polygon fill="#e0e0e0" stroke="#999999" points="995.76,-74 948.76,-74 948.76,-55 995.76,-55 995.76,-74"/>
<text text-anchor="middle" x="972.26" y="-62" font-family="Helvetica,sans-Serif" font-size="10.00">vector</text>
</a>
</g>
</g>
<!-- Node2&#45;&gt;Node5 -->
<g id="edge4_Node000002_Node000005" class="edge">
<title>Node2&#45;&gt;Node5</title>
<g id="a_edge4_Node000002_Node000005"><a xlink:title=" ">
<path fill="none" stroke="#63b8ff" d="M568.3,-114.76C653.19,-109.43 801.77,-97.77 938.33,-73.88"/>
<polygon fill="#63b8ff" stroke="#63b8ff" points="939.33,-77.26 948.56,-72.06 938.1,-70.36 939.33,-77.26"/>
</a>
</g>
</g>
<!-- Node6 -->
<g id="Node000006" class="node">
<title>Node6</title>
<g id="a_Node000006"><a xlink:href="RequestMethod_8hpp.html" target="_top" xlink:title=" ">
<polygon fill="white" stroke="#666666" points="409.26,-74 255.26,-74 255.26,-55 409.26,-55 409.26,-74"/>
<text text-anchor="middle" x="332.26" y="-62" font-family="Helvetica,sans-Serif" font-size="10.00">request/RequestMethod.hpp</text>
</a>
</g>
</g>
<!-- Node2&#45;&gt;Node6 -->
<g id="edge5_Node000002_Node000006" class="edge">
<title>Node2&#45;&gt;Node6</title>
<g id="a_edge5_Node000002_Node000006"><a xlink:title=" ">
<path fill="none" stroke="#63b8ff" d="M472.43,-109.98C444.39,-101.09 400.21,-87.07 368.96,-77.15"/>
<polygon fill="#63b8ff" stroke="#63b8ff" points="369.89,-73.77 359.3,-74.08 367.77,-80.44 369.89,-73.77"/>
</a>
</g>
</g>
<!-- Node7 -->
<g id="Node000007" class="node">
<title>Node7</title>
<g id="a_Node000007"><a xlink:href="RequestMeta_8hpp.html" target="_top" xlink:title=" ">
<polygon fill="white" stroke="#666666" points="930.26,-74 788.26,-74 788.26,-55 930.26,-55 930.26,-74"/>
<text text-anchor="middle" x="859.26" y="-62" font-family="Helvetica,sans-Serif" font-size="10.00">request/RequestMeta.hpp</text>
</a>
</g>
</g>
<!-- Node2&#45;&gt;Node7 -->
<g id="edge6_Node000002_Node000007" class="edge">
<title>Node2&#45;&gt;Node7</title>
<g id="a_edge6_Node000002_Node000007"><a xlink:title=" ">
<path fill="none" stroke="#63b8ff" d="M557.1,-109.98C620.9,-100.59 723.48,-85.49 791.13,-75.53"/>
<polygon fill="#63b8ff" stroke="#63b8ff" points="791.88,-78.96 801.26,-74.04 790.86,-72.03 791.88,-78.96"/>
</a>
</g>
</g>
<!-- Node8 -->
<g id="Node000008" class="node">
<title>Node8</title>
<g id="a_Node000008"><a xlink:href="RequestState_8hpp.html" target="_top" xlink:title=" ">
<polygon fill="white" stroke="#666666" points="570.76,-74 427.76,-74 427.76,-55 570.76,-55 570.76,-74"/>
<text text-anchor="middle" x="499.26" y="-62" font-family="Helvetica,sans-Serif" font-size="10.00">request/RequestState.hpp</text>
</a>
</g>
</g>
<!-- Node2&#45;&gt;Node8 -->
<g id="edge8_Node000002_Node000008" class="edge">
<title>Node2&#45;&gt;Node8</title>
<g id="a_edge8_Node000002_Node000008"><a xlink:title=" ">
<path fill="none" stroke="#63b8ff" d="M499.26,-109.75C499.26,-102.8 499.26,-92.85 499.26,-84.13"/>
<polygon fill="#63b8ff" stroke="#63b8ff" points="502.76,-84.09 499.26,-74.09 495.76,-84.09 502.76,-84.09"/>
</a>
</g>
</g>
<!-- Node9 -->
<g id="Node000009" class="node">
<title>Node9</title>
<g id="a_Node000009"><a xlink:href="ResponseStatus_8hpp.html" target="_top" xlink:title=" ">
<polygon fill="white" stroke="#666666" points="180.76,-74 17.76,-74 17.76,-55 180.76,-55 180.76,-74"/>
<text text-anchor="middle" x="99.26" y="-62" font-family="Helvetica,sans-Serif" font-size="10.00">response/ResponseStatus.hpp</text>
</a>
</g>
</g>
<!-- Node2&#45;&gt;Node9 -->
<g id="edge9_Node000002_Node000009" class="edge">
<title>Node2&#45;&gt;Node9</title>
<g id="a_edge9_Node000002_Node000009"><a xlink:title=" ">
<path fill="none" stroke="#63b8ff" d="M434.99,-109.98C363.81,-100.55 249.18,-85.36 174.03,-75.41"/>
<polygon fill="#63b8ff" stroke="#63b8ff" points="174.07,-71.88 163.7,-74.04 173.15,-78.82 174.07,-71.88"/>
</a>
</g>
</g>
<!-- Node10 -->
<g id="Node000010" class="node">
<title>Node10</title>
<g id="a_Node000010"><a xlink:href="RouteType_8hpp.html" target="_top" xlink:title=" ">
<polygon fill="white" stroke="#666666" points="731.76,-74 588.76,-74 588.76,-55 731.76,-55 731.76,-74"/>
<text text-anchor="middle" x="660.26" y="-62" font-family="Helvetica,sans-Serif" font-size="10.00">dispatcher/RouteType.hpp</text>
</a>
</g>
</g>
<!-- Node2&#45;&gt;Node10 -->
<g id="edge10_Node000002_Node000010" class="edge">
<title>Node2&#45;&gt;Node10</title>
<g id="a_edge10_Node000002_Node000010"><a xlink:title=" ">
<path fill="none" stroke="#63b8ff" d="M525.13,-109.98C552.04,-101.13 594.38,-87.19 624.49,-77.28"/>
<polygon fill="#63b8ff" stroke="#63b8ff" points="625.78,-80.53 634.19,-74.08 623.6,-73.88 625.78,-80.53"/>
</a>
</g>
</g>
<!-- Node7&#45;&gt;Node3 -->
<g id="edge7_Node000007_Node000003" class="edge">
<title>Node7&#45;&gt;Node3</title>
<g id="a_edge7_Node000007_Node000003"><a xlink:title=" ">
<path fill="none" stroke="#63b8ff" d="M843.35,-54.98C827.71,-46.61 803.6,-33.7 785.37,-23.95"/>
<polygon fill="#63b8ff" stroke="#63b8ff" points="786.92,-20.8 776.45,-19.17 783.62,-26.98 786.92,-20.8"/>
</a>
</g>
</g>
<!-- Node11&#45;&gt;Node3 -->
<g id="edge12_Node000011_Node000003" class="edge">
<title>Node11&#45;&gt;Node3</title>
<g id="a_edge12_Node000011_Node000003"><a xlink:title=" ">
<path fill="none" stroke="#63b8ff" d="M82.76,-109.96C32.17,-101.39 -20.03,-85.01 8.26,-55 33.31,-28.42 587.45,-14.34 728.05,-11.19"/>
<polygon fill="#63b8ff" stroke="#63b8ff" points="728.26,-14.68 738.18,-10.96 728.11,-7.68 728.26,-14.68"/>
</a>
</g>
</g>
<!-- Node11&#45;&gt;Node4 -->
<g id="edge13_Node000011_Node000004" class="edge">
<title>Node11&#45;&gt;Node4</title>
<g id="a_edge13_Node000011_Node000004"><a xlink:title=" ">
<path fill="none" stroke="#63b8ff" d="M168.74,-109.98C177.46,-102.15 190.6,-90.34 201.16,-80.86"/>
<polygon fill="#63b8ff" stroke="#63b8ff" points="203.51,-83.46 208.61,-74.17 198.83,-78.25 203.51,-83.46"/>
</a>
</g>
</g>
<!-- Node11&#45;&gt;Node9 -->
<g id="edge14_Node000011_Node000009" class="edge">
<title>Node11&#45;&gt;Node9</title>
<g id="a_edge14_Node000011_Node000009"><a xlink:title=" ">
<path fill="none" stroke="#63b8ff" d="M149.62,-109.98C140.75,-102.15 127.38,-90.34 116.65,-80.86"/>
<polygon fill="#63b8ff" stroke="#63b8ff" points="118.89,-78.17 109.07,-74.17 114.25,-83.41 118.89,-78.17"/>
</a>
</g>
</g>
</g>
</svg>
