<?xml version="1.0" encoding="UTF-8" standalone="no"?>
<!DOCTYPE svg PUBLIC "-//W3C//DTD SVG 1.1//EN"
 "http://www.w3.org/Graphics/SVG/1.1/DTD/svg11.dtd">
<!-- Generated by graphviz version 2.43.0 (0)
 -->
<!-- Title: dispatcher/AutoIndexHandler.cpp Pages: 1 -->
<svg width="1775pt" height="302pt"
 viewBox="0.00 0.00 1774.50 302.00" xmlns="http://www.w3.org/2000/svg" xmlns:xlink="http://www.w3.org/1999/xlink">
<g id="graph0" class="graph" transform="scale(1 1) rotate(0) translate(4 298)">
<title>dispatcher/AutoIndexHandler.cpp</title>
<!-- Node1 -->
<g id="Node000001" class="node">
<title>Node1</title>
<g id="a_Node000001"><a xlink:title=" ">
<polygon fill="#999999" stroke="#666666" points="590,-294 412,-294 412,-275 590,-275 590,-294"/>
<text text-anchor="middle" x="501" y="-282" font-family="Helvetica,sans-Serif" font-size="10.00">dispatcher/AutoIndexHandler.cpp</text>
</a>
</g>
</g>
<!-- Node2 -->
<g id="Node000002" class="node">
<title>Node2</title>
<g id="a_Node000002"><a xlink:title=" ">
<polygon fill="#e0e0e0" stroke="#999999" points="54,-239 0,-239 0,-220 54,-220 54,-239"/>
<text text-anchor="middle" x="27" y="-227" font-family="Helvetica,sans-Serif" font-size="10.00">dirent.h</text>
</a>
</g>
</g>
<!-- Node1&#45;&gt;Node2 -->
<g id="edge1_Node000001_Node000002" class="edge">
<title>Node1&#45;&gt;Node2</title>
<g id="a_edge1_Node000001_Node000002"><a xlink:title=" ">
<path fill="none" stroke="#63b8ff" d="M411.62,-277.85C325.13,-271.6 190.19,-259.79 64.26,-239"/>
<polygon fill="#63b8ff" stroke="#63b8ff" points="64.49,-235.49 54.05,-237.29 63.33,-242.39 64.49,-235.49"/>
</a>
</g>
</g>
<!-- Node3 -->
<g id="Node000003" class="node">
<title>Node3</title>
<g id="a_Node000003"><a xlink:title=" ">
<polygon fill="#e0e0e0" stroke="#999999" points="136,-239 72,-239 72,-220 136,-220 136,-239"/>
<text text-anchor="middle" x="104" y="-227" font-family="Helvetica,sans-Serif" font-size="10.00">sys/stat.h</text>
</a>
</g>
</g>
<!-- Node1&#45;&gt;Node3 -->
<g id="edge2_Node000001_Node000003" class="edge">
<title>Node1&#45;&gt;Node3</title>
<g id="a_edge2_Node000001_Node000003"><a xlink:title=" ">
<path fill="none" stroke="#63b8ff" d="M417.65,-274.99C347.73,-267.41 245.03,-255.26 146.34,-239.1"/>
<polygon fill="#63b8ff" stroke="#63b8ff" points="146.62,-235.6 136.18,-237.43 145.48,-242.51 146.62,-235.6"/>
</a>
</g>
</g>
<!-- Node4 -->
<g id="Node000004" class="node">
<title>Node4</title>
<g id="a_Node000004"><a xlink:title=" ">
<polygon fill="#e0e0e0" stroke="#999999" points="210,-239 154,-239 154,-220 210,-220 210,-239"/>
<text text-anchor="middle" x="182" y="-227" font-family="Helvetica,sans-Serif" font-size="10.00">unistd.h</text>
</a>
</g>
</g>
<!-- Node1&#45;&gt;Node4 -->
<g id="edge3_Node000001_Node000004" class="edge">
<title>Node1&#45;&gt;Node4</title>
<g id="a_edge3_Node000001_Node000004"><a xlink:title=" ">
<path fill="none" stroke="#63b8ff" d="M439.96,-274.97C382.91,-266.72 295.44,-253.4 220,-239 219.9,-238.98 219.8,-238.96 219.7,-238.94"/>
<polygon fill="#63b8ff" stroke="#63b8ff" points="220.68,-235.57 210.18,-237.01 219.28,-242.43 220.68,-235.57"/>
</a>
</g>
</g>
<!-- Node5 -->
<g id="Node000005" class="node">
<title>Node5</title>
<g id="a_Node000005"><a xlink:title=" ">
<polygon fill="#e0e0e0" stroke="#999999" points="281.5,-239 228.5,-239 228.5,-220 281.5,-220 281.5,-239"/>
<text text-anchor="middle" x="255" y="-227" font-family="Helvetica,sans-Serif" font-size="10.00">limits.h</text>
</a>
</g>
</g>
<!-- Node1&#45;&gt;Node5 -->
<g id="edge4_Node000001_Node000005" class="edge">
<title>Node1&#45;&gt;Node5</title>
<g id="a_edge4_Node000001_Node000005"><a xlink:title=" ">
<path fill="none" stroke="#63b8ff" d="M461.48,-274.98C414.6,-264.89 337.11,-248.19 291.57,-238.38"/>
<polygon fill="#63b8ff" stroke="#63b8ff" points="292.05,-234.9 281.54,-236.22 290.58,-241.75 292.05,-234.9"/>
</a>
</g>
</g>
<!-- Node6 -->
<g id="Node000006" class="node">
<title>Node6</title>
<g id="a_Node000006"><a xlink:title=" ">
<polygon fill="#e0e0e0" stroke="#999999" points="616,-129 572,-129 572,-110 616,-110 616,-129"/>
<text text-anchor="middle" x="594" y="-117" font-family="Helvetica,sans-Serif" font-size="10.00">ctime</text>
</a>
</g>
</g>
<!-- Node1&#45;&gt;Node6 -->
<g id="edge5_Node000001_Node000006" class="edge">
<title>Node1&#45;&gt;Node6</title>
<g id="a_edge5_Node000001_Node000006"><a xlink:title=" ">
<path fill="none" stroke="#63b8ff" d="M498.14,-274.91C491.78,-254.14 478.74,-200.33 501,-165 514.28,-143.92 540.62,-132.6 561.89,-126.67"/>
<polygon fill="#63b8ff" stroke="#63b8ff" points="563,-130 571.84,-124.17 561.29,-123.21 563,-130"/>
</a>
</g>
</g>
<!-- Node7 -->
<g id="Node000007" class="node">
<title>Node7</title>
<g id="a_Node000007"><a xlink:title=" ">
<polygon fill="#e0e0e0" stroke="#999999" points="566,-184 510,-184 510,-165 566,-165 566,-184"/>
<text text-anchor="middle" x="538" y="-172" font-family="Helvetica,sans-Serif" font-size="10.00">sstream</text>
</a>
</g>
</g>
<!-- Node1&#45;&gt;Node7 -->
<g id="edge6_Node000001_Node000007" class="edge">
<title>Node1&#45;&gt;Node7</title>
<g id="a_edge6_Node000001_Node000007"><a xlink:title=" ">
<path fill="none" stroke="#63b8ff" d="M504.03,-274.66C510.07,-257.01 523.75,-217.09 531.79,-193.64"/>
<polygon fill="#63b8ff" stroke="#63b8ff" points="535.1,-194.75 535.03,-184.16 528.48,-192.48 535.1,-194.75"/>
</a>
</g>
</g>
<!-- Node8 -->
<g id="Node000008" class="node">
<title>Node8</title>
<g id="a_Node000008"><a xlink:title=" ">
<polygon fill="#e0e0e0" stroke="#999999" points="161,-184 105,-184 105,-165 161,-165 161,-184"/>
<text text-anchor="middle" x="133" y="-172" font-family="Helvetica,sans-Serif" font-size="10.00">iomanip</text>
</a>
</g>
</g>
<!-- Node1&#45;&gt;Node8 -->
<g id="edge7_Node000001_Node000008" class="edge">
<title>Node1&#45;&gt;Node8</title>
<g id="a_edge7_Node000001_Node000008"><a xlink:title=" ">
<path fill="none" stroke="#63b8ff" d="M457.82,-274.97C422.56,-267.38 371.75,-255.01 329,-239 311.32,-232.38 308.61,-226.81 291,-220 251.07,-204.55 203.59,-191.91 171.17,-184.1"/>
<polygon fill="#63b8ff" stroke="#63b8ff" points="171.74,-180.64 161.21,-181.74 170.13,-187.45 171.74,-180.64"/>
</a>
</g>
</g>
<!-- Node9 -->
<g id="Node000009" class="node">
<title>Node9</title>
<g id="a_Node000009"><a xlink:title=" ">
<polygon fill="#e0e0e0" stroke="#999999" points="755.5,-184 700.5,-184 700.5,-165 755.5,-165 755.5,-184"/>
<text text-anchor="middle" x="728" y="-172" font-family="Helvetica,sans-Serif" font-size="10.00">fstream</text>
</a>
</g>
</g>
<!-- Node1&#45;&gt;Node9 -->
<g id="edge8_Node000001_Node000009" class="edge">
<title>Node1&#45;&gt;Node9</title>
<g id="a_edge8_Node000001_Node000009"><a xlink:title=" ">
<path fill="none" stroke="#63b8ff" d="M546.81,-274.92C577.5,-268 618.15,-256.48 651,-239 674.75,-226.36 698.01,-205.7 712.64,-191.39"/>
<polygon fill="#63b8ff" stroke="#63b8ff" points="715.25,-193.74 719.83,-184.19 710.29,-188.79 715.25,-193.74"/>
</a>
</g>
</g>
<!-- Node10 -->
<g id="Node000010" class="node">
<title>Node10</title>
<g id="a_Node000010"><a xlink:href="AutoIndexHandler_8hpp.html" target="_top" xlink:title=" ">
<polygon fill="white" stroke="#666666" points="1337.5,-184 1158.5,-184 1158.5,-165 1337.5,-165 1337.5,-184"/>
<text text-anchor="middle" x="1248" y="-172" font-family="Helvetica,sans-Serif" font-size="10.00">dispatcher/AutoIndexHandler.hpp</text>
</a>
</g>
</g>
<!-- Node1&#45;&gt;Node10 -->
<g id="edge9_Node000001_Node000010" class="edge">
<title>Node1&#45;&gt;Node10</title>
<g id="a_edge9_Node000001_Node000010"><a xlink:title=" ">
<path fill="none" stroke="#63b8ff" d="M590.22,-280.68C733.91,-275.52 1010.09,-262.8 1105,-239 1149.07,-227.95 1196.61,-204.23 1224.26,-189.11"/>
<polygon fill="#63b8ff" stroke="#63b8ff" points="1226.13,-192.08 1233.17,-184.16 1222.73,-185.96 1226.13,-192.08"/>
</a>
</g>
</g>
<!-- Node15 -->
<g id="Node000015" class="node">
<title>Node15</title>
<g id="a_Node000015"><a xlink:href="RequestMethod_8hpp.html" target="_top" xlink:title=" ">
<polygon fill="white" stroke="#666666" points="893,-74 739,-74 739,-55 893,-55 893,-74"/>
<text text-anchor="middle" x="816" y="-62" font-family="Helvetica,sans-Serif" font-size="10.00">request/RequestMethod.hpp</text>
</a>
</g>
</g>
<!-- Node1&#45;&gt;Node15 -->
<g id="edge58_Node000001_Node000015" class="edge">
<title>Node1&#45;&gt;Node15</title>
<g id="a_edge58_Node000001_Node000015"><a xlink:title=" ">
<path fill="none" stroke="#63b8ff" d="M582.72,-274.98C642.77,-264.16 721.25,-239.63 765,-184 786.46,-156.71 775.61,-141.59 790,-110 794.26,-100.64 799.94,-90.7 804.91,-82.61"/>
<polygon fill="#63b8ff" stroke="#63b8ff" points="807.91,-84.41 810.28,-74.08 801.98,-80.68 807.91,-84.41"/>
</a>
</g>
</g>
<!-- Node18 -->
<g id="Node000018" class="node">
<title>Node18</title>
<g id="a_Node000018"><a xlink:href="ResponseStatus_8hpp.html" target="_top" xlink:title=" ">
<polygon fill="white" stroke="#666666" points="1766.5,-74 1603.5,-74 1603.5,-55 1766.5,-55 1766.5,-74"/>
<text text-anchor="middle" x="1685" y="-62" font-family="Helvetica,sans-Serif" font-size="10.00">response/ResponseStatus.hpp</text>
</a>
</g>
</g>
<!-- Node1&#45;&gt;Node18 -->
<g id="edge57_Node000001_Node000018" class="edge">
<title>Node1&#45;&gt;Node18</title>
<g id="a_edge57_Node000001_Node000018"><a xlink:title=" ">
<path fill="none" stroke="#63b8ff" d="M590.19,-281.12C714.86,-276.93 948.05,-265.97 1145,-239 1265.04,-222.56 1295.14,-215.98 1412,-184 1484.53,-164.15 1503.39,-159.77 1572,-129 1604.7,-114.34 1640.44,-93.34 1662.79,-79.57"/>
<polygon fill="#63b8ff" stroke="#63b8ff" points="1664.86,-82.41 1671.5,-74.15 1661.16,-76.46 1664.86,-82.41"/>
</a>
</g>
</g>
<!-- Node21 -->
<g id="Node000021" class="node">
<title>Node21</title>
<g id="a_Node000021"><a xlink:href="string__utils_8hpp.html" target="_top" xlink:title="Collection of inline string utility functions used across Webservinho.">
<polygon fill="white" stroke="#666666" points="454,-239 338,-239 338,-220 454,-220 454,-239"/>
<text text-anchor="middle" x="396" y="-227" font-family="Helvetica,sans-Serif" font-size="10.00">utils/string_utils.hpp</text>
</a>
</g>
</g>
<!-- Node1&#45;&gt;Node21 -->
<g id="edge24_Node000001_Node000021" class="edge">
<title>Node1&#45;&gt;Node21</title>
<g id="a_edge24_Node000001_Node000021"><a xlink:title=" ">
<path fill="none" stroke="#63b8ff" d="M484.13,-274.98C467.39,-266.54 441.5,-253.47 422.11,-243.68"/>
<polygon fill="#63b8ff" stroke="#63b8ff" points="423.68,-240.55 413.18,-239.17 420.53,-246.8 423.68,-240.55"/>
</a>
</g>
</g>
<!-- Node25 -->
<g id="Node000025" class="node">
<title>Node25</title>
<g id="a_Node000025"><a xlink:href="Logger_8hpp.html" target="_top" xlink:title=" ">
<polygon fill="white" stroke="#666666" points="642,-239 548,-239 548,-220 642,-220 642,-239"/>
<text text-anchor="middle" x="595" y="-227" font-family="Helvetica,sans-Serif" font-size="10.00">utils/Logger.hpp</text>
</a>
</g>
</g>
<!-- Node1&#45;&gt;Node25 -->
<g id="edge32_Node000001_Node000025" class="edge">
<title>Node1&#45;&gt;Node25</title>
<g id="a_edge32_Node000001_Node000025"><a xlink:title=" ">
<path fill="none" stroke="#63b8ff" d="M516.1,-274.98C530.82,-266.69 553.42,-253.94 570.67,-244.22"/>
<polygon fill="#63b8ff" stroke="#63b8ff" points="572.63,-247.13 579.62,-239.17 569.19,-241.03 572.63,-247.13"/>
</a>
</g>
</g>
<!-- Node27 -->
<g id="Node000027" class="node">
<title>Node27</title>
<g id="a_Node000027"><a xlink:href="ResponseBuilder_8hpp.html" target="_top" xlink:title=" ">
<polygon fill="white" stroke="#666666" points="1096,-239 930,-239 930,-220 1096,-220 1096,-239"/>
<text text-anchor="middle" x="1013" y="-227" font-family="Helvetica,sans-Serif" font-size="10.00">response/ResponseBuilder.hpp</text>
</a>
</g>
</g>
<!-- Node1&#45;&gt;Node27 -->
<g id="edge37_Node000001_Node000027" class="edge">
<title>Node1&#45;&gt;Node27</title>
<g id="a_edge37_Node000001_Node000027"><a xlink:title=" ">
<path fill="none" stroke="#63b8ff" d="M583.26,-274.98C675.4,-265.45 824.4,-250.02 920.52,-240.07"/>
<polygon fill="#63b8ff" stroke="#63b8ff" points="920.93,-243.55 930.52,-239.04 920.21,-236.59 920.93,-243.55"/>
</a>
</g>
</g>
<!-- Node11 -->
<g id="Node000011" class="node">
<title>Node11</title>
<g id="a_Node000011"><a xlink:href="HttpRequest_8hpp.html" target="_top" xlink:title=" ">
<polygon fill="white" stroke="#666666" points="1271,-129 1133,-129 1133,-110 1271,-110 1271,-129"/>
<text text-anchor="middle" x="1202" y="-117" font-family="Helvetica,sans-Serif" font-size="10.00">request/HttpRequest.hpp</text>
</a>
</g>
</g>
<!-- Node10&#45;&gt;Node11 -->
<g id="edge10_Node000010_Node000011" class="edge">
<title>Node10&#45;&gt;Node11</title>
<g id="a_edge10_Node000010_Node000011"><a xlink:title=" ">
<path fill="none" stroke="#63b8ff" d="M1240.4,-164.75C1233.84,-157.18 1224.18,-146.05 1216.19,-136.84"/>
<polygon fill="#63b8ff" stroke="#63b8ff" points="1218.65,-134.35 1209.45,-129.09 1213.37,-138.94 1218.65,-134.35"/>
</a>
</g>
</g>
<!-- Node20 -->
<g id="Node000020" class="node">
<title>Node20</title>
<g id="a_Node000020"><a xlink:href="HttpResponse_8hpp.html" target="_top" xlink:title=" ">
<polygon fill="white" stroke="#666666" points="1442.5,-129 1289.5,-129 1289.5,-110 1442.5,-110 1442.5,-129"/>
<text text-anchor="middle" x="1366" y="-117" font-family="Helvetica,sans-Serif" font-size="10.00">response/HttpResponse.hpp</text>
</a>
</g>
</g>
<!-- Node10&#45;&gt;Node20 -->
<g id="edge20_Node000010_Node000020" class="edge">
<title>Node10&#45;&gt;Node20</title>
<g id="a_edge20_Node000010_Node000020"><a xlink:title=" ">
<path fill="none" stroke="#63b8ff" d="M1266.96,-164.98C1286.03,-156.42 1315.66,-143.11 1337.55,-133.28"/>
<polygon fill="#63b8ff" stroke="#63b8ff" points="1339.01,-136.46 1346.7,-129.17 1336.14,-130.07 1339.01,-136.46"/>
</a>
</g>
</g>
<!-- Node12 -->
<g id="Node000012" class="node">
<title>Node12</title>
<g id="a_Node000012"><a xlink:title=" ">
<polygon fill="#e0e0e0" stroke="#999999" points="1037,-19 993,-19 993,0 1037,0 1037,-19"/>
<text text-anchor="middle" x="1015" y="-7" font-family="Helvetica,sans-Serif" font-size="10.00">string</text>
</a>
</g>
</g>
<!-- Node11&#45;&gt;Node12 -->
<g id="edge11_Node000011_Node000012" class="edge">
<title>Node11&#45;&gt;Node12</title>
<g id="a_edge11_Node000011_Node000012"><a xlink:title=" ">
<path fill="none" stroke="#63b8ff" d="M1161.29,-110C1134.65,-103.15 1099.93,-91.7 1073,-74 1054.17,-61.62 1037.38,-41.77 1026.77,-27.55"/>
<polygon fill="#63b8ff" stroke="#63b8ff" points="1029.42,-25.24 1020.73,-19.16 1023.73,-29.32 1029.42,-25.24"/>
</a>
</g>
</g>
<!-- Node13 -->
<g id="Node000013" class="node">
<title>Node13</title>
<g id="a_Node000013"><a xlink:title=" ">
<polygon fill="#e0e0e0" stroke="#999999" points="987,-74 949,-74 949,-55 987,-55 987,-74"/>
<text text-anchor="middle" x="968" y="-62" font-family="Helvetica,sans-Serif" font-size="10.00">map</text>
</a>
</g>
</g>
<!-- Node11&#45;&gt;Node13 -->
<g id="edge12_Node000011_Node000013" class="edge">
<title>Node11&#45;&gt;Node13</title>
<g id="a_edge12_Node000011_Node000013"><a xlink:title=" ">
<path fill="none" stroke="#63b8ff" d="M1164.4,-109.98C1117.84,-99.44 1039.49,-81.69 997.2,-72.11"/>
<polygon fill="#63b8ff" stroke="#63b8ff" points="997.79,-68.66 987.26,-69.86 996.24,-75.48 997.79,-68.66"/>
</a>
</g>
</g>
<!-- Node14 -->
<g id="Node000014" class="node">
<title>Node14</title>
<g id="a_Node000014"><a xlink:title=" ">
<polygon fill="#e0e0e0" stroke="#999999" points="720.5,-74 673.5,-74 673.5,-55 720.5,-55 720.5,-74"/>
<text text-anchor="middle" x="697" y="-62" font-family="Helvetica,sans-Serif" font-size="10.00">vector</text>
</a>
</g>
</g>
<!-- Node11&#45;&gt;Node14 -->
<g id="edge13_Node000011_Node000014" class="edge">
<title>Node11&#45;&gt;Node14</title>
<g id="a_edge13_Node000011_Node000014"><a xlink:title=" ">
<path fill="none" stroke="#63b8ff" d="M1132.68,-110.88C1129.75,-110.58 1126.85,-110.29 1124,-110 952.28,-92.8 905,-103.61 730.72,-73.82"/>
<polygon fill="#63b8ff" stroke="#63b8ff" points="731.14,-70.34 720.69,-72.09 729.95,-77.24 731.14,-70.34"/>
</a>
</g>
</g>
<!-- Node11&#45;&gt;Node15 -->
<g id="edge14_Node000011_Node000015" class="edge">
<title>Node11&#45;&gt;Node15</title>
<g id="a_edge14_Node000011_Node000015"><a xlink:title=" ">
<path fill="none" stroke="#63b8ff" d="M1139.98,-109.98C1071.29,-100.55 960.68,-85.36 888.16,-75.41"/>
<polygon fill="#63b8ff" stroke="#63b8ff" points="888.57,-71.93 878.18,-74.04 887.61,-78.87 888.57,-71.93"/>
</a>
</g>
</g>
<!-- Node16 -->
<g id="Node000016" class="node">
<title>Node16</title>
<g id="a_Node000016"><a xlink:href="RequestMeta_8hpp.html" target="_top" xlink:title=" ">
<polygon fill="white" stroke="#666666" points="1385,-74 1243,-74 1243,-55 1385,-55 1385,-74"/>
<text text-anchor="middle" x="1314" y="-62" font-family="Helvetica,sans-Serif" font-size="10.00">request/RequestMeta.hpp</text>
</a>
</g>
</g>
<!-- Node11&#45;&gt;Node16 -->
<g id="edge15_Node000011_Node000016" class="edge">
<title>Node11&#45;&gt;Node16</title>
<g id="a_edge15_Node000011_Node000016"><a xlink:title=" ">
<path fill="none" stroke="#63b8ff" d="M1219.99,-109.98C1237.93,-101.5 1265.72,-88.35 1286.43,-78.54"/>
<polygon fill="#63b8ff" stroke="#63b8ff" points="1288.14,-81.61 1295.68,-74.17 1285.14,-75.28 1288.14,-81.61"/>
</a>
</g>
</g>
<!-- Node17 -->
<g id="Node000017" class="node">
<title>Node17</title>
<g id="a_Node000017"><a xlink:href="RequestState_8hpp.html" target="_top" xlink:title=" ">
<polygon fill="white" stroke="#666666" points="1546.5,-74 1403.5,-74 1403.5,-55 1546.5,-55 1546.5,-74"/>
<text text-anchor="middle" x="1475" y="-62" font-family="Helvetica,sans-Serif" font-size="10.00">request/RequestState.hpp</text>
</a>
</g>
</g>
<!-- Node11&#45;&gt;Node17 -->
<g id="edge17_Node000011_Node000017" class="edge">
<title>Node11&#45;&gt;Node17</title>
<g id="a_edge17_Node000011_Node000017"><a xlink:title=" ">
<path fill="none" stroke="#63b8ff" d="M1245.86,-109.98C1293.48,-100.74 1369.58,-85.97 1420.88,-76.01"/>
<polygon fill="#63b8ff" stroke="#63b8ff" points="1421.64,-79.42 1430.79,-74.08 1420.31,-72.55 1421.64,-79.42"/>
</a>
</g>
</g>
<!-- Node11&#45;&gt;Node18 -->
<g id="edge18_Node000011_Node000018" class="edge">
<title>Node11&#45;&gt;Node18</title>
<g id="a_edge18_Node000011_Node000018"><a xlink:title=" ">
<path fill="none" stroke="#63b8ff" d="M1271.2,-110.91C1357.15,-101.48 1503.85,-85.38 1597.51,-75.1"/>
<polygon fill="#63b8ff" stroke="#63b8ff" points="1597.98,-78.57 1607.53,-74 1597.21,-71.61 1597.98,-78.57"/>
</a>
</g>
</g>
<!-- Node19 -->
<g id="Node000019" class="node">
<title>Node19</title>
<g id="a_Node000019"><a xlink:href="RouteType_8hpp.html" target="_top" xlink:title=" ">
<polygon fill="white" stroke="#666666" points="1224.5,-74 1081.5,-74 1081.5,-55 1224.5,-55 1224.5,-74"/>
<text text-anchor="middle" x="1153" y="-62" font-family="Helvetica,sans-Serif" font-size="10.00">dispatcher/RouteType.hpp</text>
</a>
</g>
</g>
<!-- Node11&#45;&gt;Node19 -->
<g id="edge19_Node000011_Node000019" class="edge">
<title>Node11&#45;&gt;Node19</title>
<g id="a_edge19_Node000011_Node000019"><a xlink:title=" ">
<path fill="none" stroke="#63b8ff" d="M1193.91,-109.75C1186.84,-102.11 1176.41,-90.82 1167.85,-81.56"/>
<polygon fill="#63b8ff" stroke="#63b8ff" points="1170.3,-79.06 1160.94,-74.09 1165.16,-83.81 1170.3,-79.06"/>
</a>
</g>
</g>
<!-- Node16&#45;&gt;Node12 -->
<g id="edge16_Node000016_Node000012" class="edge">
<title>Node16&#45;&gt;Node12</title>
<g id="a_edge16_Node000016_Node000012"><a xlink:title=" ">
<path fill="none" stroke="#63b8ff" d="M1265.96,-54.98C1204.49,-44.09 1099.7,-25.51 1047.11,-16.19"/>
<polygon fill="#63b8ff" stroke="#63b8ff" points="1047.47,-12.7 1037.01,-14.4 1046.25,-19.59 1047.47,-12.7"/>
</a>
</g>
</g>
<!-- Node20&#45;&gt;Node12 -->
<g id="edge21_Node000020_Node000012" class="edge">
<title>Node20&#45;&gt;Node12</title>
<g id="a_edge21_Node000020_Node000012"><a xlink:title=" ">
<path fill="none" stroke="#63b8ff" d="M1442.66,-115.63C1510.58,-110.41 1593.58,-95.8 1556,-55 1521.47,-17.52 1159.08,-11.61 1047.51,-10.67"/>
<polygon fill="#63b8ff" stroke="#63b8ff" points="1047.25,-7.17 1037.22,-10.6 1047.19,-14.17 1047.25,-7.17"/>
</a>
</g>
</g>
<!-- Node20&#45;&gt;Node13 -->
<g id="edge22_Node000020_Node000013" class="edge">
<title>Node20&#45;&gt;Node13</title>
<g id="a_edge22_Node000020_Node000013"><a xlink:title=" ">
<path fill="none" stroke="#63b8ff" d="M1302.05,-109.98C1214.6,-98.34 1061.27,-77.92 997.31,-69.4"/>
<polygon fill="#63b8ff" stroke="#63b8ff" points="997.51,-65.9 987.14,-68.05 996.59,-72.84 997.51,-65.9"/>
</a>
</g>
</g>
<!-- Node20&#45;&gt;Node18 -->
<g id="edge23_Node000020_Node000018" class="edge">
<title>Node20&#45;&gt;Node18</title>
<g id="a_edge23_Node000020_Node000018"><a xlink:title=" ">
<path fill="none" stroke="#63b8ff" d="M1417.25,-109.98C1473.44,-100.65 1563.57,-85.67 1623.52,-75.71"/>
<polygon fill="#63b8ff" stroke="#63b8ff" points="1624.32,-79.13 1633.61,-74.04 1623.17,-72.22 1624.32,-79.13"/>
</a>
</g>
</g>
<!-- Node21&#45;&gt;Node7 -->
<g id="edge26_Node000021_Node000007" class="edge">
<title>Node21&#45;&gt;Node7</title>
<g id="a_edge26_Node000021_Node000007"><a xlink:title=" ">
<path fill="none" stroke="#63b8ff" d="M418.81,-219.98C442.17,-211.27 478.7,-197.63 505.17,-187.75"/>
<polygon fill="#63b8ff" stroke="#63b8ff" points="506.63,-190.95 514.77,-184.17 504.18,-184.39 506.63,-190.95"/>
</a>
</g>
</g>
<!-- Node21&#45;&gt;Node8 -->
<g id="edge31_Node000021_Node000008" class="edge">
<title>Node21&#45;&gt;Node8</title>
<g id="a_edge31_Node000021_Node000008"><a xlink:title=" ">
<path fill="none" stroke="#63b8ff" d="M353.63,-219.98C309.14,-211.03 237.15,-196.55 175,-184 173.73,-183.74 172.44,-183.48 171.13,-183.22"/>
<polygon fill="#63b8ff" stroke="#63b8ff" points="171.51,-179.72 161.01,-181.17 170.12,-186.59 171.51,-179.72"/>
</a>
</g>
</g>
<!-- Node21&#45;&gt;Node12 -->
<g id="edge25_Node000021_Node000012" class="edge">
<title>Node21&#45;&gt;Node12</title>
<g id="a_edge25_Node000021_Node000012"><a xlink:title=" ">
<path fill="none" stroke="#63b8ff" d="M345.83,-219.92C293.12,-210.39 216.63,-194.92 208,-184 202.76,-177.38 202.8,-171.65 208,-165 305.83,-39.84 844.25,-15.52 982.59,-11.31"/>
<polygon fill="#63b8ff" stroke="#63b8ff" points="983.04,-14.8 992.93,-11.01 982.83,-7.8 983.04,-14.8"/>
</a>
</g>
</g>
<!-- Node21&#45;&gt;Node14 -->
<g id="edge27_Node000021_Node000014" class="edge">
<title>Node21&#45;&gt;Node14</title>
<g id="a_edge27_Node000021_Node000014"><a xlink:title=" ">
<path fill="none" stroke="#63b8ff" d="M405.86,-219.87C430.67,-198.56 498.3,-142.77 563,-110 595.58,-93.5 635.61,-81.13 663.4,-73.68"/>
<polygon fill="#63b8ff" stroke="#63b8ff" points="664.62,-76.98 673.41,-71.06 662.85,-70.2 664.62,-76.98"/>
</a>
</g>
</g>
<!-- Node22 -->
<g id="Node000022" class="node">
<title>Node22</title>
<g id="a_Node000022"><a xlink:title=" ">
<polygon fill="#e0e0e0" stroke="#999999" points="281,-184 217,-184 217,-165 281,-165 281,-184"/>
<text text-anchor="middle" x="249" y="-172" font-family="Helvetica,sans-Serif" font-size="10.00">algorithm</text>
</a>
</g>
</g>
<!-- Node21&#45;&gt;Node22 -->
<g id="edge28_Node000021_Node000022" class="edge">
<title>Node21&#45;&gt;Node22</title>
<g id="a_edge28_Node000021_Node000022"><a xlink:title=" ">
<path fill="none" stroke="#63b8ff" d="M372.38,-219.98C348.1,-211.23 310.05,-197.51 282.63,-187.62"/>
<polygon fill="#63b8ff" stroke="#63b8ff" points="283.64,-184.27 273.05,-184.17 281.27,-190.85 283.64,-184.27"/>
</a>
</g>
</g>
<!-- Node23 -->
<g id="Node000023" class="node">
<title>Node23</title>
<g id="a_Node000023"><a xlink:title=" ">
<polygon fill="#e0e0e0" stroke="#999999" points="348.5,-184 299.5,-184 299.5,-165 348.5,-165 348.5,-184"/>
<text text-anchor="middle" x="324" y="-172" font-family="Helvetica,sans-Serif" font-size="10.00">cctype</text>
</a>
</g>
</g>
<!-- Node21&#45;&gt;Node23 -->
<g id="edge29_Node000021_Node000023" class="edge">
<title>Node21&#45;&gt;Node23</title>
<g id="a_edge29_Node000021_Node000023"><a xlink:title=" ">
<path fill="none" stroke="#63b8ff" d="M384.43,-219.98C373.58,-212 357.12,-199.88 344.12,-190.31"/>
<polygon fill="#63b8ff" stroke="#63b8ff" points="345.91,-187.28 335.78,-184.17 341.76,-192.92 345.91,-187.28"/>
</a>
</g>
</g>
<!-- Node24 -->
<g id="Node000024" class="node">
<title>Node24</title>
<g id="a_Node000024"><a xlink:title=" ">
<polygon fill="#e0e0e0" stroke="#999999" points="415.5,-184 366.5,-184 366.5,-165 415.5,-165 415.5,-184"/>
<text text-anchor="middle" x="391" y="-172" font-family="Helvetica,sans-Serif" font-size="10.00">cstdlib</text>
</a>
</g>
</g>
<!-- Node21&#45;&gt;Node24 -->
<g id="edge30_Node000021_Node000024" class="edge">
<title>Node21&#45;&gt;Node24</title>
<g id="a_edge30_Node000021_Node000024"><a xlink:title=" ">
<path fill="none" stroke="#63b8ff" d="M395.17,-219.75C394.52,-212.8 393.58,-202.85 392.76,-194.13"/>
<polygon fill="#63b8ff" stroke="#63b8ff" points="396.23,-193.72 391.81,-184.09 389.27,-194.37 396.23,-193.72"/>
</a>
</g>
</g>
<!-- Node25&#45;&gt;Node6 -->
<g id="edge33_Node000025_Node000006" class="edge">
<title>Node25&#45;&gt;Node6</title>
<g id="a_edge33_Node000025_Node000006"><a xlink:title=" ">
<path fill="none" stroke="#63b8ff" d="M594.92,-219.66C594.76,-202.17 594.39,-162.8 594.17,-139.27"/>
<polygon fill="#63b8ff" stroke="#63b8ff" points="597.67,-139.13 594.08,-129.16 590.67,-139.19 597.67,-139.13"/>
</a>
</g>
</g>
<!-- Node25&#45;&gt;Node7 -->
<g id="edge36_Node000025_Node000007" class="edge">
<title>Node25&#45;&gt;Node7</title>
<g id="a_edge36_Node000025_Node000007"><a xlink:title=" ">
<path fill="none" stroke="#63b8ff" d="M585.84,-219.98C577.5,-212.23 564.97,-200.58 554.82,-191.14"/>
<polygon fill="#63b8ff" stroke="#63b8ff" points="557.03,-188.42 547.32,-184.17 552.26,-193.54 557.03,-188.42"/>
</a>
</g>
</g>
<!-- Node25&#45;&gt;Node9 -->
<g id="edge34_Node000025_Node000009" class="edge">
<title>Node25&#45;&gt;Node9</title>
<g id="a_edge34_Node000025_Node000009"><a xlink:title=" ">
<path fill="none" stroke="#63b8ff" d="M616.37,-219.98C638.15,-211.3 672.16,-197.75 696.92,-187.88"/>
<polygon fill="#63b8ff" stroke="#63b8ff" points="698.25,-191.12 706.24,-184.17 695.66,-184.62 698.25,-191.12"/>
</a>
</g>
</g>
<!-- Node26 -->
<g id="Node000026" class="node">
<title>Node26</title>
<g id="a_Node000026"><a xlink:title=" ">
<polygon fill="#e0e0e0" stroke="#999999" points="682,-184 622,-184 622,-165 682,-165 682,-184"/>
<text text-anchor="middle" x="652" y="-172" font-family="Helvetica,sans-Serif" font-size="10.00">iostream</text>
</a>
</g>
</g>
<!-- Node25&#45;&gt;Node26 -->
<g id="edge35_Node000025_Node000026" class="edge">
<title>Node25&#45;&gt;Node26</title>
<g id="a_edge35_Node000025_Node000026"><a xlink:title=" ">
<path fill="none" stroke="#63b8ff" d="M604.16,-219.98C612.5,-212.23 625.03,-200.58 635.18,-191.14"/>
<polygon fill="#63b8ff" stroke="#63b8ff" points="637.74,-193.54 642.68,-184.17 632.97,-188.42 637.74,-193.54"/>
</a>
</g>
</g>
<!-- Node27&#45;&gt;Node18 -->
<g id="edge39_Node000027_Node000018" class="edge">
<title>Node27&#45;&gt;Node18</title>
<g id="a_edge39_Node000027_Node000018"><a xlink:title=" ">
<path fill="none" stroke="#63b8ff" d="M1096.25,-223.5C1168.62,-217.86 1275.87,-206.39 1367,-184 1477.69,-156.81 1602.69,-103.04 1657.15,-78.39"/>
<polygon fill="#63b8ff" stroke="#63b8ff" points="1658.84,-81.47 1666.48,-74.14 1655.93,-75.1 1658.84,-81.47"/>
</a>
</g>
</g>
<!-- Node27&#45;&gt;Node20 -->
<g id="edge38_Node000027_Node000020" class="edge">
<title>Node27&#45;&gt;Node20</title>
<g id="a_edge38_Node000027_Node000020"><a xlink:title=" ">
<path fill="none" stroke="#63b8ff" d="M1096.08,-227.49C1182.53,-224.72 1310.34,-215.27 1347,-184 1359.85,-173.04 1364.21,-153.78 1365.59,-139.33"/>
<polygon fill="#63b8ff" stroke="#63b8ff" points="1369.1,-139.21 1366.17,-129.03 1362.12,-138.82 1369.1,-139.21"/>
</a>
</g>
</g>
<!-- Node28 -->
<g id="Node000028" class="node">
<title>Node28</title>
<g id="a_Node000028"><a xlink:href="ClientConnection_8hpp.html" target="_top" xlink:title=" ">
<polygon fill="white" stroke="#666666" points="1140,-184 1000,-184 1000,-165 1140,-165 1140,-184"/>
<text text-anchor="middle" x="1070" y="-172" font-family="Helvetica,sans-Serif" font-size="10.00">init/ClientConnection.hpp</text>
</a>
</g>
</g>
<!-- Node27&#45;&gt;Node28 -->
<g id="edge40_Node000027_Node000028" class="edge">
<title>Node27&#45;&gt;Node28</title>
<g id="a_edge40_Node000027_Node000028"><a xlink:title=" ">
<path fill="none" stroke="#63b8ff" d="M1022.16,-219.98C1030.5,-212.23 1043.03,-200.58 1053.18,-191.14"/>
<polygon fill="#63b8ff" stroke="#63b8ff" points="1055.74,-193.54 1060.68,-184.17 1050.97,-188.42 1055.74,-193.54"/>
</a>
</g>
</g>
<!-- Node30 -->
<g id="Node000030" class="node">
<title>Node30</title>
<g id="a_Node000030"><a xlink:href="ServerConfig_8hpp.html" target="_top" xlink:title=" ">
<polygon fill="white" stroke="#666666" points="944,-184 812,-184 812,-165 944,-165 944,-184"/>
<text text-anchor="middle" x="878" y="-172" font-family="Helvetica,sans-Serif" font-size="10.00">config/ServerConfig.hpp</text>
</a>
</g>
</g>
<!-- Node27&#45;&gt;Node30 -->
<g id="edge46_Node000027_Node000030" class="edge">
<title>Node27&#45;&gt;Node30</title>
<g id="a_edge46_Node000027_Node000030"><a xlink:title=" ">
<path fill="none" stroke="#63b8ff" d="M991.31,-219.98C969.2,-211.3 934.68,-197.75 909.55,-187.88"/>
<polygon fill="#63b8ff" stroke="#63b8ff" points="910.67,-184.57 900.08,-184.17 908.11,-191.08 910.67,-184.57"/>
</a>
</g>
</g>
<!-- Node31 -->
<g id="Node000031" class="node">
<title>Node31</title>
<g id="a_Node000031"><a xlink:href="LocationConfig_8hpp.html" target="_top" xlink:title=" ">
<polygon fill="white" stroke="#666666" points="949,-129 807,-129 807,-110 949,-110 949,-129"/>
<text text-anchor="middle" x="878" y="-117" font-family="Helvetica,sans-Serif" font-size="10.00">config/LocationConfig.hpp</text>
</a>
</g>
</g>
<!-- Node27&#45;&gt;Node31 -->
<g id="edge56_Node000027_Node000031" class="edge">
<title>Node27&#45;&gt;Node31</title>
<g id="a_edge56_Node000027_Node000031"><a xlink:title=" ">
<path fill="none" stroke="#63b8ff" d="M1006.26,-219.97C995.79,-207.06 974.56,-182.24 953,-165 938.06,-153.05 919.6,-142.06 904.74,-133.99"/>
<polygon fill="#63b8ff" stroke="#63b8ff" points="906.03,-130.72 895.56,-129.13 902.76,-136.9 906.03,-130.72"/>
</a>
</g>
</g>
<!-- Node28&#45;&gt;Node6 -->
<g id="edge42_Node000028_Node000006" class="edge">
<title>Node28&#45;&gt;Node6</title>
<g id="a_edge42_Node000028_Node000006"><a xlink:title=" ">
<path fill="none" stroke="#63b8ff" d="M999.76,-165.68C895.04,-154.02 702.14,-132.54 626.06,-124.07"/>
<polygon fill="#63b8ff" stroke="#63b8ff" points="626.45,-120.59 616.12,-122.96 625.67,-127.55 626.45,-120.59"/>
</a>
</g>
</g>
<!-- Node28&#45;&gt;Node11 -->
<g id="edge44_Node000028_Node000011" class="edge">
<title>Node28&#45;&gt;Node11</title>
<g id="a_edge44_Node000028_Node000011"><a xlink:title=" ">
<path fill="none" stroke="#63b8ff" d="M1091.21,-164.98C1112.73,-156.34 1146.28,-142.87 1170.83,-133.02"/>
<polygon fill="#63b8ff" stroke="#63b8ff" points="1172.43,-136.14 1180.41,-129.17 1169.82,-129.65 1172.43,-136.14"/>
</a>
</g>
</g>
<!-- Node28&#45;&gt;Node12 -->
<g id="edge41_Node000028_Node000012" class="edge">
<title>Node28&#45;&gt;Node12</title>
<g id="a_edge41_Node000028_Node000012"><a xlink:title=" ">
<path fill="none" stroke="#63b8ff" d="M1060.7,-164.92C1052.3,-156.58 1040.32,-143.16 1034,-129 1019.34,-96.13 1015.81,-53.67 1015.07,-29.52"/>
<polygon fill="#63b8ff" stroke="#63b8ff" points="1018.56,-29.2 1014.89,-19.26 1011.57,-29.32 1018.56,-29.2"/>
</a>
</g>
</g>
<!-- Node28&#45;&gt;Node20 -->
<g id="edge45_Node000028_Node000020" class="edge">
<title>Node28&#45;&gt;Node20</title>
<g id="a_edge45_Node000028_Node000020"><a xlink:title=" ">
<path fill="none" stroke="#63b8ff" d="M1117.56,-164.98C1169.4,-155.7 1252.39,-140.84 1308.01,-130.88"/>
<polygon fill="#63b8ff" stroke="#63b8ff" points="1308.84,-134.29 1318.07,-129.08 1307.61,-127.4 1308.84,-134.29"/>
</a>
</g>
</g>
<!-- Node29 -->
<g id="Node000029" class="node">
<title>Node29</title>
<g id="a_Node000029"><a xlink:title=" ">
<polygon fill="#e0e0e0" stroke="#999999" points="1115,-129 1043,-129 1043,-110 1115,-110 1115,-129"/>
<text text-anchor="middle" x="1079" y="-117" font-family="Helvetica,sans-Serif" font-size="10.00">sys/types.h</text>
</a>
</g>
</g>
<!-- Node28&#45;&gt;Node29 -->
<g id="edge43_Node000028_Node000029" class="edge">
<title>Node28&#45;&gt;Node29</title>
<g id="a_edge43_Node000028_Node000029"><a xlink:title=" ">
<path fill="none" stroke="#63b8ff" d="M1071.49,-164.75C1072.67,-157.8 1074.36,-147.85 1075.84,-139.13"/>
<polygon fill="#63b8ff" stroke="#63b8ff" points="1079.32,-139.53 1077.54,-129.09 1072.42,-138.36 1079.32,-139.53"/>
</a>
</g>
</g>
<!-- Node30&#45;&gt;Node12 -->
<g id="edge47_Node000030_Node000012" class="edge">
<title>Node30&#45;&gt;Node12</title>
<g id="a_edge47_Node000030_Node000012"><a xlink:title=" ">
<path fill="none" stroke="#63b8ff" d="M826.95,-164.95C748.62,-149.76 613.04,-113.98 665,-55 685.87,-31.3 900.22,-16.91 982.8,-12.21"/>
<polygon fill="#63b8ff" stroke="#63b8ff" points="983.09,-15.7 992.87,-11.64 982.69,-8.71 983.09,-15.7"/>
</a>
</g>
</g>
<!-- Node30&#45;&gt;Node13 -->
<g id="edge49_Node000030_Node000013" class="edge">
<title>Node30&#45;&gt;Node13</title>
<g id="a_edge49_Node000030_Node000013"><a xlink:title=" ">
<path fill="none" stroke="#63b8ff" d="M906.49,-164.86C924.14,-158 945.71,-146.59 958,-129 967.09,-115.99 969.16,-97.84 969.22,-84.28"/>
<polygon fill="#63b8ff" stroke="#63b8ff" points="972.71,-84.06 968.89,-74.18 965.71,-84.28 972.71,-84.06"/>
</a>
</g>
</g>
<!-- Node30&#45;&gt;Node14 -->
<g id="edge48_Node000030_Node000014" class="edge">
<title>Node30&#45;&gt;Node14</title>
<g id="a_edge48_Node000030_Node000014"><a xlink:title=" ">
<path fill="none" stroke="#63b8ff" d="M859.42,-164.98C841.35,-156.49 813.29,-142.76 790,-129 763.82,-113.53 735.12,-93.42 716.63,-80.01"/>
<polygon fill="#63b8ff" stroke="#63b8ff" points="718.56,-77.09 708.42,-74.02 714.44,-82.75 718.56,-77.09"/>
</a>
</g>
</g>
<!-- Node30&#45;&gt;Node15 -->
<g id="edge55_Node000030_Node000015" class="edge">
<title>Node30&#45;&gt;Node15</title>
<g id="a_edge55_Node000030_Node000015"><a xlink:title=" ">
<path fill="none" stroke="#63b8ff" d="M846.95,-164.87C829.25,-158.18 808.55,-146.95 798,-129 789.59,-114.69 796.46,-96.25 804.01,-82.93"/>
<polygon fill="#63b8ff" stroke="#63b8ff" points="807.09,-84.6 809.42,-74.27 801.15,-80.89 807.09,-84.6"/>
</a>
</g>
</g>
<!-- Node30&#45;&gt;Node31 -->
<g id="edge50_Node000030_Node000031" class="edge">
<title>Node30&#45;&gt;Node31</title>
<g id="a_edge50_Node000030_Node000031"><a xlink:title=" ">
<path fill="none" stroke="#63b8ff" d="M878,-164.75C878,-157.8 878,-147.85 878,-139.13"/>
<polygon fill="#63b8ff" stroke="#63b8ff" points="881.5,-139.09 878,-129.09 874.5,-139.09 881.5,-139.09"/>
</a>
</g>
</g>
<!-- Node31&#45;&gt;Node12 -->
<g id="edge52_Node000031_Node000012" class="edge">
<title>Node31&#45;&gt;Node12</title>
<g id="a_edge52_Node000031_Node000012"><a xlink:title=" ">
<path fill="none" stroke="#63b8ff" d="M885.02,-110C895.92,-97.12 917.96,-72.34 940,-55 955.13,-43.1 973.73,-32.04 988.63,-23.93"/>
<polygon fill="#63b8ff" stroke="#63b8ff" points="990.62,-26.83 997.8,-19.04 987.33,-20.65 990.62,-26.83"/>
</a>
</g>
</g>
<!-- Node31&#45;&gt;Node13 -->
<g id="edge53_Node000031_Node000013" class="edge">
<title>Node31&#45;&gt;Node13</title>
<g id="a_edge53_Node000031_Node000013"><a xlink:title=" ">
<path fill="none" stroke="#63b8ff" d="M892.46,-109.98C906.42,-101.77 927.79,-89.18 944.25,-79.49"/>
<polygon fill="#63b8ff" stroke="#63b8ff" points="946.44,-82.26 953.28,-74.17 942.88,-76.23 946.44,-82.26"/>
</a>
</g>
</g>
<!-- Node31&#45;&gt;Node14 -->
<g id="edge51_Node000031_Node000014" class="edge">
<title>Node31&#45;&gt;Node14</title>
<g id="a_edge51_Node000031_Node000014"><a xlink:title=" ">
<path fill="none" stroke="#63b8ff" d="M848.92,-109.98C816.59,-100.52 764.46,-85.25 730.46,-75.3"/>
<polygon fill="#63b8ff" stroke="#63b8ff" points="731.11,-71.84 720.53,-72.39 729.14,-78.56 731.11,-71.84"/>
</a>
</g>
</g>
<!-- Node31&#45;&gt;Node15 -->
<g id="edge54_Node000031_Node000015" class="edge">
<title>Node31&#45;&gt;Node15</title>
<g id="a_edge54_Node000031_Node000015"><a xlink:title=" ">
<path fill="none" stroke="#63b8ff" d="M868.04,-109.98C858.87,-102.15 845.06,-90.34 833.97,-80.86"/>
<polygon fill="#63b8ff" stroke="#63b8ff" points="836.02,-78.01 826.14,-74.17 831.47,-83.33 836.02,-78.01"/>
</a>
</g>
</g>
</g>
</svg>
