<?xml version="1.0" encoding="UTF-8" standalone="no"?>
<!DOCTYPE svg PUBLIC "-//W3C//DTD SVG 1.1//EN"
 "http://www.w3.org/Graphics/SVG/1.1/DTD/svg11.dtd">
<!-- Generated by graphviz version 2.43.0 (0)
 -->
<!-- Title: dispatcher/CgiHandler.cpp Pages: 1 -->
<!--zoomable 302 -->

<svg id="main" version="1.1" xmlns="http://www.w3.org/2000/svg" xmlns:xlink="http://www.w3.org/1999/xlink" xml:space="preserve" onload="init(evt)">
<style type="text/css"><![CDATA[
.node, .edge {opacity: 0.7;}
.node.selected, .edge.selected {opacity: 1;}
.edge:hover path { stroke: red; }
.edge:hover polygon { stroke: red; fill: red; }
]]></style>

<defs>
  <circle id="rim" cx="0" cy="0" r="7"/>
  <circle id="rim2" cx="0" cy="0" r="3.5"/>
  <g id="zoomPlus">
    <use xlink:href="#rim" fill="#404040"><set attributeName="fill" to="#808080" begin="zoomplus.mouseover" end="zoomplus.mouseout"/></use>
    <path d="M-4,0h8M0,-4v8" fill="none" stroke="white" stroke-width="1.5" pointer-events="none"/>
  </g>
  <g id="zoomMin">
    <use xlink:href="#rim" fill="#404040"><set attributeName="fill" to="#808080" begin="zoomminus.mouseover" end="zoomminus.mouseout"/></use>
    <path d="M-4,0h8" fill="none" stroke="white" stroke-width="1.5" pointer-events="none"/>
  </g>
  <g id="arrowUp" transform="translate(30 24)">
    <use xlink:href="#rim"/>
    <path pointer-events="none" fill="none" stroke="white" stroke-width="1.5" d="M0,-3.0v7 M-2.5,-0.5L0,-3.0L2.5,-0.5"/>
  </g>
  <g id="arrowRight" transform="rotate(90) translate(36 -43)">
    <use xlink:href="#rim"/>
    <path pointer-events="none" fill="none" stroke="white" stroke-width="1.5" d="M0,-3.0v7 M-2.5,-0.5L0,-3.0L2.5,-0.5"/>
  </g>
  <g id="arrowDown" transform="rotate(180) translate(-30 -48)">
    <use xlink:href="#rim"/>
    <path pointer-events="none" fill="none" stroke="white" stroke-width="1.5" d="M0,-3.0v7 M-2.5,-0.5L0,-3.0L2.5,-0.5"/>
  </g>
  <g id="arrowLeft" transform="rotate(270) translate(-36 17)">
    <use xlink:href="#rim"/>
    <path pointer-events="none" fill="none" stroke="white" stroke-width="1.5" d="M0,-3.0v7 M-2.5,-0.5L0,-3.0L2.5,-0.5"/>
  </g>
  <g id="resetDef">
    <use xlink:href="#rim2" fill="#404040"><set attributeName="fill" to="#808080" begin="reset.mouseover" end="reset.mouseout"/></use>
  </g>
</defs>
<script type="application/ecmascript">
var viewWidth = 1632;
var viewHeight = 302;
var sectionId = 'dynsection-0';
</script>
<script type="application/ecmascript" xlink:href="svg.min.js"/>
<svg id="graph" class="graph">
<g id="viewport">
<title>dispatcher/CgiHandler.cpp</title>
<!-- Node1 -->
<g id="Node000001" class="node">
<title>Node1</title>
<g id="a_Node000001"><a xlink:title=" ">
<polygon fill="#999999" stroke="#666666" points="517.5,-294 373.5,-294 373.5,-275 517.5,-275 517.5,-294"/>
<text text-anchor="middle" x="445.5" y="-282" font-family="Helvetica,sans-Serif" font-size="10.00">dispatcher/CgiHandler.cpp</text>
</a>
</g>
</g>
<!-- Node2 -->
<g id="Node000002" class="node">
<title>Node2</title>
<g id="a_Node000002"><a xlink:title=" ">
<polygon fill="#e0e0e0" stroke="#999999" points="47,-239 0,-239 0,-220 47,-220 47,-239"/>
<text text-anchor="middle" x="23.5" y="-227" font-family="Helvetica,sans-Serif" font-size="10.00">fcntl.h</text>
</a>
</g>
</g>
<!-- Node1&#45;&gt;Node2 -->
<g id="edge1_Node000001_Node000002" class="edge">
<title>Node1&#45;&gt;Node2</title>
<g id="a_edge1_Node000001_Node000002"><a xlink:title=" ">
<path fill="none" stroke="#63b8ff" d="M373.36,-278.25C297.15,-272.03 173.37,-259.99 57.33,-238.89"/>
<polygon fill="#63b8ff" stroke="#63b8ff" points="57.67,-235.4 47.21,-237.02 56.4,-242.28 57.67,-235.4"/>
</a>
</g>
</g>
<!-- Node3 -->
<g id="Node000003" class="node">
<title>Node3</title>
<g id="a_Node000003"><a xlink:title=" ">
<polygon fill="#e0e0e0" stroke="#999999" points="109.5,-239 65.5,-239 65.5,-220 109.5,-220 109.5,-239"/>
<text text-anchor="middle" x="87.5" y="-227" font-family="Helvetica,sans-Serif" font-size="10.00">poll.h</text>
</a>
</g>
</g>
<!-- Node1&#45;&gt;Node3 -->
<g id="edge2_Node000001_Node000003" class="edge">
<title>Node1&#45;&gt;Node3</title>
<g id="a_edge2_Node000001_Node000003"><a xlink:title=" ">
<path fill="none" stroke="#63b8ff" d="M373.27,-276.45C308.98,-269.54 212.26,-257.59 119.59,-238.98"/>
<polygon fill="#63b8ff" stroke="#63b8ff" points="120.26,-235.55 109.77,-236.98 118.87,-242.41 120.26,-235.55"/>
</a>
</g>
</g>
<!-- Node4 -->
<g id="Node000004" class="node">
<title>Node4</title>
<g id="a_Node000004"><a xlink:title=" ">
<polygon fill="#e0e0e0" stroke="#999999" points="193.5,-239 127.5,-239 127.5,-220 193.5,-220 193.5,-239"/>
<text text-anchor="middle" x="160.5" y="-227" font-family="Helvetica,sans-Serif" font-size="10.00">sys/wait.h</text>
</a>
</g>
</g>
<!-- Node1&#45;&gt;Node4 -->
<g id="edge3_Node000001_Node000004" class="edge">
<title>Node1&#45;&gt;Node4</title>
<g id="a_edge3_Node000001_Node000004"><a xlink:title=" ">
<path fill="none" stroke="#63b8ff" d="M397.5,-274.98C350.55,-266.59 276.77,-253.24 203.38,-239.14"/>
<polygon fill="#63b8ff" stroke="#63b8ff" points="203.99,-235.69 193.5,-237.24 202.66,-242.57 203.99,-235.69"/>
</a>
</g>
</g>
<!-- Node5 -->
<g id="Node000005" class="node">
<title>Node5</title>
<g id="a_Node000005"><a xlink:title=" ">
<polygon fill="#e0e0e0" stroke="#999999" points="259,-239 212,-239 212,-220 259,-220 259,-239"/>
<text text-anchor="middle" x="235.5" y="-227" font-family="Helvetica,sans-Serif" font-size="10.00">cerrno</text>
</a>
</g>
</g>
<!-- Node1&#45;&gt;Node5 -->
<g id="edge4_Node000001_Node000005" class="edge">
<title>Node1&#45;&gt;Node5</title>
<g id="a_edge4_Node000001_Node000005"><a xlink:title=" ">
<path fill="none" stroke="#63b8ff" d="M411.22,-274.94C377.58,-266.53 324.53,-253.24 269.26,-239.18"/>
<polygon fill="#63b8ff" stroke="#63b8ff" points="269.84,-235.72 259.29,-236.64 268.12,-242.5 269.84,-235.72"/>
</a>
</g>
</g>
<!-- Node6 -->
<g id="Node000006" class="node">
<title>Node6</title>
<g id="a_Node000006"><a xlink:title=" ">
<polygon fill="#e0e0e0" stroke="#999999" points="327.5,-239 277.5,-239 277.5,-220 327.5,-220 327.5,-239"/>
<text text-anchor="middle" x="302.5" y="-227" font-family="Helvetica,sans-Serif" font-size="10.00">cstring</text>
</a>
</g>
</g>
<!-- Node1&#45;&gt;Node6 -->
<g id="edge5_Node000001_Node000006" class="edge">
<title>Node1&#45;&gt;Node6</title>
<g id="a_edge5_Node000001_Node000006"><a xlink:title=" ">
<path fill="none" stroke="#63b8ff" d="M422.52,-274.98C399,-266.27 362.21,-252.63 335.56,-242.75"/>
<polygon fill="#63b8ff" stroke="#63b8ff" points="336.49,-239.36 325.89,-239.17 334.05,-245.93 336.49,-239.36"/>
</a>
</g>
</g>
<!-- Node7 -->
<g id="Node000007" class="node">
<title>Node7</title>
<g id="a_Node000007"><a xlink:title=" ">
<polygon fill="#e0e0e0" stroke="#999999" points="411,-239 346,-239 346,-220 411,-220 411,-239"/>
<text text-anchor="middle" x="378.5" y="-227" font-family="Helvetica,sans-Serif" font-size="10.00">stdexcept</text>
</a>
</g>
</g>
<!-- Node1&#45;&gt;Node7 -->
<g id="edge6_Node000001_Node000007" class="edge">
<title>Node1&#45;&gt;Node7</title>
<g id="a_edge6_Node000001_Node000007"><a xlink:title=" ">
<path fill="none" stroke="#63b8ff" d="M434.74,-274.98C424.73,-267.07 409.61,-255.11 397.57,-245.58"/>
<polygon fill="#63b8ff" stroke="#63b8ff" points="399.47,-242.63 389.46,-239.17 395.13,-248.12 399.47,-242.63"/>
</a>
</g>
</g>
<!-- Node8 -->
<g id="Node000008" class="node">
<title>Node8</title>
<g id="a_Node000008"><a xlink:title=" ">
<polygon fill="#e0e0e0" stroke="#999999" points="1338.5,-184 1274.5,-184 1274.5,-165 1338.5,-165 1338.5,-184"/>
<text text-anchor="middle" x="1306.5" y="-172" font-family="Helvetica,sans-Serif" font-size="10.00">algorithm</text>
</a>
</g>
</g>
<!-- Node1&#45;&gt;Node8 -->
<g id="edge7_Node000001_Node000008" class="edge">
<title>Node1&#45;&gt;Node8</title>
<g id="a_edge7_Node000001_Node000008"><a xlink:title=" ">
<path fill="none" stroke="#63b8ff" d="M517.74,-282.49C675.93,-279.72 1048.52,-270.03 1170.5,-239 1212.78,-228.25 1257.94,-204.39 1284.11,-189.18"/>
<polygon fill="#63b8ff" stroke="#63b8ff" points="1286.04,-192.11 1292.86,-184 1282.47,-186.08 1286.04,-192.11"/>
</a>
</g>
</g>
<!-- Node9 -->
<g id="Node000009" class="node">
<title>Node9</title>
<g id="a_Node000009"><a xlink:href="CgiHandler_8hpp.html" target="_top" xlink:title=" ">
<polygon fill="white" stroke="#666666" points="759,-239 614,-239 614,-220 759,-220 759,-239"/>
<text text-anchor="middle" x="686.5" y="-227" font-family="Helvetica,sans-Serif" font-size="10.00">dispatcher/CgiHandler.hpp</text>
</a>
</g>
</g>
<!-- Node1&#45;&gt;Node9 -->
<g id="edge8_Node000001_Node000009" class="edge">
<title>Node1&#45;&gt;Node9</title>
<g id="a_edge8_Node000001_Node000009"><a xlink:title=" ">
<path fill="none" stroke="#63b8ff" d="M484.22,-274.98C525.91,-265.82 592.32,-251.21 637.59,-241.26"/>
<polygon fill="#63b8ff" stroke="#63b8ff" points="638.46,-244.65 647.48,-239.08 636.96,-237.81 638.46,-244.65"/>
</a>
</g>
</g>
<!-- Node24 -->
<g id="Node000024" class="node">
<title>Node24</title>
<g id="a_Node000024"><a xlink:href="ResponseBuilder_8hpp.html" target="_top" xlink:title=" ">
<polygon fill="white" stroke="#666666" points="595.5,-239 429.5,-239 429.5,-220 595.5,-220 595.5,-239"/>
<text text-anchor="middle" x="512.5" y="-227" font-family="Helvetica,sans-Serif" font-size="10.00">response/ResponseBuilder.hpp</text>
</a>
</g>
</g>
<!-- Node1&#45;&gt;Node24 -->
<g id="edge34_Node000001_Node000024" class="edge">
<title>Node1&#45;&gt;Node24</title>
<g id="a_edge34_Node000001_Node000024"><a xlink:title=" ">
<path fill="none" stroke="#63b8ff" d="M456.26,-274.98C466.27,-267.07 481.39,-255.11 493.43,-245.58"/>
<polygon fill="#63b8ff" stroke="#63b8ff" points="495.87,-248.12 501.54,-239.17 491.53,-242.63 495.87,-248.12"/>
</a>
</g>
</g>
<!-- Node27 -->
<g id="Node000027" class="node">
<title>Node27</title>
<g id="a_Node000027"><a xlink:href="Logger_8hpp.html" target="_top" xlink:title=" ">
<polygon fill="white" stroke="#666666" points="1161.5,-239 1067.5,-239 1067.5,-220 1161.5,-220 1161.5,-239"/>
<text text-anchor="middle" x="1114.5" y="-227" font-family="Helvetica,sans-Serif" font-size="10.00">utils/Logger.hpp</text>
</a>
</g>
</g>
<!-- Node1&#45;&gt;Node27 -->
<g id="edge49_Node000001_Node000027" class="edge">
<title>Node1&#45;&gt;Node27</title>
<g id="a_edge49_Node000001_Node000027"><a xlink:title=" ">
<path fill="none" stroke="#63b8ff" d="M517.73,-277.78C651.51,-267.18 935.29,-244.7 1057.05,-235.05"/>
<polygon fill="#63b8ff" stroke="#63b8ff" points="1057.58,-238.52 1067.27,-234.24 1057.03,-231.54 1057.58,-238.52"/>
</a>
</g>
</g>
<!-- Node31 -->
<g id="Node000031" class="node">
<title>Node31</title>
<g id="a_Node000031"><a xlink:href="Signals_8hpp.html" target="_top" xlink:title=" ">
<polygon fill="white" stroke="#666666" points="923,-239 826,-239 826,-220 923,-220 923,-239"/>
<text text-anchor="middle" x="874.5" y="-227" font-family="Helvetica,sans-Serif" font-size="10.00">utils/Signals.hpp</text>
</a>
</g>
</g>
<!-- Node1&#45;&gt;Node31 -->
<g id="edge54_Node000001_Node000031" class="edge">
<title>Node1&#45;&gt;Node31</title>
<g id="a_edge54_Node000001_Node000031"><a xlink:title=" ">
<path fill="none" stroke="#63b8ff" d="M514.43,-274.98C597.84,-264.68 736.87,-247.5 815.54,-237.78"/>
<polygon fill="#63b8ff" stroke="#63b8ff" points="816.26,-241.22 825.76,-236.52 815.4,-234.27 816.26,-241.22"/>
</a>
</g>
</g>
<!-- Node33 -->
<g id="Node000033" class="node">
<title>Node33</title>
<g id="a_Node000033"><a xlink:href="string__utils_8hpp.html" target="_top" xlink:title="Collection of inline string utility functions used across Webservinho.">
<polygon fill="white" stroke="#666666" points="1443.5,-239 1327.5,-239 1327.5,-220 1443.5,-220 1443.5,-239"/>
<text text-anchor="middle" x="1385.5" y="-227" font-family="Helvetica,sans-Serif" font-size="10.00">utils/string_utils.hpp</text>
</a>
</g>
</g>
<!-- Node1&#45;&gt;Node33 -->
<g id="edge59_Node000001_Node000033" class="edge">
<title>Node1&#45;&gt;Node33</title>
<g id="a_edge59_Node000001_Node000033"><a xlink:title=" ">
<path fill="none" stroke="#63b8ff" d="M517.63,-280.05C660.83,-273.1 991.1,-256.57 1268.5,-239 1284.26,-238 1301.2,-236.83 1317.16,-235.68"/>
<polygon fill="#63b8ff" stroke="#63b8ff" points="1317.77,-239.14 1327.49,-234.93 1317.26,-232.16 1317.77,-239.14"/>
</a>
</g>
</g>
<!-- Node10 -->
<g id="Node000010" class="node">
<title>Node10</title>
<g id="a_Node000010"><a xlink:title=" ">
<polygon fill="#e0e0e0" stroke="#999999" points="601.5,-19 557.5,-19 557.5,0 601.5,0 601.5,-19"/>
<text text-anchor="middle" x="579.5" y="-7" font-family="Helvetica,sans-Serif" font-size="10.00">string</text>
</a>
</g>
</g>
<!-- Node9&#45;&gt;Node10 -->
<g id="edge9_Node000009_Node000010" class="edge">
<title>Node9&#45;&gt;Node10</title>
<g id="a_edge9_Node000009_Node000010"><a xlink:title=" ">
<path fill="none" stroke="#63b8ff" d="M692.13,-219.68C701.38,-205.91 721.11,-179.41 744.5,-165 783.02,-141.27 896.55,-120.73 940.5,-110 1018.88,-90.87 1168.13,-114.37 1113.5,-55 1079.48,-18.02 722.53,-11.76 611.96,-10.71"/>
<polygon fill="#63b8ff" stroke="#63b8ff" points="611.79,-7.21 601.76,-10.62 611.73,-14.21 611.79,-7.21"/>
</a>
</g>
</g>
<!-- Node11 -->
<g id="Node000011" class="node">
<title>Node11</title>
<g id="a_Node000011"><a xlink:title=" ">
<polygon fill="#e0e0e0" stroke="#999999" points="766,-74 719,-74 719,-55 766,-55 766,-74"/>
<text text-anchor="middle" x="742.5" y="-62" font-family="Helvetica,sans-Serif" font-size="10.00">vector</text>
</a>
</g>
</g>
<!-- Node9&#45;&gt;Node11 -->
<g id="edge10_Node000009_Node000011" class="edge">
<title>Node9&#45;&gt;Node11</title>
<g id="a_edge10_Node000009_Node000011"><a xlink:title=" ">
<path fill="none" stroke="#63b8ff" d="M687.36,-219.76C689.17,-206.11 694.62,-179.77 710.5,-165 751.58,-126.78 797.96,-173.98 831.5,-129 850.11,-104.04 808.33,-85 775.91,-74.53"/>
<polygon fill="#63b8ff" stroke="#63b8ff" points="776.82,-71.15 766.23,-71.57 774.76,-77.84 776.82,-71.15"/>
</a>
</g>
</g>
<!-- Node12 -->
<g id="Node000012" class="node">
<title>Node12</title>
<g id="a_Node000012"><a xlink:title=" ">
<polygon fill="#e0e0e0" stroke="#999999" points="502.5,-74 464.5,-74 464.5,-55 502.5,-55 502.5,-74"/>
<text text-anchor="middle" x="483.5" y="-62" font-family="Helvetica,sans-Serif" font-size="10.00">map</text>
</a>
</g>
</g>
<!-- Node9&#45;&gt;Node12 -->
<g id="edge11_Node000009_Node000012" class="edge">
<title>Node9&#45;&gt;Node12</title>
<g id="a_edge11_Node000009_Node000012"><a xlink:title=" ">
<path fill="none" stroke="#63b8ff" d="M626.15,-219.96C566.05,-210.84 481.32,-196.06 471.5,-184 448.09,-155.25 463.36,-108.64 474.61,-83.3"/>
<polygon fill="#63b8ff" stroke="#63b8ff" points="477.83,-84.67 478.92,-74.13 471.5,-81.69 477.83,-84.67"/>
</a>
</g>
</g>
<!-- Node13 -->
<g id="Node000013" class="node">
<title>Node13</title>
<g id="a_Node000013"><a xlink:title=" ">
<polygon fill="#e0e0e0" stroke="#999999" points="993.5,-129 949.5,-129 949.5,-110 993.5,-110 993.5,-129"/>
<text text-anchor="middle" x="971.5" y="-117" font-family="Helvetica,sans-Serif" font-size="10.00">ctime</text>
</a>
</g>
</g>
<!-- Node9&#45;&gt;Node13 -->
<g id="edge12_Node000009_Node000013" class="edge">
<title>Node9&#45;&gt;Node13</title>
<g id="a_edge12_Node000009_Node000013"><a xlink:title=" ">
<path fill="none" stroke="#63b8ff" d="M696.6,-219.93C713.21,-206.27 747.84,-179.62 781.5,-165 809.67,-152.77 893.22,-135.54 939.6,-126.53"/>
<polygon fill="#63b8ff" stroke="#63b8ff" points="940.28,-129.97 949.44,-124.63 938.96,-123.09 940.28,-129.97"/>
</a>
</g>
</g>
<!-- Node14 -->
<g id="Node000014" class="node">
<title>Node14</title>
<g id="a_Node000014"><a xlink:title=" ">
<polygon fill="#e0e0e0" stroke="#999999" points="846.5,-184 790.5,-184 790.5,-165 846.5,-165 846.5,-184"/>
<text text-anchor="middle" x="818.5" y="-172" font-family="Helvetica,sans-Serif" font-size="10.00">unistd.h</text>
</a>
</g>
</g>
<!-- Node9&#45;&gt;Node14 -->
<g id="edge13_Node000009_Node000014" class="edge">
<title>Node9&#45;&gt;Node14</title>
<g id="a_edge13_Node000009_Node000014"><a xlink:title=" ">
<path fill="none" stroke="#63b8ff" d="M707.71,-219.98C729.23,-211.34 762.78,-197.87 787.33,-188.02"/>
<polygon fill="#63b8ff" stroke="#63b8ff" points="788.93,-191.14 796.91,-184.17 786.32,-184.65 788.93,-191.14"/>
</a>
</g>
</g>
<!-- Node15 -->
<g id="Node000015" class="node">
<title>Node15</title>
<g id="a_Node000015"><a xlink:href="HttpRequest_8hpp.html" target="_top" xlink:title=" ">
<polygon fill="white" stroke="#666666" points="822.5,-129 684.5,-129 684.5,-110 822.5,-110 822.5,-129"/>
<text text-anchor="middle" x="753.5" y="-117" font-family="Helvetica,sans-Serif" font-size="10.00">request/HttpRequest.hpp</text>
</a>
</g>
</g>
<!-- Node9&#45;&gt;Node15 -->
<g id="edge14_Node000009_Node000015" class="edge">
<title>Node9&#45;&gt;Node15</title>
<g id="a_edge14_Node000009_Node000015"><a xlink:title=" ">
<path fill="none" stroke="#63b8ff" d="M680.8,-219.66C673.28,-206.78 662.15,-182.49 672.5,-165 681.36,-150.02 697.26,-139.74 712.64,-132.88"/>
<polygon fill="#63b8ff" stroke="#63b8ff" points="714.14,-136.04 722.08,-129.03 711.5,-129.56 714.14,-136.04"/>
</a>
</g>
</g>
<!-- Node21 -->
<g id="Node000021" class="node">
<title>Node21</title>
<g id="a_Node000021"><a xlink:href="HttpResponse_8hpp.html" target="_top" xlink:title=" ">
<polygon fill="white" stroke="#666666" points="424,-129 271,-129 271,-110 424,-110 424,-129"/>
<text text-anchor="middle" x="347.5" y="-117" font-family="Helvetica,sans-Serif" font-size="10.00">response/HttpResponse.hpp</text>
</a>
</g>
</g>
<!-- Node9&#45;&gt;Node21 -->
<g id="edge24_Node000009_Node000021" class="edge">
<title>Node9&#45;&gt;Node21</title>
<g id="a_edge24_Node000009_Node000021"><a xlink:title=" ">
<path fill="none" stroke="#63b8ff" d="M621.08,-220C559.06,-211.36 470.72,-197.37 438.5,-184 410.06,-172.2 381.66,-150.38 364.33,-135.65"/>
<polygon fill="#63b8ff" stroke="#63b8ff" points="366.61,-132.99 356.77,-129.07 362.01,-138.27 366.61,-132.99"/>
</a>
</g>
</g>
<!-- Node22 -->
<g id="Node000022" class="node">
<title>Node22</title>
<g id="a_Node000022"><a xlink:href="ClientConnection_8hpp.html" target="_top" xlink:title=" ">
<polygon fill="white" stroke="#666666" points="620.5,-184 480.5,-184 480.5,-165 620.5,-165 620.5,-184"/>
<text text-anchor="middle" x="550.5" y="-172" font-family="Helvetica,sans-Serif" font-size="10.00">init/ClientConnection.hpp</text>
</a>
</g>
</g>
<!-- Node9&#45;&gt;Node22 -->
<g id="edge28_Node000009_Node000022" class="edge">
<title>Node9&#45;&gt;Node22</title>
<g id="a_edge28_Node000009_Node000022"><a xlink:title=" ">
<path fill="none" stroke="#63b8ff" d="M664.65,-219.98C642.38,-211.3 607.6,-197.75 582.28,-187.88"/>
<polygon fill="#63b8ff" stroke="#63b8ff" points="583.34,-184.54 572.75,-184.17 580.79,-191.06 583.34,-184.54"/>
</a>
</g>
</g>
<!-- Node15&#45;&gt;Node10 -->
<g id="edge15_Node000015_Node000010" class="edge">
<title>Node15&#45;&gt;Node10</title>
<g id="a_edge15_Node000015_Node000010"><a xlink:title=" ">
<path fill="none" stroke="#63b8ff" d="M822.52,-114.39C917.71,-108.01 1079.66,-94.3 1097.5,-74 1103.07,-67.66 1103.21,-61.22 1097.5,-55 1064.64,-19.2 720.5,-12.14 612.04,-10.8"/>
<polygon fill="#63b8ff" stroke="#63b8ff" points="611.76,-7.3 601.73,-10.68 611.68,-14.3 611.76,-7.3"/>
</a>
</g>
</g>
<!-- Node15&#45;&gt;Node11 -->
<g id="edge17_Node000015_Node000011" class="edge">
<title>Node15&#45;&gt;Node11</title>
<g id="a_edge17_Node000015_Node000011"><a xlink:title=" ">
<path fill="none" stroke="#63b8ff" d="M751.68,-109.75C750.24,-102.8 748.18,-92.85 746.37,-84.13"/>
<polygon fill="#63b8ff" stroke="#63b8ff" points="749.74,-83.17 744.28,-74.09 742.89,-84.59 749.74,-83.17"/>
</a>
</g>
</g>
<!-- Node15&#45;&gt;Node12 -->
<g id="edge16_Node000015_Node000012" class="edge">
<title>Node15&#45;&gt;Node12</title>
<g id="a_edge16_Node000015_Node000012"><a xlink:title=" ">
<path fill="none" stroke="#63b8ff" d="M710.12,-109.98C654.69,-99.1 560.23,-80.56 512.68,-71.23"/>
<polygon fill="#63b8ff" stroke="#63b8ff" points="513.22,-67.77 502.73,-69.27 511.87,-74.64 513.22,-67.77"/>
</a>
</g>
</g>
<!-- Node16 -->
<g id="Node000016" class="node">
<title>Node16</title>
<g id="a_Node000016"><a xlink:href="RequestMethod_8hpp.html" target="_top" xlink:title=" ">
<polygon fill="white" stroke="#666666" points="188.5,-74 34.5,-74 34.5,-55 188.5,-55 188.5,-74"/>
<text text-anchor="middle" x="111.5" y="-62" font-family="Helvetica,sans-Serif" font-size="10.00">request/RequestMethod.hpp</text>
</a>
</g>
</g>
<!-- Node15&#45;&gt;Node16 -->
<g id="edge18_Node000015_Node000016" class="edge">
<title>Node15&#45;&gt;Node16</title>
<g id="a_edge18_Node000015_Node000016"><a xlink:title=" ">
<path fill="none" stroke="#63b8ff" d="M684.49,-112.8C566.88,-103.09 327.83,-83.36 198.79,-72.71"/>
<polygon fill="#63b8ff" stroke="#63b8ff" points="198.81,-69.2 188.55,-71.86 198.23,-76.17 198.81,-69.2"/>
</a>
</g>
</g>
<!-- Node17 -->
<g id="Node000017" class="node">
<title>Node17</title>
<g id="a_Node000017"><a xlink:href="RequestMeta_8hpp.html" target="_top" xlink:title=" ">
<polygon fill="white" stroke="#666666" points="700.5,-74 558.5,-74 558.5,-55 700.5,-55 700.5,-74"/>
<text text-anchor="middle" x="629.5" y="-62" font-family="Helvetica,sans-Serif" font-size="10.00">request/RequestMeta.hpp</text>
</a>
</g>
</g>
<!-- Node15&#45;&gt;Node17 -->
<g id="edge19_Node000015_Node000017" class="edge">
<title>Node15&#45;&gt;Node17</title>
<g id="a_edge19_Node000015_Node000017"><a xlink:title=" ">
<path fill="none" stroke="#63b8ff" d="M733.58,-109.98C713.45,-101.38 682.12,-87.99 659.09,-78.15"/>
<polygon fill="#63b8ff" stroke="#63b8ff" points="660.36,-74.88 649.79,-74.17 657.6,-81.32 660.36,-74.88"/>
</a>
</g>
</g>
<!-- Node18 -->
<g id="Node000018" class="node">
<title>Node18</title>
<g id="a_Node000018"><a xlink:href="RequestState_8hpp.html" target="_top" xlink:title=" ">
<polygon fill="white" stroke="#666666" points="927,-74 784,-74 784,-55 927,-55 927,-74"/>
<text text-anchor="middle" x="855.5" y="-62" font-family="Helvetica,sans-Serif" font-size="10.00">request/RequestState.hpp</text>
</a>
</g>
</g>
<!-- Node15&#45;&gt;Node18 -->
<g id="edge21_Node000015_Node000018" class="edge">
<title>Node15&#45;&gt;Node18</title>
<g id="a_edge21_Node000015_Node000018"><a xlink:title=" ">
<path fill="none" stroke="#63b8ff" d="M769.89,-109.98C786.07,-101.57 811.07,-88.59 829.88,-78.81"/>
<polygon fill="#63b8ff" stroke="#63b8ff" points="831.55,-81.89 838.81,-74.17 828.33,-75.68 831.55,-81.89"/>
</a>
</g>
</g>
<!-- Node19 -->
<g id="Node000019" class="node">
<title>Node19</title>
<g id="a_Node000019"><a xlink:href="ResponseStatus_8hpp.html" target="_top" xlink:title=" ">
<polygon fill="white" stroke="#666666" points="408,-74 245,-74 245,-55 408,-55 408,-74"/>
<text text-anchor="middle" x="326.5" y="-62" font-family="Helvetica,sans-Serif" font-size="10.00">response/ResponseStatus.hpp</text>
</a>
</g>
</g>
<!-- Node15&#45;&gt;Node19 -->
<g id="edge22_Node000015_Node000019" class="edge">
<title>Node15&#45;&gt;Node19</title>
<g id="a_edge22_Node000015_Node000019"><a xlink:title=" ">
<path fill="none" stroke="#63b8ff" d="M684.9,-109.98C608.59,-100.51 485.54,-85.24 405.34,-75.29"/>
<polygon fill="#63b8ff" stroke="#63b8ff" points="405.64,-71.8 395.29,-74.04 404.78,-78.74 405.64,-71.8"/>
</a>
</g>
</g>
<!-- Node20 -->
<g id="Node000020" class="node">
<title>Node20</title>
<g id="a_Node000020"><a xlink:href="RouteType_8hpp.html" target="_top" xlink:title=" ">
<polygon fill="white" stroke="#666666" points="1088,-74 945,-74 945,-55 1088,-55 1088,-74"/>
<text text-anchor="middle" x="1016.5" y="-62" font-family="Helvetica,sans-Serif" font-size="10.00">dispatcher/RouteType.hpp</text>
</a>
</g>
</g>
<!-- Node15&#45;&gt;Node20 -->
<g id="edge23_Node000015_Node000020" class="edge">
<title>Node15&#45;&gt;Node20</title>
<g id="a_edge23_Node000015_Node000020"><a xlink:title=" ">
<path fill="none" stroke="#63b8ff" d="M795.76,-109.98C841.54,-100.76 914.64,-86.03 964.05,-76.07"/>
<polygon fill="#63b8ff" stroke="#63b8ff" points="964.8,-79.49 973.91,-74.08 963.42,-72.63 964.8,-79.49"/>
</a>
</g>
</g>
<!-- Node17&#45;&gt;Node10 -->
<g id="edge20_Node000017_Node000010" class="edge">
<title>Node17&#45;&gt;Node10</title>
<g id="a_edge20_Node000017_Node000010"><a xlink:title=" ">
<path fill="none" stroke="#63b8ff" d="M621.24,-54.75C614.04,-47.11 603.39,-35.82 594.65,-26.56"/>
<polygon fill="#63b8ff" stroke="#63b8ff" points="597.01,-23.96 587.6,-19.09 591.92,-28.76 597.01,-23.96"/>
</a>
</g>
</g>
<!-- Node21&#45;&gt;Node10 -->
<g id="edge25_Node000021_Node000010" class="edge">
<title>Node21&#45;&gt;Node10</title>
<g id="a_edge25_Node000021_Node000010"><a xlink:title=" ">
<path fill="none" stroke="#63b8ff" d="M360.37,-109.86C380.19,-96.8 419.65,-71.79 455.5,-55 485.72,-40.85 521.77,-28.37 547.19,-20.26"/>
<polygon fill="#63b8ff" stroke="#63b8ff" points="548.56,-23.5 557.05,-17.16 546.46,-16.82 548.56,-23.5"/>
</a>
</g>
</g>
<!-- Node21&#45;&gt;Node12 -->
<g id="edge26_Node000021_Node000012" class="edge">
<title>Node21&#45;&gt;Node12</title>
<g id="a_edge26_Node000021_Node000012"><a xlink:title=" ">
<path fill="none" stroke="#63b8ff" d="M369.35,-109.98C392.55,-100.94 429.32,-86.61 454.83,-76.67"/>
<polygon fill="#63b8ff" stroke="#63b8ff" points="456.29,-79.86 464.34,-72.97 453.75,-73.34 456.29,-79.86"/>
</a>
</g>
</g>
<!-- Node21&#45;&gt;Node19 -->
<g id="edge27_Node000021_Node000019" class="edge">
<title>Node21&#45;&gt;Node19</title>
<g id="a_edge27_Node000021_Node000019"><a xlink:title=" ">
<path fill="none" stroke="#63b8ff" d="M344.03,-109.75C341.22,-102.65 337.16,-92.4 333.65,-83.56"/>
<polygon fill="#63b8ff" stroke="#63b8ff" points="336.84,-82.1 329.9,-74.09 330.33,-84.68 336.84,-82.1"/>
</a>
</g>
</g>
<!-- Node22&#45;&gt;Node10 -->
<g id="edge29_Node000022_Node000010" class="edge">
<title>Node22&#45;&gt;Node10</title>
<g id="a_edge29_Node000022_Node000010"><a xlink:title=" ">
<path fill="none" stroke="#63b8ff" d="M565.63,-164.73C577.31,-156.99 592.62,-144.55 599.5,-129 602.92,-121.28 603.35,-117.52 599.5,-110 587.02,-85.63 561.98,-98.37 549.5,-74 541.38,-58.15 552.29,-39.73 563.15,-26.82"/>
<polygon fill="#63b8ff" stroke="#63b8ff" points="565.93,-28.96 570.09,-19.21 560.76,-24.24 565.93,-28.96"/>
</a>
</g>
</g>
<!-- Node22&#45;&gt;Node13 -->
<g id="edge30_Node000022_Node000013" class="edge">
<title>Node22&#45;&gt;Node13</title>
<g id="a_edge30_Node000022_Node000013"><a xlink:title=" ">
<path fill="none" stroke="#63b8ff" d="M618.14,-164.98C709.92,-153.43 870.32,-133.24 938.89,-124.6"/>
<polygon fill="#63b8ff" stroke="#63b8ff" points="939.6,-128.04 949.09,-123.32 938.73,-121.1 939.6,-128.04"/>
</a>
</g>
</g>
<!-- Node22&#45;&gt;Node15 -->
<g id="edge32_Node000022_Node000015" class="edge">
<title>Node22&#45;&gt;Node15</title>
<g id="a_edge32_Node000022_Node000015"><a xlink:title=" ">
<path fill="none" stroke="#63b8ff" d="M583.12,-164.98C617.79,-155.93 672.76,-141.58 710.85,-131.64"/>
<polygon fill="#63b8ff" stroke="#63b8ff" points="711.84,-134.99 720.63,-129.08 710.07,-128.22 711.84,-134.99"/>
</a>
</g>
</g>
<!-- Node22&#45;&gt;Node21 -->
<g id="edge33_Node000022_Node000021" class="edge">
<title>Node22&#45;&gt;Node21</title>
<g id="a_edge33_Node000022_Node000021"><a xlink:title=" ">
<path fill="none" stroke="#63b8ff" d="M517.88,-164.98C483.21,-155.93 428.24,-141.58 390.15,-131.64"/>
<polygon fill="#63b8ff" stroke="#63b8ff" points="390.93,-128.22 380.37,-129.08 389.16,-134.99 390.93,-128.22"/>
</a>
</g>
</g>
<!-- Node23 -->
<g id="Node000023" class="node">
<title>Node23</title>
<g id="a_Node000023"><a xlink:title=" ">
<polygon fill="#e0e0e0" stroke="#999999" points="590.5,-129 518.5,-129 518.5,-110 590.5,-110 590.5,-129"/>
<text text-anchor="middle" x="554.5" y="-117" font-family="Helvetica,sans-Serif" font-size="10.00">sys/types.h</text>
</a>
</g>
</g>
<!-- Node22&#45;&gt;Node23 -->
<g id="edge31_Node000022_Node000023" class="edge">
<title>Node22&#45;&gt;Node23</title>
<g id="a_edge31_Node000022_Node000023"><a xlink:title=" ">
<path fill="none" stroke="#63b8ff" d="M551.16,-164.75C551.68,-157.8 552.44,-147.85 553.09,-139.13"/>
<polygon fill="#63b8ff" stroke="#63b8ff" points="556.59,-139.32 553.85,-129.09 549.61,-138.8 556.59,-139.32"/>
</a>
</g>
</g>
<!-- Node24&#45;&gt;Node19 -->
<g id="edge36_Node000024_Node000019" class="edge">
<title>Node24&#45;&gt;Node19</title>
<g id="a_edge36_Node000024_Node000019"><a xlink:title=" ">
<path fill="none" stroke="#63b8ff" d="M429.12,-220.76C307.84,-209.36 96.36,-188.87 89.5,-184 67.45,-168.36 69.42,-155.38 63.5,-129 61.65,-120.76 58.05,-116.45 63.5,-110 74.74,-96.7 163.58,-83.66 234.94,-75.18"/>
<polygon fill="#63b8ff" stroke="#63b8ff" points="235.36,-78.65 244.88,-74.01 234.54,-71.7 235.36,-78.65"/>
</a>
</g>
</g>
<!-- Node24&#45;&gt;Node21 -->
<g id="edge35_Node000024_Node000021" class="edge">
<title>Node24&#45;&gt;Node21</title>
<g id="a_edge35_Node000024_Node000021"><a xlink:title=" ">
<path fill="none" stroke="#63b8ff" d="M465.61,-219.94C440.11,-213.44 409.23,-202.37 386.5,-184 371.6,-171.96 360.89,-152.6 354.51,-138.42"/>
<polygon fill="#63b8ff" stroke="#63b8ff" points="357.73,-137.05 350.63,-129.19 351.28,-139.77 357.73,-137.05"/>
</a>
</g>
</g>
<!-- Node24&#45;&gt;Node22 -->
<g id="edge37_Node000024_Node000022" class="edge">
<title>Node24&#45;&gt;Node22</title>
<g id="a_edge37_Node000024_Node000022"><a xlink:title=" ">
<path fill="none" stroke="#63b8ff" d="M518.77,-219.75C524.09,-212.34 531.86,-201.5 538.38,-192.41"/>
<polygon fill="#63b8ff" stroke="#63b8ff" points="541.36,-194.26 544.34,-184.09 535.67,-190.18 541.36,-194.26"/>
</a>
</g>
</g>
<!-- Node25 -->
<g id="Node000025" class="node">
<title>Node25</title>
<g id="a_Node000025"><a xlink:href="ServerConfig_8hpp.html" target="_top" xlink:title=" ">
<polygon fill="white" stroke="#666666" points="230.5,-184 98.5,-184 98.5,-165 230.5,-165 230.5,-184"/>
<text text-anchor="middle" x="164.5" y="-172" font-family="Helvetica,sans-Serif" font-size="10.00">config/ServerConfig.hpp</text>
</a>
</g>
</g>
<!-- Node24&#45;&gt;Node25 -->
<g id="edge38_Node000024_Node000025" class="edge">
<title>Node24&#45;&gt;Node25</title>
<g id="a_edge38_Node000024_Node000025"><a xlink:title=" ">
<path fill="none" stroke="#63b8ff" d="M456.59,-219.98C395.04,-210.61 296.16,-195.55 230.76,-185.59"/>
<polygon fill="#63b8ff" stroke="#63b8ff" points="230.97,-182.08 220.56,-184.04 229.92,-189 230.97,-182.08"/>
</a>
</g>
</g>
<!-- Node26 -->
<g id="Node000026" class="node">
<title>Node26</title>
<g id="a_Node000026"><a xlink:href="LocationConfig_8hpp.html" target="_top" xlink:title=" ">
<polygon fill="white" stroke="#666666" points="214.5,-129 72.5,-129 72.5,-110 214.5,-110 214.5,-129"/>
<text text-anchor="middle" x="143.5" y="-117" font-family="Helvetica,sans-Serif" font-size="10.00">config/LocationConfig.hpp</text>
</a>
</g>
</g>
<!-- Node24&#45;&gt;Node26 -->
<g id="edge48_Node000024_Node000026" class="edge">
<title>Node24&#45;&gt;Node26</title>
<g id="a_edge48_Node000024_Node000026"><a xlink:title=" ">
<path fill="none" stroke="#63b8ff" d="M483.24,-219.94C417.3,-200.64 257.09,-153.74 182.68,-131.97"/>
<polygon fill="#63b8ff" stroke="#63b8ff" points="183.35,-128.52 172.77,-129.07 181.38,-135.23 183.35,-128.52"/>
</a>
</g>
</g>
<!-- Node25&#45;&gt;Node10 -->
<g id="edge39_Node000025_Node000010" class="edge">
<title>Node25&#45;&gt;Node10</title>
<g id="a_edge39_Node000025_Node000010"><a xlink:title=" ">
<path fill="none" stroke="#63b8ff" d="M127.65,-164.93C105.06,-158.18 76.7,-146.87 56.5,-129 29.79,-105.38 1.32,-81.2 25.5,-55 61,-16.53 434.38,-11.31 547.32,-10.61"/>
<polygon fill="#63b8ff" stroke="#63b8ff" points="547.43,-14.1 557.41,-10.55 547.39,-7.1 547.43,-14.1"/>
</a>
</g>
</g>
<!-- Node25&#45;&gt;Node11 -->
<g id="edge40_Node000025_Node000011" class="edge">
<title>Node25&#45;&gt;Node11</title>
<g id="a_edge40_Node000025_Node000011"><a xlink:title=" ">
<path fill="none" stroke="#63b8ff" d="M223.82,-165C278.29,-156.87 361.13,-143.71 432.5,-129 467.02,-121.89 475.03,-117.35 509.5,-110 594.73,-91.83 619.54,-93.16 708.74,-74.02"/>
<polygon fill="#63b8ff" stroke="#63b8ff" points="709.73,-77.38 718.76,-71.84 708.24,-70.54 709.73,-77.38"/>
</a>
</g>
</g>
<!-- Node25&#45;&gt;Node12 -->
<g id="edge41_Node000025_Node000012" class="edge">
<title>Node25&#45;&gt;Node12</title>
<g id="a_edge41_Node000025_Node000012"><a xlink:title=" ">
<path fill="none" stroke="#63b8ff" d="M174.79,-164.81C191.73,-150.99 227.04,-124.11 261.5,-110 296.21,-95.78 402.55,-78.03 454.43,-69.92"/>
<polygon fill="#63b8ff" stroke="#63b8ff" points="454.99,-73.37 464.33,-68.38 453.92,-66.45 454.99,-73.37"/>
</a>
</g>
</g>
<!-- Node25&#45;&gt;Node16 -->
<g id="edge47_Node000025_Node000016" class="edge">
<title>Node25&#45;&gt;Node16</title>
<g id="a_edge47_Node000025_Node000016"><a xlink:title=" ">
<path fill="none" stroke="#63b8ff" d="M118.34,-165C97.9,-158.69 75.75,-147.78 63.5,-129 52.12,-111.55 70.78,-92.64 88.05,-80.03"/>
<polygon fill="#63b8ff" stroke="#63b8ff" points="90.51,-82.59 96.79,-74.06 86.56,-76.81 90.51,-82.59"/>
</a>
</g>
</g>
<!-- Node25&#45;&gt;Node26 -->
<g id="edge42_Node000025_Node000026" class="edge">
<title>Node25&#45;&gt;Node26</title>
<g id="a_edge42_Node000025_Node000026"><a xlink:title=" ">
<path fill="none" stroke="#63b8ff" d="M161.03,-164.75C158.22,-157.65 154.16,-147.4 150.65,-138.56"/>
<polygon fill="#63b8ff" stroke="#63b8ff" points="153.84,-137.1 146.9,-129.09 147.33,-139.68 153.84,-137.1"/>
</a>
</g>
</g>
<!-- Node26&#45;&gt;Node10 -->
<g id="edge44_Node000026_Node000010" class="edge">
<title>Node26&#45;&gt;Node10</title>
<g id="a_edge44_Node000026_Node000010"><a xlink:title=" ">
<path fill="none" stroke="#63b8ff" d="M152.81,-109.75C168.5,-95.59 201.8,-67.93 235.5,-55 344.19,-13.29 484.89,-9.2 547.28,-9.7"/>
<polygon fill="#63b8ff" stroke="#63b8ff" points="547.25,-13.2 557.3,-9.82 547.34,-6.2 547.25,-13.2"/>
</a>
</g>
</g>
<!-- Node26&#45;&gt;Node11 -->
<g id="edge43_Node000026_Node000011" class="edge">
<title>Node26&#45;&gt;Node11</title>
<g id="a_edge43_Node000026_Node000011"><a xlink:title=" ">
<path fill="none" stroke="#63b8ff" d="M214.62,-113.24C351.79,-103.05 644.42,-81.09 708.87,-73.48"/>
<polygon fill="#63b8ff" stroke="#63b8ff" points="709.38,-76.95 718.81,-72.13 708.43,-70.01 709.38,-76.95"/>
</a>
</g>
</g>
<!-- Node26&#45;&gt;Node12 -->
<g id="edge45_Node000026_Node000012" class="edge">
<title>Node26&#45;&gt;Node12</title>
<g id="a_edge45_Node000026_Node000012"><a xlink:title=" ">
<path fill="none" stroke="#63b8ff" d="M198.13,-109.98C270.96,-98.63 397.29,-78.94 454.21,-70.07"/>
<polygon fill="#63b8ff" stroke="#63b8ff" points="454.97,-73.49 464.31,-68.49 453.89,-66.57 454.97,-73.49"/>
</a>
</g>
</g>
<!-- Node26&#45;&gt;Node16 -->
<g id="edge46_Node000026_Node000016" class="edge">
<title>Node26&#45;&gt;Node16</title>
<g id="a_edge46_Node000026_Node000016"><a xlink:title=" ">
<path fill="none" stroke="#63b8ff" d="M138.22,-109.75C133.79,-102.42 127.34,-91.73 121.88,-82.7"/>
<polygon fill="#63b8ff" stroke="#63b8ff" points="124.85,-80.84 116.69,-74.09 118.86,-84.46 124.85,-80.84"/>
</a>
</g>
</g>
<!-- Node27&#45;&gt;Node13 -->
<g id="edge50_Node000027_Node000013" class="edge">
<title>Node27&#45;&gt;Node13</title>
<g id="a_edge50_Node000027_Node000013"><a xlink:title=" ">
<path fill="none" stroke="#63b8ff" d="M1126.57,-219.88C1142.76,-207.27 1167.88,-183.32 1153.5,-165 1135.2,-141.69 1050.74,-129.02 1003.58,-123.65"/>
<polygon fill="#63b8ff" stroke="#63b8ff" points="1003.88,-120.16 993.56,-122.56 1003.12,-127.12 1003.88,-120.16"/>
</a>
</g>
</g>
<!-- Node28 -->
<g id="Node000028" class="node">
<title>Node28</title>
<g id="a_Node000028"><a xlink:title=" ">
<polygon fill="#e0e0e0" stroke="#999999" points="1066,-184 1011,-184 1011,-165 1066,-165 1066,-184"/>
<text text-anchor="middle" x="1038.5" y="-172" font-family="Helvetica,sans-Serif" font-size="10.00">fstream</text>
</a>
</g>
</g>
<!-- Node27&#45;&gt;Node28 -->
<g id="edge51_Node000027_Node000028" class="edge">
<title>Node27&#45;&gt;Node28</title>
<g id="a_edge51_Node000027_Node000028"><a xlink:title=" ">
<path fill="none" stroke="#63b8ff" d="M1102.29,-219.98C1090.72,-211.92 1073.12,-199.65 1059.34,-190.03"/>
<polygon fill="#63b8ff" stroke="#63b8ff" points="1061.14,-187.02 1050.93,-184.17 1057.13,-192.76 1061.14,-187.02"/>
</a>
</g>
</g>
<!-- Node29 -->
<g id="Node000029" class="node">
<title>Node29</title>
<g id="a_Node000029"><a xlink:title=" ">
<polygon fill="#e0e0e0" stroke="#999999" points="1144.5,-184 1084.5,-184 1084.5,-165 1144.5,-165 1144.5,-184"/>
<text text-anchor="middle" x="1114.5" y="-172" font-family="Helvetica,sans-Serif" font-size="10.00">iostream</text>
</a>
</g>
</g>
<!-- Node27&#45;&gt;Node29 -->
<g id="edge52_Node000027_Node000029" class="edge">
<title>Node27&#45;&gt;Node29</title>
<g id="a_edge52_Node000027_Node000029"><a xlink:title=" ">
<path fill="none" stroke="#63b8ff" d="M1114.5,-219.75C1114.5,-212.8 1114.5,-202.85 1114.5,-194.13"/>
<polygon fill="#63b8ff" stroke="#63b8ff" points="1118,-194.09 1114.5,-184.09 1111,-194.09 1118,-194.09"/>
</a>
</g>
</g>
<!-- Node30 -->
<g id="Node000030" class="node">
<title>Node30</title>
<g id="a_Node000030"><a xlink:title=" ">
<polygon fill="#e0e0e0" stroke="#999999" points="1256.5,-184 1200.5,-184 1200.5,-165 1256.5,-165 1256.5,-184"/>
<text text-anchor="middle" x="1228.5" y="-172" font-family="Helvetica,sans-Serif" font-size="10.00">sstream</text>
</a>
</g>
</g>
<!-- Node27&#45;&gt;Node30 -->
<g id="edge53_Node000027_Node000030" class="edge">
<title>Node27&#45;&gt;Node30</title>
<g id="a_edge53_Node000027_Node000030"><a xlink:title=" ">
<path fill="none" stroke="#63b8ff" d="M1132.82,-219.98C1151.16,-211.46 1179.61,-198.23 1200.73,-188.41"/>
<polygon fill="#63b8ff" stroke="#63b8ff" points="1202.26,-191.56 1209.85,-184.17 1199.31,-185.21 1202.26,-191.56"/>
</a>
</g>
</g>
<!-- Node31&#45;&gt;Node12 -->
<g id="edge57_Node000031_Node000012" class="edge">
<title>Node31&#45;&gt;Node12</title>
<g id="a_edge57_Node000031_Node000012"><a xlink:title=" ">
<path fill="none" stroke="#63b8ff" d="M874.55,-219.64C874.12,-205.82 871.15,-179.26 855.5,-165 795.18,-110.07 754.38,-149.85 675.5,-129 616.7,-113.46 549.57,-89.88 512.3,-76.25"/>
<polygon fill="#63b8ff" stroke="#63b8ff" points="513.21,-72.86 502.62,-72.69 510.79,-79.42 513.21,-72.86"/>
</a>
</g>
</g>
<!-- Node31&#45;&gt;Node13 -->
<g id="edge56_Node000031_Node000013" class="edge">
<title>Node31&#45;&gt;Node13</title>
<g id="a_edge56_Node000031_Node000013"><a xlink:title=" ">
<path fill="none" stroke="#63b8ff" d="M908.05,-219.92C927.05,-213.28 949.54,-202.09 962.5,-184 971.72,-171.13 973.48,-152.97 973.21,-139.36"/>
<polygon fill="#63b8ff" stroke="#63b8ff" points="976.7,-139.01 972.64,-129.22 969.71,-139.4 976.7,-139.01"/>
</a>
</g>
</g>
<!-- Node31&#45;&gt;Node14 -->
<g id="edge58_Node000031_Node000014" class="edge">
<title>Node31&#45;&gt;Node14</title>
<g id="a_edge58_Node000031_Node000014"><a xlink:title=" ">
<path fill="none" stroke="#63b8ff" d="M865.5,-219.98C857.31,-212.23 844.99,-200.58 835.03,-191.14"/>
<polygon fill="#63b8ff" stroke="#63b8ff" points="837.33,-188.5 827.66,-184.17 832.52,-193.59 837.33,-188.5"/>
</a>
</g>
</g>
<!-- Node32 -->
<g id="Node000032" class="node">
<title>Node32</title>
<g id="a_Node000032"><a xlink:title=" ">
<polygon fill="#e0e0e0" stroke="#999999" points="954,-184 903,-184 903,-165 954,-165 954,-184"/>
<text text-anchor="middle" x="928.5" y="-172" font-family="Helvetica,sans-Serif" font-size="10.00">csignal</text>
</a>
</g>
</g>
<!-- Node31&#45;&gt;Node32 -->
<g id="edge55_Node000031_Node000032" class="edge">
<title>Node31&#45;&gt;Node32</title>
<g id="a_edge55_Node000031_Node000032"><a xlink:title=" ">
<path fill="none" stroke="#63b8ff" d="M883.42,-219.75C891.28,-212.03 902.93,-200.6 912.42,-191.28"/>
<polygon fill="#63b8ff" stroke="#63b8ff" points="915.06,-193.59 919.75,-184.09 910.16,-188.6 915.06,-193.59"/>
</a>
</g>
</g>
<!-- Node33&#45;&gt;Node8 -->
<g id="edge63_Node000033_Node000008" class="edge">
<title>Node33&#45;&gt;Node8</title>
<g id="a_edge63_Node000033_Node000008"><a xlink:title=" ">
<path fill="none" stroke="#63b8ff" d="M1372.81,-219.98C1360.67,-211.84 1342.14,-199.41 1327.75,-189.76"/>
<polygon fill="#63b8ff" stroke="#63b8ff" points="1329.68,-186.84 1319.42,-184.17 1325.78,-192.65 1329.68,-186.84"/>
</a>
</g>
</g>
<!-- Node33&#45;&gt;Node10 -->
<g id="edge60_Node000033_Node000010" class="edge">
<title>Node33&#45;&gt;Node10</title>
<g id="a_edge60_Node000033_Node000010"><a xlink:title=" ">
<path fill="none" stroke="#63b8ff" d="M1385.57,-219.64C1385.22,-206.31 1382.7,-180.94 1369.5,-165 1295.44,-75.55 1244.8,-84.56 1132.5,-55 1032.98,-28.8 714.3,-15.33 611.67,-11.6"/>
<polygon fill="#63b8ff" stroke="#63b8ff" points="611.73,-8.1 601.61,-11.24 611.47,-15.09 611.73,-8.1"/>
</a>
</g>
</g>
<!-- Node33&#45;&gt;Node11 -->
<g id="edge62_Node000033_Node000011" class="edge">
<title>Node33&#45;&gt;Node11</title>
<g id="a_edge62_Node000033_Node000011"><a xlink:title=" ">
<path fill="none" stroke="#63b8ff" d="M1382.97,-219.86C1378.38,-205.84 1367.29,-178.39 1347.5,-165 1218.9,-77.99 1155.85,-134.33 1002.5,-110 904.34,-94.43 876.59,-95.13 776.15,-74.18"/>
<polygon fill="#63b8ff" stroke="#63b8ff" points="776.71,-70.72 766.2,-72.09 775.26,-77.57 776.71,-70.72"/>
</a>
</g>
</g>
<!-- Node33&#45;&gt;Node30 -->
<g id="edge61_Node000033_Node000030" class="edge">
<title>Node33&#45;&gt;Node30</title>
<g id="a_edge61_Node000033_Node000030"><a xlink:title=" ">
<path fill="none" stroke="#63b8ff" d="M1360.28,-219.98C1334.14,-211.16 1293.1,-197.31 1263.77,-187.41"/>
<polygon fill="#63b8ff" stroke="#63b8ff" points="1264.52,-183.96 1253.92,-184.08 1262.28,-190.6 1264.52,-183.96"/>
</a>
</g>
</g>
<!-- Node34 -->
<g id="Node000034" class="node">
<title>Node34</title>
<g id="a_Node000034"><a xlink:title=" ">
<polygon fill="#e0e0e0" stroke="#999999" points="1482,-184 1433,-184 1433,-165 1482,-165 1482,-184"/>
<text text-anchor="middle" x="1457.5" y="-172" font-family="Helvetica,sans-Serif" font-size="10.00">cctype</text>
</a>
</g>
</g>
<!-- Node33&#45;&gt;Node34 -->
<g id="edge64_Node000033_Node000034" class="edge">
<title>Node33&#45;&gt;Node34</title>
<g id="a_edge64_Node000033_Node000034"><a xlink:title=" ">
<path fill="none" stroke="#63b8ff" d="M1397.07,-219.98C1407.92,-212 1424.38,-199.88 1437.38,-190.31"/>
<polygon fill="#63b8ff" stroke="#63b8ff" points="1439.74,-192.92 1445.72,-184.17 1435.59,-187.28 1439.74,-192.92"/>
</a>
</g>
</g>
<!-- Node35 -->
<g id="Node000035" class="node">
<title>Node35</title>
<g id="a_Node000035"><a xlink:title=" ">
<polygon fill="#e0e0e0" stroke="#999999" points="1549,-184 1500,-184 1500,-165 1549,-165 1549,-184"/>
<text text-anchor="middle" x="1524.5" y="-172" font-family="Helvetica,sans-Serif" font-size="10.00">cstdlib</text>
</a>
</g>
</g>
<!-- Node33&#45;&gt;Node35 -->
<g id="edge65_Node000033_Node000035" class="edge">
<title>Node33&#45;&gt;Node35</title>
<g id="a_edge65_Node000033_Node000035"><a xlink:title=" ">
<path fill="none" stroke="#63b8ff" d="M1407.83,-219.98C1430.7,-211.27 1466.46,-197.63 1492.36,-187.75"/>
<polygon fill="#63b8ff" stroke="#63b8ff" points="1493.66,-191 1501.76,-184.17 1491.17,-184.46 1493.66,-191"/>
</a>
</g>
</g>
<!-- Node36 -->
<g id="Node000036" class="node">
<title>Node36</title>
<g id="a_Node000036"><a xlink:title=" ">
<polygon fill="#e0e0e0" stroke="#999999" points="1623.5,-184 1567.5,-184 1567.5,-165 1623.5,-165 1623.5,-184"/>
<text text-anchor="middle" x="1595.5" y="-172" font-family="Helvetica,sans-Serif" font-size="10.00">iomanip</text>
</a>
</g>
</g>
<!-- Node33&#45;&gt;Node36 -->
<g id="edge66_Node000033_Node000036" class="edge">
<title>Node33&#45;&gt;Node36</title>
<g id="a_edge66_Node000033_Node000036"><a xlink:title=" ">
<path fill="none" stroke="#63b8ff" d="M1419.24,-219.98C1457,-210.46 1518.03,-195.05 1557.45,-185.1"/>
<polygon fill="#63b8ff" stroke="#63b8ff" points="1558.39,-188.48 1567.23,-182.63 1556.68,-181.69 1558.39,-188.48"/>
</a>
</g>
</g>
</g>
</svg>

<g id="navigator" transform="translate(0 0)" fill="#404254">
  <rect fill="#f2f5e9" fill-opacity="0.5" stroke="#606060" stroke-width=".5" x="0" y="0" width="60" height="60"/>
  <use id="zoomplus" xlink:href="#zoomPlus" x="17" y="9" onmousedown="handleZoom(evt,'in')"/>
  <use id="zoomminus" xlink:href="#zoomMin" x="42" y="9" onmousedown="handleZoom(evt,'out')"/>
  <use id="reset" xlink:href="#resetDef" x="30" y="36" onmousedown="handleReset()"/>
   <use id="arrowup" xlink:href="#arrowUp" x="0" y="0" onmousedown="handlePan(0,-1)"/>
  <use id="arrowright" xlink:href="#arrowRight" x="0" y="0" onmousedown="handlePan(1,0)"/>
  <use id="arrowdown" xlink:href="#arrowDown" x="0" y="0" onmousedown="handlePan(0,1)"/>
  <use id="arrowleft" xlink:href="#arrowLeft" x="0" y="0" onmousedown="handlePan(-1,0)"/>
</g>
<svg viewBox="0 0 15 15" width="100%" height="30px" preserveAspectRatio="xMaxYMin meet">
 <g id="arrow_out" transform="scale(0.3 0.3)">
  <a xlink:href="CgiHandler_8cpp__incl_org.svg" target="_base">
   <rect id="button" ry="5" rx="5" y="6" x="6" height="38" width="38"
        fill="#f2f5e9" fill-opacity="0.5" stroke="#606060" stroke-width="1.0"/>
   <path id="arrow"
     d="M 11.500037,31.436501 C 11.940474,20.09759 22.043105,11.32322 32.158766,21.979434 L 37.068811,17.246167 C 37.068811,17.246167 37.088388,32 37.088388,32 L 22.160133,31.978069 C 22.160133,31.978069 26.997745,27.140456 26.997745,27.140456 C 18.528582,18.264221 13.291696,25.230495 11.500037,31.436501 z"
     style="fill:#404040;"/>
  </a>
 </g>
</svg>

<style type='text/css'>
<![CDATA[
[data-mouse-over-selected='false'] { opacity: 0.7; }
[data-mouse-over-selected='true']  { opacity: 1.0; }
]]>
</style>
<script type="application/ecmascript"><![CDATA[
document.addEventListener('DOMContentLoaded', (event) => {
  highlightEdges();
  highlightAdjacentNodes();
});
]]></script>
</svg>
