<?xml version="1.0" encoding="UTF-8" standalone="no"?>
<!DOCTYPE svg PUBLIC "-//W3C//DTD SVG 1.1//EN"
 "http://www.w3.org/Graphics/SVG/1.1/DTD/svg11.dtd">
<!-- Generated by graphviz version 2.43.0 (0)
 -->
<!-- Title: dispatcher/CgiHandler.hpp Pages: 1 -->
<svg width="1237pt" height="247pt"
 viewBox="0.00 0.00 1236.50 247.00" xmlns="http://www.w3.org/2000/svg" xmlns:xlink="http://www.w3.org/1999/xlink">
<g id="graph0" class="graph" transform="scale(1 1) rotate(0) translate(4 243)">
<title>dispatcher/CgiHandler.hpp</title>
<!-- Node1 -->
<g id="Node000001" class="node">
<title>Node1</title>
<g id="a_Node000001"><a xlink:title=" ">
<polygon fill="#999999" stroke="#666666" points="995,-239 850,-239 850,-220 995,-220 995,-239"/>
<text text-anchor="middle" x="922.5" y="-227" font-family="Helvetica,sans-Serif" font-size="10.00">dispatcher/CgiHandler.hpp</text>
</a>
</g>
</g>
<!-- Node2 -->
<g id="Node000002" class="node">
<title>Node2</title>
<g id="a_Node000002"><a xlink:title=" ">
<polygon fill="#e0e0e0" stroke="#999999" points="1028.5,-19 984.5,-19 984.5,0 1028.5,0 1028.5,-19"/>
<text text-anchor="middle" x="1006.5" y="-7" font-family="Helvetica,sans-Serif" font-size="10.00">string</text>
</a>
</g>
</g>
<!-- Node1&#45;&gt;Node2 -->
<g id="edge1_Node000001_Node000002" class="edge">
<title>Node1&#45;&gt;Node2</title>
<g id="a_edge1_Node000001_Node000002"><a xlink:title=" ">
<path fill="none" stroke="#63b8ff" d="M982.51,-219.99C1033.27,-209.02 1101.47,-184.25 1125.5,-129 1146.32,-81.13 1079.8,-42.25 1037.93,-23.21"/>
<polygon fill="#63b8ff" stroke="#63b8ff" points="1039.21,-19.95 1028.65,-19.12 1036.39,-26.35 1039.21,-19.95"/>
</a>
</g>
</g>
<!-- Node3 -->
<g id="Node000003" class="node">
<title>Node3</title>
<g id="a_Node000003"><a xlink:title=" ">
<polygon fill="#e0e0e0" stroke="#999999" points="47,-74 0,-74 0,-55 47,-55 47,-74"/>
<text text-anchor="middle" x="23.5" y="-62" font-family="Helvetica,sans-Serif" font-size="10.00">vector</text>
</a>
</g>
</g>
<!-- Node1&#45;&gt;Node3 -->
<g id="edge2_Node000001_Node000003" class="edge">
<title>Node1&#45;&gt;Node3</title>
<g id="a_edge2_Node000001_Node000003"><a xlink:title=" ">
<path fill="none" stroke="#63b8ff" d="M866.23,-219.97C729.32,-198.9 367.87,-141.31 57.34,-74.04"/>
<polygon fill="#63b8ff" stroke="#63b8ff" points="57.76,-70.55 47.24,-71.84 56.27,-77.39 57.76,-70.55"/>
</a>
</g>
</g>
<!-- Node4 -->
<g id="Node000004" class="node">
<title>Node4</title>
<g id="a_Node000004"><a xlink:title=" ">
<polygon fill="#e0e0e0" stroke="#999999" points="978.5,-74 940.5,-74 940.5,-55 978.5,-55 978.5,-74"/>
<text text-anchor="middle" x="959.5" y="-62" font-family="Helvetica,sans-Serif" font-size="10.00">map</text>
</a>
</g>
</g>
<!-- Node1&#45;&gt;Node4 -->
<g id="edge3_Node000001_Node000004" class="edge">
<title>Node1&#45;&gt;Node4</title>
<g id="a_edge3_Node000001_Node000004"><a xlink:title=" ">
<path fill="none" stroke="#63b8ff" d="M891.39,-219.99C834.42,-202.91 722.82,-161.62 764.5,-110 810.24,-53.35 854.24,-89.76 930.34,-73.9"/>
<polygon fill="#63b8ff" stroke="#63b8ff" points="931.34,-77.25 940.28,-71.56 929.74,-70.44 931.34,-77.25"/>
</a>
</g>
</g>
<!-- Node5 -->
<g id="Node000005" class="node">
<title>Node5</title>
<g id="a_Node000005"><a xlink:title=" ">
<polygon fill="#e0e0e0" stroke="#999999" points="1116.5,-129 1072.5,-129 1072.5,-110 1116.5,-110 1116.5,-129"/>
<text text-anchor="middle" x="1094.5" y="-117" font-family="Helvetica,sans-Serif" font-size="10.00">ctime</text>
</a>
</g>
</g>
<!-- Node1&#45;&gt;Node5 -->
<g id="edge4_Node000001_Node000005" class="edge">
<title>Node1&#45;&gt;Node5</title>
<g id="a_edge4_Node000001_Node000005"><a xlink:title=" ">
<path fill="none" stroke="#63b8ff" d="M961.32,-219.97C986.42,-213.13 1018.87,-201.7 1043.5,-184 1060.66,-171.66 1075.17,-152.08 1084.28,-137.92"/>
<polygon fill="#63b8ff" stroke="#63b8ff" points="1087.42,-139.49 1089.68,-129.14 1081.46,-135.82 1087.42,-139.49"/>
</a>
</g>
</g>
<!-- Node6 -->
<g id="Node000006" class="node">
<title>Node6</title>
<g id="a_Node000006"><a xlink:title=" ">
<polygon fill="#e0e0e0" stroke="#999999" points="1228.5,-184 1172.5,-184 1172.5,-165 1228.5,-165 1228.5,-184"/>
<text text-anchor="middle" x="1200.5" y="-172" font-family="Helvetica,sans-Serif" font-size="10.00">unistd.h</text>
</a>
</g>
</g>
<!-- Node1&#45;&gt;Node6 -->
<g id="edge5_Node000001_Node000006" class="edge">
<title>Node1&#45;&gt;Node6</title>
<g id="a_edge5_Node000001_Node000006"><a xlink:title=" ">
<path fill="none" stroke="#63b8ff" d="M968.66,-219.98C1016.26,-211.16 1092.62,-196.88 1158.5,-184 1159.77,-183.75 1161.07,-183.5 1162.37,-183.24"/>
<polygon fill="#63b8ff" stroke="#63b8ff" points="1163.37,-186.61 1172.5,-181.22 1162,-179.74 1163.37,-186.61"/>
</a>
</g>
</g>
<!-- Node7 -->
<g id="Node000007" class="node">
<title>Node7</title>
<g id="a_Node000007"><a xlink:href="HttpRequest_8hpp.html" target="_top" xlink:title=" ">
<polygon fill="white" stroke="#666666" points="705.5,-129 567.5,-129 567.5,-110 705.5,-110 705.5,-129"/>
<text text-anchor="middle" x="636.5" y="-117" font-family="Helvetica,sans-Serif" font-size="10.00">request/HttpRequest.hpp</text>
</a>
</g>
</g>
<!-- Node1&#45;&gt;Node7 -->
<g id="edge6_Node000001_Node000007" class="edge">
<title>Node1&#45;&gt;Node7</title>
<g id="a_edge6_Node000001_Node000007"><a xlink:title=" ">
<path fill="none" stroke="#63b8ff" d="M860.14,-219.99C821.66,-213.31 771.91,-202.04 730.5,-184 701.8,-171.49 672.49,-150.03 654.4,-135.56"/>
<polygon fill="#63b8ff" stroke="#63b8ff" points="656.43,-132.7 646.47,-129.09 652.01,-138.12 656.43,-132.7"/>
</a>
</g>
</g>
<!-- Node13 -->
<g id="Node000013" class="node">
<title>Node13</title>
<g id="a_Node000013"><a xlink:href="HttpResponse_8hpp.html" target="_top" xlink:title=" ">
<polygon fill="white" stroke="#666666" points="926,-129 773,-129 773,-110 926,-110 926,-129"/>
<text text-anchor="middle" x="849.5" y="-117" font-family="Helvetica,sans-Serif" font-size="10.00">response/HttpResponse.hpp</text>
</a>
</g>
</g>
<!-- Node1&#45;&gt;Node13 -->
<g id="edge16_Node000001_Node000013" class="edge">
<title>Node1&#45;&gt;Node13</title>
<g id="a_edge16_Node000001_Node000013"><a xlink:title=" ">
<path fill="none" stroke="#63b8ff" d="M914.65,-220C906.81,-211.3 894.64,-197.23 885.5,-184 875.27,-169.19 865.31,-151.27 858.47,-138.25"/>
<polygon fill="#63b8ff" stroke="#63b8ff" points="861.4,-136.29 853.71,-129 855.18,-139.5 861.4,-136.29"/>
</a>
</g>
</g>
<!-- Node14 -->
<g id="Node000014" class="node">
<title>Node14</title>
<g id="a_Node000014"><a xlink:href="ClientConnection_8hpp.html" target="_top" xlink:title=" ">
<polygon fill="white" stroke="#666666" points="1034.5,-184 894.5,-184 894.5,-165 1034.5,-165 1034.5,-184"/>
<text text-anchor="middle" x="964.5" y="-172" font-family="Helvetica,sans-Serif" font-size="10.00">init/ClientConnection.hpp</text>
</a>
</g>
</g>
<!-- Node1&#45;&gt;Node14 -->
<g id="edge20_Node000001_Node000014" class="edge">
<title>Node1&#45;&gt;Node14</title>
<g id="a_edge20_Node000001_Node000014"><a xlink:title=" ">
<path fill="none" stroke="#63b8ff" d="M929.44,-219.75C935.37,-212.26 944.07,-201.28 951.32,-192.13"/>
<polygon fill="#63b8ff" stroke="#63b8ff" points="954.23,-194.1 957.69,-184.09 948.74,-189.75 954.23,-194.1"/>
</a>
</g>
</g>
<!-- Node7&#45;&gt;Node2 -->
<g id="edge7_Node000007_Node000002" class="edge">
<title>Node7&#45;&gt;Node2</title>
<g id="a_edge7_Node000007_Node000002"><a xlink:title=" ">
<path fill="none" stroke="#63b8ff" d="M650.47,-109.94C676.12,-94.35 730,-62.26 750.5,-55 827.96,-27.59 924.78,-16.66 974.21,-12.63"/>
<polygon fill="#63b8ff" stroke="#63b8ff" points="974.59,-16.11 984.29,-11.85 974.05,-9.13 974.59,-16.11"/>
</a>
</g>
</g>
<!-- Node7&#45;&gt;Node3 -->
<g id="edge9_Node000007_Node000003" class="edge">
<title>Node7&#45;&gt;Node3</title>
<g id="a_edge9_Node000007_Node000003"><a xlink:title=" ">
<path fill="none" stroke="#63b8ff" d="M567.28,-117.11C459.92,-114.09 246.76,-104.65 57.06,-73.76"/>
<polygon fill="#63b8ff" stroke="#63b8ff" points="57.62,-70.31 47.19,-72.13 56.48,-77.21 57.62,-70.31"/>
</a>
</g>
</g>
<!-- Node7&#45;&gt;Node4 -->
<g id="edge8_Node000007_Node000004" class="edge">
<title>Node7&#45;&gt;Node4</title>
<g id="a_edge8_Node000007_Node000004"><a xlink:title=" ">
<path fill="none" stroke="#63b8ff" d="M705.58,-110.95C763.41,-103.98 848.2,-92.23 930.55,-73.93"/>
<polygon fill="#63b8ff" stroke="#63b8ff" points="931.33,-77.34 940.32,-71.72 929.79,-70.51 931.33,-77.34"/>
</a>
</g>
</g>
<!-- Node8 -->
<g id="Node000008" class="node">
<title>Node8</title>
<g id="a_Node000008"><a xlink:href="RequestMethod_8hpp.html" target="_top" xlink:title=" ">
<polygon fill="white" stroke="#666666" points="702.5,-74 548.5,-74 548.5,-55 702.5,-55 702.5,-74"/>
<text text-anchor="middle" x="625.5" y="-62" font-family="Helvetica,sans-Serif" font-size="10.00">request/RequestMethod.hpp</text>
</a>
</g>
</g>
<!-- Node7&#45;&gt;Node8 -->
<g id="edge10_Node000007_Node000008" class="edge">
<title>Node7&#45;&gt;Node8</title>
<g id="a_edge10_Node000007_Node000008"><a xlink:title=" ">
<path fill="none" stroke="#63b8ff" d="M634.68,-109.75C633.24,-102.8 631.18,-92.85 629.37,-84.13"/>
<polygon fill="#63b8ff" stroke="#63b8ff" points="632.74,-83.17 627.28,-74.09 625.89,-84.59 632.74,-83.17"/>
</a>
</g>
</g>
<!-- Node9 -->
<g id="Node000009" class="node">
<title>Node9</title>
<g id="a_Node000009"><a xlink:href="RequestMeta_8hpp.html" target="_top" xlink:title=" ">
<polygon fill="white" stroke="#666666" points="207.5,-74 65.5,-74 65.5,-55 207.5,-55 207.5,-74"/>
<text text-anchor="middle" x="136.5" y="-62" font-family="Helvetica,sans-Serif" font-size="10.00">request/RequestMeta.hpp</text>
</a>
</g>
</g>
<!-- Node7&#45;&gt;Node9 -->
<g id="edge11_Node000007_Node000009" class="edge">
<title>Node7&#45;&gt;Node9</title>
<g id="a_edge11_Node000007_Node000009"><a xlink:title=" ">
<path fill="none" stroke="#63b8ff" d="M567.38,-111.18C486.26,-102.59 347.37,-87.88 217.71,-74.13"/>
<polygon fill="#63b8ff" stroke="#63b8ff" points="217.91,-70.63 207.6,-73.06 217.17,-77.59 217.91,-70.63"/>
</a>
</g>
</g>
<!-- Node10 -->
<g id="Node000010" class="node">
<title>Node10</title>
<g id="a_Node000010"><a xlink:href="RequestState_8hpp.html" target="_top" xlink:title=" ">
<polygon fill="white" stroke="#666666" points="369,-74 226,-74 226,-55 369,-55 369,-74"/>
<text text-anchor="middle" x="297.5" y="-62" font-family="Helvetica,sans-Serif" font-size="10.00">request/RequestState.hpp</text>
</a>
</g>
</g>
<!-- Node7&#45;&gt;Node10 -->
<g id="edge13_Node000007_Node000010" class="edge">
<title>Node7&#45;&gt;Node10</title>
<g id="a_edge13_Node000007_Node000010"><a xlink:title=" ">
<path fill="none" stroke="#63b8ff" d="M582.03,-109.98C522.07,-100.61 425.75,-85.55 362.05,-75.59"/>
<polygon fill="#63b8ff" stroke="#63b8ff" points="362.53,-72.12 352.11,-74.04 361.45,-79.04 362.53,-72.12"/>
</a>
</g>
</g>
<!-- Node11 -->
<g id="Node000011" class="node">
<title>Node11</title>
<g id="a_Node000011"><a xlink:href="ResponseStatus_8hpp.html" target="_top" xlink:title=" ">
<polygon fill="white" stroke="#666666" points="922,-74 759,-74 759,-55 922,-55 922,-74"/>
<text text-anchor="middle" x="840.5" y="-62" font-family="Helvetica,sans-Serif" font-size="10.00">response/ResponseStatus.hpp</text>
</a>
</g>
</g>
<!-- Node7&#45;&gt;Node11 -->
<g id="edge14_Node000007_Node000011" class="edge">
<title>Node7&#45;&gt;Node11</title>
<g id="a_edge14_Node000007_Node000011"><a xlink:title=" ">
<path fill="none" stroke="#63b8ff" d="M669.28,-109.98C704.12,-100.93 759.37,-86.58 797.64,-76.64"/>
<polygon fill="#63b8ff" stroke="#63b8ff" points="798.67,-79.98 807.47,-74.08 796.91,-73.21 798.67,-79.98"/>
</a>
</g>
</g>
<!-- Node12 -->
<g id="Node000012" class="node">
<title>Node12</title>
<g id="a_Node000012"><a xlink:href="RouteType_8hpp.html" target="_top" xlink:title=" ">
<polygon fill="white" stroke="#666666" points="530,-74 387,-74 387,-55 530,-55 530,-74"/>
<text text-anchor="middle" x="458.5" y="-62" font-family="Helvetica,sans-Serif" font-size="10.00">dispatcher/RouteType.hpp</text>
</a>
</g>
</g>
<!-- Node7&#45;&gt;Node12 -->
<g id="edge15_Node000007_Node000012" class="edge">
<title>Node7&#45;&gt;Node12</title>
<g id="a_edge15_Node000007_Node000012"><a xlink:title=" ">
<path fill="none" stroke="#63b8ff" d="M607.9,-109.98C577.89,-101.05 530.52,-86.94 497.18,-77.02"/>
<polygon fill="#63b8ff" stroke="#63b8ff" points="497.91,-73.58 487.32,-74.08 495.91,-80.29 497.91,-73.58"/>
</a>
</g>
</g>
<!-- Node9&#45;&gt;Node2 -->
<g id="edge12_Node000009_Node000002" class="edge">
<title>Node9&#45;&gt;Node2</title>
<g id="a_edge12_Node000009_Node000002"><a xlink:title=" ">
<path fill="none" stroke="#63b8ff" d="M207.58,-55.76C210.59,-55.49 213.58,-55.24 216.5,-55 510.37,-31.13 866.78,-16 974.3,-11.74"/>
<polygon fill="#63b8ff" stroke="#63b8ff" points="974.63,-15.23 984.48,-11.34 974.35,-8.24 974.63,-15.23"/>
</a>
</g>
</g>
<!-- Node13&#45;&gt;Node2 -->
<g id="edge17_Node000013_Node000002" class="edge">
<title>Node13&#45;&gt;Node2</title>
<g id="a_edge17_Node000013_Node000002"><a xlink:title=" ">
<path fill="none" stroke="#63b8ff" d="M917.95,-109.94C942.72,-103.66 969.1,-92.8 987.5,-74 999.19,-62.06 1003.73,-43.24 1005.47,-29.18"/>
<polygon fill="#63b8ff" stroke="#63b8ff" points="1008.96,-29.42 1006.35,-19.15 1001.99,-28.81 1008.96,-29.42"/>
</a>
</g>
</g>
<!-- Node13&#45;&gt;Node4 -->
<g id="edge18_Node000013_Node000004" class="edge">
<title>Node13&#45;&gt;Node4</title>
<g id="a_edge18_Node000013_Node000004"><a xlink:title=" ">
<path fill="none" stroke="#63b8ff" d="M867.17,-109.98C884.79,-101.5 912.08,-88.35 932.43,-78.54"/>
<polygon fill="#63b8ff" stroke="#63b8ff" points="934.02,-81.66 941.51,-74.17 930.98,-75.36 934.02,-81.66"/>
</a>
</g>
</g>
<!-- Node13&#45;&gt;Node11 -->
<g id="edge19_Node000013_Node000011" class="edge">
<title>Node13&#45;&gt;Node11</title>
<g id="a_edge19_Node000013_Node000011"><a xlink:title=" ">
<path fill="none" stroke="#63b8ff" d="M848.01,-109.75C846.83,-102.8 845.14,-92.85 843.66,-84.13"/>
<polygon fill="#63b8ff" stroke="#63b8ff" points="847.08,-83.36 841.96,-74.09 840.18,-84.53 847.08,-83.36"/>
</a>
</g>
</g>
<!-- Node14&#45;&gt;Node2 -->
<g id="edge21_Node000014_Node000002" class="edge">
<title>Node14&#45;&gt;Node2</title>
<g id="a_edge21_Node000014_Node000002"><a xlink:title=" ">
<path fill="none" stroke="#63b8ff" d="M984.7,-164.91C998.97,-157.64 1017.01,-145.71 1025.5,-129 1042.19,-96.17 1026.77,-52.19 1015.63,-28.1"/>
<polygon fill="#63b8ff" stroke="#63b8ff" points="1018.76,-26.53 1011.23,-19.09 1012.47,-29.61 1018.76,-26.53"/>
</a>
</g>
</g>
<!-- Node14&#45;&gt;Node5 -->
<g id="edge22_Node000014_Node000005" class="edge">
<title>Node14&#45;&gt;Node5</title>
<g id="a_edge22_Node000014_Node000005"><a xlink:title=" ">
<path fill="none" stroke="#63b8ff" d="M985.39,-164.98C1006.58,-156.34 1039.63,-142.87 1063.8,-133.02"/>
<polygon fill="#63b8ff" stroke="#63b8ff" points="1065.29,-136.19 1073.23,-129.17 1062.65,-129.7 1065.29,-136.19"/>
</a>
</g>
</g>
<!-- Node14&#45;&gt;Node7 -->
<g id="edge24_Node000014_Node000007" class="edge">
<title>Node14&#45;&gt;Node7</title>
<g id="a_edge24_Node000014_Node000007"><a xlink:title=" ">
<path fill="none" stroke="#63b8ff" d="M911.8,-164.98C853.91,-155.63 760.97,-140.61 699.33,-130.65"/>
<polygon fill="#63b8ff" stroke="#63b8ff" points="699.77,-127.18 689.34,-129.04 698.65,-134.09 699.77,-127.18"/>
</a>
</g>
</g>
<!-- Node14&#45;&gt;Node13 -->
<g id="edge25_Node000014_Node000013" class="edge">
<title>Node14&#45;&gt;Node13</title>
<g id="a_edge25_Node000014_Node000013"><a xlink:title=" ">
<path fill="none" stroke="#63b8ff" d="M946.02,-164.98C927.52,-156.46 898.82,-143.23 877.52,-133.41"/>
<polygon fill="#63b8ff" stroke="#63b8ff" points="878.86,-130.18 868.31,-129.17 875.93,-136.53 878.86,-130.18"/>
</a>
</g>
</g>
<!-- Node15 -->
<g id="Node000015" class="node">
<title>Node15</title>
<g id="a_Node000015"><a xlink:title=" ">
<polygon fill="#e0e0e0" stroke="#999999" points="1016.5,-129 944.5,-129 944.5,-110 1016.5,-110 1016.5,-129"/>
<text text-anchor="middle" x="980.5" y="-117" font-family="Helvetica,sans-Serif" font-size="10.00">sys/types.h</text>
</a>
</g>
</g>
<!-- Node14&#45;&gt;Node15 -->
<g id="edge23_Node000014_Node000015" class="edge">
<title>Node14&#45;&gt;Node15</title>
<g id="a_edge23_Node000014_Node000015"><a xlink:title=" ">
<path fill="none" stroke="#63b8ff" d="M967.14,-164.75C969.26,-157.72 972.31,-147.62 974.96,-138.84"/>
<polygon fill="#63b8ff" stroke="#63b8ff" points="978.37,-139.67 977.91,-129.09 971.67,-137.65 978.37,-139.67"/>
</a>
</g>
</g>
</g>
</svg>
