<?xml version="1.0" encoding="UTF-8" standalone="no"?>
<!DOCTYPE svg PUBLIC "-//W3C//DTD SVG 1.1//EN"
 "http://www.w3.org/Graphics/SVG/1.1/DTD/svg11.dtd">
<!-- Generated by graphviz version 2.43.0 (0)
 -->
<!-- Title: CgiHandler::startAsync Pages: 1 -->
<!--zoomable 502 -->

<svg id="main" version="1.1" xmlns="http://www.w3.org/2000/svg" xmlns:xlink="http://www.w3.org/1999/xlink" xml:space="preserve" onload="init(evt)">
<style type="text/css"><![CDATA[
.node, .edge {opacity: 0.7;}
.node.selected, .edge.selected {opacity: 1;}
.edge:hover path { stroke: red; }
.edge:hover polygon { stroke: red; fill: red; }
]]></style>

<defs>
  <circle id="rim" cx="0" cy="0" r="7"/>
  <circle id="rim2" cx="0" cy="0" r="3.5"/>
  <g id="zoomPlus">
    <use xlink:href="#rim" fill="#404040"><set attributeName="fill" to="#808080" begin="zoomplus.mouseover" end="zoomplus.mouseout"/></use>
    <path d="M-4,0h8M0,-4v8" fill="none" stroke="white" stroke-width="1.5" pointer-events="none"/>
  </g>
  <g id="zoomMin">
    <use xlink:href="#rim" fill="#404040"><set attributeName="fill" to="#808080" begin="zoomminus.mouseover" end="zoomminus.mouseout"/></use>
    <path d="M-4,0h8" fill="none" stroke="white" stroke-width="1.5" pointer-events="none"/>
  </g>
  <g id="arrowUp" transform="translate(30 24)">
    <use xlink:href="#rim"/>
    <path pointer-events="none" fill="none" stroke="white" stroke-width="1.5" d="M0,-3.0v7 M-2.5,-0.5L0,-3.0L2.5,-0.5"/>
  </g>
  <g id="arrowRight" transform="rotate(90) translate(36 -43)">
    <use xlink:href="#rim"/>
    <path pointer-events="none" fill="none" stroke="white" stroke-width="1.5" d="M0,-3.0v7 M-2.5,-0.5L0,-3.0L2.5,-0.5"/>
  </g>
  <g id="arrowDown" transform="rotate(180) translate(-30 -48)">
    <use xlink:href="#rim"/>
    <path pointer-events="none" fill="none" stroke="white" stroke-width="1.5" d="M0,-3.0v7 M-2.5,-0.5L0,-3.0L2.5,-0.5"/>
  </g>
  <g id="arrowLeft" transform="rotate(270) translate(-36 17)">
    <use xlink:href="#rim"/>
    <path pointer-events="none" fill="none" stroke="white" stroke-width="1.5" d="M0,-3.0v7 M-2.5,-0.5L0,-3.0L2.5,-0.5"/>
  </g>
  <g id="resetDef">
    <use xlink:href="#rim2" fill="#404040"><set attributeName="fill" to="#808080" begin="reset.mouseover" end="reset.mouseout"/></use>
  </g>
</defs>
<script type="application/ecmascript">
var viewWidth = 680;
var viewHeight = 502;
var sectionId = 'dynsection-1';
</script>
<script type="application/ecmascript" xlink:href="svg.min.js"/>
<svg id="graph" class="graph">
<g id="viewport">
<title>CgiHandler::startAsync</title>
<!-- Node1 -->
<g id="Node000001" class="node">
<title>Node1</title>
<g id="a_Node000001"><a xlink:title="Starts an asynchronous CGI execution process.">
<polygon fill="#999999" stroke="#666666" points="128,-151 0,-151 0,-132 128,-132 128,-151"/>
<text text-anchor="middle" x="64" y="-139" font-family="Helvetica,sans-Serif" font-size="10.00">CgiHandler::startAsync</text>
</a>
</g>
</g>
<!-- Node2 -->
<g id="Node000002" class="node">
<title>Node2</title>
<g id="a_Node000002"><a xlink:href="classCgiHandler.html#a61c5a0066d14988001792da45dba2207" target="_top" xlink:title="Builds the CGI environment variables array (envp).">
<polygon fill="white" stroke="#666666" points="301,-301 176,-301 176,-282 301,-282 301,-301"/>
<text text-anchor="middle" x="238.5" y="-289" font-family="Helvetica,sans-Serif" font-size="10.00">CgiHandler::buildEnvp</text>
</a>
</g>
</g>
<!-- Node1&#45;&gt;Node2 -->
<g id="edge1_Node000001_Node000002" class="edge">
<title>Node1&#45;&gt;Node2</title>
<g id="a_edge1_Node000001_Node000002"><a xlink:title=" ">
<path fill="none" stroke="#63b8ff" d="M72.07,-151.21C87.2,-171.52 124.56,-219.18 164,-250.5 177.11,-260.91 193.2,-270.21 206.99,-277.32"/>
<polygon fill="#63b8ff" stroke="#63b8ff" points="205.59,-280.53 216.1,-281.87 208.72,-274.27 205.59,-280.53"/>
</a>
</g>
</g>
<!-- Node9 -->
<g id="Node000009" class="node">
<title>Node9</title>
<g id="a_Node000009"><a xlink:href="classHttpRequest.html#a9cd740d746bcd7fa6e4fcb8c537879ad" target="_top" xlink:title="Returns the resolved filesystem path corresponding to the URI.">
<polygon fill="white" stroke="#666666" points="515.5,-235 350.5,-235 350.5,-216 515.5,-216 515.5,-235"/>
<text text-anchor="middle" x="433" y="-223" font-family="Helvetica,sans-Serif" font-size="10.00">HttpRequest::getResolvedPath</text>
</a>
</g>
</g>
<!-- Node1&#45;&gt;Node9 -->
<g id="edge17_Node000001_Node000009" class="edge">
<title>Node1&#45;&gt;Node9</title>
<g id="a_edge17_Node000001_Node000009"><a xlink:title=" ">
<path fill="none" stroke="#63b8ff" d="M77.28,-151.1C95.19,-164.53 130.08,-188.51 164,-199.5 220.82,-217.91 287.68,-224.42 340.4,-226.32"/>
<polygon fill="#63b8ff" stroke="#63b8ff" points="340.31,-229.82 350.41,-226.63 340.53,-222.82 340.31,-229.82"/>
</a>
</g>
</g>
<!-- Node11 -->
<g id="Node000011" class="node">
<title>Node11</title>
<g id="a_Node000011"><a xlink:href="classLogger.html#a4aa4d7c3b98f6e12e7ea8253da5ea0cd" target="_top" xlink:title="Returns the singleton instance of the Logger.">
<polygon fill="white" stroke="#666666" points="481.5,-198 384.5,-198 384.5,-179 481.5,-179 481.5,-198"/>
<text text-anchor="middle" x="433" y="-186" font-family="Helvetica,sans-Serif" font-size="10.00">Logger::instance</text>
</a>
</g>
</g>
<!-- Node1&#45;&gt;Node11 -->
<g id="edge18_Node000001_Node000011" class="edge">
<title>Node1&#45;&gt;Node11</title>
<g id="a_edge18_Node000001_Node000011"><a xlink:title=" ">
<path fill="none" stroke="#63b8ff" d="M84.15,-151.05C103.68,-160.27 135.13,-173.65 164,-179.5 235.37,-193.97 319.58,-194.12 374.29,-192.04"/>
<polygon fill="#63b8ff" stroke="#63b8ff" points="374.64,-195.53 384.49,-191.62 374.35,-188.54 374.64,-195.53"/>
</a>
</g>
</g>
<!-- Node12 -->
<g id="Node000012" class="node">
<title>Node12</title>
<g id="a_Node000012"><a xlink:href="classLogger.html#a3d3f0801eeaf39b33a906ea8569c19b2" target="_top" xlink:title="Writes a log entry with timestamp, level, and message.">
<polygon fill="white" stroke="#666666" points="468.5,-124 397.5,-124 397.5,-105 468.5,-105 468.5,-124"/>
<text text-anchor="middle" x="433" y="-112" font-family="Helvetica,sans-Serif" font-size="10.00">Logger::log</text>
</a>
</g>
</g>
<!-- Node1&#45;&gt;Node12 -->
<g id="edge19_Node000001_Node000012" class="edge">
<title>Node1&#45;&gt;Node12</title>
<g id="a_edge19_Node000001_Node000012"><a xlink:title=" ">
<path fill="none" stroke="#63b8ff" d="M128.09,-136.86C201.86,-131.43 322.12,-122.58 387.03,-117.81"/>
<polygon fill="#63b8ff" stroke="#63b8ff" points="387.63,-121.27 397.34,-117.05 387.11,-114.29 387.63,-121.27"/>
</a>
</g>
</g>
<!-- Node15 -->
<g id="Node000015" class="node">
<title>Node15</title>
<g id="a_Node000015"><a xlink:href="string__utils_8hpp.html#ad735976365693b45c427000fe042e173" target="_top" xlink:title="Converts any printable type to a string representation.">
<polygon fill="white" stroke="#666666" points="460.5,-161 405.5,-161 405.5,-142 460.5,-142 460.5,-161"/>
<text text-anchor="middle" x="433" y="-149" font-family="Helvetica,sans-Serif" font-size="10.00">toString</text>
</a>
</g>
</g>
<!-- Node1&#45;&gt;Node15 -->
<g id="edge24_Node000001_Node000015" class="edge">
<title>Node1&#45;&gt;Node15</title>
<g id="a_edge24_Node000001_Node000015"><a xlink:title=" ">
<path fill="none" stroke="#63b8ff" d="M128.23,-140.51C178.36,-140.03 250.19,-140 313,-142.5 340.47,-143.59 371.43,-145.97 394.88,-148.01"/>
<polygon fill="#63b8ff" stroke="#63b8ff" points="394.82,-151.52 405.09,-148.91 395.44,-144.54 394.82,-151.52"/>
</a>
</g>
</g>
<!-- Node16 -->
<g id="Node000016" class="node">
<title>Node16</title>
<g id="a_Node000016"><a xlink:href="classCgiHandler.html#a1362c3cab42ae2109c7a3f0d48dcd2ee" target="_top" xlink:title="Frees memory allocated for the environment variable array.">
<polygon fill="white" stroke="#666666" points="298.5,-56 178.5,-56 178.5,-37 298.5,-37 298.5,-56"/>
<text text-anchor="middle" x="238.5" y="-44" font-family="Helvetica,sans-Serif" font-size="10.00">CgiHandler::freeEnvp</text>
</a>
</g>
</g>
<!-- Node1&#45;&gt;Node16 -->
<g id="edge15_Node000001_Node000016" class="edge">
<title>Node1&#45;&gt;Node16</title>
<g id="a_edge15_Node000001_Node000016"><a xlink:title=" ">
<path fill="none" stroke="#63b8ff" d="M75.85,-131.98C93.33,-117.07 129.28,-88.09 164,-70.5 172.44,-66.22 181.81,-62.48 190.95,-59.31"/>
<polygon fill="#63b8ff" stroke="#63b8ff" points="192.33,-62.54 200.73,-56.08 190.13,-55.89 192.33,-62.54"/>
</a>
</g>
</g>
<!-- Node17 -->
<g id="Node000017" class="node">
<title>Node17</title>
<g id="a_Node000017"><a xlink:href="classHttpRequest.html#ab30e8ad147999e3dc043302f81e7fef9" target="_top" xlink:title="Returns the body of the request.">
<polygon fill="white" stroke="#666666" points="300.5,-19 176.5,-19 176.5,0 300.5,0 300.5,-19"/>
<text text-anchor="middle" x="238.5" y="-7" font-family="Helvetica,sans-Serif" font-size="10.00">HttpRequest::getBody</text>
</a>
</g>
</g>
<!-- Node1&#45;&gt;Node17 -->
<g id="edge16_Node000001_Node000017" class="edge">
<title>Node1&#45;&gt;Node17</title>
<g id="a_edge16_Node000001_Node000017"><a xlink:title=" ">
<path fill="none" stroke="#63b8ff" d="M70.52,-131.78C83.64,-109.57 119.03,-54.95 164,-27.5 166.8,-25.79 169.76,-24.24 172.81,-22.84"/>
<polygon fill="#63b8ff" stroke="#63b8ff" points="174.24,-26.04 182.21,-19.06 171.62,-19.55 174.24,-26.04"/>
</a>
</g>
</g>
<!-- Node18 -->
<g id="Node000018" class="node">
<title>Node18</title>
<g id="a_Node000018"><a xlink:href="classSignals.html#a85edf359758a0063dffb46716ba19255" target="_top" xlink:title="Registers a new active CGI process.">
<polygon fill="white" stroke="#666666" points="313,-170 164,-170 164,-151 313,-151 313,-170"/>
<text text-anchor="middle" x="238.5" y="-158" font-family="Helvetica,sans-Serif" font-size="10.00">Signals::registerCgiProcess</text>
</a>
</g>
</g>
<!-- Node1&#45;&gt;Node18 -->
<g id="edge20_Node000001_Node000018" class="edge">
<title>Node1&#45;&gt;Node18</title>
<g id="a_edge20_Node000001_Node000018"><a xlink:title=" ">
<path fill="none" stroke="#63b8ff" d="M128.25,-148.47C136.55,-149.38 145.15,-150.33 153.71,-151.27"/>
<polygon fill="#63b8ff" stroke="#63b8ff" points="153.41,-154.76 163.73,-152.38 154.18,-147.8 153.41,-154.76"/>
</a>
</g>
</g>
<!-- Node3 -->
<g id="Node000003" class="node">
<title>Node3</title>
<g id="a_Node000003"><a xlink:href="classCgiHandler.html#aa896fbfdd2eae9f5b734aa4a3b5a1c6b" target="_top" xlink:title="Extracts PATH_INFO from the original URI following the script name.">
<polygon fill="white" stroke="#666666" points="508.5,-309 357.5,-309 357.5,-290 508.5,-290 508.5,-309"/>
<text text-anchor="middle" x="433" y="-297" font-family="Helvetica,sans-Serif" font-size="10.00">CgiHandler::extractPathInfo</text>
</a>
</g>
</g>
<!-- Node2&#45;&gt;Node3 -->
<g id="edge2_Node000002_Node000003" class="edge">
<title>Node2&#45;&gt;Node3</title>
<g id="a_edge2_Node000002_Node000003"><a xlink:title=" ">
<path fill="none" stroke="#63b8ff" d="M301.2,-294.06C315.82,-294.67 331.66,-295.33 347.1,-295.97"/>
<polygon fill="#63b8ff" stroke="#63b8ff" points="347.04,-299.47 357.18,-296.39 347.33,-292.48 347.04,-299.47"/>
</a>
</g>
</g>
<!-- Node4 -->
<g id="Node000004" class="node">
<title>Node4</title>
<g id="a_Node000004"><a xlink:href="classCgiHandler.html#a7302f3e29ecec992b270f931a809fffd" target="_top" xlink:title="Extracts the script name from a resolved filesystem path.">
<polygon fill="white" stroke="#666666" points="517,-272 349,-272 349,-253 517,-253 517,-272"/>
<text text-anchor="middle" x="433" y="-260" font-family="Helvetica,sans-Serif" font-size="10.00">CgiHandler::extractScriptName</text>
</a>
</g>
</g>
<!-- Node2&#45;&gt;Node4 -->
<g id="edge3_Node000002_Node000004" class="edge">
<title>Node2&#45;&gt;Node4</title>
<g id="a_edge3_Node000002_Node000004"><a xlink:title=" ">
<path fill="none" stroke="#63b8ff" d="M301.2,-282.2C319.47,-279.45 339.66,-276.41 358.59,-273.56"/>
<polygon fill="#63b8ff" stroke="#63b8ff" points="359.3,-276.99 368.66,-272.04 358.25,-270.07 359.3,-276.99"/>
</a>
</g>
</g>
<!-- Node5 -->
<g id="Node000005" class="node">
<title>Node5</title>
<g id="a_Node000005"><a xlink:href="classHttpRequest.html#acf2987d88eeca215f0d1f467166afcd2" target="_top" xlink:title="Returns a const reference to the full headers map.">
<polygon fill="white" stroke="#666666" points="509,-494 357,-494 357,-475 509,-475 509,-494"/>
<text text-anchor="middle" x="433" y="-482" font-family="Helvetica,sans-Serif" font-size="10.00">HttpRequest::getAllHeaders</text>
</a>
</g>
</g>
<!-- Node2&#45;&gt;Node5 -->
<g id="edge4_Node000002_Node000005" class="edge">
<title>Node2&#45;&gt;Node5</title>
<g id="a_edge4_Node000002_Node000005"><a xlink:title=" ">
<path fill="none" stroke="#63b8ff" d="M242.58,-301.36C252.54,-331.47 286.84,-422.81 349,-466.5 351.11,-467.98 353.32,-469.35 355.61,-470.6"/>
<polygon fill="#63b8ff" stroke="#63b8ff" points="354.21,-473.82 364.75,-474.92 357.2,-467.49 354.21,-473.82"/>
</a>
</g>
</g>
<!-- Node6 -->
<g id="Node000006" class="node">
<title>Node6</title>
<g id="a_Node000006"><a xlink:href="classHttpRequest.html#a610ff6d9fe8d0ad21ea2c48c9ee52fca" target="_top" xlink:title="Retrieves a header value by name (case&#45;insensitive).">
<polygon fill="white" stroke="#666666" points="500,-457 366,-457 366,-438 500,-438 500,-457"/>
<text text-anchor="middle" x="433" y="-445" font-family="Helvetica,sans-Serif" font-size="10.00">HttpRequest::getHeader</text>
</a>
</g>
</g>
<!-- Node2&#45;&gt;Node6 -->
<g id="edge5_Node000002_Node000006" class="edge">
<title>Node2&#45;&gt;Node6</title>
<g id="a_edge5_Node000002_Node000006"><a xlink:title=" ">
<path fill="none" stroke="#63b8ff" d="M244.09,-301.05C256.83,-326.46 295.25,-396.04 349,-429.5 351.67,-431.16 354.47,-432.67 357.36,-434.04"/>
<polygon fill="#63b8ff" stroke="#63b8ff" points="356.27,-437.38 366.84,-437.97 358.94,-430.91 356.27,-437.38"/>
</a>
</g>
</g>
<!-- Node8 -->
<g id="Node000008" class="node">
<title>Node8</title>
<g id="a_Node000008"><a xlink:href="classHttpRequest.html#a4f8b5740106c8f1ffb935549cbcb3ec0" target="_top" xlink:title=" ">
<polygon fill="white" stroke="#666666" points="511.5,-420 354.5,-420 354.5,-401 511.5,-401 511.5,-420"/>
<text text-anchor="middle" x="433" y="-408" font-family="Helvetica,sans-Serif" font-size="10.00">HttpRequest::getQueryString</text>
</a>
</g>
</g>
<!-- Node2&#45;&gt;Node8 -->
<g id="edge7_Node000002_Node000008" class="edge">
<title>Node2&#45;&gt;Node8</title>
<g id="a_edge7_Node000002_Node000008"><a xlink:title=" ">
<path fill="none" stroke="#63b8ff" d="M246.82,-301.07C262.91,-321.38 303.56,-368.89 349,-392.5 352.58,-394.36 356.34,-396.03 360.2,-397.52"/>
<polygon fill="#63b8ff" stroke="#63b8ff" points="359.37,-400.94 369.97,-400.9 361.66,-394.32 359.37,-400.94"/>
</a>
</g>
</g>
<!-- Node2&#45;&gt;Node9 -->
<g id="edge8_Node000002_Node000009" class="edge">
<title>Node2&#45;&gt;Node9</title>
<g id="a_edge8_Node000002_Node000009"><a xlink:title=" ">
<path fill="none" stroke="#63b8ff" d="M258.87,-281.92C280.44,-271.55 316.55,-255.08 349,-244.5 356.79,-241.96 365.1,-239.63 373.34,-237.53"/>
<polygon fill="#63b8ff" stroke="#63b8ff" points="374.43,-240.87 383.32,-235.1 372.77,-234.07 374.43,-240.87"/>
</a>
</g>
</g>
<!-- Node10 -->
<g id="Node000010" class="node">
<title>Node10</title>
<g id="a_Node000010"><a xlink:href="classHttpRequest.html#a658d90f4dd4080c30c99c463c082abc8" target="_top" xlink:title=" ">
<polygon fill="white" stroke="#666666" points="489.5,-383 376.5,-383 376.5,-364 489.5,-364 489.5,-383"/>
<text text-anchor="middle" x="433" y="-371" font-family="Helvetica,sans-Serif" font-size="10.00">HttpRequest::getUri</text>
</a>
</g>
</g>
<!-- Node2&#45;&gt;Node10 -->
<g id="edge9_Node000002_Node000010" class="edge">
<title>Node2&#45;&gt;Node10</title>
<g id="a_edge9_Node000002_Node000010"><a xlink:title=" ">
<path fill="none" stroke="#63b8ff" d="M252.63,-301.04C272.5,-315.04 311.86,-341.04 349,-355.5 354.55,-357.66 360.41,-359.58 366.34,-361.3"/>
<polygon fill="#63b8ff" stroke="#63b8ff" points="365.8,-364.77 376.37,-363.98 367.61,-358.01 365.8,-364.77"/>
</a>
</g>
</g>
<!-- Node2&#45;&gt;Node11 -->
<g id="edge10_Node000002_Node000011" class="edge">
<title>Node2&#45;&gt;Node11</title>
<g id="a_edge10_Node000002_Node000011"><a xlink:title=" ">
<path fill="none" stroke="#63b8ff" d="M249.08,-281.77C267.02,-264.15 307.59,-226.98 349,-207.5 356.97,-203.75 365.72,-200.72 374.47,-198.27"/>
<polygon fill="#63b8ff" stroke="#63b8ff" points="375.48,-201.63 384.29,-195.75 373.74,-194.84 375.48,-201.63"/>
</a>
</g>
</g>
<!-- Node2&#45;&gt;Node12 -->
<g id="edge11_Node000002_Node000012" class="edge">
<title>Node2&#45;&gt;Node12</title>
<g id="a_edge11_Node000002_Node000012"><a xlink:title=" ">
<path fill="none" stroke="#63b8ff" d="M245.83,-281.97C268.04,-248.57 341.5,-138.57 349,-133.5 360.32,-125.84 374.28,-121.24 387.51,-118.48"/>
<polygon fill="#63b8ff" stroke="#63b8ff" points="388.19,-121.91 397.42,-116.71 386.96,-115.02 388.19,-121.91"/>
</a>
</g>
</g>
<!-- Node14 -->
<g id="Node000014" class="node">
<title>Node14</title>
<g id="a_Node000014"><a xlink:href="classHttpRequest.html#afc9f6c2f9359ab0cec281221d9e7e25f" target="_top" xlink:title="Converts the HTTP method enum to its string representation.">
<polygon fill="white" stroke="#666666" points="513,-346 353,-346 353,-327 513,-327 513,-346"/>
<text text-anchor="middle" x="433" y="-334" font-family="Helvetica,sans-Serif" font-size="10.00">HttpRequest::methodToString</text>
</a>
</g>
</g>
<!-- Node2&#45;&gt;Node14 -->
<g id="edge13_Node000002_Node000014" class="edge">
<title>Node2&#45;&gt;Node14</title>
<g id="a_edge13_Node000002_Node000014"><a xlink:title=" ">
<path fill="none" stroke="#63b8ff" d="M276.94,-301.01C298.06,-306.3 324.97,-312.93 349,-318.5 357.97,-320.58 367.5,-322.71 376.78,-324.75"/>
<polygon fill="#63b8ff" stroke="#63b8ff" points="376.2,-328.21 386.72,-326.92 377.69,-321.37 376.2,-328.21"/>
</a>
</g>
</g>
<!-- Node2&#45;&gt;Node15 -->
<g id="edge14_Node000002_Node000015" class="edge">
<title>Node2&#45;&gt;Node15</title>
<g id="a_edge14_Node000002_Node000015"><a xlink:title=" ">
<path fill="none" stroke="#63b8ff" d="M245.26,-281.83C259.6,-258.63 299.38,-199.58 349,-170.5 362.99,-162.3 380.23,-157.64 395.36,-154.99"/>
<polygon fill="#63b8ff" stroke="#63b8ff" points="396.08,-158.42 405.44,-153.46 395.03,-151.5 396.08,-158.42"/>
</a>
</g>
</g>
<!-- Node7 -->
<g id="Node000007" class="node">
<title>Node7</title>
<g id="a_Node000007"><a xlink:href="string__utils_8hpp.html#a96432d89bc886bc9cdd1d73f86b2bbca" target="_top" xlink:title="Converts a string to lowercase.">
<polygon fill="white" stroke="#666666" points="640.5,-457 584.5,-457 584.5,-438 640.5,-438 640.5,-457"/>
<text text-anchor="middle" x="612.5" y="-445" font-family="Helvetica,sans-Serif" font-size="10.00">toLower</text>
</a>
</g>
</g>
<!-- Node6&#45;&gt;Node7 -->
<g id="edge6_Node000006_Node000007" class="edge">
<title>Node6&#45;&gt;Node7</title>
<g id="a_edge6_Node000006_Node000007"><a xlink:title=" ">
<path fill="none" stroke="#63b8ff" d="M500.09,-447.5C525.17,-447.5 552.83,-447.5 574.31,-447.5"/>
<polygon fill="#63b8ff" stroke="#63b8ff" points="574.32,-451 584.32,-447.5 574.32,-444 574.32,-451"/>
</a>
</g>
</g>
<!-- Node13 -->
<g id="Node000013" class="node">
<title>Node13</title>
<g id="a_Node000013"><a xlink:href="classLogger.html#a19f9ef22095a67c9fe420c9d6e761fc2" target="_top" xlink:title="Converts a LogLevel enum value to its string label.">
<polygon fill="white" stroke="#666666" points="672,-124 553,-124 553,-105 672,-105 672,-124"/>
<text text-anchor="middle" x="612.5" y="-112" font-family="Helvetica,sans-Serif" font-size="10.00">Logger::levelToString</text>
</a>
</g>
</g>
<!-- Node12&#45;&gt;Node13 -->
<g id="edge12_Node000012_Node000013" class="edge">
<title>Node12&#45;&gt;Node13</title>
<g id="a_edge12_Node000012_Node000013"><a xlink:title=" ">
<path fill="none" stroke="#63b8ff" d="M468.65,-114.5C489.66,-114.5 517.22,-114.5 542.52,-114.5"/>
<polygon fill="#63b8ff" stroke="#63b8ff" points="542.83,-118 552.83,-114.5 542.83,-111 542.83,-118"/>
</a>
</g>
</g>
<!-- Node18&#45;&gt;Node11 -->
<g id="edge21_Node000018_Node000011" class="edge">
<title>Node18&#45;&gt;Node11</title>
<g id="a_edge21_Node000018_Node000011"><a xlink:title=" ">
<path fill="none" stroke="#63b8ff" d="M304.94,-170.02C327.43,-173.29 352.43,-176.93 374.26,-180.1"/>
<polygon fill="#63b8ff" stroke="#63b8ff" points="373.97,-183.6 384.37,-181.57 374.98,-176.67 373.97,-183.6"/>
</a>
</g>
</g>
<!-- Node18&#45;&gt;Node12 -->
<g id="edge22_Node000018_Node000012" class="edge">
<title>Node18&#45;&gt;Node12</title>
<g id="a_edge22_Node000018_Node000012"><a xlink:title=" ">
<path fill="none" stroke="#63b8ff" d="M277.47,-150.97C298.52,-145.73 325.19,-139.16 349,-133.5 361.36,-130.56 374.77,-127.46 387.14,-124.62"/>
<polygon fill="#63b8ff" stroke="#63b8ff" points="388.27,-127.96 397.24,-122.32 386.71,-121.13 388.27,-127.96"/>
</a>
</g>
</g>
<!-- Node18&#45;&gt;Node15 -->
<g id="edge23_Node000018_Node000015" class="edge">
<title>Node18&#45;&gt;Node15</title>
<g id="a_edge23_Node000018_Node000015"><a xlink:title=" ">
<path fill="none" stroke="#63b8ff" d="M313.1,-157.06C341.08,-155.75 371.77,-154.32 394.96,-153.23"/>
<polygon fill="#63b8ff" stroke="#63b8ff" points="395.22,-156.72 405.05,-152.76 394.9,-149.73 395.22,-156.72"/>
</a>
</g>
</g>
</g>
</svg>

<g id="navigator" transform="translate(0 0)" fill="#404254">
  <rect fill="#f2f5e9" fill-opacity="0.5" stroke="#606060" stroke-width=".5" x="0" y="0" width="60" height="60"/>
  <use id="zoomplus" xlink:href="#zoomPlus" x="17" y="9" onmousedown="handleZoom(evt,'in')"/>
  <use id="zoomminus" xlink:href="#zoomMin" x="42" y="9" onmousedown="handleZoom(evt,'out')"/>
  <use id="reset" xlink:href="#resetDef" x="30" y="36" onmousedown="handleReset()"/>
   <use id="arrowup" xlink:href="#arrowUp" x="0" y="0" onmousedown="handlePan(0,-1)"/>
  <use id="arrowright" xlink:href="#arrowRight" x="0" y="0" onmousedown="handlePan(1,0)"/>
  <use id="arrowdown" xlink:href="#arrowDown" x="0" y="0" onmousedown="handlePan(0,1)"/>
  <use id="arrowleft" xlink:href="#arrowLeft" x="0" y="0" onmousedown="handlePan(-1,0)"/>
</g>
<svg viewBox="0 0 15 15" width="100%" height="30px" preserveAspectRatio="xMaxYMin meet">
 <g id="arrow_out" transform="scale(0.3 0.3)">
  <a xlink:href="classCgiHandler_aa5b570b370a65926aaedd54b61350e58_cgraph_org.svg" target="_base">
   <rect id="button" ry="5" rx="5" y="6" x="6" height="38" width="38"
        fill="#f2f5e9" fill-opacity="0.5" stroke="#606060" stroke-width="1.0"/>
   <path id="arrow"
     d="M 11.500037,31.436501 C 11.940474,20.09759 22.043105,11.32322 32.158766,21.979434 L 37.068811,17.246167 C 37.068811,17.246167 37.088388,32 37.088388,32 L 22.160133,31.978069 C 22.160133,31.978069 26.997745,27.140456 26.997745,27.140456 C 18.528582,18.264221 13.291696,25.230495 11.500037,31.436501 z"
     style="fill:#404040;"/>
  </a>
 </g>
</svg>

<style type='text/css'>
<![CDATA[
[data-mouse-over-selected='false'] { opacity: 0.7; }
[data-mouse-over-selected='true']  { opacity: 1.0; }
]]>
</style>
<script type="application/ecmascript"><![CDATA[
document.addEventListener('DOMContentLoaded', (event) => {
  highlightEdges();
  highlightAdjacentNodes();
});
]]></script>
</svg>
