<?xml version="1.0" encoding="UTF-8" standalone="no"?>
<!DOCTYPE svg PUBLIC "-//W3C//DTD SVG 1.1//EN"
 "http://www.w3.org/Graphics/SVG/1.1/DTD/svg11.dtd">
<!-- Generated by graphviz version 2.43.0 (0)
 -->
<!-- Title: WebServer::startServer Pages: 1 -->
<!--zoomable 270 -->

<svg id="main" version="1.1" xmlns="http://www.w3.org/2000/svg" xmlns:xlink="http://www.w3.org/1999/xlink" xml:space="preserve" onload="init(evt)">
<style type="text/css"><![CDATA[
.node, .edge {opacity: 0.7;}
.node.selected, .edge.selected {opacity: 1;}
.edge:hover path { stroke: red; }
.edge:hover polygon { stroke: red; fill: red; }
]]></style>

<defs>
  <circle id="rim" cx="0" cy="0" r="7"/>
  <circle id="rim2" cx="0" cy="0" r="3.5"/>
  <g id="zoomPlus">
    <use xlink:href="#rim" fill="#404040"><set attributeName="fill" to="#808080" begin="zoomplus.mouseover" end="zoomplus.mouseout"/></use>
    <path d="M-4,0h8M0,-4v8" fill="none" stroke="white" stroke-width="1.5" pointer-events="none"/>
  </g>
  <g id="zoomMin">
    <use xlink:href="#rim" fill="#404040"><set attributeName="fill" to="#808080" begin="zoomminus.mouseover" end="zoomminus.mouseout"/></use>
    <path d="M-4,0h8" fill="none" stroke="white" stroke-width="1.5" pointer-events="none"/>
  </g>
  <g id="arrowUp" transform="translate(30 24)">
    <use xlink:href="#rim"/>
    <path pointer-events="none" fill="none" stroke="white" stroke-width="1.5" d="M0,-3.0v7 M-2.5,-0.5L0,-3.0L2.5,-0.5"/>
  </g>
  <g id="arrowRight" transform="rotate(90) translate(36 -43)">
    <use xlink:href="#rim"/>
    <path pointer-events="none" fill="none" stroke="white" stroke-width="1.5" d="M0,-3.0v7 M-2.5,-0.5L0,-3.0L2.5,-0.5"/>
  </g>
  <g id="arrowDown" transform="rotate(180) translate(-30 -48)">
    <use xlink:href="#rim"/>
    <path pointer-events="none" fill="none" stroke="white" stroke-width="1.5" d="M0,-3.0v7 M-2.5,-0.5L0,-3.0L2.5,-0.5"/>
  </g>
  <g id="arrowLeft" transform="rotate(270) translate(-36 17)">
    <use xlink:href="#rim"/>
    <path pointer-events="none" fill="none" stroke="white" stroke-width="1.5" d="M0,-3.0v7 M-2.5,-0.5L0,-3.0L2.5,-0.5"/>
  </g>
  <g id="resetDef">
    <use xlink:href="#rim2" fill="#404040"><set attributeName="fill" to="#808080" begin="reset.mouseover" end="reset.mouseout"/></use>
  </g>
</defs>
<script type="application/ecmascript">
var viewWidth = 634;
var viewHeight = 270;
var sectionId = 'dynsection-6';
</script>
<script type="application/ecmascript" xlink:href="svg.min.js"/>
<svg id="graph" class="graph">
<g id="viewport">
<title>WebServer::startServer</title>
<!-- Node1 -->
<g id="Node000001" class="node">
<title>Node1</title>
<g id="a_Node000001"><a xlink:title="Initializes and binds all listening sockets defined in the configuration.">
<polygon fill="#999999" stroke="#666666" points="129,-131 0,-131 0,-112 129,-112 129,-131"/>
<text text-anchor="middle" x="64.5" y="-119" font-family="Helvetica,sans-Serif" font-size="10.00">WebServer::startServer</text>
</a>
</g>
</g>
<!-- Node2 -->
<g id="Node000002" class="node">
<title>Node2</title>
<g id="a_Node000002"><a xlink:href="classWebServer.html#aa387a01e97d57072be5c5be3955136f8" target="_top" xlink:title="Adds a file descriptor to the monitored poll vector.">
<polygon fill="white" stroke="#666666" points="319,-262 184,-262 184,-243 319,-243 319,-262"/>
<text text-anchor="middle" x="251.5" y="-250" font-family="Helvetica,sans-Serif" font-size="10.00">WebServer::addToPollFD</text>
</a>
</g>
</g>
<!-- Node1&#45;&gt;Node2 -->
<g id="edge1_Node000001_Node000002" class="edge">
<title>Node1&#45;&gt;Node2</title>
<g id="a_edge1_Node000001_Node000002"><a xlink:title=" ">
<path fill="none" stroke="#63b8ff" d="M71.02,-131.24C84.16,-153.46 119.62,-208.02 165,-234.5 168.04,-236.27 171.23,-237.87 174.52,-239.32"/>
<polygon fill="#63b8ff" stroke="#63b8ff" points="173.42,-242.64 184.01,-242.98 175.95,-236.12 173.42,-242.64"/>
</a>
</g>
</g>
<!-- Node3 -->
<g id="Node000003" class="node">
<title>Node3</title>
<g id="a_Node000003"><a xlink:href="classServerSocket.html#a43152f52de5e7f2ec6d64148f65cd8df" target="_top" xlink:title="Returns the socket file descriptor.">
<polygon fill="white" stroke="#666666" points="309.5,-225 193.5,-225 193.5,-206 309.5,-206 309.5,-225"/>
<text text-anchor="middle" x="251.5" y="-213" font-family="Helvetica,sans-Serif" font-size="10.00">ServerSocket::getFD</text>
</a>
</g>
</g>
<!-- Node1&#45;&gt;Node3 -->
<g id="edge2_Node000001_Node000003" class="edge">
<title>Node1&#45;&gt;Node3</title>
<g id="a_edge2_Node000001_Node000003"><a xlink:title=" ">
<path fill="none" stroke="#63b8ff" d="M74.97,-131.13C91.6,-147.46 127.85,-180.47 165,-197.5 170.79,-200.16 176.98,-202.42 183.29,-204.36"/>
<polygon fill="#63b8ff" stroke="#63b8ff" points="182.68,-207.82 193.25,-207.14 184.56,-201.08 182.68,-207.82"/>
</a>
</g>
</g>
<!-- Node4 -->
<g id="Node000004" class="node">
<title>Node4</title>
<g id="a_Node000004"><a xlink:href="classConfig.html#a24ebc439c8d121c496563c6571b03747" target="_top" xlink:title="Returns the list of all parsed server configurations.">
<polygon fill="white" stroke="#666666" points="317,-188 186,-188 186,-169 317,-169 317,-188"/>
<text text-anchor="middle" x="251.5" y="-176" font-family="Helvetica,sans-Serif" font-size="10.00">Config::getServerConfig</text>
</a>
</g>
</g>
<!-- Node1&#45;&gt;Node4 -->
<g id="edge3_Node000001_Node000004" class="edge">
<title>Node1&#45;&gt;Node4</title>
<g id="a_edge3_Node000001_Node000004"><a xlink:title=" ">
<path fill="none" stroke="#63b8ff" d="M93.27,-131.09C113.16,-137.87 140.64,-147.04 165,-154.5 178.04,-158.49 192.28,-162.59 205.33,-166.24"/>
<polygon fill="#63b8ff" stroke="#63b8ff" points="204.46,-169.64 215.03,-168.94 206.34,-162.89 204.46,-169.64"/>
</a>
</g>
</g>
<!-- Node5 -->
<g id="Node000005" class="node">
<title>Node5</title>
<g id="a_Node000005"><a xlink:href="classLogger.html#a4aa4d7c3b98f6e12e7ea8253da5ea0cd" target="_top" xlink:title="Returns the singleton instance of the Logger.">
<polygon fill="white" stroke="#666666" points="471,-112 374,-112 374,-93 471,-93 471,-112"/>
<text text-anchor="middle" x="422.5" y="-100" font-family="Helvetica,sans-Serif" font-size="10.00">Logger::instance</text>
</a>
</g>
</g>
<!-- Node1&#45;&gt;Node5 -->
<g id="edge4_Node000001_Node000005" class="edge">
<title>Node1&#45;&gt;Node5</title>
<g id="a_edge4_Node000001_Node000005"><a xlink:title=" ">
<path fill="none" stroke="#63b8ff" d="M129.04,-125.5C184.42,-128.03 266.77,-129.5 338,-121.5 351.06,-120.03 365.05,-117.31 377.78,-114.38"/>
<polygon fill="#63b8ff" stroke="#63b8ff" points="378.76,-117.75 387.67,-112.01 377.13,-110.94 378.76,-117.75"/>
</a>
</g>
</g>
<!-- Node6 -->
<g id="Node000006" class="node">
<title>Node6</title>
<g id="a_Node000006"><a xlink:href="classServerSocket.html#a26897d739a95f0968b7b6085f99cca01" target="_top" xlink:title="Starts listening for incoming client connections.">
<polygon fill="white" stroke="#666666" points="338,-75 165,-75 165,-56 338,-56 338,-75"/>
<text text-anchor="middle" x="251.5" y="-63" font-family="Helvetica,sans-Serif" font-size="10.00">ServerSocket::listenConnections</text>
</a>
</g>
</g>
<!-- Node1&#45;&gt;Node6 -->
<g id="edge5_Node000001_Node000006" class="edge">
<title>Node1&#45;&gt;Node6</title>
<g id="a_edge5_Node000001_Node000006"><a xlink:title=" ">
<path fill="none" stroke="#63b8ff" d="M88.52,-111.91C108.49,-103.84 138.31,-92.39 165,-84.5 173.78,-81.9 183.16,-79.48 192.38,-77.29"/>
<polygon fill="#63b8ff" stroke="#63b8ff" points="193.31,-80.66 202.27,-75 191.74,-73.84 193.31,-80.66"/>
</a>
</g>
</g>
<!-- Node7 -->
<g id="Node000007" class="node">
<title>Node7</title>
<g id="a_Node000007"><a xlink:href="classLogger.html#a3d3f0801eeaf39b33a906ea8569c19b2" target="_top" xlink:title="Writes a log entry with timestamp, level, and message.">
<polygon fill="white" stroke="#666666" points="458,-75 387,-75 387,-56 458,-56 458,-75"/>
<text text-anchor="middle" x="422.5" y="-63" font-family="Helvetica,sans-Serif" font-size="10.00">Logger::log</text>
</a>
</g>
</g>
<!-- Node1&#45;&gt;Node7 -->
<g id="edge10_Node000001_Node000007" class="edge">
<title>Node1&#45;&gt;Node7</title>
<g id="a_edge10_Node000001_Node000007"><a xlink:title=" ">
<path fill="none" stroke="#63b8ff" d="M74.19,-111.84C90.17,-94.89 126.17,-60.36 165,-47.5 238.1,-23.3 329.15,-39.88 380.77,-53.28"/>
<polygon fill="#63b8ff" stroke="#63b8ff" points="379.98,-56.69 390.55,-55.9 381.8,-49.93 379.98,-56.69"/>
</a>
</g>
</g>
<!-- Node9 -->
<g id="Node000009" class="node">
<title>Node9</title>
<g id="a_Node000009"><a xlink:href="string__utils_8hpp.html#ad735976365693b45c427000fe042e173" target="_top" xlink:title="Converts any printable type to a string representation.">
<polygon fill="white" stroke="#666666" points="450,-19 395,-19 395,0 450,0 450,-19"/>
<text text-anchor="middle" x="422.5" y="-7" font-family="Helvetica,sans-Serif" font-size="10.00">toString</text>
</a>
</g>
</g>
<!-- Node1&#45;&gt;Node9 -->
<g id="edge14_Node000001_Node000009" class="edge">
<title>Node1&#45;&gt;Node9</title>
<g id="a_edge14_Node000001_Node000009"><a xlink:title=" ">
<path fill="none" stroke="#63b8ff" d="M72.4,-111.87C86.96,-92.44 122.94,-48.84 165,-30.5 237.8,1.25 333.17,-0.97 384.66,-5.29"/>
<polygon fill="#63b8ff" stroke="#63b8ff" points="384.38,-8.78 394.66,-6.2 385.02,-1.81 384.38,-8.78"/>
</a>
</g>
</g>
<!-- Node10 -->
<g id="Node000010" class="node">
<title>Node10</title>
<g id="a_Node000010"><a xlink:href="classServerSocket.html#aecddb79578f1dc829bf97572291a1b2b" target="_top" xlink:title="Creates, binds, and configures a non&#45;blocking server socket.">
<polygon fill="white" stroke="#666666" points="322,-112 181,-112 181,-93 322,-93 322,-112"/>
<text text-anchor="middle" x="251.5" y="-100" font-family="Helvetica,sans-Serif" font-size="10.00">ServerSocket::startSocket</text>
</a>
</g>
</g>
<!-- Node1&#45;&gt;Node10 -->
<g id="edge11_Node000001_Node000010" class="edge">
<title>Node1&#45;&gt;Node10</title>
<g id="a_edge11_Node000001_Node000010"><a xlink:title=" ">
<path fill="none" stroke="#63b8ff" d="M129.17,-114.96C142.54,-113.59 156.81,-112.12 170.68,-110.7"/>
<polygon fill="#63b8ff" stroke="#63b8ff" points="171.11,-114.17 180.7,-109.67 170.4,-107.21 171.11,-114.17"/>
</a>
</g>
</g>
<!-- Node6&#45;&gt;Node5 -->
<g id="edge6_Node000006_Node000005" class="edge">
<title>Node6&#45;&gt;Node5</title>
<g id="a_edge6_Node000006_Node000005"><a xlink:title=" ">
<path fill="none" stroke="#63b8ff" d="M296.02,-75.03C317.92,-79.82 344.65,-85.68 367.81,-90.75"/>
<polygon fill="#63b8ff" stroke="#63b8ff" points="367.32,-94.22 377.83,-92.94 368.81,-87.38 367.32,-94.22"/>
</a>
</g>
</g>
<!-- Node6&#45;&gt;Node7 -->
<g id="edge7_Node000006_Node000007" class="edge">
<title>Node6&#45;&gt;Node7</title>
<g id="a_edge7_Node000006_Node000007"><a xlink:title=" ">
<path fill="none" stroke="#63b8ff" d="M338.49,-65.5C351.73,-65.5 364.92,-65.5 376.77,-65.5"/>
<polygon fill="#63b8ff" stroke="#63b8ff" points="376.8,-69 386.8,-65.5 376.8,-62 376.8,-69"/>
</a>
</g>
</g>
<!-- Node6&#45;&gt;Node9 -->
<g id="edge9_Node000006_Node000009" class="edge">
<title>Node6&#45;&gt;Node9</title>
<g id="a_edge9_Node000006_Node000009"><a xlink:title=" ">
<path fill="none" stroke="#63b8ff" d="M281.55,-55.87C310.25,-46.36 354.23,-31.79 385.21,-21.53"/>
<polygon fill="#63b8ff" stroke="#63b8ff" points="386.38,-24.82 394.77,-18.36 384.18,-18.18 386.38,-24.82"/>
</a>
</g>
</g>
<!-- Node8 -->
<g id="Node000008" class="node">
<title>Node8</title>
<g id="a_Node000008"><a xlink:href="classLogger.html#a19f9ef22095a67c9fe420c9d6e761fc2" target="_top" xlink:title="Converts a LogLevel enum value to its string label.">
<polygon fill="white" stroke="#666666" points="626,-75 507,-75 507,-56 626,-56 626,-75"/>
<text text-anchor="middle" x="566.5" y="-63" font-family="Helvetica,sans-Serif" font-size="10.00">Logger::levelToString</text>
</a>
</g>
</g>
<!-- Node7&#45;&gt;Node8 -->
<g id="edge8_Node000007_Node000008" class="edge">
<title>Node7&#45;&gt;Node8</title>
<g id="a_edge8_Node000007_Node000008"><a xlink:title=" ">
<path fill="none" stroke="#63b8ff" d="M458.24,-65.5C469.88,-65.5 483.31,-65.5 496.63,-65.5"/>
<polygon fill="#63b8ff" stroke="#63b8ff" points="496.77,-69 506.77,-65.5 496.77,-62 496.77,-69"/>
</a>
</g>
</g>
<!-- Node10&#45;&gt;Node5 -->
<g id="edge12_Node000010_Node000005" class="edge">
<title>Node10&#45;&gt;Node5</title>
<g id="a_edge12_Node000010_Node000005"><a xlink:title=" ">
<path fill="none" stroke="#63b8ff" d="M322.21,-102.5C336.05,-102.5 350.44,-102.5 363.82,-102.5"/>
<polygon fill="#63b8ff" stroke="#63b8ff" points="363.84,-106 373.84,-102.5 363.84,-99 363.84,-106"/>
</a>
</g>
</g>
<!-- Node10&#45;&gt;Node7 -->
<g id="edge13_Node000010_Node000007" class="edge">
<title>Node10&#45;&gt;Node7</title>
<g id="a_edge13_Node000010_Node000007"><a xlink:title=" ">
<path fill="none" stroke="#63b8ff" d="M298.68,-92.92C311.43,-90.24 325.26,-87.29 338,-84.5 350.72,-81.71 364.51,-78.61 377.15,-75.73"/>
<polygon fill="#63b8ff" stroke="#63b8ff" points="378.03,-79.12 387,-73.48 376.47,-72.3 378.03,-79.12"/>
</a>
</g>
</g>
</g>
</svg>

<g id="navigator" transform="translate(0 0)" fill="#404254">
  <rect fill="#f2f5e9" fill-opacity="0.5" stroke="#606060" stroke-width=".5" x="0" y="0" width="60" height="60"/>
  <use id="zoomplus" xlink:href="#zoomPlus" x="17" y="9" onmousedown="handleZoom(evt,'in')"/>
  <use id="zoomminus" xlink:href="#zoomMin" x="42" y="9" onmousedown="handleZoom(evt,'out')"/>
  <use id="reset" xlink:href="#resetDef" x="30" y="36" onmousedown="handleReset()"/>
   <use id="arrowup" xlink:href="#arrowUp" x="0" y="0" onmousedown="handlePan(0,-1)"/>
  <use id="arrowright" xlink:href="#arrowRight" x="0" y="0" onmousedown="handlePan(1,0)"/>
  <use id="arrowdown" xlink:href="#arrowDown" x="0" y="0" onmousedown="handlePan(0,1)"/>
  <use id="arrowleft" xlink:href="#arrowLeft" x="0" y="0" onmousedown="handlePan(-1,0)"/>
</g>
<svg viewBox="0 0 15 15" width="100%" height="30px" preserveAspectRatio="xMaxYMin meet">
 <g id="arrow_out" transform="scale(0.3 0.3)">
  <a xlink:href="classWebServer_aaa47870e992fde48631172d73babbe92_cgraph_org.svg" target="_base">
   <rect id="button" ry="5" rx="5" y="6" x="6" height="38" width="38"
        fill="#f2f5e9" fill-opacity="0.5" stroke="#606060" stroke-width="1.0"/>
   <path id="arrow"
     d="M 11.500037,31.436501 C 11.940474,20.09759 22.043105,11.32322 32.158766,21.979434 L 37.068811,17.246167 C 37.068811,17.246167 37.088388,32 37.088388,32 L 22.160133,31.978069 C 22.160133,31.978069 26.997745,27.140456 26.997745,27.140456 C 18.528582,18.264221 13.291696,25.230495 11.500037,31.436501 z"
     style="fill:#404040;"/>
  </a>
 </g>
</svg>

<style type='text/css'>
<![CDATA[
[data-mouse-over-selected='false'] { opacity: 0.7; }
[data-mouse-over-selected='true']  { opacity: 1.0; }
]]>
</style>
<script type="application/ecmascript"><![CDATA[
document.addEventListener('DOMContentLoaded', (event) => {
  highlightEdges();
  highlightAdjacentNodes();
});
]]></script>
</svg>
