<?xml version="1.0" encoding="UTF-8" standalone="no"?>
<!DOCTYPE svg PUBLIC "-//W3C//DTD SVG 1.1//EN"
 "http://www.w3.org/Graphics/SVG/1.1/DTD/svg11.dtd">
<!-- Generated by graphviz version 2.43.0 (0)
 -->
<!-- Title: AutoIndexHandler::handle Pages: 1 -->
<svg width="745pt" height="446pt"
 viewBox="0.00 0.00 745.00 446.00" xmlns="http://www.w3.org/2000/svg" xmlns:xlink="http://www.w3.org/1999/xlink">
<g id="graph0" class="graph" transform="scale(1 1) rotate(0) translate(4 442)">
<title>AutoIndexHandler::handle</title>
<!-- Node1 -->
<g id="Node000001" class="node">
<title>Node1</title>
<g id="a_Node000001"><a xlink:title="Generates and serves a fully hardcoded HTML directory listing.">
<polygon fill="#999999" stroke="#666666" points="143,-234 0,-234 0,-215 143,-215 143,-234"/>
<text text-anchor="middle" x="71.5" y="-222" font-family="Helvetica,sans-Serif" font-size="10.00">AutoIndexHandler::handle</text>
</a>
</g>
</g>
<!-- Node2 -->
<g id="Node000002" class="node">
<title>Node2</title>
<g id="a_Node000002"><a xlink:href="classHttpResponse.html#abb032c16ad3961d50a6582c50c330581" target="_top" xlink:title="Adds a header field to the HTTP response.">
<polygon fill="white" stroke="#666666" points="333.5,-438 189.5,-438 189.5,-419 333.5,-419 333.5,-438"/>
<text text-anchor="middle" x="261.5" y="-426" font-family="Helvetica,sans-Serif" font-size="10.00">HttpResponse::addHeader</text>
</a>
</g>
</g>
<!-- Node1&#45;&gt;Node2 -->
<g id="edge1_Node000001_Node000002" class="edge">
<title>Node1&#45;&gt;Node2</title>
<g id="a_edge1_Node000001_Node000002"><a xlink:title=" ">
<path fill="none" stroke="#63b8ff" d="M74.98,-234.07C83.53,-265.05 114.85,-363.32 179,-410.5 180.85,-411.86 182.78,-413.12 184.78,-414.29"/>
<polygon fill="#63b8ff" stroke="#63b8ff" points="183.4,-417.51 193.91,-418.84 186.52,-411.25 183.4,-417.51"/>
</a>
</g>
</g>
<!-- Node3 -->
<g id="Node000003" class="node">
<title>Node3</title>
<g id="a_Node000003"><a xlink:href="classHttpResponse.html#a22352917aff72615ead5686b7e7b09b8" target="_top" xlink:title="Appends text data to the response body.">
<polygon fill="white" stroke="#666666" points="337.5,-401 185.5,-401 185.5,-382 337.5,-382 337.5,-401"/>
<text text-anchor="middle" x="261.5" y="-389" font-family="Helvetica,sans-Serif" font-size="10.00">HttpResponse::appendBody</text>
</a>
</g>
</g>
<!-- Node1&#45;&gt;Node3 -->
<g id="edge2_Node000001_Node000003" class="edge">
<title>Node1&#45;&gt;Node3</title>
<g id="a_edge2_Node000001_Node000003"><a xlink:title=" ">
<path fill="none" stroke="#63b8ff" d="M76.34,-234.02C87.66,-260.74 123.55,-336.87 179,-373.5 181.44,-375.11 184,-376.58 186.64,-377.92"/>
<polygon fill="#63b8ff" stroke="#63b8ff" points="185.36,-381.18 195.92,-381.99 188.17,-374.76 185.36,-381.18"/>
</a>
</g>
</g>
<!-- Node4 -->
<g id="Node000004" class="node">
<title>Node4</title>
<g id="a_Node000004"><a xlink:href="classAutoIndexHandler.html#ac79e264370e9c6576275fb315d67c5c3" target="_top" xlink:title="Converts a byte size into a human&#45;readable format (B, KB, MB).">
<polygon fill="white" stroke="#666666" points="343.5,-364 179.5,-364 179.5,-345 343.5,-345 343.5,-364"/>
<text text-anchor="middle" x="261.5" y="-352" font-family="Helvetica,sans-Serif" font-size="10.00">AutoIndexHandler::formatSize</text>
</a>
</g>
</g>
<!-- Node1&#45;&gt;Node4 -->
<g id="edge3_Node000001_Node000004" class="edge">
<title>Node1&#45;&gt;Node4</title>
<g id="a_edge3_Node000001_Node000004"><a xlink:title=" ">
<path fill="none" stroke="#63b8ff" d="M78.63,-234.12C93.17,-256.06 132.04,-309.99 179,-336.5 182.22,-338.32 185.6,-339.95 189.09,-341.42"/>
<polygon fill="#63b8ff" stroke="#63b8ff" points="187.92,-344.72 198.52,-344.93 190.37,-338.16 187.92,-344.72"/>
</a>
</g>
</g>
<!-- Node5 -->
<g id="Node000005" class="node">
<title>Node5</title>
<g id="a_Node000005"><a xlink:href="classHttpRequest.html#a5e8c184f323f39e36f2bb681554bc171" target="_top" xlink:title="Returns the current HTTP method.">
<polygon fill="white" stroke="#666666" points="329.5,-327 193.5,-327 193.5,-308 329.5,-308 329.5,-327"/>
<text text-anchor="middle" x="261.5" y="-315" font-family="Helvetica,sans-Serif" font-size="10.00">HttpRequest::getMethod</text>
</a>
</g>
</g>
<!-- Node1&#45;&gt;Node5 -->
<g id="edge4_Node000001_Node000005" class="edge">
<title>Node1&#45;&gt;Node5</title>
<g id="a_edge4_Node000001_Node000005"><a xlink:title=" ">
<path fill="none" stroke="#63b8ff" d="M83.11,-234.19C101.32,-250.28 140.31,-282.43 179,-299.5 183.69,-301.57 188.63,-303.41 193.68,-305.04"/>
<polygon fill="#63b8ff" stroke="#63b8ff" points="192.87,-308.45 203.45,-307.94 194.86,-301.74 192.87,-308.45"/>
</a>
</g>
</g>
<!-- Node6 -->
<g id="Node000006" class="node">
<title>Node6</title>
<g id="a_Node000006"><a xlink:href="classHttpRequest.html#a9cd740d746bcd7fa6e4fcb8c537879ad" target="_top" xlink:title="Returns the resolved filesystem path corresponding to the URI.">
<polygon fill="white" stroke="#666666" points="344,-290 179,-290 179,-271 344,-271 344,-290"/>
<text text-anchor="middle" x="261.5" y="-278" font-family="Helvetica,sans-Serif" font-size="10.00">HttpRequest::getResolvedPath</text>
</a>
</g>
</g>
<!-- Node1&#45;&gt;Node6 -->
<g id="edge5_Node000001_Node000006" class="edge">
<title>Node1&#45;&gt;Node6</title>
<g id="a_edge5_Node000001_Node000006"><a xlink:title=" ">
<path fill="none" stroke="#63b8ff" d="M96.75,-234.14C118.15,-242.4 150.32,-254.25 179,-262.5 186.54,-264.67 194.54,-266.72 202.46,-268.62"/>
<polygon fill="#63b8ff" stroke="#63b8ff" points="201.88,-272.08 212.41,-270.93 203.46,-265.26 201.88,-272.08"/>
</a>
</g>
</g>
<!-- Node7 -->
<g id="Node000007" class="node">
<title>Node7</title>
<g id="a_Node000007"><a xlink:href="classHttpRequest.html#a658d90f4dd4080c30c99c463c082abc8" target="_top" xlink:title=" ">
<polygon fill="white" stroke="#666666" points="318,-253 205,-253 205,-234 318,-234 318,-253"/>
<text text-anchor="middle" x="261.5" y="-241" font-family="Helvetica,sans-Serif" font-size="10.00">HttpRequest::getUri</text>
</a>
</g>
</g>
<!-- Node1&#45;&gt;Node7 -->
<g id="edge6_Node000001_Node000007" class="edge">
<title>Node1&#45;&gt;Node7</title>
<g id="a_edge6_Node000001_Node000007"><a xlink:title=" ">
<path fill="none" stroke="#63b8ff" d="M143.04,-231.63C159.95,-233.34 177.94,-235.16 194.63,-236.84"/>
<polygon fill="#63b8ff" stroke="#63b8ff" points="194.54,-240.35 204.84,-237.87 195.24,-233.39 194.54,-240.35"/>
</a>
</g>
</g>
<!-- Node8 -->
<g id="Node000008" class="node">
<title>Node8</title>
<g id="a_Node000008"><a xlink:href="classLogger.html#a4aa4d7c3b98f6e12e7ea8253da5ea0cd" target="_top" xlink:title="Returns the singleton instance of the Logger.">
<polygon fill="white" stroke="#666666" points="310,-216 213,-216 213,-197 310,-197 310,-216"/>
<text text-anchor="middle" x="261.5" y="-204" font-family="Helvetica,sans-Serif" font-size="10.00">Logger::instance</text>
</a>
</g>
</g>
<!-- Node1&#45;&gt;Node8 -->
<g id="edge7_Node000001_Node000008" class="edge">
<title>Node1&#45;&gt;Node8</title>
<g id="a_edge7_Node000001_Node000008"><a xlink:title=" ">
<path fill="none" stroke="#63b8ff" d="M143.04,-217.75C162.82,-215.85 184.09,-213.82 203.01,-212"/>
<polygon fill="#63b8ff" stroke="#63b8ff" points="203.35,-215.49 212.97,-211.05 202.68,-208.52 203.35,-215.49"/>
</a>
</g>
</g>
<!-- Node9 -->
<g id="Node000009" class="node">
<title>Node9</title>
<g id="a_Node000009"><a xlink:href="classLogger.html#a3d3f0801eeaf39b33a906ea8569c19b2" target="_top" xlink:title="Writes a log entry with timestamp, level, and message.">
<polygon fill="white" stroke="#666666" points="297,-179 226,-179 226,-160 297,-160 297,-179"/>
<text text-anchor="middle" x="261.5" y="-167" font-family="Helvetica,sans-Serif" font-size="10.00">Logger::log</text>
</a>
</g>
</g>
<!-- Node1&#45;&gt;Node9 -->
<g id="edge8_Node000001_Node000009" class="edge">
<title>Node1&#45;&gt;Node9</title>
<g id="a_edge8_Node000001_Node000009"><a xlink:title=" ">
<path fill="none" stroke="#63b8ff" d="M98.54,-214.91C119.96,-207.21 151.22,-196.41 179,-188.5 190.9,-185.11 203.9,-181.87 215.95,-179.06"/>
<polygon fill="#63b8ff" stroke="#63b8ff" points="216.84,-182.45 225.81,-176.81 215.28,-175.63 216.84,-182.45"/>
</a>
</g>
</g>
<!-- Node11 -->
<g id="Node000011" class="node">
<title>Node11</title>
<g id="a_Node000011"><a xlink:href="classAutoIndexHandler.html#a0dcbd0504c1e39bbe584d45821e7856d" target="_top" xlink:title="Replaces a single placeholder tag in the HTML template.">
<polygon fill="white" stroke="#666666" points="334.5,-141.5 188.5,-141.5 188.5,-111.5 334.5,-111.5 334.5,-141.5"/>
<text text-anchor="start" x="196.5" y="-129.5" font-family="Helvetica,sans-Serif" font-size="10.00">AutoIndexHandler::replace</text>
<text text-anchor="middle" x="261.5" y="-118.5" font-family="Helvetica,sans-Serif" font-size="10.00">Placeholder</text>
</a>
</g>
</g>
<!-- Node1&#45;&gt;Node11 -->
<g id="edge10_Node000001_Node000011" class="edge">
<title>Node1&#45;&gt;Node11</title>
<g id="a_edge10_Node000001_Node000011"><a xlink:title=" ">
<path fill="none" stroke="#63b8ff" d="M83.91,-214.93C102.66,-199.61 141.65,-169.51 179,-151.5 183.83,-149.17 188.93,-147 194.12,-144.99"/>
<polygon fill="#63b8ff" stroke="#63b8ff" points="195.34,-148.27 203.53,-141.54 192.94,-141.69 195.34,-148.27"/>
</a>
</g>
</g>
<!-- Node12 -->
<g id="Node000012" class="node">
<title>Node12</title>
<g id="a_Node000012"><a xlink:href="classHttpResponse.html#af02b3b82a638bfbf23226b9f3bf06843" target="_top" xlink:title="Sets the HTTP status code and updates the corresponding reason phrase.">
<polygon fill="white" stroke="#666666" points="342,-93 181,-93 181,-74 342,-74 342,-93"/>
<text text-anchor="middle" x="261.5" y="-81" font-family="Helvetica,sans-Serif" font-size="10.00">HttpResponse::setStatusCode</text>
</a>
</g>
</g>
<!-- Node1&#45;&gt;Node12 -->
<g id="edge11_Node000001_Node000012" class="edge">
<title>Node1&#45;&gt;Node12</title>
<g id="a_edge11_Node000001_Node000012"><a xlink:title=" ">
<path fill="none" stroke="#63b8ff" d="M78.01,-214.76C91.78,-191.39 130.08,-131.9 179,-102.5 182.64,-100.31 186.52,-98.37 190.52,-96.66"/>
<polygon fill="#63b8ff" stroke="#63b8ff" points="191.94,-99.87 200.06,-93.05 189.47,-93.32 191.94,-99.87"/>
</a>
</g>
</g>
<!-- Node15 -->
<g id="Node000015" class="node">
<title>Node15</title>
<g id="a_Node000015"><a xlink:href="string__utils_8hpp.html#ad735976365693b45c427000fe042e173" target="_top" xlink:title="Converts any printable type to a string representation.">
<polygon fill="white" stroke="#666666" points="289,-56 234,-56 234,-37 289,-37 289,-56"/>
<text text-anchor="middle" x="261.5" y="-44" font-family="Helvetica,sans-Serif" font-size="10.00">toString</text>
</a>
</g>
</g>
<!-- Node1&#45;&gt;Node15 -->
<g id="edge14_Node000001_Node000015" class="edge">
<title>Node1&#45;&gt;Node15</title>
<g id="a_edge14_Node000001_Node000015"><a xlink:title=" ">
<path fill="none" stroke="#63b8ff" d="M75.98,-214.69C86.56,-186.39 121.18,-104.09 179,-64.5 192.11,-55.52 208.95,-50.93 223.92,-48.62"/>
<polygon fill="#63b8ff" stroke="#63b8ff" points="224.42,-52.08 233.91,-47.35 223.55,-45.14 224.42,-52.08"/>
</a>
</g>
</g>
<!-- Node16 -->
<g id="Node000016" class="node">
<title>Node16</title>
<g id="a_Node000016"><a xlink:href="string__utils_8hpp.html#a4408f0c67e5adf4b8c58c34229e68775" target="_top" xlink:title="Encodes a string for safe inclusion in a URI (percent&#45;encoding).">
<polygon fill="white" stroke="#666666" points="294,-19 229,-19 229,0 294,0 294,-19"/>
<text text-anchor="middle" x="261.5" y="-7" font-family="Helvetica,sans-Serif" font-size="10.00">uriEncode</text>
</a>
</g>
</g>
<!-- Node1&#45;&gt;Node16 -->
<g id="edge15_Node000001_Node000016" class="edge">
<title>Node1&#45;&gt;Node16</title>
<g id="a_edge15_Node000001_Node000016"><a xlink:title=" ">
<path fill="none" stroke="#63b8ff" d="M74.69,-214.83C82.51,-182.58 112.27,-77.84 179,-27.5 190.34,-18.95 204.94,-14.3 218.65,-11.83"/>
<polygon fill="#63b8ff" stroke="#63b8ff" points="219.5,-15.25 228.89,-10.34 218.48,-8.32 219.5,-15.25"/>
</a>
</g>
</g>
<!-- Node10 -->
<g id="Node000010" class="node">
<title>Node10</title>
<g id="a_Node000010"><a xlink:href="classLogger.html#a19f9ef22095a67c9fe420c9d6e761fc2" target="_top" xlink:title="Converts a LogLevel enum value to its string label.">
<polygon fill="white" stroke="#666666" points="527,-179 408,-179 408,-160 527,-160 527,-179"/>
<text text-anchor="middle" x="467.5" y="-167" font-family="Helvetica,sans-Serif" font-size="10.00">Logger::levelToString</text>
</a>
</g>
</g>
<!-- Node9&#45;&gt;Node10 -->
<g id="edge9_Node000009_Node000010" class="edge">
<title>Node9&#45;&gt;Node10</title>
<g id="a_edge9_Node000009_Node000010"><a xlink:title=" ">
<path fill="none" stroke="#63b8ff" d="M297.11,-169.5C324.51,-169.5 363.66,-169.5 397.42,-169.5"/>
<polygon fill="#63b8ff" stroke="#63b8ff" points="397.7,-173 407.7,-169.5 397.7,-166 397.7,-173"/>
</a>
</g>
</g>
<!-- Node13 -->
<g id="Node000013" class="node">
<title>Node13</title>
<g id="a_Node000013"><a xlink:href="classHttpResponse.html#a98bb39b2757912eae4f667db80e3e6a4" target="_top" xlink:title="Sets the textual reason phrase for a given status code.">
<polygon fill="white" stroke="#666666" points="555,-93 380,-93 380,-74 555,-74 555,-93"/>
<text text-anchor="middle" x="467.5" y="-81" font-family="Helvetica,sans-Serif" font-size="10.00">HttpResponse::setReasonPhrase</text>
</a>
</g>
</g>
<!-- Node12&#45;&gt;Node13 -->
<g id="edge12_Node000012_Node000013" class="edge">
<title>Node12&#45;&gt;Node13</title>
<g id="a_edge12_Node000012_Node000013"><a xlink:title=" ">
<path fill="none" stroke="#63b8ff" d="M342.25,-83.5C351.18,-83.5 360.35,-83.5 369.47,-83.5"/>
<polygon fill="#63b8ff" stroke="#63b8ff" points="369.72,-87 379.72,-83.5 369.72,-80 369.72,-87"/>
</a>
</g>
</g>
<!-- Node14 -->
<g id="Node000014" class="node">
<title>Node14</title>
<g id="a_Node000014"><a xlink:href="classHttpResponse.html#ae09f25f31d917b068fae8bbf07b29c19" target="_top" xlink:title="Converts an HTTP status code to its standard reason phrase string.">
<polygon fill="white" stroke="#666666" points="737,-98.5 591,-98.5 591,-68.5 737,-68.5 737,-98.5"/>
<text text-anchor="start" x="599" y="-86.5" font-family="Helvetica,sans-Serif" font-size="10.00">HttpResponse::statusCode</text>
<text text-anchor="middle" x="664" y="-75.5" font-family="Helvetica,sans-Serif" font-size="10.00">ToString</text>
</a>
</g>
</g>
<!-- Node13&#45;&gt;Node14 -->
<g id="edge13_Node000013_Node000014" class="edge">
<title>Node13&#45;&gt;Node14</title>
<g id="a_edge13_Node000013_Node000014"><a xlink:title=" ">
<path fill="none" stroke="#63b8ff" d="M555.23,-83.5C563.72,-83.5 572.33,-83.5 580.78,-83.5"/>
<polygon fill="#63b8ff" stroke="#63b8ff" points="581,-87 591,-83.5 581,-80 581,-87"/>
</a>
</g>
</g>
</g>
</svg>
