<?xml version="1.0" encoding="UTF-8" standalone="no"?>
<!DOCTYPE svg PUBLIC "-//W3C//DTD SVG 1.1//EN"
 "http://www.w3.org/Graphics/SVG/1.1/DTD/svg11.dtd">
<!-- Generated by graphviz version 2.43.0 (0)
 -->
<!-- Title: StaticPageHandler::handle Pages: 1 -->
<svg width="714pt" height="255pt"
 viewBox="0.00 0.00 714.00 254.50" xmlns="http://www.w3.org/2000/svg" xmlns:xlink="http://www.w3.org/1999/xlink">
<g id="graph0" class="graph" transform="scale(1 1) rotate(0) translate(4 250.5)">
<title>StaticPageHandler::handle</title>
<!-- Node1 -->
<g id="Node000001" class="node">
<title>Node1</title>
<g id="a_Node000001"><a xlink:title="Handles serving static files from disk.">
<polygon fill="#999999" stroke="#666666" points="112,-125 0,-125 0,-95 112,-95 112,-125"/>
<text text-anchor="start" x="8" y="-113" font-family="Helvetica,sans-Serif" font-size="10.00">StaticPageHandler::</text>
<text text-anchor="middle" x="56" y="-102" font-family="Helvetica,sans-Serif" font-size="10.00">handle</text>
</a>
</g>
</g>
<!-- Node2 -->
<g id="Node000002" class="node">
<title>Node2</title>
<g id="a_Node000002"><a xlink:href="classStaticPageHandler.html#a22995910cb4920dbb05d537a3991535e" target="_top" xlink:title="Determines the MIME type based on the file extension.">
<polygon fill="white" stroke="#666666" points="286.5,-242 174.5,-242 174.5,-212 286.5,-212 286.5,-242"/>
<text text-anchor="start" x="182.5" y="-230" font-family="Helvetica,sans-Serif" font-size="10.00">StaticPageHandler::</text>
<text text-anchor="middle" x="230.5" y="-219" font-family="Helvetica,sans-Serif" font-size="10.00">detectMimeType</text>
</a>
</g>
</g>
<!-- Node1&#45;&gt;Node2 -->
<g id="edge1_Node000001_Node000002" class="edge">
<title>Node1&#45;&gt;Node2</title>
<g id="a_edge1_Node000001_Node000002"><a xlink:title=" ">
<path fill="none" stroke="#63b8ff" d="M70.17,-125.12C86.78,-143.45 116.95,-174.31 148,-194 156.23,-199.22 165.42,-203.88 174.58,-207.95"/>
<polygon fill="#63b8ff" stroke="#63b8ff" points="173.51,-211.3 184.08,-211.97 176.24,-204.85 173.51,-211.3"/>
</a>
</g>
</g>
<!-- Node4 -->
<g id="Node000004" class="node">
<title>Node4</title>
<g id="a_Node000004"><a xlink:href="classHttpRequest.html#a9cd740d746bcd7fa6e4fcb8c537879ad" target="_top" xlink:title="Returns the resolved filesystem path corresponding to the URI.">
<polygon fill="white" stroke="#666666" points="313,-184.5 148,-184.5 148,-165.5 313,-165.5 313,-184.5"/>
<text text-anchor="middle" x="230.5" y="-172.5" font-family="Helvetica,sans-Serif" font-size="10.00">HttpRequest::getResolvedPath</text>
</a>
</g>
</g>
<!-- Node1&#45;&gt;Node4 -->
<g id="edge3_Node000001_Node000004" class="edge">
<title>Node1&#45;&gt;Node4</title>
<g id="a_edge3_Node000001_Node000004"><a xlink:title=" ">
<path fill="none" stroke="#63b8ff" d="M82.93,-125.21C100.75,-135.13 125.21,-147.72 148,-156 155.03,-158.55 162.52,-160.85 170.01,-162.88"/>
<polygon fill="#63b8ff" stroke="#63b8ff" points="169.26,-166.3 179.81,-165.41 171.01,-159.53 169.26,-166.3"/>
</a>
</g>
</g>
<!-- Node5 -->
<g id="Node000005" class="node">
<title>Node5</title>
<g id="a_Node000005"><a xlink:href="classResponseBuilder.html#a0a1b2929111eec67e4ebe1acb7796915" target="_top" xlink:title="Prepares an HTTP response for a static page.">
<polygon fill="white" stroke="#666666" points="313,-147 148,-147 148,-117 313,-117 313,-147"/>
<text text-anchor="start" x="156" y="-135" font-family="Helvetica,sans-Serif" font-size="10.00">ResponseBuilder::handleStatic</text>
<text text-anchor="middle" x="230.5" y="-124" font-family="Helvetica,sans-Serif" font-size="10.00">PageOutput</text>
</a>
</g>
</g>
<!-- Node1&#45;&gt;Node5 -->
<g id="edge4_Node000001_Node000005" class="edge">
<title>Node1&#45;&gt;Node5</title>
<g id="a_edge4_Node000001_Node000005"><a xlink:title=" ">
<path fill="none" stroke="#63b8ff" d="M112.05,-117.02C120.36,-118.08 129.12,-119.2 137.95,-120.32"/>
<polygon fill="#63b8ff" stroke="#63b8ff" points="137.57,-123.8 147.93,-121.6 138.46,-116.86 137.57,-123.8"/>
</a>
</g>
</g>
<!-- Node10 -->
<g id="Node000010" class="node">
<title>Node10</title>
<g id="a_Node000010"><a xlink:href="classLogger.html#a4aa4d7c3b98f6e12e7ea8253da5ea0cd" target="_top" xlink:title="Returns the singleton instance of the Logger.">
<polygon fill="white" stroke="#666666" points="279,-98.5 182,-98.5 182,-79.5 279,-79.5 279,-98.5"/>
<text text-anchor="middle" x="230.5" y="-86.5" font-family="Helvetica,sans-Serif" font-size="10.00">Logger::instance</text>
</a>
</g>
</g>
<!-- Node1&#45;&gt;Node10 -->
<g id="edge9_Node000001_Node000010" class="edge">
<title>Node1&#45;&gt;Node10</title>
<g id="a_edge9_Node000001_Node000010"><a xlink:title=" ">
<path fill="none" stroke="#63b8ff" d="M112.05,-103.3C131.11,-100.98 152.51,-98.37 171.78,-96.03"/>
<polygon fill="#63b8ff" stroke="#63b8ff" points="172.43,-99.47 181.93,-94.79 171.58,-92.53 172.43,-99.47"/>
</a>
</g>
</g>
<!-- Node11 -->
<g id="Node000011" class="node">
<title>Node11</title>
<g id="a_Node000011"><a xlink:href="classLogger.html#a3d3f0801eeaf39b33a906ea8569c19b2" target="_top" xlink:title="Writes a log entry with timestamp, level, and message.">
<polygon fill="white" stroke="#666666" points="266,-61.5 195,-61.5 195,-42.5 266,-42.5 266,-61.5"/>
<text text-anchor="middle" x="230.5" y="-49.5" font-family="Helvetica,sans-Serif" font-size="10.00">Logger::log</text>
</a>
</g>
</g>
<!-- Node1&#45;&gt;Node11 -->
<g id="edge10_Node000001_Node000011" class="edge">
<title>Node1&#45;&gt;Node11</title>
<g id="a_edge10_Node000001_Node000011"><a xlink:title=" ">
<path fill="none" stroke="#63b8ff" d="M88.48,-94.88C105.76,-87 127.75,-77.64 148,-71 159.76,-67.14 172.71,-63.75 184.76,-60.94"/>
<polygon fill="#63b8ff" stroke="#63b8ff" points="185.64,-64.33 194.63,-58.72 184.1,-57.5 185.64,-64.33"/>
</a>
</g>
</g>
<!-- Node13 -->
<g id="Node000013" class="node">
<title>Node13</title>
<g id="a_Node000013"><a xlink:href="classHttpResponse.html#af02b3b82a638bfbf23226b9f3bf06843" target="_top" xlink:title="Sets the HTTP status code and updates the corresponding reason phrase.">
<polygon fill="white" stroke="#666666" points="311,-24.5 150,-24.5 150,-5.5 311,-5.5 311,-24.5"/>
<text text-anchor="middle" x="230.5" y="-12.5" font-family="Helvetica,sans-Serif" font-size="10.00">HttpResponse::setStatusCode</text>
</a>
</g>
</g>
<!-- Node1&#45;&gt;Node13 -->
<g id="edge12_Node000001_Node000013" class="edge">
<title>Node1&#45;&gt;Node13</title>
<g id="a_edge12_Node000001_Node000013"><a xlink:title=" ">
<path fill="none" stroke="#63b8ff" d="M70.53,-94.74C87.04,-77.11 116.66,-48.52 148,-33 151.98,-31.03 156.17,-29.27 160.47,-27.71"/>
<polygon fill="#63b8ff" stroke="#63b8ff" points="161.61,-31.02 170.02,-24.58 159.42,-24.37 161.61,-31.02"/>
</a>
</g>
</g>
<!-- Node3 -->
<g id="Node000003" class="node">
<title>Node3</title>
<g id="a_Node000003"><a xlink:href="string__utils_8hpp.html#a96432d89bc886bc9cdd1d73f86b2bbca" target="_top" xlink:title="Converts a string to lowercase.">
<polygon fill="white" stroke="#666666" points="464.5,-246.5 408.5,-246.5 408.5,-227.5 464.5,-227.5 464.5,-246.5"/>
<text text-anchor="middle" x="436.5" y="-234.5" font-family="Helvetica,sans-Serif" font-size="10.00">toLower</text>
</a>
</g>
</g>
<!-- Node2&#45;&gt;Node3 -->
<g id="edge2_Node000002_Node000003" class="edge">
<title>Node2&#45;&gt;Node3</title>
<g id="a_edge2_Node000002_Node000003"><a xlink:title=" ">
<path fill="none" stroke="#63b8ff" d="M286.71,-229.71C322.11,-231.44 367.13,-233.65 398.33,-235.18"/>
<polygon fill="#63b8ff" stroke="#63b8ff" points="398.18,-238.67 408.34,-235.67 398.53,-231.68 398.18,-238.67"/>
</a>
</g>
</g>
<!-- Node6 -->
<g id="Node000006" class="node">
<title>Node6</title>
<g id="a_Node000006"><a xlink:href="classHttpResponse.html#abb032c16ad3961d50a6582c50c330581" target="_top" xlink:title="Adds a header field to the HTTP response.">
<polygon fill="white" stroke="#666666" points="508.5,-209.5 364.5,-209.5 364.5,-190.5 508.5,-190.5 508.5,-209.5"/>
<text text-anchor="middle" x="436.5" y="-197.5" font-family="Helvetica,sans-Serif" font-size="10.00">HttpResponse::addHeader</text>
</a>
</g>
</g>
<!-- Node5&#45;&gt;Node6 -->
<g id="edge5_Node000005_Node000006" class="edge">
<title>Node5&#45;&gt;Node6</title>
<g id="a_edge5_Node000005_Node000006"><a xlink:title=" ">
<path fill="none" stroke="#63b8ff" d="M288.92,-147.15C297.16,-150.03 305.41,-153.31 313,-157 330.52,-165.51 331.1,-174.31 349,-182 353.93,-184.12 359.13,-186 364.44,-187.66"/>
<polygon fill="#63b8ff" stroke="#63b8ff" points="363.48,-191.03 374.06,-190.42 365.41,-184.3 363.48,-191.03"/>
</a>
</g>
</g>
<!-- Node7 -->
<g id="Node000007" class="node">
<title>Node7</title>
<g id="a_Node000007"><a xlink:href="classHttpResponse.html#a22352917aff72615ead5686b7e7b09b8" target="_top" xlink:title="Appends text data to the response body.">
<polygon fill="white" stroke="#666666" points="512.5,-172.5 360.5,-172.5 360.5,-153.5 512.5,-153.5 512.5,-172.5"/>
<text text-anchor="middle" x="436.5" y="-160.5" font-family="Helvetica,sans-Serif" font-size="10.00">HttpResponse::appendBody</text>
</a>
</g>
</g>
<!-- Node5&#45;&gt;Node7 -->
<g id="edge6_Node000005_Node000007" class="edge">
<title>Node5&#45;&gt;Node7</title>
<g id="a_edge6_Node000005_Node000007"><a xlink:title=" ">
<path fill="none" stroke="#63b8ff" d="M313.01,-144.39C329.55,-146.9 346.84,-149.53 363.05,-151.99"/>
<polygon fill="#63b8ff" stroke="#63b8ff" points="362.57,-155.46 372.98,-153.5 363.62,-148.54 362.57,-155.46"/>
</a>
</g>
</g>
<!-- Node8 -->
<g id="Node000008" class="node">
<title>Node8</title>
<g id="a_Node000008"><a xlink:href="classHttpResponse.html#ab929ceba6ce5236a670f33f9a6eeeb35" target="_top" xlink:title="Sets whether the response will use chunked transfer encoding.">
<polygon fill="white" stroke="#666666" points="510.5,-135.5 362.5,-135.5 362.5,-116.5 510.5,-116.5 510.5,-135.5"/>
<text text-anchor="middle" x="436.5" y="-123.5" font-family="Helvetica,sans-Serif" font-size="10.00">HttpResponse::setChunked</text>
</a>
</g>
</g>
<!-- Node5&#45;&gt;Node8 -->
<g id="edge7_Node000005_Node000008" class="edge">
<title>Node5&#45;&gt;Node8</title>
<g id="a_edge7_Node000005_Node000008"><a xlink:title=" ">
<path fill="none" stroke="#63b8ff" d="M313.01,-129.6C325.88,-129.22 339.21,-128.83 352.12,-128.45"/>
<polygon fill="#63b8ff" stroke="#63b8ff" points="352.48,-131.94 362.37,-128.15 352.27,-124.95 352.48,-131.94"/>
</a>
</g>
</g>
<!-- Node9 -->
<g id="Node000009" class="node">
<title>Node9</title>
<g id="a_Node000009"><a xlink:href="string__utils_8hpp.html#ad735976365693b45c427000fe042e173" target="_top" xlink:title="Converts any printable type to a string representation.">
<polygon fill="white" stroke="#666666" points="464,-98.5 409,-98.5 409,-79.5 464,-79.5 464,-98.5"/>
<text text-anchor="middle" x="436.5" y="-86.5" font-family="Helvetica,sans-Serif" font-size="10.00">toString</text>
</a>
</g>
</g>
<!-- Node5&#45;&gt;Node9 -->
<g id="edge8_Node000005_Node000009" class="edge">
<title>Node5&#45;&gt;Node9</title>
<g id="a_edge8_Node000005_Node000009"><a xlink:title=" ">
<path fill="none" stroke="#63b8ff" d="M302.85,-116.96C335.21,-110.14 372.1,-102.36 398.75,-96.75"/>
<polygon fill="#63b8ff" stroke="#63b8ff" points="399.72,-100.12 408.79,-94.63 398.28,-93.27 399.72,-100.12"/>
</a>
</g>
</g>
<!-- Node12 -->
<g id="Node000012" class="node">
<title>Node12</title>
<g id="a_Node000012"><a xlink:href="classLogger.html#a19f9ef22095a67c9fe420c9d6e761fc2" target="_top" xlink:title="Converts a LogLevel enum value to its string label.">
<polygon fill="white" stroke="#666666" points="496,-61.5 377,-61.5 377,-42.5 496,-42.5 496,-61.5"/>
<text text-anchor="middle" x="436.5" y="-49.5" font-family="Helvetica,sans-Serif" font-size="10.00">Logger::levelToString</text>
</a>
</g>
</g>
<!-- Node11&#45;&gt;Node12 -->
<g id="edge11_Node000011_Node000012" class="edge">
<title>Node11&#45;&gt;Node12</title>
<g id="a_edge11_Node000011_Node000012"><a xlink:title=" ">
<path fill="none" stroke="#63b8ff" d="M266.11,-52C293.51,-52 332.66,-52 366.42,-52"/>
<polygon fill="#63b8ff" stroke="#63b8ff" points="366.7,-55.5 376.7,-52 366.7,-48.5 366.7,-55.5"/>
</a>
</g>
</g>
<!-- Node14 -->
<g id="Node000014" class="node">
<title>Node14</title>
<g id="a_Node000014"><a xlink:href="classHttpResponse.html#a98bb39b2757912eae4f667db80e3e6a4" target="_top" xlink:title="Sets the textual reason phrase for a given status code.">
<polygon fill="white" stroke="#666666" points="524,-24.5 349,-24.5 349,-5.5 524,-5.5 524,-24.5"/>
<text text-anchor="middle" x="436.5" y="-12.5" font-family="Helvetica,sans-Serif" font-size="10.00">HttpResponse::setReasonPhrase</text>
</a>
</g>
</g>
<!-- Node13&#45;&gt;Node14 -->
<g id="edge13_Node000013_Node000014" class="edge">
<title>Node13&#45;&gt;Node14</title>
<g id="a_edge13_Node000013_Node000014"><a xlink:title=" ">
<path fill="none" stroke="#63b8ff" d="M311.25,-15C320.18,-15 329.35,-15 338.47,-15"/>
<polygon fill="#63b8ff" stroke="#63b8ff" points="338.72,-18.5 348.72,-15 338.72,-11.5 338.72,-18.5"/>
</a>
</g>
</g>
<!-- Node15 -->
<g id="Node000015" class="node">
<title>Node15</title>
<g id="a_Node000015"><a xlink:href="classHttpResponse.html#ae09f25f31d917b068fae8bbf07b29c19" target="_top" xlink:title="Converts an HTTP status code to its standard reason phrase string.">
<polygon fill="white" stroke="#666666" points="706,-30 560,-30 560,0 706,0 706,-30"/>
<text text-anchor="start" x="568" y="-18" font-family="Helvetica,sans-Serif" font-size="10.00">HttpResponse::statusCode</text>
<text text-anchor="middle" x="633" y="-7" font-family="Helvetica,sans-Serif" font-size="10.00">ToString</text>
</a>
</g>
</g>
<!-- Node14&#45;&gt;Node15 -->
<g id="edge14_Node000014_Node000015" class="edge">
<title>Node14&#45;&gt;Node15</title>
<g id="a_edge14_Node000014_Node000015"><a xlink:title=" ">
<path fill="none" stroke="#63b8ff" d="M524.23,-15C532.72,-15 541.33,-15 549.78,-15"/>
<polygon fill="#63b8ff" stroke="#63b8ff" points="550,-18.5 560,-15 550,-11.5 550,-18.5"/>
</a>
</g>
</g>
</g>
</svg>
