<?xml version="1.0" encoding="UTF-8" standalone="no"?>
<!DOCTYPE svg PUBLIC "-//W3C//DTD SVG 1.1//EN"
 "http://www.w3.org/Graphics/SVG/1.1/DTD/svg11.dtd">
<!-- Generated by graphviz version 2.43.0 (0)
 -->
<!-- Title: ClientConnection Pages: 1 -->
<svg width="459pt" height="1194pt"
 viewBox="0.00 0.00 459.00 1194.00" xmlns="http://www.w3.org/2000/svg" xmlns:xlink="http://www.w3.org/1999/xlink">
<g id="graph0" class="graph" transform="scale(1 1) rotate(0) translate(4 1190)">
<title>ClientConnection</title>
<!-- Node1 -->
<g id="Node000001" class="node">
<title>Node1</title>
<g id="a_Node000001"><a xlink:title=" ">
<polygon fill="#999999" stroke="transparent" points="294,-349 173,-349 173,0 294,0 294,-349"/>
<text text-anchor="start" x="192" y="-336.5" font-family="Helvetica,sans-Serif" font-size="10.00">ClientConnection</text>
<text text-anchor="start" x="180" y="-321.5" font-family="Helvetica,sans-Serif" font-size="10.00">&#45;</text>
<text text-anchor="start" x="190.5" y="-321.5" font-family="Helvetica,sans-Serif" font-size="10.00">_cgiBuffer</text>
<text text-anchor="start" x="180" y="-306.5" font-family="Helvetica,sans-Serif" font-size="10.00">&#45;</text>
<text text-anchor="start" x="190.5" y="-306.5" font-family="Helvetica,sans-Serif" font-size="10.00">_cgiFd</text>
<text text-anchor="start" x="180" y="-291.5" font-family="Helvetica,sans-Serif" font-size="10.00">&#45;</text>
<text text-anchor="start" x="190.5" y="-291.5" font-family="Helvetica,sans-Serif" font-size="10.00">_cgiPid</text>
<text text-anchor="start" x="180" y="-276.5" font-family="Helvetica,sans-Serif" font-size="10.00">&#45;</text>
<text text-anchor="start" x="190.5" y="-276.5" font-family="Helvetica,sans-Serif" font-size="10.00">_cgiStart</text>
<text text-anchor="start" x="180" y="-261.5" font-family="Helvetica,sans-Serif" font-size="10.00">&#45;</text>
<text text-anchor="start" x="190.5" y="-261.5" font-family="Helvetica,sans-Serif" font-size="10.00">_fd</text>
<text text-anchor="start" x="180" y="-246.5" font-family="Helvetica,sans-Serif" font-size="10.00">&#45;</text>
<text text-anchor="start" x="190.5" y="-246.5" font-family="Helvetica,sans-Serif" font-size="10.00">_hasCgi</text>
<text text-anchor="start" x="180" y="-231.5" font-family="Helvetica,sans-Serif" font-size="10.00">&#45;</text>
<text text-anchor="start" x="190.5" y="-231.5" font-family="Helvetica,sans-Serif" font-size="10.00">_keepAlive</text>
<text text-anchor="start" x="180" y="-216.5" font-family="Helvetica,sans-Serif" font-size="10.00">&#45;</text>
<text text-anchor="start" x="190.5" y="-216.5" font-family="Helvetica,sans-Serif" font-size="10.00">_requestBuffer</text>
<text text-anchor="start" x="180" y="-201.5" font-family="Helvetica,sans-Serif" font-size="10.00">&#45;</text>
<text text-anchor="start" x="190.5" y="-201.5" font-family="Helvetica,sans-Serif" font-size="10.00">_responseBuffer</text>
<text text-anchor="start" x="180" y="-186.5" font-family="Helvetica,sans-Serif" font-size="10.00">&#45;</text>
<text text-anchor="start" x="190.5" y="-186.5" font-family="Helvetica,sans-Serif" font-size="10.00">_sentBytes</text>
<text text-anchor="start" x="177.5" y="-171.5" font-family="Helvetica,sans-Serif" font-size="10.00">+</text>
<text text-anchor="start" x="190.5" y="-171.5" font-family="Helvetica,sans-Serif" font-size="10.00">adoptFD()</text>
<text text-anchor="start" x="177.5" y="-156.5" font-family="Helvetica,sans-Serif" font-size="10.00">+</text>
<text text-anchor="start" x="190.5" y="-156.5" font-family="Helvetica,sans-Serif" font-size="10.00">cgiBuffer()</text>
<text text-anchor="start" x="177.5" y="-141.5" font-family="Helvetica,sans-Serif" font-size="10.00">+</text>
<text text-anchor="start" x="190.5" y="-141.5" font-family="Helvetica,sans-Serif" font-size="10.00">clearBuffer()</text>
<text text-anchor="start" x="177.5" y="-126.5" font-family="Helvetica,sans-Serif" font-size="10.00">+</text>
<text text-anchor="start" x="190.5" y="-126.5" font-family="Helvetica,sans-Serif" font-size="10.00">clearCgi()</text>
<text text-anchor="start" x="177.5" y="-111.5" font-family="Helvetica,sans-Serif" font-size="10.00">+</text>
<text text-anchor="start" x="190.5" y="-111.5" font-family="Helvetica,sans-Serif" font-size="10.00">ClientConnection()</text>
<text text-anchor="start" x="177.5" y="-96.5" font-family="Helvetica,sans-Serif" font-size="10.00">+</text>
<text text-anchor="start" x="190.5" y="-96.5" font-family="Helvetica,sans-Serif" font-size="10.00">ClientConnection()</text>
<text text-anchor="start" x="177.5" y="-81.5" font-family="Helvetica,sans-Serif" font-size="10.00">+</text>
<text text-anchor="start" x="190.5" y="-81.5" font-family="Helvetica,sans-Serif" font-size="10.00">completedRequest()</text>
<text text-anchor="start" x="177.5" y="-66.5" font-family="Helvetica,sans-Serif" font-size="10.00">+</text>
<text text-anchor="start" x="190.5" y="-66.5" font-family="Helvetica,sans-Serif" font-size="10.00">getCgiFd()</text>
<text text-anchor="start" x="177.5" y="-51.5" font-family="Helvetica,sans-Serif" font-size="10.00">+</text>
<text text-anchor="start" x="190.5" y="-51.5" font-family="Helvetica,sans-Serif" font-size="10.00">getCgiPid()</text>
<text text-anchor="start" x="177.5" y="-36.5" font-family="Helvetica,sans-Serif" font-size="10.00">+</text>
<text text-anchor="start" x="190.5" y="-36.5" font-family="Helvetica,sans-Serif" font-size="10.00">getCgiStart()</text>
<text text-anchor="start" x="190.5" y="-21.5" font-family="Helvetica,sans-Serif" font-size="10.00">and 20 more...</text>
<text text-anchor="start" x="180" y="-6.5" font-family="Helvetica,sans-Serif" font-size="10.00">&#45;</text>
<text text-anchor="start" x="190.5" y="-6.5" font-family="Helvetica,sans-Serif" font-size="10.00">operator=()</text>
<polygon fill="#666666" stroke="#666666" points="173.5,-331.5 173.5,-331.5 294.5,-331.5 294.5,-331.5 173.5,-331.5"/>
<polygon fill="#666666" stroke="#666666" points="173.5,-181.5 173.5,-181.5 188.5,-181.5 188.5,-181.5 173.5,-181.5"/>
<polygon fill="#666666" stroke="#666666" points="188.5,-181.5 188.5,-181.5 294.5,-181.5 294.5,-181.5 188.5,-181.5"/>
<polygon fill="none" stroke="#666666" points="173,0 173,-349 294,-349 294,0 173,0"/>
</a>
</g>
</g>
<!-- Node2 -->
<g id="Node000002" class="node">
<title>Node2</title>
<g id="a_Node000002"><a xlink:href="classServerConfig.html" target="_top" xlink:title=" ">
<polygon fill="white" stroke="transparent" points="139,-737.5 0,-737.5 0,-433.5 139,-433.5 139,-737.5"/>
<text text-anchor="start" x="38.5" y="-725.5" font-family="Helvetica,sans-Serif" font-size="10.00">ServerConfig</text>
<text text-anchor="start" x="7" y="-710.5" font-family="Helvetica,sans-Serif" font-size="10.00">&#45;</text>
<text text-anchor="start" x="17.5" y="-710.5" font-family="Helvetica,sans-Serif" font-size="10.00">_autoindex</text>
<text text-anchor="start" x="7" y="-695.5" font-family="Helvetica,sans-Serif" font-size="10.00">&#45;</text>
<text text-anchor="start" x="17.5" y="-695.5" font-family="Helvetica,sans-Serif" font-size="10.00">_clientMaxBodysize</text>
<text text-anchor="start" x="7" y="-680.5" font-family="Helvetica,sans-Serif" font-size="10.00">&#45;</text>
<text text-anchor="start" x="17.5" y="-680.5" font-family="Helvetica,sans-Serif" font-size="10.00">_errorPage</text>
<text text-anchor="start" x="7" y="-665.5" font-family="Helvetica,sans-Serif" font-size="10.00">&#45;</text>
<text text-anchor="start" x="17.5" y="-665.5" font-family="Helvetica,sans-Serif" font-size="10.00">_indexFile</text>
<text text-anchor="start" x="7" y="-650.5" font-family="Helvetica,sans-Serif" font-size="10.00">&#45;</text>
<text text-anchor="start" x="17.5" y="-650.5" font-family="Helvetica,sans-Serif" font-size="10.00">_listenInterface</text>
<text text-anchor="start" x="7" y="-635.5" font-family="Helvetica,sans-Serif" font-size="10.00">&#45;</text>
<text text-anchor="start" x="17.5" y="-635.5" font-family="Helvetica,sans-Serif" font-size="10.00">_locations</text>
<text text-anchor="start" x="7" y="-620.5" font-family="Helvetica,sans-Serif" font-size="10.00">&#45;</text>
<text text-anchor="start" x="17.5" y="-620.5" font-family="Helvetica,sans-Serif" font-size="10.00">_root</text>
<text text-anchor="start" x="4.5" y="-605.5" font-family="Helvetica,sans-Serif" font-size="10.00">+</text>
<text text-anchor="start" x="17.5" y="-605.5" font-family="Helvetica,sans-Serif" font-size="10.00">addLocation()</text>
<text text-anchor="start" x="4.5" y="-590.5" font-family="Helvetica,sans-Serif" font-size="10.00">+</text>
<text text-anchor="start" x="17.5" y="-590.5" font-family="Helvetica,sans-Serif" font-size="10.00">getAutoindex()</text>
<text text-anchor="start" x="4.5" y="-575.5" font-family="Helvetica,sans-Serif" font-size="10.00">+</text>
<text text-anchor="start" x="17.5" y="-575.5" font-family="Helvetica,sans-Serif" font-size="10.00">getClientMaxBodySize()</text>
<text text-anchor="start" x="4.5" y="-560.5" font-family="Helvetica,sans-Serif" font-size="10.00">+</text>
<text text-anchor="start" x="17.5" y="-560.5" font-family="Helvetica,sans-Serif" font-size="10.00">getErrorPage()</text>
<text text-anchor="start" x="4.5" y="-545.5" font-family="Helvetica,sans-Serif" font-size="10.00">+</text>
<text text-anchor="start" x="17.5" y="-545.5" font-family="Helvetica,sans-Serif" font-size="10.00">getListenInterface()</text>
<text text-anchor="start" x="4.5" y="-530.5" font-family="Helvetica,sans-Serif" font-size="10.00">+</text>
<text text-anchor="start" x="17.5" y="-530.5" font-family="Helvetica,sans-Serif" font-size="10.00">getLocationConfig()</text>
<text text-anchor="start" x="4.5" y="-515.5" font-family="Helvetica,sans-Serif" font-size="10.00">+</text>
<text text-anchor="start" x="17.5" y="-515.5" font-family="Helvetica,sans-Serif" font-size="10.00">getRoot()</text>
<text text-anchor="start" x="4.5" y="-500.5" font-family="Helvetica,sans-Serif" font-size="10.00">+</text>
<text text-anchor="start" x="17.5" y="-500.5" font-family="Helvetica,sans-Serif" font-size="10.00">matchLocation()</text>
<text text-anchor="start" x="4.5" y="-485.5" font-family="Helvetica,sans-Serif" font-size="10.00">+</text>
<text text-anchor="start" x="17.5" y="-485.5" font-family="Helvetica,sans-Serif" font-size="10.00">ServerConfig()</text>
<text text-anchor="start" x="4.5" y="-470.5" font-family="Helvetica,sans-Serif" font-size="10.00">+</text>
<text text-anchor="start" x="17.5" y="-470.5" font-family="Helvetica,sans-Serif" font-size="10.00">ServerConfig()</text>
<text text-anchor="start" x="17.5" y="-455.5" font-family="Helvetica,sans-Serif" font-size="10.00">and 7 more...</text>
<text text-anchor="start" x="7" y="-440.5" font-family="Helvetica,sans-Serif" font-size="10.00">&#45;</text>
<text text-anchor="start" x="17.5" y="-440.5" font-family="Helvetica,sans-Serif" font-size="10.00">operator=()</text>
<polygon fill="#666666" stroke="#666666" points="0.5,-720.5 0.5,-720.5 139.5,-720.5 139.5,-720.5 0.5,-720.5"/>
<polygon fill="#666666" stroke="#666666" points="0.5,-615.5 0.5,-615.5 15.5,-615.5 15.5,-615.5 0.5,-615.5"/>
<polygon fill="#666666" stroke="#666666" points="15.5,-615.5 15.5,-615.5 139.5,-615.5 139.5,-615.5 15.5,-615.5"/>
<polygon fill="none" stroke="#666666" points="0,-433.5 0,-737.5 139,-737.5 139,-433.5 0,-433.5"/>
</a>
</g>
</g>
<!-- Node2&#45;&gt;Node1 -->
<g id="edge1_Node000001_Node000002" class="edge">
<title>Node2&#45;&gt;Node1</title>
<g id="a_edge1_Node000001_Node000002"><a xlink:title=" ">
<path fill="none" stroke="#63b8ff" d="M128.98,-433.48C137.83,-411.18 146.88,-388.48 155.5,-367 159.69,-356.55 164.03,-345.79 168.41,-334.95"/>
<polygon fill="none" stroke="#63b8ff" points="168.49,-334.76 167.03,-327.7 172.99,-323.63 174.45,-330.7 168.49,-334.76"/>
</a>
</g>
<text text-anchor="middle" x="192.5" y="-370" font-family="Helvetica,sans-Serif" font-size="10.00" fill="grey"> &#45;_serverConfig</text>
</g>
<!-- Node3 -->
<g id="Node000003" class="node">
<title>Node3</title>
<g id="a_Node000003"><a xlink:href="classHttpRequest.html" target="_top" xlink:title=" ">
<polygon fill="white" stroke="transparent" points="310,-775 157,-775 157,-396 310,-396 310,-775"/>
<text text-anchor="start" x="203.5" y="-762.5" font-family="Helvetica,sans-Serif" font-size="10.00">HttpRequest</text>
<text text-anchor="start" x="164" y="-747.5" font-family="Helvetica,sans-Serif" font-size="10.00">&#45;</text>
<text text-anchor="start" x="174.5" y="-747.5" font-family="Helvetica,sans-Serif" font-size="10.00">_body</text>
<text text-anchor="start" x="164" y="-732.5" font-family="Helvetica,sans-Serif" font-size="10.00">&#45;</text>
<text text-anchor="start" x="174.5" y="-732.5" font-family="Helvetica,sans-Serif" font-size="10.00">_buffer</text>
<text text-anchor="start" x="164" y="-717.5" font-family="Helvetica,sans-Serif" font-size="10.00">&#45;</text>
<text text-anchor="start" x="174.5" y="-717.5" font-family="Helvetica,sans-Serif" font-size="10.00">_chunkBuffer</text>
<text text-anchor="start" x="164" y="-702.5" font-family="Helvetica,sans-Serif" font-size="10.00">&#45;</text>
<text text-anchor="start" x="174.5" y="-702.5" font-family="Helvetica,sans-Serif" font-size="10.00">_currentChunkSize</text>
<text text-anchor="start" x="164" y="-687.5" font-family="Helvetica,sans-Serif" font-size="10.00">&#45;</text>
<text text-anchor="start" x="174.5" y="-687.5" font-family="Helvetica,sans-Serif" font-size="10.00">_expectingChunkSeparator</text>
<text text-anchor="start" x="164" y="-672.5" font-family="Helvetica,sans-Serif" font-size="10.00">&#45;</text>
<text text-anchor="start" x="174.5" y="-672.5" font-family="Helvetica,sans-Serif" font-size="10.00">_headers</text>
<text text-anchor="start" x="164" y="-657.5" font-family="Helvetica,sans-Serif" font-size="10.00">&#45;</text>
<text text-anchor="start" x="174.5" y="-657.5" font-family="Helvetica,sans-Serif" font-size="10.00">_major</text>
<text text-anchor="start" x="164" y="-642.5" font-family="Helvetica,sans-Serif" font-size="10.00">&#45;</text>
<text text-anchor="start" x="174.5" y="-642.5" font-family="Helvetica,sans-Serif" font-size="10.00">_method</text>
<text text-anchor="start" x="164" y="-627.5" font-family="Helvetica,sans-Serif" font-size="10.00">&#45;</text>
<text text-anchor="start" x="174.5" y="-627.5" font-family="Helvetica,sans-Serif" font-size="10.00">_minor</text>
<text text-anchor="start" x="164" y="-612.5" font-family="Helvetica,sans-Serif" font-size="10.00">&#45;</text>
<text text-anchor="start" x="174.5" y="-612.5" font-family="Helvetica,sans-Serif" font-size="10.00">_parseError</text>
<text text-anchor="start" x="174.5" y="-597.5" font-family="Helvetica,sans-Serif" font-size="10.00">and 7 more...</text>
<text text-anchor="start" x="161.5" y="-582.5" font-family="Helvetica,sans-Serif" font-size="10.00">+</text>
<text text-anchor="start" x="174.5" y="-582.5" font-family="Helvetica,sans-Serif" font-size="10.00">addHeader()</text>
<text text-anchor="start" x="161.5" y="-567.5" font-family="Helvetica,sans-Serif" font-size="10.00">+</text>
<text text-anchor="start" x="174.5" y="-567.5" font-family="Helvetica,sans-Serif" font-size="10.00">appendBody()</text>
<text text-anchor="start" x="161.5" y="-552.5" font-family="Helvetica,sans-Serif" font-size="10.00">+</text>
<text text-anchor="start" x="174.5" y="-552.5" font-family="Helvetica,sans-Serif" font-size="10.00">appendBody()</text>
<text text-anchor="start" x="161.5" y="-537.5" font-family="Helvetica,sans-Serif" font-size="10.00">+</text>
<text text-anchor="start" x="174.5" y="-537.5" font-family="Helvetica,sans-Serif" font-size="10.00">appendRaw()</text>
<text text-anchor="start" x="161.5" y="-522.5" font-family="Helvetica,sans-Serif" font-size="10.00">+</text>
<text text-anchor="start" x="174.5" y="-522.5" font-family="Helvetica,sans-Serif" font-size="10.00">clearBuffer()</text>
<text text-anchor="start" x="161.5" y="-507.5" font-family="Helvetica,sans-Serif" font-size="10.00">+</text>
<text text-anchor="start" x="174.5" y="-507.5" font-family="Helvetica,sans-Serif" font-size="10.00">clearChunkBuffer()</text>
<text text-anchor="start" x="161.5" y="-492.5" font-family="Helvetica,sans-Serif" font-size="10.00">+</text>
<text text-anchor="start" x="174.5" y="-492.5" font-family="Helvetica,sans-Serif" font-size="10.00">getAllHeaders()</text>
<text text-anchor="start" x="161.5" y="-477.5" font-family="Helvetica,sans-Serif" font-size="10.00">+</text>
<text text-anchor="start" x="174.5" y="-477.5" font-family="Helvetica,sans-Serif" font-size="10.00">getBody()</text>
<text text-anchor="start" x="161.5" y="-462.5" font-family="Helvetica,sans-Serif" font-size="10.00">+</text>
<text text-anchor="start" x="174.5" y="-462.5" font-family="Helvetica,sans-Serif" font-size="10.00">getBuffer()</text>
<text text-anchor="start" x="161.5" y="-447.5" font-family="Helvetica,sans-Serif" font-size="10.00">+</text>
<text text-anchor="start" x="174.5" y="-447.5" font-family="Helvetica,sans-Serif" font-size="10.00">getChunkBuffer()</text>
<text text-anchor="start" x="174.5" y="-432.5" font-family="Helvetica,sans-Serif" font-size="10.00">and 33 more...</text>
<text text-anchor="start" x="164" y="-417.5" font-family="Helvetica,sans-Serif" font-size="10.00">&#45;</text>
<text text-anchor="start" x="174.5" y="-417.5" font-family="Helvetica,sans-Serif" font-size="10.00">HttpRequest()</text>
<text text-anchor="start" x="164" y="-402.5" font-family="Helvetica,sans-Serif" font-size="10.00">&#45;</text>
<text text-anchor="start" x="174.5" y="-402.5" font-family="Helvetica,sans-Serif" font-size="10.00">operator=()</text>
<polygon fill="#666666" stroke="#666666" points="157.5,-757.5 157.5,-757.5 310.5,-757.5 310.5,-757.5 157.5,-757.5"/>
<polygon fill="#666666" stroke="#666666" points="157.5,-592.5 157.5,-592.5 172.5,-592.5 172.5,-592.5 157.5,-592.5"/>
<polygon fill="#666666" stroke="#666666" points="172.5,-592.5 172.5,-592.5 310.5,-592.5 310.5,-592.5 172.5,-592.5"/>
<polygon fill="none" stroke="#666666" points="157,-396 157,-775 310,-775 310,-396 157,-396"/>
</a>
</g>
</g>
<!-- Node3&#45;&gt;Node1 -->
<g id="edge2_Node000001_Node000003" class="edge">
<title>Node3&#45;&gt;Node1</title>
<g id="a_edge2_Node000001_Node000003"><a xlink:title=" ">
<path fill="none" stroke="#63b8ff" d="M233.5,-395.86C233.5,-384.28 233.5,-372.63 233.5,-361.06"/>
<polygon fill="none" stroke="#63b8ff" points="233.5,-361.04 229.5,-355.04 233.5,-349.04 237.5,-355.04 233.5,-361.04"/>
</a>
</g>
<text text-anchor="middle" x="269.5" y="-370" font-family="Helvetica,sans-Serif" font-size="10.00" fill="grey"> &#45;_httpRequest</text>
</g>
<!-- Node4 -->
<g id="Node000004" class="node">
<title>Node4</title>
<g id="a_Node000004"><a xlink:href="classRequestMeta.html" target="_top" xlink:title=" ">
<polygon fill="white" stroke="transparent" points="296.5,-1186 170.5,-1186 170.5,-822 296.5,-822 296.5,-1186"/>
<text text-anchor="start" x="201" y="-1174" font-family="Helvetica,sans-Serif" font-size="10.00">RequestMeta</text>
<text text-anchor="start" x="177" y="-1159" font-family="Helvetica,sans-Serif" font-size="10.00">&#45;</text>
<text text-anchor="start" x="187.5" y="-1159" font-family="Helvetica,sans-Serif" font-size="10.00">_chunked</text>
<text text-anchor="start" x="177" y="-1144" font-family="Helvetica,sans-Serif" font-size="10.00">&#45;</text>
<text text-anchor="start" x="187.5" y="-1144" font-family="Helvetica,sans-Serif" font-size="10.00">_connectionClose</text>
<text text-anchor="start" x="177" y="-1129" font-family="Helvetica,sans-Serif" font-size="10.00">&#45;</text>
<text text-anchor="start" x="187.5" y="-1129" font-family="Helvetica,sans-Serif" font-size="10.00">_contentLength</text>
<text text-anchor="start" x="177" y="-1114" font-family="Helvetica,sans-Serif" font-size="10.00">&#45;</text>
<text text-anchor="start" x="187.5" y="-1114" font-family="Helvetica,sans-Serif" font-size="10.00">_expectContinue</text>
<text text-anchor="start" x="177" y="-1099" font-family="Helvetica,sans-Serif" font-size="10.00">&#45;</text>
<text text-anchor="start" x="187.5" y="-1099" font-family="Helvetica,sans-Serif" font-size="10.00">_host</text>
<text text-anchor="start" x="177" y="-1084" font-family="Helvetica,sans-Serif" font-size="10.00">&#45;</text>
<text text-anchor="start" x="187.5" y="-1084" font-family="Helvetica,sans-Serif" font-size="10.00">_isRedirect</text>
<text text-anchor="start" x="174.5" y="-1069" font-family="Helvetica,sans-Serif" font-size="10.00">+</text>
<text text-anchor="start" x="187.5" y="-1069" font-family="Helvetica,sans-Serif" font-size="10.00">getContentLength()</text>
<text text-anchor="start" x="174.5" y="-1054" font-family="Helvetica,sans-Serif" font-size="10.00">+</text>
<text text-anchor="start" x="187.5" y="-1054" font-family="Helvetica,sans-Serif" font-size="10.00">getExpectContinue()</text>
<text text-anchor="start" x="174.5" y="-1039" font-family="Helvetica,sans-Serif" font-size="10.00">+</text>
<text text-anchor="start" x="187.5" y="-1039" font-family="Helvetica,sans-Serif" font-size="10.00">getHost()</text>
<text text-anchor="start" x="174.5" y="-1024" font-family="Helvetica,sans-Serif" font-size="10.00">+</text>
<text text-anchor="start" x="187.5" y="-1024" font-family="Helvetica,sans-Serif" font-size="10.00">isChunked()</text>
<text text-anchor="start" x="174.5" y="-1009" font-family="Helvetica,sans-Serif" font-size="10.00">+</text>
<text text-anchor="start" x="187.5" y="-1009" font-family="Helvetica,sans-Serif" font-size="10.00">isRedirect()</text>
<text text-anchor="start" x="174.5" y="-994" font-family="Helvetica,sans-Serif" font-size="10.00">+</text>
<text text-anchor="start" x="187.5" y="-994" font-family="Helvetica,sans-Serif" font-size="10.00">RequestMeta()</text>
<text text-anchor="start" x="174.5" y="-979" font-family="Helvetica,sans-Serif" font-size="10.00">+</text>
<text text-anchor="start" x="187.5" y="-979" font-family="Helvetica,sans-Serif" font-size="10.00">resetMeta()</text>
<text text-anchor="start" x="174.5" y="-964" font-family="Helvetica,sans-Serif" font-size="10.00">+</text>
<text text-anchor="start" x="187.5" y="-964" font-family="Helvetica,sans-Serif" font-size="10.00">setChunked()</text>
<text text-anchor="start" x="174.5" y="-949" font-family="Helvetica,sans-Serif" font-size="10.00">+</text>
<text text-anchor="start" x="187.5" y="-949" font-family="Helvetica,sans-Serif" font-size="10.00">setConnectionClose()</text>
<text text-anchor="start" x="174.5" y="-934" font-family="Helvetica,sans-Serif" font-size="10.00">+</text>
<text text-anchor="start" x="187.5" y="-934" font-family="Helvetica,sans-Serif" font-size="10.00">setContentLength()</text>
<text text-anchor="start" x="174.5" y="-919" font-family="Helvetica,sans-Serif" font-size="10.00">+</text>
<text text-anchor="start" x="187.5" y="-919" font-family="Helvetica,sans-Serif" font-size="10.00">setExpectContinue()</text>
<text text-anchor="start" x="174.5" y="-904" font-family="Helvetica,sans-Serif" font-size="10.00">+</text>
<text text-anchor="start" x="187.5" y="-904" font-family="Helvetica,sans-Serif" font-size="10.00">setHost()</text>
<text text-anchor="start" x="174.5" y="-889" font-family="Helvetica,sans-Serif" font-size="10.00">+</text>
<text text-anchor="start" x="187.5" y="-889" font-family="Helvetica,sans-Serif" font-size="10.00">setRedirect()</text>
<text text-anchor="start" x="174.5" y="-874" font-family="Helvetica,sans-Serif" font-size="10.00">+</text>
<text text-anchor="start" x="187.5" y="-874" font-family="Helvetica,sans-Serif" font-size="10.00">shouldClose()</text>
<text text-anchor="start" x="174.5" y="-859" font-family="Helvetica,sans-Serif" font-size="10.00">+</text>
<text text-anchor="start" x="187.5" y="-859" font-family="Helvetica,sans-Serif" font-size="10.00">~RequestMeta()</text>
<text text-anchor="start" x="177" y="-844" font-family="Helvetica,sans-Serif" font-size="10.00">&#45;</text>
<text text-anchor="start" x="187.5" y="-844" font-family="Helvetica,sans-Serif" font-size="10.00">operator=()</text>
<text text-anchor="start" x="177" y="-829" font-family="Helvetica,sans-Serif" font-size="10.00">&#45;</text>
<text text-anchor="start" x="187.5" y="-829" font-family="Helvetica,sans-Serif" font-size="10.00">RequestMeta()</text>
<polygon fill="#666666" stroke="#666666" points="170.5,-1169 170.5,-1169 296.5,-1169 296.5,-1169 170.5,-1169"/>
<polygon fill="#666666" stroke="#666666" points="170.5,-1079 170.5,-1079 185.5,-1079 185.5,-1079 170.5,-1079"/>
<polygon fill="#666666" stroke="#666666" points="185.5,-1079 185.5,-1079 296.5,-1079 296.5,-1079 185.5,-1079"/>
<polygon fill="none" stroke="#666666" points="170.5,-822 170.5,-1186 296.5,-1186 296.5,-822 170.5,-822"/>
</a>
</g>
</g>
<!-- Node4&#45;&gt;Node3 -->
<g id="edge3_Node000003_Node000004" class="edge">
<title>Node4&#45;&gt;Node3</title>
<g id="a_edge3_Node000003_Node000004"><a xlink:title=" ">
<path fill="none" stroke="#63b8ff" d="M233.5,-821.83C233.5,-810.35 233.5,-798.76 233.5,-787.2"/>
<polygon fill="none" stroke="#63b8ff" points="233.5,-787.17 229.5,-781.17 233.5,-775.17 237.5,-781.17 233.5,-787.17"/>
</a>
</g>
<text text-anchor="middle" x="252.5" y="-796" font-family="Helvetica,sans-Serif" font-size="10.00" fill="grey"> &#45;_meta</text>
</g>
<!-- Node5 -->
<g id="Node000005" class="node">
<title>Node5</title>
<g id="a_Node000005"><a xlink:href="classHttpResponse.html" target="_top" xlink:title=" ">
<polygon fill="white" stroke="transparent" points="451,-745 328,-745 328,-426 451,-426 451,-745"/>
<text text-anchor="start" x="355.5" y="-732.5" font-family="Helvetica,sans-Serif" font-size="10.00">HttpResponse</text>
<text text-anchor="start" x="335" y="-717.5" font-family="Helvetica,sans-Serif" font-size="10.00">&#45;</text>
<text text-anchor="start" x="345.5" y="-717.5" font-family="Helvetica,sans-Serif" font-size="10.00">_body</text>
<text text-anchor="start" x="335" y="-702.5" font-family="Helvetica,sans-Serif" font-size="10.00">&#45;</text>
<text text-anchor="start" x="345.5" y="-702.5" font-family="Helvetica,sans-Serif" font-size="10.00">_chunked</text>
<text text-anchor="start" x="335" y="-687.5" font-family="Helvetica,sans-Serif" font-size="10.00">&#45;</text>
<text text-anchor="start" x="345.5" y="-687.5" font-family="Helvetica,sans-Serif" font-size="10.00">_headers</text>
<text text-anchor="start" x="335" y="-672.5" font-family="Helvetica,sans-Serif" font-size="10.00">&#45;</text>
<text text-anchor="start" x="345.5" y="-672.5" font-family="Helvetica,sans-Serif" font-size="10.00">_reasonPhrase</text>
<text text-anchor="start" x="335" y="-657.5" font-family="Helvetica,sans-Serif" font-size="10.00">&#45;</text>
<text text-anchor="start" x="345.5" y="-657.5" font-family="Helvetica,sans-Serif" font-size="10.00">_statusCode</text>
<text text-anchor="start" x="335" y="-642.5" font-family="Helvetica,sans-Serif" font-size="10.00">&#45;</text>
<text text-anchor="start" x="345.5" y="-642.5" font-family="Helvetica,sans-Serif" font-size="10.00">_version</text>
<text text-anchor="start" x="332.5" y="-627.5" font-family="Helvetica,sans-Serif" font-size="10.00">+</text>
<text text-anchor="start" x="345.5" y="-627.5" font-family="Helvetica,sans-Serif" font-size="10.00">addHeader()</text>
<text text-anchor="start" x="332.5" y="-612.5" font-family="Helvetica,sans-Serif" font-size="10.00">+</text>
<text text-anchor="start" x="345.5" y="-612.5" font-family="Helvetica,sans-Serif" font-size="10.00">appendBody()</text>
<text text-anchor="start" x="332.5" y="-597.5" font-family="Helvetica,sans-Serif" font-size="10.00">+</text>
<text text-anchor="start" x="345.5" y="-597.5" font-family="Helvetica,sans-Serif" font-size="10.00">appendBody()</text>
<text text-anchor="start" x="332.5" y="-582.5" font-family="Helvetica,sans-Serif" font-size="10.00">+</text>
<text text-anchor="start" x="345.5" y="-582.5" font-family="Helvetica,sans-Serif" font-size="10.00">getBody()</text>
<text text-anchor="start" x="332.5" y="-567.5" font-family="Helvetica,sans-Serif" font-size="10.00">+</text>
<text text-anchor="start" x="345.5" y="-567.5" font-family="Helvetica,sans-Serif" font-size="10.00">getHeader()</text>
<text text-anchor="start" x="332.5" y="-552.5" font-family="Helvetica,sans-Serif" font-size="10.00">+</text>
<text text-anchor="start" x="345.5" y="-552.5" font-family="Helvetica,sans-Serif" font-size="10.00">getHeaders()</text>
<text text-anchor="start" x="332.5" y="-537.5" font-family="Helvetica,sans-Serif" font-size="10.00">+</text>
<text text-anchor="start" x="345.5" y="-537.5" font-family="Helvetica,sans-Serif" font-size="10.00">getHttpVersion()</text>
<text text-anchor="start" x="332.5" y="-522.5" font-family="Helvetica,sans-Serif" font-size="10.00">+</text>
<text text-anchor="start" x="345.5" y="-522.5" font-family="Helvetica,sans-Serif" font-size="10.00">getReasonPhrase()</text>
<text text-anchor="start" x="332.5" y="-507.5" font-family="Helvetica,sans-Serif" font-size="10.00">+</text>
<text text-anchor="start" x="345.5" y="-507.5" font-family="Helvetica,sans-Serif" font-size="10.00">getStatusCode()</text>
<text text-anchor="start" x="332.5" y="-492.5" font-family="Helvetica,sans-Serif" font-size="10.00">+</text>
<text text-anchor="start" x="345.5" y="-492.5" font-family="Helvetica,sans-Serif" font-size="10.00">HttpResponse()</text>
<text text-anchor="start" x="345.5" y="-477.5" font-family="Helvetica,sans-Serif" font-size="10.00">and 7 more...</text>
<text text-anchor="start" x="335" y="-462.5" font-family="Helvetica,sans-Serif" font-size="10.00">&#45;</text>
<text text-anchor="start" x="345.5" y="-462.5" font-family="Helvetica,sans-Serif" font-size="10.00">HttpResponse()</text>
<text text-anchor="start" x="335" y="-447.5" font-family="Helvetica,sans-Serif" font-size="10.00">&#45;</text>
<text text-anchor="start" x="345.5" y="-447.5" font-family="Helvetica,sans-Serif" font-size="10.00">operator=()</text>
<text text-anchor="start" x="335" y="-432.5" font-family="Helvetica,sans-Serif" font-size="10.00">&#45;</text>
<text text-anchor="start" x="345.5" y="-432.5" font-family="Helvetica,sans-Serif" font-size="10.00">statusCodeToString()</text>
<polygon fill="#666666" stroke="#666666" points="328.5,-727.5 328.5,-727.5 451.5,-727.5 451.5,-727.5 328.5,-727.5"/>
<polygon fill="#666666" stroke="#666666" points="328.5,-637.5 328.5,-637.5 343.5,-637.5 343.5,-637.5 328.5,-637.5"/>
<polygon fill="#666666" stroke="#666666" points="343.5,-637.5 343.5,-637.5 451.5,-637.5 451.5,-637.5 343.5,-637.5"/>
<polygon fill="none" stroke="#666666" points="328,-426 328,-745 451,-745 451,-426 328,-426"/>
</a>
</g>
</g>
<!-- Node5&#45;&gt;Node1 -->
<g id="edge4_Node000001_Node000005" class="edge">
<title>Node5&#45;&gt;Node1</title>
<g id="a_edge4_Node000001_Node000005"><a xlink:title=" ">
<path fill="none" stroke="#63b8ff" d="M331.64,-425.74C324.26,-405.93 316.75,-385.98 309.5,-367 305.92,-357.63 302.21,-348.02 298.45,-338.33"/>
<polygon fill="none" stroke="#63b8ff" points="298.36,-338.12 292.46,-333.98 294.01,-326.93 299.91,-331.07 298.36,-338.12"/>
</a>
</g>
<text text-anchor="middle" x="352" y="-370" font-family="Helvetica,sans-Serif" font-size="10.00" fill="grey"> &#45;_httpResponse</text>
</g>
</g>
</svg>
