<?xml version="1.0" encoding="UTF-8" standalone="no"?>
<!DOCTYPE svg PUBLIC "-//W3C//DTD SVG 1.1//EN"
 "http://www.w3.org/Graphics/SVG/1.1/DTD/svg11.dtd">
<!-- Generated by graphviz version 2.43.0 (0)
 -->
<!-- Title: WebServer::gracefulShutdown Pages: 1 -->
<svg width="459pt" height="64pt"
 viewBox="0.00 0.00 459.00 64.00" xmlns="http://www.w3.org/2000/svg" xmlns:xlink="http://www.w3.org/1999/xlink">
<g id="graph0" class="graph" transform="scale(1 1) rotate(0) translate(4 60)">
<title>WebServer::gracefulShutdown</title>
<!-- Node1 -->
<g id="Node000001" class="node">
<title>Node1</title>
<g id="a_Node000001"><a xlink:title="Sends shutdown notice to clients and closes all sockets.">
<polygon fill="#999999" stroke="#666666" points="163,-37 0,-37 0,-18 163,-18 163,-37"/>
<text text-anchor="middle" x="81.5" y="-25" font-family="Helvetica,sans-Serif" font-size="10.00">WebServer::gracefulShutdown</text>
</a>
</g>
</g>
<!-- Node2 -->
<g id="Node000002" class="node">
<title>Node2</title>
<g id="a_Node000002"><a xlink:href="classLogger.html#a4aa4d7c3b98f6e12e7ea8253da5ea0cd" target="_top" xlink:title="Returns the singleton instance of the Logger.">
<polygon fill="white" stroke="#666666" points="296,-56 199,-56 199,-37 296,-37 296,-56"/>
<text text-anchor="middle" x="247.5" y="-44" font-family="Helvetica,sans-Serif" font-size="10.00">Logger::instance</text>
</a>
</g>
</g>
<!-- Node1&#45;&gt;Node2 -->
<g id="edge1_Node000001_Node000002" class="edge">
<title>Node1&#45;&gt;Node2</title>
<g id="a_edge1_Node000001_Node000002"><a xlink:title=" ">
<path fill="none" stroke="#63b8ff" d="M163.06,-36.83C171.6,-37.82 180.17,-38.82 188.38,-39.77"/>
<polygon fill="#63b8ff" stroke="#63b8ff" points="188.23,-43.27 198.57,-40.95 189.04,-36.32 188.23,-43.27"/>
</a>
</g>
</g>
<!-- Node3 -->
<g id="Node000003" class="node">
<title>Node3</title>
<g id="a_Node000003"><a xlink:href="classLogger.html#a3d3f0801eeaf39b33a906ea8569c19b2" target="_top" xlink:title="Writes a log entry with timestamp, level, and message.">
<polygon fill="white" stroke="#666666" points="283,-19 212,-19 212,0 283,0 283,-19"/>
<text text-anchor="middle" x="247.5" y="-7" font-family="Helvetica,sans-Serif" font-size="10.00">Logger::log</text>
</a>
</g>
</g>
<!-- Node1&#45;&gt;Node3 -->
<g id="edge2_Node000001_Node000003" class="edge">
<title>Node1&#45;&gt;Node3</title>
<g id="a_edge2_Node000001_Node000003"><a xlink:title=" ">
<path fill="none" stroke="#63b8ff" d="M163.06,-18.66C176.34,-17.2 189.67,-15.74 201.66,-14.42"/>
<polygon fill="#63b8ff" stroke="#63b8ff" points="202.26,-17.88 211.82,-13.31 201.49,-10.92 202.26,-17.88"/>
</a>
</g>
</g>
<!-- Node4 -->
<g id="Node000004" class="node">
<title>Node4</title>
<g id="a_Node000004"><a xlink:href="classLogger.html#a19f9ef22095a67c9fe420c9d6e761fc2" target="_top" xlink:title="Converts a LogLevel enum value to its string label.">
<polygon fill="white" stroke="#666666" points="451,-19 332,-19 332,0 451,0 451,-19"/>
<text text-anchor="middle" x="391.5" y="-7" font-family="Helvetica,sans-Serif" font-size="10.00">Logger::levelToString</text>
</a>
</g>
</g>
<!-- Node3&#45;&gt;Node4 -->
<g id="edge3_Node000003_Node000004" class="edge">
<title>Node3&#45;&gt;Node4</title>
<g id="a_edge3_Node000003_Node000004"><a xlink:title=" ">
<path fill="none" stroke="#63b8ff" d="M283.24,-9.5C294.88,-9.5 308.31,-9.5 321.63,-9.5"/>
<polygon fill="#63b8ff" stroke="#63b8ff" points="321.77,-13 331.77,-9.5 321.77,-6 321.77,-13"/>
</a>
</g>
</g>
</g>
</svg>
