<?xml version="1.0" encoding="UTF-8" standalone="no"?>
<!DOCTYPE svg PUBLIC "-//W3C//DTD SVG 1.1//EN"
 "http://www.w3.org/Graphics/SVG/1.1/DTD/svg11.dtd">
<!-- Generated by graphviz version 2.43.0 (0)
 -->
<!-- Title: ResponseBuilder::build Pages: 1 -->
<!--zoomable 770 -->

<svg id="main" version="1.1" xmlns="http://www.w3.org/2000/svg" xmlns:xlink="http://www.w3.org/1999/xlink" xml:space="preserve" onload="init(evt)">
<style type="text/css"><![CDATA[
.node, .edge {opacity: 0.7;}
.node.selected, .edge.selected {opacity: 1;}
.edge:hover path { stroke: red; }
.edge:hover polygon { stroke: red; fill: red; }
]]></style>

<defs>
  <circle id="rim" cx="0" cy="0" r="7"/>
  <circle id="rim2" cx="0" cy="0" r="3.5"/>
  <g id="zoomPlus">
    <use xlink:href="#rim" fill="#404040"><set attributeName="fill" to="#808080" begin="zoomplus.mouseover" end="zoomplus.mouseout"/></use>
    <path d="M-4,0h8M0,-4v8" fill="none" stroke="white" stroke-width="1.5" pointer-events="none"/>
  </g>
  <g id="zoomMin">
    <use xlink:href="#rim" fill="#404040"><set attributeName="fill" to="#808080" begin="zoomminus.mouseover" end="zoomminus.mouseout"/></use>
    <path d="M-4,0h8" fill="none" stroke="white" stroke-width="1.5" pointer-events="none"/>
  </g>
  <g id="arrowUp" transform="translate(30 24)">
    <use xlink:href="#rim"/>
    <path pointer-events="none" fill="none" stroke="white" stroke-width="1.5" d="M0,-3.0v7 M-2.5,-0.5L0,-3.0L2.5,-0.5"/>
  </g>
  <g id="arrowRight" transform="rotate(90) translate(36 -43)">
    <use xlink:href="#rim"/>
    <path pointer-events="none" fill="none" stroke="white" stroke-width="1.5" d="M0,-3.0v7 M-2.5,-0.5L0,-3.0L2.5,-0.5"/>
  </g>
  <g id="arrowDown" transform="rotate(180) translate(-30 -48)">
    <use xlink:href="#rim"/>
    <path pointer-events="none" fill="none" stroke="white" stroke-width="1.5" d="M0,-3.0v7 M-2.5,-0.5L0,-3.0L2.5,-0.5"/>
  </g>
  <g id="arrowLeft" transform="rotate(270) translate(-36 17)">
    <use xlink:href="#rim"/>
    <path pointer-events="none" fill="none" stroke="white" stroke-width="1.5" d="M0,-3.0v7 M-2.5,-0.5L0,-3.0L2.5,-0.5"/>
  </g>
  <g id="resetDef">
    <use xlink:href="#rim2" fill="#404040"><set attributeName="fill" to="#808080" begin="reset.mouseover" end="reset.mouseout"/></use>
  </g>
</defs>
<script type="application/ecmascript">
var viewWidth = 944;
var viewHeight = 770;
var sectionId = 'dynsection-1';
</script>
<script type="application/ecmascript" xlink:href="svg.min.js"/>
<svg id="graph" class="graph">
<g id="viewport">
<title>ResponseBuilder::build</title>
<!-- Node1 -->
<g id="Node000001" class="node">
<title>Node1</title>
<g id="a_Node000001"><a xlink:title="Assembles the complete HTTP response, including error handling.">
<polygon fill="#999999" stroke="#666666" points="128,-361.5 0,-361.5 0,-342.5 128,-342.5 128,-361.5"/>
<text text-anchor="middle" x="64" y="-349.5" font-family="Helvetica,sans-Serif" font-size="10.00">ResponseBuilder::build</text>
</a>
</g>
</g>
<!-- Node2 -->
<g id="Node000002" class="node">
<title>Node2</title>
<g id="a_Node000002"><a xlink:href="classHttpResponse.html#abb032c16ad3961d50a6582c50c330581" target="_top" xlink:title="Adds a header field to the HTTP response.">
<polygon fill="white" stroke="#666666" points="738.5,-672.5 594.5,-672.5 594.5,-653.5 738.5,-653.5 738.5,-672.5"/>
<text text-anchor="middle" x="666.5" y="-660.5" font-family="Helvetica,sans-Serif" font-size="10.00">HttpResponse::addHeader</text>
</a>
</g>
</g>
<!-- Node1&#45;&gt;Node2 -->
<g id="edge1_Node000001_Node000002" class="edge">
<title>Node1&#45;&gt;Node2</title>
<g id="a_edge1_Node000001_Node000002"><a xlink:title=" ">
<path fill="none" stroke="#63b8ff" d="M66.39,-361.67C73.87,-412.28 110.97,-646.18 164,-692 291.8,-802.43 378.09,-756.49 543,-720 579.39,-711.95 617.81,-691.93 641.71,-677.9"/>
<polygon fill="#63b8ff" stroke="#63b8ff" points="643.65,-680.82 650.42,-672.68 640.05,-674.82 643.65,-680.82"/>
</a>
</g>
</g>
<!-- Node3 -->
<g id="Node000003" class="node">
<title>Node3</title>
<g id="a_Node000003"><a xlink:href="classResponseBuilder.html#a998edbfd6f08dd34332ca92507db5d77" target="_top" xlink:title="Attempts to load and serve a custom error page from configuration.">
<polygon fill="white" stroke="#666666" points="322.5,-486 171.5,-486 171.5,-456 322.5,-456 322.5,-486"/>
<text text-anchor="start" x="179.5" y="-474" font-family="Helvetica,sans-Serif" font-size="10.00">ResponseBuilder::errorPage</text>
<text text-anchor="middle" x="247" y="-463" font-family="Helvetica,sans-Serif" font-size="10.00">Config</text>
</a>
</g>
</g>
<!-- Node1&#45;&gt;Node3 -->
<g id="edge2_Node000001_Node000003" class="edge">
<title>Node1&#45;&gt;Node3</title>
<g id="a_edge2_Node000001_Node000003"><a xlink:title=" ">
<path fill="none" stroke="#63b8ff" d="M73.29,-361.77C89.17,-379.93 125.72,-419.11 164,-442 170.24,-445.73 177.03,-449.08 183.94,-452.07"/>
<polygon fill="#63b8ff" stroke="#63b8ff" points="182.83,-455.39 193.41,-455.91 185.46,-448.9 182.83,-455.39"/>
</a>
</g>
</g>
<!-- Node5 -->
<g id="Node000005" class="node">
<title>Node5</title>
<g id="a_Node000005"><a xlink:href="classHttpResponse.html#aefca7483c5921d939a7c8dccc705ba08" target="_top" xlink:title="Returns the current HTTP status code.">
<polygon fill="white" stroke="#666666" points="535.5,-548.5 373.5,-548.5 373.5,-529.5 535.5,-529.5 535.5,-548.5"/>
<text text-anchor="middle" x="454.5" y="-536.5" font-family="Helvetica,sans-Serif" font-size="10.00">HttpResponse::getStatusCode</text>
</a>
</g>
</g>
<!-- Node1&#45;&gt;Node5 -->
<g id="edge20_Node000001_Node000005" class="edge">
<title>Node1&#45;&gt;Node5</title>
<g id="a_edge20_Node000001_Node000005"><a xlink:title=" ">
<path fill="none" stroke="#63b8ff" d="M68.52,-361.69C78.67,-388.13 110.72,-461.74 164,-495 223.32,-532.03 302.46,-541.97 363.01,-543.24"/>
<polygon fill="#63b8ff" stroke="#63b8ff" points="363.28,-546.74 373.32,-543.38 363.37,-539.74 363.28,-546.74"/>
</a>
</g>
</g>
<!-- Node6 -->
<g id="Node000006" class="node">
<title>Node6</title>
<g id="a_Node000006"><a xlink:href="classResponseBuilder.html#a0a1b2929111eec67e4ebe1acb7796915" target="_top" xlink:title="Prepares an HTTP response for a static page.">
<polygon fill="white" stroke="#666666" points="537,-597 372,-597 372,-567 537,-567 537,-597"/>
<text text-anchor="start" x="380" y="-585" font-family="Helvetica,sans-Serif" font-size="10.00">ResponseBuilder::handleStatic</text>
<text text-anchor="middle" x="454.5" y="-574" font-family="Helvetica,sans-Serif" font-size="10.00">PageOutput</text>
</a>
</g>
</g>
<!-- Node1&#45;&gt;Node6 -->
<g id="edge21_Node000001_Node000006" class="edge">
<title>Node1&#45;&gt;Node6</title>
<g id="a_edge21_Node000001_Node000006"><a xlink:title=" ">
<path fill="none" stroke="#63b8ff" d="M67.18,-361.86C74.59,-392.83 101.86,-488.74 164,-533 221.12,-573.69 300.47,-584.8 361.65,-586.37"/>
<polygon fill="#63b8ff" stroke="#63b8ff" points="361.63,-589.87 371.69,-586.54 361.76,-582.87 361.63,-589.87"/>
</a>
</g>
</g>
<!-- Node9 -->
<g id="Node000009" class="node">
<title>Node9</title>
<g id="a_Node000009"><a xlink:href="string__utils_8hpp.html#ad735976365693b45c427000fe042e173" target="_top" xlink:title="Converts any printable type to a string representation.">
<polygon fill="white" stroke="#666666" points="694,-631.5 639,-631.5 639,-612.5 694,-612.5 694,-631.5"/>
<text text-anchor="middle" x="666.5" y="-619.5" font-family="Helvetica,sans-Serif" font-size="10.00">toString</text>
</a>
</g>
</g>
<!-- Node1&#45;&gt;Node9 -->
<g id="edge32_Node000001_Node000009" class="edge">
<title>Node1&#45;&gt;Node9</title>
<g id="a_edge32_Node000001_Node000009"><a xlink:title=" ">
<path fill="none" stroke="#63b8ff" d="M66.16,-361.95C70.84,-397.26 91.69,-517.37 164,-573 305.22,-681.65 539.2,-648.43 628.92,-630.31"/>
<polygon fill="#63b8ff" stroke="#63b8ff" points="629.81,-633.7 638.89,-628.24 628.39,-626.85 629.81,-633.7"/>
</a>
</g>
</g>
<!-- Node10 -->
<g id="Node000010" class="node">
<title>Node10</title>
<g id="a_Node000010"><a xlink:href="classLogger.html#a4aa4d7c3b98f6e12e7ea8253da5ea0cd" target="_top" xlink:title="Returns the singleton instance of the Logger.">
<polygon fill="white" stroke="#666666" points="503,-437.5 406,-437.5 406,-418.5 503,-418.5 503,-437.5"/>
<text text-anchor="middle" x="454.5" y="-425.5" font-family="Helvetica,sans-Serif" font-size="10.00">Logger::instance</text>
</a>
</g>
</g>
<!-- Node1&#45;&gt;Node10 -->
<g id="edge22_Node000001_Node000010" class="edge">
<title>Node1&#45;&gt;Node10</title>
<g id="a_edge22_Node000001_Node000010"><a xlink:title=" ">
<path fill="none" stroke="#63b8ff" d="M78.98,-361.68C97.49,-373.93 131.56,-394.56 164,-404 241.89,-426.66 336.18,-430.32 395.52,-429.91"/>
<polygon fill="#63b8ff" stroke="#63b8ff" points="395.86,-433.41 405.82,-429.8 395.78,-426.41 395.86,-433.41"/>
</a>
</g>
</g>
<!-- Node11 -->
<g id="Node000011" class="node">
<title>Node11</title>
<g id="a_Node000011"><a xlink:href="classLogger.html#a3d3f0801eeaf39b33a906ea8569c19b2" target="_top" xlink:title="Writes a log entry with timestamp, level, and message.">
<polygon fill="white" stroke="#666666" points="490,-361.5 419,-361.5 419,-342.5 490,-342.5 490,-361.5"/>
<text text-anchor="middle" x="454.5" y="-349.5" font-family="Helvetica,sans-Serif" font-size="10.00">Logger::log</text>
</a>
</g>
</g>
<!-- Node1&#45;&gt;Node11 -->
<g id="edge23_Node000001_Node000011" class="edge">
<title>Node1&#45;&gt;Node11</title>
<g id="a_edge23_Node000001_Node000011"><a xlink:title=" ">
<path fill="none" stroke="#63b8ff" d="M128.28,-352C207.12,-352 339.84,-352 408.83,-352"/>
<polygon fill="#63b8ff" stroke="#63b8ff" points="408.93,-355.5 418.93,-352 408.93,-348.5 408.93,-355.5"/>
</a>
</g>
</g>
<!-- Node14 -->
<g id="Node000014" class="node">
<title>Node14</title>
<g id="a_Node000014"><a xlink:href="classHttpResponse.html#a98bb39b2757912eae4f667db80e3e6a4" target="_top" xlink:title="Sets the textual reason phrase for a given status code.">
<polygon fill="white" stroke="#666666" points="754,-455.5 579,-455.5 579,-436.5 754,-436.5 754,-455.5"/>
<text text-anchor="middle" x="666.5" y="-443.5" font-family="Helvetica,sans-Serif" font-size="10.00">HttpResponse::setReasonPhrase</text>
</a>
</g>
</g>
<!-- Node1&#45;&gt;Node14 -->
<g id="edge28_Node000001_Node000014" class="edge">
<title>Node1&#45;&gt;Node14</title>
<g id="a_edge28_Node000001_Node000014"><a xlink:title=" ">
<path fill="none" stroke="#63b8ff" d="M128.08,-361.18C140,-362.85 152.38,-364.52 164,-366 332.17,-387.43 376.96,-374.8 543,-409 572.32,-415.04 604.71,-424.97 628.82,-433.03"/>
<polygon fill="#63b8ff" stroke="#63b8ff" points="628.02,-436.45 638.61,-436.35 630.27,-429.82 628.02,-436.45"/>
</a>
</g>
</g>
<!-- Node16 -->
<g id="Node000016" class="node">
<title>Node16</title>
<g id="a_Node000016"><a xlink:href="classResponseBuilder.html#ac417ac0be55269cb7f95d0e3bc01dc51" target="_top" xlink:title="Generates a simple HTML error page for a given HTTP status code.">
<polygon fill="white" stroke="#666666" points="322.5,-324 171.5,-324 171.5,-294 322.5,-294 322.5,-324"/>
<text text-anchor="start" x="179.5" y="-312" font-family="Helvetica,sans-Serif" font-size="10.00">ResponseBuilder::errorPage</text>
<text text-anchor="middle" x="247" y="-301" font-family="Helvetica,sans-Serif" font-size="10.00">Generator</text>
</a>
</g>
</g>
<!-- Node1&#45;&gt;Node16 -->
<g id="edge16_Node000001_Node000016" class="edge">
<title>Node1&#45;&gt;Node16</title>
<g id="a_edge16_Node000001_Node000016"><a xlink:title=" ">
<path fill="none" stroke="#63b8ff" d="M105.17,-342.46C125.13,-337.72 149.87,-331.84 173.03,-326.34"/>
<polygon fill="#63b8ff" stroke="#63b8ff" points="173.91,-329.72 182.83,-324.01 172.3,-322.91 173.91,-329.72"/>
</a>
</g>
</g>
<!-- Node17 -->
<g id="Node000017" class="node">
<title>Node17</title>
<g id="a_Node000017"><a xlink:href="classHttpRequest.html#afee0e84f22f6d1226023d40f4a75c17a" target="_top" xlink:title="Returns a const reference to the RequestMeta structure.">
<polygon fill="white" stroke="#666666" points="309,-275.5 185,-275.5 185,-256.5 309,-256.5 309,-275.5"/>
<text text-anchor="middle" x="247" y="-263.5" font-family="Helvetica,sans-Serif" font-size="10.00">HttpRequest::getMeta</text>
</a>
</g>
</g>
<!-- Node1&#45;&gt;Node17 -->
<g id="edge17_Node000001_Node000017" class="edge">
<title>Node1&#45;&gt;Node17</title>
<g id="a_edge17_Node000001_Node000017"><a xlink:title=" ">
<path fill="none" stroke="#63b8ff" d="M76.07,-342.47C93.56,-327.9 129.19,-300.19 164,-285 169.71,-282.51 175.8,-280.32 181.98,-278.4"/>
<polygon fill="#63b8ff" stroke="#63b8ff" points="183.07,-281.73 191.71,-275.61 181.14,-275 183.07,-281.73"/>
</a>
</g>
</g>
<!-- Node18 -->
<g id="Node000018" class="node">
<title>Node18</title>
<g id="a_Node000018"><a xlink:href="classServerConfig.html#a1d6c7f794b3c144162edd0f6a29df94a" target="_top" xlink:title=" ">
<polygon fill="white" stroke="#666666" points="308.5,-238.5 185.5,-238.5 185.5,-219.5 308.5,-219.5 308.5,-238.5"/>
<text text-anchor="middle" x="247" y="-226.5" font-family="Helvetica,sans-Serif" font-size="10.00">ServerConfig::getRoot</text>
</a>
</g>
</g>
<!-- Node1&#45;&gt;Node18 -->
<g id="edge18_Node000001_Node000018" class="edge">
<title>Node1&#45;&gt;Node18</title>
<g id="a_edge18_Node000001_Node000018"><a xlink:title=" ">
<path fill="none" stroke="#63b8ff" d="M71.09,-342.36C84.86,-321.39 120.62,-271.58 164,-247 167.71,-244.9 171.64,-243.04 175.7,-241.4"/>
<polygon fill="#63b8ff" stroke="#63b8ff" points="177.1,-244.62 185.34,-237.96 174.74,-238.03 177.1,-244.62"/>
</a>
</g>
</g>
<!-- Node19 -->
<g id="Node000019" class="node">
<title>Node19</title>
<g id="a_Node000019"><a xlink:href="classClientConnection.html#ad157100f057508c3f4766a0b9c011d56" target="_top" xlink:title=" ">
<polygon fill="white" stroke="#666666" points="323.5,-201 170.5,-201 170.5,-171 323.5,-171 323.5,-201"/>
<text text-anchor="start" x="178.5" y="-189" font-family="Helvetica,sans-Serif" font-size="10.00">ClientConnection::getServer</text>
<text text-anchor="middle" x="247" y="-178" font-family="Helvetica,sans-Serif" font-size="10.00">Config</text>
</a>
</g>
</g>
<!-- Node1&#45;&gt;Node19 -->
<g id="edge19_Node000001_Node000019" class="edge">
<title>Node1&#45;&gt;Node19</title>
<g id="a_edge19_Node000001_Node000019"><a xlink:title=" ">
<path fill="none" stroke="#63b8ff" d="M68.94,-342.38C79.94,-316.74 113.49,-246.32 164,-210 166.11,-208.48 168.31,-207.06 170.59,-205.73"/>
<polygon fill="#63b8ff" stroke="#63b8ff" points="172.4,-208.74 179.67,-201.03 169.18,-202.52 172.4,-208.74"/>
</a>
</g>
</g>
<!-- Node20 -->
<g id="Node000020" class="node">
<title>Node20</title>
<g id="a_Node000020"><a xlink:href="classRequestMeta.html#ad4f70f6ac25a37bd22eead55abc63a88" target="_top" xlink:title="Defines whether the connection should be closed after the response.">
<polygon fill="white" stroke="#666666" points="325.5,-153 168.5,-153 168.5,-123 325.5,-123 325.5,-153"/>
<text text-anchor="start" x="176.5" y="-141" font-family="Helvetica,sans-Serif" font-size="10.00">RequestMeta::setConnection</text>
<text text-anchor="middle" x="247" y="-130" font-family="Helvetica,sans-Serif" font-size="10.00">Close</text>
</a>
</g>
</g>
<!-- Node1&#45;&gt;Node20 -->
<g id="edge24_Node000001_Node000020" class="edge">
<title>Node1&#45;&gt;Node20</title>
<g id="a_edge24_Node000001_Node000020"><a xlink:title=" ">
<path fill="none" stroke="#63b8ff" d="M67.15,-342.42C74.64,-311.35 102.49,-212.52 164,-162 165.55,-160.73 167.16,-159.53 168.83,-158.39"/>
<polygon fill="#63b8ff" stroke="#63b8ff" points="170.74,-161.32 177.55,-153.2 167.17,-155.3 170.74,-161.32"/>
</a>
</g>
</g>
<!-- Node21 -->
<g id="Node000021" class="node">
<title>Node21</title>
<g id="a_Node000021"><a xlink:href="classResponseBuilder.html#a8c8e1391a9e13ef9c48e73cdc5ffb96a" target="_top" xlink:title="Adds mandatory HTTP headers to the response.">
<polygon fill="white" stroke="#666666" points="330,-683 164,-683 164,-653 330,-653 330,-683"/>
<text text-anchor="start" x="172" y="-671" font-family="Helvetica,sans-Serif" font-size="10.00">ResponseBuilder::setMinimum</text>
<text text-anchor="middle" x="247" y="-660" font-family="Helvetica,sans-Serif" font-size="10.00">Headers</text>
</a>
</g>
</g>
<!-- Node1&#45;&gt;Node21 -->
<g id="edge25_Node000001_Node000021" class="edge">
<title>Node1&#45;&gt;Node21</title>
<g id="a_edge25_Node000001_Node000021"><a xlink:title=" ">
<path fill="none" stroke="#63b8ff" d="M65.43,-361.72C67.72,-401.81 81.77,-556.13 164,-639 167.26,-642.28 170.91,-645.2 174.82,-647.78"/>
<polygon fill="#63b8ff" stroke="#63b8ff" points="173.31,-650.95 183.72,-652.93 176.82,-644.89 173.31,-650.95"/>
</a>
</g>
</g>
<!-- Node23 -->
<g id="Node000023" class="node">
<title>Node23</title>
<g id="a_Node000023"><a xlink:href="classHttpResponse.html#a407dc1ea3f01365d8105fadc0418bc79" target="_top" xlink:title="Defines the HTTP version string (e.g., &quot;1.1&quot;).">
<polygon fill="white" stroke="#666666" points="318,-104.5 176,-104.5 176,-85.5 318,-85.5 318,-104.5"/>
<text text-anchor="middle" x="247" y="-92.5" font-family="Helvetica,sans-Serif" font-size="10.00">HttpResponse::setVersion</text>
</a>
</g>
</g>
<!-- Node1&#45;&gt;Node23 -->
<g id="edge29_Node000001_Node000023" class="edge">
<title>Node1&#45;&gt;Node23</title>
<g id="a_edge29_Node000001_Node000023"><a xlink:title=" ">
<path fill="none" stroke="#63b8ff" d="M65.92,-342.49C69.92,-306.47 89.18,-177.3 164,-114 166,-112.31 168.12,-110.76 170.34,-109.34"/>
<polygon fill="#63b8ff" stroke="#63b8ff" points="172.17,-112.33 179.32,-104.51 168.85,-106.17 172.17,-112.33"/>
</a>
</g>
</g>
<!-- Node24 -->
<g id="Node000024" class="node">
<title>Node24</title>
<g id="a_Node000024"><a xlink:href="classRequestMeta.html#ac4273e56ac2833d678fcb296983b957e" target="_top" xlink:title="Returns true if the connection should be closed.">
<polygon fill="white" stroke="#666666" points="320,-67.5 174,-67.5 174,-48.5 320,-48.5 320,-67.5"/>
<text text-anchor="middle" x="247" y="-55.5" font-family="Helvetica,sans-Serif" font-size="10.00">RequestMeta::shouldClose</text>
</a>
</g>
</g>
<!-- Node1&#45;&gt;Node24 -->
<g id="edge30_Node000001_Node000024" class="edge">
<title>Node1&#45;&gt;Node24</title>
<g id="a_edge30_Node000001_Node000024"><a xlink:title=" ">
<path fill="none" stroke="#63b8ff" d="M65.3,-342.37C67.06,-302.69 79.32,-150.46 164,-76 165.32,-74.84 166.69,-73.75 168.11,-72.73"/>
<polygon fill="#63b8ff" stroke="#63b8ff" points="169.97,-75.7 176.74,-67.55 166.37,-69.7 169.97,-75.7"/>
</a>
</g>
</g>
<!-- Node25 -->
<g id="Node000025" class="node">
<title>Node25</title>
<g id="a_Node000025"><a xlink:href="classResponseBuilder.html#a118396ba3bce90b9bc2e7df02a84d2c4" target="_top" xlink:title="Determines whether the connection should be closed based on status code.">
<polygon fill="white" stroke="#666666" points="329,-30 165,-30 165,0 329,0 329,-30"/>
<text text-anchor="start" x="173" y="-18" font-family="Helvetica,sans-Serif" font-size="10.00">ResponseBuilder::shouldClose</text>
<text text-anchor="middle" x="247" y="-7" font-family="Helvetica,sans-Serif" font-size="10.00">Connection</text>
</a>
</g>
</g>
<!-- Node1&#45;&gt;Node25 -->
<g id="edge31_Node000001_Node000025" class="edge">
<title>Node1&#45;&gt;Node25</title>
<g id="a_edge31_Node000001_Node000025"><a xlink:title=" ">
<path fill="none" stroke="#63b8ff" d="M64.98,-342.45C65.43,-300.19 72.96,-128.09 164,-39 165.09,-37.93 166.23,-36.91 167.41,-35.93"/>
<polygon fill="#63b8ff" stroke="#63b8ff" points="169.52,-38.72 175.7,-30.11 165.5,-32.99 169.52,-38.72"/>
</a>
</g>
</g>
<!-- Node4 -->
<g id="Node000004" class="node">
<title>Node4</title>
<g id="a_Node000004"><a xlink:href="classServerConfig.html#ae077f794f7c8027bfd81a0b218edbff7" target="_top" xlink:title=" ">
<polygon fill="white" stroke="#666666" points="528,-474.5 381,-474.5 381,-455.5 528,-455.5 528,-474.5"/>
<text text-anchor="middle" x="454.5" y="-462.5" font-family="Helvetica,sans-Serif" font-size="10.00">ServerConfig::getErrorPage</text>
</a>
</g>
</g>
<!-- Node3&#45;&gt;Node4 -->
<g id="edge3_Node000003_Node000004" class="edge">
<title>Node3&#45;&gt;Node4</title>
<g id="a_edge3_Node000003_Node000004"><a xlink:title=" ">
<path fill="none" stroke="#63b8ff" d="M322.77,-468.82C338.3,-468.36 354.76,-467.88 370.57,-467.42"/>
<polygon fill="#63b8ff" stroke="#63b8ff" points="370.95,-470.91 380.84,-467.12 370.75,-463.91 370.95,-470.91"/>
</a>
</g>
</g>
<!-- Node3&#45;&gt;Node5 -->
<g id="edge4_Node000003_Node000005" class="edge">
<title>Node3&#45;&gt;Node5</title>
<g id="a_edge4_Node000003_Node000005"><a xlink:title=" ">
<path fill="none" stroke="#63b8ff" d="M279.97,-486.12C303.39,-496.73 336.15,-510.65 366,-520 374.41,-522.63 383.38,-525.03 392.26,-527.17"/>
<polygon fill="#63b8ff" stroke="#63b8ff" points="391.67,-530.63 402.2,-529.48 393.25,-523.81 391.67,-530.63"/>
</a>
</g>
</g>
<!-- Node3&#45;&gt;Node6 -->
<g id="edge5_Node000003_Node000006" class="edge">
<title>Node3&#45;&gt;Node6</title>
<g id="a_edge5_Node000003_Node000006"><a xlink:title=" ">
<path fill="none" stroke="#63b8ff" d="M264.74,-486.19C286.56,-505.25 326.59,-537.76 366,-557 370.67,-559.28 375.59,-561.39 380.61,-563.33"/>
<polygon fill="#63b8ff" stroke="#63b8ff" points="379.76,-566.74 390.36,-566.86 382.15,-560.16 379.76,-566.74"/>
</a>
</g>
</g>
<!-- Node3&#45;&gt;Node10 -->
<g id="edge10_Node000003_Node000010" class="edge">
<title>Node3&#45;&gt;Node10</title>
<g id="a_edge10_Node000003_Node000010"><a xlink:title=" ">
<path fill="none" stroke="#63b8ff" d="M318.49,-455.99C334.13,-452.68 350.63,-449.21 366,-446 375.91,-443.93 386.45,-441.75 396.66,-439.64"/>
<polygon fill="#63b8ff" stroke="#63b8ff" points="397.63,-443.02 406.72,-437.57 396.22,-436.16 397.63,-443.02"/>
</a>
</g>
</g>
<!-- Node3&#45;&gt;Node11 -->
<g id="edge11_Node000003_Node000011" class="edge">
<title>Node3&#45;&gt;Node11</title>
<g id="a_edge11_Node000003_Node000011"><a xlink:title=" ">
<path fill="none" stroke="#63b8ff" d="M274.03,-455.93C313.72,-432.94 388.91,-389.4 428.18,-366.66"/>
<polygon fill="#63b8ff" stroke="#63b8ff" points="429.99,-369.66 436.89,-361.62 426.49,-363.6 429.99,-369.66"/>
</a>
</g>
</g>
<!-- Node13 -->
<g id="Node000013" class="node">
<title>Node13</title>
<g id="a_Node000013"><a xlink:href="classHttpResponse.html#af02b3b82a638bfbf23226b9f3bf06843" target="_top" xlink:title="Sets the HTTP status code and updates the corresponding reason phrase.">
<polygon fill="white" stroke="#666666" points="535,-511.5 374,-511.5 374,-492.5 535,-492.5 535,-511.5"/>
<text text-anchor="middle" x="454.5" y="-499.5" font-family="Helvetica,sans-Serif" font-size="10.00">HttpResponse::setStatusCode</text>
</a>
</g>
</g>
<!-- Node3&#45;&gt;Node13 -->
<g id="edge13_Node000003_Node000013" class="edge">
<title>Node3&#45;&gt;Node13</title>
<g id="a_edge13_Node000003_Node000013"><a xlink:title=" ">
<path fill="none" stroke="#63b8ff" d="M322.77,-482.28C341.55,-485.11 361.67,-488.15 380.36,-490.97"/>
<polygon fill="#63b8ff" stroke="#63b8ff" points="379.88,-494.43 390.29,-492.46 380.92,-487.51 379.88,-494.43"/>
</a>
</g>
</g>
<!-- Node6&#45;&gt;Node2 -->
<g id="edge6_Node000006_Node000002" class="edge">
<title>Node6&#45;&gt;Node2</title>
<g id="a_edge6_Node000006_Node000002"><a xlink:title=" ">
<path fill="none" stroke="#63b8ff" d="M483.27,-597.21C507.87,-610.21 545.04,-628.7 579,-641 589.26,-644.72 600.43,-648.05 611.22,-650.94"/>
<polygon fill="#63b8ff" stroke="#63b8ff" points="610.43,-654.35 620.99,-653.46 612.18,-647.57 610.43,-654.35"/>
</a>
</g>
</g>
<!-- Node7 -->
<g id="Node000007" class="node">
<title>Node7</title>
<g id="a_Node000007"><a xlink:href="classHttpResponse.html#a22352917aff72615ead5686b7e7b09b8" target="_top" xlink:title="Appends text data to the response body.">
<polygon fill="white" stroke="#666666" points="742.5,-592.5 590.5,-592.5 590.5,-573.5 742.5,-573.5 742.5,-592.5"/>
<text text-anchor="middle" x="666.5" y="-580.5" font-family="Helvetica,sans-Serif" font-size="10.00">HttpResponse::appendBody</text>
</a>
</g>
</g>
<!-- Node6&#45;&gt;Node7 -->
<g id="edge7_Node000006_Node000007" class="edge">
<title>Node6&#45;&gt;Node7</title>
<g id="a_edge7_Node000006_Node000007"><a xlink:title=" ">
<path fill="none" stroke="#63b8ff" d="M537.29,-582.39C551.38,-582.46 566.05,-582.53 580.23,-582.59"/>
<polygon fill="#63b8ff" stroke="#63b8ff" points="580.43,-586.09 590.44,-582.64 580.46,-579.09 580.43,-586.09"/>
</a>
</g>
</g>
<!-- Node8 -->
<g id="Node000008" class="node">
<title>Node8</title>
<g id="a_Node000008"><a xlink:href="classHttpResponse.html#ab929ceba6ce5236a670f33f9a6eeeb35" target="_top" xlink:title="Sets whether the response will use chunked transfer encoding.">
<polygon fill="white" stroke="#666666" points="740.5,-555.5 592.5,-555.5 592.5,-536.5 740.5,-536.5 740.5,-555.5"/>
<text text-anchor="middle" x="666.5" y="-543.5" font-family="Helvetica,sans-Serif" font-size="10.00">HttpResponse::setChunked</text>
</a>
</g>
</g>
<!-- Node6&#45;&gt;Node8 -->
<g id="edge8_Node000006_Node000008" class="edge">
<title>Node6&#45;&gt;Node8</title>
<g id="a_edge8_Node000006_Node000008"><a xlink:title=" ">
<path fill="none" stroke="#63b8ff" d="M537.29,-567.98C558.08,-564.41 580.15,-560.63 600,-557.23"/>
<polygon fill="#63b8ff" stroke="#63b8ff" points="600.6,-560.68 609.86,-555.54 599.42,-553.78 600.6,-560.68"/>
</a>
</g>
</g>
<!-- Node6&#45;&gt;Node9 -->
<g id="edge9_Node000006_Node000009" class="edge">
<title>Node6&#45;&gt;Node9</title>
<g id="a_edge9_Node000006_Node000009"><a xlink:title=" ">
<path fill="none" stroke="#63b8ff" d="M534.29,-597.01C566.76,-603.19 602.8,-610.06 628.88,-615.02"/>
<polygon fill="#63b8ff" stroke="#63b8ff" points="628.23,-618.46 638.71,-616.9 629.54,-611.59 628.23,-618.46"/>
</a>
</g>
</g>
<!-- Node12 -->
<g id="Node000012" class="node">
<title>Node12</title>
<g id="a_Node000012"><a xlink:href="classLogger.html#a19f9ef22095a67c9fe420c9d6e761fc2" target="_top" xlink:title="Converts a LogLevel enum value to its string label.">
<polygon fill="white" stroke="#666666" points="726,-361.5 607,-361.5 607,-342.5 726,-342.5 726,-361.5"/>
<text text-anchor="middle" x="666.5" y="-349.5" font-family="Helvetica,sans-Serif" font-size="10.00">Logger::levelToString</text>
</a>
</g>
</g>
<!-- Node11&#45;&gt;Node12 -->
<g id="edge12_Node000011_Node000012" class="edge">
<title>Node11&#45;&gt;Node12</title>
<g id="a_edge12_Node000011_Node000012"><a xlink:title=" ">
<path fill="none" stroke="#63b8ff" d="M490.18,-352C519.02,-352 560.96,-352 596.59,-352"/>
<polygon fill="#63b8ff" stroke="#63b8ff" points="596.93,-355.5 606.93,-352 596.93,-348.5 596.93,-355.5"/>
</a>
</g>
</g>
<!-- Node13&#45;&gt;Node14 -->
<g id="edge14_Node000013_Node000014" class="edge">
<title>Node13&#45;&gt;Node14</title>
<g id="a_edge14_Node000013_Node000014"><a xlink:title=" ">
<path fill="none" stroke="#63b8ff" d="M502.89,-492.43C515.94,-489.6 530.06,-486.35 543,-483 571.04,-475.73 602.29,-466.27 626.21,-458.74"/>
<polygon fill="#63b8ff" stroke="#63b8ff" points="627.51,-462 635.98,-455.64 625.39,-455.32 627.51,-462"/>
</a>
</g>
</g>
<!-- Node15 -->
<g id="Node000015" class="node">
<title>Node15</title>
<g id="a_Node000015"><a xlink:href="classHttpResponse.html#ae09f25f31d917b068fae8bbf07b29c19" target="_top" xlink:title="Converts an HTTP status code to its standard reason phrase string.">
<polygon fill="white" stroke="#666666" points="936,-461 790,-461 790,-431 936,-431 936,-461"/>
<text text-anchor="start" x="798" y="-449" font-family="Helvetica,sans-Serif" font-size="10.00">HttpResponse::statusCode</text>
<text text-anchor="middle" x="863" y="-438" font-family="Helvetica,sans-Serif" font-size="10.00">ToString</text>
</a>
</g>
</g>
<!-- Node14&#45;&gt;Node15 -->
<g id="edge15_Node000014_Node000015" class="edge">
<title>Node14&#45;&gt;Node15</title>
<g id="a_edge15_Node000014_Node000015"><a xlink:title=" ">
<path fill="none" stroke="#63b8ff" d="M754.23,-446C762.72,-446 771.33,-446 779.78,-446"/>
<polygon fill="#63b8ff" stroke="#63b8ff" points="780,-449.5 790,-446 780,-442.5 780,-449.5"/>
</a>
</g>
</g>
<!-- Node21&#45;&gt;Node2 -->
<g id="edge26_Node000021_Node000002" class="edge">
<title>Node21&#45;&gt;Node2</title>
<g id="a_edge26_Node000021_Node000002"><a xlink:title=" ">
<path fill="none" stroke="#63b8ff" d="M330.48,-667.01C404.02,-666.13 511.04,-664.85 584.21,-663.97"/>
<polygon fill="#63b8ff" stroke="#63b8ff" points="584.35,-667.47 594.31,-663.85 584.27,-660.47 584.35,-667.47"/>
</a>
</g>
</g>
<!-- Node22 -->
<g id="Node000022" class="node">
<title>Node22</title>
<g id="a_Node000022"><a xlink:href="classResponseBuilder.html#ae58c2cc5b2bc78a9a2feed205780871c" target="_top" xlink:title="Generates a timestamp string in RFC 1123 format for HTTP headers.">
<polygon fill="white" stroke="#666666" points="543,-710.5 366,-710.5 366,-691.5 543,-691.5 543,-710.5"/>
<text text-anchor="middle" x="454.5" y="-698.5" font-family="Helvetica,sans-Serif" font-size="10.00">ResponseBuilder::fmtTimestamp</text>
</a>
</g>
</g>
<!-- Node21&#45;&gt;Node22 -->
<g id="edge27_Node000021_Node000022" class="edge">
<title>Node21&#45;&gt;Node22</title>
<g id="a_edge27_Node000021_Node000022"><a xlink:title=" ">
<path fill="none" stroke="#63b8ff" d="M330.1,-681.18C348.05,-684.07 366.87,-687.09 384.25,-689.88"/>
<polygon fill="#63b8ff" stroke="#63b8ff" points="383.87,-693.36 394.3,-691.49 384.98,-686.45 383.87,-693.36"/>
</a>
</g>
</g>
</g>
</svg>

<g id="navigator" transform="translate(0 0)" fill="#404254">
  <rect fill="#f2f5e9" fill-opacity="0.5" stroke="#606060" stroke-width=".5" x="0" y="0" width="60" height="60"/>
  <use id="zoomplus" xlink:href="#zoomPlus" x="17" y="9" onmousedown="handleZoom(evt,'in')"/>
  <use id="zoomminus" xlink:href="#zoomMin" x="42" y="9" onmousedown="handleZoom(evt,'out')"/>
  <use id="reset" xlink:href="#resetDef" x="30" y="36" onmousedown="handleReset()"/>
   <use id="arrowup" xlink:href="#arrowUp" x="0" y="0" onmousedown="handlePan(0,-1)"/>
  <use id="arrowright" xlink:href="#arrowRight" x="0" y="0" onmousedown="handlePan(1,0)"/>
  <use id="arrowdown" xlink:href="#arrowDown" x="0" y="0" onmousedown="handlePan(0,1)"/>
  <use id="arrowleft" xlink:href="#arrowLeft" x="0" y="0" onmousedown="handlePan(-1,0)"/>
</g>
<svg viewBox="0 0 15 15" width="100%" height="30px" preserveAspectRatio="xMaxYMin meet">
 <g id="arrow_out" transform="scale(0.3 0.3)">
  <a xlink:href="classResponseBuilder_afd79929bb501be85bdc85d86fdce93e9_cgraph_org.svg" target="_base">
   <rect id="button" ry="5" rx="5" y="6" x="6" height="38" width="38"
        fill="#f2f5e9" fill-opacity="0.5" stroke="#606060" stroke-width="1.0"/>
   <path id="arrow"
     d="M 11.500037,31.436501 C 11.940474,20.09759 22.043105,11.32322 32.158766,21.979434 L 37.068811,17.246167 C 37.068811,17.246167 37.088388,32 37.088388,32 L 22.160133,31.978069 C 22.160133,31.978069 26.997745,27.140456 26.997745,27.140456 C 18.528582,18.264221 13.291696,25.230495 11.500037,31.436501 z"
     style="fill:#404040;"/>
  </a>
 </g>
</svg>

<style type='text/css'>
<![CDATA[
[data-mouse-over-selected='false'] { opacity: 0.7; }
[data-mouse-over-selected='true']  { opacity: 1.0; }
]]>
</style>
<script type="application/ecmascript"><![CDATA[
document.addEventListener('DOMContentLoaded', (event) => {
  highlightEdges();
  highlightAdjacentNodes();
});
]]></script>
</svg>
