<?xml version="1.0" encoding="UTF-8" standalone="no"?>
<!DOCTYPE svg PUBLIC "-//W3C//DTD SVG 1.1//EN"
 "http://www.w3.org/Graphics/SVG/1.1/DTD/svg11.dtd">
<!-- Generated by graphviz version 2.43.0 (0)
 -->
<!-- Title: WebServer::queueClientConnections Pages: 1 -->
<!--zoomable 276 -->

<svg id="main" version="1.1" xmlns="http://www.w3.org/2000/svg" xmlns:xlink="http://www.w3.org/1999/xlink" xml:space="preserve" onload="init(evt)">
<style type="text/css"><![CDATA[
.node, .edge {opacity: 0.7;}
.node.selected, .edge.selected {opacity: 1;}
.edge:hover path { stroke: red; }
.edge:hover polygon { stroke: red; fill: red; }
]]></style>

<defs>
  <circle id="rim" cx="0" cy="0" r="7"/>
  <circle id="rim2" cx="0" cy="0" r="3.5"/>
  <g id="zoomPlus">
    <use xlink:href="#rim" fill="#404040"><set attributeName="fill" to="#808080" begin="zoomplus.mouseover" end="zoomplus.mouseout"/></use>
    <path d="M-4,0h8M0,-4v8" fill="none" stroke="white" stroke-width="1.5" pointer-events="none"/>
  </g>
  <g id="zoomMin">
    <use xlink:href="#rim" fill="#404040"><set attributeName="fill" to="#808080" begin="zoomminus.mouseover" end="zoomminus.mouseout"/></use>
    <path d="M-4,0h8" fill="none" stroke="white" stroke-width="1.5" pointer-events="none"/>
  </g>
  <g id="arrowUp" transform="translate(30 24)">
    <use xlink:href="#rim"/>
    <path pointer-events="none" fill="none" stroke="white" stroke-width="1.5" d="M0,-3.0v7 M-2.5,-0.5L0,-3.0L2.5,-0.5"/>
  </g>
  <g id="arrowRight" transform="rotate(90) translate(36 -43)">
    <use xlink:href="#rim"/>
    <path pointer-events="none" fill="none" stroke="white" stroke-width="1.5" d="M0,-3.0v7 M-2.5,-0.5L0,-3.0L2.5,-0.5"/>
  </g>
  <g id="arrowDown" transform="rotate(180) translate(-30 -48)">
    <use xlink:href="#rim"/>
    <path pointer-events="none" fill="none" stroke="white" stroke-width="1.5" d="M0,-3.0v7 M-2.5,-0.5L0,-3.0L2.5,-0.5"/>
  </g>
  <g id="arrowLeft" transform="rotate(270) translate(-36 17)">
    <use xlink:href="#rim"/>
    <path pointer-events="none" fill="none" stroke="white" stroke-width="1.5" d="M0,-3.0v7 M-2.5,-0.5L0,-3.0L2.5,-0.5"/>
  </g>
  <g id="resetDef">
    <use xlink:href="#rim2" fill="#404040"><set attributeName="fill" to="#808080" begin="reset.mouseover" end="reset.mouseout"/></use>
  </g>
</defs>
<script type="application/ecmascript">
var viewWidth = 705;
var viewHeight = 276;
var sectionId = 'dynsection-2';
</script>
<script type="application/ecmascript" xlink:href="svg.min.js"/>
<svg id="graph" class="graph">
<g id="viewport">
<title>WebServer::queueClientConnections</title>
<!-- Node1 -->
<g id="Node000001" class="node">
<title>Node1</title>
<g id="a_Node000001"><a xlink:title="Accepts new client connections on a given listening socket.">
<polygon fill="#999999" stroke="#666666" points="194,-150 0,-150 0,-131 194,-131 194,-150"/>
<text text-anchor="middle" x="97" y="-138" font-family="Helvetica,sans-Serif" font-size="10.00">WebServer::queueClientConnections</text>
</a>
</g>
</g>
<!-- Node2 -->
<g id="Node000002" class="node">
<title>Node2</title>
<g id="a_Node000002"><a xlink:href="classServerSocket.html#a4240c5afdaf781181eb097b0d77edf1e" target="_top" xlink:title="Accepts all pending incoming client connections (non&#45;blocking).">
<polygon fill="white" stroke="#666666" points="409,-244 230,-244 230,-225 409,-225 409,-244"/>
<text text-anchor="middle" x="319.5" y="-232" font-family="Helvetica,sans-Serif" font-size="10.00">ServerSocket::acceptConnections</text>
</a>
</g>
</g>
<!-- Node1&#45;&gt;Node2 -->
<g id="edge1_Node000001_Node000002" class="edge">
<title>Node1&#45;&gt;Node2</title>
<g id="a_edge1_Node000001_Node000002"><a xlink:title=" ">
<path fill="none" stroke="#63b8ff" d="M111.15,-150.02C134.11,-166.17 183.5,-198.92 230,-216.5 235.87,-218.72 242.07,-220.69 248.35,-222.42"/>
<polygon fill="#63b8ff" stroke="#63b8ff" points="247.7,-225.87 258.25,-224.97 249.44,-219.09 247.7,-225.87"/>
</a>
</g>
</g>
<!-- Node3 -->
<g id="Node000003" class="node">
<title>Node3</title>
<g id="a_Node000003"><a xlink:href="classLogger.html#a4aa4d7c3b98f6e12e7ea8253da5ea0cd" target="_top" xlink:title="Returns the singleton instance of the Logger.">
<polygon fill="white" stroke="#666666" points="542,-207 445,-207 445,-188 542,-188 542,-207"/>
<text text-anchor="middle" x="493.5" y="-195" font-family="Helvetica,sans-Serif" font-size="10.00">Logger::instance</text>
</a>
</g>
</g>
<!-- Node1&#45;&gt;Node3 -->
<g id="edge13_Node000001_Node000003" class="edge">
<title>Node1&#45;&gt;Node3</title>
<g id="a_edge13_Node000001_Node000003"><a xlink:title=" ">
<path fill="none" stroke="#63b8ff" d="M191.19,-150.03C253.14,-156.89 336.18,-167.11 409,-179.5 419.75,-181.33 431.2,-183.59 442.08,-185.89"/>
<polygon fill="#63b8ff" stroke="#63b8ff" points="441.35,-189.31 451.87,-187.99 442.83,-182.47 441.35,-189.31"/>
</a>
</g>
</g>
<!-- Node4 -->
<g id="Node000004" class="node">
<title>Node4</title>
<g id="a_Node000004"><a xlink:href="classLogger.html#a3d3f0801eeaf39b33a906ea8569c19b2" target="_top" xlink:title="Writes a log entry with timestamp, level, and message.">
<polygon fill="white" stroke="#666666" points="529,-170 458,-170 458,-151 529,-151 529,-170"/>
<text text-anchor="middle" x="493.5" y="-158" font-family="Helvetica,sans-Serif" font-size="10.00">Logger::log</text>
</a>
</g>
</g>
<!-- Node1&#45;&gt;Node4 -->
<g id="edge14_Node000001_Node000004" class="edge">
<title>Node1&#45;&gt;Node4</title>
<g id="a_edge14_Node000001_Node000004"><a xlink:title=" ">
<path fill="none" stroke="#63b8ff" d="M194.2,-138.05C255.76,-137.46 337.25,-138.52 409,-145.5 421.6,-146.72 435.15,-148.82 447.59,-151.06"/>
<polygon fill="#63b8ff" stroke="#63b8ff" points="447.26,-154.56 457.74,-152.96 448.55,-147.68 447.26,-154.56"/>
</a>
</g>
</g>
<!-- Node6 -->
<g id="Node000006" class="node">
<title>Node6</title>
<g id="a_Node000006"><a xlink:href="string__utils_8hpp.html#ad735976365693b45c427000fe042e173" target="_top" xlink:title="Converts any printable type to a string representation.">
<polygon fill="white" stroke="#666666" points="521,-244 466,-244 466,-225 521,-225 521,-244"/>
<text text-anchor="middle" x="493.5" y="-232" font-family="Helvetica,sans-Serif" font-size="10.00">toString</text>
</a>
</g>
</g>
<!-- Node1&#45;&gt;Node6 -->
<g id="edge15_Node000001_Node000006" class="edge">
<title>Node1&#45;&gt;Node6</title>
<g id="a_edge15_Node000001_Node000006"><a xlink:title=" ">
<path fill="none" stroke="#63b8ff" d="M105.24,-150.3C123.21,-173.66 172.56,-232.27 230,-253.5 306.54,-281.79 404.04,-261.36 456.01,-246.42"/>
<polygon fill="#63b8ff" stroke="#63b8ff" points="457.18,-249.72 465.78,-243.52 455.19,-243.01 457.18,-249.72"/>
</a>
</g>
</g>
<!-- Node7 -->
<g id="Node000007" class="node">
<title>Node7</title>
<g id="a_Node000007"><a xlink:href="classWebServer.html#aa387a01e97d57072be5c5be3955136f8" target="_top" xlink:title="Adds a file descriptor to the monitored poll vector.">
<polygon fill="white" stroke="#666666" points="387,-93 252,-93 252,-74 387,-74 387,-93"/>
<text text-anchor="middle" x="319.5" y="-81" font-family="Helvetica,sans-Serif" font-size="10.00">WebServer::addToPollFD</text>
</a>
</g>
</g>
<!-- Node1&#45;&gt;Node7 -->
<g id="edge6_Node000001_Node000007" class="edge">
<title>Node1&#45;&gt;Node7</title>
<g id="a_edge6_Node000001_Node000007"><a xlink:title=" ">
<path fill="none" stroke="#63b8ff" d="M134.91,-130.96C172.51,-121.24 230.94,-106.13 271.76,-95.58"/>
<polygon fill="#63b8ff" stroke="#63b8ff" points="272.67,-98.96 281.47,-93.07 270.92,-92.19 272.67,-98.96"/>
</a>
</g>
</g>
<!-- Node8 -->
<g id="Node000008" class="node">
<title>Node8</title>
<g id="a_Node000008"><a xlink:href="classClientConnection.html#af4d06d73c6a99655c59e6cb1633b1cb2" target="_top" xlink:title="Associates a socket FD with this client, closing any previous one.">
<polygon fill="white" stroke="#666666" points="393,-207 246,-207 246,-188 393,-188 393,-207"/>
<text text-anchor="middle" x="319.5" y="-195" font-family="Helvetica,sans-Serif" font-size="10.00">ClientConnection::adoptFD</text>
</a>
</g>
</g>
<!-- Node1&#45;&gt;Node8 -->
<g id="edge7_Node000001_Node000008" class="edge">
<title>Node1&#45;&gt;Node8</title>
<g id="a_edge7_Node000001_Node000008"><a xlink:title=" ">
<path fill="none" stroke="#63b8ff" d="M134.91,-150.04C172.51,-159.76 230.94,-174.87 271.76,-185.42"/>
<polygon fill="#63b8ff" stroke="#63b8ff" points="270.92,-188.81 281.47,-187.93 272.67,-182.04 270.92,-188.81"/>
</a>
</g>
</g>
<!-- Node9 -->
<g id="Node000009" class="node">
<title>Node9</title>
<g id="a_Node000009"><a xlink:href="classServerSocket.html#a43152f52de5e7f2ec6d64148f65cd8df" target="_top" xlink:title="Returns the socket file descriptor.">
<polygon fill="white" stroke="#666666" points="377.5,-56 261.5,-56 261.5,-37 377.5,-37 377.5,-56"/>
<text text-anchor="middle" x="319.5" y="-44" font-family="Helvetica,sans-Serif" font-size="10.00">ServerSocket::getFD</text>
</a>
</g>
</g>
<!-- Node1&#45;&gt;Node9 -->
<g id="edge11_Node000001_Node000009" class="edge">
<title>Node1&#45;&gt;Node9</title>
<g id="a_edge11_Node000001_Node000009"><a xlink:title=" ">
<path fill="none" stroke="#63b8ff" d="M111.15,-130.98C134.11,-114.83 183.5,-82.08 230,-64.5 236.76,-61.95 243.94,-59.73 251.19,-57.81"/>
<polygon fill="#63b8ff" stroke="#63b8ff" points="252.21,-61.16 261.08,-55.37 250.53,-54.37 252.21,-61.16"/>
</a>
</g>
</g>
<!-- Node10 -->
<g id="Node000010" class="node">
<title>Node10</title>
<g id="a_Node000010"><a xlink:href="classConfig.html#a24ebc439c8d121c496563c6571b03747" target="_top" xlink:title="Returns the list of all parsed server configurations.">
<polygon fill="white" stroke="#666666" points="385,-19 254,-19 254,0 385,0 385,-19"/>
<text text-anchor="middle" x="319.5" y="-7" font-family="Helvetica,sans-Serif" font-size="10.00">Config::getServerConfig</text>
</a>
</g>
</g>
<!-- Node1&#45;&gt;Node10 -->
<g id="edge12_Node000001_Node000010" class="edge">
<title>Node1&#45;&gt;Node10</title>
<g id="a_edge12_Node000001_Node000010"><a xlink:title=" ">
<path fill="none" stroke="#63b8ff" d="M106.12,-130.78C125.21,-108.6 175.52,-54.11 230,-27.5 234.55,-25.28 239.36,-23.33 244.29,-21.62"/>
<polygon fill="#63b8ff" stroke="#63b8ff" points="245.39,-24.95 253.89,-18.63 243.31,-18.26 245.39,-24.95"/>
</a>
</g>
</g>
<!-- Node2&#45;&gt;Node3 -->
<g id="edge2_Node000002_Node000003" class="edge">
<title>Node2&#45;&gt;Node3</title>
<g id="a_edge2_Node000002_Node000003"><a xlink:title=" ">
<path fill="none" stroke="#63b8ff" d="M368.31,-224.99C381.51,-222.3 395.82,-219.34 409,-216.5 419.46,-214.25 430.64,-211.76 441.31,-209.34"/>
<polygon fill="#63b8ff" stroke="#63b8ff" points="442.37,-212.69 451.35,-207.06 440.82,-205.87 442.37,-212.69"/>
</a>
</g>
</g>
<!-- Node2&#45;&gt;Node4 -->
<g id="edge3_Node000002_Node000004" class="edge">
<title>Node2&#45;&gt;Node4</title>
<g id="a_edge3_Node000002_Node000004"><a xlink:title=" ">
<path fill="none" stroke="#63b8ff" d="M389.14,-224.87C396.06,-222.63 402.81,-219.88 409,-216.5 429.14,-205.5 425.93,-192.26 445,-179.5 447.73,-177.67 450.66,-175.98 453.69,-174.41"/>
<polygon fill="#63b8ff" stroke="#63b8ff" points="455.31,-177.51 462.89,-170.11 452.35,-171.17 455.31,-177.51"/>
</a>
</g>
</g>
<!-- Node2&#45;&gt;Node6 -->
<g id="edge5_Node000002_Node000006" class="edge">
<title>Node2&#45;&gt;Node6</title>
<g id="a_edge5_Node000002_Node000006"><a xlink:title=" ">
<path fill="none" stroke="#63b8ff" d="M409.02,-234.5C425.55,-234.5 441.95,-234.5 455.79,-234.5"/>
<polygon fill="#63b8ff" stroke="#63b8ff" points="455.83,-238 465.83,-234.5 455.83,-231 455.83,-238"/>
</a>
</g>
</g>
<!-- Node5 -->
<g id="Node000005" class="node">
<title>Node5</title>
<g id="a_Node000005"><a xlink:href="classLogger.html#a19f9ef22095a67c9fe420c9d6e761fc2" target="_top" xlink:title="Converts a LogLevel enum value to its string label.">
<polygon fill="white" stroke="#666666" points="697,-170 578,-170 578,-151 697,-151 697,-170"/>
<text text-anchor="middle" x="637.5" y="-158" font-family="Helvetica,sans-Serif" font-size="10.00">Logger::levelToString</text>
</a>
</g>
</g>
<!-- Node4&#45;&gt;Node5 -->
<g id="edge4_Node000004_Node000005" class="edge">
<title>Node4&#45;&gt;Node5</title>
<g id="a_edge4_Node000004_Node000005"><a xlink:title=" ">
<path fill="none" stroke="#63b8ff" d="M529.24,-160.5C540.88,-160.5 554.31,-160.5 567.63,-160.5"/>
<polygon fill="#63b8ff" stroke="#63b8ff" points="567.77,-164 577.77,-160.5 567.77,-157 567.77,-164"/>
</a>
</g>
</g>
<!-- Node8&#45;&gt;Node3 -->
<g id="edge8_Node000008_Node000003" class="edge">
<title>Node8&#45;&gt;Node3</title>
<g id="a_edge8_Node000008_Node000003"><a xlink:title=" ">
<path fill="none" stroke="#63b8ff" d="M393.44,-197.5C407.17,-197.5 421.35,-197.5 434.54,-197.5"/>
<polygon fill="#63b8ff" stroke="#63b8ff" points="434.88,-201 444.88,-197.5 434.88,-194 434.88,-201"/>
</a>
</g>
</g>
<!-- Node8&#45;&gt;Node4 -->
<g id="edge9_Node000008_Node000004" class="edge">
<title>Node8&#45;&gt;Node4</title>
<g id="a_edge9_Node000008_Node000004"><a xlink:title=" ">
<path fill="none" stroke="#63b8ff" d="M364.79,-187.97C390.36,-182.47 422.43,-175.57 448.03,-170.07"/>
<polygon fill="#63b8ff" stroke="#63b8ff" points="448.81,-173.48 457.85,-167.95 447.34,-166.64 448.81,-173.48"/>
</a>
</g>
</g>
<!-- Node8&#45;&gt;Node6 -->
<g id="edge10_Node000008_Node000006" class="edge">
<title>Node8&#45;&gt;Node6</title>
<g id="a_edge10_Node000008_Node000006"><a xlink:title=" ">
<path fill="none" stroke="#63b8ff" d="M365.07,-207.06C379.13,-210.08 394.71,-213.43 409,-216.5 424.28,-219.79 441.14,-223.42 455.68,-226.56"/>
<polygon fill="#63b8ff" stroke="#63b8ff" points="455.29,-230.05 465.8,-228.74 456.76,-223.21 455.29,-230.05"/>
</a>
</g>
</g>
</g>
</svg>

<g id="navigator" transform="translate(0 0)" fill="#404254">
  <rect fill="#f2f5e9" fill-opacity="0.5" stroke="#606060" stroke-width=".5" x="0" y="0" width="60" height="60"/>
  <use id="zoomplus" xlink:href="#zoomPlus" x="17" y="9" onmousedown="handleZoom(evt,'in')"/>
  <use id="zoomminus" xlink:href="#zoomMin" x="42" y="9" onmousedown="handleZoom(evt,'out')"/>
  <use id="reset" xlink:href="#resetDef" x="30" y="36" onmousedown="handleReset()"/>
   <use id="arrowup" xlink:href="#arrowUp" x="0" y="0" onmousedown="handlePan(0,-1)"/>
  <use id="arrowright" xlink:href="#arrowRight" x="0" y="0" onmousedown="handlePan(1,0)"/>
  <use id="arrowdown" xlink:href="#arrowDown" x="0" y="0" onmousedown="handlePan(0,1)"/>
  <use id="arrowleft" xlink:href="#arrowLeft" x="0" y="0" onmousedown="handlePan(-1,0)"/>
</g>
<svg viewBox="0 0 15 15" width="100%" height="30px" preserveAspectRatio="xMaxYMin meet">
 <g id="arrow_out" transform="scale(0.3 0.3)">
  <a xlink:href="classWebServer_aacdbe29d455db5ca3387cd06a67b890b_cgraph_org.svg" target="_base">
   <rect id="button" ry="5" rx="5" y="6" x="6" height="38" width="38"
        fill="#f2f5e9" fill-opacity="0.5" stroke="#606060" stroke-width="1.0"/>
   <path id="arrow"
     d="M 11.500037,31.436501 C 11.940474,20.09759 22.043105,11.32322 32.158766,21.979434 L 37.068811,17.246167 C 37.068811,17.246167 37.088388,32 37.088388,32 L 22.160133,31.978069 C 22.160133,31.978069 26.997745,27.140456 26.997745,27.140456 C 18.528582,18.264221 13.291696,25.230495 11.500037,31.436501 z"
     style="fill:#404040;"/>
  </a>
 </g>
</svg>

<style type='text/css'>
<![CDATA[
[data-mouse-over-selected='false'] { opacity: 0.7; }
[data-mouse-over-selected='true']  { opacity: 1.0; }
]]>
</style>
<script type="application/ecmascript"><![CDATA[
document.addEventListener('DOMContentLoaded', (event) => {
  highlightEdges();
  highlightAdjacentNodes();
});
]]></script>
</svg>
