<?xml version="1.0" encoding="UTF-8" standalone="no"?>
<!DOCTYPE svg PUBLIC "-//W3C//DTD SVG 1.1//EN"
 "http://www.w3.org/Graphics/SVG/1.1/DTD/svg11.dtd">
<!-- Generated by graphviz version 2.43.0 (0)
 -->
<!-- Title: AutoIndexHandler::handle Pages: 1 -->
<svg width="772pt" height="489pt"
 viewBox="0.00 0.00 772.00 489.00" xmlns="http://www.w3.org/2000/svg" xmlns:xlink="http://www.w3.org/1999/xlink">
<g id="graph0" class="graph" transform="scale(1 1) rotate(0) translate(4 485)">
<title>AutoIndexHandler::handle</title>
<!-- Node1 -->
<g id="Node000001" class="node">
<title>Node1</title>
<g id="a_Node000001"><a xlink:title="Generates and serves an HTML directory listing when autoindex is enabled.">
<polygon fill="#999999" stroke="#666666" points="143,-256 0,-256 0,-237 143,-237 143,-256"/>
<text text-anchor="middle" x="71.5" y="-244" font-family="Helvetica,sans-Serif" font-size="10.00">AutoIndexHandler::handle</text>
</a>
</g>
</g>
<!-- Node2 -->
<g id="Node000002" class="node">
<title>Node2</title>
<g id="a_Node000002"><a xlink:href="classHttpResponse.html#abb032c16ad3961d50a6582c50c330581" target="_top" xlink:title="Adds a header field to the HTTP response.">
<polygon fill="white" stroke="#666666" points="347,-481 203,-481 203,-462 347,-462 347,-481"/>
<text text-anchor="middle" x="275" y="-469" font-family="Helvetica,sans-Serif" font-size="10.00">HttpResponse::addHeader</text>
</a>
</g>
</g>
<!-- Node1&#45;&gt;Node2 -->
<g id="edge1_Node000001_Node000002" class="edge">
<title>Node1&#45;&gt;Node2</title>
<g id="a_edge1_Node000001_Node000002"><a xlink:title=" ">
<path fill="none" stroke="#63b8ff" d="M74.36,-256.26C81.32,-289.81 109.06,-401.27 179,-453.5 183.46,-456.83 188.35,-459.59 193.49,-461.89"/>
<polygon fill="#63b8ff" stroke="#63b8ff" points="192.39,-465.22 202.98,-465.54 194.9,-458.68 192.39,-465.22"/>
</a>
</g>
</g>
<!-- Node3 -->
<g id="Node000003" class="node">
<title>Node3</title>
<g id="a_Node000003"><a xlink:href="classHttpResponse.html#a22352917aff72615ead5686b7e7b09b8" target="_top" xlink:title="Appends text data to the response body.">
<polygon fill="white" stroke="#666666" points="351,-444 199,-444 199,-425 351,-425 351,-444"/>
<text text-anchor="middle" x="275" y="-432" font-family="Helvetica,sans-Serif" font-size="10.00">HttpResponse::appendBody</text>
</a>
</g>
</g>
<!-- Node1&#45;&gt;Node3 -->
<g id="edge2_Node000001_Node000003" class="edge">
<title>Node1&#45;&gt;Node3</title>
<g id="a_edge2_Node000001_Node000003"><a xlink:title=" ">
<path fill="none" stroke="#63b8ff" d="M75.45,-256.15C85,-285.6 118.03,-374.86 179,-416.5 182.17,-418.66 185.52,-420.58 189.01,-422.29"/>
<polygon fill="#63b8ff" stroke="#63b8ff" points="187.95,-425.63 198.52,-426.31 190.67,-419.19 187.95,-425.63"/>
</a>
</g>
</g>
<!-- Node4 -->
<g id="Node000004" class="node">
<title>Node4</title>
<g id="a_Node000004"><a xlink:href="classAutoIndexHandler.html#ac79e264370e9c6576275fb315d67c5c3" target="_top" xlink:title="Converts a byte size into a human&#45;readable format (B, KB, MB).">
<polygon fill="white" stroke="#666666" points="357,-407 193,-407 193,-388 357,-388 357,-407"/>
<text text-anchor="middle" x="275" y="-395" font-family="Helvetica,sans-Serif" font-size="10.00">AutoIndexHandler::formatSize</text>
</a>
</g>
</g>
<!-- Node1&#45;&gt;Node4 -->
<g id="edge3_Node000001_Node000004" class="edge">
<title>Node1&#45;&gt;Node4</title>
<g id="a_edge3_Node000001_Node000004"><a xlink:title=" ">
<path fill="none" stroke="#63b8ff" d="M77.12,-256.14C89.64,-281.11 126.78,-348.1 179,-379.5 181.81,-381.19 184.73,-382.72 187.75,-384.12"/>
<polygon fill="#63b8ff" stroke="#63b8ff" points="186.45,-387.37 197.04,-387.9 189.1,-380.88 186.45,-387.37"/>
</a>
</g>
</g>
<!-- Node5 -->
<g id="Node000005" class="node">
<title>Node5</title>
<g id="a_Node000005"><a xlink:href="classHttpRequest.html#a9cd740d746bcd7fa6e4fcb8c537879ad" target="_top" xlink:title="Returns the resolved filesystem path corresponding to the URI.">
<polygon fill="white" stroke="#666666" points="357.5,-370 192.5,-370 192.5,-351 357.5,-351 357.5,-370"/>
<text text-anchor="middle" x="275" y="-358" font-family="Helvetica,sans-Serif" font-size="10.00">HttpRequest::getResolvedPath</text>
</a>
</g>
</g>
<!-- Node1&#45;&gt;Node5 -->
<g id="edge4_Node000001_Node000005" class="edge">
<title>Node1&#45;&gt;Node5</title>
<g id="a_edge4_Node000001_Node000005"><a xlink:title=" ">
<path fill="none" stroke="#63b8ff" d="M80.86,-256C97.61,-274.42 137.23,-315.04 179,-336.5 188.17,-341.21 198.33,-345.04 208.49,-348.13"/>
<polygon fill="#63b8ff" stroke="#63b8ff" points="207.62,-351.53 218.2,-350.88 209.53,-344.79 207.62,-351.53"/>
</a>
</g>
</g>
<!-- Node6 -->
<g id="Node000006" class="node">
<title>Node6</title>
<g id="a_Node000006"><a xlink:href="classAutoIndexHandler.html#af0c1d1a4f469e4f4a7739cbb12af2b1d" target="_top" xlink:title="Resolves the template path dynamically based on the executable&#39;s location.">
<polygon fill="white" stroke="#666666" points="371,-294 179,-294 179,-275 371,-275 371,-294"/>
<text text-anchor="middle" x="275" y="-282" font-family="Helvetica,sans-Serif" font-size="10.00">AutoIndexHandler::getTemplatePath</text>
</a>
</g>
</g>
<!-- Node1&#45;&gt;Node6 -->
<g id="edge5_Node000001_Node000006" class="edge">
<title>Node1&#45;&gt;Node6</title>
<g id="a_edge5_Node000001_Node000006"><a xlink:title=" ">
<path fill="none" stroke="#63b8ff" d="M123.09,-256.04C150.51,-261.21 184.6,-267.64 213.43,-273.08"/>
<polygon fill="#63b8ff" stroke="#63b8ff" points="212.92,-276.54 223.39,-274.96 214.21,-269.66 212.92,-276.54"/>
</a>
</g>
</g>
<!-- Node7 -->
<g id="Node000007" class="node">
<title>Node7</title>
<g id="a_Node000007"><a xlink:href="classLogger.html#a4aa4d7c3b98f6e12e7ea8253da5ea0cd" target="_top" xlink:title="Returns the singleton instance of the Logger.">
<polygon fill="white" stroke="#666666" points="543,-294 446,-294 446,-275 543,-275 543,-294"/>
<text text-anchor="middle" x="494.5" y="-282" font-family="Helvetica,sans-Serif" font-size="10.00">Logger::instance</text>
</a>
</g>
</g>
<!-- Node1&#45;&gt;Node7 -->
<g id="edge10_Node000001_Node000007" class="edge">
<title>Node1&#45;&gt;Node7</title>
<g id="a_edge10_Node000001_Node000007"><a xlink:title=" ">
<path fill="none" stroke="#63b8ff" d="M85.4,-256.16C104.61,-269.87 142.39,-294.32 179,-303.5 271.23,-326.63 383.21,-309.59 445.59,-296.27"/>
<polygon fill="#63b8ff" stroke="#63b8ff" points="446.52,-299.65 455.54,-294.08 445.02,-292.81 446.52,-299.65"/>
</a>
</g>
</g>
<!-- Node8 -->
<g id="Node000008" class="node">
<title>Node8</title>
<g id="a_Node000008"><a xlink:href="classLogger.html#a3d3f0801eeaf39b33a906ea8569c19b2" target="_top" xlink:title="Writes a log entry with timestamp, level, and message.">
<polygon fill="white" stroke="#666666" points="530,-256 459,-256 459,-237 530,-237 530,-256"/>
<text text-anchor="middle" x="494.5" y="-244" font-family="Helvetica,sans-Serif" font-size="10.00">Logger::log</text>
</a>
</g>
</g>
<!-- Node1&#45;&gt;Node8 -->
<g id="edge15_Node000001_Node000008" class="edge">
<title>Node1&#45;&gt;Node8</title>
<g id="a_edge15_Node000001_Node000008"><a xlink:title=" ">
<path fill="none" stroke="#63b8ff" d="M143.44,-246.5C230.55,-246.5 375.69,-246.5 448.68,-246.5"/>
<polygon fill="#63b8ff" stroke="#63b8ff" points="448.91,-250 458.91,-246.5 448.91,-243 448.91,-250"/>
</a>
</g>
</g>
<!-- Node10 -->
<g id="Node000010" class="node">
<title>Node10</title>
<g id="a_Node000010"><a xlink:href="classHttpRequest.html#a658d90f4dd4080c30c99c463c082abc8" target="_top" xlink:title=" ">
<polygon fill="white" stroke="#666666" points="331.5,-142 218.5,-142 218.5,-123 331.5,-123 331.5,-142"/>
<text text-anchor="middle" x="275" y="-130" font-family="Helvetica,sans-Serif" font-size="10.00">HttpRequest::getUri</text>
</a>
</g>
</g>
<!-- Node1&#45;&gt;Node10 -->
<g id="edge9_Node000001_Node000010" class="edge">
<title>Node1&#45;&gt;Node10</title>
<g id="a_edge9_Node000001_Node000010"><a xlink:title=" ">
<path fill="none" stroke="#63b8ff" d="M80.86,-237C97.61,-218.58 137.23,-177.96 179,-156.5 188.17,-151.79 198.33,-147.96 208.49,-144.87"/>
<polygon fill="#63b8ff" stroke="#63b8ff" points="209.53,-148.21 218.2,-142.12 207.62,-141.47 209.53,-148.21"/>
</a>
</g>
</g>
<!-- Node11 -->
<g id="Node000011" class="node">
<title>Node11</title>
<g id="a_Node000011"><a xlink:href="classAutoIndexHandler.html#a06fa3762ffa8ebcc361e39f69e72b696" target="_top" xlink:title="Loads the HTML template for autoindex listing from disk.">
<polygon fill="white" stroke="#666666" points="363,-218 187,-218 187,-199 363,-199 363,-218"/>
<text text-anchor="middle" x="275" y="-206" font-family="Helvetica,sans-Serif" font-size="10.00">AutoIndexHandler::loadTemplate</text>
</a>
</g>
</g>
<!-- Node1&#45;&gt;Node11 -->
<g id="edge11_Node000001_Node000011" class="edge">
<title>Node1&#45;&gt;Node11</title>
<g id="a_edge11_Node000001_Node000011"><a xlink:title=" ">
<path fill="none" stroke="#63b8ff" d="M123.09,-236.96C150.51,-231.79 184.6,-225.36 213.43,-219.92"/>
<polygon fill="#63b8ff" stroke="#63b8ff" points="214.21,-223.34 223.39,-218.04 212.92,-216.46 214.21,-223.34"/>
</a>
</g>
</g>
<!-- Node12 -->
<g id="Node000012" class="node">
<title>Node12</title>
<g id="a_Node000012"><a xlink:href="string__utils_8hpp.html#ad735976365693b45c427000fe042e173" target="_top" xlink:title="Converts any printable type to a string representation.">
<polygon fill="white" stroke="#666666" points="522,-199 467,-199 467,-180 522,-180 522,-199"/>
<text text-anchor="middle" x="494.5" y="-187" font-family="Helvetica,sans-Serif" font-size="10.00">toString</text>
</a>
</g>
</g>
<!-- Node1&#45;&gt;Node12 -->
<g id="edge20_Node000001_Node000012" class="edge">
<title>Node1&#45;&gt;Node12</title>
<g id="a_edge20_Node000001_Node000012"><a xlink:title=" ">
<path fill="none" stroke="#63b8ff" d="M85.76,-236.8C105.1,-223.31 142.71,-199.52 179,-190.5 276.97,-166.15 397.48,-176.45 456.87,-184.05"/>
<polygon fill="#63b8ff" stroke="#63b8ff" points="456.51,-187.54 466.89,-185.38 457.43,-180.6 456.51,-187.54"/>
</a>
</g>
</g>
<!-- Node13 -->
<g id="Node000013" class="node">
<title>Node13</title>
<g id="a_Node000013"><a xlink:href="classAutoIndexHandler.html#a0dcbd0504c1e39bbe584d45821e7856d" target="_top" xlink:title="Replaces a single placeholder tag in the HTML template.">
<polygon fill="white" stroke="#666666" points="348,-104.5 202,-104.5 202,-74.5 348,-74.5 348,-104.5"/>
<text text-anchor="start" x="210" y="-92.5" font-family="Helvetica,sans-Serif" font-size="10.00">AutoIndexHandler::replace</text>
<text text-anchor="middle" x="275" y="-81.5" font-family="Helvetica,sans-Serif" font-size="10.00">Placeholder</text>
</a>
</g>
</g>
<!-- Node1&#45;&gt;Node13 -->
<g id="edge16_Node000001_Node000013" class="edge">
<title>Node1&#45;&gt;Node13</title>
<g id="a_edge16_Node000001_Node000013"><a xlink:title=" ">
<path fill="none" stroke="#63b8ff" d="M77.46,-236.78C90.52,-212.22 128.33,-147.31 179,-114.5 183.27,-111.73 187.84,-109.27 192.58,-107.08"/>
<polygon fill="#63b8ff" stroke="#63b8ff" points="193.99,-110.28 201.87,-103.19 191.29,-103.83 193.99,-110.28"/>
</a>
</g>
</g>
<!-- Node14 -->
<g id="Node000014" class="node">
<title>Node14</title>
<g id="a_Node000014"><a xlink:href="classHttpResponse.html#af02b3b82a638bfbf23226b9f3bf06843" target="_top" xlink:title="Sets the HTTP status code and updates the corresponding reason phrase.">
<polygon fill="white" stroke="#666666" points="355.5,-56 194.5,-56 194.5,-37 355.5,-37 355.5,-56"/>
<text text-anchor="middle" x="275" y="-44" font-family="Helvetica,sans-Serif" font-size="10.00">HttpResponse::setStatusCode</text>
</a>
</g>
</g>
<!-- Node1&#45;&gt;Node14 -->
<g id="edge17_Node000001_Node000014" class="edge">
<title>Node1&#45;&gt;Node14</title>
<g id="a_edge17_Node000001_Node000014"><a xlink:title=" ">
<path fill="none" stroke="#63b8ff" d="M75.15,-236.71C84.01,-205.92 115.71,-110.51 179,-65.5 181.59,-63.66 184.31,-61.99 187.14,-60.47"/>
<polygon fill="#63b8ff" stroke="#63b8ff" points="188.88,-63.52 196.47,-56.12 185.92,-57.17 188.88,-63.52"/>
</a>
</g>
</g>
<!-- Node17 -->
<g id="Node000017" class="node">
<title>Node17</title>
<g id="a_Node000017"><a xlink:href="string__utils_8hpp.html#a4408f0c67e5adf4b8c58c34229e68775" target="_top" xlink:title="Encodes a string for safe inclusion in a URI (percent&#45;encoding).">
<polygon fill="white" stroke="#666666" points="307.5,-19 242.5,-19 242.5,0 307.5,0 307.5,-19"/>
<text text-anchor="middle" x="275" y="-7" font-family="Helvetica,sans-Serif" font-size="10.00">uriEncode</text>
</a>
</g>
</g>
<!-- Node1&#45;&gt;Node17 -->
<g id="edge21_Node000001_Node000017" class="edge">
<title>Node1&#45;&gt;Node17</title>
<g id="a_edge21_Node000001_Node000017"><a xlink:title=" ">
<path fill="none" stroke="#63b8ff" d="M74.09,-236.68C80.27,-201.83 106.12,-83.22 179,-27.5 194.12,-15.94 214.48,-11.09 232.48,-9.27"/>
<polygon fill="#63b8ff" stroke="#63b8ff" points="232.74,-12.76 242.46,-8.54 232.23,-5.78 232.74,-12.76"/>
</a>
</g>
</g>
<!-- Node6&#45;&gt;Node7 -->
<g id="edge6_Node000006_Node000007" class="edge">
<title>Node6&#45;&gt;Node7</title>
<g id="a_edge6_Node000006_Node000007"><a xlink:title=" ">
<path fill="none" stroke="#63b8ff" d="M371.08,-284.5C393.08,-284.5 415.84,-284.5 435.68,-284.5"/>
<polygon fill="#63b8ff" stroke="#63b8ff" points="435.76,-288 445.76,-284.5 435.76,-281 435.76,-288"/>
</a>
</g>
</g>
<!-- Node6&#45;&gt;Node8 -->
<g id="edge7_Node000006_Node000008" class="edge">
<title>Node6&#45;&gt;Node8</title>
<g id="a_edge7_Node000006_Node000008"><a xlink:title=" ">
<path fill="none" stroke="#63b8ff" d="M330.6,-274.96C367.1,-268.58 414.51,-260.3 448.76,-254.32"/>
<polygon fill="#63b8ff" stroke="#63b8ff" points="449.7,-257.71 458.95,-252.54 448.49,-250.81 449.7,-257.71"/>
</a>
</g>
</g>
<!-- Node9 -->
<g id="Node000009" class="node">
<title>Node9</title>
<g id="a_Node000009"><a xlink:href="classLogger.html#a19f9ef22095a67c9fe420c9d6e761fc2" target="_top" xlink:title="Converts a LogLevel enum value to its string label.">
<polygon fill="white" stroke="#666666" points="750.5,-256 631.5,-256 631.5,-237 750.5,-237 750.5,-256"/>
<text text-anchor="middle" x="691" y="-244" font-family="Helvetica,sans-Serif" font-size="10.00">Logger::levelToString</text>
</a>
</g>
</g>
<!-- Node8&#45;&gt;Node9 -->
<g id="edge8_Node000008_Node000009" class="edge">
<title>Node8&#45;&gt;Node9</title>
<g id="a_edge8_Node000008_Node000009"><a xlink:title=" ">
<path fill="none" stroke="#63b8ff" d="M530.27,-246.5C555.4,-246.5 590.19,-246.5 620.88,-246.5"/>
<polygon fill="#63b8ff" stroke="#63b8ff" points="621.12,-250 631.12,-246.5 621.12,-243 621.12,-250"/>
</a>
</g>
</g>
<!-- Node11&#45;&gt;Node7 -->
<g id="edge12_Node000011_Node000007" class="edge">
<title>Node11&#45;&gt;Node7</title>
<g id="a_edge12_Node000011_Node000007"><a xlink:title=" ">
<path fill="none" stroke="#63b8ff" d="M295.07,-218.2C320.18,-230.65 365.94,-252.2 407,-265.5 416.23,-268.49 426.16,-271.16 435.89,-273.49"/>
<polygon fill="#63b8ff" stroke="#63b8ff" points="435.39,-276.96 445.92,-275.78 436.95,-270.14 435.39,-276.96"/>
</a>
</g>
</g>
<!-- Node11&#45;&gt;Node8 -->
<g id="edge13_Node000011_Node000008" class="edge">
<title>Node11&#45;&gt;Node8</title>
<g id="a_edge13_Node000011_Node000008"><a xlink:title=" ">
<path fill="none" stroke="#63b8ff" d="M330.6,-218.04C367.1,-224.42 414.51,-232.7 448.76,-238.68"/>
<polygon fill="#63b8ff" stroke="#63b8ff" points="448.49,-242.19 458.95,-240.46 449.7,-235.29 448.49,-242.19"/>
</a>
</g>
</g>
<!-- Node11&#45;&gt;Node12 -->
<g id="edge14_Node000011_Node000012" class="edge">
<title>Node11&#45;&gt;Node12</title>
<g id="a_edge14_Node000011_Node000012"><a xlink:title=" ">
<path fill="none" stroke="#63b8ff" d="M363.21,-200.88C395.83,-198.03 431.14,-194.95 456.76,-192.71"/>
<polygon fill="#63b8ff" stroke="#63b8ff" points="457.11,-196.19 466.77,-191.84 456.5,-189.22 457.11,-196.19"/>
</a>
</g>
</g>
<!-- Node15 -->
<g id="Node000015" class="node">
<title>Node15</title>
<g id="a_Node000015"><a xlink:href="classHttpResponse.html#a98bb39b2757912eae4f667db80e3e6a4" target="_top" xlink:title="Sets the textual reason phrase for a given status code.">
<polygon fill="white" stroke="#666666" points="582,-56 407,-56 407,-37 582,-37 582,-56"/>
<text text-anchor="middle" x="494.5" y="-44" font-family="Helvetica,sans-Serif" font-size="10.00">HttpResponse::setReasonPhrase</text>
</a>
</g>
</g>
<!-- Node14&#45;&gt;Node15 -->
<g id="edge18_Node000014_Node000015" class="edge">
<title>Node14&#45;&gt;Node15</title>
<g id="a_edge18_Node000014_Node000015"><a xlink:title=" ">
<path fill="none" stroke="#63b8ff" d="M355.75,-46.5C368.99,-46.5 382.84,-46.5 396.45,-46.5"/>
<polygon fill="#63b8ff" stroke="#63b8ff" points="396.79,-50 406.79,-46.5 396.79,-43 396.79,-50"/>
</a>
</g>
</g>
<!-- Node16 -->
<g id="Node000016" class="node">
<title>Node16</title>
<g id="a_Node000016"><a xlink:href="classHttpResponse.html#ae09f25f31d917b068fae8bbf07b29c19" target="_top" xlink:title="Converts an HTTP status code to its standard reason phrase string.">
<polygon fill="white" stroke="#666666" points="764,-61.5 618,-61.5 618,-31.5 764,-31.5 764,-61.5"/>
<text text-anchor="start" x="626" y="-49.5" font-family="Helvetica,sans-Serif" font-size="10.00">HttpResponse::statusCode</text>
<text text-anchor="middle" x="691" y="-38.5" font-family="Helvetica,sans-Serif" font-size="10.00">ToString</text>
</a>
</g>
</g>
<!-- Node15&#45;&gt;Node16 -->
<g id="edge19_Node000015_Node000016" class="edge">
<title>Node15&#45;&gt;Node16</title>
<g id="a_edge19_Node000015_Node000016"><a xlink:title=" ">
<path fill="none" stroke="#63b8ff" d="M582.23,-46.5C590.72,-46.5 599.33,-46.5 607.78,-46.5"/>
<polygon fill="#63b8ff" stroke="#63b8ff" points="608,-50 618,-46.5 608,-43 608,-50"/>
</a>
</g>
</g>
</g>
</svg>
