<?xml version="1.0" encoding="UTF-8" standalone="no"?>
<!DOCTYPE svg PUBLIC "-//W3C//DTD SVG 1.1//EN"
 "http://www.w3.org/Graphics/SVG/1.1/DTD/svg11.dtd">
<!-- Generated by graphviz version 2.43.0 (0)
 -->
<!-- Title: WebServer::sendResponse Pages: 1 -->
<!--zoomable 435 -->

<svg id="main" version="1.1" xmlns="http://www.w3.org/2000/svg" xmlns:xlink="http://www.w3.org/1999/xlink" xml:space="preserve" onload="init(evt)">
<style type="text/css"><![CDATA[
.node, .edge {opacity: 0.7;}
.node.selected, .edge.selected {opacity: 1;}
.edge:hover path { stroke: red; }
.edge:hover polygon { stroke: red; fill: red; }
]]></style>

<defs>
  <circle id="rim" cx="0" cy="0" r="7"/>
  <circle id="rim2" cx="0" cy="0" r="3.5"/>
  <g id="zoomPlus">
    <use xlink:href="#rim" fill="#404040"><set attributeName="fill" to="#808080" begin="zoomplus.mouseover" end="zoomplus.mouseout"/></use>
    <path d="M-4,0h8M0,-4v8" fill="none" stroke="white" stroke-width="1.5" pointer-events="none"/>
  </g>
  <g id="zoomMin">
    <use xlink:href="#rim" fill="#404040"><set attributeName="fill" to="#808080" begin="zoomminus.mouseover" end="zoomminus.mouseout"/></use>
    <path d="M-4,0h8" fill="none" stroke="white" stroke-width="1.5" pointer-events="none"/>
  </g>
  <g id="arrowUp" transform="translate(30 24)">
    <use xlink:href="#rim"/>
    <path pointer-events="none" fill="none" stroke="white" stroke-width="1.5" d="M0,-3.0v7 M-2.5,-0.5L0,-3.0L2.5,-0.5"/>
  </g>
  <g id="arrowRight" transform="rotate(90) translate(36 -43)">
    <use xlink:href="#rim"/>
    <path pointer-events="none" fill="none" stroke="white" stroke-width="1.5" d="M0,-3.0v7 M-2.5,-0.5L0,-3.0L2.5,-0.5"/>
  </g>
  <g id="arrowDown" transform="rotate(180) translate(-30 -48)">
    <use xlink:href="#rim"/>
    <path pointer-events="none" fill="none" stroke="white" stroke-width="1.5" d="M0,-3.0v7 M-2.5,-0.5L0,-3.0L2.5,-0.5"/>
  </g>
  <g id="arrowLeft" transform="rotate(270) translate(-36 17)">
    <use xlink:href="#rim"/>
    <path pointer-events="none" fill="none" stroke="white" stroke-width="1.5" d="M0,-3.0v7 M-2.5,-0.5L0,-3.0L2.5,-0.5"/>
  </g>
  <g id="resetDef">
    <use xlink:href="#rim2" fill="#404040"><set attributeName="fill" to="#808080" begin="reset.mouseover" end="reset.mouseout"/></use>
  </g>
</defs>
<script type="application/ecmascript">
var viewWidth = 746;
var viewHeight = 435;
var sectionId = 'dynsection-5';
</script>
<script type="application/ecmascript" xlink:href="svg.min.js"/>
<svg id="graph" class="graph">
<g id="viewport">
<title>WebServer::sendResponse</title>
<!-- Node1 -->
<g id="Node000001" class="node">
<title>Node1</title>
<g id="a_Node000001"><a xlink:title="Sends buffered response data to a connected client.">
<polygon fill="#999999" stroke="#666666" points="146,-239.5 0,-239.5 0,-220.5 146,-220.5 146,-239.5"/>
<text text-anchor="middle" x="73" y="-227.5" font-family="Helvetica,sans-Serif" font-size="10.00">WebServer::sendResponse</text>
</a>
</g>
</g>
<!-- Node2 -->
<g id="Node000002" class="node">
<title>Node2</title>
<g id="a_Node000002"><a xlink:href="classClientConnection.html#a20bd376cb881d6257fdd83f1cd709b70" target="_top" xlink:title="Clears the pending request buffer.">
<polygon fill="white" stroke="#666666" points="359.5,-391.5 200.5,-391.5 200.5,-372.5 359.5,-372.5 359.5,-391.5"/>
<text text-anchor="middle" x="280" y="-379.5" font-family="Helvetica,sans-Serif" font-size="10.00">ClientConnection::clearBuffer</text>
</a>
</g>
</g>
<!-- Node1&#45;&gt;Node2 -->
<g id="edge1_Node000001_Node000002" class="edge">
<title>Node1&#45;&gt;Node2</title>
<g id="a_edge1_Node000001_Node000002"><a xlink:title=" ">
<path fill="none" stroke="#63b8ff" d="M79.32,-239.82C92.96,-264 131.63,-326.68 182,-358 189.44,-362.63 197.72,-366.36 206.22,-369.37"/>
<polygon fill="#63b8ff" stroke="#63b8ff" points="205.28,-372.75 215.87,-372.48 207.42,-366.09 205.28,-372.75"/>
</a>
</g>
</g>
<!-- Node3 -->
<g id="Node000003" class="node">
<title>Node3</title>
<g id="a_Node000003"><a xlink:href="classLogger.html#a4aa4d7c3b98f6e12e7ea8253da5ea0cd" target="_top" xlink:title="Returns the singleton instance of the Logger.">
<polygon fill="white" stroke="#666666" points="547,-390.5 450,-390.5 450,-371.5 547,-371.5 547,-390.5"/>
<text text-anchor="middle" x="498.5" y="-378.5" font-family="Helvetica,sans-Serif" font-size="10.00">Logger::instance</text>
</a>
</g>
</g>
<!-- Node1&#45;&gt;Node3 -->
<g id="edge9_Node000001_Node000003" class="edge">
<title>Node1&#45;&gt;Node3</title>
<g id="a_edge9_Node000001_Node000003"><a xlink:title=" ">
<path fill="none" stroke="#63b8ff" d="M76.57,-239.8C85.23,-270.49 116.5,-364.9 182,-401 273.75,-451.57 404.07,-415.61 464.45,-394.04"/>
<polygon fill="#63b8ff" stroke="#63b8ff" points="465.68,-397.32 473.86,-390.59 463.27,-390.75 465.68,-397.32"/>
</a>
</g>
</g>
<!-- Node4 -->
<g id="Node000004" class="node">
<title>Node4</title>
<g id="a_Node000004"><a xlink:href="classLogger.html#a3d3f0801eeaf39b33a906ea8569c19b2" target="_top" xlink:title="Writes a log entry with timestamp, level, and message.">
<polygon fill="white" stroke="#666666" points="534,-352.5 463,-352.5 463,-333.5 534,-333.5 534,-352.5"/>
<text text-anchor="middle" x="498.5" y="-340.5" font-family="Helvetica,sans-Serif" font-size="10.00">Logger::log</text>
</a>
</g>
</g>
<!-- Node1&#45;&gt;Node4 -->
<g id="edge10_Node000001_Node000004" class="edge">
<title>Node1&#45;&gt;Node4</title>
<g id="a_edge10_Node000001_Node000004"><a xlink:title=" ">
<path fill="none" stroke="#63b8ff" d="M81.07,-239.53C96.67,-259.67 136.25,-306.24 182,-325 272.4,-362.08 389.7,-356.28 452.74,-349.32"/>
<polygon fill="#63b8ff" stroke="#63b8ff" points="453.22,-352.78 462.74,-348.15 452.41,-345.83 453.22,-352.78"/>
</a>
</g>
</g>
<!-- Node6 -->
<g id="Node000006" class="node">
<title>Node6</title>
<g id="a_Node000006"><a xlink:href="classClientConnection.html#a5b90a3b273d782b56307fd371779e57c" target="_top" xlink:title=" ">
<polygon fill="white" stroke="#666666" points="566,-223.5 431,-223.5 431,-204.5 566,-204.5 566,-223.5"/>
<text text-anchor="middle" x="498.5" y="-211.5" font-family="Helvetica,sans-Serif" font-size="10.00">ClientConnection::getFD</text>
</a>
</g>
</g>
<!-- Node1&#45;&gt;Node6 -->
<g id="edge5_Node000001_Node000006" class="edge">
<title>Node1&#45;&gt;Node6</title>
<g id="a_edge5_Node000001_Node000006"><a xlink:title=" ">
<path fill="none" stroke="#63b8ff" d="M120.84,-220.46C139.74,-217.07 161.82,-213.67 182,-212 263.35,-205.27 356.91,-207.05 420.89,-209.72"/>
<polygon fill="#63b8ff" stroke="#63b8ff" points="420.75,-213.21 430.89,-210.15 421.06,-206.22 420.75,-213.21"/>
</a>
</g>
</g>
<!-- Node7 -->
<g id="Node000007" class="node">
<title>Node7</title>
<g id="a_Node000007"><a xlink:href="classClientConnection.html#a4b8b0b92dcf541f45fb60eaa04d07f98" target="_top" xlink:title=" ">
<polygon fill="white" stroke="#666666" points="353,-126 207,-126 207,-96 353,-96 353,-126"/>
<text text-anchor="start" x="215" y="-114" font-family="Helvetica,sans-Serif" font-size="10.00">ClientConnection::getKeep</text>
<text text-anchor="middle" x="280" y="-103" font-family="Helvetica,sans-Serif" font-size="10.00">Alive</text>
</a>
</g>
</g>
<!-- Node1&#45;&gt;Node7 -->
<g id="edge6_Node000001_Node000007" class="edge">
<title>Node1&#45;&gt;Node7</title>
<g id="a_edge6_Node000001_Node000007"><a xlink:title=" ">
<path fill="none" stroke="#63b8ff" d="M82.86,-220.38C100.19,-202.12 140.5,-162.28 182,-140 189.4,-136.03 197.42,-132.53 205.57,-129.46"/>
<polygon fill="#63b8ff" stroke="#63b8ff" points="206.91,-132.7 215.17,-126.06 204.57,-126.1 206.91,-132.7"/>
</a>
</g>
</g>
<!-- Node8 -->
<g id="Node000008" class="node">
<title>Node8</title>
<g id="a_Node000008"><a xlink:href="classClientConnection.html#a2f8a4311d678e06bcd23abd3b7f605a9" target="_top" xlink:title=" ">
<polygon fill="white" stroke="#666666" points="583,-178 414,-178 414,-148 583,-148 583,-178"/>
<text text-anchor="start" x="422" y="-166" font-family="Helvetica,sans-Serif" font-size="10.00">ClientConnection::getResponse</text>
<text text-anchor="middle" x="498.5" y="-155" font-family="Helvetica,sans-Serif" font-size="10.00">Buffer</text>
</a>
</g>
</g>
<!-- Node1&#45;&gt;Node8 -->
<g id="edge7_Node000001_Node000008" class="edge">
<title>Node1&#45;&gt;Node8</title>
<g id="a_edge7_Node000001_Node000008"><a xlink:title=" ">
<path fill="none" stroke="#63b8ff" d="M107.82,-220.45C129,-214.74 156.93,-207.71 182,-203 255.89,-189.13 340.44,-178.7 403.4,-171.97"/>
<polygon fill="#63b8ff" stroke="#63b8ff" points="404.13,-175.41 413.71,-170.88 403.4,-168.45 404.13,-175.41"/>
</a>
</g>
</g>
<!-- Node9 -->
<g id="Node000009" class="node">
<title>Node9</title>
<g id="a_Node000009"><a xlink:href="classClientConnection.html#a5f3adea4749660acc050e64f5a57e2dc" target="_top" xlink:title=" ">
<polygon fill="white" stroke="#666666" points="351.5,-78 208.5,-78 208.5,-48 351.5,-48 351.5,-78"/>
<text text-anchor="start" x="216.5" y="-66" font-family="Helvetica,sans-Serif" font-size="10.00">ClientConnection::getSent</text>
<text text-anchor="middle" x="280" y="-55" font-family="Helvetica,sans-Serif" font-size="10.00">Bytes</text>
</a>
</g>
</g>
<!-- Node1&#45;&gt;Node9 -->
<g id="edge8_Node000001_Node000009" class="edge">
<title>Node1&#45;&gt;Node9</title>
<g id="a_edge8_Node000001_Node000009"><a xlink:title=" ">
<path fill="none" stroke="#63b8ff" d="M78.45,-220.19C90.81,-194.07 128.25,-122.47 182,-87 187.27,-83.52 193.01,-80.54 198.97,-78"/>
<polygon fill="#63b8ff" stroke="#63b8ff" points="200.41,-81.2 208.49,-74.35 197.9,-74.66 200.41,-81.2"/>
</a>
</g>
</g>
<!-- Node10 -->
<g id="Node000010" class="node">
<title>Node10</title>
<g id="a_Node000010"><a xlink:href="classWebServer.html#a4229c99fb202be210f93cbde92a560b0" target="_top" xlink:title="Removes a client connection and cleans up associated poll entry.">
<polygon fill="white" stroke="#666666" points="378,-315.5 182,-315.5 182,-296.5 378,-296.5 378,-315.5"/>
<text text-anchor="middle" x="280" y="-303.5" font-family="Helvetica,sans-Serif" font-size="10.00">WebServer::removeClientConnection</text>
</a>
</g>
</g>
<!-- Node1&#45;&gt;Node10 -->
<g id="edge11_Node000001_Node000010" class="edge">
<title>Node1&#45;&gt;Node10</title>
<g id="a_edge11_Node000001_Node000010"><a xlink:title=" ">
<path fill="none" stroke="#63b8ff" d="M91.11,-239.6C112.01,-251.02 148.71,-270.01 182,-282 194.75,-286.59 208.74,-290.61 222.04,-293.99"/>
<polygon fill="#63b8ff" stroke="#63b8ff" points="221.49,-297.46 232.04,-296.44 223.16,-290.66 221.49,-297.46"/>
</a>
</g>
</g>
<!-- Node12 -->
<g id="Node000012" class="node">
<title>Node12</title>
<g id="a_Node000012"><a xlink:href="string__utils_8hpp.html#ad735976365693b45c427000fe042e173" target="_top" xlink:title="Converts any printable type to a string representation.">
<polygon fill="white" stroke="#666666" points="526,-277.5 471,-277.5 471,-258.5 526,-258.5 526,-277.5"/>
<text text-anchor="middle" x="498.5" y="-265.5" font-family="Helvetica,sans-Serif" font-size="10.00">toString</text>
</a>
</g>
</g>
<!-- Node1&#45;&gt;Node12 -->
<g id="edge23_Node000001_Node000012" class="edge">
<title>Node1&#45;&gt;Node12</title>
<g id="a_edge23_Node000001_Node000012"><a xlink:title=" ">
<path fill="none" stroke="#63b8ff" d="M121.41,-239.55C140.2,-243.01 162.05,-246.65 182,-249 282.3,-260.8 401.45,-265.46 460.51,-267.14"/>
<polygon fill="#63b8ff" stroke="#63b8ff" points="460.73,-270.65 470.82,-267.42 460.92,-263.65 460.73,-270.65"/>
</a>
</g>
</g>
<!-- Node13 -->
<g id="Node000013" class="node">
<title>Node13</title>
<g id="a_Node000013"><a xlink:href="classClientConnection.html#abbef9ce451a487c2961910457915824e" target="_top" xlink:title="Sends response data to the client.">
<polygon fill="white" stroke="#666666" points="356,-239.5 204,-239.5 204,-220.5 356,-220.5 356,-239.5"/>
<text text-anchor="middle" x="280" y="-227.5" font-family="Helvetica,sans-Serif" font-size="10.00">ClientConnection::sendData</text>
</a>
</g>
</g>
<!-- Node1&#45;&gt;Node13 -->
<g id="edge16_Node000001_Node000013" class="edge">
<title>Node1&#45;&gt;Node13</title>
<g id="a_edge16_Node000001_Node000013"><a xlink:title=" ">
<path fill="none" stroke="#63b8ff" d="M146.28,-230C161.59,-230 177.9,-230 193.65,-230"/>
<polygon fill="#63b8ff" stroke="#63b8ff" points="193.91,-233.5 203.91,-230 193.91,-226.5 193.91,-233.5"/>
</a>
</g>
</g>
<!-- Node14 -->
<g id="Node000014" class="node">
<title>Node14</title>
<g id="a_Node000014"><a xlink:href="classClientConnection.html#a590269f3f8005c64161c043c7bd58de5" target="_top" xlink:title=" ">
<polygon fill="white" stroke="#666666" points="351.5,-30 208.5,-30 208.5,0 351.5,0 351.5,-30"/>
<text text-anchor="start" x="216.5" y="-18" font-family="Helvetica,sans-Serif" font-size="10.00">ClientConnection::setSent</text>
<text text-anchor="middle" x="280" y="-7" font-family="Helvetica,sans-Serif" font-size="10.00">Bytes</text>
</a>
</g>
</g>
<!-- Node1&#45;&gt;Node14 -->
<g id="edge22_Node000001_Node000014" class="edge">
<title>Node1&#45;&gt;Node14</title>
<g id="a_edge22_Node000001_Node000014"><a xlink:title=" ">
<path fill="none" stroke="#63b8ff" d="M76.52,-220.24C85.23,-188.64 117.07,-88.29 182,-39 187.12,-35.11 192.8,-31.84 198.75,-29.1"/>
<polygon fill="#63b8ff" stroke="#63b8ff" points="200.37,-32.22 208.31,-25.21 197.73,-25.74 200.37,-32.22"/>
</a>
</g>
</g>
<!-- Node2&#45;&gt;Node3 -->
<g id="edge2_Node000002_Node000003" class="edge">
<title>Node2&#45;&gt;Node3</title>
<g id="a_edge2_Node000002_Node000003"><a xlink:title=" ">
<path fill="none" stroke="#63b8ff" d="M359.77,-381.64C386.22,-381.51 415.21,-381.38 439.74,-381.27"/>
<polygon fill="#63b8ff" stroke="#63b8ff" points="439.98,-384.77 449.96,-381.22 439.94,-377.77 439.98,-384.77"/>
</a>
</g>
</g>
<!-- Node2&#45;&gt;Node4 -->
<g id="edge3_Node000002_Node000004" class="edge">
<title>Node2&#45;&gt;Node4</title>
<g id="a_edge3_Node000002_Node000004"><a xlink:title=" ">
<path fill="none" stroke="#63b8ff" d="M333.96,-372.46C370.38,-365.9 418.21,-357.28 452.72,-351.07"/>
<polygon fill="#63b8ff" stroke="#63b8ff" points="453.76,-354.44 462.98,-349.22 452.52,-347.55 453.76,-354.44"/>
</a>
</g>
</g>
<!-- Node5 -->
<g id="Node000005" class="node">
<title>Node5</title>
<g id="a_Node000005"><a xlink:href="classLogger.html#a19f9ef22095a67c9fe420c9d6e761fc2" target="_top" xlink:title="Converts a LogLevel enum value to its string label.">
<polygon fill="white" stroke="#666666" points="738,-352.5 619,-352.5 619,-333.5 738,-333.5 738,-352.5"/>
<text text-anchor="middle" x="678.5" y="-340.5" font-family="Helvetica,sans-Serif" font-size="10.00">Logger::levelToString</text>
</a>
</g>
</g>
<!-- Node4&#45;&gt;Node5 -->
<g id="edge4_Node000004_Node000005" class="edge">
<title>Node4&#45;&gt;Node5</title>
<g id="a_edge4_Node000004_Node000005"><a xlink:title=" ">
<path fill="none" stroke="#63b8ff" d="M534.24,-343C555.32,-343 582.96,-343 608.33,-343"/>
<polygon fill="#63b8ff" stroke="#63b8ff" points="608.66,-346.5 618.66,-343 608.66,-339.5 608.66,-346.5"/>
</a>
</g>
</g>
<!-- Node10&#45;&gt;Node3 -->
<g id="edge12_Node000010_Node000003" class="edge">
<title>Node10&#45;&gt;Node3</title>
<g id="a_edge12_Node000010_Node000003"><a xlink:title=" ">
<path fill="none" stroke="#63b8ff" d="M300.86,-315.66C326.51,-327.82 372.74,-348.73 414,-362 422.33,-364.68 431.24,-367.13 440.03,-369.32"/>
<polygon fill="#63b8ff" stroke="#63b8ff" points="439.32,-372.75 449.86,-371.67 440.95,-365.94 439.32,-372.75"/>
</a>
</g>
</g>
<!-- Node10&#45;&gt;Node4 -->
<g id="edge13_Node000010_Node000004" class="edge">
<title>Node10&#45;&gt;Node4</title>
<g id="a_edge13_Node000010_Node000004"><a xlink:title=" ">
<path fill="none" stroke="#63b8ff" d="M336.75,-315.53C372.86,-321.7 419.25,-329.63 452.9,-335.38"/>
<polygon fill="#63b8ff" stroke="#63b8ff" points="452.47,-338.85 462.91,-337.09 453.65,-331.95 452.47,-338.85"/>
</a>
</g>
</g>
<!-- Node11 -->
<g id="Node000011" class="node">
<title>Node11</title>
<g id="a_Node000011"><a xlink:href="classWebServer.html#ab3ae1ee99bdea0520245ed9bc2d5d597" target="_top" xlink:title="Removes a CGI FD from poll() monitoring.">
<polygon fill="white" stroke="#666666" points="577.5,-315.5 419.5,-315.5 419.5,-296.5 577.5,-296.5 577.5,-315.5"/>
<text text-anchor="middle" x="498.5" y="-303.5" font-family="Helvetica,sans-Serif" font-size="10.00">WebServer::removeCgiPollFd</text>
</a>
</g>
</g>
<!-- Node10&#45;&gt;Node11 -->
<g id="edge14_Node000010_Node000011" class="edge">
<title>Node10&#45;&gt;Node11</title>
<g id="a_edge14_Node000010_Node000011"><a xlink:title=" ">
<path fill="none" stroke="#63b8ff" d="M378.17,-306C388.54,-306 399.04,-306 409.3,-306"/>
<polygon fill="#63b8ff" stroke="#63b8ff" points="409.46,-309.5 419.46,-306 409.46,-302.5 409.46,-309.5"/>
</a>
</g>
</g>
<!-- Node10&#45;&gt;Node12 -->
<g id="edge15_Node000010_Node000012" class="edge">
<title>Node10&#45;&gt;Node12</title>
<g id="a_edge15_Node000010_Node000012"><a xlink:title=" ">
<path fill="none" stroke="#63b8ff" d="M335.35,-296.46C374.51,-289.59 426.31,-280.49 460.71,-274.46"/>
<polygon fill="#63b8ff" stroke="#63b8ff" points="461.55,-277.86 470.79,-272.69 460.34,-270.97 461.55,-277.86"/>
</a>
</g>
</g>
<!-- Node13&#45;&gt;Node3 -->
<g id="edge19_Node000013_Node000003" class="edge">
<title>Node13&#45;&gt;Node3</title>
<g id="a_edge19_Node000013_Node000003"><a xlink:title=" ">
<path fill="none" stroke="#63b8ff" d="M305.2,-239.68C326.62,-249.27 357.57,-265.73 378,-288 402.72,-314.95 385.35,-339.26 414,-362 421.52,-367.97 430.56,-372.13 439.87,-375.03"/>
<polygon fill="#63b8ff" stroke="#63b8ff" points="439.06,-378.43 449.62,-377.6 440.85,-371.67 439.06,-378.43"/>
</a>
</g>
</g>
<!-- Node13&#45;&gt;Node4 -->
<g id="edge20_Node000013_Node000004" class="edge">
<title>Node13&#45;&gt;Node4</title>
<g id="a_edge20_Node000013_Node000004"><a xlink:title=" ">
<path fill="none" stroke="#63b8ff" d="M300.17,-239.55C320.45,-250.07 352.91,-268.16 378,-288 396,-302.23 393.93,-313.89 414,-325 425.89,-331.58 439.97,-335.76 453.14,-338.41"/>
<polygon fill="#63b8ff" stroke="#63b8ff" points="452.53,-341.86 462.99,-340.15 453.75,-334.96 452.53,-341.86"/>
</a>
</g>
</g>
<!-- Node13&#45;&gt;Node6 -->
<g id="edge17_Node000013_Node000006" class="edge">
<title>Node13&#45;&gt;Node6</title>
<g id="a_edge17_Node000013_Node000006"><a xlink:title=" ">
<path fill="none" stroke="#63b8ff" d="M356.11,-224.45C377,-222.91 399.71,-221.23 420.69,-219.68"/>
<polygon fill="#63b8ff" stroke="#63b8ff" points="421.12,-223.15 430.84,-218.93 420.6,-216.17 421.12,-223.15"/>
</a>
</g>
</g>
<!-- Node13&#45;&gt;Node8 -->
<g id="edge18_Node000013_Node000008" class="edge">
<title>Node13&#45;&gt;Node8</title>
<g id="a_edge18_Node000013_Node000008"><a xlink:title=" ">
<path fill="none" stroke="#63b8ff" d="M312.02,-220.4C345.14,-210.15 398.39,-193.67 439.36,-180.99"/>
<polygon fill="#63b8ff" stroke="#63b8ff" points="440.44,-184.32 448.96,-178.02 438.37,-177.63 440.44,-184.32"/>
</a>
</g>
</g>
<!-- Node13&#45;&gt;Node12 -->
<g id="edge21_Node000013_Node000012" class="edge">
<title>Node13&#45;&gt;Node12</title>
<g id="a_edge21_Node000013_Node000012"><a xlink:title=" ">
<path fill="none" stroke="#63b8ff" d="M335.35,-239.54C374.51,-246.41 426.31,-255.51 460.71,-261.54"/>
<polygon fill="#63b8ff" stroke="#63b8ff" points="460.34,-265.03 470.79,-263.31 461.55,-258.14 460.34,-265.03"/>
</a>
</g>
</g>
</g>
</svg>

<g id="navigator" transform="translate(0 0)" fill="#404254">
  <rect fill="#f2f5e9" fill-opacity="0.5" stroke="#606060" stroke-width=".5" x="0" y="0" width="60" height="60"/>
  <use id="zoomplus" xlink:href="#zoomPlus" x="17" y="9" onmousedown="handleZoom(evt,'in')"/>
  <use id="zoomminus" xlink:href="#zoomMin" x="42" y="9" onmousedown="handleZoom(evt,'out')"/>
  <use id="reset" xlink:href="#resetDef" x="30" y="36" onmousedown="handleReset()"/>
   <use id="arrowup" xlink:href="#arrowUp" x="0" y="0" onmousedown="handlePan(0,-1)"/>
  <use id="arrowright" xlink:href="#arrowRight" x="0" y="0" onmousedown="handlePan(1,0)"/>
  <use id="arrowdown" xlink:href="#arrowDown" x="0" y="0" onmousedown="handlePan(0,1)"/>
  <use id="arrowleft" xlink:href="#arrowLeft" x="0" y="0" onmousedown="handlePan(-1,0)"/>
</g>
<svg viewBox="0 0 15 15" width="100%" height="30px" preserveAspectRatio="xMaxYMin meet">
 <g id="arrow_out" transform="scale(0.3 0.3)">
  <a xlink:href="classWebServer_acbda203d0faed2cb204ee17908e1c2c3_cgraph_org.svg" target="_base">
   <rect id="button" ry="5" rx="5" y="6" x="6" height="38" width="38"
        fill="#f2f5e9" fill-opacity="0.5" stroke="#606060" stroke-width="1.0"/>
   <path id="arrow"
     d="M 11.500037,31.436501 C 11.940474,20.09759 22.043105,11.32322 32.158766,21.979434 L 37.068811,17.246167 C 37.068811,17.246167 37.088388,32 37.088388,32 L 22.160133,31.978069 C 22.160133,31.978069 26.997745,27.140456 26.997745,27.140456 C 18.528582,18.264221 13.291696,25.230495 11.500037,31.436501 z"
     style="fill:#404040;"/>
  </a>
 </g>
</svg>

<style type='text/css'>
<![CDATA[
[data-mouse-over-selected='false'] { opacity: 0.7; }
[data-mouse-over-selected='true']  { opacity: 1.0; }
]]>
</style>
<script type="application/ecmascript"><![CDATA[
document.addEventListener('DOMContentLoaded', (event) => {
  highlightEdges();
  highlightAdjacentNodes();
});
]]></script>
</svg>
