<?xml version="1.0" encoding="UTF-8" standalone="no"?>
<!DOCTYPE svg PUBLIC "-//W3C//DTD SVG 1.1//EN"
 "http://www.w3.org/Graphics/SVG/1.1/DTD/svg11.dtd">
<!-- Generated by graphviz version 2.43.0 (0)
 -->
<!-- Title: UploadHandler::handle Pages: 1 -->
<svg width="1021pt" height="401pt"
 viewBox="0.00 0.00 1021.00 401.00" xmlns="http://www.w3.org/2000/svg" xmlns:xlink="http://www.w3.org/1999/xlink">
<g id="graph0" class="graph" transform="scale(1 1) rotate(0) translate(4 397)">
<title>UploadHandler::handle</title>
<!-- Node1 -->
<g id="Node000001" class="node">
<title>Node1</title>
<g id="a_Node000001"><a xlink:title="Entry point for handling file uploads.">
<polygon fill="#999999" stroke="#666666" points="128,-226 0,-226 0,-207 128,-207 128,-226"/>
<text text-anchor="middle" x="64" y="-214" font-family="Helvetica,sans-Serif" font-size="10.00">UploadHandler::handle</text>
</a>
</g>
</g>
<!-- Node2 -->
<g id="Node000002" class="node">
<title>Node2</title>
<g id="a_Node000002"><a xlink:href="classHttpResponse.html#abb032c16ad3961d50a6582c50c330581" target="_top" xlink:title="Adds a header field to the HTTP response.">
<polygon fill="white" stroke="#666666" points="319.5,-393 175.5,-393 175.5,-374 319.5,-374 319.5,-393"/>
<text text-anchor="middle" x="247.5" y="-381" font-family="Helvetica,sans-Serif" font-size="10.00">HttpResponse::addHeader</text>
</a>
</g>
</g>
<!-- Node1&#45;&gt;Node2 -->
<g id="edge1_Node000001_Node000002" class="edge">
<title>Node1&#45;&gt;Node2</title>
<g id="a_edge1_Node000001_Node000002"><a xlink:title=" ">
<path fill="none" stroke="#63b8ff" d="M68.37,-226.02C78.34,-252.74 110.41,-328.87 164,-365.5 166.25,-367.04 168.61,-368.45 171.04,-369.74"/>
<polygon fill="#63b8ff" stroke="#63b8ff" points="169.62,-372.93 180.17,-373.91 172.53,-366.57 169.62,-372.93"/>
</a>
</g>
</g>
<!-- Node3 -->
<g id="Node000003" class="node">
<title>Node3</title>
<g id="a_Node000003"><a xlink:href="classHttpResponse.html#a22352917aff72615ead5686b7e7b09b8" target="_top" xlink:title="Appends text data to the response body.">
<polygon fill="white" stroke="#666666" points="323.5,-356 171.5,-356 171.5,-337 323.5,-337 323.5,-356"/>
<text text-anchor="middle" x="247.5" y="-344" font-family="Helvetica,sans-Serif" font-size="10.00">HttpResponse::appendBody</text>
</a>
</g>
</g>
<!-- Node1&#45;&gt;Node3 -->
<g id="edge2_Node000001_Node000003" class="edge">
<title>Node1&#45;&gt;Node3</title>
<g id="a_edge2_Node000001_Node000003"><a xlink:title=" ">
<path fill="none" stroke="#63b8ff" d="M70.52,-226.13C83.64,-248.11 119.02,-302.09 164,-328.5 167,-330.26 170.15,-331.85 173.4,-333.28"/>
<polygon fill="#63b8ff" stroke="#63b8ff" points="172.18,-336.57 182.77,-336.93 174.72,-330.04 172.18,-336.57"/>
</a>
</g>
</g>
<!-- Node4 -->
<g id="Node000004" class="node">
<title>Node4</title>
<g id="a_Node000004"><a xlink:href="classHttpRequest.html#ab30e8ad147999e3dc043302f81e7fef9" target="_top" xlink:title="Returns the body of the request.">
<polygon fill="white" stroke="#666666" points="309.5,-319 185.5,-319 185.5,-300 309.5,-300 309.5,-319"/>
<text text-anchor="middle" x="247.5" y="-307" font-family="Helvetica,sans-Serif" font-size="10.00">HttpRequest::getBody</text>
</a>
</g>
</g>
<!-- Node1&#45;&gt;Node4 -->
<g id="edge3_Node000001_Node000004" class="edge">
<title>Node1&#45;&gt;Node4</title>
<g id="a_edge3_Node000001_Node000004"><a xlink:title=" ">
<path fill="none" stroke="#63b8ff" d="M74.72,-226.23C91.43,-242.39 127.37,-274.63 164,-291.5 168.43,-293.54 173.1,-295.35 177.87,-296.96"/>
<polygon fill="#63b8ff" stroke="#63b8ff" points="177.18,-300.41 187.77,-300 179.23,-293.72 177.18,-300.41"/>
</a>
</g>
</g>
<!-- Node5 -->
<g id="Node000005" class="node">
<title>Node5</title>
<g id="a_Node000005"><a xlink:href="classHttpResponse.html#a68de6b4795dd83a58885a8bddeacc2cf" target="_top" xlink:title="Returns the current response body.">
<polygon fill="white" stroke="#666666" points="313,-282 182,-282 182,-263 313,-263 313,-282"/>
<text text-anchor="middle" x="247.5" y="-270" font-family="Helvetica,sans-Serif" font-size="10.00">HttpResponse::getBody</text>
</a>
</g>
</g>
<!-- Node1&#45;&gt;Node5 -->
<g id="edge4_Node000001_Node000005" class="edge">
<title>Node1&#45;&gt;Node5</title>
<g id="a_edge4_Node000001_Node000005"><a xlink:title=" ">
<path fill="none" stroke="#63b8ff" d="M87.08,-226.08C106.92,-234.43 137.01,-246.43 164,-254.5 171.41,-256.72 179.26,-258.78 187.07,-260.67"/>
<polygon fill="#63b8ff" stroke="#63b8ff" points="186.36,-264.1 196.89,-262.95 187.95,-257.28 186.36,-264.1"/>
</a>
</g>
</g>
<!-- Node6 -->
<g id="Node000006" class="node">
<title>Node6</title>
<g id="a_Node000006"><a xlink:href="classHttpRequest.html#a610ff6d9fe8d0ad21ea2c48c9ee52fca" target="_top" xlink:title="Retrieves a header value by name (case&#45;insensitive).">
<polygon fill="white" stroke="#666666" points="314.5,-245 180.5,-245 180.5,-226 314.5,-226 314.5,-245"/>
<text text-anchor="middle" x="247.5" y="-233" font-family="Helvetica,sans-Serif" font-size="10.00">HttpRequest::getHeader</text>
</a>
</g>
</g>
<!-- Node1&#45;&gt;Node6 -->
<g id="edge5_Node000001_Node000006" class="edge">
<title>Node1&#45;&gt;Node6</title>
<g id="a_edge5_Node000001_Node000006"><a xlink:title=" ">
<path fill="none" stroke="#63b8ff" d="M128.23,-223.12C141.81,-224.54 156.3,-226.06 170.32,-227.52"/>
<polygon fill="#63b8ff" stroke="#63b8ff" points="170.11,-231.02 180.42,-228.58 170.84,-224.06 170.11,-231.02"/>
</a>
</g>
</g>
<!-- Node8 -->
<g id="Node000008" class="node">
<title>Node8</title>
<g id="a_Node000008"><a xlink:href="classLogger.html#a4aa4d7c3b98f6e12e7ea8253da5ea0cd" target="_top" xlink:title="Returns the singleton instance of the Logger.">
<polygon fill="white" stroke="#666666" points="858,-188 761,-188 761,-169 858,-169 858,-188"/>
<text text-anchor="middle" x="809.5" y="-176" font-family="Helvetica,sans-Serif" font-size="10.00">Logger::instance</text>
</a>
</g>
</g>
<!-- Node1&#45;&gt;Node8 -->
<g id="edge7_Node000001_Node000008" class="edge">
<title>Node1&#45;&gt;Node8</title>
<g id="a_edge7_Node000001_Node000008"><a xlink:title=" ">
<path fill="none" stroke="#63b8ff" d="M128.07,-213.28C270.06,-206.02 613.09,-188.49 750.32,-181.47"/>
<polygon fill="#63b8ff" stroke="#63b8ff" points="750.82,-184.95 760.62,-180.95 750.46,-177.96 750.82,-184.95"/>
</a>
</g>
</g>
<!-- Node9 -->
<g id="Node000009" class="node">
<title>Node9</title>
<g id="a_Node000009"><a xlink:href="classLogger.html#a3d3f0801eeaf39b33a906ea8569c19b2" target="_top" xlink:title="Writes a log entry with timestamp, level, and message.">
<polygon fill="white" stroke="#666666" points="845,-132 774,-132 774,-113 845,-113 845,-132"/>
<text text-anchor="middle" x="809.5" y="-120" font-family="Helvetica,sans-Serif" font-size="10.00">Logger::log</text>
</a>
</g>
</g>
<!-- Node1&#45;&gt;Node9 -->
<g id="edge8_Node000001_Node000009" class="edge">
<title>Node1&#45;&gt;Node9</title>
<g id="a_edge8_Node000001_Node000009"><a xlink:title=" ">
<path fill="none" stroke="#63b8ff" d="M74.4,-206.91C90.92,-190.66 126.93,-157.91 164,-141.5 392.52,-40.35 476.66,-75.6 725,-103.5 738.06,-104.97 752.05,-107.69 764.78,-110.62"/>
<polygon fill="#63b8ff" stroke="#63b8ff" points="764.13,-114.06 774.67,-112.99 765.76,-107.25 764.13,-114.06"/>
</a>
</g>
</g>
<!-- Node11 -->
<g id="Node000011" class="node">
<title>Node11</title>
<g id="a_Node000011"><a xlink:href="classUploadHandler.html#aace5eebbfb696ffaf96a77319810cd21" target="_top" xlink:title="Parses the full multipart body into individual parts.">
<polygon fill="white" stroke="#666666" points="331,-169 164,-169 164,-150 331,-150 331,-169"/>
<text text-anchor="middle" x="247.5" y="-157" font-family="Helvetica,sans-Serif" font-size="10.00">UploadHandler::parseMultipart</text>
</a>
</g>
</g>
<!-- Node1&#45;&gt;Node11 -->
<g id="edge10_Node000001_Node000011" class="edge">
<title>Node1&#45;&gt;Node11</title>
<g id="a_edge10_Node000001_Node000011"><a xlink:title=" ">
<path fill="none" stroke="#63b8ff" d="M92.65,-206.97C112.45,-200.22 139.79,-191.05 164,-183.5 176.58,-179.57 190.31,-175.5 202.89,-171.84"/>
<polygon fill="#63b8ff" stroke="#63b8ff" points="204.06,-175.15 212.69,-169.02 202.12,-168.43 204.06,-175.15"/>
</a>
</g>
</g>
<!-- Node16 -->
<g id="Node000016" class="node">
<title>Node16</title>
<g id="a_Node000016"><a xlink:href="classHttpResponse.html#af02b3b82a638bfbf23226b9f3bf06843" target="_top" xlink:title="Sets the HTTP status code and updates the corresponding reason phrase.">
<polygon fill="white" stroke="#666666" points="328,-56 167,-56 167,-37 328,-37 328,-56"/>
<text text-anchor="middle" x="247.5" y="-44" font-family="Helvetica,sans-Serif" font-size="10.00">HttpResponse::setStatusCode</text>
</a>
</g>
</g>
<!-- Node1&#45;&gt;Node16 -->
<g id="edge18_Node000001_Node000016" class="edge">
<title>Node1&#45;&gt;Node16</title>
<g id="a_edge18_Node000001_Node000016"><a xlink:title=" ">
<path fill="none" stroke="#63b8ff" d="M68.7,-206.98C79.33,-180.94 112.49,-107.98 164,-70.5 169.97,-66.16 176.72,-62.59 183.72,-59.68"/>
<polygon fill="#63b8ff" stroke="#63b8ff" points="185.22,-62.85 193.37,-56.08 182.77,-56.29 185.22,-62.85"/>
</a>
</g>
</g>
<!-- Node19 -->
<g id="Node000019" class="node">
<title>Node19</title>
<g id="a_Node000019"><a xlink:href="string__utils_8hpp.html#ad735976365693b45c427000fe042e173" target="_top" xlink:title="Converts any printable type to a string representation.">
<polygon fill="white" stroke="#666666" points="275,-19 220,-19 220,0 275,0 275,-19"/>
<text text-anchor="middle" x="247.5" y="-7" font-family="Helvetica,sans-Serif" font-size="10.00">toString</text>
</a>
</g>
</g>
<!-- Node1&#45;&gt;Node19 -->
<g id="edge21_Node000001_Node000019" class="edge">
<title>Node1&#45;&gt;Node19</title>
<g id="a_edge21_Node000001_Node000019"><a xlink:title=" ">
<path fill="none" stroke="#63b8ff" d="M67.03,-206.79C74.14,-175.34 100.97,-75.57 164,-27.5 176.98,-17.6 194.26,-12.91 209.66,-10.77"/>
<polygon fill="#63b8ff" stroke="#63b8ff" points="210.38,-14.21 219.95,-9.66 209.63,-7.25 210.38,-14.21"/>
</a>
</g>
</g>
<!-- Node7 -->
<g id="Node000007" class="node">
<title>Node7</title>
<g id="a_Node000007"><a xlink:href="string__utils_8hpp.html#a96432d89bc886bc9cdd1d73f86b2bbca" target="_top" xlink:title="Converts a string to lowercase.">
<polygon fill="white" stroke="#666666" points="483,-245 427,-245 427,-226 483,-226 483,-245"/>
<text text-anchor="middle" x="455" y="-233" font-family="Helvetica,sans-Serif" font-size="10.00">toLower</text>
</a>
</g>
</g>
<!-- Node6&#45;&gt;Node7 -->
<g id="edge6_Node000006_Node000007" class="edge">
<title>Node6&#45;&gt;Node7</title>
<g id="a_edge6_Node000006_Node000007"><a xlink:title=" ">
<path fill="none" stroke="#63b8ff" d="M314.65,-235.5C348.36,-235.5 388.12,-235.5 416.52,-235.5"/>
<polygon fill="#63b8ff" stroke="#63b8ff" points="416.81,-239 426.81,-235.5 416.81,-232 416.81,-239"/>
</a>
</g>
</g>
<!-- Node10 -->
<g id="Node000010" class="node">
<title>Node10</title>
<g id="a_Node000010"><a xlink:href="classLogger.html#a19f9ef22095a67c9fe420c9d6e761fc2" target="_top" xlink:title="Converts a LogLevel enum value to its string label.">
<polygon fill="white" stroke="#666666" points="1013,-132 894,-132 894,-113 1013,-113 1013,-132"/>
<text text-anchor="middle" x="953.5" y="-120" font-family="Helvetica,sans-Serif" font-size="10.00">Logger::levelToString</text>
</a>
</g>
</g>
<!-- Node9&#45;&gt;Node10 -->
<g id="edge9_Node000009_Node000010" class="edge">
<title>Node9&#45;&gt;Node10</title>
<g id="a_edge9_Node000009_Node000010"><a xlink:title=" ">
<path fill="none" stroke="#63b8ff" d="M845.24,-122.5C856.88,-122.5 870.31,-122.5 883.63,-122.5"/>
<polygon fill="#63b8ff" stroke="#63b8ff" points="883.77,-126 893.77,-122.5 883.77,-119 883.77,-126"/>
</a>
</g>
</g>
<!-- Node12 -->
<g id="Node000012" class="node">
<title>Node12</title>
<g id="a_Node000012"><a xlink:href="classUploadHandler.html#ad0eb7d7f64f75abf8078116aab15987f" target="_top" xlink:title="Extracts the multipart boundary string from the Content&#45;Type header.">
<polygon fill="white" stroke="#666666" points="543,-132 367,-132 367,-113 543,-113 543,-132"/>
<text text-anchor="middle" x="455" y="-120" font-family="Helvetica,sans-Serif" font-size="10.00">UploadHandler::extractBoundary</text>
</a>
</g>
</g>
<!-- Node11&#45;&gt;Node12 -->
<g id="edge11_Node000011_Node000012" class="edge">
<title>Node11&#45;&gt;Node12</title>
<g id="a_edge11_Node000011_Node000012"><a xlink:title=" ">
<path fill="none" stroke="#63b8ff" d="M301.42,-149.97C328.76,-145.05 362.31,-139.01 390.98,-133.85"/>
<polygon fill="#63b8ff" stroke="#63b8ff" points="391.68,-137.28 400.9,-132.06 390.44,-130.39 391.68,-137.28"/>
</a>
</g>
</g>
<!-- Node14 -->
<g id="Node000014" class="node">
<title>Node14</title>
<g id="a_Node000014"><a xlink:href="classUploadHandler.html#a034aba7372669350a9287f13fe020dbd" target="_top" xlink:title="Parses an individual multipart section.">
<polygon fill="white" stroke="#666666" points="525.5,-169 384.5,-169 384.5,-150 525.5,-150 525.5,-169"/>
<text text-anchor="middle" x="455" y="-157" font-family="Helvetica,sans-Serif" font-size="10.00">UploadHandler::parsePart</text>
</a>
</g>
</g>
<!-- Node11&#45;&gt;Node14 -->
<g id="edge13_Node000011_Node000014" class="edge">
<title>Node11&#45;&gt;Node14</title>
<g id="a_edge13_Node000011_Node000014"><a xlink:title=" ">
<path fill="none" stroke="#63b8ff" d="M331.2,-159.5C345.38,-159.5 360.09,-159.5 374.19,-159.5"/>
<polygon fill="#63b8ff" stroke="#63b8ff" points="374.33,-163 384.33,-159.5 374.33,-156 374.33,-163"/>
</a>
</g>
</g>
<!-- Node13 -->
<g id="Node000013" class="node">
<title>Node13</title>
<g id="a_Node000013"><a xlink:href="string__utils_8hpp.html#a8577ae0e014b88657679bf92631ee8c4" target="_top" xlink:title="Returns a copy of a string with surrounding spaces and tabs removed.">
<polygon fill="white" stroke="#666666" points="684.5,-132 619.5,-132 619.5,-113 684.5,-113 684.5,-132"/>
<text text-anchor="middle" x="652" y="-120" font-family="Helvetica,sans-Serif" font-size="10.00">trim_copy</text>
</a>
</g>
</g>
<!-- Node12&#45;&gt;Node13 -->
<g id="edge12_Node000012_Node000013" class="edge">
<title>Node12&#45;&gt;Node13</title>
<g id="a_edge12_Node000012_Node000013"><a xlink:title=" ">
<path fill="none" stroke="#63b8ff" d="M543.23,-122.5C566.16,-122.5 589.86,-122.5 609.17,-122.5"/>
<polygon fill="#63b8ff" stroke="#63b8ff" points="609.42,-126 619.42,-122.5 609.42,-119 609.42,-126"/>
</a>
</g>
</g>
<!-- Node14&#45;&gt;Node13 -->
<g id="edge17_Node000014_Node000013" class="edge">
<title>Node14&#45;&gt;Node13</title>
<g id="a_edge17_Node000014_Node000013"><a xlink:title=" ">
<path fill="none" stroke="#63b8ff" d="M506.22,-149.97C538.12,-143.92 578.92,-136.18 609.08,-130.45"/>
<polygon fill="#63b8ff" stroke="#63b8ff" points="610.1,-133.82 619.27,-128.52 608.79,-126.95 610.1,-133.82"/>
</a>
</g>
</g>
<!-- Node15 -->
<g id="Node000015" class="node">
<title>Node15</title>
<g id="a_Node000015"><a xlink:href="classUploadHandler.html#a0424d4becb0ad12b775f83822f69595c" target="_top" xlink:title="Saves a parsed file part to disk.">
<polygon fill="white" stroke="#666666" points="720,-169 584,-169 584,-150 720,-150 720,-169"/>
<text text-anchor="middle" x="652" y="-157" font-family="Helvetica,sans-Serif" font-size="10.00">UploadHandler::saveFile</text>
</a>
</g>
</g>
<!-- Node14&#45;&gt;Node15 -->
<g id="edge14_Node000014_Node000015" class="edge">
<title>Node14&#45;&gt;Node15</title>
<g id="a_edge14_Node000014_Node000015"><a xlink:title=" ">
<path fill="none" stroke="#63b8ff" d="M525.57,-159.5C541.1,-159.5 557.65,-159.5 573.47,-159.5"/>
<polygon fill="#63b8ff" stroke="#63b8ff" points="573.74,-163 583.74,-159.5 573.74,-156 573.74,-163"/>
</a>
</g>
</g>
<!-- Node15&#45;&gt;Node8 -->
<g id="edge15_Node000015_Node000008" class="edge">
<title>Node15&#45;&gt;Node8</title>
<g id="a_edge15_Node000015_Node000008"><a xlink:title=" ">
<path fill="none" stroke="#63b8ff" d="M720.3,-167.72C730.41,-168.96 740.77,-170.22 750.66,-171.43"/>
<polygon fill="#63b8ff" stroke="#63b8ff" points="750.42,-174.93 760.77,-172.67 751.27,-167.98 750.42,-174.93"/>
</a>
</g>
</g>
<!-- Node15&#45;&gt;Node9 -->
<g id="edge16_Node000015_Node000009" class="edge">
<title>Node15&#45;&gt;Node9</title>
<g id="a_edge16_Node000015_Node000009"><a xlink:title=" ">
<path fill="none" stroke="#63b8ff" d="M693.05,-149.97C714.74,-144.81 741.6,-138.42 763.95,-133.1"/>
<polygon fill="#63b8ff" stroke="#63b8ff" points="764.95,-136.46 773.87,-130.74 763.33,-129.65 764.95,-136.46"/>
</a>
</g>
</g>
<!-- Node17 -->
<g id="Node000017" class="node">
<title>Node17</title>
<g id="a_Node000017"><a xlink:href="classHttpResponse.html#a98bb39b2757912eae4f667db80e3e6a4" target="_top" xlink:title="Sets the textual reason phrase for a given status code.">
<polygon fill="white" stroke="#666666" points="542.5,-54 367.5,-54 367.5,-35 542.5,-35 542.5,-54"/>
<text text-anchor="middle" x="455" y="-42" font-family="Helvetica,sans-Serif" font-size="10.00">HttpResponse::setReasonPhrase</text>
</a>
</g>
</g>
<!-- Node16&#45;&gt;Node17 -->
<g id="edge19_Node000016_Node000017" class="edge">
<title>Node16&#45;&gt;Node17</title>
<g id="a_edge19_Node000016_Node000017"><a xlink:title=" ">
<path fill="none" stroke="#63b8ff" d="M328.25,-45.72C337.79,-45.63 347.62,-45.54 357.37,-45.44"/>
<polygon fill="#63b8ff" stroke="#63b8ff" points="357.52,-48.94 367.49,-45.34 357.45,-41.94 357.52,-48.94"/>
</a>
</g>
</g>
<!-- Node18 -->
<g id="Node000018" class="node">
<title>Node18</title>
<g id="a_Node000018"><a xlink:href="classHttpResponse.html#ae09f25f31d917b068fae8bbf07b29c19" target="_top" xlink:title="Converts an HTTP status code to its standard reason phrase string.">
<polygon fill="white" stroke="#666666" points="725,-56.5 579,-56.5 579,-26.5 725,-26.5 725,-56.5"/>
<text text-anchor="start" x="587" y="-44.5" font-family="Helvetica,sans-Serif" font-size="10.00">HttpResponse::statusCode</text>
<text text-anchor="middle" x="652" y="-33.5" font-family="Helvetica,sans-Serif" font-size="10.00">ToString</text>
</a>
</g>
</g>
<!-- Node17&#45;&gt;Node18 -->
<g id="edge20_Node000017_Node000018" class="edge">
<title>Node17&#45;&gt;Node18</title>
<g id="a_edge20_Node000017_Node000018"><a xlink:title=" ">
<path fill="none" stroke="#63b8ff" d="M542.67,-43.17C551.37,-43.03 560.18,-42.9 568.83,-42.76"/>
<polygon fill="#63b8ff" stroke="#63b8ff" points="568.95,-46.26 578.9,-42.61 568.84,-39.26 568.95,-46.26"/>
</a>
</g>
</g>
</g>
</svg>
