<?xml version="1.0" encoding="UTF-8" standalone="no"?>
<!DOCTYPE svg PUBLIC "-//W3C//DTD SVG 1.1//EN"
 "http://www.w3.org/Graphics/SVG/1.1/DTD/svg11.dtd">
<!-- Generated by graphviz version 2.43.0 (0)
 -->
<!-- Title: init/ClientConnection.hpp Pages: 1 -->
<svg width="1524pt" height="192pt"
 viewBox="0.00 0.00 1523.69 192.00" xmlns="http://www.w3.org/2000/svg" xmlns:xlink="http://www.w3.org/1999/xlink">
<g id="graph0" class="graph" transform="scale(1 1) rotate(0) translate(4 188)">
<title>init/ClientConnection.hpp</title>
<!-- Node1 -->
<g id="Node000001" class="node">
<title>Node1</title>
<g id="a_Node000001"><a xlink:title=" ">
<polygon fill="#999999" stroke="#666666" points="686.14,-184 546.14,-184 546.14,-165 686.14,-165 686.14,-184"/>
<text text-anchor="middle" x="616.14" y="-172" font-family="Helvetica,sans-Serif" font-size="10.00">init/ClientConnection.hpp</text>
</a>
</g>
</g>
<!-- Node2 -->
<g id="Node000002" class="node">
<title>Node2</title>
<g id="a_Node000002"><a xlink:href="CgiHandler_8hpp.html" target="_top" xlink:title=" ">
<polygon fill="white" stroke="#666666" points="507.64,-129 362.64,-129 362.64,-110 507.64,-110 507.64,-129"/>
<text text-anchor="middle" x="435.14" y="-117" font-family="Helvetica,sans-Serif" font-size="10.00">dispatcher/CgiHandler.hpp</text>
</a>
</g>
</g>
<!-- Node1&#45;&gt;Node2 -->
<g id="edge1_Node000001_Node000002" class="edge">
<title>Node1&#45;&gt;Node2</title>
<g id="a_edge1_Node000001_Node000002"><a xlink:title=" ">
<path fill="none" stroke="#63b8ff" d="M577.05,-162.06C543.23,-152.15 495.05,-138.04 464.45,-129.08"/>
<polygon fill="#63b8ff" stroke="#63b8ff" points="576.48,-165.53 587.06,-164.98 578.44,-158.82 576.48,-165.53"/>
</a>
</g>
</g>
<!-- Node8 -->
<g id="Node000008" class="node">
<title>Node8</title>
<g id="a_Node000008"><a xlink:href="Dispatcher_8hpp.html" target="_top" xlink:title=" ">
<polygon fill="white" stroke="#666666" points="198.64,-129 55.64,-129 55.64,-110 198.64,-110 198.64,-129"/>
<text text-anchor="middle" x="127.14" y="-117" font-family="Helvetica,sans-Serif" font-size="10.00">dispatcher/Dispatcher.hpp</text>
</a>
</g>
</g>
<!-- Node1&#45;&gt;Node8 -->
<g id="edge7_Node000001_Node000008" class="edge">
<title>Node1&#45;&gt;Node8</title>
<g id="a_edge7_Node000001_Node000008"><a xlink:title=" ">
<path fill="none" stroke="#63b8ff" d="M536.08,-164.82C442.35,-154.66 288.54,-137.99 198.66,-128.25"/>
<polygon fill="#63b8ff" stroke="#63b8ff" points="535.76,-168.31 546.08,-165.91 536.51,-161.35 535.76,-168.31"/>
</a>
</g>
</g>
<!-- Node9 -->
<g id="Node000009" class="node">
<title>Node9</title>
<g id="a_Node000009"><a xlink:href="Router_8hpp.html" target="_top" xlink:title=" ">
<polygon fill="white" stroke="#666666" points="339.64,-129 216.64,-129 216.64,-110 339.64,-110 339.64,-129"/>
<text text-anchor="middle" x="278.14" y="-117" font-family="Helvetica,sans-Serif" font-size="10.00">dispatcher/Router.hpp</text>
</a>
</g>
</g>
<!-- Node1&#45;&gt;Node9 -->
<g id="edge10_Node000001_Node000009" class="edge">
<title>Node1&#45;&gt;Node9</title>
<g id="a_edge10_Node000001_Node000009"><a xlink:title=" ">
<path fill="none" stroke="#63b8ff" d="M551.94,-163.43C488.47,-153.48 392.43,-138.42 332.59,-129.04"/>
<polygon fill="#63b8ff" stroke="#63b8ff" points="551.41,-166.89 561.83,-164.98 552.49,-159.98 551.41,-166.89"/>
</a>
</g>
</g>
<!-- Node11 -->
<g id="Node000011" class="node">
<title>Node11</title>
<g id="a_Node000011"><a xlink:href="ClientConnection_8cpp.html" target="_top" xlink:title=" ">
<polygon fill="white" stroke="#666666" points="1361.64,-74 1222.64,-74 1222.64,-55 1361.64,-55 1361.64,-74"/>
<text text-anchor="middle" x="1292.14" y="-62" font-family="Helvetica,sans-Serif" font-size="10.00">init/ClientConnection.cpp</text>
</a>
</g>
</g>
<!-- Node1&#45;&gt;Node11 -->
<g id="edge13_Node000001_Node000011" class="edge">
<title>Node1&#45;&gt;Node11</title>
<g id="a_edge13_Node000001_Node000011"><a xlink:title=" ">
<path fill="none" stroke="#63b8ff" d="M679.46,-163.38C811.85,-142.23 1115.84,-93.67 1238.93,-74"/>
<polygon fill="#63b8ff" stroke="#63b8ff" points="678.79,-159.95 669.46,-164.98 679.89,-166.86 678.79,-159.95"/>
</a>
</g>
</g>
<!-- Node12 -->
<g id="Node000012" class="node">
<title>Node12</title>
<g id="a_Node000012"><a xlink:href="ServerSocket_8hpp.html" target="_top" xlink:title=" ">
<polygon fill="white" stroke="#666666" points="1354.14,-129 1234.14,-129 1234.14,-110 1354.14,-110 1354.14,-129"/>
<text text-anchor="middle" x="1294.14" y="-117" font-family="Helvetica,sans-Serif" font-size="10.00">init/ServerSocket.hpp</text>
</a>
</g>
</g>
<!-- Node1&#45;&gt;Node12 -->
<g id="edge14_Node000001_Node000012" class="edge">
<title>Node1&#45;&gt;Node12</title>
<g id="a_edge14_Node000001_Node000012"><a xlink:title=" ">
<path fill="none" stroke="#63b8ff" d="M696.19,-167.24C833.62,-156.5 1111.42,-134.78 1233.86,-125.21"/>
<polygon fill="#63b8ff" stroke="#63b8ff" points="695.84,-163.76 686.14,-168.03 696.38,-170.74 695.84,-163.76"/>
</a>
</g>
</g>
<!-- Node14 -->
<g id="Node000014" class="node">
<title>Node14</title>
<g id="a_Node000014"><a xlink:href="ResponseBuilder_8hpp.html" target="_top" xlink:title=" ">
<polygon fill="white" stroke="#666666" points="745.14,-129 579.14,-129 579.14,-110 745.14,-110 745.14,-129"/>
<text text-anchor="middle" x="662.14" y="-117" font-family="Helvetica,sans-Serif" font-size="10.00">response/ResponseBuilder.hpp</text>
</a>
</g>
</g>
<!-- Node1&#45;&gt;Node14 -->
<g id="edge18_Node000001_Node000014" class="edge">
<title>Node1&#45;&gt;Node14</title>
<g id="a_edge18_Node000001_Node000014"><a xlink:title=" ">
<path fill="none" stroke="#63b8ff" d="M630.5,-156.96C638.51,-147.72 648.16,-136.6 654.68,-129.09"/>
<polygon fill="#63b8ff" stroke="#63b8ff" points="627.64,-154.9 623.73,-164.75 632.93,-159.49 627.64,-154.9"/>
</a>
</g>
</g>
<!-- Node3 -->
<g id="Node000003" class="node">
<title>Node3</title>
<g id="a_Node000003"><a xlink:href="CgiHandler_8cpp.html" target="_top" xlink:title=" ">
<polygon fill="white" stroke="#666666" points="462.14,-74 318.14,-74 318.14,-55 462.14,-55 462.14,-74"/>
<text text-anchor="middle" x="390.14" y="-62" font-family="Helvetica,sans-Serif" font-size="10.00">dispatcher/CgiHandler.cpp</text>
</a>
</g>
</g>
<!-- Node2&#45;&gt;Node3 -->
<g id="edge2_Node000002_Node000003" class="edge">
<title>Node2&#45;&gt;Node3</title>
<g id="a_edge2_Node000002_Node000003"><a xlink:title=" ">
<path fill="none" stroke="#63b8ff" d="M421.09,-101.96C413.25,-92.72 403.81,-81.6 397.43,-74.09"/>
<polygon fill="#63b8ff" stroke="#63b8ff" points="418.57,-104.39 427.71,-109.75 423.9,-99.86 418.57,-104.39"/>
</a>
</g>
</g>
<!-- Node4 -->
<g id="Node000004" class="node">
<title>Node4</title>
<g id="a_Node000004"><a xlink:href="Dispatcher_8cpp.html" target="_top" xlink:title=" ">
<polygon fill="white" stroke="#666666" points="299.64,-74 156.64,-74 156.64,-55 299.64,-55 299.64,-74"/>
<text text-anchor="middle" x="228.14" y="-62" font-family="Helvetica,sans-Serif" font-size="10.00">dispatcher/Dispatcher.cpp</text>
</a>
</g>
</g>
<!-- Node2&#45;&gt;Node4 -->
<g id="edge3_Node000002_Node000004" class="edge">
<title>Node2&#45;&gt;Node4</title>
<g id="a_edge3_Node000002_Node000004"><a xlink:title=" ">
<path fill="none" stroke="#63b8ff" d="M391.93,-107.44C353.18,-97.52 297.11,-83.16 261.66,-74.08"/>
<polygon fill="#63b8ff" stroke="#63b8ff" points="391.32,-110.89 401.88,-109.98 393.06,-104.11 391.32,-110.89"/>
</a>
</g>
</g>
<!-- Node5 -->
<g id="Node000005" class="node">
<title>Node5</title>
<g id="a_Node000005"><a xlink:href="WebServer_8hpp.html" target="_top" xlink:title=" ">
<polygon fill="white" stroke="#666666" points="1204.14,-74 1096.14,-74 1096.14,-55 1204.14,-55 1204.14,-74"/>
<text text-anchor="middle" x="1150.14" y="-62" font-family="Helvetica,sans-Serif" font-size="10.00">init/WebServer.hpp</text>
</a>
</g>
</g>
<!-- Node2&#45;&gt;Node5 -->
<g id="edge4_Node000002_Node000005" class="edge">
<title>Node2&#45;&gt;Node5</title>
<g id="a_edge4_Node000002_Node000005"><a xlink:title=" ">
<path fill="none" stroke="#63b8ff" d="M517.98,-112.8C635.96,-104.62 859.15,-88.88 1049.14,-74 1064.31,-72.81 1080.76,-71.46 1095.9,-70.18"/>
<polygon fill="#63b8ff" stroke="#63b8ff" points="517.67,-109.32 507.94,-113.5 518.15,-116.3 517.67,-109.32"/>
</a>
</g>
</g>
<!-- Node6 -->
<g id="Node000006" class="node">
<title>Node6</title>
<g id="a_Node000006"><a xlink:href="WebServer_8cpp.html" target="_top" xlink:title=" ">
<polygon fill="white" stroke="#666666" points="1121.64,-19 1014.64,-19 1014.64,0 1121.64,0 1121.64,-19"/>
<text text-anchor="middle" x="1068.14" y="-7" font-family="Helvetica,sans-Serif" font-size="10.00">init/WebServer.cpp</text>
</a>
</g>
</g>
<!-- Node5&#45;&gt;Node6 -->
<g id="edge5_Node000005_Node000006" class="edge">
<title>Node5&#45;&gt;Node6</title>
<g id="a_edge5_Node000005_Node000006"><a xlink:title=" ">
<path fill="none" stroke="#63b8ff" d="M1128.36,-49.42C1113.48,-39.81 1094.23,-27.37 1081.55,-19.17"/>
<polygon fill="#63b8ff" stroke="#63b8ff" points="1126.66,-52.5 1136.96,-54.98 1130.46,-46.62 1126.66,-52.5"/>
</a>
</g>
</g>
<!-- Node7 -->
<g id="Node000007" class="node">
<title>Node7</title>
<g id="a_Node000007"><a xlink:href="main_8cpp.html" target="_top" xlink:title=" ">
<polygon fill="white" stroke="#666666" points="1380.14,-19 1318.14,-19 1318.14,0 1380.14,0 1380.14,-19"/>
<text text-anchor="middle" x="1349.14" y="-7" font-family="Helvetica,sans-Serif" font-size="10.00">main.cpp</text>
</a>
</g>
</g>
<!-- Node5&#45;&gt;Node7 -->
<g id="edge6_Node000005_Node000007" class="edge">
<title>Node5&#45;&gt;Node7</title>
<g id="a_edge6_Node000005_Node000007"><a xlink:title=" ">
<path fill="none" stroke="#63b8ff" d="M1192.24,-52.29C1229.84,-42.27 1284.05,-27.84 1317.9,-18.82"/>
<polygon fill="#63b8ff" stroke="#63b8ff" points="1190.87,-49.03 1182.11,-54.98 1192.67,-55.79 1190.87,-49.03"/>
</a>
</g>
</g>
<!-- Node8&#45;&gt;Node4 -->
<g id="edge8_Node000008_Node000004" class="edge">
<title>Node8&#45;&gt;Node4</title>
<g id="a_edge8_Node000008_Node000004"><a xlink:title=" ">
<path fill="none" stroke="#63b8ff" d="M152.42,-105.23C170.94,-95.51 195.55,-82.6 211.61,-74.17"/>
<polygon fill="#63b8ff" stroke="#63b8ff" points="150.59,-102.24 143.36,-109.98 153.85,-108.44 150.59,-102.24"/>
</a>
</g>
</g>
<!-- Node8&#45;&gt;Node6 -->
<g id="edge9_Node000008_Node000006" class="edge">
<title>Node8&#45;&gt;Node6</title>
<g id="a_edge9_Node000008_Node000006"><a xlink:title=" ">
<path fill="none" stroke="#63b8ff" d="M68.69,-107.69C27.22,-97.6 -17.1,-80.28 7.14,-55 42.31,-18.32 804.03,-11.81 1014.62,-10.71"/>
<polygon fill="#63b8ff" stroke="#63b8ff" points="68.03,-111.14 78.57,-109.98 69.61,-104.32 68.03,-111.14"/>
</a>
</g>
</g>
<!-- Node9&#45;&gt;Node4 -->
<g id="edge11_Node000009_Node000004" class="edge">
<title>Node9&#45;&gt;Node4</title>
<g id="a_edge11_Node000009_Node000004"><a xlink:title=" ">
<path fill="none" stroke="#63b8ff" d="M262.8,-102.24C254.03,-92.95 243.4,-81.68 236.24,-74.09"/>
<polygon fill="#63b8ff" stroke="#63b8ff" points="260.47,-104.88 269.88,-109.75 265.56,-100.07 260.47,-104.88"/>
</a>
</g>
</g>
<!-- Node10 -->
<g id="Node000010" class="node">
<title>Node10</title>
<g id="a_Node000010"><a xlink:href="Router_8cpp.html" target="_top" xlink:title=" ">
<polygon fill="white" stroke="#666666" points="138.14,-74 16.14,-74 16.14,-55 138.14,-55 138.14,-74"/>
<text text-anchor="middle" x="77.14" y="-62" font-family="Helvetica,sans-Serif" font-size="10.00">dispatcher/Router.cpp</text>
</a>
</g>
</g>
<!-- Node9&#45;&gt;Node10 -->
<g id="edge12_Node000009_Node000010" class="edge">
<title>Node9&#45;&gt;Node10</title>
<g id="a_edge12_Node000009_Node000010"><a xlink:title=" ">
<path fill="none" stroke="#63b8ff" d="M235.7,-107.31C198.09,-97.39 143.97,-83.12 109.68,-74.08"/>
<polygon fill="#63b8ff" stroke="#63b8ff" points="235.28,-110.82 245.84,-109.98 237.07,-104.05 235.28,-110.82"/>
</a>
</g>
</g>
<!-- Node12&#45;&gt;Node5 -->
<g id="edge16_Node000012_Node000005" class="edge">
<title>Node12&#45;&gt;Node5</title>
<g id="a_edge16_Node000012_Node000005"><a xlink:title=" ">
<path fill="none" stroke="#63b8ff" d="M1261.32,-106.42C1234.6,-96.59 1197.54,-82.95 1173.69,-74.17"/>
<polygon fill="#63b8ff" stroke="#63b8ff" points="1260.41,-109.82 1271,-109.98 1262.83,-103.25 1260.41,-109.82"/>
</a>
</g>
</g>
<!-- Node12&#45;&gt;Node7 -->
<g id="edge17_Node000012_Node000007" class="edge">
<title>Node12&#45;&gt;Node7</title>
<g id="a_edge17_Node000012_Node000007"><a xlink:title=" ">
<path fill="none" stroke="#63b8ff" d="M1364.42,-113.3C1419.65,-107.59 1490.16,-96.1 1508.14,-74 1544.24,-29.61 1436.15,-16.07 1380.3,-12.09"/>
<polygon fill="#63b8ff" stroke="#63b8ff" points="1363.9,-109.84 1354.3,-114.31 1364.59,-116.8 1363.9,-109.84"/>
</a>
</g>
</g>
<!-- Node13 -->
<g id="Node000013" class="node">
<title>Node13</title>
<g id="a_Node000013"><a xlink:href="ServerSocket_8cpp.html" target="_top" xlink:title=" ">
<polygon fill="white" stroke="#666666" points="1498.64,-74 1379.64,-74 1379.64,-55 1498.64,-55 1498.64,-74"/>
<text text-anchor="middle" x="1439.14" y="-62" font-family="Helvetica,sans-Serif" font-size="10.00">init/ServerSocket.cpp</text>
</a>
</g>
</g>
<!-- Node12&#45;&gt;Node13 -->
<g id="edge15_Node000012_Node000013" class="edge">
<title>Node12&#45;&gt;Node13</title>
<g id="a_edge15_Node000012_Node000013"><a xlink:title=" ">
<path fill="none" stroke="#63b8ff" d="M1326.83,-106.55C1353.76,-96.71 1391.3,-82.98 1415.42,-74.17"/>
<polygon fill="#63b8ff" stroke="#63b8ff" points="1325.62,-103.26 1317.43,-109.98 1328.03,-109.84 1325.62,-103.26"/>
</a>
</g>
</g>
<!-- Node14&#45;&gt;Node3 -->
<g id="edge20_Node000014_Node000003" class="edge">
<title>Node14&#45;&gt;Node3</title>
<g id="a_edge20_Node000014_Node000003"><a xlink:title=" ">
<path fill="none" stroke="#63b8ff" d="M608.58,-108.07C557.59,-98.13 481.76,-83.35 434.18,-74.08"/>
<polygon fill="#63b8ff" stroke="#63b8ff" points="607.95,-111.51 618.44,-109.98 609.29,-104.64 607.95,-111.51"/>
</a>
</g>
</g>
<!-- Node14&#45;&gt;Node4 -->
<g id="edge21_Node000014_Node000004" class="edge">
<title>Node14&#45;&gt;Node4</title>
<g id="a_edge21_Node000014_Node000004"><a xlink:title=" ">
<path fill="none" stroke="#63b8ff" d="M582.2,-108.74C500.75,-98.79 375.68,-83.52 298.05,-74.04"/>
<polygon fill="#63b8ff" stroke="#63b8ff" points="582.06,-112.25 592.41,-109.98 582.91,-105.3 582.06,-112.25"/>
</a>
</g>
</g>
<!-- Node14&#45;&gt;Node6 -->
<g id="edge24_Node000014_Node000006" class="edge">
<title>Node14&#45;&gt;Node6</title>
<g id="a_edge24_Node000014_Node000006"><a xlink:title=" ">
<path fill="none" stroke="#63b8ff" d="M755.52,-119.24C855.64,-118.08 1006.03,-110.11 1049.14,-74 1065.55,-60.26 1068.14,-32.96 1068.33,-19.06"/>
<polygon fill="#63b8ff" stroke="#63b8ff" points="755.36,-115.74 745.39,-119.33 755.43,-122.74 755.36,-115.74"/>
</a>
</g>
</g>
<!-- Node14&#45;&gt;Node11 -->
<g id="edge23_Node000014_Node000011" class="edge">
<title>Node14&#45;&gt;Node11</title>
<g id="a_edge23_Node000014_Node000011"><a xlink:title=" ">
<path fill="none" stroke="#63b8ff" d="M755.31,-111.73C864.93,-103.6 1052.38,-89.14 1213.14,-74 1216.16,-73.72 1219.24,-73.42 1222.36,-73.11"/>
<polygon fill="#63b8ff" stroke="#63b8ff" points="754.99,-108.25 745.28,-112.48 755.51,-115.23 754.99,-108.25"/>
</a>
</g>
</g>
<!-- Node15 -->
<g id="Node000015" class="node">
<title>Node15</title>
<g id="a_Node000015"><a xlink:href="AutoIndexHandler_8cpp.html" target="_top" xlink:title=" ">
<polygon fill="white" stroke="#666666" points="842.14,-74 664.14,-74 664.14,-55 842.14,-55 842.14,-74"/>
<text text-anchor="middle" x="753.14" y="-62" font-family="Helvetica,sans-Serif" font-size="10.00">dispatcher/AutoIndexHandler.cpp</text>
</a>
</g>
</g>
<!-- Node14&#45;&gt;Node15 -->
<g id="edge19_Node000014_Node000015" class="edge">
<title>Node14&#45;&gt;Node15</title>
<g id="a_edge19_Node000014_Node000015"><a xlink:title=" ">
<path fill="none" stroke="#63b8ff" d="M685.84,-104.7C702.42,-95.04 724.05,-82.44 738.25,-74.17"/>
<polygon fill="#63b8ff" stroke="#63b8ff" points="683.64,-101.93 676.76,-109.98 687.16,-107.98 683.64,-101.93"/>
</a>
</g>
</g>
<!-- Node16 -->
<g id="Node000016" class="node">
<title>Node16</title>
<g id="a_Node000016"><a xlink:href="StaticPageHandler_8cpp.html" target="_top" xlink:title=" ">
<polygon fill="white" stroke="#666666" points="1039.64,-74 860.64,-74 860.64,-55 1039.64,-55 1039.64,-74"/>
<text text-anchor="middle" x="950.14" y="-62" font-family="Helvetica,sans-Serif" font-size="10.00">dispatcher/StaticPageHandler.cpp</text>
</a>
</g>
</g>
<!-- Node14&#45;&gt;Node16 -->
<g id="edge22_Node000014_Node000016" class="edge">
<title>Node14&#45;&gt;Node16</title>
<g id="a_edge22_Node000014_Node000016"><a xlink:title=" ">
<path fill="none" stroke="#63b8ff" d="M718.5,-108.13C772.5,-98.19 853.02,-83.37 903.5,-74.08"/>
<polygon fill="#63b8ff" stroke="#63b8ff" points="717.61,-104.73 708.41,-109.98 718.88,-111.62 717.61,-104.73"/>
</a>
</g>
</g>
<!-- Node17 -->
<g id="Node000017" class="node">
<title>Node17</title>
<g id="a_Node000017"><a xlink:href="ResponseBuilder_8cpp.html" target="_top" xlink:title=" ">
<polygon fill="white" stroke="#666666" points="645.64,-74 480.64,-74 480.64,-55 645.64,-55 645.64,-74"/>
<text text-anchor="middle" x="563.14" y="-62" font-family="Helvetica,sans-Serif" font-size="10.00">response/ResponseBuilder.cpp</text>
</a>
</g>
</g>
<!-- Node14&#45;&gt;Node17 -->
<g id="edge25_Node000014_Node000017" class="edge">
<title>Node14&#45;&gt;Node17</title>
<g id="a_edge25_Node000014_Node000017"><a xlink:title=" ">
<path fill="none" stroke="#63b8ff" d="M637.36,-105.23C619.2,-95.51 595.08,-82.6 579.33,-74.17"/>
<polygon fill="#63b8ff" stroke="#63b8ff" points="635.76,-108.35 646.23,-109.98 639.07,-102.18 635.76,-108.35"/>
</a>
</g>
</g>
</g>
</svg>
