<?xml version="1.0" encoding="UTF-8" standalone="no"?>
<!DOCTYPE svg PUBLIC "-//W3C//DTD SVG 1.1//EN"
 "http://www.w3.org/Graphics/SVG/1.1/DTD/svg11.dtd">
<!-- Generated by graphviz version 2.43.0 (0)
 -->
<!-- Title: init/ClientConnection.cpp Pages: 1 -->
<svg width="2017pt" height="302pt"
 viewBox="0.00 0.00 2017.00 302.00" xmlns="http://www.w3.org/2000/svg" xmlns:xlink="http://www.w3.org/1999/xlink">
<g id="graph0" class="graph" transform="scale(1 1) rotate(0) translate(4 298)">
<title>init/ClientConnection.cpp</title>
<!-- Node1 -->
<g id="Node000001" class="node">
<title>Node1</title>
<g id="a_Node000001"><a xlink:title=" ">
<polygon fill="#999999" stroke="#666666" points="504.5,-294 365.5,-294 365.5,-275 504.5,-275 504.5,-294"/>
<text text-anchor="middle" x="435" y="-282" font-family="Helvetica,sans-Serif" font-size="10.00">init/ClientConnection.cpp</text>
</a>
</g>
</g>
<!-- Node2 -->
<g id="Node000002" class="node">
<title>Node2</title>
<g id="a_Node000002"><a xlink:title=" ">
<polygon fill="#e0e0e0" stroke="#999999" points="56,-239 0,-239 0,-220 56,-220 56,-239"/>
<text text-anchor="middle" x="28" y="-227" font-family="Helvetica,sans-Serif" font-size="10.00">unistd.h</text>
</a>
</g>
</g>
<!-- Node1&#45;&gt;Node2 -->
<g id="edge1_Node000001_Node000002" class="edge">
<title>Node1&#45;&gt;Node2</title>
<g id="a_edge1_Node000001_Node000002"><a xlink:title=" ">
<path fill="none" stroke="#63b8ff" d="M365.46,-277.36C293.04,-270.46 176.15,-257.92 66.16,-239.03"/>
<polygon fill="#63b8ff" stroke="#63b8ff" points="66.67,-235.57 56.22,-237.31 65.47,-242.47 66.67,-235.57"/>
</a>
</g>
</g>
<!-- Node3 -->
<g id="Node000003" class="node">
<title>Node3</title>
<g id="a_Node000003"><a xlink:title=" ">
<polygon fill="#e0e0e0" stroke="#999999" points="151.5,-239 74.5,-239 74.5,-220 151.5,-220 151.5,-239"/>
<text text-anchor="middle" x="113" y="-227" font-family="Helvetica,sans-Serif" font-size="10.00">sys/socket.h</text>
</a>
</g>
</g>
<!-- Node1&#45;&gt;Node3 -->
<g id="edge2_Node000001_Node000003" class="edge">
<title>Node1&#45;&gt;Node3</title>
<g id="a_edge2_Node000001_Node000003"><a xlink:title=" ">
<path fill="none" stroke="#63b8ff" d="M380.43,-274.97C327.07,-266.57 243.26,-253.18 161.66,-239.26"/>
<polygon fill="#63b8ff" stroke="#63b8ff" points="162.17,-235.8 151.72,-237.56 160.99,-242.7 162.17,-235.8"/>
</a>
</g>
</g>
<!-- Node4 -->
<g id="Node000004" class="node">
<title>Node4</title>
<g id="a_Node000004"><a xlink:title=" ">
<polygon fill="#e0e0e0" stroke="#999999" points="216.5,-239 169.5,-239 169.5,-220 216.5,-220 216.5,-239"/>
<text text-anchor="middle" x="193" y="-227" font-family="Helvetica,sans-Serif" font-size="10.00">fcntl.h</text>
</a>
</g>
</g>
<!-- Node1&#45;&gt;Node4 -->
<g id="edge3_Node000001_Node000004" class="edge">
<title>Node1&#45;&gt;Node4</title>
<g id="a_edge3_Node000001_Node000004"><a xlink:title=" ">
<path fill="none" stroke="#63b8ff" d="M391.42,-274.94C351.01,-266.85 288.97,-254.05 226.72,-239.33"/>
<polygon fill="#63b8ff" stroke="#63b8ff" points="227.27,-235.86 216.73,-236.95 225.65,-242.67 227.27,-235.86"/>
</a>
</g>
</g>
<!-- Node5 -->
<g id="Node000005" class="node">
<title>Node5</title>
<g id="a_Node000005"><a xlink:title=" ">
<polygon fill="#e0e0e0" stroke="#999999" points="285.5,-239 234.5,-239 234.5,-220 285.5,-220 285.5,-239"/>
<text text-anchor="middle" x="260" y="-227" font-family="Helvetica,sans-Serif" font-size="10.00">errno.h</text>
</a>
</g>
</g>
<!-- Node1&#45;&gt;Node5 -->
<g id="edge4_Node000001_Node000005" class="edge">
<title>Node1&#45;&gt;Node5</title>
<g id="a_edge4_Node000001_Node000005"><a xlink:title=" ">
<path fill="none" stroke="#63b8ff" d="M406.88,-274.98C376.59,-265.81 328.31,-251.19 295.44,-241.23"/>
<polygon fill="#63b8ff" stroke="#63b8ff" points="296.35,-237.85 285.77,-238.3 294.32,-244.55 296.35,-237.85"/>
</a>
</g>
</g>
<!-- Node6 -->
<g id="Node000006" class="node">
<title>Node6</title>
<g id="a_Node000006"><a xlink:title=" ">
<polygon fill="#e0e0e0" stroke="#999999" points="354,-239 304,-239 304,-220 354,-220 354,-239"/>
<text text-anchor="middle" x="329" y="-227" font-family="Helvetica,sans-Serif" font-size="10.00">cstring</text>
</a>
</g>
</g>
<!-- Node1&#45;&gt;Node6 -->
<g id="edge5_Node000001_Node000006" class="edge">
<title>Node1&#45;&gt;Node6</title>
<g id="a_edge5_Node000001_Node000006"><a xlink:title=" ">
<path fill="none" stroke="#63b8ff" d="M417.97,-274.98C401.07,-266.54 374.94,-253.47 355.36,-243.68"/>
<polygon fill="#63b8ff" stroke="#63b8ff" points="356.85,-240.51 346.34,-239.17 353.72,-246.77 356.85,-240.51"/>
</a>
</g>
</g>
<!-- Node7 -->
<g id="Node000007" class="node">
<title>Node7</title>
<g id="a_Node000007"><a xlink:title=" ">
<polygon fill="#e0e0e0" stroke="#999999" points="437.5,-239 372.5,-239 372.5,-220 437.5,-220 437.5,-239"/>
<text text-anchor="middle" x="405" y="-227" font-family="Helvetica,sans-Serif" font-size="10.00">stdexcept</text>
</a>
</g>
</g>
<!-- Node1&#45;&gt;Node7 -->
<g id="edge6_Node000001_Node000007" class="edge">
<title>Node1&#45;&gt;Node7</title>
<g id="a_edge6_Node000001_Node000007"><a xlink:title=" ">
<path fill="none" stroke="#63b8ff" d="M430.05,-274.75C425.94,-267.49 419.97,-256.95 414.9,-247.98"/>
<polygon fill="#63b8ff" stroke="#63b8ff" points="417.83,-246.07 409.86,-239.09 411.74,-249.52 417.83,-246.07"/>
</a>
</g>
</g>
<!-- Node8 -->
<g id="Node000008" class="node">
<title>Node8</title>
<g id="a_Node000008"><a xlink:title=" ">
<polygon fill="#e0e0e0" stroke="#999999" points="1046,-19 1002,-19 1002,0 1046,0 1046,-19"/>
<text text-anchor="middle" x="1024" y="-7" font-family="Helvetica,sans-Serif" font-size="10.00">string</text>
</a>
</g>
</g>
<!-- Node1&#45;&gt;Node8 -->
<g id="edge7_Node000001_Node000008" class="edge">
<title>Node1&#45;&gt;Node8</title>
<g id="a_edge7_Node000001_Node000008"><a xlink:title=" ">
<path fill="none" stroke="#63b8ff" d="M440.08,-274.6C446.73,-261.64 456.39,-237.25 446,-220 428.36,-190.7 402.82,-207.52 378,-184 334.71,-142.97 300.22,-98.52 341,-55 385.9,-7.08 862.44,-8.74 991.77,-10.08"/>
<polygon fill="#63b8ff" stroke="#63b8ff" points="991.8,-13.58 1001.84,-10.19 991.88,-6.58 991.8,-13.58"/>
</a>
</g>
</g>
<!-- Node9 -->
<g id="Node000009" class="node">
<title>Node9</title>
<g id="a_Node000009"><a xlink:href="ClientConnection_8hpp.html" target="_top" xlink:title=" ">
<polygon fill="white" stroke="#666666" points="587,-184 447,-184 447,-165 587,-165 587,-184"/>
<text text-anchor="middle" x="517" y="-172" font-family="Helvetica,sans-Serif" font-size="10.00">init/ClientConnection.hpp</text>
</a>
</g>
</g>
<!-- Node1&#45;&gt;Node9 -->
<g id="edge8_Node000001_Node000009" class="edge">
<title>Node1&#45;&gt;Node9</title>
<g id="a_edge8_Node000001_Node000009"><a xlink:title=" ">
<path fill="none" stroke="#63b8ff" d="M445.06,-274.96C454.72,-266.46 469.37,-252.72 480,-239 491.21,-224.53 501.47,-206.34 508.33,-193.14"/>
<polygon fill="#63b8ff" stroke="#63b8ff" points="511.48,-194.67 512.87,-184.17 505.24,-191.51 511.48,-194.67"/>
</a>
</g>
</g>
<!-- Node21 -->
<g id="Node000021" class="node">
<title>Node21</title>
<g id="a_Node000021"><a xlink:href="RequestParse_8hpp.html" target="_top" xlink:title=" ">
<polygon fill="white" stroke="#666666" points="1135.5,-239 992.5,-239 992.5,-220 1135.5,-220 1135.5,-239"/>
<text text-anchor="middle" x="1064" y="-227" font-family="Helvetica,sans-Serif" font-size="10.00">request/RequestParse.hpp</text>
</a>
</g>
</g>
<!-- Node1&#45;&gt;Node21 -->
<g id="edge26_Node000001_Node000021" class="edge">
<title>Node1&#45;&gt;Node21</title>
<g id="a_edge26_Node000001_Node000021"><a xlink:title=" ">
<path fill="none" stroke="#63b8ff" d="M504.72,-277.63C621.7,-267.77 856.92,-247.95 981.77,-237.43"/>
<polygon fill="#63b8ff" stroke="#63b8ff" points="982.37,-240.89 992.04,-236.56 981.78,-233.92 982.37,-240.89"/>
</a>
</g>
</g>
<!-- Node24 -->
<g id="Node000024" class="node">
<title>Node24</title>
<g id="a_Node000024"><a xlink:href="ResponseBuilder_8hpp.html" target="_top" xlink:title=" ">
<polygon fill="white" stroke="#666666" points="698,-239 532,-239 532,-220 698,-220 698,-239"/>
<text text-anchor="middle" x="615" y="-227" font-family="Helvetica,sans-Serif" font-size="10.00">response/ResponseBuilder.hpp</text>
</a>
</g>
</g>
<!-- Node1&#45;&gt;Node24 -->
<g id="edge39_Node000001_Node000024" class="edge">
<title>Node1&#45;&gt;Node24</title>
<g id="a_edge39_Node000001_Node000024"><a xlink:title=" ">
<path fill="none" stroke="#63b8ff" d="M463.92,-274.98C494.27,-266.05 542.17,-251.94 575.88,-242.02"/>
<polygon fill="#63b8ff" stroke="#63b8ff" points="577.25,-245.26 585.85,-239.08 575.27,-238.55 577.25,-245.26"/>
</a>
</g>
</g>
<!-- Node25 -->
<g id="Node000025" class="node">
<title>Node25</title>
<g id="a_Node000025"><a xlink:href="string__utils_8hpp.html" target="_top" xlink:title="Collection of inline string utility functions used across Webservinho.">
<polygon fill="white" stroke="#666666" points="1637,-184 1521,-184 1521,-165 1637,-165 1637,-184"/>
<text text-anchor="middle" x="1579" y="-172" font-family="Helvetica,sans-Serif" font-size="10.00">utils/string_utils.hpp</text>
</a>
</g>
</g>
<!-- Node1&#45;&gt;Node25 -->
<g id="edge45_Node000001_Node000025" class="edge">
<title>Node1&#45;&gt;Node25</title>
<g id="a_edge45_Node000001_Node000025"><a xlink:title=" ">
<path fill="none" stroke="#63b8ff" d="M504.7,-281.05C632.09,-276.13 910.99,-263.41 1145,-239 1279.69,-224.95 1436.68,-199.78 1519.99,-185.72"/>
<polygon fill="#63b8ff" stroke="#63b8ff" points="1520.75,-189.14 1530.03,-184.02 1519.58,-182.24 1520.75,-189.14"/>
</a>
</g>
</g>
<!-- Node31 -->
<g id="Node000031" class="node">
<title>Node31</title>
<g id="a_Node000031"><a xlink:href="Logger_8hpp.html" target="_top" xlink:title=" ">
<polygon fill="white" stroke="#666666" points="1876,-184 1782,-184 1782,-165 1876,-165 1876,-184"/>
<text text-anchor="middle" x="1829" y="-172" font-family="Helvetica,sans-Serif" font-size="10.00">utils/Logger.hpp</text>
</a>
</g>
</g>
<!-- Node1&#45;&gt;Node31 -->
<g id="edge53_Node000001_Node000031" class="edge">
<title>Node1&#45;&gt;Node31</title>
<g id="a_edge53_Node000001_Node000031"><a xlink:title=" ">
<path fill="none" stroke="#63b8ff" d="M504.73,-280.76C643.15,-275.07 962.35,-260.66 1230,-239 1429.23,-222.87 1664.87,-195.43 1771.49,-182.56"/>
<polygon fill="#63b8ff" stroke="#63b8ff" points="1772.2,-186 1781.71,-181.32 1771.36,-179.05 1772.2,-186"/>
</a>
</g>
</g>
<!-- Node9&#45;&gt;Node8 -->
<g id="edge9_Node000009_Node000008" class="edge">
<title>Node9&#45;&gt;Node8</title>
<g id="a_edge9_Node000009_Node000008"><a xlink:title=" ">
<path fill="none" stroke="#63b8ff" d="M508.49,-164.66C495.29,-151.35 468.61,-126.01 442,-110 401.83,-85.84 319.97,-89.23 352,-55 396.06,-7.93 863.06,-8.94 991.48,-10.12"/>
<polygon fill="#63b8ff" stroke="#63b8ff" points="991.79,-13.62 1001.83,-10.22 991.86,-6.62 991.79,-13.62"/>
</a>
</g>
</g>
<!-- Node10 -->
<g id="Node000010" class="node">
<title>Node10</title>
<g id="a_Node000010"><a xlink:title=" ">
<polygon fill="#e0e0e0" stroke="#999999" points="1066,-129 1022,-129 1022,-110 1066,-110 1066,-129"/>
<text text-anchor="middle" x="1044" y="-117" font-family="Helvetica,sans-Serif" font-size="10.00">ctime</text>
</a>
</g>
</g>
<!-- Node9&#45;&gt;Node10 -->
<g id="edge10_Node000009_Node000010" class="edge">
<title>Node9&#45;&gt;Node10</title>
<g id="a_edge10_Node000009_Node000010"><a xlink:title=" ">
<path fill="none" stroke="#63b8ff" d="M587.35,-171.13C681.88,-167.07 855.18,-156.57 1011.49,-128.95"/>
<polygon fill="#63b8ff" stroke="#63b8ff" points="1012.53,-132.32 1021.76,-127.11 1011.3,-125.43 1012.53,-132.32"/>
</a>
</g>
</g>
<!-- Node11 -->
<g id="Node000011" class="node">
<title>Node11</title>
<g id="a_Node000011"><a xlink:title=" ">
<polygon fill="#e0e0e0" stroke="#999999" points="433,-129 361,-129 361,-110 433,-110 433,-129"/>
<text text-anchor="middle" x="397" y="-117" font-family="Helvetica,sans-Serif" font-size="10.00">sys/types.h</text>
</a>
</g>
</g>
<!-- Node9&#45;&gt;Node11 -->
<g id="edge11_Node000009_Node000011" class="edge">
<title>Node9&#45;&gt;Node11</title>
<g id="a_edge11_Node000009_Node000011"><a xlink:title=" ">
<path fill="none" stroke="#63b8ff" d="M497.72,-164.98C478.33,-156.42 448.19,-143.11 425.93,-133.28"/>
<polygon fill="#63b8ff" stroke="#63b8ff" points="427.19,-130.01 416.63,-129.17 424.36,-136.41 427.19,-130.01"/>
</a>
</g>
</g>
<!-- Node12 -->
<g id="Node000012" class="node">
<title>Node12</title>
<g id="a_Node000012"><a xlink:href="HttpRequest_8hpp.html" target="_top" xlink:title=" ">
<polygon fill="white" stroke="#666666" points="1004,-129 866,-129 866,-110 1004,-110 1004,-129"/>
<text text-anchor="middle" x="935" y="-117" font-family="Helvetica,sans-Serif" font-size="10.00">request/HttpRequest.hpp</text>
</a>
</g>
</g>
<!-- Node9&#45;&gt;Node12 -->
<g id="edge12_Node000009_Node000012" class="edge">
<title>Node9&#45;&gt;Node12</title>
<g id="a_edge12_Node000009_Node000012"><a xlink:title=" ">
<path fill="none" stroke="#63b8ff" d="M584.16,-164.98C658.7,-155.53 778.82,-140.3 857.34,-130.35"/>
<polygon fill="#63b8ff" stroke="#63b8ff" points="858.18,-133.77 867.66,-129.04 857.3,-126.82 858.18,-133.77"/>
</a>
</g>
</g>
<!-- Node20 -->
<g id="Node000020" class="node">
<title>Node20</title>
<g id="a_Node000020"><a xlink:href="HttpResponse_8hpp.html" target="_top" xlink:title=" ">
<polygon fill="white" stroke="#666666" points="642.5,-129 489.5,-129 489.5,-110 642.5,-110 642.5,-129"/>
<text text-anchor="middle" x="566" y="-117" font-family="Helvetica,sans-Serif" font-size="10.00">response/HttpResponse.hpp</text>
</a>
</g>
</g>
<!-- Node9&#45;&gt;Node20 -->
<g id="edge22_Node000009_Node000020" class="edge">
<title>Node9&#45;&gt;Node20</title>
<g id="a_edge22_Node000009_Node000020"><a xlink:title=" ">
<path fill="none" stroke="#63b8ff" d="M525.09,-164.75C532.16,-157.11 542.59,-145.82 551.15,-136.56"/>
<polygon fill="#63b8ff" stroke="#63b8ff" points="553.84,-138.81 558.06,-129.09 548.7,-134.06 553.84,-138.81"/>
</a>
</g>
</g>
<!-- Node12&#45;&gt;Node8 -->
<g id="edge13_Node000012_Node000008" class="edge">
<title>Node12&#45;&gt;Node8</title>
<g id="a_edge13_Node000012_Node000008"><a xlink:title=" ">
<path fill="none" stroke="#63b8ff" d="M998.35,-109.95C1019.95,-103.66 1041.93,-92.79 1055,-74 1065.44,-58.99 1053.21,-39.93 1041.18,-26.63"/>
<polygon fill="#63b8ff" stroke="#63b8ff" points="1043.4,-23.89 1033.91,-19.17 1038.38,-28.78 1043.4,-23.89"/>
</a>
</g>
</g>
<!-- Node13 -->
<g id="Node000013" class="node">
<title>Node13</title>
<g id="a_Node000013"><a xlink:title=" ">
<polygon fill="#e0e0e0" stroke="#999999" points="1140,-74 1102,-74 1102,-55 1140,-55 1140,-74"/>
<text text-anchor="middle" x="1121" y="-62" font-family="Helvetica,sans-Serif" font-size="10.00">map</text>
</a>
</g>
</g>
<!-- Node12&#45;&gt;Node13 -->
<g id="edge14_Node000012_Node000013" class="edge">
<title>Node12&#45;&gt;Node13</title>
<g id="a_edge14_Node000012_Node000013"><a xlink:title=" ">
<path fill="none" stroke="#63b8ff" d="M964.88,-109.98C999.88,-100.01 1057.44,-83.61 1092.03,-73.75"/>
<polygon fill="#63b8ff" stroke="#63b8ff" points="1093.32,-77.03 1101.98,-70.92 1091.4,-70.29 1093.32,-77.03"/>
</a>
</g>
</g>
<!-- Node14 -->
<g id="Node000014" class="node">
<title>Node14</title>
<g id="a_Node000014"><a xlink:title=" ">
<polygon fill="#e0e0e0" stroke="#999999" points="1415.5,-74 1368.5,-74 1368.5,-55 1415.5,-55 1415.5,-74"/>
<text text-anchor="middle" x="1392" y="-62" font-family="Helvetica,sans-Serif" font-size="10.00">vector</text>
</a>
</g>
</g>
<!-- Node12&#45;&gt;Node14 -->
<g id="edge15_Node000012_Node000014" class="edge">
<title>Node12&#45;&gt;Node14</title>
<g id="a_edge15_Node000012_Node000014"><a xlink:title=" ">
<path fill="none" stroke="#63b8ff" d="M1004.32,-110.93C1007.25,-110.61 1010.16,-110.3 1013,-110 1163.44,-93.98 1205.06,-101.04 1358.06,-73.89"/>
<polygon fill="#63b8ff" stroke="#63b8ff" points="1359.08,-77.26 1368.3,-72.05 1357.84,-70.37 1359.08,-77.26"/>
</a>
</g>
</g>
<!-- Node15 -->
<g id="Node000015" class="node">
<title>Node15</title>
<g id="a_Node000015"><a xlink:href="RequestMethod_8hpp.html" target="_top" xlink:title=" ">
<polygon fill="white" stroke="#666666" points="1350,-74 1196,-74 1196,-55 1350,-55 1350,-74"/>
<text text-anchor="middle" x="1273" y="-62" font-family="Helvetica,sans-Serif" font-size="10.00">request/RequestMethod.hpp</text>
</a>
</g>
</g>
<!-- Node12&#45;&gt;Node15 -->
<g id="edge16_Node000012_Node000015" class="edge">
<title>Node12&#45;&gt;Node15</title>
<g id="a_edge16_Node000012_Node000015"><a xlink:title=" ">
<path fill="none" stroke="#63b8ff" d="M989.31,-109.98C1049.09,-100.61 1145.13,-85.55 1208.64,-75.59"/>
<polygon fill="#63b8ff" stroke="#63b8ff" points="1209.21,-79.05 1218.55,-74.04 1208.13,-72.13 1209.21,-79.05"/>
</a>
</g>
</g>
<!-- Node16 -->
<g id="Node000016" class="node">
<title>Node16</title>
<g id="a_Node000016"><a xlink:href="RequestMeta_8hpp.html" target="_top" xlink:title=" ">
<polygon fill="white" stroke="#666666" points="1046,-74 904,-74 904,-55 1046,-55 1046,-74"/>
<text text-anchor="middle" x="975" y="-62" font-family="Helvetica,sans-Serif" font-size="10.00">request/RequestMeta.hpp</text>
</a>
</g>
</g>
<!-- Node12&#45;&gt;Node16 -->
<g id="edge17_Node000012_Node000016" class="edge">
<title>Node12&#45;&gt;Node16</title>
<g id="a_edge17_Node000012_Node000016"><a xlink:title=" ">
<path fill="none" stroke="#63b8ff" d="M941.61,-109.75C947.26,-102.26 955.54,-91.28 962.45,-82.13"/>
<polygon fill="#63b8ff" stroke="#63b8ff" points="965.29,-84.18 968.52,-74.09 959.7,-79.96 965.29,-84.18"/>
</a>
</g>
</g>
<!-- Node17 -->
<g id="Node000017" class="node">
<title>Node17</title>
<g id="a_Node000017"><a xlink:href="RequestState_8hpp.html" target="_top" xlink:title=" ">
<polygon fill="white" stroke="#666666" points="724.5,-74 581.5,-74 581.5,-55 724.5,-55 724.5,-74"/>
<text text-anchor="middle" x="653" y="-62" font-family="Helvetica,sans-Serif" font-size="10.00">request/RequestState.hpp</text>
</a>
</g>
</g>
<!-- Node12&#45;&gt;Node17 -->
<g id="edge19_Node000012_Node000017" class="edge">
<title>Node12&#45;&gt;Node17</title>
<g id="a_edge19_Node000012_Node000017"><a xlink:title=" ">
<path fill="none" stroke="#63b8ff" d="M889.69,-109.98C840.4,-100.72 761.57,-85.9 708.57,-75.94"/>
<polygon fill="#63b8ff" stroke="#63b8ff" points="709.14,-72.49 698.66,-74.08 707.84,-79.37 709.14,-72.49"/>
</a>
</g>
</g>
<!-- Node18 -->
<g id="Node000018" class="node">
<title>Node18</title>
<g id="a_Node000018"><a xlink:href="ResponseStatus_8hpp.html" target="_top" xlink:title=" ">
<polygon fill="white" stroke="#666666" points="524.5,-74 361.5,-74 361.5,-55 524.5,-55 524.5,-74"/>
<text text-anchor="middle" x="443" y="-62" font-family="Helvetica,sans-Serif" font-size="10.00">response/ResponseStatus.hpp</text>
</a>
</g>
</g>
<!-- Node12&#45;&gt;Node18 -->
<g id="edge20_Node000012_Node000018" class="edge">
<title>Node12&#45;&gt;Node18</title>
<g id="a_edge20_Node000012_Node000018"><a xlink:title=" ">
<path fill="none" stroke="#63b8ff" d="M865.81,-111.05C778.39,-101.63 627.79,-85.41 531.91,-75.08"/>
<polygon fill="#63b8ff" stroke="#63b8ff" points="532.26,-71.6 521.95,-74 531.51,-78.56 532.26,-71.6"/>
</a>
</g>
</g>
<!-- Node19 -->
<g id="Node000019" class="node">
<title>Node19</title>
<g id="a_Node000019"><a xlink:href="RouteType_8hpp.html" target="_top" xlink:title=" ">
<polygon fill="white" stroke="#666666" points="885.5,-74 742.5,-74 742.5,-55 885.5,-55 885.5,-74"/>
<text text-anchor="middle" x="814" y="-62" font-family="Helvetica,sans-Serif" font-size="10.00">dispatcher/RouteType.hpp</text>
</a>
</g>
</g>
<!-- Node12&#45;&gt;Node19 -->
<g id="edge21_Node000012_Node000019" class="edge">
<title>Node12&#45;&gt;Node19</title>
<g id="a_edge21_Node000012_Node000019"><a xlink:title=" ">
<path fill="none" stroke="#63b8ff" d="M915.56,-109.98C896.01,-101.42 865.62,-88.11 843.18,-78.28"/>
<polygon fill="#63b8ff" stroke="#63b8ff" points="844.36,-74.98 833.79,-74.17 841.55,-81.39 844.36,-74.98"/>
</a>
</g>
</g>
<!-- Node16&#45;&gt;Node8 -->
<g id="edge18_Node000016_Node000008" class="edge">
<title>Node16&#45;&gt;Node8</title>
<g id="a_edge18_Node000016_Node000008"><a xlink:title=" ">
<path fill="none" stroke="#63b8ff" d="M983.09,-54.75C990.16,-47.11 1000.59,-35.82 1009.15,-26.56"/>
<polygon fill="#63b8ff" stroke="#63b8ff" points="1011.84,-28.81 1016.06,-19.09 1006.7,-24.06 1011.84,-28.81"/>
</a>
</g>
</g>
<!-- Node20&#45;&gt;Node8 -->
<g id="edge23_Node000020_Node000008" class="edge">
<title>Node20&#45;&gt;Node8</title>
<g id="a_edge23_Node000020_Node000008"><a xlink:title=" ">
<path fill="none" stroke="#63b8ff" d="M563.74,-109.68C560.81,-95.92 557.62,-69.44 572,-55 601.53,-25.35 892.92,-14.27 991.55,-11.36"/>
<polygon fill="#63b8ff" stroke="#63b8ff" points="991.91,-14.85 1001.81,-11.06 991.71,-7.85 991.91,-14.85"/>
</a>
</g>
</g>
<!-- Node20&#45;&gt;Node13 -->
<g id="edge24_Node000020_Node000013" class="edge">
<title>Node20&#45;&gt;Node13</title>
<g id="a_edge24_Node000020_Node000013"><a xlink:title=" ">
<path fill="none" stroke="#63b8ff" d="M642.74,-112.41C739.11,-104.55 909.46,-89.99 1055,-74 1067.13,-72.67 1080.49,-70.99 1092,-69.47"/>
<polygon fill="#63b8ff" stroke="#63b8ff" points="1092.51,-72.94 1101.96,-68.14 1091.59,-66 1092.51,-72.94"/>
</a>
</g>
</g>
<!-- Node20&#45;&gt;Node18 -->
<g id="edge25_Node000020_Node000018" class="edge">
<title>Node20&#45;&gt;Node18</title>
<g id="a_edge25_Node000020_Node000018"><a xlink:title=" ">
<path fill="none" stroke="#63b8ff" d="M546.24,-109.98C526.27,-101.38 495.2,-87.99 472.35,-78.15"/>
<polygon fill="#63b8ff" stroke="#63b8ff" points="473.69,-74.91 463.12,-74.17 470.92,-81.34 473.69,-74.91"/>
</a>
</g>
</g>
<!-- Node21&#45;&gt;Node12 -->
<g id="edge28_Node000021_Node000012" class="edge">
<title>Node21&#45;&gt;Node12</title>
<g id="a_edge28_Node000021_Node000012"><a xlink:title=" ">
<path fill="none" stroke="#63b8ff" d="M1053.44,-219.66C1031.51,-201.3 980.76,-158.81 953.35,-135.87"/>
<polygon fill="#63b8ff" stroke="#63b8ff" points="955.26,-132.89 945.34,-129.16 950.76,-138.26 955.26,-132.89"/>
</a>
</g>
</g>
<!-- Node21&#45;&gt;Node15 -->
<g id="edge27_Node000021_Node000015" class="edge">
<title>Node21&#45;&gt;Node15</title>
<g id="a_edge27_Node000021_Node000015"><a xlink:title=" ">
<path fill="none" stroke="#63b8ff" d="M1135.61,-220.17C1186.14,-212.97 1248.21,-201.02 1268,-184 1293.92,-161.7 1294.87,-143.68 1289,-110 1287.43,-101 1284.2,-91.42 1281.06,-83.46"/>
<polygon fill="#63b8ff" stroke="#63b8ff" points="1284.23,-81.97 1277.11,-74.12 1277.78,-84.69 1284.23,-81.97"/>
</a>
</g>
</g>
<!-- Node22 -->
<g id="Node000022" class="node">
<title>Node22</title>
<g id="a_Node000022"><a xlink:href="ServerConfig_8hpp.html" target="_top" xlink:title=" ">
<polygon fill="white" stroke="#666666" points="1259,-184 1127,-184 1127,-165 1259,-165 1259,-184"/>
<text text-anchor="middle" x="1193" y="-172" font-family="Helvetica,sans-Serif" font-size="10.00">config/ServerConfig.hpp</text>
</a>
</g>
</g>
<!-- Node21&#45;&gt;Node22 -->
<g id="edge29_Node000021_Node000022" class="edge">
<title>Node21&#45;&gt;Node22</title>
<g id="a_edge29_Node000021_Node000022"><a xlink:title=" ">
<path fill="none" stroke="#63b8ff" d="M1084.73,-219.98C1105.76,-211.34 1138.55,-197.87 1162.54,-188.02"/>
<polygon fill="#63b8ff" stroke="#63b8ff" points="1163.98,-191.21 1171.9,-184.17 1161.32,-184.73 1163.98,-191.21"/>
</a>
</g>
</g>
<!-- Node22&#45;&gt;Node8 -->
<g id="edge30_Node000022_Node000008" class="edge">
<title>Node22&#45;&gt;Node8</title>
<g id="a_edge30_Node000022_Node000008"><a xlink:title=" ">
<path fill="none" stroke="#63b8ff" d="M1253.36,-164.95C1339.09,-150.44 1479.98,-116.42 1425,-55 1400.51,-27.64 1147.08,-15.24 1056.21,-11.66"/>
<polygon fill="#63b8ff" stroke="#63b8ff" points="1056.33,-8.16 1046.2,-11.27 1056.06,-15.15 1056.33,-8.16"/>
</a>
</g>
</g>
<!-- Node22&#45;&gt;Node13 -->
<g id="edge32_Node000022_Node000013" class="edge">
<title>Node22&#45;&gt;Node13</title>
<g id="a_edge32_Node000022_Node000013"><a xlink:title=" ">
<path fill="none" stroke="#63b8ff" d="M1161.95,-164.87C1144.25,-158.18 1123.55,-146.95 1113,-129 1105,-115.4 1108.34,-97.34 1112.9,-83.96"/>
<polygon fill="#63b8ff" stroke="#63b8ff" points="1116.25,-85 1116.62,-74.41 1109.73,-82.45 1116.25,-85"/>
</a>
</g>
</g>
<!-- Node22&#45;&gt;Node14 -->
<g id="edge31_Node000022_Node000014" class="edge">
<title>Node22&#45;&gt;Node14</title>
<g id="a_edge31_Node000022_Node000014"><a xlink:title=" ">
<path fill="none" stroke="#63b8ff" d="M1213.19,-164.97C1232.86,-156.47 1263.44,-142.74 1289,-129 1318.04,-113.39 1350.19,-93.05 1370.72,-79.65"/>
<polygon fill="#63b8ff" stroke="#63b8ff" points="1372.85,-82.44 1379.28,-74.02 1369,-76.59 1372.85,-82.44"/>
</a>
</g>
</g>
<!-- Node22&#45;&gt;Node15 -->
<g id="edge38_Node000022_Node000015" class="edge">
<title>Node22&#45;&gt;Node15</title>
<g id="a_edge38_Node000022_Node000015"><a xlink:title=" ">
<path fill="none" stroke="#63b8ff" d="M1224.05,-164.87C1241.75,-158.18 1262.45,-146.95 1273,-129 1280.95,-115.49 1280.07,-97.4 1277.71,-83.98"/>
<polygon fill="#63b8ff" stroke="#63b8ff" points="1281.09,-83.05 1275.55,-74.01 1274.25,-84.53 1281.09,-83.05"/>
</a>
</g>
</g>
<!-- Node23 -->
<g id="Node000023" class="node">
<title>Node23</title>
<g id="a_Node000023"><a xlink:href="LocationConfig_8hpp.html" target="_top" xlink:title=" ">
<polygon fill="white" stroke="#666666" points="1264,-129 1122,-129 1122,-110 1264,-110 1264,-129"/>
<text text-anchor="middle" x="1193" y="-117" font-family="Helvetica,sans-Serif" font-size="10.00">config/LocationConfig.hpp</text>
</a>
</g>
</g>
<!-- Node22&#45;&gt;Node23 -->
<g id="edge33_Node000022_Node000023" class="edge">
<title>Node22&#45;&gt;Node23</title>
<g id="a_edge33_Node000022_Node000023"><a xlink:title=" ">
<path fill="none" stroke="#63b8ff" d="M1193,-164.75C1193,-157.8 1193,-147.85 1193,-139.13"/>
<polygon fill="#63b8ff" stroke="#63b8ff" points="1196.5,-139.09 1193,-129.09 1189.5,-139.09 1196.5,-139.09"/>
</a>
</g>
</g>
<!-- Node23&#45;&gt;Node8 -->
<g id="edge35_Node000023_Node000008" class="edge">
<title>Node23&#45;&gt;Node8</title>
<g id="a_edge35_Node000023_Node000008"><a xlink:title=" ">
<path fill="none" stroke="#63b8ff" d="M1189.17,-109.82C1182.75,-96.24 1168.59,-70 1149,-55 1121.55,-33.98 1083.32,-22.31 1056.39,-16.26"/>
<polygon fill="#63b8ff" stroke="#63b8ff" points="1056.82,-12.77 1046.32,-14.13 1055.38,-19.62 1056.82,-12.77"/>
</a>
</g>
</g>
<!-- Node23&#45;&gt;Node13 -->
<g id="edge36_Node000023_Node000013" class="edge">
<title>Node23&#45;&gt;Node13</title>
<g id="a_edge36_Node000023_Node000013"><a xlink:title=" ">
<path fill="none" stroke="#63b8ff" d="M1181.43,-109.98C1170.58,-102 1154.12,-89.88 1141.12,-80.31"/>
<polygon fill="#63b8ff" stroke="#63b8ff" points="1142.91,-77.28 1132.78,-74.17 1138.76,-82.92 1142.91,-77.28"/>
</a>
</g>
</g>
<!-- Node23&#45;&gt;Node14 -->
<g id="edge34_Node000023_Node000014" class="edge">
<title>Node23&#45;&gt;Node14</title>
<g id="a_edge34_Node000023_Node000014"><a xlink:title=" ">
<path fill="none" stroke="#63b8ff" d="M1224.97,-109.98C1261.53,-100.25 1321.11,-84.38 1358.35,-74.46"/>
<polygon fill="#63b8ff" stroke="#63b8ff" points="1359.46,-77.79 1368.22,-71.83 1357.66,-71.02 1359.46,-77.79"/>
</a>
</g>
</g>
<!-- Node23&#45;&gt;Node15 -->
<g id="edge37_Node000023_Node000015" class="edge">
<title>Node23&#45;&gt;Node15</title>
<g id="a_edge37_Node000023_Node000015"><a xlink:title=" ">
<path fill="none" stroke="#63b8ff" d="M1205.85,-109.98C1218.14,-101.84 1236.91,-89.41 1251.48,-79.76"/>
<polygon fill="#63b8ff" stroke="#63b8ff" points="1253.51,-82.61 1259.91,-74.17 1249.64,-76.78 1253.51,-82.61"/>
</a>
</g>
</g>
<!-- Node24&#45;&gt;Node9 -->
<g id="edge42_Node000024_Node000009" class="edge">
<title>Node24&#45;&gt;Node9</title>
<g id="a_edge42_Node000024_Node000009"><a xlink:title=" ">
<path fill="none" stroke="#63b8ff" d="M599.25,-219.98C583.77,-211.61 559.91,-198.7 541.86,-188.95"/>
<polygon fill="#63b8ff" stroke="#63b8ff" points="543.49,-185.85 533.03,-184.17 540.16,-192.01 543.49,-185.85"/>
</a>
</g>
</g>
<!-- Node24&#45;&gt;Node18 -->
<g id="edge41_Node000024_Node000018" class="edge">
<title>Node24&#45;&gt;Node18</title>
<g id="a_edge41_Node000024_Node000018"><a xlink:title=" ">
<path fill="none" stroke="#63b8ff" d="M531.95,-224.07C468.62,-215.57 386.58,-192.16 352,-129 338.62,-104.56 369.41,-87.46 398.73,-77.22"/>
<polygon fill="#63b8ff" stroke="#63b8ff" points="400.14,-80.44 408.55,-74 397.96,-73.79 400.14,-80.44"/>
</a>
</g>
</g>
<!-- Node24&#45;&gt;Node20 -->
<g id="edge40_Node000024_Node000020" class="edge">
<title>Node24&#45;&gt;Node20</title>
<g id="a_edge40_Node000024_Node000020"><a xlink:title=" ">
<path fill="none" stroke="#63b8ff" d="M613.31,-219.98C610.65,-207.51 604.86,-183.72 596,-165 591.43,-155.33 584.92,-145.39 579.14,-137.36"/>
<polygon fill="#63b8ff" stroke="#63b8ff" points="581.85,-135.13 573.05,-129.22 576.24,-139.33 581.85,-135.13"/>
</a>
</g>
</g>
<!-- Node24&#45;&gt;Node22 -->
<g id="edge43_Node000024_Node000022" class="edge">
<title>Node24&#45;&gt;Node22</title>
<g id="a_edge43_Node000024_Node000022"><a xlink:title=" ">
<path fill="none" stroke="#63b8ff" d="M698.12,-220.88C810.09,-210.61 1007.83,-192.48 1116.37,-182.53"/>
<polygon fill="#63b8ff" stroke="#63b8ff" points="1116.95,-185.99 1126.59,-181.59 1116.31,-179.02 1116.95,-185.99"/>
</a>
</g>
</g>
<!-- Node24&#45;&gt;Node23 -->
<g id="edge44_Node000024_Node000023" class="edge">
<title>Node24&#45;&gt;Node23</title>
<g id="a_edge44_Node000024_Node000023"><a xlink:title=" ">
<path fill="none" stroke="#63b8ff" d="M660.84,-219.94C765.81,-200.32 1023.33,-152.2 1137.24,-130.92"/>
<polygon fill="#63b8ff" stroke="#63b8ff" points="1137.97,-134.34 1147.16,-129.07 1136.68,-127.46 1137.97,-134.34"/>
</a>
</g>
</g>
<!-- Node25&#45;&gt;Node8 -->
<g id="edge46_Node000025_Node000008" class="edge">
<title>Node25&#45;&gt;Node8</title>
<g id="a_edge46_Node000025_Node000008"><a xlink:title=" ">
<path fill="none" stroke="#63b8ff" d="M1559.36,-164.98C1542.7,-157.16 1518.75,-144.46 1501,-129 1469.69,-101.74 1480.23,-75.27 1444,-55 1377.58,-17.85 1142.7,-11.69 1056.25,-10.69"/>
<polygon fill="#63b8ff" stroke="#63b8ff" points="1056.26,-7.19 1046.23,-10.59 1056.19,-14.19 1056.26,-7.19"/>
</a>
</g>
</g>
<!-- Node25&#45;&gt;Node14 -->
<g id="edge48_Node000025_Node000014" class="edge">
<title>Node25&#45;&gt;Node14</title>
<g id="a_edge48_Node000025_Node000014"><a xlink:title=" ">
<path fill="none" stroke="#63b8ff" d="M1550.95,-164.99C1527.8,-157.34 1494.55,-144.87 1468,-129 1445.34,-115.46 1422.52,-95.31 1407.88,-81.36"/>
<polygon fill="#63b8ff" stroke="#63b8ff" points="1410.26,-78.79 1400.65,-74.33 1405.38,-83.81 1410.26,-78.79"/>
</a>
</g>
</g>
<!-- Node26 -->
<g id="Node000026" class="node">
<title>Node26</title>
<g id="a_Node000026"><a xlink:title=" ">
<polygon fill="#e0e0e0" stroke="#999999" points="1857,-129 1801,-129 1801,-110 1857,-110 1857,-129"/>
<text text-anchor="middle" x="1829" y="-117" font-family="Helvetica,sans-Serif" font-size="10.00">sstream</text>
</a>
</g>
</g>
<!-- Node25&#45;&gt;Node26 -->
<g id="edge47_Node000025_Node000026" class="edge">
<title>Node25&#45;&gt;Node26</title>
<g id="a_edge47_Node000025_Node000026"><a xlink:title=" ">
<path fill="none" stroke="#63b8ff" d="M1621.08,-164.96C1661.99,-156.61 1726.13,-143.36 1790.77,-129.24"/>
<polygon fill="#63b8ff" stroke="#63b8ff" points="1791.71,-132.61 1800.73,-127.05 1790.21,-125.78 1791.71,-132.61"/>
</a>
</g>
</g>
<!-- Node27 -->
<g id="Node000027" class="node">
<title>Node27</title>
<g id="a_Node000027"><a xlink:title=" ">
<polygon fill="#e0e0e0" stroke="#999999" points="1574,-129 1510,-129 1510,-110 1574,-110 1574,-129"/>
<text text-anchor="middle" x="1542" y="-117" font-family="Helvetica,sans-Serif" font-size="10.00">algorithm</text>
</a>
</g>
</g>
<!-- Node25&#45;&gt;Node27 -->
<g id="edge49_Node000025_Node000027" class="edge">
<title>Node25&#45;&gt;Node27</title>
<g id="a_edge49_Node000025_Node000027"><a xlink:title=" ">
<path fill="none" stroke="#63b8ff" d="M1572.89,-164.75C1567.72,-157.34 1560.15,-146.5 1553.81,-137.41"/>
<polygon fill="#63b8ff" stroke="#63b8ff" points="1556.59,-135.29 1548,-129.09 1550.85,-139.29 1556.59,-135.29"/>
</a>
</g>
</g>
<!-- Node28 -->
<g id="Node000028" class="node">
<title>Node28</title>
<g id="a_Node000028"><a xlink:title=" ">
<polygon fill="#e0e0e0" stroke="#999999" points="1641.5,-129 1592.5,-129 1592.5,-110 1641.5,-110 1641.5,-129"/>
<text text-anchor="middle" x="1617" y="-117" font-family="Helvetica,sans-Serif" font-size="10.00">cctype</text>
</a>
</g>
</g>
<!-- Node25&#45;&gt;Node28 -->
<g id="edge50_Node000025_Node000028" class="edge">
<title>Node25&#45;&gt;Node28</title>
<g id="a_edge50_Node000025_Node000028"><a xlink:title=" ">
<path fill="none" stroke="#63b8ff" d="M1585.27,-164.75C1590.59,-157.34 1598.36,-146.5 1604.88,-137.41"/>
<polygon fill="#63b8ff" stroke="#63b8ff" points="1607.86,-139.26 1610.84,-129.09 1602.17,-135.18 1607.86,-139.26"/>
</a>
</g>
</g>
<!-- Node29 -->
<g id="Node000029" class="node">
<title>Node29</title>
<g id="a_Node000029"><a xlink:title=" ">
<polygon fill="#e0e0e0" stroke="#999999" points="1708.5,-129 1659.5,-129 1659.5,-110 1708.5,-110 1708.5,-129"/>
<text text-anchor="middle" x="1684" y="-117" font-family="Helvetica,sans-Serif" font-size="10.00">cstdlib</text>
</a>
</g>
</g>
<!-- Node25&#45;&gt;Node29 -->
<g id="edge51_Node000025_Node000029" class="edge">
<title>Node25&#45;&gt;Node29</title>
<g id="a_edge51_Node000025_Node000029"><a xlink:title=" ">
<path fill="none" stroke="#63b8ff" d="M1595.87,-164.98C1612.61,-156.54 1638.5,-143.47 1657.89,-133.68"/>
<polygon fill="#63b8ff" stroke="#63b8ff" points="1659.47,-136.8 1666.82,-129.17 1656.32,-130.55 1659.47,-136.8"/>
</a>
</g>
</g>
<!-- Node30 -->
<g id="Node000030" class="node">
<title>Node30</title>
<g id="a_Node000030"><a xlink:title=" ">
<polygon fill="#e0e0e0" stroke="#999999" points="1783,-129 1727,-129 1727,-110 1783,-110 1783,-129"/>
<text text-anchor="middle" x="1755" y="-117" font-family="Helvetica,sans-Serif" font-size="10.00">iomanip</text>
</a>
</g>
</g>
<!-- Node25&#45;&gt;Node30 -->
<g id="edge52_Node000025_Node000030" class="edge">
<title>Node25&#45;&gt;Node30</title>
<g id="a_edge52_Node000025_Node000030"><a xlink:title=" ">
<path fill="none" stroke="#63b8ff" d="M1607.28,-164.98C1637.04,-156.02 1684.07,-141.86 1717.04,-131.93"/>
<polygon fill="#63b8ff" stroke="#63b8ff" points="1718.23,-135.23 1726.79,-128.99 1716.21,-128.53 1718.23,-135.23"/>
</a>
</g>
</g>
<!-- Node31&#45;&gt;Node10 -->
<g id="edge54_Node000031_Node000010" class="edge">
<title>Node31&#45;&gt;Node10</title>
<g id="a_edge54_Node000031_Node000010"><a xlink:title=" ">
<path fill="none" stroke="#63b8ff" d="M1781.56,-170.93C1643.5,-163.38 1243.53,-141.08 1113,-129 1100.95,-127.88 1087.75,-126.34 1076.15,-124.87"/>
<polygon fill="#63b8ff" stroke="#63b8ff" points="1076.39,-121.37 1066.03,-123.56 1075.49,-128.31 1076.39,-121.37"/>
</a>
</g>
</g>
<!-- Node31&#45;&gt;Node26 -->
<g id="edge57_Node000031_Node000026" class="edge">
<title>Node31&#45;&gt;Node26</title>
<g id="a_edge57_Node000031_Node000026"><a xlink:title=" ">
<path fill="none" stroke="#63b8ff" d="M1829,-164.75C1829,-157.8 1829,-147.85 1829,-139.13"/>
<polygon fill="#63b8ff" stroke="#63b8ff" points="1832.5,-139.09 1829,-129.09 1825.5,-139.09 1832.5,-139.09"/>
</a>
</g>
</g>
<!-- Node32 -->
<g id="Node000032" class="node">
<title>Node32</title>
<g id="a_Node000032"><a xlink:title=" ">
<polygon fill="#e0e0e0" stroke="#999999" points="1930.5,-129 1875.5,-129 1875.5,-110 1930.5,-110 1930.5,-129"/>
<text text-anchor="middle" x="1903" y="-117" font-family="Helvetica,sans-Serif" font-size="10.00">fstream</text>
</a>
</g>
</g>
<!-- Node31&#45;&gt;Node32 -->
<g id="edge55_Node000031_Node000032" class="edge">
<title>Node31&#45;&gt;Node32</title>
<g id="a_edge55_Node000031_Node000032"><a xlink:title=" ">
<path fill="none" stroke="#63b8ff" d="M1840.89,-164.98C1852.15,-156.92 1869.29,-144.65 1882.71,-135.03"/>
<polygon fill="#63b8ff" stroke="#63b8ff" points="1884.8,-137.84 1890.89,-129.17 1880.73,-132.15 1884.8,-137.84"/>
</a>
</g>
</g>
<!-- Node33 -->
<g id="Node000033" class="node">
<title>Node33</title>
<g id="a_Node000033"><a xlink:title=" ">
<polygon fill="#e0e0e0" stroke="#999999" points="2009,-129 1949,-129 1949,-110 2009,-110 2009,-129"/>
<text text-anchor="middle" x="1979" y="-117" font-family="Helvetica,sans-Serif" font-size="10.00">iostream</text>
</a>
</g>
</g>
<!-- Node31&#45;&gt;Node33 -->
<g id="edge56_Node000031_Node000033" class="edge">
<title>Node31&#45;&gt;Node33</title>
<g id="a_edge56_Node000031_Node000033"><a xlink:title=" ">
<path fill="none" stroke="#63b8ff" d="M1853.1,-164.98C1877.88,-156.23 1916.7,-142.51 1944.69,-132.62"/>
<polygon fill="#63b8ff" stroke="#63b8ff" points="1946.2,-135.8 1954.46,-129.17 1943.87,-129.2 1946.2,-135.8"/>
</a>
</g>
</g>
</g>
</svg>
