<?xml version="1.0" encoding="UTF-8" standalone="no"?>
<!DOCTYPE svg PUBLIC "-//W3C//DTD SVG 1.1//EN"
 "http://www.w3.org/Graphics/SVG/1.1/DTD/svg11.dtd">
<!-- Generated by graphviz version 2.43.0 (0)
 -->
<!-- Title: init/ClientConnection.hpp Pages: 1 -->
<svg width="1192pt" height="192pt"
 viewBox="0.00 0.00 1191.82 192.00" xmlns="http://www.w3.org/2000/svg" xmlns:xlink="http://www.w3.org/1999/xlink">
<g id="graph0" class="graph" transform="scale(1 1) rotate(0) translate(4 188)">
<title>init/ClientConnection.hpp</title>
<!-- Node1 -->
<g id="Node000001" class="node">
<title>Node1</title>
<g id="a_Node000001"><a xlink:title=" ">
<polygon fill="#999999" stroke="#666666" points="1091.82,-184 951.82,-184 951.82,-165 1091.82,-165 1091.82,-184"/>
<text text-anchor="middle" x="1021.82" y="-172" font-family="Helvetica,sans-Serif" font-size="10.00">init/ClientConnection.hpp</text>
</a>
</g>
</g>
<!-- Node2 -->
<g id="Node000002" class="node">
<title>Node2</title>
<g id="a_Node000002"><a xlink:title=" ">
<polygon fill="#e0e0e0" stroke="#999999" points="494.82,-19 450.82,-19 450.82,0 494.82,0 494.82,-19"/>
<text text-anchor="middle" x="472.82" y="-7" font-family="Helvetica,sans-Serif" font-size="10.00">string</text>
</a>
</g>
</g>
<!-- Node1&#45;&gt;Node2 -->
<g id="edge1_Node000001_Node000002" class="edge">
<title>Node1&#45;&gt;Node2</title>
<g id="a_edge1_Node000001_Node000002"><a xlink:title=" ">
<path fill="none" stroke="#63b8ff" d="M1023.59,-164.72C1027.48,-142.56 1034.14,-84.05 1002.82,-55 966.29,-21.12 614.69,-12.74 505.2,-10.94"/>
<polygon fill="#63b8ff" stroke="#63b8ff" points="505.14,-7.44 495.09,-10.78 505.03,-14.44 505.14,-7.44"/>
</a>
</g>
</g>
<!-- Node3 -->
<g id="Node000003" class="node">
<title>Node3</title>
<g id="a_Node000003"><a xlink:title=" ">
<polygon fill="#e0e0e0" stroke="#999999" points="1093.82,-129 1049.82,-129 1049.82,-110 1093.82,-110 1093.82,-129"/>
<text text-anchor="middle" x="1071.82" y="-117" font-family="Helvetica,sans-Serif" font-size="10.00">ctime</text>
</a>
</g>
</g>
<!-- Node1&#45;&gt;Node3 -->
<g id="edge2_Node000001_Node000003" class="edge">
<title>Node1&#45;&gt;Node3</title>
<g id="a_edge2_Node000001_Node000003"><a xlink:title=" ">
<path fill="none" stroke="#63b8ff" d="M1030.08,-164.75C1037.29,-157.11 1047.93,-145.82 1056.67,-136.56"/>
<polygon fill="#63b8ff" stroke="#63b8ff" points="1059.4,-138.76 1063.72,-129.09 1054.31,-133.96 1059.4,-138.76"/>
</a>
</g>
</g>
<!-- Node4 -->
<g id="Node000004" class="node">
<title>Node4</title>
<g id="a_Node000004"><a xlink:title=" ">
<polygon fill="#e0e0e0" stroke="#999999" points="1183.82,-129 1111.82,-129 1111.82,-110 1183.82,-110 1183.82,-129"/>
<text text-anchor="middle" x="1147.82" y="-117" font-family="Helvetica,sans-Serif" font-size="10.00">sys/types.h</text>
</a>
</g>
</g>
<!-- Node1&#45;&gt;Node4 -->
<g id="edge3_Node000001_Node000004" class="edge">
<title>Node1&#45;&gt;Node4</title>
<g id="a_edge3_Node000001_Node000004"><a xlink:title=" ">
<path fill="none" stroke="#63b8ff" d="M1042.07,-164.98C1062.52,-156.38 1094.35,-142.99 1117.75,-133.15"/>
<polygon fill="#63b8ff" stroke="#63b8ff" points="1119.35,-136.27 1127.21,-129.17 1116.63,-129.82 1119.35,-136.27"/>
</a>
</g>
</g>
<!-- Node5 -->
<g id="Node000005" class="node">
<title>Node5</title>
<g id="a_Node000005"><a xlink:href="HttpRequest_8hpp.html" target="_top" xlink:title=" ">
<polygon fill="white" stroke="#666666" points="591.82,-129 453.82,-129 453.82,-110 591.82,-110 591.82,-129"/>
<text text-anchor="middle" x="522.82" y="-117" font-family="Helvetica,sans-Serif" font-size="10.00">request/HttpRequest.hpp</text>
</a>
</g>
</g>
<!-- Node1&#45;&gt;Node5 -->
<g id="edge4_Node000001_Node000005" class="edge">
<title>Node1&#45;&gt;Node5</title>
<g id="a_edge4_Node000001_Node000005"><a xlink:title=" ">
<path fill="none" stroke="#63b8ff" d="M951.65,-166.05C859.61,-156.27 698.54,-139.16 602.16,-128.93"/>
<polygon fill="#63b8ff" stroke="#63b8ff" points="602.49,-125.44 592.18,-127.87 601.75,-132.4 602.49,-125.44"/>
</a>
</g>
</g>
<!-- Node13 -->
<g id="Node000013" class="node">
<title>Node13</title>
<g id="a_Node000013"><a xlink:href="HttpResponse_8hpp.html" target="_top" xlink:title=" ">
<polygon fill="white" stroke="#666666" points="170.32,-129 17.32,-129 17.32,-110 170.32,-110 170.32,-129"/>
<text text-anchor="middle" x="93.82" y="-117" font-family="Helvetica,sans-Serif" font-size="10.00">response/HttpResponse.hpp</text>
</a>
</g>
</g>
<!-- Node1&#45;&gt;Node13 -->
<g id="edge14_Node000001_Node000013" class="edge">
<title>Node1&#45;&gt;Node13</title>
<g id="a_edge14_Node000001_Node000013"><a xlink:title=" ">
<path fill="none" stroke="#63b8ff" d="M951.69,-169.49C784.58,-159.95 363.24,-135.89 180.55,-125.45"/>
<polygon fill="#63b8ff" stroke="#63b8ff" points="180.63,-121.95 170.44,-124.88 180.23,-128.94 180.63,-121.95"/>
</a>
</g>
</g>
<!-- Node5&#45;&gt;Node2 -->
<g id="edge5_Node000005_Node000002" class="edge">
<title>Node5&#45;&gt;Node2</title>
<g id="a_edge5_Node000005_Node000002"><a xlink:title=" ">
<path fill="none" stroke="#63b8ff" d="M491.78,-109.87C474.08,-103.18 453.38,-91.95 442.82,-74 433.71,-58.51 445.04,-39.8 456.29,-26.72"/>
<polygon fill="#63b8ff" stroke="#63b8ff" points="458.86,-29.09 463.1,-19.38 453.73,-24.33 458.86,-29.09"/>
</a>
</g>
</g>
<!-- Node6 -->
<g id="Node000006" class="node">
<title>Node6</title>
<g id="a_Node000006"><a xlink:title=" ">
<polygon fill="#e0e0e0" stroke="#999999" points="52.82,-74 14.82,-74 14.82,-55 52.82,-55 52.82,-74"/>
<text text-anchor="middle" x="33.82" y="-62" font-family="Helvetica,sans-Serif" font-size="10.00">map</text>
</a>
</g>
</g>
<!-- Node5&#45;&gt;Node6 -->
<g id="edge6_Node000005_Node000006" class="edge">
<title>Node5&#45;&gt;Node6</title>
<g id="a_edge6_Node000005_Node000006"><a xlink:title=" ">
<path fill="none" stroke="#63b8ff" d="M453.47,-116.09C364.75,-112.06 206.38,-101.66 62.84,-73.81"/>
<polygon fill="#63b8ff" stroke="#63b8ff" points="63.46,-70.36 52.97,-71.86 62.11,-77.23 63.46,-70.36"/>
</a>
</g>
</g>
<!-- Node7 -->
<g id="Node000007" class="node">
<title>Node7</title>
<g id="a_Node000007"><a xlink:title=" ">
<polygon fill="#e0e0e0" stroke="#999999" points="659.32,-74 612.32,-74 612.32,-55 659.32,-55 659.32,-74"/>
<text text-anchor="middle" x="635.82" y="-62" font-family="Helvetica,sans-Serif" font-size="10.00">vector</text>
</a>
</g>
</g>
<!-- Node5&#45;&gt;Node7 -->
<g id="edge7_Node000005_Node000007" class="edge">
<title>Node5&#45;&gt;Node7</title>
<g id="a_edge7_Node000005_Node000007"><a xlink:title=" ">
<path fill="none" stroke="#63b8ff" d="M540.98,-109.98C559.07,-101.5 587.11,-88.35 608.01,-78.54"/>
<polygon fill="#63b8ff" stroke="#63b8ff" points="609.77,-81.59 617.34,-74.17 606.8,-75.25 609.77,-81.59"/>
</a>
</g>
</g>
<!-- Node8 -->
<g id="Node000008" class="node">
<title>Node8</title>
<g id="a_Node000008"><a xlink:href="RequestMethod_8hpp.html" target="_top" xlink:title=" ">
<polygon fill="white" stroke="#666666" points="831.82,-74 677.82,-74 677.82,-55 831.82,-55 831.82,-74"/>
<text text-anchor="middle" x="754.82" y="-62" font-family="Helvetica,sans-Serif" font-size="10.00">request/RequestMethod.hpp</text>
</a>
</g>
</g>
<!-- Node5&#45;&gt;Node8 -->
<g id="edge8_Node000005_Node000008" class="edge">
<title>Node5&#45;&gt;Node8</title>
<g id="a_edge8_Node000005_Node000008"><a xlink:title=" ">
<path fill="none" stroke="#63b8ff" d="M560.1,-109.98C600.14,-100.84 663.89,-86.27 707.46,-76.32"/>
<polygon fill="#63b8ff" stroke="#63b8ff" points="708.29,-79.72 717.25,-74.08 706.73,-72.9 708.29,-79.72"/>
</a>
</g>
</g>
<!-- Node9 -->
<g id="Node000009" class="node">
<title>Node9</title>
<g id="a_Node000009"><a xlink:href="RequestMeta_8hpp.html" target="_top" xlink:title=" ">
<polygon fill="white" stroke="#666666" points="593.82,-74 451.82,-74 451.82,-55 593.82,-55 593.82,-74"/>
<text text-anchor="middle" x="522.82" y="-62" font-family="Helvetica,sans-Serif" font-size="10.00">request/RequestMeta.hpp</text>
</a>
</g>
</g>
<!-- Node5&#45;&gt;Node9 -->
<g id="edge9_Node000005_Node000009" class="edge">
<title>Node5&#45;&gt;Node9</title>
<g id="a_edge9_Node000005_Node000009"><a xlink:title=" ">
<path fill="none" stroke="#63b8ff" d="M522.82,-109.75C522.82,-102.8 522.82,-92.85 522.82,-84.13"/>
<polygon fill="#63b8ff" stroke="#63b8ff" points="526.32,-84.09 522.82,-74.09 519.32,-84.09 526.32,-84.09"/>
</a>
</g>
</g>
<!-- Node10 -->
<g id="Node000010" class="node">
<title>Node10</title>
<g id="a_Node000010"><a xlink:href="RequestState_8hpp.html" target="_top" xlink:title=" ">
<polygon fill="white" stroke="#666666" points="993.32,-74 850.32,-74 850.32,-55 993.32,-55 993.32,-74"/>
<text text-anchor="middle" x="921.82" y="-62" font-family="Helvetica,sans-Serif" font-size="10.00">request/RequestState.hpp</text>
</a>
</g>
</g>
<!-- Node5&#45;&gt;Node10 -->
<g id="edge11_Node000005_Node000010" class="edge">
<title>Node5&#45;&gt;Node10</title>
<g id="a_edge11_Node000005_Node000010"><a xlink:title=" ">
<path fill="none" stroke="#63b8ff" d="M586.93,-109.98C657.94,-100.55 772.27,-85.36 847.24,-75.41"/>
<polygon fill="#63b8ff" stroke="#63b8ff" points="848.09,-78.82 857.54,-74.04 847.17,-71.89 848.09,-78.82"/>
</a>
</g>
</g>
<!-- Node11 -->
<g id="Node000011" class="node">
<title>Node11</title>
<g id="a_Node000011"><a xlink:href="ResponseStatus_8hpp.html" target="_top" xlink:title=" ">
<polygon fill="white" stroke="#666666" points="234.32,-74 71.32,-74 71.32,-55 234.32,-55 234.32,-74"/>
<text text-anchor="middle" x="152.82" y="-62" font-family="Helvetica,sans-Serif" font-size="10.00">response/ResponseStatus.hpp</text>
</a>
</g>
</g>
<!-- Node5&#45;&gt;Node11 -->
<g id="edge12_Node000005_Node000011" class="edge">
<title>Node5&#45;&gt;Node11</title>
<g id="a_edge12_Node000005_Node000011"><a xlink:title=" ">
<path fill="none" stroke="#63b8ff" d="M463.37,-109.98C397.66,-100.57 291.94,-85.43 222.41,-75.47"/>
<polygon fill="#63b8ff" stroke="#63b8ff" points="222.82,-71.99 212.43,-74.04 221.83,-78.92 222.82,-71.99"/>
</a>
</g>
</g>
<!-- Node12 -->
<g id="Node000012" class="node">
<title>Node12</title>
<g id="a_Node000012"><a xlink:href="RouteType_8hpp.html" target="_top" xlink:title=" ">
<polygon fill="white" stroke="#666666" points="395.32,-74 252.32,-74 252.32,-55 395.32,-55 395.32,-74"/>
<text text-anchor="middle" x="323.82" y="-62" font-family="Helvetica,sans-Serif" font-size="10.00">dispatcher/RouteType.hpp</text>
</a>
</g>
</g>
<!-- Node5&#45;&gt;Node12 -->
<g id="edge13_Node000005_Node000012" class="edge">
<title>Node5&#45;&gt;Node12</title>
<g id="a_edge13_Node000005_Node000012"><a xlink:title=" ">
<path fill="none" stroke="#63b8ff" d="M490.85,-109.98C457.01,-100.97 403.43,-86.7 366.11,-76.76"/>
<polygon fill="#63b8ff" stroke="#63b8ff" points="366.61,-73.27 356.05,-74.08 364.81,-80.04 366.61,-73.27"/>
</a>
</g>
</g>
<!-- Node9&#45;&gt;Node2 -->
<g id="edge10_Node000009_Node000002" class="edge">
<title>Node9&#45;&gt;Node2</title>
<g id="a_edge10_Node000009_Node000002"><a xlink:title=" ">
<path fill="none" stroke="#63b8ff" d="M514.57,-54.75C507.36,-47.11 496.71,-35.82 487.98,-26.56"/>
<polygon fill="#63b8ff" stroke="#63b8ff" points="490.33,-23.96 480.92,-19.09 485.24,-28.76 490.33,-23.96"/>
</a>
</g>
</g>
<!-- Node13&#45;&gt;Node2 -->
<g id="edge15_Node000013_Node000002" class="edge">
<title>Node13&#45;&gt;Node2</title>
<g id="a_edge15_Node000013_Node000002"><a xlink:title=" ">
<path fill="none" stroke="#63b8ff" d="M63.7,-109.94C30.42,-99.04 -15.79,-78.77 5.82,-55 35.03,-22.88 339.57,-13.39 440.52,-11.12"/>
<polygon fill="#63b8ff" stroke="#63b8ff" points="440.8,-14.62 450.72,-10.9 440.65,-7.62 440.8,-14.62"/>
</a>
</g>
</g>
<!-- Node13&#45;&gt;Node6 -->
<g id="edge16_Node000013_Node000006" class="edge">
<title>Node13&#45;&gt;Node6</title>
<g id="a_edge16_Node000013_Node000006"><a xlink:title=" ">
<path fill="none" stroke="#63b8ff" d="M84.18,-109.98C75.31,-102.15 61.95,-90.34 51.21,-80.86"/>
<polygon fill="#63b8ff" stroke="#63b8ff" points="53.45,-78.17 43.64,-74.17 48.81,-83.41 53.45,-78.17"/>
</a>
</g>
</g>
<!-- Node13&#45;&gt;Node11 -->
<g id="edge17_Node000013_Node000011" class="edge">
<title>Node13&#45;&gt;Node11</title>
<g id="a_edge17_Node000013_Node000011"><a xlink:title=" ">
<path fill="none" stroke="#63b8ff" d="M103.3,-109.98C112.02,-102.15 125.17,-90.34 135.72,-80.86"/>
<polygon fill="#63b8ff" stroke="#63b8ff" points="138.07,-83.46 143.17,-74.17 133.39,-78.25 138.07,-83.46"/>
</a>
</g>
</g>
</g>
</svg>
