<?xml version="1.0" encoding="UTF-8" standalone="no"?>
<!DOCTYPE svg PUBLIC "-//W3C//DTD SVG 1.1//EN"
 "http://www.w3.org/Graphics/SVG/1.1/DTD/svg11.dtd">
<!-- Generated by graphviz version 2.43.0 (0)
 -->
<!-- Title: config/Config.cpp Pages: 1 -->
<svg width="395pt" height="247pt"
 viewBox="0.00 0.00 394.50 247.00" xmlns="http://www.w3.org/2000/svg" xmlns:xlink="http://www.w3.org/1999/xlink">
<g id="graph0" class="graph" transform="scale(1 1) rotate(0) translate(4 243)">
<title>config/Config.cpp</title>
<!-- Node1 -->
<g id="Node000001" class="node">
<title>Node1</title>
<g id="a_Node000001"><a xlink:title=" ">
<polygon fill="#999999" stroke="#666666" points="100.5,-239 0.5,-239 0.5,-220 100.5,-220 100.5,-239"/>
<text text-anchor="middle" x="50.5" y="-227" font-family="Helvetica,sans-Serif" font-size="10.00">config/Config.cpp</text>
</a>
</g>
</g>
<!-- Node2 -->
<g id="Node000002" class="node">
<title>Node2</title>
<g id="a_Node000002"><a xlink:href="Config_8hpp.html" target="_top" xlink:title=" ">
<polygon fill="white" stroke="#666666" points="101,-184 0,-184 0,-165 101,-165 101,-184"/>
<text text-anchor="middle" x="50.5" y="-172" font-family="Helvetica,sans-Serif" font-size="10.00">config/Config.hpp</text>
</a>
</g>
</g>
<!-- Node1&#45;&gt;Node2 -->
<g id="edge1_Node000001_Node000002" class="edge">
<title>Node1&#45;&gt;Node2</title>
<g id="a_edge1_Node000001_Node000002"><a xlink:title=" ">
<path fill="none" stroke="#63b8ff" d="M50.5,-219.75C50.5,-212.8 50.5,-202.85 50.5,-194.13"/>
<polygon fill="#63b8ff" stroke="#63b8ff" points="54,-194.09 50.5,-184.09 47,-194.09 54,-194.09"/>
</a>
</g>
</g>
<!-- Node3 -->
<g id="Node000003" class="node">
<title>Node3</title>
<g id="a_Node000003"><a xlink:title=" ">
<polygon fill="#e0e0e0" stroke="#999999" points="65,-19 18,-19 18,0 65,0 65,-19"/>
<text text-anchor="middle" x="41.5" y="-7" font-family="Helvetica,sans-Serif" font-size="10.00">vector</text>
</a>
</g>
</g>
<!-- Node2&#45;&gt;Node3 -->
<g id="edge2_Node000002_Node000003" class="edge">
<title>Node2&#45;&gt;Node3</title>
<g id="a_edge2_Node000002_Node000003"><a xlink:title=" ">
<path fill="none" stroke="#63b8ff" d="M50.02,-164.74C48.61,-139.31 44.51,-65.08 42.56,-29.69"/>
<polygon fill="#63b8ff" stroke="#63b8ff" points="46.03,-29.1 41.99,-19.31 39.04,-29.48 46.03,-29.1"/>
</a>
</g>
</g>
<!-- Node4 -->
<g id="Node000004" class="node">
<title>Node4</title>
<g id="a_Node000004"><a xlink:href="ServerConfig_8hpp.html" target="_top" xlink:title=" ">
<polygon fill="white" stroke="#666666" points="203.5,-129 71.5,-129 71.5,-110 203.5,-110 203.5,-129"/>
<text text-anchor="middle" x="137.5" y="-117" font-family="Helvetica,sans-Serif" font-size="10.00">config/ServerConfig.hpp</text>
</a>
</g>
</g>
<!-- Node2&#45;&gt;Node4 -->
<g id="edge3_Node000002_Node000004" class="edge">
<title>Node2&#45;&gt;Node4</title>
<g id="a_edge3_Node000002_Node000004"><a xlink:title=" ">
<path fill="none" stroke="#63b8ff" d="M64.48,-164.98C77.97,-156.77 98.63,-144.18 114.54,-134.49"/>
<polygon fill="#63b8ff" stroke="#63b8ff" points="116.55,-137.36 123.27,-129.17 112.91,-131.38 116.55,-137.36"/>
</a>
</g>
</g>
<!-- Node4&#45;&gt;Node3 -->
<g id="edge5_Node000004_Node000003" class="edge">
<title>Node4&#45;&gt;Node3</title>
<g id="a_edge5_Node000004_Node000003"><a xlink:title=" ">
<path fill="none" stroke="#63b8ff" d="M128.23,-109.93C118.91,-101.17 104.27,-87.06 92.5,-74 78.8,-58.81 64.31,-40.52 54.28,-27.48"/>
<polygon fill="#63b8ff" stroke="#63b8ff" points="56.97,-25.22 48.12,-19.39 51.4,-29.46 56.97,-25.22"/>
</a>
</g>
</g>
<!-- Node5 -->
<g id="Node000005" class="node">
<title>Node5</title>
<g id="a_Node000005"><a xlink:title=" ">
<polygon fill="#e0e0e0" stroke="#999999" points="140.5,-19 96.5,-19 96.5,0 140.5,0 140.5,-19"/>
<text text-anchor="middle" x="118.5" y="-7" font-family="Helvetica,sans-Serif" font-size="10.00">string</text>
</a>
</g>
</g>
<!-- Node4&#45;&gt;Node5 -->
<g id="edge4_Node000004_Node000005" class="edge">
<title>Node4&#45;&gt;Node5</title>
<g id="a_edge4_Node000004_Node000005"><a xlink:title=" ">
<path fill="none" stroke="#63b8ff" d="M126.51,-109.99C117.05,-101.9 104.07,-88.81 98.5,-74 92.73,-58.66 99.49,-40.82 106.67,-27.97"/>
<polygon fill="#63b8ff" stroke="#63b8ff" points="109.79,-29.58 112.04,-19.23 103.82,-25.92 109.79,-29.58"/>
</a>
</g>
</g>
<!-- Node6 -->
<g id="Node000006" class="node">
<title>Node6</title>
<g id="a_Node000006"><a xlink:title=" ">
<polygon fill="#e0e0e0" stroke="#999999" points="203.5,-19 165.5,-19 165.5,0 203.5,0 203.5,-19"/>
<text text-anchor="middle" x="184.5" y="-7" font-family="Helvetica,sans-Serif" font-size="10.00">map</text>
</a>
</g>
</g>
<!-- Node4&#45;&gt;Node6 -->
<g id="edge6_Node000004_Node000006" class="edge">
<title>Node4&#45;&gt;Node6</title>
<g id="a_edge6_Node000004_Node000006"><a xlink:title=" ">
<path fill="none" stroke="#63b8ff" d="M201.68,-109.98C223.36,-103.7 245.37,-92.82 258.5,-74 274.2,-51.5 240.35,-32.03 213.41,-20.78"/>
<polygon fill="#63b8ff" stroke="#63b8ff" points="214.48,-17.44 203.89,-17.02 211.9,-23.95 214.48,-17.44"/>
</a>
</g>
</g>
<!-- Node7 -->
<g id="Node000007" class="node">
<title>Node7</title>
<g id="a_Node000007"><a xlink:href="LocationConfig_8hpp.html" target="_top" xlink:title=" ">
<polygon fill="white" stroke="#666666" points="249.5,-74 107.5,-74 107.5,-55 249.5,-55 249.5,-74"/>
<text text-anchor="middle" x="178.5" y="-62" font-family="Helvetica,sans-Serif" font-size="10.00">config/LocationConfig.hpp</text>
</a>
</g>
</g>
<!-- Node4&#45;&gt;Node7 -->
<g id="edge7_Node000004_Node000007" class="edge">
<title>Node4&#45;&gt;Node7</title>
<g id="a_edge7_Node000004_Node000007"><a xlink:title=" ">
<path fill="none" stroke="#63b8ff" d="M144.27,-109.75C150.06,-102.26 158.56,-91.28 165.64,-82.13"/>
<polygon fill="#63b8ff" stroke="#63b8ff" points="168.51,-84.14 171.86,-74.09 162.97,-79.86 168.51,-84.14"/>
</a>
</g>
</g>
<!-- Node8 -->
<g id="Node000008" class="node">
<title>Node8</title>
<g id="a_Node000008"><a xlink:href="RequestMethod_8hpp.html" target="_top" xlink:title=" ">
<polygon fill="white" stroke="#666666" points="386.5,-19 232.5,-19 232.5,0 386.5,0 386.5,-19"/>
<text text-anchor="middle" x="309.5" y="-7" font-family="Helvetica,sans-Serif" font-size="10.00">request/RequestMethod.hpp</text>
</a>
</g>
</g>
<!-- Node4&#45;&gt;Node8 -->
<g id="edge12_Node000004_Node000008" class="edge">
<title>Node4&#45;&gt;Node8</title>
<g id="a_edge12_Node000004_Node000008"><a xlink:title=" ">
<path fill="none" stroke="#63b8ff" d="M193,-109.99C219.62,-103.65 250.62,-92.72 273.5,-74 287.88,-62.23 297.6,-43.12 303.28,-28.93"/>
<polygon fill="#63b8ff" stroke="#63b8ff" points="306.67,-29.83 306.84,-19.24 300.1,-27.42 306.67,-29.83"/>
</a>
</g>
</g>
<!-- Node7&#45;&gt;Node3 -->
<g id="edge8_Node000007_Node000003" class="edge">
<title>Node7&#45;&gt;Node3</title>
<g id="a_edge8_Node000007_Node000003"><a xlink:title=" ">
<path fill="none" stroke="#63b8ff" d="M156.49,-54.98C134.05,-46.3 99.02,-32.75 73.51,-22.88"/>
<polygon fill="#63b8ff" stroke="#63b8ff" points="74.5,-19.51 63.91,-19.17 71.98,-26.04 74.5,-19.51"/>
</a>
</g>
</g>
<!-- Node7&#45;&gt;Node5 -->
<g id="edge9_Node000007_Node000005" class="edge">
<title>Node7&#45;&gt;Node5</title>
<g id="a_edge9_Node000007_Node000005"><a xlink:title=" ">
<path fill="none" stroke="#63b8ff" d="M168.86,-54.98C159.99,-47.15 146.63,-35.34 135.89,-25.86"/>
<polygon fill="#63b8ff" stroke="#63b8ff" points="138.13,-23.17 128.32,-19.17 133.49,-28.41 138.13,-23.17"/>
</a>
</g>
</g>
<!-- Node7&#45;&gt;Node6 -->
<g id="edge10_Node000007_Node000006" class="edge">
<title>Node7&#45;&gt;Node6</title>
<g id="a_edge10_Node000007_Node000006"><a xlink:title=" ">
<path fill="none" stroke="#63b8ff" d="M179.49,-54.75C180.28,-47.8 181.4,-37.85 182.39,-29.13"/>
<polygon fill="#63b8ff" stroke="#63b8ff" points="185.88,-29.42 183.53,-19.09 178.92,-28.63 185.88,-29.42"/>
</a>
</g>
</g>
<!-- Node7&#45;&gt;Node8 -->
<g id="edge11_Node000007_Node000008" class="edge">
<title>Node7&#45;&gt;Node8</title>
<g id="a_edge11_Node000007_Node000008"><a xlink:title=" ">
<path fill="none" stroke="#63b8ff" d="M199.55,-54.98C220.91,-46.34 254.2,-32.87 278.56,-23.02"/>
<polygon fill="#63b8ff" stroke="#63b8ff" points="280.11,-26.17 288.07,-19.17 277.49,-19.68 280.11,-26.17"/>
</a>
</g>
</g>
</g>
</svg>
