<?xml version="1.0" encoding="UTF-8" standalone="no"?>
<!DOCTYPE svg PUBLIC "-//W3C//DTD SVG 1.1//EN"
 "http://www.w3.org/Graphics/SVG/1.1/DTD/svg11.dtd">
<!-- Generated by graphviz version 2.43.0 (0)
 -->
<!-- Title: config/ConfigParser.hpp Pages: 1 -->
<svg width="468pt" height="247pt"
 viewBox="0.00 0.00 468.00 247.00" xmlns="http://www.w3.org/2000/svg" xmlns:xlink="http://www.w3.org/1999/xlink">
<g id="graph0" class="graph" transform="scale(1 1) rotate(0) translate(4 243)">
<title>config/ConfigParser.hpp</title>
<!-- Node1 -->
<g id="Node000001" class="node">
<title>Node1</title>
<g id="a_Node000001"><a xlink:title=" ">
<polygon fill="#999999" stroke="#666666" points="358,-239 228,-239 228,-220 358,-220 358,-239"/>
<text text-anchor="middle" x="293" y="-227" font-family="Helvetica,sans-Serif" font-size="10.00">config/ConfigParser.hpp</text>
</a>
</g>
</g>
<!-- Node2 -->
<g id="Node000002" class="node">
<title>Node2</title>
<g id="a_Node000002"><a xlink:title=" ">
<polygon fill="#e0e0e0" stroke="#999999" points="44,-19 0,-19 0,0 44,0 44,-19"/>
<text text-anchor="middle" x="22" y="-7" font-family="Helvetica,sans-Serif" font-size="10.00">string</text>
</a>
</g>
</g>
<!-- Node1&#45;&gt;Node2 -->
<g id="edge1_Node000001_Node000002" class="edge">
<title>Node1&#45;&gt;Node2</title>
<g id="a_edge1_Node000001_Node000002"><a xlink:title=" ">
<path fill="none" stroke="#63b8ff" d="M270.96,-219.99C223.96,-200.81 113,-149.89 49,-74 37.91,-60.85 30.77,-42.47 26.63,-28.87"/>
<polygon fill="#63b8ff" stroke="#63b8ff" points="29.99,-27.87 23.94,-19.17 23.24,-29.74 29.99,-27.87"/>
</a>
</g>
</g>
<!-- Node3 -->
<g id="Node000003" class="node">
<title>Node3</title>
<g id="a_Node000003"><a xlink:title=" ">
<polygon fill="#e0e0e0" stroke="#999999" points="460,-184 400,-184 400,-165 460,-165 460,-184"/>
<text text-anchor="middle" x="430" y="-172" font-family="Helvetica,sans-Serif" font-size="10.00">iostream</text>
</a>
</g>
</g>
<!-- Node1&#45;&gt;Node3 -->
<g id="edge2_Node000001_Node000003" class="edge">
<title>Node1&#45;&gt;Node3</title>
<g id="a_edge2_Node000001_Node000003"><a xlink:title=" ">
<path fill="none" stroke="#63b8ff" d="M315.01,-219.98C337.45,-211.3 372.48,-197.75 397.99,-187.88"/>
<polygon fill="#63b8ff" stroke="#63b8ff" points="399.52,-191.04 407.59,-184.17 397,-184.51 399.52,-191.04"/>
</a>
</g>
</g>
<!-- Node4 -->
<g id="Node000004" class="node">
<title>Node4</title>
<g id="a_Node000004"><a xlink:href="Config_8hpp.html" target="_top" xlink:title=" ">
<polygon fill="white" stroke="#666666" points="343.5,-184 242.5,-184 242.5,-165 343.5,-165 343.5,-184"/>
<text text-anchor="middle" x="293" y="-172" font-family="Helvetica,sans-Serif" font-size="10.00">config/Config.hpp</text>
</a>
</g>
</g>
<!-- Node1&#45;&gt;Node4 -->
<g id="edge3_Node000001_Node000004" class="edge">
<title>Node1&#45;&gt;Node4</title>
<g id="a_edge3_Node000001_Node000004"><a xlink:title=" ">
<path fill="none" stroke="#63b8ff" d="M293,-219.75C293,-212.8 293,-202.85 293,-194.13"/>
<polygon fill="#63b8ff" stroke="#63b8ff" points="296.5,-194.09 293,-184.09 289.5,-194.09 296.5,-194.09"/>
</a>
</g>
</g>
<!-- Node6 -->
<g id="Node000006" class="node">
<title>Node6</title>
<g id="a_Node000006"><a xlink:href="ServerConfig_8hpp.html" target="_top" xlink:title=" ">
<polygon fill="white" stroke="#666666" points="280,-129 148,-129 148,-110 280,-110 280,-129"/>
<text text-anchor="middle" x="214" y="-117" font-family="Helvetica,sans-Serif" font-size="10.00">config/ServerConfig.hpp</text>
</a>
</g>
</g>
<!-- Node1&#45;&gt;Node6 -->
<g id="edge15_Node000001_Node000006" class="edge">
<title>Node1&#45;&gt;Node6</title>
<g id="a_edge15_Node000001_Node000006"><a xlink:title=" ">
<path fill="none" stroke="#63b8ff" d="M276.13,-219.97C262.6,-212.3 244.1,-199.82 233,-184 223.6,-170.6 218.78,-152.5 216.36,-139.05"/>
<polygon fill="#63b8ff" stroke="#63b8ff" points="219.8,-138.41 214.83,-129.05 212.88,-139.47 219.8,-138.41"/>
</a>
</g>
</g>
<!-- Node9 -->
<g id="Node000009" class="node">
<title>Node9</title>
<g id="a_Node000009"><a xlink:href="RequestMethod_8hpp.html" target="_top" xlink:title=" ">
<polygon fill="white" stroke="#666666" points="403,-19 249,-19 249,0 403,0 403,-19"/>
<text text-anchor="middle" x="326" y="-7" font-family="Helvetica,sans-Serif" font-size="10.00">request/RequestMethod.hpp</text>
</a>
</g>
</g>
<!-- Node1&#45;&gt;Node9 -->
<g id="edge16_Node000001_Node000009" class="edge">
<title>Node1&#45;&gt;Node9</title>
<g id="a_edge16_Node000001_Node000009"><a xlink:title=" ">
<path fill="none" stroke="#63b8ff" d="M312.27,-219.9C326.12,-212.55 343.76,-200.54 352,-184 377.86,-132.1 350.87,-61.43 335.34,-28.62"/>
<polygon fill="#63b8ff" stroke="#63b8ff" points="338.34,-26.79 330.78,-19.37 332.07,-29.88 338.34,-26.79"/>
</a>
</g>
</g>
<!-- Node5 -->
<g id="Node000005" class="node">
<title>Node5</title>
<g id="a_Node000005"><a xlink:title=" ">
<polygon fill="#e0e0e0" stroke="#999999" points="230.5,-19 183.5,-19 183.5,0 230.5,0 230.5,-19"/>
<text text-anchor="middle" x="207" y="-7" font-family="Helvetica,sans-Serif" font-size="10.00">vector</text>
</a>
</g>
</g>
<!-- Node4&#45;&gt;Node5 -->
<g id="edge4_Node000004_Node000005" class="edge">
<title>Node4&#45;&gt;Node5</title>
<g id="a_edge4_Node000004_Node000005"><a xlink:title=" ">
<path fill="none" stroke="#63b8ff" d="M293.81,-164.61C294.64,-152.09 295.09,-128.7 289,-110 277.49,-74.64 246.39,-43.28 225.97,-25.61"/>
<polygon fill="#63b8ff" stroke="#63b8ff" points="228.13,-22.85 218.22,-19.11 223.63,-28.22 228.13,-22.85"/>
</a>
</g>
</g>
<!-- Node4&#45;&gt;Node6 -->
<g id="edge5_Node000004_Node000006" class="edge">
<title>Node4&#45;&gt;Node6</title>
<g id="a_edge5_Node000004_Node000006"><a xlink:title=" ">
<path fill="none" stroke="#63b8ff" d="M280.31,-164.98C268.17,-156.84 249.64,-144.41 235.25,-134.76"/>
<polygon fill="#63b8ff" stroke="#63b8ff" points="237.18,-131.84 226.92,-129.17 233.28,-137.65 237.18,-131.84"/>
</a>
</g>
</g>
<!-- Node6&#45;&gt;Node2 -->
<g id="edge6_Node000006_Node000002" class="edge">
<title>Node6&#45;&gt;Node2</title>
<g id="a_edge6_Node000006_Node000002"><a xlink:title=" ">
<path fill="none" stroke="#63b8ff" d="M161.73,-109.95C133.34,-103.46 98.69,-92.41 72,-74 54.73,-62.09 40.58,-42.44 31.79,-28.14"/>
<polygon fill="#63b8ff" stroke="#63b8ff" points="34.67,-26.13 26.6,-19.27 28.63,-29.66 34.67,-26.13"/>
</a>
</g>
</g>
<!-- Node6&#45;&gt;Node5 -->
<g id="edge7_Node000006_Node000005" class="edge">
<title>Node6&#45;&gt;Node5</title>
<g id="a_edge7_Node000006_Node000005"><a xlink:title=" ">
<path fill="none" stroke="#63b8ff" d="M221.35,-110C230.85,-97.93 245.47,-75.07 239,-55 235.66,-44.62 228.9,-34.62 222.45,-26.74"/>
<polygon fill="#63b8ff" stroke="#63b8ff" points="224.97,-24.31 215.75,-19.1 219.71,-28.92 224.97,-24.31"/>
</a>
</g>
</g>
<!-- Node7 -->
<g id="Node000007" class="node">
<title>Node7</title>
<g id="a_Node000007"><a xlink:title=" ">
<polygon fill="#e0e0e0" stroke="#999999" points="148,-19 110,-19 110,0 148,0 148,-19"/>
<text text-anchor="middle" x="129" y="-7" font-family="Helvetica,sans-Serif" font-size="10.00">map</text>
</a>
</g>
</g>
<!-- Node6&#45;&gt;Node7 -->
<g id="edge8_Node000006_Node000007" class="edge">
<title>Node6&#45;&gt;Node7</title>
<g id="a_edge8_Node000006_Node000007"><a xlink:title=" ">
<path fill="none" stroke="#63b8ff" d="M147.88,-113.05C122.07,-107.3 94.91,-96 79,-74 66.49,-56.71 86.5,-37.55 104.8,-24.84"/>
<polygon fill="#63b8ff" stroke="#63b8ff" points="107.04,-27.56 113.5,-19.16 103.21,-21.7 107.04,-27.56"/>
</a>
</g>
</g>
<!-- Node8 -->
<g id="Node000008" class="node">
<title>Node8</title>
<g id="a_Node000008"><a xlink:href="LocationConfig_8hpp.html" target="_top" xlink:title=" ">
<polygon fill="white" stroke="#666666" points="230,-74 88,-74 88,-55 230,-55 230,-74"/>
<text text-anchor="middle" x="159" y="-62" font-family="Helvetica,sans-Serif" font-size="10.00">config/LocationConfig.hpp</text>
</a>
</g>
</g>
<!-- Node6&#45;&gt;Node8 -->
<g id="edge9_Node000006_Node000008" class="edge">
<title>Node6&#45;&gt;Node8</title>
<g id="a_edge9_Node000006_Node000008"><a xlink:title=" ">
<path fill="none" stroke="#63b8ff" d="M204.92,-109.75C196.91,-102.03 185.04,-90.6 175.38,-81.28"/>
<polygon fill="#63b8ff" stroke="#63b8ff" points="177.54,-78.51 167.91,-74.09 172.69,-83.55 177.54,-78.51"/>
</a>
</g>
</g>
<!-- Node6&#45;&gt;Node9 -->
<g id="edge14_Node000006_Node000009" class="edge">
<title>Node6&#45;&gt;Node9</title>
<g id="a_edge14_Node000006_Node000009"><a xlink:title=" ">
<path fill="none" stroke="#63b8ff" d="M223.17,-109.66C242.13,-91.38 285.89,-49.18 309.75,-26.17"/>
<polygon fill="#63b8ff" stroke="#63b8ff" points="312.25,-28.62 317.02,-19.16 307.39,-23.58 312.25,-28.62"/>
</a>
</g>
</g>
<!-- Node8&#45;&gt;Node2 -->
<g id="edge11_Node000008_Node000002" class="edge">
<title>Node8&#45;&gt;Node2</title>
<g id="a_edge11_Node000008_Node000002"><a xlink:title=" ">
<path fill="none" stroke="#63b8ff" d="M136.99,-54.98C114.55,-46.3 79.52,-32.75 54.01,-22.88"/>
<polygon fill="#63b8ff" stroke="#63b8ff" points="55,-19.51 44.41,-19.17 52.48,-26.04 55,-19.51"/>
</a>
</g>
</g>
<!-- Node8&#45;&gt;Node5 -->
<g id="edge10_Node000008_Node000005" class="edge">
<title>Node8&#45;&gt;Node5</title>
<g id="a_edge10_Node000008_Node000005"><a xlink:title=" ">
<path fill="none" stroke="#63b8ff" d="M166.93,-54.75C173.85,-47.11 184.07,-35.82 192.45,-26.56"/>
<polygon fill="#63b8ff" stroke="#63b8ff" points="195.1,-28.85 199.22,-19.09 189.91,-24.15 195.1,-28.85"/>
</a>
</g>
</g>
<!-- Node8&#45;&gt;Node7 -->
<g id="edge12_Node000008_Node000007" class="edge">
<title>Node8&#45;&gt;Node7</title>
<g id="a_edge12_Node000008_Node000007"><a xlink:title=" ">
<path fill="none" stroke="#63b8ff" d="M154.05,-54.75C149.94,-47.49 143.97,-36.95 138.9,-27.98"/>
<polygon fill="#63b8ff" stroke="#63b8ff" points="141.83,-26.07 133.86,-19.09 135.74,-29.52 141.83,-26.07"/>
</a>
</g>
</g>
<!-- Node8&#45;&gt;Node9 -->
<g id="edge13_Node000008_Node000009" class="edge">
<title>Node8&#45;&gt;Node9</title>
<g id="a_edge13_Node000008_Node000009"><a xlink:title=" ">
<path fill="none" stroke="#63b8ff" d="M185.83,-54.98C213.87,-46.09 258.05,-32.07 289.3,-22.15"/>
<polygon fill="#63b8ff" stroke="#63b8ff" points="290.49,-25.44 298.96,-19.08 288.37,-18.77 290.49,-25.44"/>
</a>
</g>
</g>
</g>
</svg>
