<?xml version="1.0" encoding="UTF-8" standalone="no"?>
<!DOCTYPE svg PUBLIC "-//W3C//DTD SVG 1.1//EN"
 "http://www.w3.org/Graphics/SVG/1.1/DTD/svg11.dtd">
<!-- Generated by graphviz version 2.43.0 (0)
 -->
<!-- Title: config/ConfigParser.cpp Pages: 1 -->
<!--zoomable 302 -->

<svg id="main" version="1.1" xmlns="http://www.w3.org/2000/svg" xmlns:xlink="http://www.w3.org/1999/xlink" xml:space="preserve" onload="init(evt)">
<style type="text/css"><![CDATA[
.node, .edge {opacity: 0.7;}
.node.selected, .edge.selected {opacity: 1;}
.edge:hover path { stroke: red; }
.edge:hover polygon { stroke: red; fill: red; }
]]></style>

<defs>
  <circle id="rim" cx="0" cy="0" r="7"/>
  <circle id="rim2" cx="0" cy="0" r="3.5"/>
  <g id="zoomPlus">
    <use xlink:href="#rim" fill="#404040"><set attributeName="fill" to="#808080" begin="zoomplus.mouseover" end="zoomplus.mouseout"/></use>
    <path d="M-4,0h8M0,-4v8" fill="none" stroke="white" stroke-width="1.5" pointer-events="none"/>
  </g>
  <g id="zoomMin">
    <use xlink:href="#rim" fill="#404040"><set attributeName="fill" to="#808080" begin="zoomminus.mouseover" end="zoomminus.mouseout"/></use>
    <path d="M-4,0h8" fill="none" stroke="white" stroke-width="1.5" pointer-events="none"/>
  </g>
  <g id="arrowUp" transform="translate(30 24)">
    <use xlink:href="#rim"/>
    <path pointer-events="none" fill="none" stroke="white" stroke-width="1.5" d="M0,-3.0v7 M-2.5,-0.5L0,-3.0L2.5,-0.5"/>
  </g>
  <g id="arrowRight" transform="rotate(90) translate(36 -43)">
    <use xlink:href="#rim"/>
    <path pointer-events="none" fill="none" stroke="white" stroke-width="1.5" d="M0,-3.0v7 M-2.5,-0.5L0,-3.0L2.5,-0.5"/>
  </g>
  <g id="arrowDown" transform="rotate(180) translate(-30 -48)">
    <use xlink:href="#rim"/>
    <path pointer-events="none" fill="none" stroke="white" stroke-width="1.5" d="M0,-3.0v7 M-2.5,-0.5L0,-3.0L2.5,-0.5"/>
  </g>
  <g id="arrowLeft" transform="rotate(270) translate(-36 17)">
    <use xlink:href="#rim"/>
    <path pointer-events="none" fill="none" stroke="white" stroke-width="1.5" d="M0,-3.0v7 M-2.5,-0.5L0,-3.0L2.5,-0.5"/>
  </g>
  <g id="resetDef">
    <use xlink:href="#rim2" fill="#404040"><set attributeName="fill" to="#808080" begin="reset.mouseover" end="reset.mouseout"/></use>
  </g>
</defs>
<script type="application/ecmascript">
var viewWidth = 744;
var viewHeight = 302;
var sectionId = 'dynsection-0';
</script>
<script type="application/ecmascript" xlink:href="svg.min.js"/>
<svg id="graph" class="graph">
<g id="viewport">
<title>config/ConfigParser.cpp</title>
<!-- Node1 -->
<g id="Node000001" class="node">
<title>Node1</title>
<g id="a_Node000001"><a xlink:title=" ">
<polygon fill="#999999" stroke="#666666" points="251,-294 122,-294 122,-275 251,-275 251,-294"/>
<text text-anchor="middle" x="186.5" y="-282" font-family="Helvetica,sans-Serif" font-size="10.00">config/ConfigParser.cpp</text>
</a>
</g>
</g>
<!-- Node2 -->
<g id="Node000002" class="node">
<title>Node2</title>
<g id="a_Node000002"><a xlink:title=" ">
<polygon fill="#e0e0e0" stroke="#999999" points="55,-184 0,-184 0,-165 55,-165 55,-184"/>
<text text-anchor="middle" x="27.5" y="-172" font-family="Helvetica,sans-Serif" font-size="10.00">fstream</text>
</a>
</g>
</g>
<!-- Node1&#45;&gt;Node2 -->
<g id="edge1_Node000001_Node000002" class="edge">
<title>Node1&#45;&gt;Node2</title>
<g id="a_edge1_Node000001_Node000002"><a xlink:title=" ">
<path fill="none" stroke="#63b8ff" d="M124.33,-275C99.04,-268.73 71.19,-257.86 51.5,-239 39.14,-227.16 33.08,-208.33 30.15,-194.24"/>
<polygon fill="#63b8ff" stroke="#63b8ff" points="33.57,-193.44 28.41,-184.18 26.67,-194.63 33.57,-193.44"/>
</a>
</g>
</g>
<!-- Node3 -->
<g id="Node000003" class="node">
<title>Node3</title>
<g id="a_Node000003"><a xlink:title=" ">
<polygon fill="#e0e0e0" stroke="#999999" points="173.5,-184 117.5,-184 117.5,-165 173.5,-165 173.5,-184"/>
<text text-anchor="middle" x="145.5" y="-172" font-family="Helvetica,sans-Serif" font-size="10.00">sstream</text>
</a>
</g>
</g>
<!-- Node1&#45;&gt;Node3 -->
<g id="edge2_Node000001_Node000003" class="edge">
<title>Node1&#45;&gt;Node3</title>
<g id="a_edge2_Node000001_Node000003"><a xlink:title=" ">
<path fill="none" stroke="#63b8ff" d="M121.88,-276.46C98.29,-270.41 73.89,-259.3 59.5,-239 42.93,-215.64 77.58,-197.37 107.72,-186.54"/>
<polygon fill="#63b8ff" stroke="#63b8ff" points="108.94,-189.83 117.28,-183.29 106.69,-183.2 108.94,-189.83"/>
</a>
</g>
</g>
<!-- Node4 -->
<g id="Node000004" class="node">
<title>Node4</title>
<g id="a_Node000004"><a xlink:title=" ">
<polygon fill="#e0e0e0" stroke="#999999" points="114.5,-239 68.5,-239 68.5,-220 114.5,-220 114.5,-239"/>
<text text-anchor="middle" x="91.5" y="-227" font-family="Helvetica,sans-Serif" font-size="10.00">locale</text>
</a>
</g>
</g>
<!-- Node1&#45;&gt;Node4 -->
<g id="edge3_Node000001_Node000004" class="edge">
<title>Node1&#45;&gt;Node4</title>
<g id="a_edge3_Node000001_Node000004"><a xlink:title=" ">
<path fill="none" stroke="#63b8ff" d="M171.24,-274.98C156.37,-266.69 133.52,-253.94 116.08,-244.22"/>
<polygon fill="#63b8ff" stroke="#63b8ff" points="117.48,-240.99 107.04,-239.17 114.07,-247.1 117.48,-240.99"/>
</a>
</g>
</g>
<!-- Node5 -->
<g id="Node000005" class="node">
<title>Node5</title>
<g id="a_Node000005"><a xlink:title=" ">
<polygon fill="#e0e0e0" stroke="#999999" points="176.5,-239 132.5,-239 132.5,-220 176.5,-220 176.5,-239"/>
<text text-anchor="middle" x="154.5" y="-227" font-family="Helvetica,sans-Serif" font-size="10.00">limits</text>
</a>
</g>
</g>
<!-- Node1&#45;&gt;Node5 -->
<g id="edge4_Node000001_Node000005" class="edge">
<title>Node1&#45;&gt;Node5</title>
<g id="a_edge4_Node000001_Node000005"><a xlink:title=" ">
<path fill="none" stroke="#63b8ff" d="M181.22,-274.75C176.79,-267.42 170.34,-256.73 164.88,-247.7"/>
<polygon fill="#63b8ff" stroke="#63b8ff" points="167.85,-245.84 159.69,-239.09 161.86,-249.46 167.85,-245.84"/>
</a>
</g>
</g>
<!-- Node6 -->
<g id="Node000006" class="node">
<title>Node6</title>
<g id="a_Node000006"><a xlink:title=" ">
<polygon fill="#e0e0e0" stroke="#999999" points="242,-239 195,-239 195,-220 242,-220 242,-239"/>
<text text-anchor="middle" x="218.5" y="-227" font-family="Helvetica,sans-Serif" font-size="10.00">cmath</text>
</a>
</g>
</g>
<!-- Node1&#45;&gt;Node6 -->
<g id="edge5_Node000001_Node000006" class="edge">
<title>Node1&#45;&gt;Node6</title>
<g id="a_edge5_Node000001_Node000006"><a xlink:title=" ">
<path fill="none" stroke="#63b8ff" d="M191.78,-274.75C196.21,-267.42 202.66,-256.73 208.12,-247.7"/>
<polygon fill="#63b8ff" stroke="#63b8ff" points="211.14,-249.46 213.31,-239.09 205.15,-245.84 211.14,-249.46"/>
</a>
</g>
</g>
<!-- Node7 -->
<g id="Node000007" class="node">
<title>Node7</title>
<g id="a_Node000007"><a xlink:href="ConfigParser_8hpp.html" target="_top" xlink:title=" ">
<polygon fill="white" stroke="#666666" points="505.5,-239 375.5,-239 375.5,-220 505.5,-220 505.5,-239"/>
<text text-anchor="middle" x="440.5" y="-227" font-family="Helvetica,sans-Serif" font-size="10.00">config/ConfigParser.hpp</text>
</a>
</g>
</g>
<!-- Node1&#45;&gt;Node7 -->
<g id="edge6_Node000001_Node000007" class="edge">
<title>Node1&#45;&gt;Node7</title>
<g id="a_edge6_Node000001_Node000007"><a xlink:title=" ">
<path fill="none" stroke="#63b8ff" d="M227.31,-274.98C271.43,-265.78 341.83,-251.09 389.55,-241.13"/>
<polygon fill="#63b8ff" stroke="#63b8ff" points="390.3,-244.55 399.37,-239.08 388.87,-237.7 390.3,-244.55"/>
</a>
</g>
</g>
<!-- Node12 -->
<g id="Node000012" class="node">
<title>Node12</title>
<g id="a_Node000012"><a xlink:href="ServerConfig_8hpp.html" target="_top" xlink:title=" ">
<polygon fill="white" stroke="#666666" points="615.5,-129 483.5,-129 483.5,-110 615.5,-110 615.5,-129"/>
<text text-anchor="middle" x="549.5" y="-117" font-family="Helvetica,sans-Serif" font-size="10.00">config/ServerConfig.hpp</text>
</a>
</g>
</g>
<!-- Node1&#45;&gt;Node12 -->
<g id="edge23_Node000001_Node000012" class="edge">
<title>Node1&#45;&gt;Node12</title>
<g id="a_edge23_Node000001_Node000012"><a xlink:title=" ">
<path fill="none" stroke="#63b8ff" d="M251.33,-282.83C335.48,-280.62 476.12,-271.93 514.5,-239 543.71,-213.93 549.17,-165.78 549.82,-139.23"/>
<polygon fill="#63b8ff" stroke="#63b8ff" points="553.32,-139.01 549.85,-129 546.32,-138.99 553.32,-139.01"/>
</a>
</g>
</g>
<!-- Node16 -->
<g id="Node000016" class="node">
<title>Node16</title>
<g id="a_Node000016"><a xlink:href="Logger_8hpp.html" target="_top" xlink:title=" ">
<polygon fill="white" stroke="#666666" points="354.5,-239 260.5,-239 260.5,-220 354.5,-220 354.5,-239"/>
<text text-anchor="middle" x="307.5" y="-227" font-family="Helvetica,sans-Serif" font-size="10.00">utils/Logger.hpp</text>
</a>
</g>
</g>
<!-- Node1&#45;&gt;Node16 -->
<g id="edge24_Node000001_Node000016" class="edge">
<title>Node1&#45;&gt;Node16</title>
<g id="a_edge24_Node000001_Node000016"><a xlink:title=" ">
<path fill="none" stroke="#63b8ff" d="M205.94,-274.98C225.49,-266.42 255.88,-253.11 278.32,-243.28"/>
<polygon fill="#63b8ff" stroke="#63b8ff" points="279.95,-246.39 287.71,-239.17 277.14,-239.98 279.95,-246.39"/>
</a>
</g>
</g>
<!-- Node8 -->
<g id="Node000008" class="node">
<title>Node8</title>
<g id="a_Node000008"><a xlink:title=" ">
<polygon fill="#e0e0e0" stroke="#999999" points="735.5,-19 691.5,-19 691.5,0 735.5,0 735.5,-19"/>
<text text-anchor="middle" x="713.5" y="-7" font-family="Helvetica,sans-Serif" font-size="10.00">string</text>
</a>
</g>
</g>
<!-- Node7&#45;&gt;Node8 -->
<g id="edge7_Node000007_Node000008" class="edge">
<title>Node7&#45;&gt;Node8</title>
<g id="a_edge7_Node000007_Node000008"><a xlink:title=" ">
<path fill="none" stroke="#63b8ff" d="M468.71,-219.91C522.04,-202.12 637.29,-155.9 693.5,-74 702.8,-60.45 707.94,-42.36 710.67,-28.96"/>
<polygon fill="#63b8ff" stroke="#63b8ff" points="714.14,-29.46 712.44,-19 707.24,-28.24 714.14,-29.46"/>
</a>
</g>
</g>
<!-- Node9 -->
<g id="Node000009" class="node">
<title>Node9</title>
<g id="a_Node000009"><a xlink:title=" ">
<polygon fill="#e0e0e0" stroke="#999999" points="335.5,-184 275.5,-184 275.5,-165 335.5,-165 335.5,-184"/>
<text text-anchor="middle" x="305.5" y="-172" font-family="Helvetica,sans-Serif" font-size="10.00">iostream</text>
</a>
</g>
</g>
<!-- Node7&#45;&gt;Node9 -->
<g id="edge8_Node000007_Node000009" class="edge">
<title>Node7&#45;&gt;Node9</title>
<g id="a_edge8_Node000007_Node000009"><a xlink:title=" ">
<path fill="none" stroke="#63b8ff" d="M418.81,-219.98C396.7,-211.3 362.18,-197.75 337.05,-187.88"/>
<polygon fill="#63b8ff" stroke="#63b8ff" points="338.17,-184.57 327.58,-184.17 335.61,-191.08 338.17,-184.57"/>
</a>
</g>
</g>
<!-- Node10 -->
<g id="Node000010" class="node">
<title>Node10</title>
<g id="a_Node000010"><a xlink:href="Config_8hpp.html" target="_top" xlink:title=" ">
<polygon fill="white" stroke="#666666" points="493,-184 392,-184 392,-165 493,-165 493,-184"/>
<text text-anchor="middle" x="442.5" y="-172" font-family="Helvetica,sans-Serif" font-size="10.00">config/Config.hpp</text>
</a>
</g>
</g>
<!-- Node7&#45;&gt;Node10 -->
<g id="edge9_Node000007_Node000010" class="edge">
<title>Node7&#45;&gt;Node10</title>
<g id="a_edge9_Node000007_Node000010"><a xlink:title=" ">
<path fill="none" stroke="#63b8ff" d="M440.83,-219.75C441.09,-212.8 441.47,-202.85 441.8,-194.13"/>
<polygon fill="#63b8ff" stroke="#63b8ff" points="445.3,-194.21 442.18,-184.09 438.3,-193.95 445.3,-194.21"/>
</a>
</g>
</g>
<!-- Node7&#45;&gt;Node12 -->
<g id="edge21_Node000007_Node000012" class="edge">
<title>Node7&#45;&gt;Node12</title>
<g id="a_edge21_Node000007_Node000012"><a xlink:title=" ">
<path fill="none" stroke="#63b8ff" d="M454.48,-220C467.46,-211.73 486.92,-198.34 501.5,-184 515.77,-169.97 529.26,-151.49 538.28,-138.08"/>
<polygon fill="#63b8ff" stroke="#63b8ff" points="541.45,-139.64 544.01,-129.36 535.6,-135.8 541.45,-139.64"/>
</a>
</g>
</g>
<!-- Node15 -->
<g id="Node000015" class="node">
<title>Node15</title>
<g id="a_Node000015"><a xlink:href="RequestMethod_8hpp.html" target="_top" xlink:title=" ">
<polygon fill="white" stroke="#666666" points="486.5,-19 332.5,-19 332.5,0 486.5,0 486.5,-19"/>
<text text-anchor="middle" x="409.5" y="-7" font-family="Helvetica,sans-Serif" font-size="10.00">request/RequestMethod.hpp</text>
</a>
</g>
</g>
<!-- Node7&#45;&gt;Node15 -->
<g id="edge22_Node000007_Node000015" class="edge">
<title>Node7&#45;&gt;Node15</title>
<g id="a_edge22_Node000007_Node000015"><a xlink:title=" ">
<path fill="none" stroke="#63b8ff" d="M421.83,-219.97C408.17,-212.59 390.64,-200.5 382.5,-184 356.83,-131.95 384.28,-61.35 400.03,-28.59"/>
<polygon fill="#63b8ff" stroke="#63b8ff" points="403.31,-29.86 404.65,-19.35 397.05,-26.73 403.31,-29.86"/>
</a>
</g>
</g>
<!-- Node11 -->
<g id="Node000011" class="node">
<title>Node11</title>
<g id="a_Node000011"><a xlink:title=" ">
<polygon fill="#e0e0e0" stroke="#999999" points="552,-19 505,-19 505,0 552,0 552,-19"/>
<text text-anchor="middle" x="528.5" y="-7" font-family="Helvetica,sans-Serif" font-size="10.00">vector</text>
</a>
</g>
</g>
<!-- Node10&#45;&gt;Node11 -->
<g id="edge10_Node000010_Node000011" class="edge">
<title>Node10&#45;&gt;Node11</title>
<g id="a_edge10_Node000010_Node000011"><a xlink:title=" ">
<path fill="none" stroke="#63b8ff" d="M444.99,-164.72C450.96,-144.44 467.34,-93.13 490.5,-55 496.75,-44.71 505.36,-34.41 512.8,-26.32"/>
<polygon fill="#63b8ff" stroke="#63b8ff" points="515.36,-28.7 519.72,-19.04 510.29,-23.87 515.36,-28.7"/>
</a>
</g>
</g>
<!-- Node10&#45;&gt;Node12 -->
<g id="edge11_Node000010_Node000012" class="edge">
<title>Node10&#45;&gt;Node12</title>
<g id="a_edge11_Node000010_Node000012"><a xlink:title=" ">
<path fill="none" stroke="#63b8ff" d="M459.69,-164.98C476.75,-156.54 503.13,-143.47 522.9,-133.68"/>
<polygon fill="#63b8ff" stroke="#63b8ff" points="524.59,-136.75 532,-129.17 521.48,-130.47 524.59,-136.75"/>
</a>
</g>
</g>
<!-- Node12&#45;&gt;Node8 -->
<g id="edge12_Node000012_Node000008" class="edge">
<title>Node12&#45;&gt;Node8</title>
<g id="a_edge12_Node000012_Node000008"><a xlink:title=" ">
<path fill="none" stroke="#63b8ff" d="M592.35,-109.97C617.39,-103.35 648.49,-92.16 671.5,-74 686.86,-61.88 698.5,-42.54 705.59,-28.38"/>
<polygon fill="#63b8ff" stroke="#63b8ff" points="708.83,-29.71 709.93,-19.17 702.5,-26.72 708.83,-29.71"/>
</a>
</g>
</g>
<!-- Node12&#45;&gt;Node11 -->
<g id="edge13_Node000012_Node000011" class="edge">
<title>Node12&#45;&gt;Node11</title>
<g id="a_edge13_Node000012_Node000011"><a xlink:title=" ">
<path fill="none" stroke="#63b8ff" d="M532.92,-109.87C520.33,-102.3 503.96,-90.01 496.5,-74 488.88,-57.66 500.37,-39.3 511.64,-26.54"/>
<polygon fill="#63b8ff" stroke="#63b8ff" points="514.43,-28.69 518.81,-19.05 509.37,-23.85 514.43,-28.69"/>
</a>
</g>
</g>
<!-- Node13 -->
<g id="Node000013" class="node">
<title>Node13</title>
<g id="a_Node000013"><a xlink:title=" ">
<polygon fill="#e0e0e0" stroke="#999999" points="624.5,-19 586.5,-19 586.5,0 624.5,0 624.5,-19"/>
<text text-anchor="middle" x="605.5" y="-7" font-family="Helvetica,sans-Serif" font-size="10.00">map</text>
</a>
</g>
</g>
<!-- Node12&#45;&gt;Node13 -->
<g id="edge14_Node000012_Node000013" class="edge">
<title>Node12&#45;&gt;Node13</title>
<g id="a_edge14_Node000012_Node000013"><a xlink:title=" ">
<path fill="none" stroke="#63b8ff" d="M600.83,-109.98C621.75,-103.7 643.94,-92.83 656.5,-74 668.37,-56.21 648.41,-37.28 630.09,-24.76"/>
<polygon fill="#63b8ff" stroke="#63b8ff" points="631.68,-21.62 621.37,-19.16 627.9,-27.51 631.68,-21.62"/>
</a>
</g>
</g>
<!-- Node14 -->
<g id="Node000014" class="node">
<title>Node14</title>
<g id="a_Node000014"><a xlink:href="LocationConfig_8hpp.html" target="_top" xlink:title=" ">
<polygon fill="white" stroke="#666666" points="647.5,-74 505.5,-74 505.5,-55 647.5,-55 647.5,-74"/>
<text text-anchor="middle" x="576.5" y="-62" font-family="Helvetica,sans-Serif" font-size="10.00">config/LocationConfig.hpp</text>
</a>
</g>
</g>
<!-- Node12&#45;&gt;Node14 -->
<g id="edge15_Node000012_Node000014" class="edge">
<title>Node12&#45;&gt;Node14</title>
<g id="a_edge15_Node000012_Node000014"><a xlink:title=" ">
<path fill="none" stroke="#63b8ff" d="M553.96,-109.75C557.62,-102.57 562.91,-92.18 567.45,-83.27"/>
<polygon fill="#63b8ff" stroke="#63b8ff" points="570.7,-84.59 572.12,-74.09 564.47,-81.41 570.7,-84.59"/>
</a>
</g>
</g>
<!-- Node12&#45;&gt;Node15 -->
<g id="edge20_Node000012_Node000015" class="edge">
<title>Node12&#45;&gt;Node15</title>
<g id="a_edge20_Node000012_Node000015"><a xlink:title=" ">
<path fill="none" stroke="#63b8ff" d="M537.7,-109.7C525.75,-100.77 506.77,-86.51 490.5,-74 469.23,-57.64 445.04,-38.62 428.67,-25.69"/>
<polygon fill="#63b8ff" stroke="#63b8ff" points="430.47,-22.65 420.45,-19.19 426.13,-28.14 430.47,-22.65"/>
</a>
</g>
</g>
<!-- Node14&#45;&gt;Node8 -->
<g id="edge17_Node000014_Node000008" class="edge">
<title>Node14&#45;&gt;Node8</title>
<g id="a_edge17_Node000014_Node000008"><a xlink:title=" ">
<path fill="none" stroke="#63b8ff" d="M598.51,-54.98C620.95,-46.3 655.98,-32.75 681.49,-22.88"/>
<polygon fill="#63b8ff" stroke="#63b8ff" points="683.02,-26.04 691.09,-19.17 680.5,-19.51 683.02,-26.04"/>
</a>
</g>
</g>
<!-- Node14&#45;&gt;Node11 -->
<g id="edge16_Node000014_Node000011" class="edge">
<title>Node14&#45;&gt;Node11</title>
<g id="a_edge16_Node000014_Node000011"><a xlink:title=" ">
<path fill="none" stroke="#63b8ff" d="M568.57,-54.75C561.65,-47.11 551.43,-35.82 543.05,-26.56"/>
<polygon fill="#63b8ff" stroke="#63b8ff" points="545.59,-24.15 536.28,-19.09 540.4,-28.85 545.59,-24.15"/>
</a>
</g>
</g>
<!-- Node14&#45;&gt;Node13 -->
<g id="edge18_Node000014_Node000013" class="edge">
<title>Node14&#45;&gt;Node13</title>
<g id="a_edge18_Node000014_Node000013"><a xlink:title=" ">
<path fill="none" stroke="#63b8ff" d="M581.29,-54.75C585.26,-47.49 591.03,-36.95 595.93,-27.98"/>
<polygon fill="#63b8ff" stroke="#63b8ff" points="599.07,-29.54 600.8,-19.09 592.93,-26.18 599.07,-29.54"/>
</a>
</g>
</g>
<!-- Node14&#45;&gt;Node15 -->
<g id="edge19_Node000014_Node000015" class="edge">
<title>Node14&#45;&gt;Node15</title>
<g id="a_edge19_Node000014_Node000015"><a xlink:title=" ">
<path fill="none" stroke="#63b8ff" d="M549.67,-54.98C521.63,-46.09 477.45,-32.07 446.2,-22.15"/>
<polygon fill="#63b8ff" stroke="#63b8ff" points="447.13,-18.77 436.54,-19.08 445.01,-25.44 447.13,-18.77"/>
</a>
</g>
</g>
<!-- Node16&#45;&gt;Node2 -->
<g id="edge26_Node000016_Node000002" class="edge">
<title>Node16&#45;&gt;Node2</title>
<g id="a_edge26_Node000016_Node000002"><a xlink:title=" ">
<path fill="none" stroke="#63b8ff" d="M262.51,-219.98C207.84,-209.64 116.58,-192.36 65.35,-182.66"/>
<polygon fill="#63b8ff" stroke="#63b8ff" points="65.84,-179.19 55.36,-180.77 64.53,-186.07 65.84,-179.19"/>
</a>
</g>
</g>
<!-- Node16&#45;&gt;Node3 -->
<g id="edge28_Node000016_Node000003" class="edge">
<title>Node16&#45;&gt;Node3</title>
<g id="a_edge28_Node000016_Node000003"><a xlink:title=" ">
<path fill="none" stroke="#63b8ff" d="M281.47,-219.98C254.39,-211.13 211.79,-197.19 181.49,-187.28"/>
<polygon fill="#63b8ff" stroke="#63b8ff" points="182.32,-183.87 171.73,-184.08 180.15,-190.52 182.32,-183.87"/>
</a>
</g>
</g>
<!-- Node16&#45;&gt;Node9 -->
<g id="edge27_Node000016_Node000009" class="edge">
<title>Node16&#45;&gt;Node9</title>
<g id="a_edge27_Node000016_Node000009"><a xlink:title=" ">
<path fill="none" stroke="#63b8ff" d="M307.17,-219.75C306.91,-212.8 306.53,-202.85 306.2,-194.13"/>
<polygon fill="#63b8ff" stroke="#63b8ff" points="309.7,-193.95 305.82,-184.09 302.7,-194.21 309.7,-193.95"/>
</a>
</g>
</g>
<!-- Node17 -->
<g id="Node000017" class="node">
<title>Node17</title>
<g id="a_Node000017"><a xlink:title=" ">
<polygon fill="#e0e0e0" stroke="#999999" points="257.5,-184 213.5,-184 213.5,-165 257.5,-165 257.5,-184"/>
<text text-anchor="middle" x="235.5" y="-172" font-family="Helvetica,sans-Serif" font-size="10.00">ctime</text>
</a>
</g>
</g>
<!-- Node16&#45;&gt;Node17 -->
<g id="edge25_Node000016_Node000017" class="edge">
<title>Node16&#45;&gt;Node17</title>
<g id="a_edge25_Node000016_Node000017"><a xlink:title=" ">
<path fill="none" stroke="#63b8ff" d="M295.93,-219.98C285.08,-212 268.62,-199.88 255.62,-190.31"/>
<polygon fill="#63b8ff" stroke="#63b8ff" points="257.41,-187.28 247.28,-184.17 253.26,-192.92 257.41,-187.28"/>
</a>
</g>
</g>
</g>
</svg>

<g id="navigator" transform="translate(0 0)" fill="#404254">
  <rect fill="#f2f5e9" fill-opacity="0.5" stroke="#606060" stroke-width=".5" x="0" y="0" width="60" height="60"/>
  <use id="zoomplus" xlink:href="#zoomPlus" x="17" y="9" onmousedown="handleZoom(evt,'in')"/>
  <use id="zoomminus" xlink:href="#zoomMin" x="42" y="9" onmousedown="handleZoom(evt,'out')"/>
  <use id="reset" xlink:href="#resetDef" x="30" y="36" onmousedown="handleReset()"/>
   <use id="arrowup" xlink:href="#arrowUp" x="0" y="0" onmousedown="handlePan(0,-1)"/>
  <use id="arrowright" xlink:href="#arrowRight" x="0" y="0" onmousedown="handlePan(1,0)"/>
  <use id="arrowdown" xlink:href="#arrowDown" x="0" y="0" onmousedown="handlePan(0,1)"/>
  <use id="arrowleft" xlink:href="#arrowLeft" x="0" y="0" onmousedown="handlePan(-1,0)"/>
</g>
<svg viewBox="0 0 15 15" width="100%" height="30px" preserveAspectRatio="xMaxYMin meet">
 <g id="arrow_out" transform="scale(0.3 0.3)">
  <a xlink:href="ConfigParser_8cpp__incl_org.svg" target="_base">
   <rect id="button" ry="5" rx="5" y="6" x="6" height="38" width="38"
        fill="#f2f5e9" fill-opacity="0.5" stroke="#606060" stroke-width="1.0"/>
   <path id="arrow"
     d="M 11.500037,31.436501 C 11.940474,20.09759 22.043105,11.32322 32.158766,21.979434 L 37.068811,17.246167 C 37.068811,17.246167 37.088388,32 37.088388,32 L 22.160133,31.978069 C 22.160133,31.978069 26.997745,27.140456 26.997745,27.140456 C 18.528582,18.264221 13.291696,25.230495 11.500037,31.436501 z"
     style="fill:#404040;"/>
  </a>
 </g>
</svg>

<style type='text/css'>
<![CDATA[
[data-mouse-over-selected='false'] { opacity: 0.7; }
[data-mouse-over-selected='true']  { opacity: 1.0; }
]]>
</style>
<script type="application/ecmascript"><![CDATA[
document.addEventListener('DOMContentLoaded', (event) => {
  highlightEdges();
  highlightAdjacentNodes();
});
]]></script>
</svg>
