<?xml version="1.0" encoding="UTF-8" standalone="no"?>
<!DOCTYPE svg PUBLIC "-//W3C//DTD SVG 1.1//EN"
 "http://www.w3.org/Graphics/SVG/1.1/DTD/svg11.dtd">
<!-- Generated by graphviz version 2.43.0 (0)
 -->
<!-- Title: dispatcher/DeleteHandler.cpp Pages: 1 -->
<svg width="1307pt" height="247pt"
 viewBox="0.00 0.00 1307.17 247.00" xmlns="http://www.w3.org/2000/svg" xmlns:xlink="http://www.w3.org/1999/xlink">
<g id="graph0" class="graph" transform="scale(1 1) rotate(0) translate(4 243)">
<title>dispatcher/DeleteHandler.cpp</title>
<!-- Node1 -->
<g id="Node000001" class="node">
<title>Node1</title>
<g id="a_Node000001"><a xlink:title=" ">
<polygon fill="#999999" stroke="#666666" points="229.5,-239 68.5,-239 68.5,-220 229.5,-220 229.5,-239"/>
<text text-anchor="middle" x="149" y="-227" font-family="Helvetica,sans-Serif" font-size="10.00">dispatcher/DeleteHandler.cpp</text>
</a>
</g>
</g>
<!-- Node2 -->
<g id="Node000002" class="node">
<title>Node2</title>
<g id="a_Node000002"><a xlink:title=" ">
<polygon fill="#e0e0e0" stroke="#999999" points="64,-184 0,-184 0,-165 64,-165 64,-184"/>
<text text-anchor="middle" x="32" y="-172" font-family="Helvetica,sans-Serif" font-size="10.00">sys/stat.h</text>
</a>
</g>
</g>
<!-- Node1&#45;&gt;Node2 -->
<g id="edge1_Node000001_Node000002" class="edge">
<title>Node1&#45;&gt;Node2</title>
<g id="a_edge1_Node000001_Node000002"><a xlink:title=" ">
<path fill="none" stroke="#63b8ff" d="M130.2,-219.98C111.38,-211.46 82.18,-198.23 60.5,-188.41"/>
<polygon fill="#63b8ff" stroke="#63b8ff" points="61.69,-185.11 51.14,-184.17 58.8,-191.48 61.69,-185.11"/>
</a>
</g>
</g>
<!-- Node3 -->
<g id="Node000003" class="node">
<title>Node3</title>
<g id="a_Node000003"><a xlink:title=" ">
<polygon fill="#e0e0e0" stroke="#999999" points="74,-129 18,-129 18,-110 74,-110 74,-129"/>
<text text-anchor="middle" x="46" y="-117" font-family="Helvetica,sans-Serif" font-size="10.00">unistd.h</text>
</a>
</g>
</g>
<!-- Node1&#45;&gt;Node3 -->
<g id="edge2_Node000001_Node000003" class="edge">
<title>Node1&#45;&gt;Node3</title>
<g id="a_edge2_Node000001_Node000003"><a xlink:title=" ">
<path fill="none" stroke="#63b8ff" d="M140.57,-219.66C123.21,-201.46 83.24,-159.55 61.23,-136.47"/>
<polygon fill="#63b8ff" stroke="#63b8ff" points="63.69,-133.98 54.26,-129.16 58.63,-138.81 63.69,-133.98"/>
</a>
</g>
</g>
<!-- Node4 -->
<g id="Node000004" class="node">
<title>Node4</title>
<g id="a_Node000004"><a xlink:title=" ">
<polygon fill="#e0e0e0" stroke="#999999" points="139.5,-129 92.5,-129 92.5,-110 139.5,-110 139.5,-129"/>
<text text-anchor="middle" x="116" y="-117" font-family="Helvetica,sans-Serif" font-size="10.00">cerrno</text>
</a>
</g>
</g>
<!-- Node1&#45;&gt;Node4 -->
<g id="edge3_Node000001_Node000004" class="edge">
<title>Node1&#45;&gt;Node4</title>
<g id="a_edge3_Node000001_Node000004"><a xlink:title=" ">
<path fill="none" stroke="#63b8ff" d="M146.3,-219.66C140.93,-202.09 128.82,-162.45 121.64,-138.95"/>
<polygon fill="#63b8ff" stroke="#63b8ff" points="124.92,-137.7 118.65,-129.16 118.22,-139.74 124.92,-137.7"/>
</a>
</g>
</g>
<!-- Node5 -->
<g id="Node000005" class="node">
<title>Node5</title>
<g id="a_Node000005"><a xlink:title=" ">
<polygon fill="#e0e0e0" stroke="#999999" points="208,-129 158,-129 158,-110 208,-110 208,-129"/>
<text text-anchor="middle" x="183" y="-117" font-family="Helvetica,sans-Serif" font-size="10.00">cstring</text>
</a>
</g>
</g>
<!-- Node1&#45;&gt;Node5 -->
<g id="edge4_Node000001_Node000005" class="edge">
<title>Node1&#45;&gt;Node5</title>
<g id="a_edge4_Node000001_Node000005"><a xlink:title=" ">
<path fill="none" stroke="#63b8ff" d="M151.78,-219.66C157.31,-202.09 169.79,-162.45 177.19,-138.95"/>
<polygon fill="#63b8ff" stroke="#63b8ff" points="180.61,-139.75 180.27,-129.16 173.93,-137.65 180.61,-139.75"/>
</a>
</g>
</g>
<!-- Node6 -->
<g id="Node000006" class="node">
<title>Node6</title>
<g id="a_Node000006"><a xlink:href="Logger_8hpp.html" target="_top" xlink:title=" ">
<polygon fill="white" stroke="#666666" points="320,-129 226,-129 226,-110 320,-110 320,-129"/>
<text text-anchor="middle" x="273" y="-117" font-family="Helvetica,sans-Serif" font-size="10.00">utils/Logger.hpp</text>
</a>
</g>
</g>
<!-- Node1&#45;&gt;Node6 -->
<g id="edge5_Node000001_Node000006" class="edge">
<title>Node1&#45;&gt;Node6</title>
<g id="a_edge5_Node000001_Node000006"><a xlink:title=" ">
<path fill="none" stroke="#63b8ff" d="M159.15,-219.66C180.23,-201.3 229.01,-158.81 255.36,-135.87"/>
<polygon fill="#63b8ff" stroke="#63b8ff" points="257.82,-138.37 263.06,-129.16 253.22,-133.09 257.82,-138.37"/>
</a>
</g>
</g>
<!-- Node11 -->
<g id="Node000011" class="node">
<title>Node11</title>
<g id="a_Node000011"><a xlink:href="DeleteHandler_8hpp.html" target="_top" xlink:title=" ">
<polygon fill="white" stroke="#666666" points="395.5,-184 234.5,-184 234.5,-165 395.5,-165 395.5,-184"/>
<text text-anchor="middle" x="315" y="-172" font-family="Helvetica,sans-Serif" font-size="10.00">dispatcher/DeleteHandler.hpp</text>
</a>
</g>
</g>
<!-- Node1&#45;&gt;Node11 -->
<g id="edge10_Node000001_Node000011" class="edge">
<title>Node1&#45;&gt;Node11</title>
<g id="a_edge10_Node000001_Node000011"><a xlink:title=" ">
<path fill="none" stroke="#63b8ff" d="M175.67,-219.98C203.54,-211.09 247.45,-197.07 278.52,-187.15"/>
<polygon fill="#63b8ff" stroke="#63b8ff" points="279.66,-190.46 288.12,-184.08 277.53,-183.79 279.66,-190.46"/>
</a>
</g>
</g>
<!-- Node7 -->
<g id="Node000007" class="node">
<title>Node7</title>
<g id="a_Node000007"><a xlink:title=" ">
<polygon fill="#e0e0e0" stroke="#999999" points="201,-74 157,-74 157,-55 201,-55 201,-74"/>
<text text-anchor="middle" x="179" y="-62" font-family="Helvetica,sans-Serif" font-size="10.00">ctime</text>
</a>
</g>
</g>
<!-- Node6&#45;&gt;Node7 -->
<g id="edge6_Node000006_Node000007" class="edge">
<title>Node6&#45;&gt;Node7</title>
<g id="a_edge6_Node000006_Node000007"><a xlink:title=" ">
<path fill="none" stroke="#63b8ff" d="M257.9,-109.98C243.18,-101.69 220.58,-88.94 203.33,-79.22"/>
<polygon fill="#63b8ff" stroke="#63b8ff" points="204.81,-76.03 194.38,-74.17 201.37,-82.13 204.81,-76.03"/>
</a>
</g>
</g>
<!-- Node8 -->
<g id="Node000008" class="node">
<title>Node8</title>
<g id="a_Node000008"><a xlink:title=" ">
<polygon fill="#e0e0e0" stroke="#999999" points="274.5,-74 219.5,-74 219.5,-55 274.5,-55 274.5,-74"/>
<text text-anchor="middle" x="247" y="-62" font-family="Helvetica,sans-Serif" font-size="10.00">fstream</text>
</a>
</g>
</g>
<!-- Node6&#45;&gt;Node8 -->
<g id="edge7_Node000006_Node000008" class="edge">
<title>Node6&#45;&gt;Node8</title>
<g id="a_edge7_Node000006_Node000008"><a xlink:title=" ">
<path fill="none" stroke="#63b8ff" d="M268.71,-109.75C265.19,-102.57 260.09,-92.18 255.72,-83.27"/>
<polygon fill="#63b8ff" stroke="#63b8ff" points="258.76,-81.53 251.21,-74.09 252.48,-84.61 258.76,-81.53"/>
</a>
</g>
</g>
<!-- Node9 -->
<g id="Node000009" class="node">
<title>Node9</title>
<g id="a_Node000009"><a xlink:title=" ">
<polygon fill="#e0e0e0" stroke="#999999" points="65,-74 5,-74 5,-55 65,-55 65,-74"/>
<text text-anchor="middle" x="35" y="-62" font-family="Helvetica,sans-Serif" font-size="10.00">iostream</text>
</a>
</g>
</g>
<!-- Node6&#45;&gt;Node9 -->
<g id="edge8_Node000006_Node000009" class="edge">
<title>Node6&#45;&gt;Node9</title>
<g id="a_edge8_Node000006_Node000009"><a xlink:title=" ">
<path fill="none" stroke="#63b8ff" d="M234.76,-109.98C191,-100.24 119.64,-84.35 75.11,-74.43"/>
<polygon fill="#63b8ff" stroke="#63b8ff" points="75.74,-70.99 65.22,-72.23 74.22,-77.82 75.74,-70.99"/>
</a>
</g>
</g>
<!-- Node10 -->
<g id="Node000010" class="node">
<title>Node10</title>
<g id="a_Node000010"><a xlink:title=" ">
<polygon fill="#e0e0e0" stroke="#999999" points="139,-74 83,-74 83,-55 139,-55 139,-74"/>
<text text-anchor="middle" x="111" y="-62" font-family="Helvetica,sans-Serif" font-size="10.00">sstream</text>
</a>
</g>
</g>
<!-- Node6&#45;&gt;Node10 -->
<g id="edge9_Node000006_Node000010" class="edge">
<title>Node6&#45;&gt;Node10</title>
<g id="a_edge9_Node000006_Node000010"><a xlink:title=" ">
<path fill="none" stroke="#63b8ff" d="M246.97,-109.98C219.89,-101.13 177.29,-87.19 146.99,-77.28"/>
<polygon fill="#63b8ff" stroke="#63b8ff" points="147.82,-73.87 137.23,-74.08 145.65,-80.52 147.82,-73.87"/>
</a>
</g>
</g>
<!-- Node11&#45;&gt;Node3 -->
<g id="edge12_Node000011_Node000003" class="edge">
<title>Node11&#45;&gt;Node3</title>
<g id="a_edge12_Node000011_Node000003"><a xlink:title=" ">
<path fill="none" stroke="#63b8ff" d="M267.8,-164.97C223.05,-156.76 153.69,-143.74 84.47,-129.25"/>
<polygon fill="#63b8ff" stroke="#63b8ff" points="84.76,-125.74 74.26,-127.1 83.32,-132.59 84.76,-125.74"/>
</a>
</g>
</g>
<!-- Node11&#45;&gt;Node4 -->
<g id="edge13_Node000011_Node000004" class="edge">
<title>Node11&#45;&gt;Node4</title>
<g id="a_edge13_Node000011_Node000004"><a xlink:title=" ">
<path fill="none" stroke="#63b8ff" d="M283.03,-164.98C246.47,-155.25 186.89,-139.38 149.65,-129.46"/>
<polygon fill="#63b8ff" stroke="#63b8ff" points="150.34,-126.02 139.78,-126.83 148.54,-132.79 150.34,-126.02"/>
</a>
</g>
</g>
<!-- Node11&#45;&gt;Node5 -->
<g id="edge14_Node000011_Node000005" class="edge">
<title>Node11&#45;&gt;Node5</title>
<g id="a_edge14_Node000011_Node000005"><a xlink:title=" ">
<path fill="none" stroke="#63b8ff" d="M293.79,-164.98C272.27,-156.34 238.72,-142.87 214.17,-133.02"/>
<polygon fill="#63b8ff" stroke="#63b8ff" points="215.18,-129.65 204.59,-129.17 212.57,-136.14 215.18,-129.65"/>
</a>
</g>
</g>
<!-- Node11&#45;&gt;Node6 -->
<g id="edge30_Node000011_Node000006" class="edge">
<title>Node11&#45;&gt;Node6</title>
<g id="a_edge30_Node000011_Node000006"><a xlink:title=" ">
<path fill="none" stroke="#63b8ff" d="M308.06,-164.75C302.13,-157.26 293.43,-146.28 286.18,-137.13"/>
<polygon fill="#63b8ff" stroke="#63b8ff" points="288.76,-134.75 279.81,-129.09 283.27,-139.1 288.76,-134.75"/>
</a>
</g>
</g>
<!-- Node12 -->
<g id="Node000012" class="node">
<title>Node12</title>
<g id="a_Node000012"><a xlink:title=" ">
<polygon fill="#e0e0e0" stroke="#999999" points="990,-19 946,-19 946,0 990,0 990,-19"/>
<text text-anchor="middle" x="968" y="-7" font-family="Helvetica,sans-Serif" font-size="10.00">string</text>
</a>
</g>
</g>
<!-- Node11&#45;&gt;Node12 -->
<g id="edge11_Node000011_Node000012" class="edge">
<title>Node11&#45;&gt;Node12</title>
<g id="a_edge11_Node000011_Node000012"><a xlink:title=" ">
<path fill="none" stroke="#63b8ff" d="M395.61,-171.48C619.44,-165.02 1236.06,-141.23 1295,-74 1300.57,-67.65 1300.55,-61.36 1295,-55 1256.93,-11.4 1075.23,-8.9 1000.36,-9.79"/>
<polygon fill="#63b8ff" stroke="#63b8ff" points="1000.07,-6.29 990.12,-9.94 1000.17,-13.29 1000.07,-6.29"/>
</a>
</g>
</g>
<!-- Node13 -->
<g id="Node000013" class="node">
<title>Node13</title>
<g id="a_Node000013"><a xlink:href="ResponseStatus_8hpp.html" target="_top" xlink:title=" ">
<polygon fill="white" stroke="#666666" points="455.5,-74 292.5,-74 292.5,-55 455.5,-55 455.5,-74"/>
<text text-anchor="middle" x="374" y="-62" font-family="Helvetica,sans-Serif" font-size="10.00">response/ResponseStatus.hpp</text>
</a>
</g>
</g>
<!-- Node11&#45;&gt;Node13 -->
<g id="edge15_Node000011_Node000013" class="edge">
<title>Node11&#45;&gt;Node13</title>
<g id="a_edge15_Node000011_Node000013"><a xlink:title=" ">
<path fill="none" stroke="#63b8ff" d="M319.83,-164.66C329.56,-146.85 351.68,-106.37 364.44,-83.01"/>
<polygon fill="#63b8ff" stroke="#63b8ff" points="367.55,-84.61 369.27,-74.16 361.4,-81.26 367.55,-84.61"/>
</a>
</g>
</g>
<!-- Node14 -->
<g id="Node000014" class="node">
<title>Node14</title>
<g id="a_Node000014"><a xlink:href="HttpResponse_8hpp.html" target="_top" xlink:title=" ">
<polygon fill="white" stroke="#666666" points="558.5,-129 405.5,-129 405.5,-110 558.5,-110 558.5,-129"/>
<text text-anchor="middle" x="482" y="-117" font-family="Helvetica,sans-Serif" font-size="10.00">response/HttpResponse.hpp</text>
</a>
</g>
</g>
<!-- Node11&#45;&gt;Node14 -->
<g id="edge16_Node000011_Node000014" class="edge">
<title>Node11&#45;&gt;Node14</title>
<g id="a_edge16_Node000011_Node000014"><a xlink:title=" ">
<path fill="none" stroke="#63b8ff" d="M341.83,-164.98C369.87,-156.09 414.05,-142.07 445.3,-132.15"/>
<polygon fill="#63b8ff" stroke="#63b8ff" points="446.49,-135.44 454.96,-129.08 444.37,-128.77 446.49,-135.44"/>
</a>
</g>
</g>
<!-- Node16 -->
<g id="Node000016" class="node">
<title>Node16</title>
<g id="a_Node000016"><a xlink:href="HttpRequest_8hpp.html" target="_top" xlink:title=" ">
<polygon fill="white" stroke="#666666" points="869,-129 731,-129 731,-110 869,-110 869,-129"/>
<text text-anchor="middle" x="800" y="-117" font-family="Helvetica,sans-Serif" font-size="10.00">request/HttpRequest.hpp</text>
</a>
</g>
</g>
<!-- Node11&#45;&gt;Node16 -->
<g id="edge20_Node000011_Node000016" class="edge">
<title>Node11&#45;&gt;Node16</title>
<g id="a_edge20_Node000011_Node000016"><a xlink:title=" ">
<path fill="none" stroke="#63b8ff" d="M392.92,-164.98C482.91,-155.15 630.13,-139.06 720.7,-129.17"/>
<polygon fill="#63b8ff" stroke="#63b8ff" points="721.35,-132.62 730.91,-128.05 720.59,-125.66 721.35,-132.62"/>
</a>
</g>
</g>
<!-- Node14&#45;&gt;Node12 -->
<g id="edge17_Node000014_Node000012" class="edge">
<title>Node14&#45;&gt;Node12</title>
<g id="a_edge17_Node000014_Node000012"><a xlink:title=" ">
<path fill="none" stroke="#63b8ff" d="M482.06,-109.87C482.68,-95.89 486.12,-68.47 503,-55 536.76,-28.07 836.22,-15.15 935.89,-11.57"/>
<polygon fill="#63b8ff" stroke="#63b8ff" points="936.1,-15.06 945.97,-11.21 935.85,-8.07 936.1,-15.06"/>
</a>
</g>
</g>
<!-- Node14&#45;&gt;Node13 -->
<g id="edge19_Node000014_Node000013" class="edge">
<title>Node14&#45;&gt;Node13</title>
<g id="a_edge19_Node000014_Node000013"><a xlink:title=" ">
<path fill="none" stroke="#63b8ff" d="M464.65,-109.98C447.43,-101.54 420.8,-88.47 400.85,-78.68"/>
<polygon fill="#63b8ff" stroke="#63b8ff" points="402.19,-75.43 391.67,-74.17 399.1,-81.72 402.19,-75.43"/>
</a>
</g>
</g>
<!-- Node15 -->
<g id="Node000015" class="node">
<title>Node15</title>
<g id="a_Node000015"><a xlink:title=" ">
<polygon fill="#e0e0e0" stroke="#999999" points="550,-74 512,-74 512,-55 550,-55 550,-74"/>
<text text-anchor="middle" x="531" y="-62" font-family="Helvetica,sans-Serif" font-size="10.00">map</text>
</a>
</g>
</g>
<!-- Node14&#45;&gt;Node15 -->
<g id="edge18_Node000014_Node000015" class="edge">
<title>Node14&#45;&gt;Node15</title>
<g id="a_edge18_Node000014_Node000015"><a xlink:title=" ">
<path fill="none" stroke="#63b8ff" d="M490.09,-109.75C497.16,-102.11 507.59,-90.82 516.15,-81.56"/>
<polygon fill="#63b8ff" stroke="#63b8ff" points="518.84,-83.81 523.06,-74.09 513.7,-79.06 518.84,-83.81"/>
</a>
</g>
</g>
<!-- Node16&#45;&gt;Node12 -->
<g id="edge21_Node000016_Node000012" class="edge">
<title>Node16&#45;&gt;Node12</title>
<g id="a_edge21_Node000016_Node000012"><a xlink:title=" ">
<path fill="none" stroke="#63b8ff" d="M869.29,-117.11C995.39,-113.87 1251.96,-103.67 1279,-74 1284.69,-67.76 1284.53,-61.38 1279,-55 1243.23,-13.75 1073.17,-9.8 1000.76,-10.04"/>
<polygon fill="#63b8ff" stroke="#63b8ff" points="1000.39,-6.54 990.42,-10.11 1000.44,-13.54 1000.39,-6.54"/>
</a>
</g>
</g>
<!-- Node16&#45;&gt;Node13 -->
<g id="edge28_Node000016_Node000013" class="edge">
<title>Node16&#45;&gt;Node13</title>
<g id="a_edge28_Node000016_Node000013"><a xlink:title=" ">
<path fill="none" stroke="#63b8ff" d="M731.56,-109.98C655.43,-100.51 532.67,-85.24 452.65,-75.29"/>
<polygon fill="#63b8ff" stroke="#63b8ff" points="452.98,-71.8 442.63,-74.04 452.12,-78.75 452.98,-71.8"/>
</a>
</g>
</g>
<!-- Node16&#45;&gt;Node15 -->
<g id="edge22_Node000016_Node000015" class="edge">
<title>Node16&#45;&gt;Node15</title>
<g id="a_edge22_Node000016_Node000015"><a xlink:title=" ">
<path fill="none" stroke="#63b8ff" d="M743.62,-109.93C696.84,-102.4 628.41,-90.43 560.25,-74.08"/>
<polygon fill="#63b8ff" stroke="#63b8ff" points="560.75,-70.6 550.2,-71.64 559.09,-77.4 560.75,-70.6"/>
</a>
</g>
</g>
<!-- Node17 -->
<g id="Node000017" class="node">
<title>Node17</title>
<g id="a_Node000017"><a xlink:title=" ">
<polygon fill="#e0e0e0" stroke="#999999" points="1097.5,-74 1050.5,-74 1050.5,-55 1097.5,-55 1097.5,-74"/>
<text text-anchor="middle" x="1074" y="-62" font-family="Helvetica,sans-Serif" font-size="10.00">vector</text>
</a>
</g>
</g>
<!-- Node16&#45;&gt;Node17 -->
<g id="edge23_Node000016_Node000017" class="edge">
<title>Node16&#45;&gt;Node17</title>
<g id="a_edge23_Node000016_Node000017"><a xlink:title=" ">
<path fill="none" stroke="#63b8ff" d="M853.11,-109.96C900.1,-102.12 970.7,-89.68 1040.45,-74.22"/>
<polygon fill="#63b8ff" stroke="#63b8ff" points="1041.29,-77.62 1050.28,-72.02 1039.76,-70.79 1041.29,-77.62"/>
</a>
</g>
</g>
<!-- Node18 -->
<g id="Node000018" class="node">
<title>Node18</title>
<g id="a_Node000018"><a xlink:href="RequestMethod_8hpp.html" target="_top" xlink:title=" ">
<polygon fill="white" stroke="#666666" points="1270,-74 1116,-74 1116,-55 1270,-55 1270,-74"/>
<text text-anchor="middle" x="1193" y="-62" font-family="Helvetica,sans-Serif" font-size="10.00">request/RequestMethod.hpp</text>
</a>
</g>
</g>
<!-- Node16&#45;&gt;Node18 -->
<g id="edge24_Node000016_Node000018" class="edge">
<title>Node16&#45;&gt;Node18</title>
<g id="a_edge24_Node000016_Node000018"><a xlink:title=" ">
<path fill="none" stroke="#63b8ff" d="M863.14,-109.98C933.08,-100.55 1045.7,-85.36 1119.54,-75.41"/>
<polygon fill="#63b8ff" stroke="#63b8ff" points="1120.25,-78.84 1129.69,-74.04 1119.31,-71.91 1120.25,-78.84"/>
</a>
</g>
</g>
<!-- Node19 -->
<g id="Node000019" class="node">
<title>Node19</title>
<g id="a_Node000019"><a xlink:href="RequestMeta_8hpp.html" target="_top" xlink:title=" ">
<polygon fill="white" stroke="#666666" points="710,-74 568,-74 568,-55 710,-55 710,-74"/>
<text text-anchor="middle" x="639" y="-62" font-family="Helvetica,sans-Serif" font-size="10.00">request/RequestMeta.hpp</text>
</a>
</g>
</g>
<!-- Node16&#45;&gt;Node19 -->
<g id="edge25_Node000016_Node000019" class="edge">
<title>Node16&#45;&gt;Node19</title>
<g id="a_edge25_Node000016_Node000019"><a xlink:title=" ">
<path fill="none" stroke="#63b8ff" d="M774.13,-109.98C747.22,-101.13 704.88,-87.19 674.77,-77.28"/>
<polygon fill="#63b8ff" stroke="#63b8ff" points="675.66,-73.88 665.07,-74.08 673.47,-80.53 675.66,-73.88"/>
</a>
</g>
</g>
<!-- Node20 -->
<g id="Node000020" class="node">
<title>Node20</title>
<g id="a_Node000020"><a xlink:href="RequestState_8hpp.html" target="_top" xlink:title=" ">
<polygon fill="white" stroke="#666666" points="871.5,-74 728.5,-74 728.5,-55 871.5,-55 871.5,-74"/>
<text text-anchor="middle" x="800" y="-62" font-family="Helvetica,sans-Serif" font-size="10.00">request/RequestState.hpp</text>
</a>
</g>
</g>
<!-- Node16&#45;&gt;Node20 -->
<g id="edge27_Node000016_Node000020" class="edge">
<title>Node16&#45;&gt;Node20</title>
<g id="a_edge27_Node000016_Node000020"><a xlink:title=" ">
<path fill="none" stroke="#63b8ff" d="M800,-109.75C800,-102.8 800,-92.85 800,-84.13"/>
<polygon fill="#63b8ff" stroke="#63b8ff" points="803.5,-84.09 800,-74.09 796.5,-84.09 803.5,-84.09"/>
</a>
</g>
</g>
<!-- Node21 -->
<g id="Node000021" class="node">
<title>Node21</title>
<g id="a_Node000021"><a xlink:href="RouteType_8hpp.html" target="_top" xlink:title=" ">
<polygon fill="white" stroke="#666666" points="1032.5,-74 889.5,-74 889.5,-55 1032.5,-55 1032.5,-74"/>
<text text-anchor="middle" x="961" y="-62" font-family="Helvetica,sans-Serif" font-size="10.00">dispatcher/RouteType.hpp</text>
</a>
</g>
</g>
<!-- Node16&#45;&gt;Node21 -->
<g id="edge29_Node000016_Node000021" class="edge">
<title>Node16&#45;&gt;Node21</title>
<g id="a_edge29_Node000016_Node000021"><a xlink:title=" ">
<path fill="none" stroke="#63b8ff" d="M825.87,-109.98C852.78,-101.13 895.12,-87.19 925.23,-77.28"/>
<polygon fill="#63b8ff" stroke="#63b8ff" points="926.53,-80.53 934.93,-74.08 924.34,-73.88 926.53,-80.53"/>
</a>
</g>
</g>
<!-- Node19&#45;&gt;Node12 -->
<g id="edge26_Node000019_Node000012" class="edge">
<title>Node19&#45;&gt;Node12</title>
<g id="a_edge26_Node000019_Node000012"><a xlink:title=" ">
<path fill="none" stroke="#63b8ff" d="M691.86,-54.98C760.63,-43.91 878.69,-24.89 935.54,-15.73"/>
<polygon fill="#63b8ff" stroke="#63b8ff" points="936.42,-19.13 945.74,-14.09 935.31,-12.22 936.42,-19.13"/>
</a>
</g>
</g>
</g>
</svg>
