<?xml version="1.0" encoding="UTF-8" standalone="no"?>
<!DOCTYPE svg PUBLIC "-//W3C//DTD SVG 1.1//EN"
 "http://www.w3.org/Graphics/SVG/1.1/DTD/svg11.dtd">
<!-- Generated by graphviz version 2.43.0 (0)
 -->
<!-- Title: dispatcher/DeleteHandler.hpp Pages: 1 -->
<svg width="1464pt" height="192pt"
 viewBox="0.00 0.00 1464.00 192.00" xmlns="http://www.w3.org/2000/svg" xmlns:xlink="http://www.w3.org/1999/xlink">
<g id="graph0" class="graph" transform="scale(1 1) rotate(0) translate(4 188)">
<title>dispatcher/DeleteHandler.hpp</title>
<!-- Node1 -->
<g id="Node000001" class="node">
<title>Node1</title>
<g id="a_Node000001"><a xlink:title=" ">
<polygon fill="#999999" stroke="#666666" points="1152,-184 991,-184 991,-165 1152,-165 1152,-184"/>
<text text-anchor="middle" x="1071.5" y="-172" font-family="Helvetica,sans-Serif" font-size="10.00">dispatcher/DeleteHandler.hpp</text>
</a>
</g>
</g>
<!-- Node2 -->
<g id="Node000002" class="node">
<title>Node2</title>
<g id="a_Node000002"><a xlink:title=" ">
<polygon fill="#e0e0e0" stroke="#999999" points="697.5,-19 653.5,-19 653.5,0 697.5,0 697.5,-19"/>
<text text-anchor="middle" x="675.5" y="-7" font-family="Helvetica,sans-Serif" font-size="10.00">string</text>
</a>
</g>
</g>
<!-- Node1&#45;&gt;Node2 -->
<g id="edge1_Node000001_Node000002" class="edge">
<title>Node1&#45;&gt;Node2</title>
<g id="a_edge1_Node000001_Node000002"><a xlink:title=" ">
<path fill="none" stroke="#63b8ff" d="M1069.37,-164.83C1063.37,-142.39 1044.04,-82.28 1003.5,-55 955.66,-22.8 781.24,-13.74 708.11,-11.33"/>
<polygon fill="#63b8ff" stroke="#63b8ff" points="707.78,-7.81 697.68,-11 707.57,-14.81 707.78,-7.81"/>
</a>
</g>
</g>
<!-- Node3 -->
<g id="Node000003" class="node">
<title>Node3</title>
<g id="a_Node000003"><a xlink:title=" ">
<polygon fill="#e0e0e0" stroke="#999999" points="1127.5,-129 1071.5,-129 1071.5,-110 1127.5,-110 1127.5,-129"/>
<text text-anchor="middle" x="1099.5" y="-117" font-family="Helvetica,sans-Serif" font-size="10.00">unistd.h</text>
</a>
</g>
</g>
<!-- Node1&#45;&gt;Node3 -->
<g id="edge2_Node000001_Node000003" class="edge">
<title>Node1&#45;&gt;Node3</title>
<g id="a_edge2_Node000001_Node000003"><a xlink:title=" ">
<path fill="none" stroke="#63b8ff" d="M1076.12,-164.75C1079.96,-157.49 1085.52,-146.95 1090.26,-137.98"/>
<polygon fill="#63b8ff" stroke="#63b8ff" points="1093.39,-139.57 1094.96,-129.09 1087.2,-136.3 1093.39,-139.57"/>
</a>
</g>
</g>
<!-- Node4 -->
<g id="Node000004" class="node">
<title>Node4</title>
<g id="a_Node000004"><a xlink:title=" ">
<polygon fill="#e0e0e0" stroke="#999999" points="1193,-129 1146,-129 1146,-110 1193,-110 1193,-129"/>
<text text-anchor="middle" x="1169.5" y="-117" font-family="Helvetica,sans-Serif" font-size="10.00">cerrno</text>
</a>
</g>
</g>
<!-- Node1&#45;&gt;Node4 -->
<g id="edge3_Node000001_Node000004" class="edge">
<title>Node1&#45;&gt;Node4</title>
<g id="a_edge3_Node000001_Node000004"><a xlink:title=" ">
<path fill="none" stroke="#63b8ff" d="M1087.25,-164.98C1102.73,-156.61 1126.59,-143.7 1144.64,-133.95"/>
<polygon fill="#63b8ff" stroke="#63b8ff" points="1146.34,-137.01 1153.47,-129.17 1143.01,-130.85 1146.34,-137.01"/>
</a>
</g>
</g>
<!-- Node5 -->
<g id="Node000005" class="node">
<title>Node5</title>
<g id="a_Node000005"><a xlink:title=" ">
<polygon fill="#e0e0e0" stroke="#999999" points="1261.5,-129 1211.5,-129 1211.5,-110 1261.5,-110 1261.5,-129"/>
<text text-anchor="middle" x="1236.5" y="-117" font-family="Helvetica,sans-Serif" font-size="10.00">cstring</text>
</a>
</g>
</g>
<!-- Node1&#45;&gt;Node5 -->
<g id="edge4_Node000001_Node000005" class="edge">
<title>Node1&#45;&gt;Node5</title>
<g id="a_edge4_Node000001_Node000005"><a xlink:title=" ">
<path fill="none" stroke="#63b8ff" d="M1098.01,-164.98C1126.2,-155.93 1170.92,-141.57 1201.88,-131.62"/>
<polygon fill="#63b8ff" stroke="#63b8ff" points="1202.96,-134.95 1211.41,-128.56 1200.82,-128.29 1202.96,-134.95"/>
</a>
</g>
</g>
<!-- Node6 -->
<g id="Node000006" class="node">
<title>Node6</title>
<g id="a_Node000006"><a xlink:href="ResponseStatus_8hpp.html" target="_top" xlink:title=" ">
<polygon fill="white" stroke="#666666" points="163,-74 0,-74 0,-55 163,-55 163,-74"/>
<text text-anchor="middle" x="81.5" y="-62" font-family="Helvetica,sans-Serif" font-size="10.00">response/ResponseStatus.hpp</text>
</a>
</g>
</g>
<!-- Node1&#45;&gt;Node6 -->
<g id="edge5_Node000001_Node000006" class="edge">
<title>Node1&#45;&gt;Node6</title>
<g id="a_edge5_Node000001_Node000006"><a xlink:title=" ">
<path fill="none" stroke="#63b8ff" d="M990.86,-173.15C778.59,-171.75 215.42,-164.67 139.5,-129 118.46,-119.12 101.56,-97.77 91.55,-82.56"/>
<polygon fill="#63b8ff" stroke="#63b8ff" points="94.49,-80.66 86.23,-74.03 88.55,-84.37 94.49,-80.66"/>
</a>
</g>
</g>
<!-- Node7 -->
<g id="Node000007" class="node">
<title>Node7</title>
<g id="a_Node000007"><a xlink:href="HttpResponse_8hpp.html" target="_top" xlink:title=" ">
<polygon fill="white" stroke="#666666" points="302,-129 149,-129 149,-110 302,-110 302,-129"/>
<text text-anchor="middle" x="225.5" y="-117" font-family="Helvetica,sans-Serif" font-size="10.00">response/HttpResponse.hpp</text>
</a>
</g>
</g>
<!-- Node1&#45;&gt;Node7 -->
<g id="edge6_Node000001_Node000007" class="edge">
<title>Node1&#45;&gt;Node7</title>
<g id="a_edge6_Node000001_Node000007"><a xlink:title=" ">
<path fill="none" stroke="#63b8ff" d="M990.77,-168.44C831.17,-158.44 476.59,-136.23 312.24,-125.93"/>
<polygon fill="#63b8ff" stroke="#63b8ff" points="312.37,-122.44 302.17,-125.3 311.93,-129.42 312.37,-122.44"/>
</a>
</g>
</g>
<!-- Node9 -->
<g id="Node000009" class="node">
<title>Node9</title>
<g id="a_Node000009"><a xlink:href="HttpRequest_8hpp.html" target="_top" xlink:title=" ">
<polygon fill="white" stroke="#666666" points="737.5,-129 599.5,-129 599.5,-110 737.5,-110 737.5,-129"/>
<text text-anchor="middle" x="668.5" y="-117" font-family="Helvetica,sans-Serif" font-size="10.00">request/HttpRequest.hpp</text>
</a>
</g>
</g>
<!-- Node1&#45;&gt;Node9 -->
<g id="edge10_Node000001_Node000009" class="edge">
<title>Node1&#45;&gt;Node9</title>
<g id="a_edge10_Node000001_Node000009"><a xlink:title=" ">
<path fill="none" stroke="#63b8ff" d="M1006.75,-164.98C934.88,-155.53 819.08,-140.3 743.37,-130.35"/>
<polygon fill="#63b8ff" stroke="#63b8ff" points="743.79,-126.87 733.42,-129.04 742.88,-133.81 743.79,-126.87"/>
</a>
</g>
</g>
<!-- Node15 -->
<g id="Node000015" class="node">
<title>Node15</title>
<g id="a_Node000015"><a xlink:href="Logger_8hpp.html" target="_top" xlink:title=" ">
<polygon fill="white" stroke="#666666" points="1373.5,-129 1279.5,-129 1279.5,-110 1373.5,-110 1373.5,-129"/>
<text text-anchor="middle" x="1326.5" y="-117" font-family="Helvetica,sans-Serif" font-size="10.00">utils/Logger.hpp</text>
</a>
</g>
</g>
<!-- Node1&#45;&gt;Node15 -->
<g id="edge20_Node000001_Node000015" class="edge">
<title>Node1&#45;&gt;Node15</title>
<g id="a_edge20_Node000001_Node000015"><a xlink:title=" ">
<path fill="none" stroke="#63b8ff" d="M1112.47,-164.98C1156.76,-155.78 1227.44,-141.09 1275.35,-131.13"/>
<polygon fill="#63b8ff" stroke="#63b8ff" points="1276.13,-134.54 1285.21,-129.08 1274.71,-127.69 1276.13,-134.54"/>
</a>
</g>
</g>
<!-- Node7&#45;&gt;Node2 -->
<g id="edge7_Node000007_Node000002" class="edge">
<title>Node7&#45;&gt;Node2</title>
<g id="a_edge7_Node000007_Node000002"><a xlink:title=" ">
<path fill="none" stroke="#63b8ff" d="M219.28,-109.92C210.36,-96.48 196.48,-70.42 210.5,-55 239.58,-23.01 542.82,-13.44 643.33,-11.13"/>
<polygon fill="#63b8ff" stroke="#63b8ff" points="643.57,-14.63 653.49,-10.91 643.42,-7.63 643.57,-14.63"/>
</a>
</g>
</g>
<!-- Node7&#45;&gt;Node6 -->
<g id="edge9_Node000007_Node000006" class="edge">
<title>Node7&#45;&gt;Node6</title>
<g id="a_edge9_Node000007_Node000006"><a xlink:title=" ">
<path fill="none" stroke="#63b8ff" d="M202.36,-109.98C178.68,-101.27 141.63,-87.63 114.79,-77.75"/>
<polygon fill="#63b8ff" stroke="#63b8ff" points="115.65,-74.34 105.06,-74.17 113.23,-80.91 115.65,-74.34"/>
</a>
</g>
</g>
<!-- Node8 -->
<g id="Node000008" class="node">
<title>Node8</title>
<g id="a_Node000008"><a xlink:title=" ">
<polygon fill="#e0e0e0" stroke="#999999" points="257.5,-74 219.5,-74 219.5,-55 257.5,-55 257.5,-74"/>
<text text-anchor="middle" x="238.5" y="-62" font-family="Helvetica,sans-Serif" font-size="10.00">map</text>
</a>
</g>
</g>
<!-- Node7&#45;&gt;Node8 -->
<g id="edge8_Node000007_Node000008" class="edge">
<title>Node7&#45;&gt;Node8</title>
<g id="a_edge8_Node000007_Node000008"><a xlink:title=" ">
<path fill="none" stroke="#63b8ff" d="M227.65,-109.75C229.37,-102.72 231.85,-92.62 234,-83.84"/>
<polygon fill="#63b8ff" stroke="#63b8ff" points="237.41,-84.63 236.39,-74.09 230.61,-82.97 237.41,-84.63"/>
</a>
</g>
</g>
<!-- Node9&#45;&gt;Node2 -->
<g id="edge11_Node000009_Node000002" class="edge">
<title>Node9&#45;&gt;Node2</title>
<g id="a_edge11_Node000009_Node000002"><a xlink:title=" ">
<path fill="none" stroke="#63b8ff" d="M737.85,-118.96C821.53,-117.87 954.95,-110.28 986.5,-74 992.04,-67.63 992.03,-61.38 986.5,-55 950.73,-13.75 780.67,-9.8 708.26,-10.04"/>
<polygon fill="#63b8ff" stroke="#63b8ff" points="707.89,-6.54 697.92,-10.11 707.94,-13.54 707.89,-6.54"/>
</a>
</g>
</g>
<!-- Node9&#45;&gt;Node6 -->
<g id="edge18_Node000009_Node000006" class="edge">
<title>Node9&#45;&gt;Node6</title>
<g id="a_edge18_Node000009_Node000006"><a xlink:title=" ">
<path fill="none" stroke="#63b8ff" d="M599.44,-112.26C493.72,-102.72 291.63,-84.47 173.57,-73.81"/>
<polygon fill="#63b8ff" stroke="#63b8ff" points="173.74,-70.31 163.46,-72.9 173.11,-77.29 173.74,-70.31"/>
</a>
</g>
</g>
<!-- Node9&#45;&gt;Node8 -->
<g id="edge12_Node000009_Node000008" class="edge">
<title>Node9&#45;&gt;Node8</title>
<g id="a_edge12_Node000009_Node000008"><a xlink:title=" ">
<path fill="none" stroke="#63b8ff" d="M599.26,-114.73C520.79,-109.58 389.06,-98.3 267.51,-73.84"/>
<polygon fill="#63b8ff" stroke="#63b8ff" points="268.16,-70.4 257.66,-71.83 266.75,-77.26 268.16,-70.4"/>
</a>
</g>
</g>
<!-- Node10 -->
<g id="Node000010" class="node">
<title>Node10</title>
<g id="a_Node000010"><a xlink:title=" ">
<polygon fill="#e0e0e0" stroke="#999999" points="805,-74 758,-74 758,-55 805,-55 805,-74"/>
<text text-anchor="middle" x="781.5" y="-62" font-family="Helvetica,sans-Serif" font-size="10.00">vector</text>
</a>
</g>
</g>
<!-- Node9&#45;&gt;Node10 -->
<g id="edge13_Node000009_Node000010" class="edge">
<title>Node9&#45;&gt;Node10</title>
<g id="a_edge13_Node000009_Node000010"><a xlink:title=" ">
<path fill="none" stroke="#63b8ff" d="M686.66,-109.98C704.75,-101.5 732.78,-88.35 753.69,-78.54"/>
<polygon fill="#63b8ff" stroke="#63b8ff" points="755.45,-81.59 763.01,-74.17 752.47,-75.25 755.45,-81.59"/>
</a>
</g>
</g>
<!-- Node11 -->
<g id="Node000011" class="node">
<title>Node11</title>
<g id="a_Node000011"><a xlink:href="RequestMethod_8hpp.html" target="_top" xlink:title=" ">
<polygon fill="white" stroke="#666666" points="977.5,-74 823.5,-74 823.5,-55 977.5,-55 977.5,-74"/>
<text text-anchor="middle" x="900.5" y="-62" font-family="Helvetica,sans-Serif" font-size="10.00">request/RequestMethod.hpp</text>
</a>
</g>
</g>
<!-- Node9&#45;&gt;Node11 -->
<g id="edge14_Node000009_Node000011" class="edge">
<title>Node9&#45;&gt;Node11</title>
<g id="a_edge14_Node000009_Node000011"><a xlink:title=" ">
<path fill="none" stroke="#63b8ff" d="M705.77,-109.98C745.82,-100.84 809.57,-86.27 853.14,-76.32"/>
<polygon fill="#63b8ff" stroke="#63b8ff" points="853.96,-79.72 862.93,-74.08 852.4,-72.9 853.96,-79.72"/>
</a>
</g>
</g>
<!-- Node12 -->
<g id="Node000012" class="node">
<title>Node12</title>
<g id="a_Node000012"><a xlink:href="RequestMeta_8hpp.html" target="_top" xlink:title=" ">
<polygon fill="white" stroke="#666666" points="417.5,-74 275.5,-74 275.5,-55 417.5,-55 417.5,-74"/>
<text text-anchor="middle" x="346.5" y="-62" font-family="Helvetica,sans-Serif" font-size="10.00">request/RequestMeta.hpp</text>
</a>
</g>
</g>
<!-- Node9&#45;&gt;Node12 -->
<g id="edge15_Node000009_Node000012" class="edge">
<title>Node9&#45;&gt;Node12</title>
<g id="a_edge15_Node000009_Node000012"><a xlink:title=" ">
<path fill="none" stroke="#63b8ff" d="M616.77,-109.98C560.05,-100.65 469.07,-85.67 408.56,-75.71"/>
<polygon fill="#63b8ff" stroke="#63b8ff" points="408.81,-72.21 398.37,-74.04 407.67,-79.12 408.81,-72.21"/>
</a>
</g>
</g>
<!-- Node13 -->
<g id="Node000013" class="node">
<title>Node13</title>
<g id="a_Node000013"><a xlink:href="RequestState_8hpp.html" target="_top" xlink:title=" ">
<polygon fill="white" stroke="#666666" points="579,-74 436,-74 436,-55 579,-55 579,-74"/>
<text text-anchor="middle" x="507.5" y="-62" font-family="Helvetica,sans-Serif" font-size="10.00">request/RequestState.hpp</text>
</a>
</g>
</g>
<!-- Node9&#45;&gt;Node13 -->
<g id="edge17_Node000009_Node000013" class="edge">
<title>Node9&#45;&gt;Node13</title>
<g id="a_edge17_Node000009_Node000013"><a xlink:title=" ">
<path fill="none" stroke="#63b8ff" d="M642.63,-109.98C615.72,-101.13 573.38,-87.19 543.27,-77.28"/>
<polygon fill="#63b8ff" stroke="#63b8ff" points="544.16,-73.88 533.57,-74.08 541.97,-80.53 544.16,-73.88"/>
</a>
</g>
</g>
<!-- Node14 -->
<g id="Node000014" class="node">
<title>Node14</title>
<g id="a_Node000014"><a xlink:href="RouteType_8hpp.html" target="_top" xlink:title=" ">
<polygon fill="white" stroke="#666666" points="740,-74 597,-74 597,-55 740,-55 740,-74"/>
<text text-anchor="middle" x="668.5" y="-62" font-family="Helvetica,sans-Serif" font-size="10.00">dispatcher/RouteType.hpp</text>
</a>
</g>
</g>
<!-- Node9&#45;&gt;Node14 -->
<g id="edge19_Node000009_Node000014" class="edge">
<title>Node9&#45;&gt;Node14</title>
<g id="a_edge19_Node000009_Node000014"><a xlink:title=" ">
<path fill="none" stroke="#63b8ff" d="M668.5,-109.75C668.5,-102.8 668.5,-92.85 668.5,-84.13"/>
<polygon fill="#63b8ff" stroke="#63b8ff" points="672,-84.09 668.5,-74.09 665,-84.09 672,-84.09"/>
</a>
</g>
</g>
<!-- Node12&#45;&gt;Node2 -->
<g id="edge16_Node000012_Node000002" class="edge">
<title>Node12&#45;&gt;Node2</title>
<g id="a_edge16_Node000012_Node000002"><a xlink:title=" ">
<path fill="none" stroke="#63b8ff" d="M399.36,-54.98C468.13,-43.91 586.19,-24.89 643.04,-15.73"/>
<polygon fill="#63b8ff" stroke="#63b8ff" points="643.92,-19.13 653.24,-14.09 642.81,-12.22 643.92,-19.13"/>
</a>
</g>
</g>
<!-- Node16 -->
<g id="Node000016" class="node">
<title>Node16</title>
<g id="a_Node000016"><a xlink:title=" ">
<polygon fill="#e0e0e0" stroke="#999999" points="1382.5,-74 1338.5,-74 1338.5,-55 1382.5,-55 1382.5,-74"/>
<text text-anchor="middle" x="1360.5" y="-62" font-family="Helvetica,sans-Serif" font-size="10.00">ctime</text>
</a>
</g>
</g>
<!-- Node15&#45;&gt;Node16 -->
<g id="edge21_Node000015_Node000016" class="edge">
<title>Node15&#45;&gt;Node16</title>
<g id="a_edge21_Node000015_Node000016"><a xlink:title=" ">
<path fill="none" stroke="#63b8ff" d="M1332.11,-109.75C1336.82,-102.42 1343.67,-91.73 1349.47,-82.7"/>
<polygon fill="#63b8ff" stroke="#63b8ff" points="1352.54,-84.4 1354.99,-74.09 1346.64,-80.62 1352.54,-84.4"/>
</a>
</g>
</g>
<!-- Node17 -->
<g id="Node000017" class="node">
<title>Node17</title>
<g id="a_Node000017"><a xlink:title=" ">
<polygon fill="#e0e0e0" stroke="#999999" points="1456,-74 1401,-74 1401,-55 1456,-55 1456,-74"/>
<text text-anchor="middle" x="1428.5" y="-62" font-family="Helvetica,sans-Serif" font-size="10.00">fstream</text>
</a>
</g>
</g>
<!-- Node15&#45;&gt;Node17 -->
<g id="edge22_Node000015_Node000017" class="edge">
<title>Node15&#45;&gt;Node17</title>
<g id="a_edge22_Node000015_Node000017"><a xlink:title=" ">
<path fill="none" stroke="#63b8ff" d="M1342.89,-109.98C1359.07,-101.57 1384.07,-88.59 1402.88,-78.81"/>
<polygon fill="#63b8ff" stroke="#63b8ff" points="1404.55,-81.89 1411.81,-74.17 1401.33,-75.68 1404.55,-81.89"/>
</a>
</g>
</g>
<!-- Node18 -->
<g id="Node000018" class="node">
<title>Node18</title>
<g id="a_Node000018"><a xlink:title=" ">
<polygon fill="#e0e0e0" stroke="#999999" points="1246.5,-74 1186.5,-74 1186.5,-55 1246.5,-55 1246.5,-74"/>
<text text-anchor="middle" x="1216.5" y="-62" font-family="Helvetica,sans-Serif" font-size="10.00">iostream</text>
</a>
</g>
</g>
<!-- Node15&#45;&gt;Node18 -->
<g id="edge23_Node000015_Node000018" class="edge">
<title>Node15&#45;&gt;Node18</title>
<g id="a_edge23_Node000015_Node000018"><a xlink:title=" ">
<path fill="none" stroke="#63b8ff" d="M1308.83,-109.98C1291.21,-101.5 1263.92,-88.35 1243.57,-78.54"/>
<polygon fill="#63b8ff" stroke="#63b8ff" points="1245.02,-75.36 1234.49,-74.17 1241.98,-81.66 1245.02,-75.36"/>
</a>
</g>
</g>
<!-- Node19 -->
<g id="Node000019" class="node">
<title>Node19</title>
<g id="a_Node000019"><a xlink:title=" ">
<polygon fill="#e0e0e0" stroke="#999999" points="1320.5,-74 1264.5,-74 1264.5,-55 1320.5,-55 1320.5,-74"/>
<text text-anchor="middle" x="1292.5" y="-62" font-family="Helvetica,sans-Serif" font-size="10.00">sstream</text>
</a>
</g>
</g>
<!-- Node15&#45;&gt;Node19 -->
<g id="edge24_Node000015_Node000019" class="edge">
<title>Node15&#45;&gt;Node19</title>
<g id="a_edge24_Node000015_Node000019"><a xlink:title=" ">
<path fill="none" stroke="#63b8ff" d="M1320.89,-109.75C1316.18,-102.42 1309.33,-91.73 1303.53,-82.7"/>
<polygon fill="#63b8ff" stroke="#63b8ff" points="1306.36,-80.62 1298.01,-74.09 1300.46,-84.4 1306.36,-80.62"/>
</a>
</g>
</g>
</g>
</svg>
