<?xml version="1.0" encoding="UTF-8" standalone="no"?>
<!DOCTYPE svg PUBLIC "-//W3C//DTD SVG 1.1//EN"
 "http://www.w3.org/Graphics/SVG/1.1/DTD/svg11.dtd">
<!-- Generated by graphviz version 2.43.0 (0)
 -->
<!-- Title: response/HttpResponse.hpp Pages: 1 -->
<!--zoomable 247 -->

<svg id="main" version="1.1" xmlns="http://www.w3.org/2000/svg" xmlns:xlink="http://www.w3.org/1999/xlink" xml:space="preserve" onload="init(evt)">
<style type="text/css"><![CDATA[
.node, .edge {opacity: 0.7;}
.node.selected, .edge.selected {opacity: 1;}
.edge:hover path { stroke: red; }
.edge:hover polygon { stroke: red; fill: red; }
]]></style>

<defs>
  <circle id="rim" cx="0" cy="0" r="7"/>
  <circle id="rim2" cx="0" cy="0" r="3.5"/>
  <g id="zoomPlus">
    <use xlink:href="#rim" fill="#404040"><set attributeName="fill" to="#808080" begin="zoomplus.mouseover" end="zoomplus.mouseout"/></use>
    <path d="M-4,0h8M0,-4v8" fill="none" stroke="white" stroke-width="1.5" pointer-events="none"/>
  </g>
  <g id="zoomMin">
    <use xlink:href="#rim" fill="#404040"><set attributeName="fill" to="#808080" begin="zoomminus.mouseover" end="zoomminus.mouseout"/></use>
    <path d="M-4,0h8" fill="none" stroke="white" stroke-width="1.5" pointer-events="none"/>
  </g>
  <g id="arrowUp" transform="translate(30 24)">
    <use xlink:href="#rim"/>
    <path pointer-events="none" fill="none" stroke="white" stroke-width="1.5" d="M0,-3.0v7 M-2.5,-0.5L0,-3.0L2.5,-0.5"/>
  </g>
  <g id="arrowRight" transform="rotate(90) translate(36 -43)">
    <use xlink:href="#rim"/>
    <path pointer-events="none" fill="none" stroke="white" stroke-width="1.5" d="M0,-3.0v7 M-2.5,-0.5L0,-3.0L2.5,-0.5"/>
  </g>
  <g id="arrowDown" transform="rotate(180) translate(-30 -48)">
    <use xlink:href="#rim"/>
    <path pointer-events="none" fill="none" stroke="white" stroke-width="1.5" d="M0,-3.0v7 M-2.5,-0.5L0,-3.0L2.5,-0.5"/>
  </g>
  <g id="arrowLeft" transform="rotate(270) translate(-36 17)">
    <use xlink:href="#rim"/>
    <path pointer-events="none" fill="none" stroke="white" stroke-width="1.5" d="M0,-3.0v7 M-2.5,-0.5L0,-3.0L2.5,-0.5"/>
  </g>
  <g id="resetDef">
    <use xlink:href="#rim2" fill="#404040"><set attributeName="fill" to="#808080" begin="reset.mouseover" end="reset.mouseout"/></use>
  </g>
</defs>
<script type="application/ecmascript">
var viewWidth = 1985;
var viewHeight = 247;
var sectionId = 'dynsection-1';
</script>
<script type="application/ecmascript" xlink:href="svg.min.js"/>
<svg id="graph" class="graph">
<g id="viewport">
<title>response/HttpResponse.hpp</title>
<!-- Node1 -->
<g id="Node000001" class="node">
<title>Node1</title>
<g id="a_Node000001"><a xlink:title=" ">
<polygon fill="#999999" stroke="#666666" points="1107.27,-239 954.27,-239 954.27,-220 1107.27,-220 1107.27,-239"/>
<text text-anchor="middle" x="1030.77" y="-227" font-family="Helvetica,sans-Serif" font-size="10.00">response/HttpResponse.hpp</text>
</a>
</g>
</g>
<!-- Node2 -->
<g id="Node000002" class="node">
<title>Node2</title>
<g id="a_Node000002"><a xlink:href="AutoIndexHandler_8hpp.html" target="_top" xlink:title=" ">
<polygon fill="white" stroke="#666666" points="996.27,-129 817.27,-129 817.27,-110 996.27,-110 996.27,-129"/>
<text text-anchor="middle" x="906.77" y="-117" font-family="Helvetica,sans-Serif" font-size="10.00">dispatcher/AutoIndexHandler.hpp</text>
</a>
</g>
</g>
<!-- Node1&#45;&gt;Node2 -->
<g id="edge1_Node000001_Node000002" class="edge">
<title>Node1&#45;&gt;Node2</title>
<g id="a_edge1_Node000001_Node000002"><a xlink:title=" ">
<path fill="none" stroke="#63b8ff" d="M1012.87,-212.91C986.38,-189.83 937.62,-147.37 916.72,-129.16"/>
<polygon fill="#63b8ff" stroke="#63b8ff" points="1010.79,-215.73 1020.63,-219.66 1015.39,-210.45 1010.79,-215.73"/>
</a>
</g>
</g>
<!-- Node5 -->
<g id="Node000005" class="node">
<title>Node5</title>
<g id="a_Node000005"><a xlink:href="CgiHandler_8hpp.html" target="_top" xlink:title=" ">
<polygon fill="white" stroke="#666666" points="576.27,-129 431.27,-129 431.27,-110 576.27,-110 576.27,-129"/>
<text text-anchor="middle" x="503.77" y="-117" font-family="Helvetica,sans-Serif" font-size="10.00">dispatcher/CgiHandler.hpp</text>
</a>
</g>
</g>
<!-- Node1&#45;&gt;Node5 -->
<g id="edge4_Node000001_Node000005" class="edge">
<title>Node1&#45;&gt;Node5</title>
<g id="a_edge4_Node000001_Node000005"><a xlink:title=" ">
<path fill="none" stroke="#63b8ff" d="M944.01,-226.94C863.09,-223.57 739.74,-213.49 636.77,-184 591.02,-170.9 541.54,-143.31 517.91,-129.21"/>
<polygon fill="#63b8ff" stroke="#63b8ff" points="944.03,-230.45 954.16,-227.34 944.3,-223.45 944.03,-230.45"/>
</a>
</g>
</g>
<!-- Node10 -->
<g id="Node000010" class="node">
<title>Node10</title>
<g id="a_Node000010"><a xlink:href="DeleteHandler_8hpp.html" target="_top" xlink:title=" ">
<polygon fill="white" stroke="#666666" points="1606.27,-184 1445.27,-184 1445.27,-165 1606.27,-165 1606.27,-184"/>
<text text-anchor="middle" x="1525.77" y="-172" font-family="Helvetica,sans-Serif" font-size="10.00">dispatcher/DeleteHandler.hpp</text>
</a>
</g>
</g>
<!-- Node1&#45;&gt;Node10 -->
<g id="edge10_Node000001_Node000010" class="edge">
<title>Node1&#45;&gt;Node10</title>
<g id="a_edge10_Node000001_Node000010"><a xlink:title=" ">
<path fill="none" stroke="#63b8ff" d="M1117.51,-219.21C1210.32,-209.28 1356.3,-193.65 1446.24,-184.02"/>
<polygon fill="#63b8ff" stroke="#63b8ff" points="1116.88,-215.76 1107.3,-220.31 1117.62,-222.72 1116.88,-215.76"/>
</a>
</g>
</g>
<!-- Node12 -->
<g id="Node000012" class="node">
<title>Node12</title>
<g id="a_Node000012"><a xlink:href="StaticPageHandler_8hpp.html" target="_top" xlink:title=" ">
<polygon fill="white" stroke="#666666" points="1194.77,-129 1014.77,-129 1014.77,-110 1194.77,-110 1194.77,-129"/>
<text text-anchor="middle" x="1104.77" y="-117" font-family="Helvetica,sans-Serif" font-size="10.00">dispatcher/StaticPageHandler.hpp</text>
</a>
</g>
</g>
<!-- Node1&#45;&gt;Node12 -->
<g id="edge13_Node000001_Node000012" class="edge">
<title>Node1&#45;&gt;Node12</title>
<g id="a_edge13_Node000001_Node000012"><a xlink:title=" ">
<path fill="none" stroke="#63b8ff" d="M1042.5,-211.38C1058.52,-188.01 1086.64,-146.97 1098.84,-129.16"/>
<polygon fill="#63b8ff" stroke="#63b8ff" points="1039.6,-209.43 1036.83,-219.66 1045.37,-213.39 1039.6,-209.43"/>
</a>
</g>
</g>
<!-- Node14 -->
<g id="Node000014" class="node">
<title>Node14</title>
<g id="a_Node000014"><a xlink:href="UploadHandler_8hpp.html" target="_top" xlink:title=" ">
<polygon fill="white" stroke="#666666" points="1806.77,-184 1642.77,-184 1642.77,-165 1806.77,-165 1806.77,-184"/>
<text text-anchor="middle" x="1724.77" y="-172" font-family="Helvetica,sans-Serif" font-size="10.00">dispatcher/UploadHandler.hpp</text>
</a>
</g>
</g>
<!-- Node1&#45;&gt;Node14 -->
<g id="edge16_Node000001_Node000014" class="edge">
<title>Node1&#45;&gt;Node14</title>
<g id="a_edge16_Node000001_Node000014"><a xlink:title=" ">
<path fill="none" stroke="#63b8ff" d="M1117.52,-221.95C1231.74,-213.32 1438.82,-197.63 1615.77,-184 1624.48,-183.33 1633.58,-182.63 1642.64,-181.92"/>
<polygon fill="#63b8ff" stroke="#63b8ff" points="1117.14,-218.47 1107.44,-222.72 1117.67,-225.45 1117.14,-218.47"/>
</a>
</g>
</g>
<!-- Node16 -->
<g id="Node000016" class="node">
<title>Node16</title>
<g id="a_Node000016"><a xlink:href="ClientConnection_8hpp.html" target="_top" xlink:title=" ">
<polygon fill="white" stroke="#666666" points="785.77,-184 645.77,-184 645.77,-165 785.77,-165 785.77,-184"/>
<text text-anchor="middle" x="715.77" y="-172" font-family="Helvetica,sans-Serif" font-size="10.00">init/ClientConnection.hpp</text>
</a>
</g>
</g>
<!-- Node1&#45;&gt;Node16 -->
<g id="edge19_Node000001_Node000016" class="edge">
<title>Node1&#45;&gt;Node16</title>
<g id="a_edge19_Node000001_Node000016"><a xlink:title=" ">
<path fill="none" stroke="#63b8ff" d="M970.21,-218.31C911.06,-208.36 822.06,-193.38 766.52,-184.04"/>
<polygon fill="#63b8ff" stroke="#63b8ff" points="969.72,-221.78 980.16,-219.98 970.88,-214.87 969.72,-221.78"/>
</a>
</g>
</g>
<!-- Node23 -->
<g id="Node000023" class="node">
<title>Node23</title>
<g id="a_Node000023"><a xlink:href="ResponseBuilder_8hpp.html" target="_top" xlink:title=" ">
<polygon fill="white" stroke="#666666" points="798.77,-129 632.77,-129 632.77,-110 798.77,-110 798.77,-129"/>
<text text-anchor="middle" x="715.77" y="-117" font-family="Helvetica,sans-Serif" font-size="10.00">response/ResponseBuilder.hpp</text>
</a>
</g>
</g>
<!-- Node1&#45;&gt;Node23 -->
<g id="edge41_Node000001_Node000023" class="edge">
<title>Node1&#45;&gt;Node23</title>
<g id="a_edge41_Node000001_Node000023"><a xlink:title=" ">
<path fill="none" stroke="#63b8ff" d="M996.16,-216.63C932.14,-194.68 796.7,-148.25 740.76,-129.07"/>
<polygon fill="#63b8ff" stroke="#63b8ff" points="995.2,-220 1005.79,-219.94 997.47,-213.38 995.2,-220"/>
</a>
</g>
</g>
<!-- Node25 -->
<g id="Node000025" class="node">
<title>Node25</title>
<g id="a_Node000025"><a xlink:href="HttpResponse_8cpp.html" target="_top" xlink:title=" ">
<polygon fill="white" stroke="#666666" points="1976.77,-184 1824.77,-184 1824.77,-165 1976.77,-165 1976.77,-184"/>
<text text-anchor="middle" x="1900.77" y="-172" font-family="Helvetica,sans-Serif" font-size="10.00">response/HttpResponse.cpp</text>
</a>
</g>
</g>
<!-- Node1&#45;&gt;Node25 -->
<g id="edge40_Node000001_Node000025" class="edge">
<title>Node1&#45;&gt;Node25</title>
<g id="a_edge40_Node000001_Node000025"><a xlink:title=" ">
<path fill="none" stroke="#63b8ff" d="M1117.61,-224.8C1262.45,-218.36 1562.44,-203.84 1815.77,-184 1818.58,-183.78 1821.44,-183.55 1824.33,-183.3"/>
<polygon fill="#63b8ff" stroke="#63b8ff" points="1117.29,-221.31 1107.46,-225.25 1117.6,-228.3 1117.29,-221.31"/>
</a>
</g>
</g>
<!-- Node3 -->
<g id="Node000003" class="node">
<title>Node3</title>
<g id="a_Node000003"><a xlink:href="AutoIndexHandler_8cpp.html" target="_top" xlink:title=" ">
<polygon fill="white" stroke="#666666" points="996.77,-74 818.77,-74 818.77,-55 996.77,-55 996.77,-74"/>
<text text-anchor="middle" x="907.77" y="-62" font-family="Helvetica,sans-Serif" font-size="10.00">dispatcher/AutoIndexHandler.cpp</text>
</a>
</g>
</g>
<!-- Node2&#45;&gt;Node3 -->
<g id="edge2_Node000002_Node000003" class="edge">
<title>Node2&#45;&gt;Node3</title>
<g id="a_edge2_Node000002_Node000003"><a xlink:title=" ">
<path fill="none" stroke="#63b8ff" d="M907.13,-99.66C907.3,-90.93 907.48,-80.99 907.61,-74.09"/>
<polygon fill="#63b8ff" stroke="#63b8ff" points="903.63,-99.68 906.94,-109.75 910.63,-99.82 903.63,-99.68"/>
</a>
</g>
</g>
<!-- Node4 -->
<g id="Node000004" class="node">
<title>Node4</title>
<g id="a_Node000004"><a xlink:href="Dispatcher_8cpp.html" target="_top" xlink:title=" ">
<polygon fill="white" stroke="#666666" points="1355.27,-74 1212.27,-74 1212.27,-55 1355.27,-55 1355.27,-74"/>
<text text-anchor="middle" x="1283.77" y="-62" font-family="Helvetica,sans-Serif" font-size="10.00">dispatcher/Dispatcher.cpp</text>
</a>
</g>
</g>
<!-- Node2&#45;&gt;Node4 -->
<g id="edge3_Node000002_Node000004" class="edge">
<title>Node2&#45;&gt;Node4</title>
<g id="a_edge3_Node000002_Node000004"><a xlink:title=" ">
<path fill="none" stroke="#63b8ff" d="M977.51,-108.56C1048.29,-98.61 1156.02,-83.46 1223.04,-74.04"/>
<polygon fill="#63b8ff" stroke="#63b8ff" points="976.76,-105.13 967.35,-109.98 977.74,-112.06 976.76,-105.13"/>
</a>
</g>
</g>
<!-- Node5&#45;&gt;Node4 -->
<g id="edge6_Node000005_Node000004" class="edge">
<title>Node5&#45;&gt;Node4</title>
<g id="a_edge6_Node000005_Node000004"><a xlink:title=" ">
<path fill="none" stroke="#63b8ff" d="M586.77,-112.53C599.17,-111.66 611.81,-110.8 623.77,-110 881.48,-92.88 946.41,-95.65 1203.77,-74 1206.56,-73.77 1209.4,-73.52 1212.26,-73.26"/>
<polygon fill="#63b8ff" stroke="#63b8ff" points="586.16,-109.06 576.43,-113.25 586.65,-116.04 586.16,-109.06"/>
</a>
</g>
</g>
<!-- Node6 -->
<g id="Node000006" class="node">
<title>Node6</title>
<g id="a_Node000006"><a xlink:href="CgiHandler_8cpp.html" target="_top" xlink:title=" ">
<polygon fill="white" stroke="#666666" points="421.77,-74 277.77,-74 277.77,-55 421.77,-55 421.77,-74"/>
<text text-anchor="middle" x="349.77" y="-62" font-family="Helvetica,sans-Serif" font-size="10.00">dispatcher/CgiHandler.cpp</text>
</a>
</g>
</g>
<!-- Node5&#45;&gt;Node6 -->
<g id="edge5_Node000005_Node000006" class="edge">
<title>Node5&#45;&gt;Node6</title>
<g id="a_edge5_Node000005_Node000006"><a xlink:title=" ">
<path fill="none" stroke="#63b8ff" d="M469.4,-106.67C440.68,-96.79 400.42,-82.93 374.71,-74.08"/>
<polygon fill="#63b8ff" stroke="#63b8ff" points="468.44,-110.04 479.03,-109.98 470.72,-103.42 468.44,-110.04"/>
</a>
</g>
</g>
<!-- Node7 -->
<g id="Node000007" class="node">
<title>Node7</title>
<g id="a_Node000007"><a xlink:href="WebServer_8hpp.html" target="_top" xlink:title=" ">
<polygon fill="white" stroke="#666666" points="259.77,-74 151.77,-74 151.77,-55 259.77,-55 259.77,-74"/>
<text text-anchor="middle" x="205.77" y="-62" font-family="Helvetica,sans-Serif" font-size="10.00">init/WebServer.hpp</text>
</a>
</g>
</g>
<!-- Node5&#45;&gt;Node7 -->
<g id="edge7_Node000005_Node000007" class="edge">
<title>Node5&#45;&gt;Node7</title>
<g id="a_edge7_Node000005_Node000007"><a xlink:title=" ">
<path fill="none" stroke="#63b8ff" d="M445.8,-108.19C389.93,-98.25 306.38,-83.39 254.03,-74.08"/>
<polygon fill="#63b8ff" stroke="#63b8ff" points="445.44,-111.68 455.9,-109.98 446.66,-104.79 445.44,-111.68"/>
</a>
</g>
</g>
<!-- Node8 -->
<g id="Node000008" class="node">
<title>Node8</title>
<g id="a_Node000008"><a xlink:href="WebServer_8cpp.html" target="_top" xlink:title=" ">
<polygon fill="white" stroke="#666666" points="844.27,-19 737.27,-19 737.27,0 844.27,0 844.27,-19"/>
<text text-anchor="middle" x="790.77" y="-7" font-family="Helvetica,sans-Serif" font-size="10.00">init/WebServer.cpp</text>
</a>
</g>
</g>
<!-- Node7&#45;&gt;Node8 -->
<g id="edge8_Node000007_Node000008" class="edge">
<title>Node7&#45;&gt;Node8</title>
<g id="a_edge8_Node000007_Node000008"><a xlink:title=" ">
<path fill="none" stroke="#63b8ff" d="M270.06,-54.91C446.91,-35.66 643.96,-20.82 736.96,-14.21"/>
<polygon fill="#63b8ff" stroke="#63b8ff" points="269.61,-51.44 260.05,-56.01 270.37,-58.4 269.61,-51.44"/>
</a>
</g>
</g>
<!-- Node9 -->
<g id="Node000009" class="node">
<title>Node9</title>
<g id="a_Node000009"><a xlink:href="main_8cpp.html" target="_top" xlink:title=" ">
<polygon fill="white" stroke="#666666" points="126.77,-19 64.77,-19 64.77,0 126.77,0 126.77,-19"/>
<text text-anchor="middle" x="95.77" y="-7" font-family="Helvetica,sans-Serif" font-size="10.00">main.cpp</text>
</a>
</g>
</g>
<!-- Node7&#45;&gt;Node9 -->
<g id="edge9_Node000007_Node000009" class="edge">
<title>Node7&#45;&gt;Node9</title>
<g id="a_edge9_Node000007_Node000009"><a xlink:title=" ">
<path fill="none" stroke="#63b8ff" d="M179.07,-50.63C158.81,-40.87 131.5,-27.71 113.77,-19.17"/>
<polygon fill="#63b8ff" stroke="#63b8ff" points="177.57,-53.8 188.1,-54.98 180.61,-47.49 177.57,-53.8"/>
</a>
</g>
</g>
<!-- Node10&#45;&gt;Node4 -->
<g id="edge12_Node000010_Node000004" class="edge">
<title>Node10&#45;&gt;Node4</title>
<g id="a_edge12_Node000010_Node000004"><a xlink:title=" ">
<path fill="none" stroke="#63b8ff" d="M1525.12,-154.43C1523.58,-140.16 1519.13,-121.25 1506.77,-110 1494.64,-98.95 1404.22,-83.49 1342.31,-74"/>
<polygon fill="#63b8ff" stroke="#63b8ff" points="1521.65,-154.9 1525.83,-164.64 1528.63,-154.42 1521.65,-154.9"/>
</a>
</g>
</g>
<!-- Node11 -->
<g id="Node000011" class="node">
<title>Node11</title>
<g id="a_Node000011"><a xlink:href="DeleteHandler_8cpp.html" target="_top" xlink:title=" ">
<polygon fill="white" stroke="#666666" points="1715.27,-129 1554.27,-129 1554.27,-110 1715.27,-110 1715.27,-129"/>
<text text-anchor="middle" x="1634.77" y="-117" font-family="Helvetica,sans-Serif" font-size="10.00">dispatcher/DeleteHandler.cpp</text>
</a>
</g>
</g>
<!-- Node10&#45;&gt;Node11 -->
<g id="edge11_Node000010_Node000011" class="edge">
<title>Node10&#45;&gt;Node11</title>
<g id="a_edge11_Node000010_Node000011"><a xlink:title=" ">
<path fill="none" stroke="#63b8ff" d="M1552.51,-160.5C1572.56,-150.75 1599.45,-137.68 1616.94,-129.17"/>
<polygon fill="#63b8ff" stroke="#63b8ff" points="1550.75,-157.46 1543.29,-164.98 1553.81,-163.76 1550.75,-157.46"/>
</a>
</g>
</g>
<!-- Node12&#45;&gt;Node4 -->
<g id="edge14_Node000012_Node000004" class="edge">
<title>Node12&#45;&gt;Node4</title>
<g id="a_edge14_Node000012_Node000004"><a xlink:title=" ">
<path fill="none" stroke="#63b8ff" d="M1143.43,-107.06C1176.88,-97.15 1224.52,-83.04 1254.79,-74.08"/>
<polygon fill="#63b8ff" stroke="#63b8ff" points="1142.13,-103.79 1133.53,-109.98 1144.12,-110.5 1142.13,-103.79"/>
</a>
</g>
</g>
<!-- Node13 -->
<g id="Node000013" class="node">
<title>Node13</title>
<g id="a_Node000013"><a xlink:href="StaticPageHandler_8cpp.html" target="_top" xlink:title=" ">
<polygon fill="white" stroke="#666666" points="1194.27,-74 1015.27,-74 1015.27,-55 1194.27,-55 1194.27,-74"/>
<text text-anchor="middle" x="1104.77" y="-62" font-family="Helvetica,sans-Serif" font-size="10.00">dispatcher/StaticPageHandler.cpp</text>
</a>
</g>
</g>
<!-- Node12&#45;&gt;Node13 -->
<g id="edge15_Node000012_Node000013" class="edge">
<title>Node12&#45;&gt;Node13</title>
<g id="a_edge15_Node000012_Node000013"><a xlink:title=" ">
<path fill="none" stroke="#63b8ff" d="M1104.77,-99.66C1104.77,-90.93 1104.77,-80.99 1104.77,-74.09"/>
<polygon fill="#63b8ff" stroke="#63b8ff" points="1101.28,-99.75 1104.77,-109.75 1108.28,-99.75 1101.28,-99.75"/>
</a>
</g>
</g>
<!-- Node14&#45;&gt;Node4 -->
<g id="edge17_Node000014_Node000004" class="edge">
<title>Node14&#45;&gt;Node4</title>
<g id="a_edge17_Node000014_Node000004"><a xlink:title=" ">
<path fill="none" stroke="#63b8ff" d="M1730.71,-155.19C1734.04,-141.07 1735.62,-121.99 1724.77,-110 1697.8,-80.19 1404.77,-78.1 1364.77,-74 1361.68,-73.68 1358.52,-73.36 1355.33,-73.03"/>
<polygon fill="#63b8ff" stroke="#63b8ff" points="1727.34,-154.25 1728,-164.83 1734.08,-156.15 1727.34,-154.25"/>
</a>
</g>
</g>
<!-- Node15 -->
<g id="Node000015" class="node">
<title>Node15</title>
<g id="a_Node000015"><a xlink:href="UploadHandler_8cpp.html" target="_top" xlink:title=" ">
<polygon fill="white" stroke="#666666" points="1935.27,-129 1772.27,-129 1772.27,-110 1935.27,-110 1935.27,-129"/>
<text text-anchor="middle" x="1853.77" y="-117" font-family="Helvetica,sans-Serif" font-size="10.00">dispatcher/UploadHandler.cpp</text>
</a>
</g>
</g>
<!-- Node14&#45;&gt;Node15 -->
<g id="edge18_Node000014_Node000015" class="edge">
<title>Node14&#45;&gt;Node15</title>
<g id="a_edge18_Node000014_Node000015"><a xlink:title=" ">
<path fill="none" stroke="#63b8ff" d="M1754.81,-161.16C1778.69,-151.35 1811.5,-137.87 1832.67,-129.17"/>
<polygon fill="#63b8ff" stroke="#63b8ff" points="1753.42,-157.95 1745.5,-164.98 1756.08,-164.42 1753.42,-157.95"/>
</a>
</g>
</g>
<!-- Node16&#45;&gt;Node5 -->
<g id="edge20_Node000016_Node000005" class="edge">
<title>Node16&#45;&gt;Node5</title>
<g id="a_edge20_Node000016_Node000005"><a xlink:title=" ">
<path fill="none" stroke="#63b8ff" d="M671.78,-162.5C632.08,-152.58 574.49,-138.18 538.1,-129.08"/>
<polygon fill="#63b8ff" stroke="#63b8ff" points="671.16,-165.95 681.71,-164.98 672.86,-159.16 671.16,-165.95"/>
</a>
</g>
</g>
<!-- Node17 -->
<g id="Node000017" class="node">
<title>Node17</title>
<g id="a_Node000017"><a xlink:href="Dispatcher_8hpp.html" target="_top" xlink:title=" ">
<polygon fill="white" stroke="#666666" points="1497.27,-129 1354.27,-129 1354.27,-110 1497.27,-110 1497.27,-129"/>
<text text-anchor="middle" x="1425.77" y="-117" font-family="Helvetica,sans-Serif" font-size="10.00">dispatcher/Dispatcher.hpp</text>
</a>
</g>
</g>
<!-- Node16&#45;&gt;Node17 -->
<g id="edge21_Node000016_Node000017" class="edge">
<title>Node16&#45;&gt;Node17</title>
<g id="a_edge21_Node000016_Node000017"><a xlink:title=" ">
<path fill="none" stroke="#63b8ff" d="M796.42,-168.72C916.32,-161.4 1148.64,-146.43 1345.77,-129 1348.56,-128.75 1351.39,-128.49 1354.26,-128.23"/>
<polygon fill="#63b8ff" stroke="#63b8ff" points="796,-165.24 786.23,-169.34 796.42,-172.22 796,-165.24"/>
</a>
</g>
</g>
<!-- Node18 -->
<g id="Node000018" class="node">
<title>Node18</title>
<g id="a_Node000018"><a xlink:href="Router_8hpp.html" target="_top" xlink:title=" ">
<polygon fill="white" stroke="#666666" points="1336.27,-129 1213.27,-129 1213.27,-110 1336.27,-110 1336.27,-129"/>
<text text-anchor="middle" x="1274.77" y="-117" font-family="Helvetica,sans-Serif" font-size="10.00">dispatcher/Router.hpp</text>
</a>
</g>
</g>
<!-- Node16&#45;&gt;Node18 -->
<g id="edge24_Node000016_Node000018" class="edge">
<title>Node16&#45;&gt;Node18</title>
<g id="a_edge24_Node000016_Node000018"><a xlink:title=" ">
<path fill="none" stroke="#63b8ff" d="M796.15,-166.87C892.93,-158.73 1060.37,-144.12 1203.77,-129 1206.86,-128.67 1210.02,-128.33 1213.21,-127.98"/>
<polygon fill="#63b8ff" stroke="#63b8ff" points="795.82,-163.39 786.14,-167.71 796.4,-170.36 795.82,-163.39"/>
</a>
</g>
</g>
<!-- Node20 -->
<g id="Node000020" class="node">
<title>Node20</title>
<g id="a_Node000020"><a xlink:href="ClientConnection_8cpp.html" target="_top" xlink:title=" ">
<polygon fill="white" stroke="#666666" points="579.27,-74 440.27,-74 440.27,-55 579.27,-55 579.27,-74"/>
<text text-anchor="middle" x="509.77" y="-62" font-family="Helvetica,sans-Serif" font-size="10.00">init/ClientConnection.cpp</text>
</a>
</g>
</g>
<!-- Node16&#45;&gt;Node20 -->
<g id="edge27_Node000016_Node000020" class="edge">
<title>Node16&#45;&gt;Node20</title>
<g id="a_edge27_Node000016_Node000020"><a xlink:title=" ">
<path fill="none" stroke="#63b8ff" d="M688.04,-160.6C669.68,-151.93 645.13,-140.1 623.77,-129 587.79,-110.3 546.39,-86.7 524.75,-74.2"/>
<polygon fill="#63b8ff" stroke="#63b8ff" points="686.75,-163.86 697.29,-164.94 689.73,-157.52 686.75,-163.86"/>
</a>
</g>
</g>
<!-- Node21 -->
<g id="Node000021" class="node">
<title>Node21</title>
<g id="a_Node000021"><a xlink:href="ServerSocket_8hpp.html" target="_top" xlink:title=" ">
<polygon fill="white" stroke="#666666" points="199.77,-129 79.77,-129 79.77,-110 199.77,-110 199.77,-129"/>
<text text-anchor="middle" x="139.77" y="-117" font-family="Helvetica,sans-Serif" font-size="10.00">init/ServerSocket.hpp</text>
</a>
</g>
</g>
<!-- Node16&#45;&gt;Node21 -->
<g id="edge28_Node000016_Node000021" class="edge">
<title>Node16&#45;&gt;Node21</title>
<g id="a_edge28_Node000016_Node000021"><a xlink:title=" ">
<path fill="none" stroke="#63b8ff" d="M635.42,-166.11C518.62,-155.36 304.54,-135.66 200.18,-126.06"/>
<polygon fill="#63b8ff" stroke="#63b8ff" points="635.44,-169.62 645.72,-167.05 636.08,-162.65 635.44,-169.62"/>
</a>
</g>
</g>
<!-- Node16&#45;&gt;Node23 -->
<g id="edge32_Node000016_Node000023" class="edge">
<title>Node16&#45;&gt;Node23</title>
<g id="a_edge32_Node000016_Node000023"><a xlink:title=" ">
<path fill="none" stroke="#63b8ff" d="M715.77,-154.66C715.77,-145.93 715.77,-135.99 715.77,-129.09"/>
<polygon fill="#63b8ff" stroke="#63b8ff" points="712.28,-154.75 715.77,-164.75 719.28,-154.75 712.28,-154.75"/>
</a>
</g>
</g>
<!-- Node17&#45;&gt;Node4 -->
<g id="edge22_Node000017_Node000004" class="edge">
<title>Node17&#45;&gt;Node4</title>
<g id="a_edge22_Node000017_Node000004"><a xlink:title=" ">
<path fill="none" stroke="#63b8ff" d="M1393.41,-106.42C1367.07,-96.59 1330.52,-82.95 1307,-74.17"/>
<polygon fill="#63b8ff" stroke="#63b8ff" points="1392.37,-109.77 1402.96,-109.98 1394.82,-103.21 1392.37,-109.77"/>
</a>
</g>
</g>
<!-- Node17&#45;&gt;Node8 -->
<g id="edge23_Node000017_Node000008" class="edge">
<title>Node17&#45;&gt;Node8</title>
<g id="a_edge23_Node000017_Node000008"><a xlink:title=" ">
<path fill="none" stroke="#63b8ff" d="M1460.94,-106.23C1489.98,-94.29 1523.61,-75.05 1504.77,-55 1482.22,-31 1006.81,-16.22 844.52,-11.86"/>
<polygon fill="#63b8ff" stroke="#63b8ff" points="1459.38,-103.09 1451.35,-110 1461.94,-109.6 1459.38,-103.09"/>
</a>
</g>
</g>
<!-- Node18&#45;&gt;Node4 -->
<g id="edge25_Node000018_Node000004" class="edge">
<title>Node18&#45;&gt;Node4</title>
<g id="a_edge25_Node000018_Node000004"><a xlink:title=" ">
<path fill="none" stroke="#63b8ff" d="M1277.97,-99.66C1279.46,-90.93 1281.14,-80.99 1282.32,-74.09"/>
<polygon fill="#63b8ff" stroke="#63b8ff" points="1274.48,-99.3 1276.26,-109.75 1281.39,-100.48 1274.48,-99.3"/>
</a>
</g>
</g>
<!-- Node19 -->
<g id="Node000019" class="node">
<title>Node19</title>
<g id="a_Node000019"><a xlink:href="Router_8cpp.html" target="_top" xlink:title=" ">
<polygon fill="white" stroke="#666666" points="1495.77,-74 1373.77,-74 1373.77,-55 1495.77,-55 1495.77,-74"/>
<text text-anchor="middle" x="1434.77" y="-62" font-family="Helvetica,sans-Serif" font-size="10.00">dispatcher/Router.cpp</text>
</a>
</g>
</g>
<!-- Node18&#45;&gt;Node19 -->
<g id="edge26_Node000018_Node000019" class="edge">
<title>Node18&#45;&gt;Node19</title>
<g id="a_edge26_Node000018_Node000019"><a xlink:title=" ">
<path fill="none" stroke="#63b8ff" d="M1310.1,-106.8C1339.96,-96.91 1382.04,-82.97 1408.87,-74.08"/>
<polygon fill="#63b8ff" stroke="#63b8ff" points="1308.87,-103.52 1300.48,-109.98 1311.08,-110.16 1308.87,-103.52"/>
</a>
</g>
</g>
<!-- Node21&#45;&gt;Node7 -->
<g id="edge30_Node000021_Node000007" class="edge">
<title>Node21&#45;&gt;Node7</title>
<g id="a_edge30_Node000021_Node000007"><a xlink:title=" ">
<path fill="none" stroke="#63b8ff" d="M158.33,-103.6C170.15,-94.11 185.06,-82.13 194.98,-74.17"/>
<polygon fill="#63b8ff" stroke="#63b8ff" points="155.98,-100.99 150.38,-109.98 160.37,-106.45 155.98,-100.99"/>
</a>
</g>
</g>
<!-- Node21&#45;&gt;Node9 -->
<g id="edge31_Node000021_Node000009" class="edge">
<title>Node21&#45;&gt;Node9</title>
<g id="a_edge31_Node000021_Node000009"><a xlink:title=" ">
<path fill="none" stroke="#63b8ff" d="M69.53,-112.09C44.99,-106.07 19.84,-94.83 4.77,-74 -14.25,-47.7 31.19,-28.51 64.48,-18.47"/>
<polygon fill="#63b8ff" stroke="#63b8ff" points="69.09,-115.57 79.61,-114.28 70.58,-108.73 69.09,-115.57"/>
</a>
</g>
</g>
<!-- Node22 -->
<g id="Node000022" class="node">
<title>Node22</title>
<g id="a_Node000022"><a xlink:href="ServerSocket_8cpp.html" target="_top" xlink:title=" ">
<polygon fill="white" stroke="#666666" points="133.27,-74 14.27,-74 14.27,-55 133.27,-55 133.27,-74"/>
<text text-anchor="middle" x="73.77" y="-62" font-family="Helvetica,sans-Serif" font-size="10.00">init/ServerSocket.cpp</text>
</a>
</g>
</g>
<!-- Node21&#45;&gt;Node22 -->
<g id="edge29_Node000021_Node000022" class="edge">
<title>Node21&#45;&gt;Node22</title>
<g id="a_edge29_Node000021_Node000022"><a xlink:title=" ">
<path fill="none" stroke="#63b8ff" d="M121.22,-103.6C109.4,-94.11 94.49,-82.13 84.57,-74.17"/>
<polygon fill="#63b8ff" stroke="#63b8ff" points="119.18,-106.45 129.17,-109.98 123.57,-100.99 119.18,-106.45"/>
</a>
</g>
</g>
<!-- Node23&#45;&gt;Node3 -->
<g id="edge33_Node000023_Node000003" class="edge">
<title>Node23&#45;&gt;Node3</title>
<g id="a_edge33_Node000023_Node000003"><a xlink:title=" ">
<path fill="none" stroke="#63b8ff" d="M756.31,-107.31C792.24,-97.39 843.94,-83.12 876.69,-74.08"/>
<polygon fill="#63b8ff" stroke="#63b8ff" points="755.33,-103.95 746.62,-109.98 757.19,-110.7 755.33,-103.95"/>
</a>
</g>
</g>
<!-- Node23&#45;&gt;Node4 -->
<g id="edge35_Node000023_Node000004" class="edge">
<title>Node23&#45;&gt;Node4</title>
<g id="a_edge35_Node000023_Node000004"><a xlink:title=" ">
<path fill="none" stroke="#63b8ff" d="M809.16,-109.88C985.45,-93.77 1031.16,-91.01 1203.77,-74 1206.55,-73.73 1209.39,-73.44 1212.25,-73.15"/>
<polygon fill="#63b8ff" stroke="#63b8ff" points="808.66,-106.41 799.02,-110.8 809.3,-113.38 808.66,-106.41"/>
</a>
</g>
</g>
<!-- Node23&#45;&gt;Node6 -->
<g id="edge34_Node000023_Node000006" class="edge">
<title>Node23&#45;&gt;Node6</title>
<g id="a_edge34_Node000023_Node000006"><a xlink:title=" ">
<path fill="none" stroke="#63b8ff" d="M646.68,-108.49C577.96,-98.54 473.67,-83.44 408.74,-74.04"/>
<polygon fill="#63b8ff" stroke="#63b8ff" points="646.57,-112.02 656.97,-109.98 647.58,-105.09 646.57,-112.02"/>
</a>
</g>
</g>
<!-- Node23&#45;&gt;Node8 -->
<g id="edge38_Node000023_Node000008" class="edge">
<title>Node23&#45;&gt;Node8</title>
<g id="a_edge38_Node000023_Node000008"><a xlink:title=" ">
<path fill="none" stroke="#63b8ff" d="M739.28,-104.16C750.22,-96.43 762.59,-86.02 770.77,-74 782.48,-56.8 787.62,-32.4 789.63,-19.42"/>
<polygon fill="#63b8ff" stroke="#63b8ff" points="737.28,-101.29 730.92,-109.76 741.18,-107.1 737.28,-101.29"/>
</a>
</g>
</g>
<!-- Node23&#45;&gt;Node13 -->
<g id="edge36_Node000023_Node000013" class="edge">
<title>Node23&#45;&gt;Node13</title>
<g id="a_edge36_Node000023_Node000013"><a xlink:title=" ">
<path fill="none" stroke="#63b8ff" d="M788.31,-108.62C861.34,-98.67 972.81,-83.48 1042.11,-74.04"/>
<polygon fill="#63b8ff" stroke="#63b8ff" points="787.71,-105.17 778.27,-109.98 788.66,-112.1 787.71,-105.17"/>
</a>
</g>
</g>
<!-- Node23&#45;&gt;Node20 -->
<g id="edge37_Node000023_Node000020" class="edge">
<title>Node23&#45;&gt;Node20</title>
<g id="a_edge37_Node000023_Node000020"><a xlink:title=" ">
<path fill="none" stroke="#63b8ff" d="M672.78,-107.44C634.21,-97.52 578.42,-83.16 543.13,-74.08"/>
<polygon fill="#63b8ff" stroke="#63b8ff" points="672.12,-110.88 682.68,-109.98 673.86,-104.1 672.12,-110.88"/>
</a>
</g>
</g>
<!-- Node24 -->
<g id="Node000024" class="node">
<title>Node24</title>
<g id="a_Node000024"><a xlink:href="ResponseBuilder_8cpp.html" target="_top" xlink:title=" ">
<polygon fill="white" stroke="#666666" points="762.27,-74 597.27,-74 597.27,-55 762.27,-55 762.27,-74"/>
<text text-anchor="middle" x="679.77" y="-62" font-family="Helvetica,sans-Serif" font-size="10.00">response/ResponseBuilder.cpp</text>
</a>
</g>
</g>
<!-- Node23&#45;&gt;Node24 -->
<g id="edge39_Node000023_Node000024" class="edge">
<title>Node23&#45;&gt;Node24</title>
<g id="a_edge39_Node000023_Node000024"><a xlink:title=" ">
<path fill="none" stroke="#63b8ff" d="M704.15,-101.39C697.96,-92.27 690.61,-81.45 685.61,-74.09"/>
<polygon fill="#63b8ff" stroke="#63b8ff" points="701.32,-103.44 709.83,-109.75 707.11,-99.51 701.32,-103.44"/>
</a>
</g>
</g>
</g>
</svg>

<g id="navigator" transform="translate(0 0)" fill="#404254">
  <rect fill="#f2f5e9" fill-opacity="0.5" stroke="#606060" stroke-width=".5" x="0" y="0" width="60" height="60"/>
  <use id="zoomplus" xlink:href="#zoomPlus" x="17" y="9" onmousedown="handleZoom(evt,'in')"/>
  <use id="zoomminus" xlink:href="#zoomMin" x="42" y="9" onmousedown="handleZoom(evt,'out')"/>
  <use id="reset" xlink:href="#resetDef" x="30" y="36" onmousedown="handleReset()"/>
   <use id="arrowup" xlink:href="#arrowUp" x="0" y="0" onmousedown="handlePan(0,-1)"/>
  <use id="arrowright" xlink:href="#arrowRight" x="0" y="0" onmousedown="handlePan(1,0)"/>
  <use id="arrowdown" xlink:href="#arrowDown" x="0" y="0" onmousedown="handlePan(0,1)"/>
  <use id="arrowleft" xlink:href="#arrowLeft" x="0" y="0" onmousedown="handlePan(-1,0)"/>
</g>
<svg viewBox="0 0 15 15" width="100%" height="30px" preserveAspectRatio="xMaxYMin meet">
 <g id="arrow_out" transform="scale(0.3 0.3)">
  <a xlink:href="HttpResponse_8hpp__dep__incl_org.svg" target="_base">
   <rect id="button" ry="5" rx="5" y="6" x="6" height="38" width="38"
        fill="#f2f5e9" fill-opacity="0.5" stroke="#606060" stroke-width="1.0"/>
   <path id="arrow"
     d="M 11.500037,31.436501 C 11.940474,20.09759 22.043105,11.32322 32.158766,21.979434 L 37.068811,17.246167 C 37.068811,17.246167 37.088388,32 37.088388,32 L 22.160133,31.978069 C 22.160133,31.978069 26.997745,27.140456 26.997745,27.140456 C 18.528582,18.264221 13.291696,25.230495 11.500037,31.436501 z"
     style="fill:#404040;"/>
  </a>
 </g>
</svg>

<style type='text/css'>
<![CDATA[
[data-mouse-over-selected='false'] { opacity: 0.7; }
[data-mouse-over-selected='true']  { opacity: 1.0; }
]]>
</style>
<script type="application/ecmascript"><![CDATA[
document.addEventListener('DOMContentLoaded', (event) => {
  highlightEdges();
  highlightAdjacentNodes();
});
]]></script>
</svg>
