<?xml version="1.0" encoding="UTF-8" standalone="no"?>
<!DOCTYPE svg PUBLIC "-//W3C//DTD SVG 1.1//EN"
 "http://www.w3.org/Graphics/SVG/1.1/DTD/svg11.dtd">
<!-- Generated by graphviz version 2.43.0 (0)
 -->
<!-- Title: request/HttpRequest.hpp Pages: 1 -->
<svg width="965pt" height="137pt"
 viewBox="0.00 0.00 964.95 137.00" xmlns="http://www.w3.org/2000/svg" xmlns:xlink="http://www.w3.org/1999/xlink">
<g id="graph0" class="graph" transform="scale(1 1) rotate(0) translate(4 133)">
<title>request/HttpRequest.hpp</title>
<!-- Node1 -->
<g id="Node000001" class="node">
<title>Node1</title>
<g id="a_Node000001"><a xlink:title=" ">
<polygon fill="#999999" stroke="#666666" points="368.45,-129 230.45,-129 230.45,-110 368.45,-110 368.45,-129"/>
<text text-anchor="middle" x="299.45" y="-117" font-family="Helvetica,sans-Serif" font-size="10.00">request/HttpRequest.hpp</text>
</a>
</g>
</g>
<!-- Node2 -->
<g id="Node000002" class="node">
<title>Node2</title>
<g id="a_Node000002"><a xlink:title=" ">
<polygon fill="#e0e0e0" stroke="#999999" points="207.45,-19 163.45,-19 163.45,0 207.45,0 207.45,-19"/>
<text text-anchor="middle" x="185.45" y="-7" font-family="Helvetica,sans-Serif" font-size="10.00">string</text>
</a>
</g>
</g>
<!-- Node1&#45;&gt;Node2 -->
<g id="edge1_Node000001_Node000002" class="edge">
<title>Node1&#45;&gt;Node2</title>
<g id="a_edge1_Node000001_Node000002"><a xlink:title=" ">
<path fill="none" stroke="#63b8ff" d="M230.19,-117.9C153.35,-115.58 36.46,-106.62 8.45,-74 -33.07,-25.65 91.64,-14.11 153.22,-11.36"/>
<polygon fill="#63b8ff" stroke="#63b8ff" points="153.37,-14.86 163.23,-10.97 153.1,-7.86 153.37,-14.86"/>
</a>
</g>
</g>
<!-- Node3 -->
<g id="Node000003" class="node">
<title>Node3</title>
<g id="a_Node000003"><a xlink:title=" ">
<polygon fill="#e0e0e0" stroke="#999999" points="55.45,-74 17.45,-74 17.45,-55 55.45,-55 55.45,-74"/>
<text text-anchor="middle" x="36.45" y="-62" font-family="Helvetica,sans-Serif" font-size="10.00">map</text>
</a>
</g>
</g>
<!-- Node1&#45;&gt;Node3 -->
<g id="edge2_Node000001_Node000003" class="edge">
<title>Node1&#45;&gt;Node3</title>
<g id="a_edge2_Node000001_Node000003"><a xlink:title=" ">
<path fill="none" stroke="#63b8ff" d="M245.42,-109.97C199.81,-102.38 132.6,-90.31 65.54,-74.06"/>
<polygon fill="#63b8ff" stroke="#63b8ff" points="66.2,-70.61 55.65,-71.63 64.53,-77.41 66.2,-70.61"/>
</a>
</g>
</g>
<!-- Node4 -->
<g id="Node000004" class="node">
<title>Node4</title>
<g id="a_Node000004"><a xlink:title=" ">
<polygon fill="#e0e0e0" stroke="#999999" points="120.95,-74 73.95,-74 73.95,-55 120.95,-55 120.95,-74"/>
<text text-anchor="middle" x="97.45" y="-62" font-family="Helvetica,sans-Serif" font-size="10.00">vector</text>
</a>
</g>
</g>
<!-- Node1&#45;&gt;Node4 -->
<g id="edge3_Node000001_Node000004" class="edge">
<title>Node1&#45;&gt;Node4</title>
<g id="a_edge3_Node000001_Node000004"><a xlink:title=" ">
<path fill="none" stroke="#63b8ff" d="M266.99,-109.98C229.68,-100.2 168.74,-84.21 130.98,-74.3"/>
<polygon fill="#63b8ff" stroke="#63b8ff" points="131.55,-70.83 120.99,-71.68 129.77,-77.6 131.55,-70.83"/>
</a>
</g>
</g>
<!-- Node5 -->
<g id="Node000005" class="node">
<title>Node5</title>
<g id="a_Node000005"><a xlink:href="RequestMethod_8hpp.html" target="_top" xlink:title=" ">
<polygon fill="white" stroke="#666666" points="293.45,-74 139.45,-74 139.45,-55 293.45,-55 293.45,-74"/>
<text text-anchor="middle" x="216.45" y="-62" font-family="Helvetica,sans-Serif" font-size="10.00">request/RequestMethod.hpp</text>
</a>
</g>
</g>
<!-- Node1&#45;&gt;Node5 -->
<g id="edge4_Node000001_Node000005" class="edge">
<title>Node1&#45;&gt;Node5</title>
<g id="a_edge4_Node000001_Node000005"><a xlink:title=" ">
<path fill="none" stroke="#63b8ff" d="M286.11,-109.98C273.36,-101.84 253.89,-89.41 238.78,-79.76"/>
<polygon fill="#63b8ff" stroke="#63b8ff" points="240.34,-76.6 230.02,-74.17 236.57,-82.5 240.34,-76.6"/>
</a>
</g>
</g>
<!-- Node6 -->
<g id="Node000006" class="node">
<title>Node6</title>
<g id="a_Node000006"><a xlink:href="RequestMeta_8hpp.html" target="_top" xlink:title=" ">
<polygon fill="white" stroke="#666666" points="453.45,-74 311.45,-74 311.45,-55 453.45,-55 453.45,-74"/>
<text text-anchor="middle" x="382.45" y="-62" font-family="Helvetica,sans-Serif" font-size="10.00">request/RequestMeta.hpp</text>
</a>
</g>
</g>
<!-- Node1&#45;&gt;Node6 -->
<g id="edge5_Node000001_Node000006" class="edge">
<title>Node1&#45;&gt;Node6</title>
<g id="a_edge5_Node000001_Node000006"><a xlink:title=" ">
<path fill="none" stroke="#63b8ff" d="M312.78,-109.98C325.53,-101.84 345,-89.41 360.12,-79.76"/>
<polygon fill="#63b8ff" stroke="#63b8ff" points="362.32,-82.5 368.87,-74.17 358.56,-76.6 362.32,-82.5"/>
</a>
</g>
</g>
<!-- Node7 -->
<g id="Node000007" class="node">
<title>Node7</title>
<g id="a_Node000007"><a xlink:href="RequestState_8hpp.html" target="_top" xlink:title=" ">
<polygon fill="white" stroke="#666666" points="614.95,-74 471.95,-74 471.95,-55 614.95,-55 614.95,-74"/>
<text text-anchor="middle" x="543.45" y="-62" font-family="Helvetica,sans-Serif" font-size="10.00">request/RequestState.hpp</text>
</a>
</g>
</g>
<!-- Node1&#45;&gt;Node7 -->
<g id="edge7_Node000001_Node000007" class="edge">
<title>Node1&#45;&gt;Node7</title>
<g id="a_edge7_Node000001_Node000007"><a xlink:title=" ">
<path fill="none" stroke="#63b8ff" d="M338.65,-109.98C380.86,-100.82 448.09,-86.21 493.93,-76.26"/>
<polygon fill="#63b8ff" stroke="#63b8ff" points="494.91,-79.63 503.94,-74.08 493.42,-72.78 494.91,-79.63"/>
</a>
</g>
</g>
<!-- Node8 -->
<g id="Node000008" class="node">
<title>Node8</title>
<g id="a_Node000008"><a xlink:href="ResponseStatus_8hpp.html" target="_top" xlink:title=" ">
<polygon fill="white" stroke="#666666" points="795.95,-74 632.95,-74 632.95,-55 795.95,-55 795.95,-74"/>
<text text-anchor="middle" x="714.45" y="-62" font-family="Helvetica,sans-Serif" font-size="10.00">response/ResponseStatus.hpp</text>
</a>
</g>
</g>
<!-- Node1&#45;&gt;Node8 -->
<g id="edge8_Node000001_Node000008" class="edge">
<title>Node1&#45;&gt;Node8</title>
<g id="a_edge8_Node000001_Node000008"><a xlink:title=" ">
<path fill="none" stroke="#63b8ff" d="M366.12,-109.98C440.13,-100.53 559.39,-85.3 637.35,-75.35"/>
<polygon fill="#63b8ff" stroke="#63b8ff" points="638.12,-78.78 647.59,-74.04 637.23,-71.83 638.12,-78.78"/>
</a>
</g>
</g>
<!-- Node9 -->
<g id="Node000009" class="node">
<title>Node9</title>
<g id="a_Node000009"><a xlink:href="RouteType_8hpp.html" target="_top" xlink:title=" ">
<polygon fill="white" stroke="#666666" points="956.95,-74 813.95,-74 813.95,-55 956.95,-55 956.95,-74"/>
<text text-anchor="middle" x="885.45" y="-62" font-family="Helvetica,sans-Serif" font-size="10.00">dispatcher/RouteType.hpp</text>
</a>
</g>
</g>
<!-- Node1&#45;&gt;Node9 -->
<g id="edge9_Node000001_Node000009" class="edge">
<title>Node1&#45;&gt;Node9</title>
<g id="a_edge9_Node000001_Node000009"><a xlink:title=" ">
<path fill="none" stroke="#63b8ff" d="M368.64,-112.81C464.13,-104.88 641.95,-89.78 803.78,-74.15"/>
<polygon fill="#63b8ff" stroke="#63b8ff" points="804.31,-77.61 813.92,-73.16 803.63,-70.65 804.31,-77.61"/>
</a>
</g>
</g>
<!-- Node6&#45;&gt;Node2 -->
<g id="edge6_Node000006_Node000002" class="edge">
<title>Node6&#45;&gt;Node2</title>
<g id="a_edge6_Node000006_Node000002"><a xlink:title=" ">
<path fill="none" stroke="#63b8ff" d="M350.79,-54.98C314.11,-45.12 254,-28.94 217.25,-19.06"/>
<polygon fill="#63b8ff" stroke="#63b8ff" points="218.11,-15.66 207.54,-16.45 216.29,-22.42 218.11,-15.66"/>
</a>
</g>
</g>
</g>
</svg>
