<?xml version="1.0" encoding="UTF-8" standalone="no"?>
<!DOCTYPE svg PUBLIC "-//W3C//DTD SVG 1.1//EN"
 "http://www.w3.org/Graphics/SVG/1.1/DTD/svg11.dtd">
<!-- Generated by graphviz version 2.43.0 (0)
 -->
<!-- Title: request/HttpRequest.hpp Pages: 1 -->
<!--zoomable 247 -->

<svg id="main" version="1.1" xmlns="http://www.w3.org/2000/svg" xmlns:xlink="http://www.w3.org/1999/xlink" xml:space="preserve" onload="init(evt)">
<style type="text/css"><![CDATA[
.node, .edge {opacity: 0.7;}
.node.selected, .edge.selected {opacity: 1;}
.edge:hover path { stroke: red; }
.edge:hover polygon { stroke: red; fill: red; }
]]></style>

<defs>
  <circle id="rim" cx="0" cy="0" r="7"/>
  <circle id="rim2" cx="0" cy="0" r="3.5"/>
  <g id="zoomPlus">
    <use xlink:href="#rim" fill="#404040"><set attributeName="fill" to="#808080" begin="zoomplus.mouseover" end="zoomplus.mouseout"/></use>
    <path d="M-4,0h8M0,-4v8" fill="none" stroke="white" stroke-width="1.5" pointer-events="none"/>
  </g>
  <g id="zoomMin">
    <use xlink:href="#rim" fill="#404040"><set attributeName="fill" to="#808080" begin="zoomminus.mouseover" end="zoomminus.mouseout"/></use>
    <path d="M-4,0h8" fill="none" stroke="white" stroke-width="1.5" pointer-events="none"/>
  </g>
  <g id="arrowUp" transform="translate(30 24)">
    <use xlink:href="#rim"/>
    <path pointer-events="none" fill="none" stroke="white" stroke-width="1.5" d="M0,-3.0v7 M-2.5,-0.5L0,-3.0L2.5,-0.5"/>
  </g>
  <g id="arrowRight" transform="rotate(90) translate(36 -43)">
    <use xlink:href="#rim"/>
    <path pointer-events="none" fill="none" stroke="white" stroke-width="1.5" d="M0,-3.0v7 M-2.5,-0.5L0,-3.0L2.5,-0.5"/>
  </g>
  <g id="arrowDown" transform="rotate(180) translate(-30 -48)">
    <use xlink:href="#rim"/>
    <path pointer-events="none" fill="none" stroke="white" stroke-width="1.5" d="M0,-3.0v7 M-2.5,-0.5L0,-3.0L2.5,-0.5"/>
  </g>
  <g id="arrowLeft" transform="rotate(270) translate(-36 17)">
    <use xlink:href="#rim"/>
    <path pointer-events="none" fill="none" stroke="white" stroke-width="1.5" d="M0,-3.0v7 M-2.5,-0.5L0,-3.0L2.5,-0.5"/>
  </g>
  <g id="resetDef">
    <use xlink:href="#rim2" fill="#404040"><set attributeName="fill" to="#808080" begin="reset.mouseover" end="reset.mouseout"/></use>
  </g>
</defs>
<script type="application/ecmascript">
var viewWidth = 1924;
var viewHeight = 247;
var sectionId = 'dynsection-1';
</script>
<script type="application/ecmascript" xlink:href="svg.min.js"/>
<svg id="graph" class="graph">
<g id="viewport">
<title>request/HttpRequest.hpp</title>
<!-- Node1 -->
<g id="Node000001" class="node">
<title>Node1</title>
<g id="a_Node000001"><a xlink:title=" ">
<polygon fill="#999999" stroke="#666666" points="1200.5,-239 1062.5,-239 1062.5,-220 1200.5,-220 1200.5,-239"/>
<text text-anchor="middle" x="1131.5" y="-227" font-family="Helvetica,sans-Serif" font-size="10.00">request/HttpRequest.hpp</text>
</a>
</g>
</g>
<!-- Node2 -->
<g id="Node000002" class="node">
<title>Node2</title>
<g id="a_Node000002"><a xlink:href="AutoIndexHandler_8hpp.html" target="_top" xlink:title=" ">
<polygon fill="white" stroke="#666666" points="179,-129 0,-129 0,-110 179,-110 179,-129"/>
<text text-anchor="middle" x="89.5" y="-117" font-family="Helvetica,sans-Serif" font-size="10.00">dispatcher/AutoIndexHandler.hpp</text>
</a>
</g>
</g>
<!-- Node1&#45;&gt;Node2 -->
<g id="edge1_Node000001_Node000002" class="edge">
<title>Node1&#45;&gt;Node2</title>
<g id="a_edge1_Node000001_Node000002"><a xlink:title=" ">
<path fill="none" stroke="#63b8ff" d="M1052.26,-226.75C872.87,-222.37 440.14,-209.46 296.5,-184 227.1,-171.7 148.32,-143.35 111.12,-129.06"/>
<polygon fill="#63b8ff" stroke="#63b8ff" points="1052.33,-230.25 1062.41,-226.99 1052.5,-223.25 1052.33,-230.25"/>
</a>
</g>
</g>
<!-- Node5 -->
<g id="Node000005" class="node">
<title>Node5</title>
<g id="a_Node000005"><a xlink:href="CgiHandler_8hpp.html" target="_top" xlink:title=" ">
<polygon fill="white" stroke="#666666" points="1465,-129 1320,-129 1320,-110 1465,-110 1465,-129"/>
<text text-anchor="middle" x="1392.5" y="-117" font-family="Helvetica,sans-Serif" font-size="10.00">dispatcher/CgiHandler.hpp</text>
</a>
</g>
</g>
<!-- Node1&#45;&gt;Node5 -->
<g id="edge4_Node000001_Node000005" class="edge">
<title>Node1&#45;&gt;Node5</title>
<g id="a_edge4_Node000001_Node000005"><a xlink:title=" ">
<path fill="none" stroke="#63b8ff" d="M1163.57,-216.2C1185.64,-207.57 1215.55,-195.55 1241.5,-184 1259.11,-176.16 1262.86,-172.79 1280.5,-165 1310.93,-151.56 1346.77,-137.65 1369.55,-129.04"/>
<polygon fill="#63b8ff" stroke="#63b8ff" points="1162.07,-213.03 1154.02,-219.91 1164.61,-219.55 1162.07,-213.03"/>
</a>
</g>
</g>
<!-- Node10 -->
<g id="Node000010" class="node">
<title>Node10</title>
<g id="a_Node000010"><a xlink:href="DeleteHandler_8hpp.html" target="_top" xlink:title=" ">
<polygon fill="white" stroke="#666666" points="467,-184 306,-184 306,-165 467,-165 467,-184"/>
<text text-anchor="middle" x="386.5" y="-172" font-family="Helvetica,sans-Serif" font-size="10.00">dispatcher/DeleteHandler.hpp</text>
</a>
</g>
</g>
<!-- Node1&#45;&gt;Node10 -->
<g id="edge10_Node000001_Node000010" class="edge">
<title>Node1&#45;&gt;Node10</title>
<g id="a_edge10_Node000001_Node000010"><a xlink:title=" ">
<path fill="none" stroke="#63b8ff" d="M1052.42,-222.87C909.73,-212.72 610.72,-191.45 467,-181.23"/>
<polygon fill="#63b8ff" stroke="#63b8ff" points="1052.19,-226.37 1062.41,-223.59 1052.69,-219.38 1052.19,-226.37"/>
</a>
</g>
</g>
<!-- Node12 -->
<g id="Node000012" class="node">
<title>Node12</title>
<g id="a_Node000012"><a xlink:href="StaticPageHandler_8hpp.html" target="_top" xlink:title=" ">
<polygon fill="white" stroke="#666666" points="1117.5,-129 937.5,-129 937.5,-110 1117.5,-110 1117.5,-129"/>
<text text-anchor="middle" x="1027.5" y="-117" font-family="Helvetica,sans-Serif" font-size="10.00">dispatcher/StaticPageHandler.hpp</text>
</a>
</g>
</g>
<!-- Node1&#45;&gt;Node12 -->
<g id="edge13_Node000001_Node000012" class="edge">
<title>Node1&#45;&gt;Node12</title>
<g id="a_edge13_Node000001_Node000012"><a xlink:title=" ">
<path fill="none" stroke="#63b8ff" d="M1114.17,-213.2C1104.86,-204.8 1093.32,-194.07 1083.5,-184 1065.23,-165.27 1045.29,-141.89 1034.84,-129.38"/>
<polygon fill="#63b8ff" stroke="#63b8ff" points="1111.88,-215.85 1121.67,-219.91 1116.55,-210.64 1111.88,-215.85"/>
</a>
</g>
</g>
<!-- Node14 -->
<g id="Node000014" class="node">
<title>Node14</title>
<g id="a_Node000014"><a xlink:href="UploadHandler_8hpp.html" target="_top" xlink:title=" ">
<polygon fill="white" stroke="#666666" points="849.5,-184 685.5,-184 685.5,-165 849.5,-165 849.5,-184"/>
<text text-anchor="middle" x="767.5" y="-172" font-family="Helvetica,sans-Serif" font-size="10.00">dispatcher/UploadHandler.hpp</text>
</a>
</g>
</g>
<!-- Node1&#45;&gt;Node14 -->
<g id="edge16_Node000001_Node000014" class="edge">
<title>Node1&#45;&gt;Node14</title>
<g id="a_edge16_Node000001_Node000014"><a xlink:title=" ">
<path fill="none" stroke="#63b8ff" d="M1062.78,-218.49C994.44,-208.54 890.72,-193.44 826.14,-184.04"/>
<polygon fill="#63b8ff" stroke="#63b8ff" points="1062.62,-222.01 1073.02,-219.98 1063.63,-215.08 1062.62,-222.01"/>
</a>
</g>
</g>
<!-- Node16 -->
<g id="Node000016" class="node">
<title>Node16</title>
<g id="a_Node000016"><a xlink:href="ClientConnection_8hpp.html" target="_top" xlink:title=" ">
<polygon fill="white" stroke="#666666" points="1232.5,-184 1092.5,-184 1092.5,-165 1232.5,-165 1232.5,-184"/>
<text text-anchor="middle" x="1162.5" y="-172" font-family="Helvetica,sans-Serif" font-size="10.00">init/ClientConnection.hpp</text>
</a>
</g>
</g>
<!-- Node1&#45;&gt;Node16 -->
<g id="edge19_Node000001_Node000016" class="edge">
<title>Node1&#45;&gt;Node16</title>
<g id="a_edge19_Node000001_Node000016"><a xlink:title=" ">
<path fill="none" stroke="#63b8ff" d="M1141.68,-211.1C1146.97,-202.04 1153.22,-191.37 1157.48,-184.09"/>
<polygon fill="#63b8ff" stroke="#63b8ff" points="1138.65,-209.35 1136.62,-219.75 1144.69,-212.88 1138.65,-209.35"/>
</a>
</g>
</g>
<!-- Node25 -->
<g id="Node000025" class="node">
<title>Node25</title>
<g id="a_Node000025"><a xlink:href="HttpRequest_8cpp.html" target="_top" xlink:title=" ">
<polygon fill="white" stroke="#666666" points="1426,-184 1289,-184 1289,-165 1426,-165 1426,-184"/>
<text text-anchor="middle" x="1357.5" y="-172" font-family="Helvetica,sans-Serif" font-size="10.00">request/HttpRequest.cpp</text>
</a>
</g>
</g>
<!-- Node1&#45;&gt;Node25 -->
<g id="edge40_Node000001_Node000025" class="edge">
<title>Node1&#45;&gt;Node25</title>
<g id="a_edge40_Node000001_Node000025"><a xlink:title=" ">
<path fill="none" stroke="#63b8ff" d="M1177.59,-217.69C1219.94,-207.76 1281.86,-193.24 1320.9,-184.08"/>
<polygon fill="#63b8ff" stroke="#63b8ff" points="1176.75,-214.29 1167.81,-219.98 1178.35,-221.11 1176.75,-214.29"/>
</a>
</g>
</g>
<!-- Node26 -->
<g id="Node000026" class="node">
<title>Node26</title>
<g id="a_Node000026"><a xlink:href="RequestParse_8hpp.html" target="_top" xlink:title=" ">
<polygon fill="white" stroke="#666666" points="1624,-184 1481,-184 1481,-165 1624,-165 1624,-184"/>
<text text-anchor="middle" x="1552.5" y="-172" font-family="Helvetica,sans-Serif" font-size="10.00">request/RequestParse.hpp</text>
</a>
</g>
</g>
<!-- Node1&#45;&gt;Node26 -->
<g id="edge41_Node000001_Node000026" class="edge">
<title>Node1&#45;&gt;Node26</title>
<g id="a_edge41_Node000001_Node000026"><a xlink:title=" ">
<path fill="none" stroke="#63b8ff" d="M1209.52,-218.68C1288.54,-208.73 1409.53,-193.5 1484.68,-184.04"/>
<polygon fill="#63b8ff" stroke="#63b8ff" points="1208.63,-215.26 1199.14,-219.98 1209.5,-222.21 1208.63,-215.26"/>
</a>
</g>
</g>
<!-- Node3 -->
<g id="Node000003" class="node">
<title>Node3</title>
<g id="a_Node000003"><a xlink:href="AutoIndexHandler_8cpp.html" target="_top" xlink:title=" ">
<polygon fill="white" stroke="#666666" points="361.5,-74 183.5,-74 183.5,-55 361.5,-55 361.5,-74"/>
<text text-anchor="middle" x="272.5" y="-62" font-family="Helvetica,sans-Serif" font-size="10.00">dispatcher/AutoIndexHandler.cpp</text>
</a>
</g>
</g>
<!-- Node2&#45;&gt;Node3 -->
<g id="edge2_Node000002_Node000003" class="edge">
<title>Node2&#45;&gt;Node3</title>
<g id="a_edge2_Node000002_Node000003"><a xlink:title=" ">
<path fill="none" stroke="#63b8ff" d="M128.57,-107.18C162.8,-97.27 211.79,-83.08 242.87,-74.08"/>
<polygon fill="#63b8ff" stroke="#63b8ff" points="127.53,-103.84 118.9,-109.98 129.48,-110.56 127.53,-103.84"/>
</a>
</g>
</g>
<!-- Node4 -->
<g id="Node000004" class="node">
<title>Node4</title>
<g id="a_Node000004"><a xlink:href="Dispatcher_8cpp.html" target="_top" xlink:title=" ">
<polygon fill="white" stroke="#666666" points="743,-74 600,-74 600,-55 743,-55 743,-74"/>
<text text-anchor="middle" x="671.5" y="-62" font-family="Helvetica,sans-Serif" font-size="10.00">dispatcher/Dispatcher.cpp</text>
</a>
</g>
</g>
<!-- Node2&#45;&gt;Node4 -->
<g id="edge3_Node000002_Node000004" class="edge">
<title>Node2&#45;&gt;Node4</title>
<g id="a_edge3_Node000002_Node000004"><a xlink:title=" ">
<path fill="none" stroke="#63b8ff" d="M189.18,-109.42C305.93,-98.79 496.47,-81.44 599.65,-72.04"/>
<polygon fill="#63b8ff" stroke="#63b8ff" points="188.8,-105.94 179.16,-110.33 189.44,-112.91 188.8,-105.94"/>
</a>
</g>
</g>
<!-- Node5&#45;&gt;Node4 -->
<g id="edge6_Node000005_Node000004" class="edge">
<title>Node5&#45;&gt;Node4</title>
<g id="a_edge6_Node000005_Node000004"><a xlink:title=" ">
<path fill="none" stroke="#63b8ff" d="M1309.58,-109.96C1061.17,-89.33 996.86,-94.7 752.5,-74 749.4,-73.74 746.24,-73.46 743.04,-73.16"/>
<polygon fill="#63b8ff" stroke="#63b8ff" points="1309.38,-113.45 1319.64,-110.8 1309.96,-106.48 1309.38,-113.45"/>
</a>
</g>
</g>
<!-- Node6 -->
<g id="Node000006" class="node">
<title>Node6</title>
<g id="a_Node000006"><a xlink:href="CgiHandler_8cpp.html" target="_top" xlink:title=" ">
<polygon fill="white" stroke="#666666" points="1464.5,-74 1320.5,-74 1320.5,-55 1464.5,-55 1464.5,-74"/>
<text text-anchor="middle" x="1392.5" y="-62" font-family="Helvetica,sans-Serif" font-size="10.00">dispatcher/CgiHandler.cpp</text>
</a>
</g>
</g>
<!-- Node5&#45;&gt;Node6 -->
<g id="edge5_Node000005_Node000006" class="edge">
<title>Node5&#45;&gt;Node6</title>
<g id="a_edge5_Node000005_Node000006"><a xlink:title=" ">
<path fill="none" stroke="#63b8ff" d="M1392.5,-99.66C1392.5,-90.93 1392.5,-80.99 1392.5,-74.09"/>
<polygon fill="#63b8ff" stroke="#63b8ff" points="1389,-99.75 1392.5,-109.75 1396,-99.75 1389,-99.75"/>
</a>
</g>
</g>
<!-- Node7 -->
<g id="Node000007" class="node">
<title>Node7</title>
<g id="a_Node000007"><a xlink:href="WebServer_8hpp.html" target="_top" xlink:title=" ">
<polygon fill="white" stroke="#666666" points="1748.5,-74 1640.5,-74 1640.5,-55 1748.5,-55 1748.5,-74"/>
<text text-anchor="middle" x="1694.5" y="-62" font-family="Helvetica,sans-Serif" font-size="10.00">init/WebServer.hpp</text>
</a>
</g>
</g>
<!-- Node5&#45;&gt;Node7 -->
<g id="edge7_Node000005_Node000007" class="edge">
<title>Node5&#45;&gt;Node7</title>
<g id="a_edge7_Node000005_Node000007"><a xlink:title=" ">
<path fill="none" stroke="#63b8ff" d="M1450.92,-108.25C1507.63,-98.3 1592.71,-83.36 1645.85,-74.04"/>
<polygon fill="#63b8ff" stroke="#63b8ff" points="1450.27,-104.81 1441.02,-109.98 1451.48,-111.7 1450.27,-104.81"/>
</a>
</g>
</g>
<!-- Node8 -->
<g id="Node000008" class="node">
<title>Node8</title>
<g id="a_Node000008"><a xlink:href="WebServer_8cpp.html" target="_top" xlink:title=" ">
<polygon fill="white" stroke="#666666" points="1346,-19 1239,-19 1239,0 1346,0 1346,-19"/>
<text text-anchor="middle" x="1292.5" y="-7" font-family="Helvetica,sans-Serif" font-size="10.00">init/WebServer.cpp</text>
</a>
</g>
</g>
<!-- Node7&#45;&gt;Node8 -->
<g id="edge8_Node000007_Node000008" class="edge">
<title>Node7&#45;&gt;Node8</title>
<g id="a_edge8_Node000007_Node000008"><a xlink:title=" ">
<path fill="none" stroke="#63b8ff" d="M1630.24,-54.84C1523.66,-40.66 1411.06,-25.94 1346.23,-17.49"/>
<polygon fill="#63b8ff" stroke="#63b8ff" points="1629.83,-58.31 1640.21,-56.16 1630.75,-51.37 1629.83,-58.31"/>
</a>
</g>
</g>
<!-- Node9 -->
<g id="Node000009" class="node">
<title>Node9</title>
<g id="a_Node000009"><a xlink:href="main_8cpp.html" target="_top" xlink:title=" ">
<polygon fill="white" stroke="#666666" points="1835.5,-19 1773.5,-19 1773.5,0 1835.5,0 1835.5,-19"/>
<text text-anchor="middle" x="1804.5" y="-7" font-family="Helvetica,sans-Serif" font-size="10.00">main.cpp</text>
</a>
</g>
</g>
<!-- Node7&#45;&gt;Node9 -->
<g id="edge9_Node000007_Node000009" class="edge">
<title>Node7&#45;&gt;Node9</title>
<g id="a_edge9_Node000007_Node000009"><a xlink:title=" ">
<path fill="none" stroke="#63b8ff" d="M1721.2,-50.63C1741.47,-40.87 1768.77,-27.71 1786.51,-19.17"/>
<polygon fill="#63b8ff" stroke="#63b8ff" points="1719.66,-47.49 1712.17,-54.98 1722.7,-53.8 1719.66,-47.49"/>
</a>
</g>
</g>
<!-- Node10&#45;&gt;Node4 -->
<g id="edge12_Node000010_Node000004" class="edge">
<title>Node10&#45;&gt;Node4</title>
<g id="a_edge12_Node000010_Node000004"><a xlink:title=" ">
<path fill="none" stroke="#63b8ff" d="M387.06,-154.32C388.54,-139.99 392.97,-121.05 405.5,-110 433.68,-85.14 531.08,-73.96 599.83,-69.08"/>
<polygon fill="#63b8ff" stroke="#63b8ff" points="383.54,-154.38 386.4,-164.58 390.53,-154.83 383.54,-154.38"/>
</a>
</g>
</g>
<!-- Node11 -->
<g id="Node000011" class="node">
<title>Node11</title>
<g id="a_Node000011"><a xlink:href="DeleteHandler_8cpp.html" target="_top" xlink:title=" ">
<polygon fill="white" stroke="#666666" points="358,-129 197,-129 197,-110 358,-110 358,-129"/>
<text text-anchor="middle" x="277.5" y="-117" font-family="Helvetica,sans-Serif" font-size="10.00">dispatcher/DeleteHandler.cpp</text>
</a>
</g>
</g>
<!-- Node10&#45;&gt;Node11 -->
<g id="edge11_Node000010_Node000011" class="edge">
<title>Node10&#45;&gt;Node11</title>
<g id="a_edge11_Node000010_Node000011"><a xlink:title=" ">
<path fill="none" stroke="#63b8ff" d="M359.77,-160.5C339.71,-150.75 312.82,-137.68 295.33,-129.17"/>
<polygon fill="#63b8ff" stroke="#63b8ff" points="358.46,-163.76 368.99,-164.98 361.52,-157.46 358.46,-163.76"/>
</a>
</g>
</g>
<!-- Node12&#45;&gt;Node4 -->
<g id="edge14_Node000012_Node000004" class="edge">
<title>Node12&#45;&gt;Node4</title>
<g id="a_edge14_Node000012_Node000004"><a xlink:title=" ">
<path fill="none" stroke="#63b8ff" d="M960.29,-108.49C893.45,-98.54 792.01,-83.44 728.85,-74.04"/>
<polygon fill="#63b8ff" stroke="#63b8ff" points="959.9,-111.97 970.3,-109.98 960.93,-105.05 959.9,-111.97"/>
</a>
</g>
</g>
<!-- Node13 -->
<g id="Node000013" class="node">
<title>Node13</title>
<g id="a_Node000013"><a xlink:href="StaticPageHandler_8cpp.html" target="_top" xlink:title=" ">
<polygon fill="white" stroke="#666666" points="1081,-74 902,-74 902,-55 1081,-55 1081,-74"/>
<text text-anchor="middle" x="991.5" y="-62" font-family="Helvetica,sans-Serif" font-size="10.00">dispatcher/StaticPageHandler.cpp</text>
</a>
</g>
</g>
<!-- Node12&#45;&gt;Node13 -->
<g id="edge15_Node000012_Node000013" class="edge">
<title>Node12&#45;&gt;Node13</title>
<g id="a_edge15_Node000012_Node000013"><a xlink:title=" ">
<path fill="none" stroke="#63b8ff" d="M1015.88,-101.39C1009.68,-92.27 1002.33,-81.45 997.33,-74.09"/>
<polygon fill="#63b8ff" stroke="#63b8ff" points="1013.04,-103.44 1021.56,-109.75 1018.83,-99.51 1013.04,-103.44"/>
</a>
</g>
</g>
<!-- Node14&#45;&gt;Node4 -->
<g id="edge17_Node000014_Node000004" class="edge">
<title>Node14&#45;&gt;Node4</title>
<g id="a_edge17_Node000014_Node000004"><a xlink:title=" ">
<path fill="none" stroke="#63b8ff" d="M765.59,-154.62C763.38,-141 758.64,-122.84 748.5,-110 735,-92.92 713.01,-81.15 695.98,-74.03"/>
<polygon fill="#63b8ff" stroke="#63b8ff" points="762.15,-155.3 766.91,-164.77 769.09,-154.4 762.15,-155.3"/>
</a>
</g>
</g>
<!-- Node15 -->
<g id="Node000015" class="node">
<title>Node15</title>
<g id="a_Node000015"><a xlink:href="UploadHandler_8cpp.html" target="_top" xlink:title=" ">
<polygon fill="white" stroke="#666666" points="578,-129 415,-129 415,-110 578,-110 578,-129"/>
<text text-anchor="middle" x="496.5" y="-117" font-family="Helvetica,sans-Serif" font-size="10.00">dispatcher/UploadHandler.cpp</text>
</a>
</g>
</g>
<!-- Node14&#45;&gt;Node15 -->
<g id="edge18_Node000014_Node000015" class="edge">
<title>Node14&#45;&gt;Node15</title>
<g id="a_edge18_Node000014_Node000015"><a xlink:title=" ">
<path fill="none" stroke="#63b8ff" d="M714.14,-163.07C663.34,-153.13 587.79,-138.35 540.38,-129.08"/>
<polygon fill="#63b8ff" stroke="#63b8ff" points="713.47,-166.5 723.96,-164.98 714.82,-159.63 713.47,-166.5"/>
</a>
</g>
</g>
<!-- Node16&#45;&gt;Node5 -->
<g id="edge20_Node000016_Node000005" class="edge">
<title>Node16&#45;&gt;Node5</title>
<g id="a_edge20_Node000016_Node000005"><a xlink:title=" ">
<path fill="none" stroke="#63b8ff" d="M1209.41,-162.69C1252.5,-152.76 1315.53,-138.24 1355.26,-129.08"/>
<polygon fill="#63b8ff" stroke="#63b8ff" points="1208.41,-159.33 1199.45,-164.98 1209.98,-166.15 1208.41,-159.33"/>
</a>
</g>
</g>
<!-- Node17 -->
<g id="Node000017" class="node">
<title>Node17</title>
<g id="a_Node000017"><a xlink:href="Dispatcher_8hpp.html" target="_top" xlink:title=" ">
<polygon fill="white" stroke="#666666" points="739,-129 596,-129 596,-110 739,-110 739,-129"/>
<text text-anchor="middle" x="667.5" y="-117" font-family="Helvetica,sans-Serif" font-size="10.00">dispatcher/Dispatcher.hpp</text>
</a>
</g>
</g>
<!-- Node16&#45;&gt;Node17 -->
<g id="edge21_Node000016_Node000017" class="edge">
<title>Node16&#45;&gt;Node17</title>
<g id="a_edge21_Node000016_Node000017"><a xlink:title=" ">
<path fill="none" stroke="#63b8ff" d="M1082.23,-164.91C987.24,-154.74 830.49,-137.95 739.34,-128.19"/>
<polygon fill="#63b8ff" stroke="#63b8ff" points="1082.05,-168.41 1092.37,-165.99 1082.8,-161.45 1082.05,-168.41"/>
</a>
</g>
</g>
<!-- Node18 -->
<g id="Node000018" class="node">
<title>Node18</title>
<g id="a_Node000018"><a xlink:href="Router_8hpp.html" target="_top" xlink:title=" ">
<polygon fill="white" stroke="#666666" points="919,-129 796,-129 796,-110 919,-110 919,-129"/>
<text text-anchor="middle" x="857.5" y="-117" font-family="Helvetica,sans-Serif" font-size="10.00">dispatcher/Router.hpp</text>
</a>
</g>
</g>
<!-- Node16&#45;&gt;Node18 -->
<g id="edge24_Node000016_Node000018" class="edge">
<title>Node16&#45;&gt;Node18</title>
<g id="a_edge24_Node000016_Node000018"><a xlink:title=" ">
<path fill="none" stroke="#63b8ff" d="M1103.5,-163.25C1046.23,-153.3 960.3,-138.36 906.63,-129.04"/>
<polygon fill="#63b8ff" stroke="#63b8ff" points="1103.04,-166.72 1113.5,-164.98 1104.24,-159.82 1103.04,-166.72"/>
</a>
</g>
</g>
<!-- Node20 -->
<g id="Node000020" class="node">
<title>Node20</title>
<g id="a_Node000020"><a xlink:href="ClientConnection_8cpp.html" target="_top" xlink:title=" ">
<polygon fill="white" stroke="#666666" points="1622,-74 1483,-74 1483,-55 1622,-55 1622,-74"/>
<text text-anchor="middle" x="1552.5" y="-62" font-family="Helvetica,sans-Serif" font-size="10.00">init/ClientConnection.cpp</text>
</a>
</g>
</g>
<!-- Node16&#45;&gt;Node20 -->
<g id="edge27_Node000016_Node000020" class="edge">
<title>Node16&#45;&gt;Node20</title>
<g id="a_edge27_Node000016_Node000020"><a xlink:title=" ">
<path fill="none" stroke="#63b8ff" d="M1243.16,-166.93C1321.46,-159.67 1434.2,-146.63 1474.5,-129 1504.25,-115.98 1531.95,-88.36 1544.87,-74.23"/>
<polygon fill="#63b8ff" stroke="#63b8ff" points="1242.47,-163.48 1232.83,-167.87 1243.11,-170.45 1242.47,-163.48"/>
</a>
</g>
</g>
<!-- Node21 -->
<g id="Node000021" class="node">
<title>Node21</title>
<g id="a_Node000021"><a xlink:href="ServerSocket_8hpp.html" target="_top" xlink:title=" ">
<polygon fill="white" stroke="#666666" points="1754.5,-129 1634.5,-129 1634.5,-110 1754.5,-110 1754.5,-129"/>
<text text-anchor="middle" x="1694.5" y="-117" font-family="Helvetica,sans-Serif" font-size="10.00">init/ServerSocket.hpp</text>
</a>
</g>
</g>
<!-- Node16&#45;&gt;Node21 -->
<g id="edge28_Node000016_Node000021" class="edge">
<title>Node16&#45;&gt;Node21</title>
<g id="a_edge28_Node000016_Node000021"><a xlink:title=" ">
<path fill="none" stroke="#63b8ff" d="M1242.73,-165.51C1350.06,-154.81 1537.99,-136.09 1634.12,-126.51"/>
<polygon fill="#63b8ff" stroke="#63b8ff" points="1242.2,-162.04 1232.6,-166.52 1242.89,-169.01 1242.2,-162.04"/>
</a>
</g>
</g>
<!-- Node23 -->
<g id="Node000023" class="node">
<title>Node23</title>
<g id="a_Node000023"><a xlink:href="ResponseBuilder_8hpp.html" target="_top" xlink:title=" ">
<polygon fill="white" stroke="#666666" points="1301.5,-129 1135.5,-129 1135.5,-110 1301.5,-110 1301.5,-129"/>
<text text-anchor="middle" x="1218.5" y="-117" font-family="Helvetica,sans-Serif" font-size="10.00">response/ResponseBuilder.hpp</text>
</a>
</g>
</g>
<!-- Node16&#45;&gt;Node23 -->
<g id="edge32_Node000016_Node000023" class="edge">
<title>Node16&#45;&gt;Node23</title>
<g id="a_edge32_Node000016_Node000023"><a xlink:title=" ">
<path fill="none" stroke="#63b8ff" d="M1178.83,-158.04C1188.76,-148.64 1201.09,-136.98 1209.34,-129.17"/>
<polygon fill="#63b8ff" stroke="#63b8ff" points="1176.35,-155.57 1171.5,-164.98 1181.17,-160.65 1176.35,-155.57"/>
</a>
</g>
</g>
<!-- Node17&#45;&gt;Node4 -->
<g id="edge22_Node000017_Node000004" class="edge">
<title>Node17&#45;&gt;Node4</title>
<g id="a_edge22_Node000017_Node000004"><a xlink:title=" ">
<path fill="none" stroke="#63b8ff" d="M668.92,-99.66C669.58,-90.93 670.33,-80.99 670.85,-74.09"/>
<polygon fill="#63b8ff" stroke="#63b8ff" points="665.42,-99.51 668.16,-109.75 672.4,-100.04 665.42,-99.51"/>
</a>
</g>
</g>
<!-- Node17&#45;&gt;Node8 -->
<g id="edge23_Node000017_Node000008" class="edge">
<title>Node17&#45;&gt;Node8</title>
<g id="a_edge23_Node000017_Node000008"><a xlink:title=" ">
<path fill="none" stroke="#63b8ff" d="M633.79,-106.13C605.7,-94.05 573.05,-74.66 591.5,-55 613.59,-31.46 1078.74,-16.42 1238.89,-11.92"/>
<polygon fill="#63b8ff" stroke="#63b8ff" points="632.47,-109.38 643.05,-109.94 635.13,-102.9 632.47,-109.38"/>
</a>
</g>
</g>
<!-- Node18&#45;&gt;Node4 -->
<g id="edge25_Node000018_Node000004" class="edge">
<title>Node18&#45;&gt;Node4</title>
<g id="a_edge25_Node000018_Node000004"><a xlink:title=" ">
<path fill="none" stroke="#63b8ff" d="M817.79,-107.18C783,-97.27 733.21,-83.08 701.62,-74.08"/>
<polygon fill="#63b8ff" stroke="#63b8ff" points="817.04,-110.61 827.62,-109.98 818.96,-103.88 817.04,-110.61"/>
</a>
</g>
</g>
<!-- Node19 -->
<g id="Node000019" class="node">
<title>Node19</title>
<g id="a_Node000019"><a xlink:href="Router_8cpp.html" target="_top" xlink:title=" ">
<polygon fill="white" stroke="#666666" points="883.5,-74 761.5,-74 761.5,-55 883.5,-55 883.5,-74"/>
<text text-anchor="middle" x="822.5" y="-62" font-family="Helvetica,sans-Serif" font-size="10.00">dispatcher/Router.cpp</text>
</a>
</g>
</g>
<!-- Node18&#45;&gt;Node19 -->
<g id="edge26_Node000018_Node000019" class="edge">
<title>Node18&#45;&gt;Node19</title>
<g id="a_edge26_Node000018_Node000019"><a xlink:title=" ">
<path fill="none" stroke="#63b8ff" d="M846.2,-101.39C840.18,-92.27 833.03,-81.45 828.17,-74.09"/>
<polygon fill="#63b8ff" stroke="#63b8ff" points="843.29,-103.33 851.72,-109.75 849.13,-99.47 843.29,-103.33"/>
</a>
</g>
</g>
<!-- Node21&#45;&gt;Node7 -->
<g id="edge30_Node000021_Node000007" class="edge">
<title>Node21&#45;&gt;Node7</title>
<g id="a_edge30_Node000021_Node000007"><a xlink:title=" ">
<path fill="none" stroke="#63b8ff" d="M1694.5,-99.66C1694.5,-90.93 1694.5,-80.99 1694.5,-74.09"/>
<polygon fill="#63b8ff" stroke="#63b8ff" points="1691,-99.75 1694.5,-109.75 1698,-99.75 1691,-99.75"/>
</a>
</g>
</g>
<!-- Node21&#45;&gt;Node9 -->
<g id="edge31_Node000021_Node000009" class="edge">
<title>Node21&#45;&gt;Node9</title>
<g id="a_edge31_Node000021_Node000009"><a xlink:title=" ">
<path fill="none" stroke="#63b8ff" d="M1759.27,-108.29C1814.67,-98.9 1886.81,-84.82 1895.5,-74 1915.94,-48.54 1869.42,-28.95 1835.65,-18.63"/>
<polygon fill="#63b8ff" stroke="#63b8ff" points="1758.42,-104.88 1749.14,-109.99 1759.58,-111.79 1758.42,-104.88"/>
</a>
</g>
</g>
<!-- Node22 -->
<g id="Node000022" class="node">
<title>Node22</title>
<g id="a_Node000022"><a xlink:href="ServerSocket_8cpp.html" target="_top" xlink:title=" ">
<polygon fill="white" stroke="#666666" points="1886,-74 1767,-74 1767,-55 1886,-55 1886,-74"/>
<text text-anchor="middle" x="1826.5" y="-62" font-family="Helvetica,sans-Serif" font-size="10.00">init/ServerSocket.cpp</text>
</a>
</g>
</g>
<!-- Node21&#45;&gt;Node22 -->
<g id="edge29_Node000021_Node000022" class="edge">
<title>Node21&#45;&gt;Node22</title>
<g id="a_edge29_Node000021_Node000022"><a xlink:title=" ">
<path fill="none" stroke="#63b8ff" d="M1725.23,-106.16C1749.67,-96.35 1783.24,-82.87 1804.91,-74.17"/>
<polygon fill="#63b8ff" stroke="#63b8ff" points="1723.68,-103.01 1715.71,-109.98 1726.29,-109.51 1723.68,-103.01"/>
</a>
</g>
</g>
<!-- Node23&#45;&gt;Node3 -->
<g id="edge33_Node000023_Node000003" class="edge">
<title>Node23&#45;&gt;Node3</title>
<g id="a_edge33_Node000023_Node000003"><a xlink:title=" ">
<path fill="none" stroke="#63b8ff" d="M1125.14,-109.93C840.02,-89.53 515.34,-75.21 361.71,-68.97"/>
<polygon fill="#63b8ff" stroke="#63b8ff" points="1125.04,-113.43 1135.27,-110.66 1125.54,-106.45 1125.04,-113.43"/>
</a>
</g>
</g>
<!-- Node23&#45;&gt;Node4 -->
<g id="edge35_Node000023_Node000004" class="edge">
<title>Node23&#45;&gt;Node4</title>
<g id="a_edge35_Node000023_Node000004"><a xlink:title=" ">
<path fill="none" stroke="#63b8ff" d="M1125.08,-109.84C1030.97,-101.05 881.63,-86.94 752.5,-74 749.4,-73.69 746.24,-73.37 743.05,-73.04"/>
<polygon fill="#63b8ff" stroke="#63b8ff" points="1124.86,-113.33 1135.14,-110.78 1125.51,-106.36 1124.86,-113.33"/>
</a>
</g>
</g>
<!-- Node23&#45;&gt;Node6 -->
<g id="edge34_Node000023_Node000006" class="edge">
<title>Node23&#45;&gt;Node6</title>
<g id="a_edge34_Node000023_Node000006"><a xlink:title=" ">
<path fill="none" stroke="#63b8ff" d="M1256.07,-107.06C1288.59,-97.15 1334.9,-83.04 1364.32,-74.08"/>
<polygon fill="#63b8ff" stroke="#63b8ff" points="1255,-103.72 1246.46,-109.98 1257.04,-110.42 1255,-103.72"/>
</a>
</g>
</g>
<!-- Node23&#45;&gt;Node8 -->
<g id="edge38_Node000023_Node000008" class="edge">
<title>Node23&#45;&gt;Node8</title>
<g id="a_edge38_Node000023_Node000008"><a xlink:title=" ">
<path fill="none" stroke="#63b8ff" d="M1242.08,-104.21C1253.04,-96.5 1265.4,-86.07 1273.5,-74 1285.03,-56.8 1289.74,-32.39 1291.52,-19.42"/>
<polygon fill="#63b8ff" stroke="#63b8ff" points="1240.08,-101.34 1233.7,-109.8 1243.96,-107.16 1240.08,-101.34"/>
</a>
</g>
</g>
<!-- Node23&#45;&gt;Node13 -->
<g id="edge36_Node000023_Node000013" class="edge">
<title>Node23&#45;&gt;Node13</title>
<g id="a_edge36_Node000023_Node000013"><a xlink:title=" ">
<path fill="none" stroke="#63b8ff" d="M1172.2,-107.69C1129.67,-97.76 1067.47,-83.24 1028.26,-74.08"/>
<polygon fill="#63b8ff" stroke="#63b8ff" points="1171.49,-111.12 1182.03,-109.98 1173.09,-104.3 1171.49,-111.12"/>
</a>
</g>
</g>
<!-- Node23&#45;&gt;Node20 -->
<g id="edge37_Node000023_Node000020" class="edge">
<title>Node23&#45;&gt;Node20</title>
<g id="a_edge37_Node000023_Node000020"><a xlink:title=" ">
<path fill="none" stroke="#63b8ff" d="M1282.33,-108.37C1345.05,-98.42 1439.68,-83.4 1498.69,-74.04"/>
<polygon fill="#63b8ff" stroke="#63b8ff" points="1281.49,-104.96 1272.16,-109.98 1282.59,-111.87 1281.49,-104.96"/>
</a>
</g>
</g>
<!-- Node24 -->
<g id="Node000024" class="node">
<title>Node24</title>
<g id="a_Node000024"><a xlink:href="ResponseBuilder_8cpp.html" target="_top" xlink:title=" ">
<polygon fill="white" stroke="#666666" points="1264,-74 1099,-74 1099,-55 1264,-55 1264,-74"/>
<text text-anchor="middle" x="1181.5" y="-62" font-family="Helvetica,sans-Serif" font-size="10.00">response/ResponseBuilder.cpp</text>
</a>
</g>
</g>
<!-- Node23&#45;&gt;Node24 -->
<g id="edge39_Node000023_Node000024" class="edge">
<title>Node23&#45;&gt;Node24</title>
<g id="a_edge39_Node000023_Node000024"><a xlink:title=" ">
<path fill="none" stroke="#63b8ff" d="M1206.55,-101.39C1200.19,-92.27 1192.63,-81.45 1187.5,-74.09"/>
<polygon fill="#63b8ff" stroke="#63b8ff" points="1203.8,-103.55 1212.39,-109.75 1209.54,-99.55 1203.8,-103.55"/>
</a>
</g>
</g>
<!-- Node26&#45;&gt;Node20 -->
<g id="edge42_Node000026_Node000020" class="edge">
<title>Node26&#45;&gt;Node20</title>
<g id="a_edge42_Node000026_Node000020"><a xlink:title=" ">
<path fill="none" stroke="#63b8ff" d="M1552.5,-154.48C1552.5,-130.84 1552.5,-91.5 1552.5,-74.16"/>
<polygon fill="#63b8ff" stroke="#63b8ff" points="1549,-154.66 1552.5,-164.66 1556,-154.66 1549,-154.66"/>
</a>
</g>
</g>
<!-- Node27 -->
<g id="Node000027" class="node">
<title>Node27</title>
<g id="a_Node000027"><a xlink:href="RequestParse_8cpp.html" target="_top" xlink:title=" ">
<polygon fill="white" stroke="#666666" points="1916,-129 1773,-129 1773,-110 1916,-110 1916,-129"/>
<text text-anchor="middle" x="1844.5" y="-117" font-family="Helvetica,sans-Serif" font-size="10.00">request/RequestParse.cpp</text>
</a>
</g>
</g>
<!-- Node26&#45;&gt;Node27 -->
<g id="edge43_Node000026_Node000027" class="edge">
<title>Node26&#45;&gt;Node27</title>
<g id="a_edge43_Node000026_Node000027"><a xlink:title=" ">
<path fill="none" stroke="#63b8ff" d="M1609.31,-163.19C1664.05,-153.25 1745.92,-138.39 1797.22,-129.08"/>
<polygon fill="#63b8ff" stroke="#63b8ff" points="1608.63,-159.75 1599.41,-164.98 1609.88,-166.64 1608.63,-159.75"/>
</a>
</g>
</g>
</g>
</svg>

<g id="navigator" transform="translate(0 0)" fill="#404254">
  <rect fill="#f2f5e9" fill-opacity="0.5" stroke="#606060" stroke-width=".5" x="0" y="0" width="60" height="60"/>
  <use id="zoomplus" xlink:href="#zoomPlus" x="17" y="9" onmousedown="handleZoom(evt,'in')"/>
  <use id="zoomminus" xlink:href="#zoomMin" x="42" y="9" onmousedown="handleZoom(evt,'out')"/>
  <use id="reset" xlink:href="#resetDef" x="30" y="36" onmousedown="handleReset()"/>
   <use id="arrowup" xlink:href="#arrowUp" x="0" y="0" onmousedown="handlePan(0,-1)"/>
  <use id="arrowright" xlink:href="#arrowRight" x="0" y="0" onmousedown="handlePan(1,0)"/>
  <use id="arrowdown" xlink:href="#arrowDown" x="0" y="0" onmousedown="handlePan(0,1)"/>
  <use id="arrowleft" xlink:href="#arrowLeft" x="0" y="0" onmousedown="handlePan(-1,0)"/>
</g>
<svg viewBox="0 0 15 15" width="100%" height="30px" preserveAspectRatio="xMaxYMin meet">
 <g id="arrow_out" transform="scale(0.3 0.3)">
  <a xlink:href="HttpRequest_8hpp__dep__incl_org.svg" target="_base">
   <rect id="button" ry="5" rx="5" y="6" x="6" height="38" width="38"
        fill="#f2f5e9" fill-opacity="0.5" stroke="#606060" stroke-width="1.0"/>
   <path id="arrow"
     d="M 11.500037,31.436501 C 11.940474,20.09759 22.043105,11.32322 32.158766,21.979434 L 37.068811,17.246167 C 37.068811,17.246167 37.088388,32 37.088388,32 L 22.160133,31.978069 C 22.160133,31.978069 26.997745,27.140456 26.997745,27.140456 C 18.528582,18.264221 13.291696,25.230495 11.500037,31.436501 z"
     style="fill:#404040;"/>
  </a>
 </g>
</svg>

<style type='text/css'>
<![CDATA[
[data-mouse-over-selected='false'] { opacity: 0.7; }
[data-mouse-over-selected='true']  { opacity: 1.0; }
]]>
</style>
<script type="application/ecmascript"><![CDATA[
document.addEventListener('DOMContentLoaded', (event) => {
  highlightEdges();
  highlightAdjacentNodes();
});
]]></script>
</svg>
