<?xml version="1.0" encoding="UTF-8" standalone="no"?>
<!DOCTYPE svg PUBLIC "-//W3C//DTD SVG 1.1//EN"
 "http://www.w3.org/Graphics/SVG/1.1/DTD/svg11.dtd">
<!-- Generated by graphviz version 2.43.0 (0)
 -->
<!-- Title: config/LocationConfig.hpp Pages: 1 -->
<svg width="1809pt" height="247pt"
 viewBox="0.00 0.00 1808.94 247.00" xmlns="http://www.w3.org/2000/svg" xmlns:xlink="http://www.w3.org/1999/xlink">
<g id="graph0" class="graph" transform="scale(1 1) rotate(0) translate(4 243)">
<title>config/LocationConfig.hpp</title>
<!-- Node1 -->
<g id="Node000001" class="node">
<title>Node1</title>
<g id="a_Node000001"><a xlink:title=" ">
<polygon fill="#999999" stroke="#666666" points="909.5,-239 767.5,-239 767.5,-220 909.5,-220 909.5,-239"/>
<text text-anchor="middle" x="838.5" y="-227" font-family="Helvetica,sans-Serif" font-size="10.00">config/LocationConfig.hpp</text>
</a>
</g>
</g>
<!-- Node2 -->
<g id="Node000002" class="node">
<title>Node2</title>
<g id="a_Node000002"><a xlink:href="LocationConfig_8cpp.html" target="_top" xlink:title=" ">
<polygon fill="white" stroke="#666666" points="141,-184 0,-184 0,-165 141,-165 141,-184"/>
<text text-anchor="middle" x="70.5" y="-172" font-family="Helvetica,sans-Serif" font-size="10.00">config/LocationConfig.cpp</text>
</a>
</g>
</g>
<!-- Node1&#45;&gt;Node2 -->
<g id="edge1_Node000001_Node000002" class="edge">
<title>Node1&#45;&gt;Node2</title>
<g id="a_edge1_Node000001_Node000002"><a xlink:title=" ">
<path fill="none" stroke="#63b8ff" d="M757.03,-224.11C628.91,-216.99 372.56,-201.92 155.5,-184 150.92,-183.62 146.2,-183.21 141.44,-182.78"/>
<polygon fill="#63b8ff" stroke="#63b8ff" points="756.97,-227.61 767.15,-224.67 757.36,-220.62 756.97,-227.61"/>
</a>
</g>
</g>
<!-- Node3 -->
<g id="Node000003" class="node">
<title>Node3</title>
<g id="a_Node000003"><a xlink:href="ServerConfig_8cpp.html" target="_top" xlink:title=" ">
<polygon fill="white" stroke="#666666" points="329,-129 198,-129 198,-110 329,-110 329,-129"/>
<text text-anchor="middle" x="263.5" y="-117" font-family="Helvetica,sans-Serif" font-size="10.00">config/ServerConfig.cpp</text>
</a>
</g>
</g>
<!-- Node1&#45;&gt;Node3 -->
<g id="edge2_Node000001_Node000003" class="edge">
<title>Node1&#45;&gt;Node3</title>
<g id="a_edge2_Node000001_Node000003"><a xlink:title=" ">
<path fill="none" stroke="#63b8ff" d="M783.04,-218.08C669.72,-196.8 413.54,-148.68 309.1,-129.07"/>
<polygon fill="#63b8ff" stroke="#63b8ff" points="782.43,-221.53 792.9,-219.94 783.72,-214.65 782.43,-221.53"/>
</a>
</g>
</g>
<!-- Node4 -->
<g id="Node000004" class="node">
<title>Node4</title>
<g id="a_Node000004"><a xlink:href="ServerConfig_8hpp.html" target="_top" xlink:title=" ">
<polygon fill="white" stroke="#666666" points="779.5,-184 647.5,-184 647.5,-165 779.5,-165 779.5,-184"/>
<text text-anchor="middle" x="713.5" y="-172" font-family="Helvetica,sans-Serif" font-size="10.00">config/ServerConfig.hpp</text>
</a>
</g>
</g>
<!-- Node1&#45;&gt;Node4 -->
<g id="edge3_Node000001_Node000004" class="edge">
<title>Node1&#45;&gt;Node4</title>
<g id="a_edge3_Node000001_Node000004"><a xlink:title=" ">
<path fill="none" stroke="#63b8ff" d="M809.09,-216.03C785.97,-206.23 754.37,-192.83 733.95,-184.17"/>
<polygon fill="#63b8ff" stroke="#63b8ff" points="807.84,-219.3 818.42,-219.98 810.58,-212.86 807.84,-219.3"/>
</a>
</g>
</g>
<!-- Node12 -->
<g id="Node000012" class="node">
<title>Node12</title>
<g id="a_Node000012"><a xlink:href="Dispatcher_8cpp.html" target="_top" xlink:title=" ">
<polygon fill="white" stroke="#666666" points="1786,-74 1643,-74 1643,-55 1786,-55 1786,-74"/>
<text text-anchor="middle" x="1714.5" y="-62" font-family="Helvetica,sans-Serif" font-size="10.00">dispatcher/Dispatcher.cpp</text>
</a>
</g>
</g>
<!-- Node1&#45;&gt;Node12 -->
<g id="edge32_Node000001_Node000012" class="edge">
<title>Node1&#45;&gt;Node12</title>
<g id="a_edge32_Node000001_Node000012"><a xlink:title=" ">
<path fill="none" stroke="#63b8ff" d="M919.88,-227.25C1022.1,-224.36 1202.4,-214.89 1353.5,-184 1486.95,-156.71 1640,-96.34 1694.2,-74.02"/>
<polygon fill="#63b8ff" stroke="#63b8ff" points="919.53,-223.76 909.63,-227.53 919.72,-230.76 919.53,-223.76"/>
</a>
</g>
</g>
<!-- Node15 -->
<g id="Node000015" class="node">
<title>Node15</title>
<g id="a_Node000015"><a xlink:href="RequestParse_8cpp.html" target="_top" xlink:title=" ">
<polygon fill="white" stroke="#666666" points="259,-74 116,-74 116,-55 259,-55 259,-74"/>
<text text-anchor="middle" x="187.5" y="-62" font-family="Helvetica,sans-Serif" font-size="10.00">request/RequestParse.cpp</text>
</a>
</g>
</g>
<!-- Node1&#45;&gt;Node15 -->
<g id="edge39_Node000001_Node000015" class="edge">
<title>Node1&#45;&gt;Node15</title>
<g id="a_edge39_Node000001_Node000015"><a xlink:title=" ">
<path fill="none" stroke="#63b8ff" d="M757.35,-228.63C599.66,-226.96 260.95,-213.39 188.5,-129 175.28,-113.61 180.55,-87.54 184.56,-74.09"/>
<polygon fill="#63b8ff" stroke="#63b8ff" points="757.44,-232.13 767.47,-228.72 757.5,-225.13 757.44,-232.13"/>
</a>
</g>
</g>
<!-- Node18 -->
<g id="Node000018" class="node">
<title>Node18</title>
<g id="a_Node000018"><a xlink:href="ResponseBuilder_8hpp.html" target="_top" xlink:title=" ">
<polygon fill="white" stroke="#666666" points="1165.5,-129 999.5,-129 999.5,-110 1165.5,-110 1165.5,-129"/>
<text text-anchor="middle" x="1082.5" y="-117" font-family="Helvetica,sans-Serif" font-size="10.00">response/ResponseBuilder.hpp</text>
</a>
</g>
</g>
<!-- Node1&#45;&gt;Node18 -->
<g id="edge40_Node000001_Node000018" class="edge">
<title>Node1&#45;&gt;Node18</title>
<g id="a_edge40_Node000001_Node000018"><a xlink:title=" ">
<path fill="none" stroke="#63b8ff" d="M867.41,-215.71C917.81,-193.4 1020.48,-147.95 1063.19,-129.05"/>
<polygon fill="#63b8ff" stroke="#63b8ff" points="865.78,-212.6 858.06,-219.84 868.62,-219 865.78,-212.6"/>
</a>
</g>
</g>
<!-- Node23 -->
<g id="Node000023" class="node">
<title>Node23</title>
<g id="a_Node000023"><a xlink:href="Dispatcher_8hpp.html" target="_top" xlink:title=" ">
<polygon fill="white" stroke="#666666" points="1786,-129 1643,-129 1643,-110 1786,-110 1786,-129"/>
<text text-anchor="middle" x="1714.5" y="-117" font-family="Helvetica,sans-Serif" font-size="10.00">dispatcher/Dispatcher.hpp</text>
</a>
</g>
</g>
<!-- Node1&#45;&gt;Node23 -->
<g id="edge33_Node000001_Node000023" class="edge">
<title>Node1&#45;&gt;Node23</title>
<g id="a_edge33_Node000001_Node000023"><a xlink:title=" ">
<path fill="none" stroke="#63b8ff" d="M919.83,-227.41C1085.14,-224.58 1455.05,-214.89 1577.5,-184 1625.29,-171.95 1676.77,-143.35 1700.75,-129.01"/>
<polygon fill="#63b8ff" stroke="#63b8ff" points="919.66,-223.91 909.72,-227.58 919.78,-230.91 919.66,-223.91"/>
</a>
</g>
</g>
<!-- Node24 -->
<g id="Node000024" class="node">
<title>Node24</title>
<g id="a_Node000024"><a xlink:href="Router_8hpp.html" target="_top" xlink:title=" ">
<polygon fill="white" stroke="#666666" points="1344,-184 1221,-184 1221,-165 1344,-165 1344,-184"/>
<text text-anchor="middle" x="1282.5" y="-172" font-family="Helvetica,sans-Serif" font-size="10.00">dispatcher/Router.hpp</text>
</a>
</g>
</g>
<!-- Node1&#45;&gt;Node24 -->
<g id="edge36_Node000001_Node000024" class="edge">
<title>Node1&#45;&gt;Node24</title>
<g id="a_edge36_Node000001_Node000024"><a xlink:title=" ">
<path fill="none" stroke="#63b8ff" d="M919.92,-218.78C1006.84,-208.41 1142.6,-192.2 1221,-182.84"/>
<polygon fill="#63b8ff" stroke="#63b8ff" points="919.35,-215.32 909.84,-219.98 920.18,-222.27 919.35,-215.32"/>
</a>
</g>
</g>
<!-- Node4&#45;&gt;Node3 -->
<g id="edge15_Node000004_Node000003" class="edge">
<title>Node4&#45;&gt;Node3</title>
<g id="a_edge15_Node000004_Node000003"><a xlink:title=" ">
<path fill="none" stroke="#63b8ff" d="M637.07,-164.5C550.51,-154.3 410.88,-137.86 329.07,-128.22"/>
<polygon fill="#63b8ff" stroke="#63b8ff" points="636.76,-167.99 647.1,-165.68 637.58,-161.03 636.76,-167.99"/>
</a>
</g>
</g>
<!-- Node5 -->
<g id="Node000005" class="node">
<title>Node5</title>
<g id="a_Node000005"><a xlink:href="Config_8hpp.html" target="_top" xlink:title=" ">
<polygon fill="white" stroke="#666666" points="725,-129 624,-129 624,-110 725,-110 725,-129"/>
<text text-anchor="middle" x="674.5" y="-117" font-family="Helvetica,sans-Serif" font-size="10.00">config/Config.hpp</text>
</a>
</g>
</g>
<!-- Node4&#45;&gt;Node5 -->
<g id="edge4_Node000004_Node000005" class="edge">
<title>Node4&#45;&gt;Node5</title>
<g id="a_edge4_Node000004_Node000005"><a xlink:title=" ">
<path fill="none" stroke="#63b8ff" d="M701.12,-156.67C694.36,-147.5 686.29,-136.52 680.82,-129.09"/>
<polygon fill="#63b8ff" stroke="#63b8ff" points="698.31,-158.77 707.06,-164.75 703.95,-154.62 698.31,-158.77"/>
</a>
</g>
</g>
<!-- Node7 -->
<g id="Node000007" class="node">
<title>Node7</title>
<g id="a_Node000007"><a xlink:href="ConfigParser_8hpp.html" target="_top" xlink:title=" ">
<polygon fill="white" stroke="#666666" points="407.5,-74 277.5,-74 277.5,-55 407.5,-55 407.5,-74"/>
<text text-anchor="middle" x="342.5" y="-62" font-family="Helvetica,sans-Serif" font-size="10.00">config/ConfigParser.hpp</text>
</a>
</g>
</g>
<!-- Node4&#45;&gt;Node7 -->
<g id="edge14_Node000004_Node000007" class="edge">
<title>Node4&#45;&gt;Node7</title>
<g id="a_edge14_Node000004_Node000007"><a xlink:title=" ">
<path fill="none" stroke="#63b8ff" d="M684.68,-160.83C664.87,-152.05 638.01,-140.01 614.5,-129 597.04,-120.82 593.8,-116.08 575.5,-110 520.3,-91.64 455.08,-80 407.7,-73.24"/>
<polygon fill="#63b8ff" stroke="#63b8ff" points="683.51,-164.14 694.07,-164.98 686.34,-157.73 683.51,-164.14"/>
</a>
</g>
</g>
<!-- Node8 -->
<g id="Node000008" class="node">
<title>Node8</title>
<g id="a_Node000008"><a xlink:href="ConfigParser_8cpp.html" target="_top" xlink:title=" ">
<polygon fill="white" stroke="#666666" points="280,-19 151,-19 151,0 280,0 280,-19"/>
<text text-anchor="middle" x="215.5" y="-7" font-family="Helvetica,sans-Serif" font-size="10.00">config/ConfigParser.cpp</text>
</a>
</g>
</g>
<!-- Node4&#45;&gt;Node8 -->
<g id="edge13_Node000004_Node000008" class="edge">
<title>Node4&#45;&gt;Node8</title>
<g id="a_edge13_Node000004_Node000008"><a xlink:title=" ">
<path fill="none" stroke="#63b8ff" d="M637.22,-166.96C551.87,-159.05 419.3,-144.81 371.5,-129 355.07,-123.56 353.86,-115.64 337.5,-110 288.39,-93.06 140.29,-113.46 106.5,-74 83.5,-47.13 132.9,-28.89 172.5,-19.09"/>
<polygon fill="#63b8ff" stroke="#63b8ff" points="637.11,-170.47 647.39,-167.9 637.75,-163.5 637.11,-170.47"/>
</a>
</g>
</g>
<!-- Node10 -->
<g id="Node000010" class="node">
<title>Node10</title>
<g id="a_Node000010"><a xlink:href="WebServer_8hpp.html" target="_top" xlink:title=" ">
<polygon fill="white" stroke="#666666" points="847.5,-74 739.5,-74 739.5,-55 847.5,-55 847.5,-74"/>
<text text-anchor="middle" x="793.5" y="-62" font-family="Helvetica,sans-Serif" font-size="10.00">init/WebServer.hpp</text>
</a>
</g>
</g>
<!-- Node4&#45;&gt;Node10 -->
<g id="edge19_Node000004_Node000010" class="edge">
<title>Node4&#45;&gt;Node10</title>
<g id="a_edge19_Node000004_Node000010"><a xlink:title=" ">
<path fill="none" stroke="#63b8ff" d="M726.18,-156.38C743.5,-133.01 773.89,-91.97 787.09,-74.16"/>
<polygon fill="#63b8ff" stroke="#63b8ff" points="723.19,-154.54 720.05,-164.66 728.81,-158.71 723.19,-154.54"/>
</a>
</g>
</g>
<!-- Node4&#45;&gt;Node12 -->
<g id="edge16_Node000004_Node000012" class="edge">
<title>Node4&#45;&gt;Node12</title>
<g id="a_edge16_Node000004_Node000012"><a xlink:title=" ">
<path fill="none" stroke="#63b8ff" d="M789.93,-169.52C901.78,-163.12 1104.34,-149.17 1174.5,-129 1192.65,-123.78 1194.32,-115.12 1212.5,-110 1393.26,-59.1 1446.55,-91.8 1633.5,-74 1636.6,-73.71 1639.76,-73.4 1642.95,-73.08"/>
<polygon fill="#63b8ff" stroke="#63b8ff" points="789.52,-166.04 779.73,-170.1 789.91,-173.03 789.52,-166.04"/>
</a>
</g>
</g>
<!-- Node13 -->
<g id="Node000013" class="node">
<title>Node13</title>
<g id="a_Node000013"><a xlink:href="Router_8cpp.html" target="_top" xlink:title=" ">
<polygon fill="white" stroke="#666666" points="1343.5,-129 1221.5,-129 1221.5,-110 1343.5,-110 1343.5,-129"/>
<text text-anchor="middle" x="1282.5" y="-117" font-family="Helvetica,sans-Serif" font-size="10.00">dispatcher/Router.cpp</text>
</a>
</g>
</g>
<!-- Node4&#45;&gt;Node13 -->
<g id="edge17_Node000004_Node000013" class="edge">
<title>Node4&#45;&gt;Node13</title>
<g id="a_edge17_Node000004_Node000013"><a xlink:title=" ">
<path fill="none" stroke="#63b8ff" d="M789.89,-167.17C887,-158.99 1059.81,-144.02 1207.5,-129 1211.93,-128.55 1216.51,-128.07 1221.12,-127.57"/>
<polygon fill="#63b8ff" stroke="#63b8ff" points="789.54,-163.68 779.87,-168.01 790.12,-170.66 789.54,-163.68"/>
</a>
</g>
</g>
<!-- Node14 -->
<g id="Node000014" class="node">
<title>Node14</title>
<g id="a_Node000014"><a xlink:href="UploadHandler_8cpp.html" target="_top" xlink:title=" ">
<polygon fill="white" stroke="#666666" points="945,-129 782,-129 782,-110 945,-110 945,-129"/>
<text text-anchor="middle" x="863.5" y="-117" font-family="Helvetica,sans-Serif" font-size="10.00">dispatcher/UploadHandler.cpp</text>
</a>
</g>
</g>
<!-- Node4&#45;&gt;Node14 -->
<g id="edge18_Node000004_Node000014" class="edge">
<title>Node4&#45;&gt;Node14</title>
<g id="a_edge18_Node000004_Node000014"><a xlink:title=" ">
<path fill="none" stroke="#63b8ff" d="M747.32,-161.55C775.18,-151.71 814.01,-137.98 838.96,-129.17"/>
<polygon fill="#63b8ff" stroke="#63b8ff" points="745.86,-158.35 737.6,-164.98 748.19,-164.95 745.86,-158.35"/>
</a>
</g>
</g>
<!-- Node4&#45;&gt;Node15 -->
<g id="edge20_Node000004_Node000015" class="edge">
<title>Node4&#45;&gt;Node15</title>
<g id="a_edge20_Node000004_Node000015"><a xlink:title=" ">
<path fill="none" stroke="#63b8ff" d="M637.42,-167.85C576.27,-161.96 488.63,-150.47 414.5,-129 394.43,-123.19 391.29,-116.7 371.5,-110 324.96,-94.23 270.03,-81.71 232.38,-74.01"/>
<polygon fill="#63b8ff" stroke="#63b8ff" points="637.1,-171.33 647.38,-168.78 637.75,-164.36 637.1,-171.33"/>
</a>
</g>
</g>
<!-- Node16 -->
<g id="Node000016" class="node">
<title>Node16</title>
<g id="a_Node000016"><a xlink:href="RequestParse_8hpp.html" target="_top" xlink:title=" ">
<polygon fill="white" stroke="#666666" points="567,-129 424,-129 424,-110 567,-110 567,-129"/>
<text text-anchor="middle" x="495.5" y="-117" font-family="Helvetica,sans-Serif" font-size="10.00">request/RequestParse.hpp</text>
</a>
</g>
</g>
<!-- Node4&#45;&gt;Node16 -->
<g id="edge21_Node000004_Node000016" class="edge">
<title>Node4&#45;&gt;Node16</title>
<g id="a_edge21_Node000004_Node000016"><a xlink:title=" ">
<path fill="none" stroke="#63b8ff" d="M668.52,-162.56C627.69,-152.64 568.3,-138.2 530.8,-129.08"/>
<polygon fill="#63b8ff" stroke="#63b8ff" points="667.93,-166.02 678.47,-164.98 669.58,-159.22 667.93,-166.02"/>
</a>
</g>
</g>
<!-- Node4&#45;&gt;Node18 -->
<g id="edge24_Node000004_Node000018" class="edge">
<title>Node4&#45;&gt;Node18</title>
<g id="a_edge24_Node000004_Node000018"><a xlink:title=" ">
<path fill="none" stroke="#63b8ff" d="M782.74,-163.56C852.01,-153.61 957.46,-138.46 1023.06,-129.04"/>
<polygon fill="#63b8ff" stroke="#63b8ff" points="782.19,-160.1 772.79,-164.98 783.18,-167.03 782.19,-160.1"/>
</a>
</g>
</g>
<!-- Node6 -->
<g id="Node000006" class="node">
<title>Node6</title>
<g id="a_Node000006"><a xlink:href="Config_8cpp.html" target="_top" xlink:title=" ">
<polygon fill="white" stroke="#666666" points="721.5,-74 621.5,-74 621.5,-55 721.5,-55 721.5,-74"/>
<text text-anchor="middle" x="671.5" y="-62" font-family="Helvetica,sans-Serif" font-size="10.00">config/Config.cpp</text>
</a>
</g>
</g>
<!-- Node5&#45;&gt;Node6 -->
<g id="edge5_Node000005_Node000006" class="edge">
<title>Node5&#45;&gt;Node6</title>
<g id="a_edge5_Node000005_Node000006"><a xlink:title=" ">
<path fill="none" stroke="#63b8ff" d="M673.43,-99.66C672.94,-90.93 672.38,-80.99 671.99,-74.09"/>
<polygon fill="#63b8ff" stroke="#63b8ff" points="669.94,-99.96 674,-109.75 676.93,-99.57 669.94,-99.96"/>
</a>
</g>
</g>
<!-- Node5&#45;&gt;Node7 -->
<g id="edge6_Node000005_Node000007" class="edge">
<title>Node5&#45;&gt;Node7</title>
<g id="a_edge6_Node000005_Node000007"><a xlink:title=" ">
<path fill="none" stroke="#63b8ff" d="M613.62,-108.78C551.24,-98.82 455.21,-83.49 395.75,-74"/>
<polygon fill="#63b8ff" stroke="#63b8ff" points="613.29,-112.27 623.71,-110.39 614.39,-105.36 613.29,-112.27"/>
</a>
</g>
</g>
<!-- Node9 -->
<g id="Node000009" class="node">
<title>Node9</title>
<g id="a_Node000009"><a xlink:href="main_8cpp.html" target="_top" xlink:title=" ">
<polygon fill="white" stroke="#666666" points="624.5,-19 562.5,-19 562.5,0 624.5,0 624.5,-19"/>
<text text-anchor="middle" x="593.5" y="-7" font-family="Helvetica,sans-Serif" font-size="10.00">main.cpp</text>
</a>
</g>
</g>
<!-- Node5&#45;&gt;Node9 -->
<g id="edge12_Node000005_Node000009" class="edge">
<title>Node5&#45;&gt;Node9</title>
<g id="a_edge12_Node000005_Node000009"><a xlink:title=" ">
<path fill="none" stroke="#63b8ff" d="M647.77,-104.73C635.44,-97.17 621.57,-86.72 612.5,-74 600.34,-56.95 595.87,-32.05 594.3,-19.08"/>
<polygon fill="#63b8ff" stroke="#63b8ff" points="646.38,-107.97 656.79,-109.95 649.88,-101.91 646.38,-107.97"/>
</a>
</g>
</g>
<!-- Node5&#45;&gt;Node10 -->
<g id="edge9_Node000005_Node000010" class="edge">
<title>Node5&#45;&gt;Node10</title>
<g id="a_edge9_Node000005_Node000010"><a xlink:title=" ">
<path fill="none" stroke="#63b8ff" d="M702.8,-105.9C724.78,-96.11 754.68,-82.79 774.03,-74.17"/>
<polygon fill="#63b8ff" stroke="#63b8ff" points="701.33,-102.72 693.62,-109.98 704.18,-109.11 701.33,-102.72"/>
</a>
</g>
</g>
<!-- Node7&#45;&gt;Node8 -->
<g id="edge7_Node000007_Node000008" class="edge">
<title>Node7&#45;&gt;Node8</title>
<g id="a_edge7_Node000007_Node000008"><a xlink:title=" ">
<path fill="none" stroke="#63b8ff" d="M312.62,-51.03C289.13,-41.23 257.03,-27.83 236.28,-19.17"/>
<polygon fill="#63b8ff" stroke="#63b8ff" points="311.52,-54.36 322.1,-54.98 314.21,-47.9 311.52,-54.36"/>
</a>
</g>
</g>
<!-- Node7&#45;&gt;Node9 -->
<g id="edge8_Node000007_Node000009" class="edge">
<title>Node7&#45;&gt;Node9</title>
<g id="a_edge8_Node000007_Node000009"><a xlink:title=" ">
<path fill="none" stroke="#63b8ff" d="M392.91,-52.86C443.55,-42.16 519.99,-26.02 562.39,-17.07"/>
<polygon fill="#63b8ff" stroke="#63b8ff" points="391.89,-49.49 382.83,-54.98 393.33,-56.34 391.89,-49.49"/>
</a>
</g>
</g>
<!-- Node10&#45;&gt;Node9 -->
<g id="edge11_Node000010_Node000009" class="edge">
<title>Node10&#45;&gt;Node9</title>
<g id="a_edge11_Node000010_Node000009"><a xlink:title=" ">
<path fill="none" stroke="#63b8ff" d="M751.64,-52.41C713.71,-42.36 658.7,-27.78 624.57,-18.73"/>
<polygon fill="#63b8ff" stroke="#63b8ff" points="750.8,-55.81 761.37,-54.98 752.6,-49.04 750.8,-55.81"/>
</a>
</g>
</g>
<!-- Node11 -->
<g id="Node000011" class="node">
<title>Node11</title>
<g id="a_Node000011"><a xlink:href="WebServer_8cpp.html" target="_top" xlink:title=" ">
<polygon fill="white" stroke="#666666" points="1472,-19 1365,-19 1365,0 1472,0 1472,-19"/>
<text text-anchor="middle" x="1418.5" y="-7" font-family="Helvetica,sans-Serif" font-size="10.00">init/WebServer.cpp</text>
</a>
</g>
</g>
<!-- Node10&#45;&gt;Node11 -->
<g id="edge10_Node000010_Node000011" class="edge">
<title>Node10&#45;&gt;Node11</title>
<g id="a_edge10_Node000010_Node000011"><a xlink:title=" ">
<path fill="none" stroke="#63b8ff" d="M857.8,-54.92C1050.42,-34.55 1266.6,-19.95 1364.94,-13.75"/>
<polygon fill="#63b8ff" stroke="#63b8ff" points="857.35,-51.45 847.77,-55.98 858.09,-58.41 857.35,-51.45"/>
</a>
</g>
</g>
<!-- Node16&#45;&gt;Node15 -->
<g id="edge23_Node000016_Node000015" class="edge">
<title>Node16&#45;&gt;Node15</title>
<g id="a_edge23_Node000016_Node000015"><a xlink:title=" ">
<path fill="none" stroke="#63b8ff" d="M435.92,-108.25C378.09,-98.3 291.31,-83.36 237.12,-74.04"/>
<polygon fill="#63b8ff" stroke="#63b8ff" points="435.57,-111.74 446.01,-109.98 436.75,-104.84 435.57,-111.74"/>
</a>
</g>
</g>
<!-- Node17 -->
<g id="Node000017" class="node">
<title>Node17</title>
<g id="a_Node000017"><a xlink:href="ClientConnection_8cpp.html" target="_top" xlink:title=" ">
<polygon fill="white" stroke="#666666" points="565,-74 426,-74 426,-55 565,-55 565,-74"/>
<text text-anchor="middle" x="495.5" y="-62" font-family="Helvetica,sans-Serif" font-size="10.00">init/ClientConnection.cpp</text>
</a>
</g>
</g>
<!-- Node16&#45;&gt;Node17 -->
<g id="edge22_Node000016_Node000017" class="edge">
<title>Node16&#45;&gt;Node17</title>
<g id="a_edge22_Node000016_Node000017"><a xlink:title=" ">
<path fill="none" stroke="#63b8ff" d="M495.5,-99.66C495.5,-90.93 495.5,-80.99 495.5,-74.09"/>
<polygon fill="#63b8ff" stroke="#63b8ff" points="492,-99.75 495.5,-109.75 499,-99.75 492,-99.75"/>
</a>
</g>
</g>
<!-- Node18&#45;&gt;Node11 -->
<g id="edge30_Node000018_Node000011" class="edge">
<title>Node18&#45;&gt;Node11</title>
<g id="a_edge30_Node000018_Node000011"><a xlink:title=" ">
<path fill="none" stroke="#63b8ff" d="M1168.02,-108.8C1258.88,-98.14 1390.71,-81.55 1399.5,-74 1415.73,-60.05 1418.41,-32.85 1418.66,-19.02"/>
<polygon fill="#63b8ff" stroke="#63b8ff" points="1167.51,-105.33 1157.98,-109.97 1168.32,-112.29 1167.51,-105.33"/>
</a>
</g>
</g>
<!-- Node18&#45;&gt;Node12 -->
<g id="edge27_Node000018_Node000012" class="edge">
<title>Node18&#45;&gt;Node12</title>
<g id="a_edge27_Node000018_Node000012"><a xlink:title=" ">
<path fill="none" stroke="#63b8ff" d="M1175.64,-110.32C1176.93,-110.21 1178.22,-110.11 1179.5,-110 1381.21,-93.17 1431.94,-92.56 1633.5,-74 1636.6,-73.71 1639.76,-73.42 1642.96,-73.11"/>
<polygon fill="#63b8ff" stroke="#63b8ff" points="1175.24,-106.84 1165.57,-111.18 1175.83,-113.82 1175.24,-106.84"/>
</a>
</g>
</g>
<!-- Node18&#45;&gt;Node17 -->
<g id="edge29_Node000018_Node000017" class="edge">
<title>Node18&#45;&gt;Node17</title>
<g id="a_edge29_Node000018_Node000017"><a xlink:title=" ">
<path fill="none" stroke="#63b8ff" d="M989.22,-110.08C871.16,-99.42 670.51,-81.3 565.02,-71.78"/>
<polygon fill="#63b8ff" stroke="#63b8ff" points="989.06,-113.58 999.33,-110.99 989.69,-106.61 989.06,-113.58"/>
</a>
</g>
</g>
<!-- Node19 -->
<g id="Node000019" class="node">
<title>Node19</title>
<g id="a_Node000019"><a xlink:href="AutoIndexHandler_8cpp.html" target="_top" xlink:title=" ">
<polygon fill="white" stroke="#666666" points="1624.5,-74 1446.5,-74 1446.5,-55 1624.5,-55 1624.5,-74"/>
<text text-anchor="middle" x="1535.5" y="-62" font-family="Helvetica,sans-Serif" font-size="10.00">dispatcher/AutoIndexHandler.cpp</text>
</a>
</g>
</g>
<!-- Node18&#45;&gt;Node19 -->
<g id="edge25_Node000018_Node000019" class="edge">
<title>Node18&#45;&gt;Node19</title>
<g id="a_edge25_Node000018_Node000019"><a xlink:title=" ">
<path fill="none" stroke="#63b8ff" d="M1165.41,-108.8C1250.42,-98.85 1381.33,-83.54 1462.52,-74.04"/>
<polygon fill="#63b8ff" stroke="#63b8ff" points="1164.81,-105.35 1155.28,-109.98 1165.62,-112.3 1164.81,-105.35"/>
</a>
</g>
</g>
<!-- Node20 -->
<g id="Node000020" class="node">
<title>Node20</title>
<g id="a_Node000020"><a xlink:href="CgiHandler_8cpp.html" target="_top" xlink:title=" ">
<polygon fill="white" stroke="#666666" points="1009.5,-74 865.5,-74 865.5,-55 1009.5,-55 1009.5,-74"/>
<text text-anchor="middle" x="937.5" y="-62" font-family="Helvetica,sans-Serif" font-size="10.00">dispatcher/CgiHandler.cpp</text>
</a>
</g>
</g>
<!-- Node18&#45;&gt;Node20 -->
<g id="edge26_Node000018_Node000020" class="edge">
<title>Node18&#45;&gt;Node20</title>
<g id="a_edge26_Node000018_Node000020"><a xlink:title=" ">
<path fill="none" stroke="#63b8ff" d="M1049.81,-106.55C1022.88,-96.71 985.34,-82.98 961.22,-74.17"/>
<polygon fill="#63b8ff" stroke="#63b8ff" points="1048.61,-109.84 1059.2,-109.98 1051.01,-103.26 1048.61,-109.84"/>
</a>
</g>
</g>
<!-- Node21 -->
<g id="Node000021" class="node">
<title>Node21</title>
<g id="a_Node000021"><a xlink:href="StaticPageHandler_8cpp.html" target="_top" xlink:title=" ">
<polygon fill="white" stroke="#666666" points="1207,-74 1028,-74 1028,-55 1207,-55 1207,-74"/>
<text text-anchor="middle" x="1117.5" y="-62" font-family="Helvetica,sans-Serif" font-size="10.00">dispatcher/StaticPageHandler.cpp</text>
</a>
</g>
</g>
<!-- Node18&#45;&gt;Node21 -->
<g id="edge28_Node000018_Node000021" class="edge">
<title>Node18&#45;&gt;Node21</title>
<g id="a_edge28_Node000018_Node000021"><a xlink:title=" ">
<path fill="none" stroke="#63b8ff" d="M1093.8,-101.39C1099.82,-92.27 1106.97,-81.45 1111.83,-74.09"/>
<polygon fill="#63b8ff" stroke="#63b8ff" points="1090.87,-99.47 1088.28,-109.75 1096.71,-103.33 1090.87,-99.47"/>
</a>
</g>
</g>
<!-- Node22 -->
<g id="Node000022" class="node">
<title>Node22</title>
<g id="a_Node000022"><a xlink:href="ResponseBuilder_8cpp.html" target="_top" xlink:title=" ">
<polygon fill="white" stroke="#666666" points="1390,-74 1225,-74 1225,-55 1390,-55 1390,-74"/>
<text text-anchor="middle" x="1307.5" y="-62" font-family="Helvetica,sans-Serif" font-size="10.00">response/ResponseBuilder.cpp</text>
</a>
</g>
</g>
<!-- Node18&#45;&gt;Node22 -->
<g id="edge31_Node000018_Node000022" class="edge">
<title>Node18&#45;&gt;Node22</title>
<g id="a_edge31_Node000018_Node000022"><a xlink:title=" ">
<path fill="none" stroke="#63b8ff" d="M1128.39,-107.69C1170.55,-97.76 1232.2,-83.24 1271.07,-74.08"/>
<polygon fill="#63b8ff" stroke="#63b8ff" points="1127.58,-104.28 1118.65,-109.98 1129.19,-111.1 1127.58,-104.28"/>
</a>
</g>
</g>
<!-- Node23&#45;&gt;Node11 -->
<g id="edge35_Node000023_Node000011" class="edge">
<title>Node23&#45;&gt;Node11</title>
<g id="a_edge35_Node000023_Node000011"><a xlink:title=" ">
<path fill="none" stroke="#63b8ff" d="M1750.98,-106.31C1780.33,-94.61 1813.9,-75.7 1795.5,-55 1774.4,-31.26 1571.35,-18.04 1472.3,-12.96"/>
<polygon fill="#63b8ff" stroke="#63b8ff" points="1749.38,-103.17 1741.27,-109.99 1751.86,-109.72 1749.38,-103.17"/>
</a>
</g>
</g>
<!-- Node23&#45;&gt;Node12 -->
<g id="edge34_Node000023_Node000012" class="edge">
<title>Node23&#45;&gt;Node12</title>
<g id="a_edge34_Node000023_Node000012"><a xlink:title=" ">
<path fill="none" stroke="#63b8ff" d="M1714.5,-99.66C1714.5,-90.93 1714.5,-80.99 1714.5,-74.09"/>
<polygon fill="#63b8ff" stroke="#63b8ff" points="1711,-99.75 1714.5,-109.75 1718,-99.75 1711,-99.75"/>
</a>
</g>
</g>
<!-- Node24&#45;&gt;Node12 -->
<g id="edge37_Node000024_Node000012" class="edge">
<title>Node24&#45;&gt;Node12</title>
<g id="a_edge37_Node000024_Node000012"><a xlink:title=" ">
<path fill="none" stroke="#63b8ff" d="M1326.51,-162.5C1412.78,-140.93 1602.49,-93.5 1680.24,-74.07"/>
<polygon fill="#63b8ff" stroke="#63b8ff" points="1325.61,-159.11 1316.76,-164.94 1327.31,-165.91 1325.61,-159.11"/>
</a>
</g>
</g>
<!-- Node24&#45;&gt;Node13 -->
<g id="edge38_Node000024_Node000013" class="edge">
<title>Node24&#45;&gt;Node13</title>
<g id="a_edge38_Node000024_Node000013"><a xlink:title=" ">
<path fill="none" stroke="#63b8ff" d="M1282.5,-154.66C1282.5,-145.93 1282.5,-135.99 1282.5,-129.09"/>
<polygon fill="#63b8ff" stroke="#63b8ff" points="1279,-154.75 1282.5,-164.75 1286,-154.75 1279,-154.75"/>
</a>
</g>
</g>
</g>
</svg>
