<?xml version="1.0" encoding="UTF-8" standalone="no"?>
<!DOCTYPE svg PUBLIC "-//W3C//DTD SVG 1.1//EN"
 "http://www.w3.org/Graphics/SVG/1.1/DTD/svg11.dtd">
<!-- Generated by graphviz version 2.43.0 (0)
 -->
<!-- Title: utils/Logger.hpp Pages: 1 -->
<svg width="2815pt" height="137pt"
 viewBox="0.00 0.00 2814.50 137.00" xmlns="http://www.w3.org/2000/svg" xmlns:xlink="http://www.w3.org/1999/xlink">
<g id="graph0" class="graph" transform="scale(1 1) rotate(0) translate(4 133)">
<title>utils/Logger.hpp</title>
<!-- Node1 -->
<g id="Node000001" class="node">
<title>Node1</title>
<g id="a_Node000001"><a xlink:title=" ">
<polygon fill="#999999" stroke="#666666" points="1460.5,-129 1366.5,-129 1366.5,-110 1460.5,-110 1460.5,-129"/>
<text text-anchor="middle" x="1413.5" y="-117" font-family="Helvetica,sans-Serif" font-size="10.00">utils/Logger.hpp</text>
</a>
</g>
</g>
<!-- Node2 -->
<g id="Node000002" class="node">
<title>Node2</title>
<g id="a_Node000002"><a xlink:href="ConfigParser_8cpp.html" target="_top" xlink:title=" ">
<polygon fill="white" stroke="#666666" points="129,-74 0,-74 0,-55 129,-55 129,-74"/>
<text text-anchor="middle" x="64.5" y="-62" font-family="Helvetica,sans-Serif" font-size="10.00">config/ConfigParser.cpp</text>
</a>
</g>
</g>
<!-- Node1&#45;&gt;Node2 -->
<g id="edge1_Node000001_Node000002" class="edge">
<title>Node1&#45;&gt;Node2</title>
<g id="a_edge1_Node000001_Node000002"><a xlink:title=" ">
<path fill="none" stroke="#63b8ff" d="M1356.49,-118.16C1176.98,-116.73 607.47,-109.5 137.5,-74 134.83,-73.8 132.1,-73.57 129.35,-73.33"/>
<polygon fill="#63b8ff" stroke="#63b8ff" points="1356.47,-121.66 1366.5,-118.23 1356.53,-114.66 1356.47,-121.66"/>
</a>
</g>
</g>
<!-- Node3 -->
<g id="Node000003" class="node">
<title>Node3</title>
<g id="a_Node000003"><a xlink:href="ServerConfig_8cpp.html" target="_top" xlink:title=" ">
<polygon fill="white" stroke="#666666" points="278,-74 147,-74 147,-55 278,-55 278,-74"/>
<text text-anchor="middle" x="212.5" y="-62" font-family="Helvetica,sans-Serif" font-size="10.00">config/ServerConfig.cpp</text>
</a>
</g>
</g>
<!-- Node1&#45;&gt;Node3 -->
<g id="edge2_Node000001_Node000003" class="edge">
<title>Node1&#45;&gt;Node3</title>
<g id="a_edge2_Node000001_Node000003"><a xlink:title=" ">
<path fill="none" stroke="#63b8ff" d="M1355.76,-117.71C1189.6,-115.12 695.98,-105.18 287.5,-74 284.49,-73.77 281.42,-73.51 278.32,-73.24"/>
<polygon fill="#63b8ff" stroke="#63b8ff" points="1356.18,-121.22 1366.23,-117.87 1356.28,-114.22 1356.18,-121.22"/>
</a>
</g>
</g>
<!-- Node4 -->
<g id="Node000004" class="node">
<title>Node4</title>
<g id="a_Node000004"><a xlink:href="AutoIndexHandler_8cpp.html" target="_top" xlink:title=" ">
<polygon fill="white" stroke="#666666" points="474.5,-74 296.5,-74 296.5,-55 474.5,-55 474.5,-74"/>
<text text-anchor="middle" x="385.5" y="-62" font-family="Helvetica,sans-Serif" font-size="10.00">dispatcher/AutoIndexHandler.cpp</text>
</a>
</g>
</g>
<!-- Node1&#45;&gt;Node4 -->
<g id="edge3_Node000001_Node000004" class="edge">
<title>Node1&#45;&gt;Node4</title>
<g id="a_edge3_Node000001_Node000004"><a xlink:title=" ">
<path fill="none" stroke="#63b8ff" d="M1355.97,-116.52C1210,-111.34 813.46,-96.2 483.5,-74 480.6,-73.81 477.66,-73.6 474.69,-73.38"/>
<polygon fill="#63b8ff" stroke="#63b8ff" points="1355.92,-120.02 1366.04,-116.88 1356.17,-113.03 1355.92,-120.02"/>
</a>
</g>
</g>
<!-- Node5 -->
<g id="Node000005" class="node">
<title>Node5</title>
<g id="a_Node000005"><a xlink:href="CgiHandler_8cpp.html" target="_top" xlink:title=" ">
<polygon fill="white" stroke="#666666" points="636.5,-74 492.5,-74 492.5,-55 636.5,-55 636.5,-74"/>
<text text-anchor="middle" x="564.5" y="-62" font-family="Helvetica,sans-Serif" font-size="10.00">dispatcher/CgiHandler.cpp</text>
</a>
</g>
</g>
<!-- Node1&#45;&gt;Node5 -->
<g id="edge4_Node000001_Node000005" class="edge">
<title>Node1&#45;&gt;Node5</title>
<g id="a_edge4_Node000001_Node000005"><a xlink:title=" ">
<path fill="none" stroke="#63b8ff" d="M1355.84,-115.93C1228.49,-110.08 913.62,-94.67 650.5,-74 646.01,-73.65 641.4,-73.26 636.74,-72.85"/>
<polygon fill="#63b8ff" stroke="#63b8ff" points="1355.98,-119.44 1366.13,-116.4 1356.3,-112.45 1355.98,-119.44"/>
</a>
</g>
</g>
<!-- Node6 -->
<g id="Node000006" class="node">
<title>Node6</title>
<g id="a_Node000006"><a xlink:href="DeleteHandler_8cpp.html" target="_top" xlink:title=" ">
<polygon fill="white" stroke="#666666" points="769,-19 608,-19 608,0 769,0 769,-19"/>
<text text-anchor="middle" x="688.5" y="-7" font-family="Helvetica,sans-Serif" font-size="10.00">dispatcher/DeleteHandler.cpp</text>
</a>
</g>
</g>
<!-- Node1&#45;&gt;Node6 -->
<g id="edge5_Node000001_Node000006" class="edge">
<title>Node1&#45;&gt;Node6</title>
<g id="a_edge5_Node000001_Node000006"><a xlink:title=" ">
<path fill="none" stroke="#63b8ff" d="M1356.08,-117.12C1187.85,-112.82 706.46,-98.4 683.5,-74 669.56,-59.18 678.24,-32.86 684.23,-19.23"/>
<polygon fill="#63b8ff" stroke="#63b8ff" points="1356.14,-120.63 1366.23,-117.38 1356.32,-113.63 1356.14,-120.63"/>
</a>
</g>
</g>
<!-- Node7 -->
<g id="Node000007" class="node">
<title>Node7</title>
<g id="a_Node000007"><a xlink:href="DeleteHandler_8hpp.html" target="_top" xlink:title=" ">
<polygon fill="white" stroke="#666666" points="854,-74 693,-74 693,-55 854,-55 854,-74"/>
<text text-anchor="middle" x="773.5" y="-62" font-family="Helvetica,sans-Serif" font-size="10.00">dispatcher/DeleteHandler.hpp</text>
</a>
</g>
</g>
<!-- Node1&#45;&gt;Node7 -->
<g id="edge6_Node000001_Node000007" class="edge">
<title>Node1&#45;&gt;Node7</title>
<g id="a_edge6_Node000001_Node000007"><a xlink:title=" ">
<path fill="none" stroke="#63b8ff" d="M1356.36,-113.98C1257.1,-106.1 1046.41,-89.22 868.5,-74 863.8,-73.6 858.97,-73.18 854.09,-72.75"/>
<polygon fill="#63b8ff" stroke="#63b8ff" points="1356.22,-117.48 1366.47,-114.78 1356.78,-110.5 1356.22,-117.48"/>
</a>
</g>
</g>
<!-- Node8 -->
<g id="Node000008" class="node">
<title>Node8</title>
<g id="a_Node000008"><a xlink:href="Dispatcher_8cpp.html" target="_top" xlink:title=" ">
<polygon fill="white" stroke="#666666" points="942,-19 799,-19 799,0 942,0 942,-19"/>
<text text-anchor="middle" x="870.5" y="-7" font-family="Helvetica,sans-Serif" font-size="10.00">dispatcher/Dispatcher.cpp</text>
</a>
</g>
</g>
<!-- Node1&#45;&gt;Node8 -->
<g id="edge9_Node000001_Node000008" class="edge">
<title>Node1&#45;&gt;Node8</title>
<g id="a_edge9_Node000001_Node000008"><a xlink:title=" ">
<path fill="none" stroke="#63b8ff" d="M1356.23,-116.68C1230.45,-112.22 938.3,-99.27 901.5,-74 882.69,-61.08 874.85,-33.42 871.97,-19.25"/>
<polygon fill="#63b8ff" stroke="#63b8ff" points="1356.32,-120.18 1366.44,-117.03 1356.56,-113.19 1356.32,-120.18"/>
</a>
</g>
</g>
<!-- Node9 -->
<g id="Node000009" class="node">
<title>Node9</title>
<g id="a_Node000009"><a xlink:href="Router_8cpp.html" target="_top" xlink:title=" ">
<polygon fill="white" stroke="#666666" points="1032.5,-74 910.5,-74 910.5,-55 1032.5,-55 1032.5,-74"/>
<text text-anchor="middle" x="971.5" y="-62" font-family="Helvetica,sans-Serif" font-size="10.00">dispatcher/Router.cpp</text>
</a>
</g>
</g>
<!-- Node1&#45;&gt;Node9 -->
<g id="edge10_Node000001_Node000009" class="edge">
<title>Node1&#45;&gt;Node9</title>
<g id="a_edge10_Node000001_Node000009"><a xlink:title=" ">
<path fill="none" stroke="#63b8ff" d="M1356.12,-111.62C1272.57,-101.6 1118.09,-83.08 1032.52,-72.82"/>
<polygon fill="#63b8ff" stroke="#63b8ff" points="1355.85,-115.11 1366.2,-112.83 1356.69,-108.16 1355.85,-115.11"/>
</a>
</g>
</g>
<!-- Node10 -->
<g id="Node000010" class="node">
<title>Node10</title>
<g id="a_Node000010"><a xlink:href="StaticPageHandler_8cpp.html" target="_top" xlink:title=" ">
<polygon fill="white" stroke="#666666" points="1230,-74 1051,-74 1051,-55 1230,-55 1230,-74"/>
<text text-anchor="middle" x="1140.5" y="-62" font-family="Helvetica,sans-Serif" font-size="10.00">dispatcher/StaticPageHandler.cpp</text>
</a>
</g>
</g>
<!-- Node1&#45;&gt;Node10 -->
<g id="edge11_Node000001_Node000010" class="edge">
<title>Node1&#45;&gt;Node10</title>
<g id="a_edge11_Node000001_Node000010"><a xlink:title=" ">
<path fill="none" stroke="#63b8ff" d="M1359.75,-108.07C1308.57,-98.13 1232.46,-83.35 1184.71,-74.08"/>
<polygon fill="#63b8ff" stroke="#63b8ff" points="1359.15,-111.51 1369.64,-109.98 1360.49,-104.64 1359.15,-111.51"/>
</a>
</g>
</g>
<!-- Node11 -->
<g id="Node000011" class="node">
<title>Node11</title>
<g id="a_Node000011"><a xlink:href="UploadHandler_8cpp.html" target="_top" xlink:title=" ">
<polygon fill="white" stroke="#666666" points="1411,-74 1248,-74 1248,-55 1411,-55 1411,-74"/>
<text text-anchor="middle" x="1329.5" y="-62" font-family="Helvetica,sans-Serif" font-size="10.00">dispatcher/UploadHandler.cpp</text>
</a>
</g>
</g>
<!-- Node1&#45;&gt;Node11 -->
<g id="edge12_Node000001_Node000011" class="edge">
<title>Node1&#45;&gt;Node11</title>
<g id="a_edge12_Node000001_Node000011"><a xlink:title=" ">
<path fill="none" stroke="#63b8ff" d="M1391.19,-104.42C1375.95,-94.81 1356.23,-82.37 1343.24,-74.17"/>
<polygon fill="#63b8ff" stroke="#63b8ff" points="1389.68,-107.61 1400,-109.98 1393.41,-101.69 1389.68,-107.61"/>
</a>
</g>
</g>
<!-- Node12 -->
<g id="Node000012" class="node">
<title>Node12</title>
<g id="a_Node000012"><a xlink:href="ClientConnection_8cpp.html" target="_top" xlink:title=" ">
<polygon fill="white" stroke="#666666" points="1568,-74 1429,-74 1429,-55 1568,-55 1568,-74"/>
<text text-anchor="middle" x="1498.5" y="-62" font-family="Helvetica,sans-Serif" font-size="10.00">init/ClientConnection.cpp</text>
</a>
</g>
</g>
<!-- Node1&#45;&gt;Node12 -->
<g id="edge13_Node000001_Node000012" class="edge">
<title>Node1&#45;&gt;Node12</title>
<g id="a_edge13_Node000001_Node000012"><a xlink:title=" ">
<path fill="none" stroke="#63b8ff" d="M1436.07,-104.42C1451.5,-94.81 1471.45,-82.37 1484.59,-74.17"/>
<polygon fill="#63b8ff" stroke="#63b8ff" points="1433.79,-101.72 1427.16,-109.98 1437.49,-107.66 1433.79,-101.72"/>
</a>
</g>
</g>
<!-- Node13 -->
<g id="Node000013" class="node">
<title>Node13</title>
<g id="a_Node000013"><a xlink:href="ServerSocket_8cpp.html" target="_top" xlink:title=" ">
<polygon fill="white" stroke="#666666" points="1705,-74 1586,-74 1586,-55 1705,-55 1705,-74"/>
<text text-anchor="middle" x="1645.5" y="-62" font-family="Helvetica,sans-Serif" font-size="10.00">init/ServerSocket.cpp</text>
</a>
</g>
</g>
<!-- Node1&#45;&gt;Node13 -->
<g id="edge14_Node000001_Node000013" class="edge">
<title>Node1&#45;&gt;Node13</title>
<g id="a_edge14_Node000001_Node000013"><a xlink:title=" ">
<path fill="none" stroke="#63b8ff" d="M1460.54,-107.75C1504.02,-97.82 1567.77,-83.26 1607.93,-74.08"/>
<polygon fill="#63b8ff" stroke="#63b8ff" points="1459.74,-104.35 1450.77,-109.98 1461.3,-111.17 1459.74,-104.35"/>
</a>
</g>
</g>
<!-- Node14 -->
<g id="Node000014" class="node">
<title>Node14</title>
<g id="a_Node000014"><a xlink:href="WebServer_8cpp.html" target="_top" xlink:title=" ">
<polygon fill="white" stroke="#666666" points="1830,-74 1723,-74 1723,-55 1830,-55 1830,-74"/>
<text text-anchor="middle" x="1776.5" y="-62" font-family="Helvetica,sans-Serif" font-size="10.00">init/WebServer.cpp</text>
</a>
</g>
</g>
<!-- Node1&#45;&gt;Node14 -->
<g id="edge15_Node000001_Node000014" class="edge">
<title>Node1&#45;&gt;Node14</title>
<g id="a_edge15_Node000001_Node000014"><a xlink:title=" ">
<path fill="none" stroke="#63b8ff" d="M1470.85,-110.13C1539.97,-100.03 1655.22,-83.21 1722.71,-73.35"/>
<polygon fill="#63b8ff" stroke="#63b8ff" points="1469.97,-106.72 1460.58,-111.63 1470.98,-113.64 1469.97,-106.72"/>
</a>
</g>
</g>
<!-- Node15 -->
<g id="Node000015" class="node">
<title>Node15</title>
<g id="a_Node000015"><a xlink:href="main_8cpp.html" target="_top" xlink:title=" ">
<polygon fill="white" stroke="#666666" points="1910.5,-74 1848.5,-74 1848.5,-55 1910.5,-55 1910.5,-74"/>
<text text-anchor="middle" x="1879.5" y="-62" font-family="Helvetica,sans-Serif" font-size="10.00">main.cpp</text>
</a>
</g>
</g>
<!-- Node1&#45;&gt;Node15 -->
<g id="edge16_Node000001_Node000015" class="edge">
<title>Node1&#45;&gt;Node15</title>
<g id="a_edge16_Node000001_Node000015"><a xlink:title=" ">
<path fill="none" stroke="#63b8ff" d="M1470.79,-114.44C1552.81,-108.2 1708.31,-94.73 1839.5,-74 1842.3,-73.56 1845.21,-73.04 1848.12,-72.5"/>
<polygon fill="#63b8ff" stroke="#63b8ff" points="1470.38,-110.96 1460.67,-115.2 1470.91,-117.94 1470.38,-110.96"/>
</a>
</g>
</g>
<!-- Node16 -->
<g id="Node000016" class="node">
<title>Node16</title>
<g id="a_Node000016"><a xlink:href="HttpRequest_8cpp.html" target="_top" xlink:title=" ">
<polygon fill="white" stroke="#666666" points="2066,-74 1929,-74 1929,-55 2066,-55 2066,-74"/>
<text text-anchor="middle" x="1997.5" y="-62" font-family="Helvetica,sans-Serif" font-size="10.00">request/HttpRequest.cpp</text>
</a>
</g>
</g>
<!-- Node1&#45;&gt;Node16 -->
<g id="edge17_Node000001_Node000016" class="edge">
<title>Node1&#45;&gt;Node16</title>
<g id="a_edge17_Node000001_Node000016"><a xlink:title=" ">
<path fill="none" stroke="#63b8ff" d="M1470.75,-113.86C1564.56,-106.16 1756.87,-90.01 1919.5,-74 1922.48,-73.71 1925.53,-73.4 1928.6,-73.09"/>
<polygon fill="#63b8ff" stroke="#63b8ff" points="1470.3,-110.38 1460.62,-114.69 1470.87,-117.36 1470.3,-110.38"/>
</a>
</g>
</g>
<!-- Node17 -->
<g id="Node000017" class="node">
<title>Node17</title>
<g id="a_Node000017"><a xlink:href="RequestParse_8cpp.html" target="_top" xlink:title=" ">
<polygon fill="white" stroke="#666666" points="2227,-74 2084,-74 2084,-55 2227,-55 2227,-74"/>
<text text-anchor="middle" x="2155.5" y="-62" font-family="Helvetica,sans-Serif" font-size="10.00">request/RequestParse.cpp</text>
</a>
</g>
</g>
<!-- Node1&#45;&gt;Node17 -->
<g id="edge18_Node000001_Node000017" class="edge">
<title>Node1&#45;&gt;Node17</title>
<g id="a_edge18_Node000001_Node000017"><a xlink:title=" ">
<path fill="none" stroke="#63b8ff" d="M1470.81,-115.4C1585.65,-109.01 1852.09,-93.37 2075.5,-74 2078.28,-73.76 2081.12,-73.5 2083.98,-73.24"/>
<polygon fill="#63b8ff" stroke="#63b8ff" points="1470.29,-111.92 1460.5,-115.97 1470.68,-118.91 1470.29,-111.92"/>
</a>
</g>
</g>
<!-- Node18 -->
<g id="Node000018" class="node">
<title>Node18</title>
<g id="a_Node000018"><a xlink:href="HttpResponse_8cpp.html" target="_top" xlink:title=" ">
<polygon fill="white" stroke="#666666" points="2397.5,-74 2245.5,-74 2245.5,-55 2397.5,-55 2397.5,-74"/>
<text text-anchor="middle" x="2321.5" y="-62" font-family="Helvetica,sans-Serif" font-size="10.00">response/HttpResponse.cpp</text>
</a>
</g>
</g>
<!-- Node1&#45;&gt;Node18 -->
<g id="edge19_Node000001_Node000018" class="edge">
<title>Node1&#45;&gt;Node18</title>
<g id="a_edge19_Node000001_Node000018"><a xlink:title=" ">
<path fill="none" stroke="#63b8ff" d="M1470.92,-116.3C1605.05,-110.96 1949.37,-96.11 2236.5,-74 2239.31,-73.78 2242.17,-73.55 2245.06,-73.31"/>
<polygon fill="#63b8ff" stroke="#63b8ff" points="1470.72,-112.8 1460.87,-116.7 1471,-119.8 1470.72,-112.8"/>
</a>
</g>
</g>
<!-- Node19 -->
<g id="Node000019" class="node">
<title>Node19</title>
<g id="a_Node000019"><a xlink:href="ResponseBuilder_8cpp.html" target="_top" xlink:title=" ">
<polygon fill="white" stroke="#666666" points="2581,-74 2416,-74 2416,-55 2581,-55 2581,-74"/>
<text text-anchor="middle" x="2498.5" y="-62" font-family="Helvetica,sans-Serif" font-size="10.00">response/ResponseBuilder.cpp</text>
</a>
</g>
</g>
<!-- Node1&#45;&gt;Node19 -->
<g id="edge20_Node000001_Node000019" class="edge">
<title>Node1&#45;&gt;Node19</title>
<g id="a_edge20_Node000001_Node000019"><a xlink:title=" ">
<path fill="none" stroke="#63b8ff" d="M1470.63,-116.89C1622.88,-112.38 2050.97,-98.38 2406.5,-74 2409.54,-73.79 2412.64,-73.57 2415.76,-73.33"/>
<polygon fill="#63b8ff" stroke="#63b8ff" points="1470.47,-113.39 1460.58,-117.18 1470.68,-120.39 1470.47,-113.39"/>
</a>
</g>
</g>
<!-- Node20 -->
<g id="Node000020" class="node">
<title>Node20</title>
<g id="a_Node000020"><a xlink:href="Logger_8cpp.html" target="_top" xlink:title=" ">
<polygon fill="white" stroke="#666666" points="2692,-74 2599,-74 2599,-55 2692,-55 2692,-74"/>
<text text-anchor="middle" x="2645.5" y="-62" font-family="Helvetica,sans-Serif" font-size="10.00">utils/Logger.cpp</text>
</a>
</g>
</g>
<!-- Node1&#45;&gt;Node20 -->
<g id="edge21_Node000001_Node000020" class="edge">
<title>Node1&#45;&gt;Node20</title>
<g id="a_edge21_Node000001_Node000020"><a xlink:title=" ">
<path fill="none" stroke="#63b8ff" d="M1470.74,-118.67C1641.43,-118.69 2161.62,-115.11 2590.5,-74 2593.19,-73.74 2595.95,-73.44 2598.74,-73.1"/>
<polygon fill="#63b8ff" stroke="#63b8ff" points="1470.73,-115.17 1460.72,-118.67 1470.72,-122.17 1470.73,-115.17"/>
</a>
</g>
</g>
<!-- Node21 -->
<g id="Node000021" class="node">
<title>Node21</title>
<g id="a_Node000021"><a xlink:href="Signals_8cpp.html" target="_top" xlink:title=" ">
<polygon fill="white" stroke="#666666" points="2806.5,-74 2710.5,-74 2710.5,-55 2806.5,-55 2806.5,-74"/>
<text text-anchor="middle" x="2758.5" y="-62" font-family="Helvetica,sans-Serif" font-size="10.00">utils/Signals.cpp</text>
</a>
</g>
</g>
<!-- Node1&#45;&gt;Node21 -->
<g id="edge22_Node000001_Node000021" class="edge">
<title>Node1&#45;&gt;Node21</title>
<g id="a_edge22_Node000001_Node000021"><a xlink:title=" ">
<path fill="none" stroke="#63b8ff" d="M1470.79,-118.83C1651.8,-119.4 2227.48,-117.39 2701.5,-74 2704.39,-73.74 2707.36,-73.42 2710.34,-73.07"/>
<polygon fill="#63b8ff" stroke="#63b8ff" points="1470.71,-115.33 1460.7,-118.8 1470.68,-122.33 1470.71,-115.33"/>
</a>
</g>
</g>
<!-- Node7&#45;&gt;Node6 -->
<g id="edge7_Node000007_Node000006" class="edge">
<title>Node7&#45;&gt;Node6</title>
<g id="a_edge7_Node000007_Node000006"><a xlink:title=" ">
<path fill="none" stroke="#63b8ff" d="M750.93,-49.42C735.5,-39.81 715.55,-27.37 702.41,-19.17"/>
<polygon fill="#63b8ff" stroke="#63b8ff" points="749.51,-52.66 759.84,-54.98 753.21,-46.72 749.51,-52.66"/>
</a>
</g>
</g>
<!-- Node7&#45;&gt;Node8 -->
<g id="edge8_Node000007_Node000008" class="edge">
<title>Node7&#45;&gt;Node8</title>
<g id="a_edge8_Node000007_Node000008"><a xlink:title=" ">
<path fill="none" stroke="#63b8ff" d="M798.27,-49.97C816,-40.28 839.35,-27.52 854.63,-19.17"/>
<polygon fill="#63b8ff" stroke="#63b8ff" points="796.18,-47.12 789.08,-54.98 799.54,-53.26 796.18,-47.12"/>
</a>
</g>
</g>
</g>
</svg>
