<?xml version="1.0" encoding="UTF-8" standalone="no"?>
<!DOCTYPE svg PUBLIC "-//W3C//DTD SVG 1.1//EN"
 "http://www.w3.org/Graphics/SVG/1.1/DTD/svg11.dtd">
<!-- Generated by graphviz version 2.43.0 (0)
 -->
<!-- Title: main.cpp Pages: 1 -->
<svg width="1424pt" height="357pt"
 viewBox="0.00 0.00 1423.72 357.00" xmlns="http://www.w3.org/2000/svg" xmlns:xlink="http://www.w3.org/1999/xlink">
<g id="graph0" class="graph" transform="scale(1 1) rotate(0) translate(4 353)">
<title>main.cpp</title>
<!-- Node1 -->
<g id="Node000001" class="node">
<title>Node1</title>
<g id="a_Node000001"><a xlink:title=" ">
<polygon fill="#999999" stroke="#666666" points="752,-349 690,-349 690,-330 752,-330 752,-349"/>
<text text-anchor="middle" x="721" y="-337" font-family="Helvetica,sans-Serif" font-size="10.00">main.cpp</text>
</a>
</g>
</g>
<!-- Node2 -->
<g id="Node000002" class="node">
<title>Node2</title>
<g id="a_Node000002"><a xlink:title=" ">
<polygon fill="#e0e0e0" stroke="#999999" points="531,-239 471,-239 471,-220 531,-220 531,-239"/>
<text text-anchor="middle" x="501" y="-227" font-family="Helvetica,sans-Serif" font-size="10.00">iostream</text>
</a>
</g>
</g>
<!-- Node1&#45;&gt;Node2 -->
<g id="edge1_Node000001_Node000002" class="edge">
<title>Node1&#45;&gt;Node2</title>
<g id="a_edge1_Node000001_Node000002"><a xlink:title=" ">
<path fill="none" stroke="#63b8ff" d="M703.37,-329.84C664.9,-310.96 573.22,-265.96 527.66,-243.59"/>
<polygon fill="#63b8ff" stroke="#63b8ff" points="528.93,-240.31 518.41,-239.05 525.84,-246.6 528.93,-240.31"/>
</a>
</g>
</g>
<!-- Node3 -->
<g id="Node000003" class="node">
<title>Node3</title>
<g id="a_Node000003"><a xlink:title=" ">
<polygon fill="#e0e0e0" stroke="#999999" points="431,-19 387,-19 387,0 431,0 431,-19"/>
<text text-anchor="middle" x="409" y="-7" font-family="Helvetica,sans-Serif" font-size="10.00">string</text>
</a>
</g>
</g>
<!-- Node1&#45;&gt;Node3 -->
<g id="edge2_Node000001_Node000003" class="edge">
<title>Node1&#45;&gt;Node3</title>
<g id="a_edge2_Node000001_Node000003"><a xlink:title=" ">
<path fill="none" stroke="#63b8ff" d="M689.56,-337.16C550.78,-330.84 0,-301.3 0,-230.5 0,-230.5 0,-230.5 0,-118.5 0,-72.76 38.86,-72.81 81,-55 133.99,-32.6 304.73,-18.02 376.62,-12.73"/>
<polygon fill="#63b8ff" stroke="#63b8ff" points="377.16,-16.2 386.88,-11.99 376.65,-9.22 377.16,-16.2"/>
</a>
</g>
</g>
<!-- Node4 -->
<g id="Node000004" class="node">
<title>Node4</title>
<g id="a_Node000004"><a xlink:title=" ">
<polygon fill="#e0e0e0" stroke="#999999" points="1409.5,-184 1358.5,-184 1358.5,-165 1409.5,-165 1409.5,-184"/>
<text text-anchor="middle" x="1384" y="-172" font-family="Helvetica,sans-Serif" font-size="10.00">csignal</text>
</a>
</g>
</g>
<!-- Node1&#45;&gt;Node4 -->
<g id="edge3_Node000001_Node000004" class="edge">
<title>Node1&#45;&gt;Node4</title>
<g id="a_edge3_Node000001_Node000004"><a xlink:title=" ">
<path fill="none" stroke="#63b8ff" d="M752.08,-337.68C856.8,-334.66 1196.08,-322.85 1301,-294 1354.09,-279.4 1382.97,-285.78 1412,-239 1421.38,-223.88 1410.62,-205.08 1399.84,-191.87"/>
<polygon fill="#63b8ff" stroke="#63b8ff" points="1402.21,-189.27 1392.96,-184.09 1396.97,-193.9 1402.21,-189.27"/>
</a>
</g>
</g>
<!-- Node5 -->
<g id="Node000005" class="node">
<title>Node5</title>
<g id="a_Node000005"><a xlink:href="WebServer_8hpp.html" target="_top" xlink:title=" ">
<polygon fill="white" stroke="#666666" points="775,-294 667,-294 667,-275 775,-275 775,-294"/>
<text text-anchor="middle" x="721" y="-282" font-family="Helvetica,sans-Serif" font-size="10.00">init/WebServer.hpp</text>
</a>
</g>
</g>
<!-- Node1&#45;&gt;Node5 -->
<g id="edge4_Node000001_Node000005" class="edge">
<title>Node1&#45;&gt;Node5</title>
<g id="a_edge4_Node000001_Node000005"><a xlink:title=" ">
<path fill="none" stroke="#63b8ff" d="M721,-329.75C721,-322.8 721,-312.85 721,-304.13"/>
<polygon fill="#63b8ff" stroke="#63b8ff" points="724.5,-304.09 721,-294.09 717.5,-304.09 724.5,-304.09"/>
</a>
</g>
</g>
<!-- Node8 -->
<g id="Node000008" class="node">
<title>Node8</title>
<g id="a_Node000008"><a xlink:href="ServerSocket_8hpp.html" target="_top" xlink:title=" ">
<polygon fill="white" stroke="#666666" points="1033,-239 913,-239 913,-220 1033,-220 1033,-239"/>
<text text-anchor="middle" x="973" y="-227" font-family="Helvetica,sans-Serif" font-size="10.00">init/ServerSocket.hpp</text>
</a>
</g>
</g>
<!-- Node1&#45;&gt;Node8 -->
<g id="edge55_Node000001_Node000008" class="edge">
<title>Node1&#45;&gt;Node8</title>
<g id="a_edge55_Node000001_Node000008"><a xlink:title=" ">
<path fill="none" stroke="#63b8ff" d="M741.2,-329.84C785.63,-310.8 892.04,-265.2 943.77,-243.03"/>
<polygon fill="#63b8ff" stroke="#63b8ff" points="945.24,-246.2 953.06,-239.05 942.49,-239.77 945.24,-246.2"/>
</a>
</g>
</g>
<!-- Node19 -->
<g id="Node000019" class="node">
<title>Node19</title>
<g id="a_Node000019"><a xlink:href="Signals_8hpp.html" target="_top" xlink:title=" ">
<polygon fill="white" stroke="#666666" points="1189.5,-239 1092.5,-239 1092.5,-220 1189.5,-220 1189.5,-239"/>
<text text-anchor="middle" x="1141" y="-227" font-family="Helvetica,sans-Serif" font-size="10.00">utils/Signals.hpp</text>
</a>
</g>
</g>
<!-- Node1&#45;&gt;Node19 -->
<g id="edge68_Node000001_Node000019" class="edge">
<title>Node1&#45;&gt;Node19</title>
<g id="a_edge68_Node000001_Node000019"><a xlink:title=" ">
<path fill="none" stroke="#63b8ff" d="M752.23,-330.47C826.39,-311.4 1013.27,-263.35 1098.02,-241.55"/>
<polygon fill="#63b8ff" stroke="#63b8ff" points="1099.02,-244.91 1107.83,-239.03 1097.28,-238.13 1099.02,-244.91"/>
</a>
</g>
</g>
<!-- Node24 -->
<g id="Node000024" class="node">
<title>Node24</title>
<g id="a_Node000024"><a xlink:href="Config_8hpp.html" target="_top" xlink:title=" ">
<polygon fill="white" stroke="#666666" points="452.5,-239 351.5,-239 351.5,-220 452.5,-220 452.5,-239"/>
<text text-anchor="middle" x="402" y="-227" font-family="Helvetica,sans-Serif" font-size="10.00">config/Config.hpp</text>
</a>
</g>
</g>
<!-- Node1&#45;&gt;Node24 -->
<g id="edge62_Node000001_Node000024" class="edge">
<title>Node1&#45;&gt;Node24</title>
<g id="a_edge62_Node000001_Node000024"><a xlink:title=" ">
<path fill="none" stroke="#63b8ff" d="M695.7,-329.94C639.05,-310.76 501.89,-264.32 437.06,-242.37"/>
<polygon fill="#63b8ff" stroke="#63b8ff" points="437.89,-238.96 427.3,-239.07 435.65,-245.59 437.89,-238.96"/>
</a>
</g>
</g>
<!-- Node25 -->
<g id="Node000025" class="node">
<title>Node25</title>
<g id="a_Node000025"><a xlink:href="ConfigParser_8hpp.html" target="_top" xlink:title=" ">
<polygon fill="white" stroke="#666666" points="428,-294 298,-294 298,-275 428,-275 428,-294"/>
<text text-anchor="middle" x="363" y="-282" font-family="Helvetica,sans-Serif" font-size="10.00">config/ConfigParser.hpp</text>
</a>
</g>
</g>
<!-- Node1&#45;&gt;Node25 -->
<g id="edge56_Node000001_Node000025" class="edge">
<title>Node1&#45;&gt;Node25</title>
<g id="a_edge56_Node000001_Node000025"><a xlink:title=" ">
<path fill="none" stroke="#63b8ff" d="M689.86,-333.89C632.39,-325.38 508.45,-307.03 430.78,-295.54"/>
<polygon fill="#63b8ff" stroke="#63b8ff" points="431.02,-292.03 420.61,-294.03 429.99,-298.96 431.02,-292.03"/>
</a>
</g>
</g>
<!-- Node26 -->
<g id="Node000026" class="node">
<title>Node26</title>
<g id="a_Node000026"><a xlink:href="Logger_8hpp.html" target="_top" xlink:title=" ">
<polygon fill="white" stroke="#666666" points="1292,-294 1198,-294 1198,-275 1292,-275 1292,-294"/>
<text text-anchor="middle" x="1245" y="-282" font-family="Helvetica,sans-Serif" font-size="10.00">utils/Logger.hpp</text>
</a>
</g>
</g>
<!-- Node1&#45;&gt;Node26 -->
<g id="edge63_Node000001_Node000026" class="edge">
<title>Node1&#45;&gt;Node26</title>
<g id="a_edge63_Node000001_Node000026"><a xlink:title=" ">
<path fill="none" stroke="#63b8ff" d="M752.21,-335.34C837.78,-326.69 1077.08,-302.48 1187.65,-291.3"/>
<polygon fill="#63b8ff" stroke="#63b8ff" points="1188.02,-294.78 1197.62,-290.29 1187.32,-287.82 1188.02,-294.78"/>
</a>
</g>
</g>
<!-- Node6 -->
<g id="Node000006" class="node">
<title>Node6</title>
<g id="a_Node000006"><a xlink:title=" ">
<polygon fill="#e0e0e0" stroke="#999999" points="361.5,-74 314.5,-74 314.5,-55 361.5,-55 361.5,-74"/>
<text text-anchor="middle" x="338" y="-62" font-family="Helvetica,sans-Serif" font-size="10.00">vector</text>
</a>
</g>
</g>
<!-- Node5&#45;&gt;Node6 -->
<g id="edge5_Node000005_Node000006" class="edge">
<title>Node5&#45;&gt;Node6</title>
<g id="a_edge5_Node000005_Node000006"><a xlink:title=" ">
<path fill="none" stroke="#63b8ff" d="M702.37,-274.94C666.88,-258.44 587.35,-220.65 523,-184 461.8,-149.15 392.64,-102.93 358.84,-79.87"/>
<polygon fill="#63b8ff" stroke="#63b8ff" points="360.51,-76.77 350.28,-74 356.56,-82.54 360.51,-76.77"/>
</a>
</g>
</g>
<!-- Node7 -->
<g id="Node000007" class="node">
<title>Node7</title>
<g id="a_Node000007"><a xlink:title=" ">
<polygon fill="#e0e0e0" stroke="#999999" points="977,-74 939,-74 939,-55 977,-55 977,-74"/>
<text text-anchor="middle" x="958" y="-62" font-family="Helvetica,sans-Serif" font-size="10.00">map</text>
</a>
</g>
</g>
<!-- Node5&#45;&gt;Node7 -->
<g id="edge6_Node000005_Node000007" class="edge">
<title>Node5&#45;&gt;Node7</title>
<g id="a_edge6_Node000005_Node000007"><a xlink:title=" ">
<path fill="none" stroke="#63b8ff" d="M722.15,-274.69C724.14,-261.86 729.11,-237.62 740,-220 777.52,-159.28 797.49,-149.4 857,-110 879.66,-95 908.2,-82.97 929.16,-75.21"/>
<polygon fill="#63b8ff" stroke="#63b8ff" points="930.55,-78.43 938.78,-71.76 928.19,-71.84 930.55,-78.43"/>
</a>
</g>
</g>
<!-- Node5&#45;&gt;Node8 -->
<g id="edge7_Node000005_Node000008" class="edge">
<title>Node5&#45;&gt;Node8</title>
<g id="a_edge7_Node000005_Node000008"><a xlink:title=" ">
<path fill="none" stroke="#63b8ff" d="M761.49,-274.98C805.17,-265.8 874.81,-251.15 922.15,-241.19"/>
<polygon fill="#63b8ff" stroke="#63b8ff" points="923.13,-244.57 932.19,-239.08 921.69,-237.72 923.13,-244.57"/>
</a>
</g>
</g>
<!-- Node5&#45;&gt;Node19 -->
<g id="edge28_Node000005_Node000019" class="edge">
<title>Node5&#45;&gt;Node19</title>
<g id="a_edge28_Node000005_Node000019"><a xlink:title=" ">
<path fill="none" stroke="#63b8ff" d="M775.05,-276.68C854.09,-266.71 1000.64,-248.21 1082.26,-237.91"/>
<polygon fill="#63b8ff" stroke="#63b8ff" points="1082.88,-241.36 1092.37,-236.64 1082.01,-234.42 1082.88,-241.36"/>
</a>
</g>
</g>
<!-- Node21 -->
<g id="Node000021" class="node">
<title>Node21</title>
<g id="a_Node000021"><a xlink:href="CgiHandler_8hpp.html" target="_top" xlink:title=" ">
<polygon fill="white" stroke="#666666" points="894.5,-239 749.5,-239 749.5,-220 894.5,-220 894.5,-239"/>
<text text-anchor="middle" x="822" y="-227" font-family="Helvetica,sans-Serif" font-size="10.00">dispatcher/CgiHandler.hpp</text>
</a>
</g>
</g>
<!-- Node5&#45;&gt;Node21 -->
<g id="edge33_Node000005_Node000021" class="edge">
<title>Node5&#45;&gt;Node21</title>
<g id="a_edge33_Node000005_Node000021"><a xlink:title=" ">
<path fill="none" stroke="#63b8ff" d="M737.23,-274.98C753.18,-266.61 777.78,-253.7 796.38,-243.95"/>
<polygon fill="#63b8ff" stroke="#63b8ff" points="798.25,-246.92 805.48,-239.17 795,-240.72 798.25,-246.92"/>
</a>
</g>
</g>
<!-- Node22 -->
<g id="Node000022" class="node">
<title>Node22</title>
<g id="a_Node000022"><a xlink:href="ServerConfig_8hpp.html" target="_top" xlink:title=" ">
<polygon fill="white" stroke="#666666" points="389,-184 257,-184 257,-165 389,-165 389,-184"/>
<text text-anchor="middle" x="323" y="-172" font-family="Helvetica,sans-Serif" font-size="10.00">config/ServerConfig.hpp</text>
</a>
</g>
</g>
<!-- Node5&#45;&gt;Node22 -->
<g id="edge42_Node000005_Node000022" class="edge">
<title>Node5&#45;&gt;Node22</title>
<g id="a_edge42_Node000005_Node000022"><a xlink:title=" ">
<path fill="none" stroke="#63b8ff" d="M691.62,-274.99C663.47,-266.62 619.93,-253.07 583,-239 563.48,-231.56 559.9,-226.36 540,-220 491.33,-204.45 434.74,-193.06 391.55,-185.69"/>
<polygon fill="#63b8ff" stroke="#63b8ff" points="391.87,-182.2 381.43,-184 390.72,-189.1 391.87,-182.2"/>
</a>
</g>
</g>
<!-- Node5&#45;&gt;Node24 -->
<g id="edge52_Node000005_Node000024" class="edge">
<title>Node5&#45;&gt;Node24</title>
<g id="a_edge52_Node000005_Node000024"><a xlink:title=" ">
<path fill="none" stroke="#63b8ff" d="M669.75,-274.98C613.31,-265.61 522.63,-250.54 462.68,-240.58"/>
<polygon fill="#63b8ff" stroke="#63b8ff" points="463.04,-237.09 452.6,-238.91 461.89,-244 463.04,-237.09"/>
</a>
</g>
</g>
<!-- Node8&#45;&gt;Node3 -->
<g id="edge8_Node000008_Node000003" class="edge">
<title>Node8&#45;&gt;Node3</title>
<g id="a_edge8_Node000008_Node000003"><a xlink:title=" ">
<path fill="none" stroke="#63b8ff" d="M1033.07,-220.78C1071.72,-214.31 1122.33,-202.99 1164,-184 1201.94,-166.71 1221.04,-166.13 1240,-129 1256.3,-97.08 1203.9,-56.06 1202,-55 1134.9,-17.37 582.06,-11.53 441.44,-10.65"/>
<polygon fill="#63b8ff" stroke="#63b8ff" points="441.33,-7.15 431.3,-10.59 441.28,-14.15 441.33,-7.15"/>
</a>
</g>
</g>
<!-- Node8&#45;&gt;Node6 -->
<g id="edge9_Node000008_Node000006" class="edge">
<title>Node8&#45;&gt;Node6</title>
<g id="a_edge9_Node000008_Node000006"><a xlink:title=" ">
<path fill="none" stroke="#63b8ff" d="M939.75,-219.97C830.24,-191.85 481.54,-102.35 371.56,-74.12"/>
<polygon fill="#63b8ff" stroke="#63b8ff" points="372.24,-70.68 361.68,-71.58 370.5,-77.46 372.24,-70.68"/>
</a>
</g>
</g>
<!-- Node9 -->
<g id="Node000009" class="node">
<title>Node9</title>
<g id="a_Node000009"><a xlink:href="ClientConnection_8hpp.html" target="_top" xlink:title=" ">
<polygon fill="white" stroke="#666666" points="1043,-184 903,-184 903,-165 1043,-165 1043,-184"/>
<text text-anchor="middle" x="973" y="-172" font-family="Helvetica,sans-Serif" font-size="10.00">init/ClientConnection.hpp</text>
</a>
</g>
</g>
<!-- Node8&#45;&gt;Node9 -->
<g id="edge10_Node000008_Node000009" class="edge">
<title>Node8&#45;&gt;Node9</title>
<g id="a_edge10_Node000008_Node000009"><a xlink:title=" ">
<path fill="none" stroke="#63b8ff" d="M973,-219.75C973,-212.8 973,-202.85 973,-194.13"/>
<polygon fill="#63b8ff" stroke="#63b8ff" points="976.5,-194.09 973,-184.09 969.5,-194.09 976.5,-194.09"/>
</a>
</g>
</g>
<!-- Node9&#45;&gt;Node3 -->
<g id="edge11_Node000009_Node000003" class="edge">
<title>Node9&#45;&gt;Node3</title>
<g id="a_edge11_Node000009_Node000003"><a xlink:title=" ">
<path fill="none" stroke="#63b8ff" d="M1036.88,-165C1068.49,-158.64 1106.17,-147.69 1136,-129 1169.22,-108.18 1210.91,-83.5 1184,-55 1158.13,-27.6 585.84,-14.11 441.72,-11.14"/>
<polygon fill="#63b8ff" stroke="#63b8ff" points="441.41,-7.63 431.34,-10.93 441.27,-14.63 441.41,-7.63"/>
</a>
</g>
</g>
<!-- Node10 -->
<g id="Node000010" class="node">
<title>Node10</title>
<g id="a_Node000010"><a xlink:title=" ">
<polygon fill="#e0e0e0" stroke="#999999" points="1231,-129 1187,-129 1187,-110 1231,-110 1231,-129"/>
<text text-anchor="middle" x="1209" y="-117" font-family="Helvetica,sans-Serif" font-size="10.00">ctime</text>
</a>
</g>
</g>
<!-- Node9&#45;&gt;Node10 -->
<g id="edge12_Node000009_Node000010" class="edge">
<title>Node9&#45;&gt;Node10</title>
<g id="a_edge12_Node000009_Node000010"><a xlink:title=" ">
<path fill="none" stroke="#63b8ff" d="M1012.12,-164.95C1052.47,-156.1 1117.18,-141.8 1173,-129 1174.27,-128.71 1175.56,-128.41 1176.86,-128.11"/>
<polygon fill="#63b8ff" stroke="#63b8ff" points="1177.98,-131.44 1186.93,-125.76 1176.39,-124.63 1177.98,-131.44"/>
</a>
</g>
</g>
<!-- Node11 -->
<g id="Node000011" class="node">
<title>Node11</title>
<g id="a_Node000011"><a xlink:title=" ">
<polygon fill="#e0e0e0" stroke="#999999" points="1127,-129 1055,-129 1055,-110 1127,-110 1127,-129"/>
<text text-anchor="middle" x="1091" y="-117" font-family="Helvetica,sans-Serif" font-size="10.00">sys/types.h</text>
</a>
</g>
</g>
<!-- Node9&#45;&gt;Node11 -->
<g id="edge13_Node000009_Node000011" class="edge">
<title>Node9&#45;&gt;Node11</title>
<g id="a_edge13_Node000009_Node000011"><a xlink:title=" ">
<path fill="none" stroke="#63b8ff" d="M991.96,-164.98C1011.03,-156.42 1040.66,-143.11 1062.55,-133.28"/>
<polygon fill="#63b8ff" stroke="#63b8ff" points="1064.01,-136.46 1071.7,-129.17 1061.14,-130.07 1064.01,-136.46"/>
</a>
</g>
</g>
<!-- Node12 -->
<g id="Node000012" class="node">
<title>Node12</title>
<g id="a_Node000012"><a xlink:href="HttpRequest_8hpp.html" target="_top" xlink:title=" ">
<polygon fill="white" stroke="#666666" points="735,-129 597,-129 597,-110 735,-110 735,-129"/>
<text text-anchor="middle" x="666" y="-117" font-family="Helvetica,sans-Serif" font-size="10.00">request/HttpRequest.hpp</text>
</a>
</g>
</g>
<!-- Node9&#45;&gt;Node12 -->
<g id="edge14_Node000009_Node000012" class="edge">
<title>Node9&#45;&gt;Node12</title>
<g id="a_edge14_Node000009_Node000012"><a xlink:title=" ">
<path fill="none" stroke="#63b8ff" d="M923.68,-164.98C869.71,-155.67 783.22,-140.74 725.52,-130.78"/>
<polygon fill="#63b8ff" stroke="#63b8ff" points="725.91,-127.29 715.46,-129.04 724.72,-134.19 725.91,-127.29"/>
</a>
</g>
</g>
<!-- Node18 -->
<g id="Node000018" class="node">
<title>Node18</title>
<g id="a_Node000018"><a xlink:href="HttpResponse_8hpp.html" target="_top" xlink:title=" ">
<polygon fill="white" stroke="#666666" points="1036.5,-129 883.5,-129 883.5,-110 1036.5,-110 1036.5,-129"/>
<text text-anchor="middle" x="960" y="-117" font-family="Helvetica,sans-Serif" font-size="10.00">response/HttpResponse.hpp</text>
</a>
</g>
</g>
<!-- Node9&#45;&gt;Node18 -->
<g id="edge24_Node000009_Node000018" class="edge">
<title>Node9&#45;&gt;Node18</title>
<g id="a_edge24_Node000009_Node000018"><a xlink:title=" ">
<path fill="none" stroke="#63b8ff" d="M970.85,-164.75C969.13,-157.72 966.65,-147.62 964.5,-138.84"/>
<polygon fill="#63b8ff" stroke="#63b8ff" points="967.89,-137.97 962.11,-129.09 961.09,-139.63 967.89,-137.97"/>
</a>
</g>
</g>
<!-- Node12&#45;&gt;Node3 -->
<g id="edge15_Node000012_Node000003" class="edge">
<title>Node12&#45;&gt;Node3</title>
<g id="a_edge15_Node000012_Node000003"><a xlink:title=" ">
<path fill="none" stroke="#63b8ff" d="M596.94,-110.61C542.09,-103.24 470.79,-90.84 447,-74 431.31,-62.89 420.97,-43.07 415.1,-28.51"/>
<polygon fill="#63b8ff" stroke="#63b8ff" points="418.35,-27.21 411.59,-19.05 411.78,-29.64 418.35,-27.21"/>
</a>
</g>
</g>
<!-- Node12&#45;&gt;Node6 -->
<g id="edge17_Node000012_Node000006" class="edge">
<title>Node12&#45;&gt;Node6</title>
<g id="a_edge17_Node000012_Node000006"><a xlink:title=" ">
<path fill="none" stroke="#63b8ff" d="M613.3,-109.98C545.28,-98.99 428.89,-80.19 371.71,-70.95"/>
<polygon fill="#63b8ff" stroke="#63b8ff" points="372.18,-67.48 361.75,-69.34 371.07,-74.39 372.18,-67.48"/>
</a>
</g>
</g>
<!-- Node12&#45;&gt;Node7 -->
<g id="edge16_Node000012_Node000007" class="edge">
<title>Node12&#45;&gt;Node7</title>
<g id="a_edge16_Node000012_Node000007"><a xlink:title=" ">
<path fill="none" stroke="#63b8ff" d="M728.85,-109.99C782.39,-102.23 861.2,-89.62 929,-74 929.1,-73.98 929.2,-73.95 929.3,-73.93"/>
<polygon fill="#63b8ff" stroke="#63b8ff" points="929.94,-77.38 938.74,-71.49 928.18,-70.6 929.94,-77.38"/>
</a>
</g>
</g>
<!-- Node13 -->
<g id="Node000013" class="node">
<title>Node13</title>
<g id="a_Node000013"><a xlink:href="RequestMethod_8hpp.html" target="_top" xlink:title=" ">
<polygon fill="white" stroke="#666666" points="258,-74 104,-74 104,-55 258,-55 258,-74"/>
<text text-anchor="middle" x="181" y="-62" font-family="Helvetica,sans-Serif" font-size="10.00">request/RequestMethod.hpp</text>
</a>
</g>
</g>
<!-- Node12&#45;&gt;Node13 -->
<g id="edge18_Node000012_Node000013" class="edge">
<title>Node12&#45;&gt;Node13</title>
<g id="a_edge18_Node000012_Node000013"><a xlink:title=" ">
<path fill="none" stroke="#63b8ff" d="M596.77,-110.93C510.28,-101.48 362.24,-85.31 268.12,-75.02"/>
<polygon fill="#63b8ff" stroke="#63b8ff" points="268.38,-71.53 258.06,-73.92 267.62,-78.49 268.38,-71.53"/>
</a>
</g>
</g>
<!-- Node14 -->
<g id="Node000014" class="node">
<title>Node14</title>
<g id="a_Node000014"><a xlink:href="RequestMeta_8hpp.html" target="_top" xlink:title=" ">
<polygon fill="white" stroke="#666666" points="598,-74 456,-74 456,-55 598,-55 598,-74"/>
<text text-anchor="middle" x="527" y="-62" font-family="Helvetica,sans-Serif" font-size="10.00">request/RequestMeta.hpp</text>
</a>
</g>
</g>
<!-- Node12&#45;&gt;Node14 -->
<g id="edge19_Node000012_Node000014" class="edge">
<title>Node12&#45;&gt;Node14</title>
<g id="a_edge19_Node000012_Node000014"><a xlink:title=" ">
<path fill="none" stroke="#63b8ff" d="M643.67,-109.98C620.8,-101.27 585.04,-87.63 559.14,-77.75"/>
<polygon fill="#63b8ff" stroke="#63b8ff" points="560.33,-74.46 549.74,-74.17 557.84,-81 560.33,-74.46"/>
</a>
</g>
</g>
<!-- Node15 -->
<g id="Node000015" class="node">
<title>Node15</title>
<g id="a_Node000015"><a xlink:href="RequestState_8hpp.html" target="_top" xlink:title=" ">
<polygon fill="white" stroke="#666666" points="759.5,-74 616.5,-74 616.5,-55 759.5,-55 759.5,-74"/>
<text text-anchor="middle" x="688" y="-62" font-family="Helvetica,sans-Serif" font-size="10.00">request/RequestState.hpp</text>
</a>
</g>
</g>
<!-- Node12&#45;&gt;Node15 -->
<g id="edge21_Node000012_Node000015" class="edge">
<title>Node12&#45;&gt;Node15</title>
<g id="a_edge21_Node000012_Node000015"><a xlink:title=" ">
<path fill="none" stroke="#63b8ff" d="M669.63,-109.75C672.58,-102.65 676.83,-92.4 680.51,-83.56"/>
<polygon fill="#63b8ff" stroke="#63b8ff" points="683.83,-84.67 684.43,-74.09 677.37,-81.98 683.83,-84.67"/>
</a>
</g>
</g>
<!-- Node16 -->
<g id="Node000016" class="node">
<title>Node16</title>
<g id="a_Node000016"><a xlink:href="ResponseStatus_8hpp.html" target="_top" xlink:title=" ">
<polygon fill="white" stroke="#666666" points="1158.5,-74 995.5,-74 995.5,-55 1158.5,-55 1158.5,-74"/>
<text text-anchor="middle" x="1077" y="-62" font-family="Helvetica,sans-Serif" font-size="10.00">response/ResponseStatus.hpp</text>
</a>
</g>
</g>
<!-- Node12&#45;&gt;Node16 -->
<g id="edge22_Node000012_Node000016" class="edge">
<title>Node12&#45;&gt;Node16</title>
<g id="a_edge22_Node000012_Node000016"><a xlink:title=" ">
<path fill="none" stroke="#63b8ff" d="M732.03,-109.98C805.33,-100.53 923.43,-85.3 1000.64,-75.35"/>
<polygon fill="#63b8ff" stroke="#63b8ff" points="1001.32,-78.79 1010.79,-74.04 1000.42,-71.85 1001.32,-78.79"/>
</a>
</g>
</g>
<!-- Node17 -->
<g id="Node000017" class="node">
<title>Node17</title>
<g id="a_Node000017"><a xlink:href="RouteType_8hpp.html" target="_top" xlink:title=" ">
<polygon fill="white" stroke="#666666" points="920.5,-74 777.5,-74 777.5,-55 920.5,-55 920.5,-74"/>
<text text-anchor="middle" x="849" y="-62" font-family="Helvetica,sans-Serif" font-size="10.00">dispatcher/RouteType.hpp</text>
</a>
</g>
</g>
<!-- Node12&#45;&gt;Node17 -->
<g id="edge23_Node000012_Node000017" class="edge">
<title>Node12&#45;&gt;Node17</title>
<g id="a_edge23_Node000012_Node000017"><a xlink:title=" ">
<path fill="none" stroke="#63b8ff" d="M695.4,-109.98C726.39,-101.01 775.38,-86.82 809.67,-76.89"/>
<polygon fill="#63b8ff" stroke="#63b8ff" points="810.74,-80.23 819.37,-74.08 808.79,-73.5 810.74,-80.23"/>
</a>
</g>
</g>
<!-- Node14&#45;&gt;Node3 -->
<g id="edge20_Node000014_Node000003" class="edge">
<title>Node14&#45;&gt;Node3</title>
<g id="a_edge20_Node000014_Node000003"><a xlink:title=" ">
<path fill="none" stroke="#63b8ff" d="M508.04,-54.98C488.97,-46.42 459.34,-33.11 437.45,-23.28"/>
<polygon fill="#63b8ff" stroke="#63b8ff" points="438.86,-20.07 428.3,-19.17 435.99,-26.46 438.86,-20.07"/>
</a>
</g>
</g>
<!-- Node18&#45;&gt;Node3 -->
<g id="edge25_Node000018_Node000003" class="edge">
<title>Node18&#45;&gt;Node3</title>
<g id="a_edge25_Node000018_Node000003"><a xlink:title=" ">
<path fill="none" stroke="#63b8ff" d="M1017.33,-109.99C1075.54,-100.77 1158.46,-85.79 1168,-74 1173.31,-67.43 1173.79,-61.14 1168,-55 1142.71,-28.18 583.41,-14.28 441.5,-11.18"/>
<polygon fill="#63b8ff" stroke="#63b8ff" points="441.35,-7.67 431.28,-10.95 441.2,-14.67 441.35,-7.67"/>
</a>
</g>
</g>
<!-- Node18&#45;&gt;Node7 -->
<g id="edge26_Node000018_Node000007" class="edge">
<title>Node18&#45;&gt;Node7</title>
<g id="a_edge26_Node000018_Node000007"><a xlink:title=" ">
<path fill="none" stroke="#63b8ff" d="M959.67,-109.75C959.41,-102.8 959.03,-92.85 958.7,-84.13"/>
<polygon fill="#63b8ff" stroke="#63b8ff" points="962.2,-83.95 958.32,-74.09 955.2,-84.21 962.2,-83.95"/>
</a>
</g>
</g>
<!-- Node18&#45;&gt;Node16 -->
<g id="edge27_Node000018_Node000016" class="edge">
<title>Node18&#45;&gt;Node16</title>
<g id="a_edge27_Node000018_Node000016"><a xlink:title=" ">
<path fill="none" stroke="#63b8ff" d="M978.8,-109.98C997.62,-101.46 1026.82,-88.23 1048.5,-78.41"/>
<polygon fill="#63b8ff" stroke="#63b8ff" points="1050.2,-81.48 1057.86,-74.17 1047.31,-75.11 1050.2,-81.48"/>
</a>
</g>
</g>
<!-- Node19&#45;&gt;Node4 -->
<g id="edge29_Node000019_Node000004" class="edge">
<title>Node19&#45;&gt;Node4</title>
<g id="a_edge29_Node000019_Node000004"><a xlink:title=" ">
<path fill="none" stroke="#63b8ff" d="M1180.04,-219.98C1226.59,-209.83 1303.72,-193.01 1348.6,-183.22"/>
<polygon fill="#63b8ff" stroke="#63b8ff" points="1349.45,-186.62 1358.47,-181.07 1347.96,-179.78 1349.45,-186.62"/>
</a>
</g>
</g>
<!-- Node19&#45;&gt;Node7 -->
<g id="edge31_Node000019_Node000007" class="edge">
<title>Node19&#45;&gt;Node7</title>
<g id="a_edge31_Node000019_Node000007"><a xlink:title=" ">
<path fill="none" stroke="#63b8ff" d="M1157.91,-219.93C1194.55,-200.29 1275.24,-150.59 1240,-110 1204.45,-69.06 1057.09,-84.57 987.29,-73.65"/>
<polygon fill="#63b8ff" stroke="#63b8ff" points="987.65,-70.16 977.18,-71.75 986.36,-77.04 987.65,-70.16"/>
</a>
</g>
</g>
<!-- Node19&#45;&gt;Node10 -->
<g id="edge30_Node000019_Node000010" class="edge">
<title>Node19&#45;&gt;Node10</title>
<g id="a_edge30_Node000019_Node000010"><a xlink:title=" ">
<path fill="none" stroke="#63b8ff" d="M1146.56,-219.66C1157.83,-201.77 1183.5,-161 1198.17,-137.69"/>
<polygon fill="#63b8ff" stroke="#63b8ff" points="1201.18,-139.49 1203.55,-129.16 1195.26,-135.76 1201.18,-139.49"/>
</a>
</g>
</g>
<!-- Node20 -->
<g id="Node000020" class="node">
<title>Node20</title>
<g id="a_Node000020"><a xlink:title=" ">
<polygon fill="#e0e0e0" stroke="#999999" points="1155,-184 1099,-184 1099,-165 1155,-165 1155,-184"/>
<text text-anchor="middle" x="1127" y="-172" font-family="Helvetica,sans-Serif" font-size="10.00">unistd.h</text>
</a>
</g>
</g>
<!-- Node19&#45;&gt;Node20 -->
<g id="edge32_Node000019_Node000020" class="edge">
<title>Node19&#45;&gt;Node20</title>
<g id="a_edge32_Node000019_Node000020"><a xlink:title=" ">
<path fill="none" stroke="#63b8ff" d="M1138.69,-219.75C1136.83,-212.72 1134.16,-202.62 1131.85,-193.84"/>
<polygon fill="#63b8ff" stroke="#63b8ff" points="1135.21,-192.86 1129.27,-184.09 1128.44,-194.65 1135.21,-192.86"/>
</a>
</g>
</g>
<!-- Node21&#45;&gt;Node3 -->
<g id="edge34_Node000021_Node000003" class="edge">
<title>Node21&#45;&gt;Node3</title>
<g id="a_edge34_Node000021_Node000003"><a xlink:title=" ">
<path fill="none" stroke="#63b8ff" d="M798.45,-219.98C715.24,-189.79 439.37,-88.93 426,-74 415.06,-61.78 411.04,-43.26 409.63,-29.37"/>
<polygon fill="#63b8ff" stroke="#63b8ff" points="413.1,-28.78 408.95,-19.03 406.11,-29.24 413.1,-28.78"/>
</a>
</g>
</g>
<!-- Node21&#45;&gt;Node6 -->
<g id="edge35_Node000021_Node000006" class="edge">
<title>Node21&#45;&gt;Node6</title>
<g id="a_edge35_Node000021_Node000006"><a xlink:title=" ">
<path fill="none" stroke="#63b8ff" d="M749.46,-226.93C693.91,-223.29 616.61,-212.84 555,-184 509.33,-162.62 512.78,-135.01 469,-110 438.12,-92.36 399.13,-80.24 371.75,-73.15"/>
<polygon fill="#63b8ff" stroke="#63b8ff" points="372.41,-69.71 361.86,-70.68 370.71,-76.5 372.41,-69.71"/>
</a>
</g>
</g>
<!-- Node21&#45;&gt;Node7 -->
<g id="edge36_Node000021_Node000007" class="edge">
<title>Node21&#45;&gt;Node7</title>
<g id="a_edge36_Node000021_Node000007"><a xlink:title=" ">
<path fill="none" stroke="#63b8ff" d="M823.7,-219.97C828.31,-198.89 842.81,-143.58 874,-110 889.07,-93.78 911.41,-82.34 929.27,-75.12"/>
<polygon fill="#63b8ff" stroke="#63b8ff" points="930.55,-78.38 938.65,-71.54 928.06,-71.84 930.55,-78.38"/>
</a>
</g>
</g>
<!-- Node21&#45;&gt;Node9 -->
<g id="edge41_Node000021_Node000009" class="edge">
<title>Node21&#45;&gt;Node9</title>
<g id="a_edge41_Node000021_Node000009"><a xlink:title=" ">
<path fill="none" stroke="#63b8ff" d="M846.26,-219.98C871.32,-211.19 910.63,-197.39 938.83,-187.49"/>
<polygon fill="#63b8ff" stroke="#63b8ff" points="940.02,-190.78 948.3,-184.17 937.7,-184.18 940.02,-190.78"/>
</a>
</g>
</g>
<!-- Node21&#45;&gt;Node10 -->
<g id="edge37_Node000021_Node000010" class="edge">
<title>Node21&#45;&gt;Node10</title>
<g id="a_edge37_Node000021_Node000010"><a xlink:title=" ">
<path fill="none" stroke="#63b8ff" d="M892.22,-219.98C938.44,-213.15 999.82,-201.72 1052,-184 1069.88,-177.93 1072.69,-172.54 1090,-165 1119.02,-152.36 1152.9,-139.91 1177.07,-131.41"/>
<polygon fill="#63b8ff" stroke="#63b8ff" points="1178.5,-134.61 1186.79,-128.01 1176.19,-128 1178.5,-134.61"/>
</a>
</g>
</g>
<!-- Node21&#45;&gt;Node12 -->
<g id="edge39_Node000021_Node000012" class="edge">
<title>Node21&#45;&gt;Node12</title>
<g id="a_edge39_Node000021_Node000012"><a xlink:title=" ">
<path fill="none" stroke="#63b8ff" d="M809.5,-219.84C782.8,-201.36 719.96,-157.86 687.01,-135.05"/>
<polygon fill="#63b8ff" stroke="#63b8ff" points="688.78,-132.01 678.56,-129.2 684.79,-137.77 688.78,-132.01"/>
</a>
</g>
</g>
<!-- Node21&#45;&gt;Node18 -->
<g id="edge40_Node000021_Node000018" class="edge">
<title>Node21&#45;&gt;Node18</title>
<g id="a_edge40_Node000021_Node000018"><a xlink:title=" ">
<path fill="none" stroke="#63b8ff" d="M830.99,-219.88C844.31,-207.29 870.26,-183.35 894,-165 907.99,-154.19 924.48,-143.07 937.48,-134.65"/>
<polygon fill="#63b8ff" stroke="#63b8ff" points="939.71,-137.38 946.24,-129.04 935.93,-131.48 939.71,-137.38"/>
</a>
</g>
</g>
<!-- Node21&#45;&gt;Node20 -->
<g id="edge38_Node000021_Node000020" class="edge">
<title>Node21&#45;&gt;Node20</title>
<g id="a_edge38_Node000021_Node000020"><a xlink:title=" ">
<path fill="none" stroke="#63b8ff" d="M875.48,-219.97C928.69,-211.36 1012.61,-197.45 1085,-184 1086.1,-183.8 1087.21,-183.59 1088.33,-183.37"/>
<polygon fill="#63b8ff" stroke="#63b8ff" points="1089.41,-186.73 1098.56,-181.38 1088.07,-179.86 1089.41,-186.73"/>
</a>
</g>
</g>
<!-- Node22&#45;&gt;Node3 -->
<g id="edge43_Node000022_Node000003" class="edge">
<title>Node22&#45;&gt;Node3</title>
<g id="a_edge43_Node000022_Node000003"><a xlink:title=" ">
<path fill="none" stroke="#63b8ff" d="M263.86,-164.95C179.84,-150.43 41.7,-116.39 95,-55 131.22,-13.28 303.64,-9.62 376.44,-9.99"/>
<polygon fill="#63b8ff" stroke="#63b8ff" points="376.81,-13.5 386.83,-10.08 376.86,-6.5 376.81,-13.5"/>
</a>
</g>
</g>
<!-- Node22&#45;&gt;Node6 -->
<g id="edge44_Node000022_Node000006" class="edge">
<title>Node22&#45;&gt;Node6</title>
<g id="a_edge44_Node000022_Node000006"><a xlink:title=" ">
<path fill="none" stroke="#63b8ff" d="M333.44,-164.87C342.42,-156.7 354.74,-143.55 360,-129 365.63,-113.44 358.26,-95.62 350.58,-82.83"/>
<polygon fill="#63b8ff" stroke="#63b8ff" points="353.28,-80.57 344.85,-74.15 347.44,-84.43 353.28,-80.57"/>
</a>
</g>
</g>
<!-- Node22&#45;&gt;Node7 -->
<g id="edge45_Node000022_Node000007" class="edge">
<title>Node22&#45;&gt;Node7</title>
<g id="a_edge45_Node000022_Node000007"><a xlink:title=" ">
<path fill="none" stroke="#63b8ff" d="M389.05,-172.82C472.94,-170.52 621.5,-161.68 744,-129 764.19,-123.61 767.25,-116.81 787,-110 848.55,-88.77 866.19,-91.16 929,-74 929.1,-73.97 929.2,-73.94 929.3,-73.92"/>
<polygon fill="#63b8ff" stroke="#63b8ff" points="930.33,-77.27 939,-71.18 928.42,-70.53 930.33,-77.27"/>
</a>
</g>
</g>
<!-- Node22&#45;&gt;Node13 -->
<g id="edge51_Node000022_Node000013" class="edge">
<title>Node22&#45;&gt;Node13</title>
<g id="a_edge51_Node000022_Node000013"><a xlink:title=" ">
<path fill="none" stroke="#63b8ff" d="M267.86,-164.98C244.12,-158.7 217.78,-147.81 200,-129 188.52,-116.86 183.95,-98.06 182.15,-84.07"/>
<polygon fill="#63b8ff" stroke="#63b8ff" points="185.63,-83.72 181.21,-74.09 178.66,-84.37 185.63,-83.72"/>
</a>
</g>
</g>
<!-- Node23 -->
<g id="Node000023" class="node">
<title>Node23</title>
<g id="a_Node000023"><a xlink:href="LocationConfig_8hpp.html" target="_top" xlink:title=" ">
<polygon fill="white" stroke="#666666" points="351,-129 209,-129 209,-110 351,-110 351,-129"/>
<text text-anchor="middle" x="280" y="-117" font-family="Helvetica,sans-Serif" font-size="10.00">config/LocationConfig.hpp</text>
</a>
</g>
</g>
<!-- Node22&#45;&gt;Node23 -->
<g id="edge46_Node000022_Node000023" class="edge">
<title>Node22&#45;&gt;Node23</title>
<g id="a_edge46_Node000022_Node000023"><a xlink:title=" ">
<path fill="none" stroke="#63b8ff" d="M315.9,-164.75C309.83,-157.26 300.91,-146.28 293.49,-137.13"/>
<polygon fill="#63b8ff" stroke="#63b8ff" points="295.99,-134.65 286.97,-129.09 290.55,-139.06 295.99,-134.65"/>
</a>
</g>
</g>
<!-- Node23&#45;&gt;Node3 -->
<g id="edge48_Node000023_Node000003" class="edge">
<title>Node23&#45;&gt;Node3</title>
<g id="a_edge48_Node000023_Node000003"><a xlink:title=" ">
<path fill="none" stroke="#63b8ff" d="M281.22,-109.97C283.54,-96.6 289.81,-70.64 305,-55 324.34,-35.09 354.03,-23.6 376.74,-17.3"/>
<polygon fill="#63b8ff" stroke="#63b8ff" points="377.81,-20.64 386.63,-14.76 376.07,-13.86 377.81,-20.64"/>
</a>
</g>
</g>
<!-- Node23&#45;&gt;Node6 -->
<g id="edge47_Node000023_Node000006" class="edge">
<title>Node23&#45;&gt;Node6</title>
<g id="a_edge47_Node000023_Node000006"><a xlink:title=" ">
<path fill="none" stroke="#63b8ff" d="M289.32,-109.98C297.81,-102.23 310.56,-90.58 320.88,-81.14"/>
<polygon fill="#63b8ff" stroke="#63b8ff" points="323.49,-83.5 328.51,-74.17 318.77,-78.33 323.49,-83.5"/>
</a>
</g>
</g>
<!-- Node23&#45;&gt;Node7 -->
<g id="edge49_Node000023_Node000007" class="edge">
<title>Node23&#45;&gt;Node7</title>
<g id="a_edge49_Node000023_Node000007"><a xlink:title=" ">
<path fill="none" stroke="#63b8ff" d="M351.18,-115.57C495.85,-109.29 819.77,-93.51 929,-74 929.1,-73.98 929.2,-73.96 929.3,-73.95"/>
<polygon fill="#63b8ff" stroke="#63b8ff" points="929.84,-77.41 938.8,-71.76 928.27,-70.59 929.84,-77.41"/>
</a>
</g>
</g>
<!-- Node23&#45;&gt;Node13 -->
<g id="edge50_Node000023_Node000013" class="edge">
<title>Node23&#45;&gt;Node13</title>
<g id="a_edge50_Node000023_Node000013"><a xlink:title=" ">
<path fill="none" stroke="#63b8ff" d="M264.09,-109.98C248.45,-101.61 224.34,-88.7 206.12,-78.95"/>
<polygon fill="#63b8ff" stroke="#63b8ff" points="207.66,-75.8 197.2,-74.17 204.36,-81.98 207.66,-75.8"/>
</a>
</g>
</g>
<!-- Node24&#45;&gt;Node6 -->
<g id="edge53_Node000024_Node000006" class="edge">
<title>Node24&#45;&gt;Node6</title>
<g id="a_edge53_Node000024_Node000006"><a xlink:title=" ">
<path fill="none" stroke="#63b8ff" d="M402.36,-219.74C402.66,-207.37 402.47,-184.15 398,-165 391.97,-139.2 388.73,-132.66 375,-110 368.89,-99.92 360.62,-89.74 353.44,-81.66"/>
<polygon fill="#63b8ff" stroke="#63b8ff" points="355.84,-79.1 346.5,-74.1 350.68,-83.84 355.84,-79.1"/>
</a>
</g>
</g>
<!-- Node24&#45;&gt;Node22 -->
<g id="edge54_Node000024_Node000022" class="edge">
<title>Node24&#45;&gt;Node22</title>
<g id="a_edge54_Node000024_Node000022"><a xlink:title=" ">
<path fill="none" stroke="#63b8ff" d="M389.31,-219.98C377.17,-211.84 358.64,-199.41 344.25,-189.76"/>
<polygon fill="#63b8ff" stroke="#63b8ff" points="346.18,-186.84 335.92,-184.17 342.28,-192.65 346.18,-186.84"/>
</a>
</g>
</g>
<!-- Node25&#45;&gt;Node2 -->
<g id="edge58_Node000025_Node000002" class="edge">
<title>Node25&#45;&gt;Node2</title>
<g id="a_edge58_Node000025_Node000002"><a xlink:title=" ">
<path fill="none" stroke="#63b8ff" d="M385.17,-274.98C407.77,-266.3 443.06,-252.75 468.75,-242.88"/>
<polygon fill="#63b8ff" stroke="#63b8ff" points="470.34,-246.02 478.42,-239.17 467.83,-239.49 470.34,-246.02"/>
</a>
</g>
</g>
<!-- Node25&#45;&gt;Node3 -->
<g id="edge57_Node000025_Node000003" class="edge">
<title>Node25&#45;&gt;Node3</title>
<g id="a_edge57_Node000025_Node000003"><a xlink:title=" ">
<path fill="none" stroke="#63b8ff" d="M336.51,-274.95C253.56,-246.88 9.31,-153.69 95,-55 131.22,-13.28 303.64,-9.62 376.44,-9.99"/>
<polygon fill="#63b8ff" stroke="#63b8ff" points="376.81,-13.5 386.83,-10.08 376.86,-6.5 376.81,-13.5"/>
</a>
</g>
</g>
<!-- Node25&#45;&gt;Node13 -->
<g id="edge61_Node000025_Node000013" class="edge">
<title>Node25&#45;&gt;Node13</title>
<g id="a_edge61_Node000025_Node000013"><a xlink:title=" ">
<path fill="none" stroke="#63b8ff" d="M346.09,-274.94C309.03,-255.15 221.1,-202.22 185,-129 178.2,-115.21 177.61,-97.64 178.49,-84.48"/>
<polygon fill="#63b8ff" stroke="#63b8ff" points="182,-84.55 179.52,-74.25 175.04,-83.85 182,-84.55"/>
</a>
</g>
</g>
<!-- Node25&#45;&gt;Node22 -->
<g id="edge60_Node000025_Node000022" class="edge">
<title>Node25&#45;&gt;Node22</title>
<g id="a_edge60_Node000025_Node000022"><a xlink:title=" ">
<path fill="none" stroke="#63b8ff" d="M358.42,-274.8C353.87,-265.96 346.89,-251.76 342,-239 336.33,-224.21 331.27,-206.96 327.79,-194.18"/>
<polygon fill="#63b8ff" stroke="#63b8ff" points="331.11,-193.04 325.18,-184.27 324.35,-194.83 331.11,-193.04"/>
</a>
</g>
</g>
<!-- Node25&#45;&gt;Node24 -->
<g id="edge59_Node000025_Node000024" class="edge">
<title>Node25&#45;&gt;Node24</title>
<g id="a_edge59_Node000025_Node000024"><a xlink:title=" ">
<path fill="none" stroke="#63b8ff" d="M369.44,-274.75C374.89,-267.34 382.86,-256.5 389.56,-247.41"/>
<polygon fill="#63b8ff" stroke="#63b8ff" points="392.57,-249.22 395.68,-239.09 386.93,-245.07 392.57,-249.22"/>
</a>
</g>
</g>
<!-- Node26&#45;&gt;Node2 -->
<g id="edge66_Node000026_Node000002" class="edge">
<title>Node26&#45;&gt;Node2</title>
<g id="a_edge66_Node000026_Node000002"><a xlink:title=" ">
<path fill="none" stroke="#63b8ff" d="M1197.9,-280.14C1061.66,-270.44 668.8,-242.45 541.4,-233.38"/>
<polygon fill="#63b8ff" stroke="#63b8ff" points="541.53,-229.88 531.3,-232.66 541.03,-236.86 541.53,-229.88"/>
</a>
</g>
</g>
<!-- Node26&#45;&gt;Node10 -->
<g id="edge64_Node000026_Node000010" class="edge">
<title>Node26&#45;&gt;Node10</title>
<g id="a_edge64_Node000026_Node000010"><a xlink:title=" ">
<path fill="none" stroke="#63b8ff" d="M1243.06,-274.74C1237.42,-249.2 1220.91,-174.43 1213.14,-139.23"/>
<polygon fill="#63b8ff" stroke="#63b8ff" points="1216.52,-138.32 1210.95,-129.31 1209.68,-139.83 1216.52,-138.32"/>
</a>
</g>
</g>
<!-- Node27 -->
<g id="Node000027" class="node">
<title>Node27</title>
<g id="a_Node000027"><a xlink:title=" ">
<polygon fill="#e0e0e0" stroke="#999999" points="1402.5,-239 1347.5,-239 1347.5,-220 1402.5,-220 1402.5,-239"/>
<text text-anchor="middle" x="1375" y="-227" font-family="Helvetica,sans-Serif" font-size="10.00">fstream</text>
</a>
</g>
</g>
<!-- Node26&#45;&gt;Node27 -->
<g id="edge65_Node000026_Node000027" class="edge">
<title>Node26&#45;&gt;Node27</title>
<g id="a_edge65_Node000026_Node000027"><a xlink:title=" ">
<path fill="none" stroke="#63b8ff" d="M1265.89,-274.98C1287.08,-266.34 1320.13,-252.87 1344.3,-243.02"/>
<polygon fill="#63b8ff" stroke="#63b8ff" points="1345.79,-246.19 1353.73,-239.17 1343.15,-239.7 1345.79,-246.19"/>
</a>
</g>
</g>
<!-- Node28 -->
<g id="Node000028" class="node">
<title>Node28</title>
<g id="a_Node000028"><a xlink:title=" ">
<polygon fill="#e0e0e0" stroke="#999999" points="1329,-239 1273,-239 1273,-220 1329,-220 1329,-239"/>
<text text-anchor="middle" x="1301" y="-227" font-family="Helvetica,sans-Serif" font-size="10.00">sstream</text>
</a>
</g>
</g>
<!-- Node26&#45;&gt;Node28 -->
<g id="edge67_Node000026_Node000028" class="edge">
<title>Node26&#45;&gt;Node28</title>
<g id="a_edge67_Node000026_Node000028"><a xlink:title=" ">
<path fill="none" stroke="#63b8ff" d="M1254,-274.98C1262.19,-267.23 1274.51,-255.58 1284.47,-246.14"/>
<polygon fill="#63b8ff" stroke="#63b8ff" points="1286.98,-248.59 1291.84,-239.17 1282.17,-243.5 1286.98,-248.59"/>
</a>
</g>
</g>
</g>
</svg>
