<?xml version="1.0" encoding="UTF-8" standalone="no"?>
<!DOCTYPE svg PUBLIC "-//W3C//DTD SVG 1.1//EN"
 "http://www.w3.org/Graphics/SVG/1.1/DTD/svg11.dtd">
<!-- Generated by graphviz version 2.43.0 (0)
 -->
<!-- Title: main.cpp Pages: 1 -->
<!--zoomable 357 -->

<svg id="main" version="1.1" xmlns="http://www.w3.org/2000/svg" xmlns:xlink="http://www.w3.org/1999/xlink" xml:space="preserve" onload="init(evt)">
<style type="text/css"><![CDATA[
.node, .edge {opacity: 0.7;}
.node.selected, .edge.selected {opacity: 1;}
.edge:hover path { stroke: red; }
.edge:hover polygon { stroke: red; fill: red; }
]]></style>

<defs>
  <circle id="rim" cx="0" cy="0" r="7"/>
  <circle id="rim2" cx="0" cy="0" r="3.5"/>
  <g id="zoomPlus">
    <use xlink:href="#rim" fill="#404040"><set attributeName="fill" to="#808080" begin="zoomplus.mouseover" end="zoomplus.mouseout"/></use>
    <path d="M-4,0h8M0,-4v8" fill="none" stroke="white" stroke-width="1.5" pointer-events="none"/>
  </g>
  <g id="zoomMin">
    <use xlink:href="#rim" fill="#404040"><set attributeName="fill" to="#808080" begin="zoomminus.mouseover" end="zoomminus.mouseout"/></use>
    <path d="M-4,0h8" fill="none" stroke="white" stroke-width="1.5" pointer-events="none"/>
  </g>
  <g id="arrowUp" transform="translate(30 24)">
    <use xlink:href="#rim"/>
    <path pointer-events="none" fill="none" stroke="white" stroke-width="1.5" d="M0,-3.0v7 M-2.5,-0.5L0,-3.0L2.5,-0.5"/>
  </g>
  <g id="arrowRight" transform="rotate(90) translate(36 -43)">
    <use xlink:href="#rim"/>
    <path pointer-events="none" fill="none" stroke="white" stroke-width="1.5" d="M0,-3.0v7 M-2.5,-0.5L0,-3.0L2.5,-0.5"/>
  </g>
  <g id="arrowDown" transform="rotate(180) translate(-30 -48)">
    <use xlink:href="#rim"/>
    <path pointer-events="none" fill="none" stroke="white" stroke-width="1.5" d="M0,-3.0v7 M-2.5,-0.5L0,-3.0L2.5,-0.5"/>
  </g>
  <g id="arrowLeft" transform="rotate(270) translate(-36 17)">
    <use xlink:href="#rim"/>
    <path pointer-events="none" fill="none" stroke="white" stroke-width="1.5" d="M0,-3.0v7 M-2.5,-0.5L0,-3.0L2.5,-0.5"/>
  </g>
  <g id="resetDef">
    <use xlink:href="#rim2" fill="#404040"><set attributeName="fill" to="#808080" begin="reset.mouseover" end="reset.mouseout"/></use>
  </g>
</defs>
<script type="application/ecmascript">
var viewWidth = 1459;
var viewHeight = 357;
var sectionId = 'dynsection-0';
</script>
<script type="application/ecmascript" xlink:href="svg.min.js"/>
<svg id="graph" class="graph">
<g id="viewport">
<title>main.cpp</title>
<!-- Node1 -->
<g id="Node000001" class="node">
<title>Node1</title>
<g id="a_Node000001"><a xlink:title=" ">
<polygon fill="#999999" stroke="#666666" points="990,-349 928,-349 928,-330 990,-330 990,-349"/>
<text text-anchor="middle" x="959" y="-337" font-family="Helvetica,sans-Serif" font-size="10.00">main.cpp</text>
</a>
</g>
</g>
<!-- Node2 -->
<g id="Node000002" class="node">
<title>Node2</title>
<g id="a_Node000002"><a xlink:title=" ">
<polygon fill="#e0e0e0" stroke="#999999" points="1153,-239 1093,-239 1093,-220 1153,-220 1153,-239"/>
<text text-anchor="middle" x="1123" y="-227" font-family="Helvetica,sans-Serif" font-size="10.00">iostream</text>
</a>
</g>
</g>
<!-- Node1&#45;&gt;Node2 -->
<g id="edge1_Node000001_Node000002" class="edge">
<title>Node1&#45;&gt;Node2</title>
<g id="a_edge1_Node000001_Node000002"><a xlink:title=" ">
<path fill="none" stroke="#63b8ff" d="M972.14,-329.84C1000.33,-311.28 1066.83,-267.49 1101.36,-244.75"/>
<polygon fill="#63b8ff" stroke="#63b8ff" points="1103.37,-247.62 1109.79,-239.2 1099.52,-241.77 1103.37,-247.62"/>
</a>
</g>
</g>
<!-- Node3 -->
<g id="Node000003" class="node">
<title>Node3</title>
<g id="a_Node000003"><a xlink:title=" ">
<polygon fill="#e0e0e0" stroke="#999999" points="440,-19 396,-19 396,0 440,0 440,-19"/>
<text text-anchor="middle" x="418" y="-7" font-family="Helvetica,sans-Serif" font-size="10.00">string</text>
</a>
</g>
</g>
<!-- Node1&#45;&gt;Node3 -->
<g id="edge2_Node000001_Node000003" class="edge">
<title>Node1&#45;&gt;Node3</title>
<g id="a_edge2_Node000001_Node000003"><a xlink:title=" ">
<path fill="none" stroke="#63b8ff" d="M927.91,-338.34C763.2,-337.09 0,-326.16 0,-230.5 0,-230.5 0,-230.5 0,-118.5 0,-38.94 287.45,-17.06 385.61,-11.91"/>
<polygon fill="#63b8ff" stroke="#63b8ff" points="386.01,-15.4 395.82,-11.4 385.66,-8.41 386.01,-15.4"/>
</a>
</g>
</g>
<!-- Node4 -->
<g id="Node000004" class="node">
<title>Node4</title>
<g id="a_Node000004"><a xlink:title=" ">
<polygon fill="#e0e0e0" stroke="#999999" points="1298.5,-184 1247.5,-184 1247.5,-165 1298.5,-165 1298.5,-184"/>
<text text-anchor="middle" x="1273" y="-172" font-family="Helvetica,sans-Serif" font-size="10.00">csignal</text>
</a>
</g>
</g>
<!-- Node1&#45;&gt;Node4 -->
<g id="edge3_Node000001_Node000004" class="edge">
<title>Node1&#45;&gt;Node4</title>
<g id="a_edge3_Node000001_Node000004"><a xlink:title=" ">
<path fill="none" stroke="#63b8ff" d="M990.25,-335.87C1075.74,-327.92 1309.68,-300.75 1348,-239 1361.48,-217.28 1333.48,-199.23 1307.94,-187.99"/>
<polygon fill="#63b8ff" stroke="#63b8ff" points="1308.94,-184.62 1298.37,-184.03 1306.27,-191.09 1308.94,-184.62"/>
</a>
</g>
</g>
<!-- Node5 -->
<g id="Node000005" class="node">
<title>Node5</title>
<g id="a_Node000005"><a xlink:title=" ">
<polygon fill="#e0e0e0" stroke="#999999" points="1450.5,-294 1395.5,-294 1395.5,-275 1450.5,-275 1450.5,-294"/>
<text text-anchor="middle" x="1423" y="-282" font-family="Helvetica,sans-Serif" font-size="10.00">signal.h</text>
</a>
</g>
</g>
<!-- Node1&#45;&gt;Node5 -->
<g id="edge4_Node000001_Node000005" class="edge">
<title>Node1&#45;&gt;Node5</title>
<g id="a_edge4_Node000001_Node000005"><a xlink:title=" ">
<path fill="none" stroke="#63b8ff" d="M990.1,-336.23C1060.16,-330.91 1235.55,-316.34 1381,-294 1382.28,-293.8 1383.58,-293.59 1384.9,-293.37"/>
<polygon fill="#63b8ff" stroke="#63b8ff" points="1385.83,-296.76 1395.05,-291.54 1384.59,-289.87 1385.83,-296.76"/>
</a>
</g>
</g>
<!-- Node6 -->
<g id="Node000006" class="node">
<title>Node6</title>
<g id="a_Node000006"><a xlink:href="WebServer_8hpp.html" target="_top" xlink:title=" ">
<polygon fill="white" stroke="#666666" points="647,-294 539,-294 539,-275 647,-275 647,-294"/>
<text text-anchor="middle" x="593" y="-282" font-family="Helvetica,sans-Serif" font-size="10.00">init/WebServer.hpp</text>
</a>
</g>
</g>
<!-- Node1&#45;&gt;Node6 -->
<g id="edge5_Node000001_Node000006" class="edge">
<title>Node1&#45;&gt;Node6</title>
<g id="a_edge5_Node000001_Node000006"><a xlink:title=" ">
<path fill="none" stroke="#63b8ff" d="M927.8,-333.98C868.15,-325.34 736.87,-306.33 657.58,-294.85"/>
<polygon fill="#63b8ff" stroke="#63b8ff" points="657.62,-291.32 647.22,-293.35 656.62,-298.25 657.62,-291.32"/>
</a>
</g>
</g>
<!-- Node9 -->
<g id="Node000009" class="node">
<title>Node9</title>
<g id="a_Node000009"><a xlink:href="ServerSocket_8hpp.html" target="_top" xlink:title=" ">
<polygon fill="white" stroke="#666666" points="148,-239 28,-239 28,-220 148,-220 148,-239"/>
<text text-anchor="middle" x="88" y="-227" font-family="Helvetica,sans-Serif" font-size="10.00">init/ServerSocket.hpp</text>
</a>
</g>
</g>
<!-- Node1&#45;&gt;Node9 -->
<g id="edge56_Node000001_Node000009" class="edge">
<title>Node1&#45;&gt;Node9</title>
<g id="a_edge56_Node000001_Node000009"><a xlink:title=" ">
<path fill="none" stroke="#63b8ff" d="M927.88,-336.33C851.56,-330.86 649.04,-315.37 481,-294 360.6,-278.69 220.44,-254.5 144.3,-240.82"/>
<polygon fill="#63b8ff" stroke="#63b8ff" points="144.9,-237.37 134.44,-239.04 143.66,-244.26 144.9,-237.37"/>
</a>
</g>
</g>
<!-- Node20 -->
<g id="Node000020" class="node">
<title>Node20</title>
<g id="a_Node000020"><a xlink:href="Signals_8hpp.html" target="_top" xlink:title=" ">
<polygon fill="white" stroke="#666666" points="1036.5,-239 939.5,-239 939.5,-220 1036.5,-220 1036.5,-239"/>
<text text-anchor="middle" x="988" y="-227" font-family="Helvetica,sans-Serif" font-size="10.00">utils/Signals.hpp</text>
</a>
</g>
</g>
<!-- Node1&#45;&gt;Node20 -->
<g id="edge69_Node000001_Node000020" class="edge">
<title>Node1&#45;&gt;Node20</title>
<g id="a_edge69_Node000001_Node000020"><a xlink:title=" ">
<path fill="none" stroke="#63b8ff" d="M961.37,-329.66C966.09,-312.09 976.74,-272.45 983.04,-248.95"/>
<polygon fill="#63b8ff" stroke="#63b8ff" points="986.46,-249.72 985.68,-239.16 979.7,-247.91 986.46,-249.72"/>
</a>
</g>
</g>
<!-- Node25 -->
<g id="Node000025" class="node">
<title>Node25</title>
<g id="a_Node000025"><a xlink:href="Config_8hpp.html" target="_top" xlink:title=" ">
<polygon fill="white" stroke="#666666" points="459.5,-239 358.5,-239 358.5,-220 459.5,-220 459.5,-239"/>
<text text-anchor="middle" x="409" y="-227" font-family="Helvetica,sans-Serif" font-size="10.00">config/Config.hpp</text>
</a>
</g>
</g>
<!-- Node1&#45;&gt;Node25 -->
<g id="edge63_Node000001_Node000025" class="edge">
<title>Node1&#45;&gt;Node25</title>
<g id="a_edge63_Node000001_Node000025"><a xlink:title=" ">
<path fill="none" stroke="#63b8ff" d="M927.79,-339.25C855.92,-340.12 673.9,-337.46 530,-294 492.51,-282.68 453.05,-259.55 429.76,-244.55"/>
<polygon fill="#63b8ff" stroke="#63b8ff" points="431.66,-241.61 421.38,-239.06 427.82,-247.47 431.66,-241.61"/>
</a>
</g>
</g>
<!-- Node26 -->
<g id="Node000026" class="node">
<title>Node26</title>
<g id="a_Node000026"><a xlink:href="ConfigParser_8hpp.html" target="_top" xlink:title=" ">
<polygon fill="white" stroke="#666666" points="841,-294 711,-294 711,-275 841,-275 841,-294"/>
<text text-anchor="middle" x="776" y="-282" font-family="Helvetica,sans-Serif" font-size="10.00">config/ConfigParser.hpp</text>
</a>
</g>
</g>
<!-- Node1&#45;&gt;Node26 -->
<g id="edge57_Node000001_Node000026" class="edge">
<title>Node1&#45;&gt;Node26</title>
<g id="a_edge57_Node000001_Node000026"><a xlink:title=" ">
<path fill="none" stroke="#63b8ff" d="M929.6,-329.98C898.61,-321.01 849.62,-306.82 815.33,-296.89"/>
<polygon fill="#63b8ff" stroke="#63b8ff" points="816.21,-293.5 805.63,-294.08 814.26,-300.23 816.21,-293.5"/>
</a>
</g>
</g>
<!-- Node27 -->
<g id="Node000027" class="node">
<title>Node27</title>
<g id="a_Node000027"><a xlink:href="Logger_8hpp.html" target="_top" xlink:title=" ">
<polygon fill="white" stroke="#666666" points="1228,-294 1134,-294 1134,-275 1228,-275 1228,-294"/>
<text text-anchor="middle" x="1181" y="-282" font-family="Helvetica,sans-Serif" font-size="10.00">utils/Logger.hpp</text>
</a>
</g>
</g>
<!-- Node1&#45;&gt;Node27 -->
<g id="edge64_Node000001_Node000027" class="edge">
<title>Node1&#45;&gt;Node27</title>
<g id="a_edge64_Node000001_Node000027"><a xlink:title=" ">
<path fill="none" stroke="#63b8ff" d="M990.34,-331.02C1028.07,-322.01 1091.76,-306.81 1135.05,-296.47"/>
<polygon fill="#63b8ff" stroke="#63b8ff" points="1136.13,-299.81 1145.04,-294.08 1134.5,-293 1136.13,-299.81"/>
</a>
</g>
</g>
<!-- Node7 -->
<g id="Node000007" class="node">
<title>Node7</title>
<g id="a_Node000007"><a xlink:title=" ">
<polygon fill="#e0e0e0" stroke="#999999" points="178.5,-74 131.5,-74 131.5,-55 178.5,-55 178.5,-74"/>
<text text-anchor="middle" x="155" y="-62" font-family="Helvetica,sans-Serif" font-size="10.00">vector</text>
</a>
</g>
</g>
<!-- Node6&#45;&gt;Node7 -->
<g id="edge6_Node000006_Node000007" class="edge">
<title>Node6&#45;&gt;Node7</title>
<g id="a_edge6_Node000006_Node000007"><a xlink:title=" ">
<path fill="none" stroke="#63b8ff" d="M538.94,-278.14C435.83,-266.79 216.69,-236.95 165,-184 139.13,-157.5 144.6,-109.96 150.2,-83.87"/>
<polygon fill="#63b8ff" stroke="#63b8ff" points="153.61,-84.67 152.51,-74.13 146.8,-83.05 153.61,-84.67"/>
</a>
</g>
</g>
<!-- Node8 -->
<g id="Node000008" class="node">
<title>Node8</title>
<g id="a_Node000008"><a xlink:title=" ">
<polygon fill="#e0e0e0" stroke="#999999" points="1261,-74 1223,-74 1223,-55 1261,-55 1261,-74"/>
<text text-anchor="middle" x="1242" y="-62" font-family="Helvetica,sans-Serif" font-size="10.00">map</text>
</a>
</g>
</g>
<!-- Node6&#45;&gt;Node8 -->
<g id="edge7_Node000006_Node000008" class="edge">
<title>Node6&#45;&gt;Node8</title>
<g id="a_edge7_Node000006_Node000008"><a xlink:title=" ">
<path fill="none" stroke="#63b8ff" d="M647.24,-277.44C720.62,-268.89 847.45,-252.81 892,-239 910.42,-233.29 912.83,-226.44 931,-220 997.66,-196.36 1021.64,-213.31 1086,-184 1143.5,-157.81 1199.7,-107.23 1226.21,-81.44"/>
<polygon fill="#63b8ff" stroke="#63b8ff" points="1228.79,-83.81 1233.45,-74.29 1223.87,-78.83 1228.79,-83.81"/>
</a>
</g>
</g>
<!-- Node6&#45;&gt;Node9 -->
<g id="edge8_Node000006_Node000009" class="edge">
<title>Node6&#45;&gt;Node9</title>
<g id="a_edge8_Node000006_Node000009"><a xlink:title=" ">
<path fill="none" stroke="#63b8ff" d="M538.89,-278.11C457.2,-269.94 297.54,-253.78 162,-239 160.73,-238.86 159.46,-238.72 158.17,-238.58"/>
<polygon fill="#63b8ff" stroke="#63b8ff" points="158.49,-235.1 148.17,-237.47 157.72,-242.05 158.49,-235.1"/>
</a>
</g>
</g>
<!-- Node6&#45;&gt;Node20 -->
<g id="edge29_Node000006_Node000020" class="edge">
<title>Node6&#45;&gt;Node20</title>
<g id="a_edge29_Node000006_Node000020"><a xlink:title=" ">
<path fill="none" stroke="#63b8ff" d="M647.06,-276.27C712.76,-267.48 827.02,-252.18 925,-239 926.29,-238.83 927.6,-238.65 928.92,-238.47"/>
<polygon fill="#63b8ff" stroke="#63b8ff" points="929.72,-241.9 939.16,-237.09 928.78,-234.96 929.72,-241.9"/>
</a>
</g>
</g>
<!-- Node22 -->
<g id="Node000022" class="node">
<title>Node22</title>
<g id="a_Node000022"><a xlink:href="CgiHandler_8hpp.html" target="_top" xlink:title=" ">
<polygon fill="white" stroke="#666666" points="882.5,-239 737.5,-239 737.5,-220 882.5,-220 882.5,-239"/>
<text text-anchor="middle" x="810" y="-227" font-family="Helvetica,sans-Serif" font-size="10.00">dispatcher/CgiHandler.hpp</text>
</a>
</g>
</g>
<!-- Node6&#45;&gt;Node22 -->
<g id="edge34_Node000006_Node000022" class="edge">
<title>Node6&#45;&gt;Node22</title>
<g id="a_edge34_Node000006_Node000022"><a xlink:title=" ">
<path fill="none" stroke="#63b8ff" d="M627.86,-274.98C665.09,-265.89 724.2,-251.46 764.93,-241.51"/>
<polygon fill="#63b8ff" stroke="#63b8ff" points="765.98,-244.85 774.86,-239.08 764.32,-238.05 765.98,-244.85"/>
</a>
</g>
</g>
<!-- Node23 -->
<g id="Node000023" class="node">
<title>Node23</title>
<g id="a_Node000023"><a xlink:href="ServerConfig_8hpp.html" target="_top" xlink:title=" ">
<polygon fill="white" stroke="#666666" points="502,-184 370,-184 370,-165 502,-165 502,-184"/>
<text text-anchor="middle" x="436" y="-172" font-family="Helvetica,sans-Serif" font-size="10.00">config/ServerConfig.hpp</text>
</a>
</g>
</g>
<!-- Node6&#45;&gt;Node23 -->
<g id="edge43_Node000006_Node000023" class="edge">
<title>Node6&#45;&gt;Node23</title>
<g id="a_edge43_Node000006_Node000023"><a xlink:title=" ">
<path fill="none" stroke="#63b8ff" d="M575.04,-274.9C558.23,-266.55 532.67,-253.12 512,-239 490.44,-224.27 467.71,-204.67 452.79,-191.16"/>
<polygon fill="#63b8ff" stroke="#63b8ff" points="455.1,-188.53 445.36,-184.35 450.37,-193.69 455.1,-188.53"/>
</a>
</g>
</g>
<!-- Node6&#45;&gt;Node25 -->
<g id="edge53_Node000006_Node000025" class="edge">
<title>Node6&#45;&gt;Node25</title>
<g id="a_edge53_Node000006_Node000025"><a xlink:title=" ">
<path fill="none" stroke="#63b8ff" d="M563.44,-274.98C532.28,-266.01 483.03,-251.82 448.54,-241.89"/>
<polygon fill="#63b8ff" stroke="#63b8ff" points="449.37,-238.49 438.79,-239.08 447.43,-245.21 449.37,-238.49"/>
</a>
</g>
</g>
<!-- Node9&#45;&gt;Node3 -->
<g id="edge9_Node000009_Node000003" class="edge">
<title>Node9&#45;&gt;Node3</title>
<g id="a_edge9_Node000009_Node000003"><a xlink:title=" ">
<path fill="none" stroke="#63b8ff" d="M86.31,-219.98C81.08,-190.75 68.5,-94.16 122,-55 163.5,-24.63 317.74,-14.62 385.61,-11.64"/>
<polygon fill="#63b8ff" stroke="#63b8ff" points="385.88,-15.13 395.73,-11.22 385.59,-8.14 385.88,-15.13"/>
</a>
</g>
</g>
<!-- Node9&#45;&gt;Node7 -->
<g id="edge10_Node000009_Node000007" class="edge">
<title>Node9&#45;&gt;Node7</title>
<g id="a_edge10_Node000009_Node000007"><a xlink:title=" ">
<path fill="none" stroke="#63b8ff" d="M87.41,-219.85C86.41,-199.41 86.14,-147.05 106,-110 112.3,-98.25 122.95,-88.01 132.72,-80.33"/>
<polygon fill="#63b8ff" stroke="#63b8ff" points="134.98,-83.01 140.94,-74.26 130.82,-77.38 134.98,-83.01"/>
</a>
</g>
</g>
<!-- Node10 -->
<g id="Node000010" class="node">
<title>Node10</title>
<g id="a_Node000010"><a xlink:href="ClientConnection_8hpp.html" target="_top" xlink:title=" ">
<polygon fill="white" stroke="#666666" points="767,-184 627,-184 627,-165 767,-165 767,-184"/>
<text text-anchor="middle" x="697" y="-172" font-family="Helvetica,sans-Serif" font-size="10.00">init/ClientConnection.hpp</text>
</a>
</g>
</g>
<!-- Node9&#45;&gt;Node10 -->
<g id="edge11_Node000009_Node000010" class="edge">
<title>Node9&#45;&gt;Node10</title>
<g id="a_edge11_Node000009_Node000010"><a xlink:title=" ">
<path fill="none" stroke="#63b8ff" d="M148.06,-223.27C258.24,-213.68 492.71,-193.28 616.53,-182.5"/>
<polygon fill="#63b8ff" stroke="#63b8ff" points="617.05,-185.97 626.71,-181.62 616.44,-179 617.05,-185.97"/>
</a>
</g>
</g>
<!-- Node10&#45;&gt;Node3 -->
<g id="edge12_Node000010_Node000003" class="edge">
<title>Node10&#45;&gt;Node3</title>
<g id="a_edge12_Node000010_Node000003"><a xlink:title=" ">
<path fill="none" stroke="#63b8ff" d="M626.68,-168.24C526.92,-160.3 353.6,-144.5 329,-129 298.22,-109.61 273.06,-84.76 294,-55 314.51,-25.84 356.01,-15.7 385.34,-12.22"/>
<polygon fill="#63b8ff" stroke="#63b8ff" points="385.92,-15.68 395.53,-11.21 385.24,-8.71 385.92,-15.68"/>
</a>
</g>
</g>
<!-- Node11 -->
<g id="Node000011" class="node">
<title>Node11</title>
<g id="a_Node000011"><a xlink:title=" ">
<polygon fill="#e0e0e0" stroke="#999999" points="1153,-129 1109,-129 1109,-110 1153,-110 1153,-129"/>
<text text-anchor="middle" x="1131" y="-117" font-family="Helvetica,sans-Serif" font-size="10.00">ctime</text>
</a>
</g>
</g>
<!-- Node10&#45;&gt;Node11 -->
<g id="edge13_Node000010_Node000011" class="edge">
<title>Node10&#45;&gt;Node11</title>
<g id="a_edge13_Node000010_Node000011"><a xlink:title=" ">
<path fill="none" stroke="#63b8ff" d="M766.98,-165C840.45,-156.06 959.35,-141.58 1062,-129 1074.02,-127.53 1087.21,-125.9 1098.81,-124.47"/>
<polygon fill="#63b8ff" stroke="#63b8ff" points="1099.44,-127.92 1108.94,-123.22 1098.58,-120.98 1099.44,-127.92"/>
</a>
</g>
</g>
<!-- Node12 -->
<g id="Node000012" class="node">
<title>Node12</title>
<g id="a_Node000012"><a xlink:title=" ">
<polygon fill="#e0e0e0" stroke="#999999" points="649,-129 577,-129 577,-110 649,-110 649,-129"/>
<text text-anchor="middle" x="613" y="-117" font-family="Helvetica,sans-Serif" font-size="10.00">sys/types.h</text>
</a>
</g>
</g>
<!-- Node10&#45;&gt;Node12 -->
<g id="edge14_Node000010_Node000012" class="edge">
<title>Node10&#45;&gt;Node12</title>
<g id="a_edge14_Node000010_Node000012"><a xlink:title=" ">
<path fill="none" stroke="#63b8ff" d="M683.5,-164.98C670.6,-156.84 650.9,-144.41 635.6,-134.76"/>
<polygon fill="#63b8ff" stroke="#63b8ff" points="637.07,-131.55 626.74,-129.17 633.33,-137.47 637.07,-131.55"/>
</a>
</g>
</g>
<!-- Node13 -->
<g id="Node000013" class="node">
<title>Node13</title>
<g id="a_Node000013"><a xlink:href="HttpRequest_8hpp.html" target="_top" xlink:title=" ">
<polygon fill="white" stroke="#666666" points="805,-129 667,-129 667,-110 805,-110 805,-129"/>
<text text-anchor="middle" x="736" y="-117" font-family="Helvetica,sans-Serif" font-size="10.00">request/HttpRequest.hpp</text>
</a>
</g>
</g>
<!-- Node10&#45;&gt;Node13 -->
<g id="edge15_Node000010_Node000013" class="edge">
<title>Node10&#45;&gt;Node13</title>
<g id="a_edge15_Node000010_Node000013"><a xlink:title=" ">
<path fill="none" stroke="#63b8ff" d="M703.44,-164.75C708.89,-157.34 716.86,-146.5 723.56,-137.41"/>
<polygon fill="#63b8ff" stroke="#63b8ff" points="726.57,-139.22 729.68,-129.09 720.93,-135.07 726.57,-139.22"/>
</a>
</g>
</g>
<!-- Node19 -->
<g id="Node000019" class="node">
<title>Node19</title>
<g id="a_Node000019"><a xlink:href="HttpResponse_8hpp.html" target="_top" xlink:title=" ">
<polygon fill="white" stroke="#666666" points="1052.5,-129 899.5,-129 899.5,-110 1052.5,-110 1052.5,-129"/>
<text text-anchor="middle" x="976" y="-117" font-family="Helvetica,sans-Serif" font-size="10.00">response/HttpResponse.hpp</text>
</a>
</g>
</g>
<!-- Node10&#45;&gt;Node19 -->
<g id="edge25_Node000010_Node000019" class="edge">
<title>Node10&#45;&gt;Node19</title>
<g id="a_edge25_Node000010_Node000019"><a xlink:title=" ">
<path fill="none" stroke="#63b8ff" d="M741.83,-164.98C790.49,-155.74 868.26,-140.97 920.69,-131.01"/>
<polygon fill="#63b8ff" stroke="#63b8ff" points="921.65,-134.39 930.82,-129.08 920.34,-127.51 921.65,-134.39"/>
</a>
</g>
</g>
<!-- Node13&#45;&gt;Node3 -->
<g id="edge16_Node000013_Node000003" class="edge">
<title>Node13&#45;&gt;Node3</title>
<g id="a_edge16_Node000013_Node000003"><a xlink:title=" ">
<path fill="none" stroke="#63b8ff" d="M725.08,-109.86C707.15,-96.1 669.84,-69.31 634,-55 571.72,-30.12 493.55,-18.46 450.39,-13.57"/>
<polygon fill="#63b8ff" stroke="#63b8ff" points="450.52,-10.06 440.2,-12.47 449.76,-17.02 450.52,-10.06"/>
</a>
</g>
</g>
<!-- Node13&#45;&gt;Node7 -->
<g id="edge18_Node000013_Node000007" class="edge">
<title>Node13&#45;&gt;Node7</title>
<g id="a_edge18_Node000013_Node000007"><a xlink:title=" ">
<path fill="none" stroke="#63b8ff" d="M666.69,-110.87C663.75,-110.57 660.85,-110.28 658,-110 481.41,-92.57 269.61,-74.88 188.68,-68.24"/>
<polygon fill="#63b8ff" stroke="#63b8ff" points="188.84,-64.74 178.59,-67.42 188.27,-71.72 188.84,-64.74"/>
</a>
</g>
</g>
<!-- Node13&#45;&gt;Node8 -->
<g id="edge17_Node000013_Node000008" class="edge">
<title>Node13&#45;&gt;Node8</title>
<g id="a_edge17_Node000013_Node000008"><a xlink:title=" ">
<path fill="none" stroke="#63b8ff" d="M805.03,-112.11C891.73,-103.94 1045,-89.06 1176,-74 1188.13,-72.61 1201.49,-70.91 1212.99,-69.41"/>
<polygon fill="#63b8ff" stroke="#63b8ff" points="1213.5,-72.87 1222.95,-68.09 1212.58,-65.93 1213.5,-72.87"/>
</a>
</g>
</g>
<!-- Node14 -->
<g id="Node000014" class="node">
<title>Node14</title>
<g id="a_Node000014"><a xlink:href="RequestMethod_8hpp.html" target="_top" xlink:title=" ">
<polygon fill="white" stroke="#666666" points="465,-74 311,-74 311,-55 465,-55 465,-74"/>
<text text-anchor="middle" x="388" y="-62" font-family="Helvetica,sans-Serif" font-size="10.00">request/RequestMethod.hpp</text>
</a>
</g>
</g>
<!-- Node13&#45;&gt;Node14 -->
<g id="edge19_Node000013_Node000014" class="edge">
<title>Node13&#45;&gt;Node14</title>
<g id="a_edge19_Node000013_Node000014"><a xlink:title=" ">
<path fill="none" stroke="#63b8ff" d="M680.09,-109.98C618.54,-100.61 519.66,-85.55 454.26,-75.59"/>
<polygon fill="#63b8ff" stroke="#63b8ff" points="454.47,-72.08 444.06,-74.04 453.42,-79 454.47,-72.08"/>
</a>
</g>
</g>
<!-- Node15 -->
<g id="Node000015" class="node">
<title>Node15</title>
<g id="a_Node000015"><a xlink:href="RequestMeta_8hpp.html" target="_top" xlink:title=" ">
<polygon fill="white" stroke="#666666" points="625,-74 483,-74 483,-55 625,-55 625,-74"/>
<text text-anchor="middle" x="554" y="-62" font-family="Helvetica,sans-Serif" font-size="10.00">request/RequestMeta.hpp</text>
</a>
</g>
</g>
<!-- Node13&#45;&gt;Node15 -->
<g id="edge20_Node000013_Node000015" class="edge">
<title>Node13&#45;&gt;Node15</title>
<g id="a_edge20_Node000013_Node000015"><a xlink:title=" ">
<path fill="none" stroke="#63b8ff" d="M706.76,-109.98C675.94,-101.01 627.22,-86.82 593.11,-76.89"/>
<polygon fill="#63b8ff" stroke="#63b8ff" points="594.05,-73.52 583.47,-74.08 592.09,-80.24 594.05,-73.52"/>
</a>
</g>
</g>
<!-- Node16 -->
<g id="Node000016" class="node">
<title>Node16</title>
<g id="a_Node000016"><a xlink:href="RequestState_8hpp.html" target="_top" xlink:title=" ">
<polygon fill="white" stroke="#666666" points="824.5,-74 681.5,-74 681.5,-55 824.5,-55 824.5,-74"/>
<text text-anchor="middle" x="753" y="-62" font-family="Helvetica,sans-Serif" font-size="10.00">request/RequestState.hpp</text>
</a>
</g>
</g>
<!-- Node13&#45;&gt;Node16 -->
<g id="edge22_Node000013_Node000016" class="edge">
<title>Node13&#45;&gt;Node16</title>
<g id="a_edge22_Node000013_Node000016"><a xlink:title=" ">
<path fill="none" stroke="#63b8ff" d="M738.81,-109.75C741.06,-102.72 744.3,-92.62 747.12,-83.84"/>
<polygon fill="#63b8ff" stroke="#63b8ff" points="750.52,-84.68 750.25,-74.09 743.86,-82.54 750.52,-84.68"/>
</a>
</g>
</g>
<!-- Node17 -->
<g id="Node000017" class="node">
<title>Node17</title>
<g id="a_Node000017"><a xlink:href="ResponseStatus_8hpp.html" target="_top" xlink:title=" ">
<polygon fill="white" stroke="#666666" points="1166.5,-74 1003.5,-74 1003.5,-55 1166.5,-55 1166.5,-74"/>
<text text-anchor="middle" x="1085" y="-62" font-family="Helvetica,sans-Serif" font-size="10.00">response/ResponseStatus.hpp</text>
</a>
</g>
</g>
<!-- Node13&#45;&gt;Node17 -->
<g id="edge23_Node000013_Node000017" class="edge">
<title>Node13&#45;&gt;Node17</title>
<g id="a_edge23_Node000013_Node000017"><a xlink:title=" ">
<path fill="none" stroke="#63b8ff" d="M792.07,-109.98C853.8,-100.61 952.97,-85.55 1018.55,-75.59"/>
<polygon fill="#63b8ff" stroke="#63b8ff" points="1019.42,-79 1028.78,-74.04 1018.37,-72.08 1019.42,-79"/>
</a>
</g>
</g>
<!-- Node18 -->
<g id="Node000018" class="node">
<title>Node18</title>
<g id="a_Node000018"><a xlink:href="RouteType_8hpp.html" target="_top" xlink:title=" ">
<polygon fill="white" stroke="#666666" points="985.5,-74 842.5,-74 842.5,-55 985.5,-55 985.5,-74"/>
<text text-anchor="middle" x="914" y="-62" font-family="Helvetica,sans-Serif" font-size="10.00">dispatcher/RouteType.hpp</text>
</a>
</g>
</g>
<!-- Node13&#45;&gt;Node18 -->
<g id="edge24_Node000013_Node000018" class="edge">
<title>Node13&#45;&gt;Node18</title>
<g id="a_edge24_Node000013_Node000018"><a xlink:title=" ">
<path fill="none" stroke="#63b8ff" d="M764.6,-109.98C794.61,-101.05 841.98,-86.94 875.32,-77.02"/>
<polygon fill="#63b8ff" stroke="#63b8ff" points="876.59,-80.29 885.18,-74.08 874.59,-73.58 876.59,-80.29"/>
</a>
</g>
</g>
<!-- Node15&#45;&gt;Node3 -->
<g id="edge21_Node000015_Node000003" class="edge">
<title>Node15&#45;&gt;Node3</title>
<g id="a_edge21_Node000015_Node000003"><a xlink:title=" ">
<path fill="none" stroke="#63b8ff" d="M532.15,-54.98C509.88,-46.3 475.1,-32.75 449.78,-22.88"/>
<polygon fill="#63b8ff" stroke="#63b8ff" points="450.84,-19.54 440.25,-19.17 448.29,-26.06 450.84,-19.54"/>
</a>
</g>
</g>
<!-- Node19&#45;&gt;Node3 -->
<g id="edge26_Node000019_Node000003" class="edge">
<title>Node19&#45;&gt;Node3</title>
<g id="a_edge26_Node000019_Node000003"><a xlink:title=" ">
<path fill="none" stroke="#63b8ff" d="M1052.8,-112.03C1135.12,-104.3 1255.95,-90.34 1270,-74 1275.51,-67.6 1275.81,-61.12 1270,-55 1241.28,-24.74 602.97,-13.27 450.5,-10.96"/>
<polygon fill="#63b8ff" stroke="#63b8ff" points="450.42,-7.46 440.37,-10.81 450.32,-14.46 450.42,-7.46"/>
</a>
</g>
</g>
<!-- Node19&#45;&gt;Node8 -->
<g id="edge27_Node000019_Node000008" class="edge">
<title>Node19&#45;&gt;Node8</title>
<g id="a_edge27_Node000019_Node000008"><a xlink:title=" ">
<path fill="none" stroke="#63b8ff" d="M1025.73,-109.94C1073.03,-101.58 1146.11,-88.09 1209,-74 1210.27,-73.72 1211.56,-73.42 1212.86,-73.11"/>
<polygon fill="#63b8ff" stroke="#63b8ff" points="1213.98,-76.44 1222.85,-70.65 1212.31,-69.64 1213.98,-76.44"/>
</a>
</g>
</g>
<!-- Node19&#45;&gt;Node17 -->
<g id="edge28_Node000019_Node000017" class="edge">
<title>Node19&#45;&gt;Node17</title>
<g id="a_edge28_Node000019_Node000017"><a xlink:title=" ">
<path fill="none" stroke="#63b8ff" d="M993.51,-109.98C1010.97,-101.5 1038.01,-88.35 1058.17,-78.54"/>
<polygon fill="#63b8ff" stroke="#63b8ff" points="1059.71,-81.69 1067.17,-74.17 1056.64,-75.4 1059.71,-81.69"/>
</a>
</g>
</g>
<!-- Node20&#45;&gt;Node4 -->
<g id="edge30_Node000020_Node000004" class="edge">
<title>Node20&#45;&gt;Node4</title>
<g id="a_edge30_Node000020_Node000004"><a xlink:title=" ">
<path fill="none" stroke="#63b8ff" d="M1036.89,-220.06C1086.4,-211.41 1165.14,-197.37 1233,-184 1234.44,-183.72 1235.9,-183.42 1237.38,-183.13"/>
<polygon fill="#63b8ff" stroke="#63b8ff" points="1238.12,-186.55 1247.2,-181.1 1236.7,-179.69 1238.12,-186.55"/>
</a>
</g>
</g>
<!-- Node20&#45;&gt;Node8 -->
<g id="edge32_Node000020_Node000008" class="edge">
<title>Node20&#45;&gt;Node8</title>
<g id="a_edge32_Node000020_Node000008"><a xlink:title=" ">
<path fill="none" stroke="#63b8ff" d="M1034.25,-219.99C1077.13,-211.45 1137.2,-197.64 1157,-184 1194.74,-158.01 1221.6,-109.55 1234.1,-83.37"/>
<polygon fill="#63b8ff" stroke="#63b8ff" points="1237.31,-84.78 1238.31,-74.23 1230.95,-81.85 1237.31,-84.78"/>
</a>
</g>
</g>
<!-- Node20&#45;&gt;Node11 -->
<g id="edge31_Node000020_Node000011" class="edge">
<title>Node20&#45;&gt;Node11</title>
<g id="a_edge31_Node000020_Node000011"><a xlink:title=" ">
<path fill="none" stroke="#63b8ff" d="M1016.82,-219.94C1037.63,-212.74 1065.54,-200.9 1086,-184 1101.26,-171.4 1113.79,-152.43 1121.71,-138.51"/>
<polygon fill="#63b8ff" stroke="#63b8ff" points="1124.95,-139.88 1126.65,-129.43 1118.8,-136.54 1124.95,-139.88"/>
</a>
</g>
</g>
<!-- Node21 -->
<g id="Node000021" class="node">
<title>Node21</title>
<g id="a_Node000021"><a xlink:title=" ">
<polygon fill="#e0e0e0" stroke="#999999" points="1077,-184 1021,-184 1021,-165 1077,-165 1077,-184"/>
<text text-anchor="middle" x="1049" y="-172" font-family="Helvetica,sans-Serif" font-size="10.00">unistd.h</text>
</a>
</g>
</g>
<!-- Node20&#45;&gt;Node21 -->
<g id="edge33_Node000020_Node000021" class="edge">
<title>Node20&#45;&gt;Node21</title>
<g id="a_edge33_Node000020_Node000021"><a xlink:title=" ">
<path fill="none" stroke="#63b8ff" d="M997.8,-219.98C1006.82,-212.15 1020.41,-200.34 1031.32,-190.86"/>
<polygon fill="#63b8ff" stroke="#63b8ff" points="1033.77,-193.37 1039.02,-184.17 1029.18,-188.09 1033.77,-193.37"/>
</a>
</g>
</g>
<!-- Node22&#45;&gt;Node3 -->
<g id="edge35_Node000022_Node000003" class="edge">
<title>Node22&#45;&gt;Node3</title>
<g id="a_edge35_Node000022_Node000003"><a xlink:title=" ">
<path fill="none" stroke="#63b8ff" d="M813.05,-219.77C821.44,-197.19 847.19,-136.76 891,-110 1001.08,-42.74 1264.51,-148.85 1176,-55 1150.74,-28.21 592.18,-14.29 450.46,-11.18"/>
<polygon fill="#63b8ff" stroke="#63b8ff" points="450.32,-7.67 440.25,-10.96 450.17,-14.67 450.32,-7.67"/>
</a>
</g>
</g>
<!-- Node22&#45;&gt;Node7 -->
<g id="edge36_Node000022_Node000007" class="edge">
<title>Node22&#45;&gt;Node7</title>
<g id="a_edge36_Node000022_Node000007"><a xlink:title=" ">
<path fill="none" stroke="#63b8ff" d="M737.46,-227.32C647.86,-224.49 491.29,-215.08 361,-184 295.17,-168.3 275.78,-165.84 219,-129 198.99,-116.02 180.13,-95.99 168.13,-81.91"/>
<polygon fill="#63b8ff" stroke="#63b8ff" points="170.68,-79.49 161.61,-74.02 165.29,-83.96 170.68,-79.49"/>
</a>
</g>
</g>
<!-- Node22&#45;&gt;Node8 -->
<g id="edge37_Node000022_Node000008" class="edge">
<title>Node22&#45;&gt;Node8</title>
<g id="a_edge37_Node000022_Node000008"><a xlink:title=" ">
<path fill="none" stroke="#63b8ff" d="M831.32,-219.9C861.8,-207.63 919.62,-184.42 969,-165 1010.25,-148.78 1021.47,-146.93 1062,-129 1079.27,-121.36 1082.49,-117.07 1100,-110 1138.19,-94.58 1183.89,-81.11 1212.93,-73.14"/>
<polygon fill="#63b8ff" stroke="#63b8ff" points="1214.09,-76.45 1222.83,-70.46 1212.26,-69.69 1214.09,-76.45"/>
</a>
</g>
</g>
<!-- Node22&#45;&gt;Node10 -->
<g id="edge42_Node000022_Node000010" class="edge">
<title>Node22&#45;&gt;Node10</title>
<g id="a_edge42_Node000022_Node000010"><a xlink:title=" ">
<path fill="none" stroke="#63b8ff" d="M791.84,-219.98C773.75,-211.5 745.72,-198.35 724.81,-188.54"/>
<polygon fill="#63b8ff" stroke="#63b8ff" points="726.03,-185.25 715.49,-184.17 723.05,-191.59 726.03,-185.25"/>
</a>
</g>
</g>
<!-- Node22&#45;&gt;Node11 -->
<g id="edge38_Node000022_Node000011" class="edge">
<title>Node22&#45;&gt;Node11</title>
<g id="a_edge38_Node000022_Node000011"><a xlink:title=" ">
<path fill="none" stroke="#63b8ff" d="M846.14,-219.96C878.67,-211.9 927.58,-198.86 969,-184 988.67,-176.94 992.65,-172.88 1012,-165 1041.31,-153.06 1075.15,-140.52 1099.24,-131.81"/>
<polygon fill="#63b8ff" stroke="#63b8ff" points="1100.7,-135 1108.92,-128.32 1098.32,-128.42 1100.7,-135"/>
</a>
</g>
</g>
<!-- Node22&#45;&gt;Node13 -->
<g id="edge40_Node000022_Node000013" class="edge">
<title>Node22&#45;&gt;Node13</title>
<g id="a_edge40_Node000022_Node000013"><a xlink:title=" ">
<path fill="none" stroke="#63b8ff" d="M806.21,-219.9C800.49,-207.33 788.93,-183.43 776,-165 768.93,-154.92 759.83,-144.64 752.1,-136.5"/>
<polygon fill="#63b8ff" stroke="#63b8ff" points="754.44,-133.88 744.95,-129.16 749.43,-138.77 754.44,-133.88"/>
</a>
</g>
</g>
<!-- Node22&#45;&gt;Node19 -->
<g id="edge41_Node000022_Node000019" class="edge">
<title>Node22&#45;&gt;Node19</title>
<g id="a_edge41_Node000022_Node000019"><a xlink:title=" ">
<path fill="none" stroke="#63b8ff" d="M823.3,-219.84C851.84,-201.28 919.15,-157.49 954.09,-134.75"/>
<polygon fill="#63b8ff" stroke="#63b8ff" points="956.16,-137.58 962.63,-129.2 952.34,-131.72 956.16,-137.58"/>
</a>
</g>
</g>
<!-- Node22&#45;&gt;Node21 -->
<g id="edge39_Node000022_Node000021" class="edge">
<title>Node22&#45;&gt;Node21</title>
<g id="a_edge39_Node000022_Node000021"><a xlink:title=" ">
<path fill="none" stroke="#63b8ff" d="M848.4,-219.98C893.08,-210.08 966.41,-193.82 1010.94,-183.94"/>
<polygon fill="#63b8ff" stroke="#63b8ff" points="1011.79,-187.34 1020.8,-181.75 1010.28,-180.5 1011.79,-187.34"/>
</a>
</g>
</g>
<!-- Node23&#45;&gt;Node3 -->
<g id="edge44_Node000023_Node000003" class="edge">
<title>Node23&#45;&gt;Node3</title>
<g id="a_edge44_Node000023_Node000003"><a xlink:title=" ">
<path fill="none" stroke="#63b8ff" d="M376.01,-164.91C325.16,-153.89 256.55,-129.09 231,-74 227.45,-66.34 225.77,-61.63 231,-55 249.94,-31.03 337.42,-18.59 385.73,-13.44"/>
<polygon fill="#63b8ff" stroke="#63b8ff" points="386.09,-16.92 395.68,-12.42 385.38,-9.96 386.09,-16.92"/>
</a>
</g>
</g>
<!-- Node23&#45;&gt;Node7 -->
<g id="edge45_Node000023_Node000007" class="edge">
<title>Node23&#45;&gt;Node7</title>
<g id="a_edge45_Node000023_Node000007"><a xlink:title=" ">
<path fill="none" stroke="#63b8ff" d="M384.4,-164.96C348.13,-157.92 298.95,-146.25 258,-129 227.11,-115.99 194.71,-94.53 174.69,-80.2"/>
<polygon fill="#63b8ff" stroke="#63b8ff" points="176.55,-77.23 166.41,-74.18 172.44,-82.89 176.55,-77.23"/>
</a>
</g>
</g>
<!-- Node23&#45;&gt;Node8 -->
<g id="edge46_Node000023_Node000008" class="edge">
<title>Node23&#45;&gt;Node8</title>
<g id="a_edge46_Node000023_Node000008"><a xlink:title=" ">
<path fill="none" stroke="#63b8ff" d="M502.27,-168.22C578.03,-161.6 705.59,-148.68 814,-129 848.68,-122.7 856.34,-116.44 891,-110 1016.52,-86.67 1049.35,-90.15 1176,-74 1188.11,-72.46 1201.46,-70.74 1212.98,-69.25"/>
<polygon fill="#63b8ff" stroke="#63b8ff" points="1213.47,-72.72 1222.94,-67.97 1212.57,-65.78 1213.47,-72.72"/>
</a>
</g>
</g>
<!-- Node23&#45;&gt;Node14 -->
<g id="edge52_Node000023_Node000014" class="edge">
<title>Node23&#45;&gt;Node14</title>
<g id="a_edge52_Node000023_Node000014"><a xlink:title=" ">
<path fill="none" stroke="#63b8ff" d="M452.34,-164.97C472.58,-153.24 502.81,-131.17 489,-110 478.67,-94.16 461.28,-83.91 443.83,-77.31"/>
<polygon fill="#63b8ff" stroke="#63b8ff" points="444.76,-73.93 434.16,-74 442.49,-80.55 444.76,-73.93"/>
</a>
</g>
</g>
<!-- Node24 -->
<g id="Node000024" class="node">
<title>Node24</title>
<g id="a_Node000024"><a xlink:href="LocationConfig_8hpp.html" target="_top" xlink:title=" ">
<polygon fill="white" stroke="#666666" points="480,-129 338,-129 338,-110 480,-110 480,-129"/>
<text text-anchor="middle" x="409" y="-117" font-family="Helvetica,sans-Serif" font-size="10.00">config/LocationConfig.hpp</text>
</a>
</g>
</g>
<!-- Node23&#45;&gt;Node24 -->
<g id="edge47_Node000023_Node000024" class="edge">
<title>Node23&#45;&gt;Node24</title>
<g id="a_edge47_Node000023_Node000024"><a xlink:title=" ">
<path fill="none" stroke="#63b8ff" d="M431.54,-164.75C427.88,-157.57 422.59,-147.18 418.05,-138.27"/>
<polygon fill="#63b8ff" stroke="#63b8ff" points="421.03,-136.41 413.38,-129.09 414.8,-139.59 421.03,-136.41"/>
</a>
</g>
</g>
<!-- Node24&#45;&gt;Node3 -->
<g id="edge49_Node000024_Node000003" class="edge">
<title>Node24&#45;&gt;Node3</title>
<g id="a_edge49_Node000024_Node000003"><a xlink:title=" ">
<path fill="none" stroke="#63b8ff" d="M365.11,-109.98C327.67,-100.61 282.73,-83.04 302,-55 320.74,-27.73 358.68,-17.17 386.07,-13.07"/>
<polygon fill="#63b8ff" stroke="#63b8ff" points="386.52,-16.55 395.99,-11.8 385.63,-9.6 386.52,-16.55"/>
</a>
</g>
</g>
<!-- Node24&#45;&gt;Node7 -->
<g id="edge48_Node000024_Node000007" class="edge">
<title>Node24&#45;&gt;Node7</title>
<g id="a_edge48_Node000024_Node000007"><a xlink:title=" ">
<path fill="none" stroke="#63b8ff" d="M368.19,-109.98C318.26,-99.57 234.67,-82.12 188.38,-72.47"/>
<polygon fill="#63b8ff" stroke="#63b8ff" points="189.06,-69.03 178.55,-70.41 187.63,-75.88 189.06,-69.03"/>
</a>
</g>
</g>
<!-- Node24&#45;&gt;Node8 -->
<g id="edge50_Node000024_Node000008" class="edge">
<title>Node24&#45;&gt;Node8</title>
<g id="a_edge50_Node000024_Node000008"><a xlink:title=" ">
<path fill="none" stroke="#63b8ff" d="M480.09,-114.66C657.04,-105.07 1107.94,-80.35 1176,-74 1188.15,-72.87 1201.52,-71.22 1213.02,-69.68"/>
<polygon fill="#63b8ff" stroke="#63b8ff" points="1213.55,-73.14 1222.98,-68.31 1212.59,-66.2 1213.55,-73.14"/>
</a>
</g>
</g>
<!-- Node24&#45;&gt;Node14 -->
<g id="edge51_Node000024_Node000014" class="edge">
<title>Node24&#45;&gt;Node14</title>
<g id="a_edge51_Node000024_Node000014"><a xlink:title=" ">
<path fill="none" stroke="#63b8ff" d="M405.53,-109.75C402.72,-102.65 398.66,-92.4 395.15,-83.56"/>
<polygon fill="#63b8ff" stroke="#63b8ff" points="398.34,-82.1 391.4,-74.09 391.83,-84.68 398.34,-82.1"/>
</a>
</g>
</g>
<!-- Node25&#45;&gt;Node7 -->
<g id="edge54_Node000025_Node000007" class="edge">
<title>Node25&#45;&gt;Node7</title>
<g id="a_edge54_Node000025_Node000007"><a xlink:title=" ">
<path fill="none" stroke="#63b8ff" d="M358.43,-224.92C299.38,-219.7 206.61,-207.87 182,-184 154.95,-157.77 152.5,-110.47 153.49,-84.26"/>
<polygon fill="#63b8ff" stroke="#63b8ff" points="157,-84.34 154.09,-74.15 150.01,-83.93 157,-84.34"/>
</a>
</g>
</g>
<!-- Node25&#45;&gt;Node23 -->
<g id="edge55_Node000025_Node000023" class="edge">
<title>Node25&#45;&gt;Node23</title>
<g id="a_edge55_Node000025_Node000023"><a xlink:title=" ">
<path fill="none" stroke="#63b8ff" d="M413.46,-219.75C417.12,-212.57 422.41,-202.18 426.95,-193.27"/>
<polygon fill="#63b8ff" stroke="#63b8ff" points="430.2,-194.59 431.62,-184.09 423.97,-191.41 430.2,-194.59"/>
</a>
</g>
</g>
<!-- Node26&#45;&gt;Node2 -->
<g id="edge59_Node000026_Node000002" class="edge">
<title>Node26&#45;&gt;Node2</title>
<g id="a_edge59_Node000026_Node000002"><a xlink:title=" ">
<path fill="none" stroke="#63b8ff" d="M839.68,-275C901.08,-266.6 996.57,-253.01 1079,-239 1080.25,-238.79 1081.52,-238.57 1082.8,-238.34"/>
<polygon fill="#63b8ff" stroke="#63b8ff" points="1083.53,-241.77 1092.74,-236.53 1082.27,-234.88 1083.53,-241.77"/>
</a>
</g>
</g>
<!-- Node26&#45;&gt;Node3 -->
<g id="edge58_Node000026_Node000003" class="edge">
<title>Node26&#45;&gt;Node3</title>
<g id="a_edge58_Node000026_Node000003"><a xlink:title=" ">
<path fill="none" stroke="#63b8ff" d="M841.12,-278.29C896.63,-272.55 977.99,-261.05 1046,-239 1063.96,-233.18 1066.03,-225.79 1084,-220 1131.99,-204.55 1275.3,-222.37 1308,-184 1334.25,-153.19 1410.01,-162.09 1286,-55 1253.8,-27.19 604.34,-13.84 450.48,-11.06"/>
<polygon fill="#63b8ff" stroke="#63b8ff" points="450.33,-7.55 440.27,-10.88 450.21,-14.55 450.33,-7.55"/>
</a>
</g>
</g>
<!-- Node26&#45;&gt;Node14 -->
<g id="edge62_Node000026_Node000014" class="edge">
<title>Node26&#45;&gt;Node14</title>
<g id="a_edge62_Node000026_Node000014"><a xlink:title=" ">
<path fill="none" stroke="#63b8ff" d="M762,-274.8C734.37,-257.6 670.92,-217.98 618,-184 567.49,-151.56 558.48,-137.27 505,-110 479.25,-96.87 448.68,-85.37 425.24,-77.35"/>
<polygon fill="#63b8ff" stroke="#63b8ff" points="426.26,-74 415.67,-74.13 424.03,-80.64 426.26,-74"/>
</a>
</g>
</g>
<!-- Node26&#45;&gt;Node23 -->
<g id="edge61_Node000026_Node000023" class="edge">
<title>Node26&#45;&gt;Node23</title>
<g id="a_edge61_Node000026_Node000023"><a xlink:title=" ">
<path fill="none" stroke="#63b8ff" d="M710.73,-276.17C664.78,-269.69 602.38,-258.2 550,-239 540.65,-235.57 490.37,-206.9 459.8,-189.28"/>
<polygon fill="#63b8ff" stroke="#63b8ff" points="461.42,-186.17 451.01,-184.2 457.92,-192.24 461.42,-186.17"/>
</a>
</g>
</g>
<!-- Node26&#45;&gt;Node25 -->
<g id="edge60_Node000026_Node000025" class="edge">
<title>Node26&#45;&gt;Node25</title>
<g id="a_edge60_Node000026_Node000025"><a xlink:title=" ">
<path fill="none" stroke="#63b8ff" d="M717.04,-274.98C649.19,-265.19 538.36,-249.18 469.77,-239.28"/>
<polygon fill="#63b8ff" stroke="#63b8ff" points="469.95,-235.77 459.55,-237.8 468.95,-242.69 469.95,-235.77"/>
</a>
</g>
</g>
<!-- Node27&#45;&gt;Node2 -->
<g id="edge67_Node000027_Node000002" class="edge">
<title>Node27&#45;&gt;Node2</title>
<g id="a_edge67_Node000027_Node000002"><a xlink:title=" ">
<path fill="none" stroke="#63b8ff" d="M1171.68,-274.98C1163.19,-267.23 1150.44,-255.58 1140.12,-246.14"/>
<polygon fill="#63b8ff" stroke="#63b8ff" points="1142.23,-243.33 1132.49,-239.17 1137.51,-248.5 1142.23,-243.33"/>
</a>
</g>
</g>
<!-- Node27&#45;&gt;Node11 -->
<g id="edge65_Node000027_Node000011" class="edge">
<title>Node27&#45;&gt;Node11</title>
<g id="a_edge65_Node000027_Node000011"><a xlink:title=" ">
<path fill="none" stroke="#63b8ff" d="M1178.45,-274.86C1174.83,-262.64 1167.98,-239.59 1162,-220 1153.31,-191.53 1142.98,-158.55 1136.71,-138.63"/>
<polygon fill="#63b8ff" stroke="#63b8ff" points="1140.03,-137.5 1133.69,-129.01 1133.35,-139.6 1140.03,-137.5"/>
</a>
</g>
</g>
<!-- Node28 -->
<g id="Node000028" class="node">
<title>Node28</title>
<g id="a_Node000028"><a xlink:title=" ">
<polygon fill="#e0e0e0" stroke="#999999" points="1338.5,-239 1283.5,-239 1283.5,-220 1338.5,-220 1338.5,-239"/>
<text text-anchor="middle" x="1311" y="-227" font-family="Helvetica,sans-Serif" font-size="10.00">fstream</text>
</a>
</g>
</g>
<!-- Node27&#45;&gt;Node28 -->
<g id="edge66_Node000027_Node000028" class="edge">
<title>Node27&#45;&gt;Node28</title>
<g id="a_edge66_Node000027_Node000028"><a xlink:title=" ">
<path fill="none" stroke="#63b8ff" d="M1201.89,-274.98C1223.08,-266.34 1256.13,-252.87 1280.3,-243.02"/>
<polygon fill="#63b8ff" stroke="#63b8ff" points="1281.79,-246.19 1289.73,-239.17 1279.15,-239.7 1281.79,-246.19"/>
</a>
</g>
</g>
<!-- Node29 -->
<g id="Node000029" class="node">
<title>Node29</title>
<g id="a_Node000029"><a xlink:title=" ">
<polygon fill="#e0e0e0" stroke="#999999" points="1265,-239 1209,-239 1209,-220 1265,-220 1265,-239"/>
<text text-anchor="middle" x="1237" y="-227" font-family="Helvetica,sans-Serif" font-size="10.00">sstream</text>
</a>
</g>
</g>
<!-- Node27&#45;&gt;Node29 -->
<g id="edge68_Node000027_Node000029" class="edge">
<title>Node27&#45;&gt;Node29</title>
<g id="a_edge68_Node000027_Node000029"><a xlink:title=" ">
<path fill="none" stroke="#63b8ff" d="M1190,-274.98C1198.19,-267.23 1210.51,-255.58 1220.47,-246.14"/>
<polygon fill="#63b8ff" stroke="#63b8ff" points="1222.98,-248.59 1227.84,-239.17 1218.17,-243.5 1222.98,-248.59"/>
</a>
</g>
</g>
</g>
</svg>

<g id="navigator" transform="translate(0 0)" fill="#404254">
  <rect fill="#f2f5e9" fill-opacity="0.5" stroke="#606060" stroke-width=".5" x="0" y="0" width="60" height="60"/>
  <use id="zoomplus" xlink:href="#zoomPlus" x="17" y="9" onmousedown="handleZoom(evt,'in')"/>
  <use id="zoomminus" xlink:href="#zoomMin" x="42" y="9" onmousedown="handleZoom(evt,'out')"/>
  <use id="reset" xlink:href="#resetDef" x="30" y="36" onmousedown="handleReset()"/>
   <use id="arrowup" xlink:href="#arrowUp" x="0" y="0" onmousedown="handlePan(0,-1)"/>
  <use id="arrowright" xlink:href="#arrowRight" x="0" y="0" onmousedown="handlePan(1,0)"/>
  <use id="arrowdown" xlink:href="#arrowDown" x="0" y="0" onmousedown="handlePan(0,1)"/>
  <use id="arrowleft" xlink:href="#arrowLeft" x="0" y="0" onmousedown="handlePan(-1,0)"/>
</g>
<svg viewBox="0 0 15 15" width="100%" height="30px" preserveAspectRatio="xMaxYMin meet">
 <g id="arrow_out" transform="scale(0.3 0.3)">
  <a xlink:href="main_8cpp__incl_org.svg" target="_base">
   <rect id="button" ry="5" rx="5" y="6" x="6" height="38" width="38"
        fill="#f2f5e9" fill-opacity="0.5" stroke="#606060" stroke-width="1.0"/>
   <path id="arrow"
     d="M 11.500037,31.436501 C 11.940474,20.09759 22.043105,11.32322 32.158766,21.979434 L 37.068811,17.246167 C 37.068811,17.246167 37.088388,32 37.088388,32 L 22.160133,31.978069 C 22.160133,31.978069 26.997745,27.140456 26.997745,27.140456 C 18.528582,18.264221 13.291696,25.230495 11.500037,31.436501 z"
     style="fill:#404040;"/>
  </a>
 </g>
</svg>

<style type='text/css'>
<![CDATA[
[data-mouse-over-selected='false'] { opacity: 0.7; }
[data-mouse-over-selected='true']  { opacity: 1.0; }
]]>
</style>
<script type="application/ecmascript"><![CDATA[
document.addEventListener('DOMContentLoaded', (event) => {
  highlightEdges();
  highlightAdjacentNodes();
});
]]></script>
</svg>
