<?xml version="1.0" encoding="UTF-8" standalone="no"?>
<!DOCTYPE svg PUBLIC "-//W3C//DTD SVG 1.1//EN"
 "http://www.w3.org/Graphics/SVG/1.1/DTD/svg11.dtd">
<!-- Generated by graphviz version 2.43.0 (0)
 -->
<!-- Title: request/RequestParse.cpp Pages: 1 -->
<svg width="1445pt" height="247pt"
 viewBox="0.00 0.00 1444.70 247.00" xmlns="http://www.w3.org/2000/svg" xmlns:xlink="http://www.w3.org/1999/xlink">
<g id="graph0" class="graph" transform="scale(1 1) rotate(0) translate(4 243)">
<title>request/RequestParse.cpp</title>
<!-- Node1 -->
<g id="Node000001" class="node">
<title>Node1</title>
<g id="a_Node000001"><a xlink:title=" ">
<polygon fill="#999999" stroke="#666666" points="724.7,-239 581.7,-239 581.7,-220 724.7,-220 724.7,-239"/>
<text text-anchor="middle" x="653.2" y="-227" font-family="Helvetica,sans-Serif" font-size="10.00">request/RequestParse.cpp</text>
</a>
</g>
</g>
<!-- Node2 -->
<g id="Node000002" class="node">
<title>Node2</title>
<g id="a_Node000002"><a xlink:title=" ">
<polygon fill="#e0e0e0" stroke="#999999" points="489.2,-129 429.2,-129 429.2,-110 489.2,-110 489.2,-129"/>
<text text-anchor="middle" x="459.2" y="-117" font-family="Helvetica,sans-Serif" font-size="10.00">iostream</text>
</a>
</g>
</g>
<!-- Node1&#45;&gt;Node2 -->
<g id="edge1_Node000001_Node000002" class="edge">
<title>Node1&#45;&gt;Node2</title>
<g id="a_edge1_Node000001_Node000002"><a xlink:title=" ">
<path fill="none" stroke="#63b8ff" d="M581.37,-226.33C546.17,-221.63 505.58,-210.26 478.2,-184 466.15,-172.44 461.65,-153.56 460.02,-139.39"/>
<polygon fill="#63b8ff" stroke="#63b8ff" points="463.5,-138.97 459.24,-129.27 456.52,-139.51 463.5,-138.97"/>
</a>
</g>
</g>
<!-- Node3 -->
<g id="Node000003" class="node">
<title>Node3</title>
<g id="a_Node000003"><a xlink:title=" ">
<polygon fill="#e0e0e0" stroke="#999999" points="1436.7,-184 1371.7,-184 1371.7,-165 1436.7,-165 1436.7,-184"/>
<text text-anchor="middle" x="1404.2" y="-172" font-family="Helvetica,sans-Serif" font-size="10.00">exception</text>
</a>
</g>
</g>
<!-- Node1&#45;&gt;Node3 -->
<g id="edge2_Node000001_Node000003" class="edge">
<title>Node1&#45;&gt;Node3</title>
<g id="a_edge2_Node000001_Node000003"><a xlink:title=" ">
<path fill="none" stroke="#63b8ff" d="M724.91,-226.71C852.49,-222.91 1127.13,-211.98 1357.2,-184 1358.67,-183.82 1360.16,-183.63 1361.66,-183.42"/>
<polygon fill="#63b8ff" stroke="#63b8ff" points="1362.31,-186.86 1371.66,-181.89 1361.25,-179.94 1362.31,-186.86"/>
</a>
</g>
</g>
<!-- Node4 -->
<g id="Node000004" class="node">
<title>Node4</title>
<g id="a_Node000004"><a xlink:title=" ">
<polygon fill="#e0e0e0" stroke="#999999" points="336.7,-129 287.7,-129 287.7,-110 336.7,-110 336.7,-129"/>
<text text-anchor="middle" x="312.2" y="-117" font-family="Helvetica,sans-Serif" font-size="10.00">cstdlib</text>
</a>
</g>
</g>
<!-- Node1&#45;&gt;Node4 -->
<g id="edge3_Node000001_Node000004" class="edge">
<title>Node1&#45;&gt;Node4</title>
<g id="a_edge3_Node000001_Node000004"><a xlink:title=" ">
<path fill="none" stroke="#63b8ff" d="M606.92,-219.93C568.08,-212.2 511.37,-199.65 463.2,-184 418.73,-169.56 369.1,-147.47 339.28,-133.52"/>
<polygon fill="#63b8ff" stroke="#63b8ff" points="340.5,-130.23 329.96,-129.12 337.51,-136.56 340.5,-130.23"/>
</a>
</g>
</g>
<!-- Node5 -->
<g id="Node000005" class="node">
<title>Node5</title>
<g id="a_Node000005"><a xlink:title=" ">
<polygon fill="#e0e0e0" stroke="#999999" points="132.7,-19 85.7,-19 85.7,0 132.7,0 132.7,-19"/>
<text text-anchor="middle" x="109.2" y="-7" font-family="Helvetica,sans-Serif" font-size="10.00">vector</text>
</a>
</g>
</g>
<!-- Node1&#45;&gt;Node5 -->
<g id="edge4_Node000001_Node000005" class="edge">
<title>Node1&#45;&gt;Node5</title>
<g id="a_edge4_Node000001_Node000005"><a xlink:title=" ">
<path fill="none" stroke="#63b8ff" d="M581.66,-228.58C482.56,-227.25 298.49,-219.61 146.2,-184 80.71,-168.68 43.15,-184.54 5.2,-129 -6.6,-111.73 4.7,-72.91 19.2,-55 33.49,-37.35 56.55,-26.14 75.75,-19.38"/>
<polygon fill="#63b8ff" stroke="#63b8ff" points="76.94,-22.67 85.37,-16.25 74.78,-16.02 76.94,-22.67"/>
</a>
</g>
</g>
<!-- Node6 -->
<g id="Node000006" class="node">
<title>Node6</title>
<g id="a_Node000006"><a xlink:href="string__utils_8hpp.html" target="_top" xlink:title="Collection of inline string utility functions used across Webservinho.">
<polygon fill="white" stroke="#666666" points="271.2,-184 155.2,-184 155.2,-165 271.2,-165 271.2,-184"/>
<text text-anchor="middle" x="213.2" y="-172" font-family="Helvetica,sans-Serif" font-size="10.00">utils/string_utils.hpp</text>
</a>
</g>
</g>
<!-- Node1&#45;&gt;Node6 -->
<g id="edge5_Node000001_Node000006" class="edge">
<title>Node1&#45;&gt;Node6</title>
<g id="a_edge5_Node000001_Node000006"><a xlink:title=" ">
<path fill="none" stroke="#63b8ff" d="M582.51,-219.98C499.61,-210 363.15,-193.56 281.36,-183.71"/>
<polygon fill="#63b8ff" stroke="#63b8ff" points="281.76,-180.23 271.42,-182.51 280.93,-187.18 281.76,-180.23"/>
</a>
</g>
</g>
<!-- Node12 -->
<g id="Node000012" class="node">
<title>Node12</title>
<g id="a_Node000012"><a xlink:href="Logger_8hpp.html" target="_top" xlink:title=" ">
<polygon fill="white" stroke="#666666" points="581.2,-184 487.2,-184 487.2,-165 581.2,-165 581.2,-184"/>
<text text-anchor="middle" x="534.2" y="-172" font-family="Helvetica,sans-Serif" font-size="10.00">utils/Logger.hpp</text>
</a>
</g>
</g>
<!-- Node1&#45;&gt;Node12 -->
<g id="edge13_Node000001_Node000012" class="edge">
<title>Node1&#45;&gt;Node12</title>
<g id="a_edge13_Node000001_Node000012"><a xlink:title=" ">
<path fill="none" stroke="#63b8ff" d="M634.08,-219.98C614.85,-211.42 584.97,-198.11 562.9,-188.28"/>
<polygon fill="#63b8ff" stroke="#63b8ff" points="564.23,-185.04 553.67,-184.17 561.38,-191.44 564.23,-185.04"/>
</a>
</g>
</g>
<!-- Node15 -->
<g id="Node000015" class="node">
<title>Node15</title>
<g id="a_Node000015"><a xlink:href="ResponseStatus_8hpp.html" target="_top" xlink:title=" ">
<polygon fill="white" stroke="#666666" points="1314.7,-74 1151.7,-74 1151.7,-55 1314.7,-55 1314.7,-74"/>
<text text-anchor="middle" x="1233.2" y="-62" font-family="Helvetica,sans-Serif" font-size="10.00">response/ResponseStatus.hpp</text>
</a>
</g>
</g>
<!-- Node1&#45;&gt;Node15 -->
<g id="edge18_Node000001_Node000015" class="edge">
<title>Node1&#45;&gt;Node15</title>
<g id="a_edge18_Node000001_Node000015"><a xlink:title=" ">
<path fill="none" stroke="#63b8ff" d="M724.93,-222.01C783.58,-215.61 868.26,-203.84 940.2,-184 1042.11,-155.9 1156.58,-102.98 1206.98,-78.51"/>
<polygon fill="#63b8ff" stroke="#63b8ff" points="1208.74,-81.55 1216.19,-74.02 1205.67,-75.26 1208.74,-81.55"/>
</a>
</g>
</g>
<!-- Node16 -->
<g id="Node000016" class="node">
<title>Node16</title>
<g id="a_Node000016"><a xlink:href="RequestParse_8hpp.html" target="_top" xlink:title=" ">
<polygon fill="white" stroke="#666666" points="931.7,-184 788.7,-184 788.7,-165 931.7,-165 931.7,-184"/>
<text text-anchor="middle" x="860.2" y="-172" font-family="Helvetica,sans-Serif" font-size="10.00">request/RequestParse.hpp</text>
</a>
</g>
</g>
<!-- Node1&#45;&gt;Node16 -->
<g id="edge19_Node000001_Node000016" class="edge">
<title>Node1&#45;&gt;Node16</title>
<g id="a_edge19_Node000001_Node000016"><a xlink:title=" ">
<path fill="none" stroke="#63b8ff" d="M686.46,-219.98C721.82,-210.93 777.88,-196.58 816.71,-186.64"/>
<polygon fill="#63b8ff" stroke="#63b8ff" points="817.87,-189.95 826.68,-184.08 816.13,-183.17 817.87,-189.95"/>
</a>
</g>
</g>
<!-- Node17 -->
<g id="Node000017" class="node">
<title>Node17</title>
<g id="a_Node000017"><a xlink:href="RequestMethod_8hpp.html" target="_top" xlink:title=" ">
<polygon fill="white" stroke="#666666" points="1000.2,-19 846.2,-19 846.2,0 1000.2,0 1000.2,-19"/>
<text text-anchor="middle" x="923.2" y="-7" font-family="Helvetica,sans-Serif" font-size="10.00">request/RequestMethod.hpp</text>
</a>
</g>
</g>
<!-- Node1&#45;&gt;Node17 -->
<g id="edge41_Node000001_Node000017" class="edge">
<title>Node1&#45;&gt;Node17</title>
<g id="a_edge41_Node000001_Node000017"><a xlink:title=" ">
<path fill="none" stroke="#63b8ff" d="M724.99,-223.44C883.1,-210.59 1252.98,-170.62 1323.2,-74 1361.11,-21.84 1139.39,-11.83 1010.6,-10.34"/>
<polygon fill="#63b8ff" stroke="#63b8ff" points="1010.38,-6.84 1000.34,-10.24 1010.31,-13.84 1010.38,-6.84"/>
</a>
</g>
</g>
<!-- Node23 -->
<g id="Node000023" class="node">
<title>Node23</title>
<g id="a_Node000023"><a xlink:href="ServerConfig_8hpp.html" target="_top" xlink:title=" ">
<polygon fill="white" stroke="#666666" points="813.2,-129 681.2,-129 681.2,-110 813.2,-110 813.2,-129"/>
<text text-anchor="middle" x="747.2" y="-117" font-family="Helvetica,sans-Serif" font-size="10.00">config/ServerConfig.hpp</text>
</a>
</g>
</g>
<!-- Node1&#45;&gt;Node23 -->
<g id="edge42_Node000001_Node000023" class="edge">
<title>Node1&#45;&gt;Node23</title>
<g id="a_edge42_Node000001_Node000023"><a xlink:title=" ">
<path fill="none" stroke="#63b8ff" d="M660.9,-219.66C676.67,-201.54 712.9,-159.91 733.04,-136.77"/>
<polygon fill="#63b8ff" stroke="#63b8ff" points="735.74,-139 739.67,-129.16 730.46,-134.4 735.74,-139"/>
</a>
</g>
</g>
<!-- Node24 -->
<g id="Node000024" class="node">
<title>Node24</title>
<g id="a_Node000024"><a xlink:href="LocationConfig_8hpp.html" target="_top" xlink:title=" ">
<polygon fill="white" stroke="#666666" points="383.2,-74 241.2,-74 241.2,-55 383.2,-55 383.2,-74"/>
<text text-anchor="middle" x="312.2" y="-62" font-family="Helvetica,sans-Serif" font-size="10.00">config/LocationConfig.hpp</text>
</a>
</g>
</g>
<!-- Node1&#45;&gt;Node24 -->
<g id="edge43_Node000001_Node000024" class="edge">
<title>Node1&#45;&gt;Node24</title>
<g id="a_edge43_Node000001_Node000024"><a xlink:title=" ">
<path fill="none" stroke="#63b8ff" d="M654.79,-219.81C658.25,-197.86 663.89,-139.8 633.2,-110 624.62,-101.67 485.69,-84.76 393.44,-74.35"/>
<polygon fill="#63b8ff" stroke="#63b8ff" points="393.6,-70.85 383.27,-73.21 392.82,-77.8 393.6,-70.85"/>
</a>
</g>
</g>
<!-- Node6&#45;&gt;Node4 -->
<g id="edge11_Node000006_Node000004" class="edge">
<title>Node6&#45;&gt;Node4</title>
<g id="a_edge11_Node000006_Node000004"><a xlink:title=" ">
<path fill="none" stroke="#63b8ff" d="M229.11,-164.98C244.75,-156.61 268.86,-143.7 287.09,-133.95"/>
<polygon fill="#63b8ff" stroke="#63b8ff" points="288.84,-136.98 296.01,-129.17 285.54,-130.8 288.84,-136.98"/>
</a>
</g>
</g>
<!-- Node6&#45;&gt;Node5 -->
<g id="edge8_Node000006_Node000005" class="edge">
<title>Node6&#45;&gt;Node5</title>
<g id="a_edge8_Node000006_Node000005"><a xlink:title=" ">
<path fill="none" stroke="#63b8ff" d="M154.82,-168.27C103.14,-162.29 33.33,-150.43 16.2,-129 -13.98,-91.24 47.91,-46.23 84.64,-24.13"/>
<polygon fill="#63b8ff" stroke="#63b8ff" points="86.51,-27.09 93.37,-19.02 82.97,-21.05 86.51,-27.09"/>
</a>
</g>
</g>
<!-- Node7 -->
<g id="Node000007" class="node">
<title>Node7</title>
<g id="a_Node000007"><a xlink:title=" ">
<polygon fill="#e0e0e0" stroke="#999999" points="433.2,-19 389.2,-19 389.2,0 433.2,0 433.2,-19"/>
<text text-anchor="middle" x="411.2" y="-7" font-family="Helvetica,sans-Serif" font-size="10.00">string</text>
</a>
</g>
</g>
<!-- Node6&#45;&gt;Node7 -->
<g id="edge6_Node000006_Node000007" class="edge">
<title>Node6&#45;&gt;Node7</title>
<g id="a_edge6_Node000006_Node000007"><a xlink:title=" ">
<path fill="none" stroke="#63b8ff" d="M210.89,-164.71C208.66,-155.79 205.46,-141.55 204.2,-129 200.7,-94.01 204.68,-76.89 232.2,-55 274.93,-21.02 340.13,-12.57 378.92,-10.71"/>
<polygon fill="#63b8ff" stroke="#63b8ff" points="379.26,-14.2 389.12,-10.34 379,-7.2 379.26,-14.2"/>
</a>
</g>
</g>
<!-- Node8 -->
<g id="Node000008" class="node">
<title>Node8</title>
<g id="a_Node000008"><a xlink:title=" ">
<polygon fill="#e0e0e0" stroke="#999999" points="411.2,-129 355.2,-129 355.2,-110 411.2,-110 411.2,-129"/>
<text text-anchor="middle" x="383.2" y="-117" font-family="Helvetica,sans-Serif" font-size="10.00">sstream</text>
</a>
</g>
</g>
<!-- Node6&#45;&gt;Node8 -->
<g id="edge7_Node000006_Node000008" class="edge">
<title>Node6&#45;&gt;Node8</title>
<g id="a_edge7_Node000006_Node000008"><a xlink:title=" ">
<path fill="none" stroke="#63b8ff" d="M240.52,-164.98C269.06,-156.09 314.03,-142.07 345.85,-132.15"/>
<polygon fill="#63b8ff" stroke="#63b8ff" points="347.17,-135.4 355.68,-129.08 345.09,-128.72 347.17,-135.4"/>
</a>
</g>
</g>
<!-- Node9 -->
<g id="Node000009" class="node">
<title>Node9</title>
<g id="a_Node000009"><a xlink:title=" ">
<polygon fill="#e0e0e0" stroke="#999999" points="89.2,-129 25.2,-129 25.2,-110 89.2,-110 89.2,-129"/>
<text text-anchor="middle" x="57.2" y="-117" font-family="Helvetica,sans-Serif" font-size="10.00">algorithm</text>
</a>
</g>
</g>
<!-- Node6&#45;&gt;Node9 -->
<g id="edge9_Node000006_Node000009" class="edge">
<title>Node6&#45;&gt;Node9</title>
<g id="a_edge9_Node000006_Node000009"><a xlink:title=" ">
<path fill="none" stroke="#63b8ff" d="M188.14,-164.98C162.18,-156.16 121.39,-142.31 92.25,-132.41"/>
<polygon fill="#63b8ff" stroke="#63b8ff" points="93.06,-128.99 82.46,-129.08 90.81,-135.61 93.06,-128.99"/>
</a>
</g>
</g>
<!-- Node10 -->
<g id="Node000010" class="node">
<title>Node10</title>
<g id="a_Node000010"><a xlink:title=" ">
<polygon fill="#e0e0e0" stroke="#999999" points="156.7,-129 107.7,-129 107.7,-110 156.7,-110 156.7,-129"/>
<text text-anchor="middle" x="132.2" y="-117" font-family="Helvetica,sans-Serif" font-size="10.00">cctype</text>
</a>
</g>
</g>
<!-- Node6&#45;&gt;Node10 -->
<g id="edge10_Node000006_Node000010" class="edge">
<title>Node6&#45;&gt;Node10</title>
<g id="a_edge10_Node000006_Node000010"><a xlink:title=" ">
<path fill="none" stroke="#63b8ff" d="M200.19,-164.98C187.75,-156.84 168.75,-144.41 153.99,-134.76"/>
<polygon fill="#63b8ff" stroke="#63b8ff" points="155.74,-131.72 145.45,-129.17 151.91,-137.57 155.74,-131.72"/>
</a>
</g>
</g>
<!-- Node11 -->
<g id="Node000011" class="node">
<title>Node11</title>
<g id="a_Node000011"><a xlink:title=" ">
<polygon fill="#e0e0e0" stroke="#999999" points="269.2,-129 213.2,-129 213.2,-110 269.2,-110 269.2,-129"/>
<text text-anchor="middle" x="241.2" y="-117" font-family="Helvetica,sans-Serif" font-size="10.00">iomanip</text>
</a>
</g>
</g>
<!-- Node6&#45;&gt;Node11 -->
<g id="edge12_Node000006_Node000011" class="edge">
<title>Node6&#45;&gt;Node11</title>
<g id="a_edge12_Node000006_Node000011"><a xlink:title=" ">
<path fill="none" stroke="#63b8ff" d="M217.83,-164.75C221.66,-157.49 227.23,-146.95 231.97,-137.98"/>
<polygon fill="#63b8ff" stroke="#63b8ff" points="235.09,-139.57 236.67,-129.09 228.9,-136.3 235.09,-139.57"/>
</a>
</g>
</g>
<!-- Node12&#45;&gt;Node2 -->
<g id="edge16_Node000012_Node000002" class="edge">
<title>Node12&#45;&gt;Node2</title>
<g id="a_edge16_Node000012_Node000002"><a xlink:title=" ">
<path fill="none" stroke="#63b8ff" d="M522.15,-164.98C510.74,-156.92 493.37,-144.65 479.77,-135.03"/>
<polygon fill="#63b8ff" stroke="#63b8ff" points="481.66,-132.08 471.47,-129.17 477.62,-137.8 481.66,-132.08"/>
</a>
</g>
</g>
<!-- Node12&#45;&gt;Node8 -->
<g id="edge17_Node000012_Node000008" class="edge">
<title>Node12&#45;&gt;Node8</title>
<g id="a_edge17_Node000012_Node000008"><a xlink:title=" ">
<path fill="none" stroke="#63b8ff" d="M509.94,-164.98C484.89,-156.19 445.57,-142.39 417.37,-132.49"/>
<polygon fill="#63b8ff" stroke="#63b8ff" points="418.5,-129.18 407.91,-129.17 416.18,-135.78 418.5,-129.18"/>
</a>
</g>
</g>
<!-- Node13 -->
<g id="Node000013" class="node">
<title>Node13</title>
<g id="a_Node000013"><a xlink:title=" ">
<polygon fill="#e0e0e0" stroke="#999999" points="551.2,-129 507.2,-129 507.2,-110 551.2,-110 551.2,-129"/>
<text text-anchor="middle" x="529.2" y="-117" font-family="Helvetica,sans-Serif" font-size="10.00">ctime</text>
</a>
</g>
</g>
<!-- Node12&#45;&gt;Node13 -->
<g id="edge14_Node000012_Node000013" class="edge">
<title>Node12&#45;&gt;Node13</title>
<g id="a_edge14_Node000012_Node000013"><a xlink:title=" ">
<path fill="none" stroke="#63b8ff" d="M533.38,-164.75C532.72,-157.8 531.78,-147.85 530.96,-139.13"/>
<polygon fill="#63b8ff" stroke="#63b8ff" points="534.44,-138.72 530.01,-129.09 527.47,-139.37 534.44,-138.72"/>
</a>
</g>
</g>
<!-- Node14 -->
<g id="Node000014" class="node">
<title>Node14</title>
<g id="a_Node000014"><a xlink:title=" ">
<polygon fill="#e0e0e0" stroke="#999999" points="624.7,-129 569.7,-129 569.7,-110 624.7,-110 624.7,-129"/>
<text text-anchor="middle" x="597.2" y="-117" font-family="Helvetica,sans-Serif" font-size="10.00">fstream</text>
</a>
</g>
</g>
<!-- Node12&#45;&gt;Node14 -->
<g id="edge15_Node000012_Node000014" class="edge">
<title>Node12&#45;&gt;Node14</title>
<g id="a_edge15_Node000012_Node000014"><a xlink:title=" ">
<path fill="none" stroke="#63b8ff" d="M544.33,-164.98C553.64,-157.15 567.67,-145.34 578.94,-135.86"/>
<polygon fill="#63b8ff" stroke="#63b8ff" points="581.5,-138.29 586.9,-129.17 576.99,-132.93 581.5,-138.29"/>
</a>
</g>
</g>
<!-- Node16&#45;&gt;Node17 -->
<g id="edge20_Node000016_Node000017" class="edge">
<title>Node16&#45;&gt;Node17</title>
<g id="a_edge20_Node000016_Node000017"><a xlink:title=" ">
<path fill="none" stroke="#63b8ff" d="M931.75,-165.85C989.09,-155.5 1065.9,-131.17 1103.2,-74 1129.44,-33.8 1068.34,-18.76 1010.35,-13.28"/>
<polygon fill="#63b8ff" stroke="#63b8ff" points="1010.59,-9.79 1000.33,-12.42 1009.99,-16.76 1010.59,-9.79"/>
</a>
</g>
</g>
<!-- Node18 -->
<g id="Node000018" class="node">
<title>Node18</title>
<g id="a_Node000018"><a xlink:href="HttpRequest_8hpp.html" target="_top" xlink:title=" ">
<polygon fill="white" stroke="#666666" points="969.2,-129 831.2,-129 831.2,-110 969.2,-110 969.2,-129"/>
<text text-anchor="middle" x="900.2" y="-117" font-family="Helvetica,sans-Serif" font-size="10.00">request/HttpRequest.hpp</text>
</a>
</g>
</g>
<!-- Node16&#45;&gt;Node18 -->
<g id="edge21_Node000016_Node000018" class="edge">
<title>Node16&#45;&gt;Node18</title>
<g id="a_edge21_Node000016_Node000018"><a xlink:title=" ">
<path fill="none" stroke="#63b8ff" d="M866.81,-164.75C872.46,-157.26 880.75,-146.28 887.65,-137.13"/>
<polygon fill="#63b8ff" stroke="#63b8ff" points="890.49,-139.18 893.72,-129.09 884.9,-134.96 890.49,-139.18"/>
</a>
</g>
</g>
<!-- Node16&#45;&gt;Node23 -->
<g id="edge31_Node000016_Node000023" class="edge">
<title>Node16&#45;&gt;Node23</title>
<g id="a_edge31_Node000016_Node000023"><a xlink:title=" ">
<path fill="none" stroke="#63b8ff" d="M842.05,-164.98C823.95,-156.5 795.92,-143.35 775.02,-133.54"/>
<polygon fill="#63b8ff" stroke="#63b8ff" points="776.23,-130.25 765.69,-129.17 773.26,-136.59 776.23,-130.25"/>
</a>
</g>
</g>
<!-- Node18&#45;&gt;Node5 -->
<g id="edge24_Node000018_Node000005" class="edge">
<title>Node18&#45;&gt;Node5</title>
<g id="a_edge24_Node000018_Node000005"><a xlink:title=" ">
<path fill="none" stroke="#63b8ff" d="M830.9,-110.77C827.96,-110.5 825.05,-110.24 822.2,-110 691.32,-98.88 358.84,-108.88 232.2,-74 193.75,-63.41 153.46,-39.86 129.87,-24.61"/>
<polygon fill="#63b8ff" stroke="#63b8ff" points="131.68,-21.61 121.41,-19.02 127.83,-27.45 131.68,-21.61"/>
</a>
</g>
</g>
<!-- Node18&#45;&gt;Node7 -->
<g id="edge22_Node000018_Node000007" class="edge">
<title>Node18&#45;&gt;Node7</title>
<g id="a_edge22_Node000018_Node000007"><a xlink:title=" ">
<path fill="none" stroke="#63b8ff" d="M861.42,-109.94C767.64,-89.22 529.9,-36.72 443.35,-17.6"/>
<polygon fill="#63b8ff" stroke="#63b8ff" points="443.85,-14.13 433.33,-15.39 442.34,-20.96 443.85,-14.13"/>
</a>
</g>
</g>
<!-- Node18&#45;&gt;Node15 -->
<g id="edge29_Node000018_Node000015" class="edge">
<title>Node18&#45;&gt;Node15</title>
<g id="a_edge29_Node000018_Node000015"><a xlink:title=" ">
<path fill="none" stroke="#63b8ff" d="M953.71,-109.98C1012.48,-100.63 1106.83,-85.61 1169.41,-75.65"/>
<polygon fill="#63b8ff" stroke="#63b8ff" points="1170.23,-79.07 1179.56,-74.04 1169.13,-72.15 1170.23,-79.07"/>
</a>
</g>
</g>
<!-- Node18&#45;&gt;Node17 -->
<g id="edge25_Node000018_Node000017" class="edge">
<title>Node18&#45;&gt;Node17</title>
<g id="a_edge25_Node000018_Node000017"><a xlink:title=" ">
<path fill="none" stroke="#63b8ff" d="M902.09,-109.66C905.83,-92.09 914.27,-52.45 919.27,-28.95"/>
<polygon fill="#63b8ff" stroke="#63b8ff" points="922.7,-29.67 921.36,-19.16 915.85,-28.21 922.7,-29.67"/>
</a>
</g>
</g>
<!-- Node19 -->
<g id="Node000019" class="node">
<title>Node19</title>
<g id="a_Node000019"><a xlink:title=" ">
<polygon fill="#e0e0e0" stroke="#999999" points="666.2,-19 628.2,-19 628.2,0 666.2,0 666.2,-19"/>
<text text-anchor="middle" x="647.2" y="-7" font-family="Helvetica,sans-Serif" font-size="10.00">map</text>
</a>
</g>
</g>
<!-- Node18&#45;&gt;Node19 -->
<g id="edge23_Node000018_Node000019" class="edge">
<title>Node18&#45;&gt;Node19</title>
<g id="a_edge23_Node000018_Node000019"><a xlink:title=" ">
<path fill="none" stroke="#63b8ff" d="M855.98,-109.96C823.55,-102.78 778.95,-90.94 742.2,-74 713.71,-60.87 684.17,-39.73 665.75,-25.49"/>
<polygon fill="#63b8ff" stroke="#63b8ff" points="667.68,-22.55 657.65,-19.12 663.35,-28.05 667.68,-22.55"/>
</a>
</g>
</g>
<!-- Node20 -->
<g id="Node000020" class="node">
<title>Node20</title>
<g id="a_Node000020"><a xlink:href="RequestMeta_8hpp.html" target="_top" xlink:title=" ">
<polygon fill="white" stroke="#666666" points="581.2,-74 439.2,-74 439.2,-55 581.2,-55 581.2,-74"/>
<text text-anchor="middle" x="510.2" y="-62" font-family="Helvetica,sans-Serif" font-size="10.00">request/RequestMeta.hpp</text>
</a>
</g>
</g>
<!-- Node18&#45;&gt;Node20 -->
<g id="edge26_Node000018_Node000020" class="edge">
<title>Node18&#45;&gt;Node20</title>
<g id="a_edge26_Node000018_Node000020"><a xlink:title=" ">
<path fill="none" stroke="#63b8ff" d="M837.54,-109.98C768.14,-100.55 656.38,-85.36 583.11,-75.41"/>
<polygon fill="#63b8ff" stroke="#63b8ff" points="583.41,-71.92 573.03,-74.04 582.47,-78.85 583.41,-71.92"/>
</a>
</g>
</g>
<!-- Node21 -->
<g id="Node000021" class="node">
<title>Node21</title>
<g id="a_Node000021"><a xlink:href="RequestState_8hpp.html" target="_top" xlink:title=" ">
<polygon fill="white" stroke="#666666" points="1094.7,-74 951.7,-74 951.7,-55 1094.7,-55 1094.7,-74"/>
<text text-anchor="middle" x="1023.2" y="-62" font-family="Helvetica,sans-Serif" font-size="10.00">request/RequestState.hpp</text>
</a>
</g>
</g>
<!-- Node18&#45;&gt;Node21 -->
<g id="edge28_Node000018_Node000021" class="edge">
<title>Node18&#45;&gt;Node21</title>
<g id="a_edge28_Node000018_Node000021"><a xlink:title=" ">
<path fill="none" stroke="#63b8ff" d="M919.97,-109.98C939.93,-101.38 971.01,-87.99 993.85,-78.15"/>
<polygon fill="#63b8ff" stroke="#63b8ff" points="995.28,-81.34 1003.08,-74.17 992.51,-74.91 995.28,-81.34"/>
</a>
</g>
</g>
<!-- Node22 -->
<g id="Node000022" class="node">
<title>Node22</title>
<g id="a_Node000022"><a xlink:href="RouteType_8hpp.html" target="_top" xlink:title=" ">
<polygon fill="white" stroke="#666666" points="894.7,-74 751.7,-74 751.7,-55 894.7,-55 894.7,-74"/>
<text text-anchor="middle" x="823.2" y="-62" font-family="Helvetica,sans-Serif" font-size="10.00">dispatcher/RouteType.hpp</text>
</a>
</g>
</g>
<!-- Node18&#45;&gt;Node22 -->
<g id="edge30_Node000018_Node000022" class="edge">
<title>Node18&#45;&gt;Node22</title>
<g id="a_edge30_Node000018_Node000022"><a xlink:title=" ">
<path fill="none" stroke="#63b8ff" d="M887.83,-109.98C876.11,-101.92 858.28,-89.65 844.32,-80.03"/>
<polygon fill="#63b8ff" stroke="#63b8ff" points="846.02,-76.96 835.8,-74.17 842.05,-82.72 846.02,-76.96"/>
</a>
</g>
</g>
<!-- Node20&#45;&gt;Node7 -->
<g id="edge27_Node000020_Node000007" class="edge">
<title>Node20&#45;&gt;Node7</title>
<g id="a_edge27_Node000020_Node000007"><a xlink:title=" ">
<path fill="none" stroke="#63b8ff" d="M494.3,-54.98C478.66,-46.61 454.55,-33.7 436.32,-23.95"/>
<polygon fill="#63b8ff" stroke="#63b8ff" points="437.87,-20.8 427.4,-19.17 434.56,-26.98 437.87,-20.8"/>
</a>
</g>
</g>
<!-- Node23&#45;&gt;Node5 -->
<g id="edge33_Node000023_Node000005" class="edge">
<title>Node23&#45;&gt;Node5</title>
<g id="a_edge33_Node000023_Node000005"><a xlink:title=" ">
<path fill="none" stroke="#63b8ff" d="M681.2,-113.55C665.47,-112.38 648.74,-111.14 633.2,-110 577.65,-105.93 177.86,-107.29 133.2,-74 119.2,-63.56 113.37,-43.92 110.94,-29.24"/>
<polygon fill="#63b8ff" stroke="#63b8ff" points="114.39,-28.69 109.66,-19.21 107.45,-29.57 114.39,-28.69"/>
</a>
</g>
</g>
<!-- Node23&#45;&gt;Node7 -->
<g id="edge32_Node000023_Node000007" class="edge">
<title>Node23&#45;&gt;Node7</title>
<g id="a_edge32_Node000023_Node000007"><a xlink:title=" ">
<path fill="none" stroke="#63b8ff" d="M680.98,-111.04C590.86,-100.63 439.64,-82.1 430.2,-74 417.39,-62.99 413.03,-43.74 411.63,-29.31"/>
<polygon fill="#63b8ff" stroke="#63b8ff" points="415.11,-28.8 411.05,-19.02 408.12,-29.2 415.11,-28.8"/>
</a>
</g>
</g>
<!-- Node23&#45;&gt;Node17 -->
<g id="edge40_Node000023_Node000017" class="edge">
<title>Node23&#45;&gt;Node17</title>
<g id="a_edge40_Node000023_Node000017"><a xlink:title=" ">
<path fill="none" stroke="#63b8ff" d="M743.08,-109.62C737.55,-96.25 729.79,-70.84 742.2,-55 754.91,-38.79 799.73,-27.7 841.59,-20.64"/>
<polygon fill="#63b8ff" stroke="#63b8ff" points="842.27,-24.08 851.58,-19.02 841.15,-17.17 842.27,-24.08"/>
</a>
</g>
</g>
<!-- Node23&#45;&gt;Node19 -->
<g id="edge34_Node000023_Node000019" class="edge">
<title>Node23&#45;&gt;Node19</title>
<g id="a_edge34_Node000023_Node000019"><a xlink:title=" ">
<path fill="none" stroke="#63b8ff" d="M724.1,-109.91C707.37,-102.63 685.31,-90.71 671.2,-74 660.39,-61.2 654.19,-43.03 650.81,-29.4"/>
<polygon fill="#63b8ff" stroke="#63b8ff" points="654.14,-28.27 648.59,-19.24 647.3,-29.76 654.14,-28.27"/>
</a>
</g>
</g>
<!-- Node23&#45;&gt;Node24 -->
<g id="edge35_Node000023_Node000024" class="edge">
<title>Node23&#45;&gt;Node24</title>
<g id="a_edge35_Node000023_Node000024"><a xlink:title=" ">
<path fill="none" stroke="#63b8ff" d="M681.14,-110.45C603.68,-101.01 475.34,-85.38 392.29,-75.26"/>
<polygon fill="#63b8ff" stroke="#63b8ff" points="392.49,-71.76 382.14,-74.02 391.64,-78.7 392.49,-71.76"/>
</a>
</g>
</g>
<!-- Node24&#45;&gt;Node5 -->
<g id="edge36_Node000024_Node000005" class="edge">
<title>Node24&#45;&gt;Node5</title>
<g id="a_edge36_Node000024_Node000005"><a xlink:title=" ">
<path fill="none" stroke="#63b8ff" d="M279.59,-54.98C242.09,-45.2 180.85,-29.21 142.91,-19.3"/>
<polygon fill="#63b8ff" stroke="#63b8ff" points="143.42,-15.82 132.86,-16.68 141.65,-22.59 143.42,-15.82"/>
</a>
</g>
</g>
<!-- Node24&#45;&gt;Node7 -->
<g id="edge37_Node000024_Node000007" class="edge">
<title>Node24&#45;&gt;Node7</title>
<g id="a_edge37_Node000024_Node000007"><a xlink:title=" ">
<path fill="none" stroke="#63b8ff" d="M328.11,-54.98C343.75,-46.61 367.86,-33.7 386.09,-23.95"/>
<polygon fill="#63b8ff" stroke="#63b8ff" points="387.84,-26.98 395.01,-19.17 384.54,-20.8 387.84,-26.98"/>
</a>
</g>
</g>
<!-- Node24&#45;&gt;Node17 -->
<g id="edge39_Node000024_Node000017" class="edge">
<title>Node24&#45;&gt;Node17</title>
<g id="a_edge39_Node000024_Node000017"><a xlink:title=" ">
<path fill="none" stroke="#63b8ff" d="M383.49,-57.32C496.01,-47.56 714.48,-28.61 836.12,-18.05"/>
<polygon fill="#63b8ff" stroke="#63b8ff" points="836.48,-21.54 846.15,-17.18 835.88,-14.56 836.48,-21.54"/>
</a>
</g>
</g>
<!-- Node24&#45;&gt;Node19 -->
<g id="edge38_Node000024_Node000019" class="edge">
<title>Node24&#45;&gt;Node19</title>
<g id="a_edge38_Node000024_Node000019"><a xlink:title=" ">
<path fill="none" stroke="#63b8ff" d="M366.03,-54.98C437.61,-43.66 561.65,-24.03 617.93,-15.13"/>
<polygon fill="#63b8ff" stroke="#63b8ff" points="618.61,-18.57 627.94,-13.55 617.51,-11.65 618.61,-18.57"/>
</a>
</g>
</g>
</g>
</svg>
