<?xml version="1.0" encoding="UTF-8" standalone="no"?>
<!DOCTYPE svg PUBLIC "-//W3C//DTD SVG 1.1//EN"
 "http://www.w3.org/Graphics/SVG/1.1/DTD/svg11.dtd">
<!-- Generated by graphviz version 2.43.0 (0)
 -->
<!-- Title: request/RequestParse.hpp Pages: 1 -->
<svg width="1168pt" height="192pt"
 viewBox="0.00 0.00 1167.50 192.00" xmlns="http://www.w3.org/2000/svg" xmlns:xlink="http://www.w3.org/1999/xlink">
<g id="graph0" class="graph" transform="scale(1 1) rotate(0) translate(4 188)">
<title>request/RequestParse.hpp</title>
<!-- Node1 -->
<g id="Node000001" class="node">
<title>Node1</title>
<g id="a_Node000001"><a xlink:title=" ">
<polygon fill="#999999" stroke="#666666" points="304.5,-184 161.5,-184 161.5,-165 304.5,-165 304.5,-184"/>
<text text-anchor="middle" x="233" y="-172" font-family="Helvetica,sans-Serif" font-size="10.00">request/RequestParse.hpp</text>
</a>
</g>
</g>
<!-- Node2 -->
<g id="Node000002" class="node">
<title>Node2</title>
<g id="a_Node000002"><a xlink:href="RequestMethod_8hpp.html" target="_top" xlink:title=" ">
<polygon fill="white" stroke="#666666" points="154,-19 0,-19 0,0 154,0 154,-19"/>
<text text-anchor="middle" x="77" y="-7" font-family="Helvetica,sans-Serif" font-size="10.00">request/RequestMethod.hpp</text>
</a>
</g>
</g>
<!-- Node1&#45;&gt;Node2 -->
<g id="edge1_Node000001_Node000002" class="edge">
<title>Node1&#45;&gt;Node2</title>
<g id="a_edge1_Node000001_Node000002"><a xlink:title=" ">
<path fill="none" stroke="#63b8ff" d="M202.15,-164.94C163.22,-152.29 97.97,-124.46 70,-74 62.36,-60.22 65.36,-42.19 69.53,-28.86"/>
<polygon fill="#63b8ff" stroke="#63b8ff" points="72.86,-29.94 72.96,-19.35 66.28,-27.57 72.86,-29.94"/>
</a>
</g>
</g>
<!-- Node3 -->
<g id="Node000003" class="node">
<title>Node3</title>
<g id="a_Node000003"><a xlink:href="HttpRequest_8hpp.html" target="_top" xlink:title=" ">
<polygon fill="white" stroke="#666666" points="615,-129 477,-129 477,-110 615,-110 615,-129"/>
<text text-anchor="middle" x="546" y="-117" font-family="Helvetica,sans-Serif" font-size="10.00">request/HttpRequest.hpp</text>
</a>
</g>
</g>
<!-- Node1&#45;&gt;Node3 -->
<g id="edge2_Node000001_Node000003" class="edge">
<title>Node1&#45;&gt;Node3</title>
<g id="a_edge2_Node000001_Node000003"><a xlink:title=" ">
<path fill="none" stroke="#63b8ff" d="M283.29,-164.98C338.42,-155.65 426.85,-140.67 485.68,-130.71"/>
<polygon fill="#63b8ff" stroke="#63b8ff" points="486.3,-134.16 495.58,-129.04 485.13,-127.26 486.3,-134.16"/>
</a>
</g>
</g>
<!-- Node11 -->
<g id="Node000011" class="node">
<title>Node11</title>
<g id="a_Node000011"><a xlink:href="ServerConfig_8hpp.html" target="_top" xlink:title=" ">
<polygon fill="white" stroke="#666666" points="299,-129 167,-129 167,-110 299,-110 299,-129"/>
<text text-anchor="middle" x="233" y="-117" font-family="Helvetica,sans-Serif" font-size="10.00">config/ServerConfig.hpp</text>
</a>
</g>
</g>
<!-- Node1&#45;&gt;Node11 -->
<g id="edge12_Node000001_Node000011" class="edge">
<title>Node1&#45;&gt;Node11</title>
<g id="a_edge12_Node000001_Node000011"><a xlink:title=" ">
<path fill="none" stroke="#63b8ff" d="M233,-164.75C233,-157.8 233,-147.85 233,-139.13"/>
<polygon fill="#63b8ff" stroke="#63b8ff" points="236.5,-139.09 233,-129.09 229.5,-139.09 236.5,-139.09"/>
</a>
</g>
</g>
<!-- Node3&#45;&gt;Node2 -->
<g id="edge6_Node000003_Node000002" class="edge">
<title>Node3&#45;&gt;Node2</title>
<g id="a_edge6_Node000003_Node000002"><a xlink:title=" ">
<path fill="none" stroke="#63b8ff" d="M476.87,-115.45C380.08,-110.37 209.66,-98.25 153,-74 128.19,-63.38 105.24,-41.92 91.19,-26.9"/>
<polygon fill="#63b8ff" stroke="#63b8ff" points="93.65,-24.4 84.34,-19.32 88.45,-29.09 93.65,-24.4"/>
</a>
</g>
</g>
<!-- Node4 -->
<g id="Node000004" class="node">
<title>Node4</title>
<g id="a_Node000004"><a xlink:title=" ">
<polygon fill="#e0e0e0" stroke="#999999" points="590,-19 546,-19 546,0 590,0 590,-19"/>
<text text-anchor="middle" x="568" y="-7" font-family="Helvetica,sans-Serif" font-size="10.00">string</text>
</a>
</g>
</g>
<!-- Node3&#45;&gt;Node4 -->
<g id="edge3_Node000003_Node000004" class="edge">
<title>Node3&#45;&gt;Node4</title>
<g id="a_edge3_Node000003_Node000004"><a xlink:title=" ">
<path fill="none" stroke="#63b8ff" d="M615.02,-115.81C724.32,-110.83 927.16,-98.38 949,-74 996.7,-20.74 700.61,-12.15 600.34,-10.77"/>
<polygon fill="#63b8ff" stroke="#63b8ff" points="600.23,-7.26 590.19,-10.64 600.15,-14.26 600.23,-7.26"/>
</a>
</g>
</g>
<!-- Node5 -->
<g id="Node000005" class="node">
<title>Node5</title>
<g id="a_Node000005"><a xlink:title=" ">
<polygon fill="#e0e0e0" stroke="#999999" points="389,-19 351,-19 351,0 389,0 389,-19"/>
<text text-anchor="middle" x="370" y="-7" font-family="Helvetica,sans-Serif" font-size="10.00">map</text>
</a>
</g>
</g>
<!-- Node3&#45;&gt;Node5 -->
<g id="edge4_Node000003_Node000005" class="edge">
<title>Node3&#45;&gt;Node5</title>
<g id="a_edge4_Node000003_Node000005"><a xlink:title=" ">
<path fill="none" stroke="#63b8ff" d="M529.86,-109.99C513.55,-101.29 487.73,-87.2 466,-74 439.46,-57.88 409.77,-37.93 390.53,-24.74"/>
<polygon fill="#63b8ff" stroke="#63b8ff" points="392.45,-21.82 382.23,-19.03 388.48,-27.58 392.45,-21.82"/>
</a>
</g>
</g>
<!-- Node6 -->
<g id="Node000006" class="node">
<title>Node6</title>
<g id="a_Node000006"><a xlink:title=" ">
<polygon fill="#e0e0e0" stroke="#999999" points="256.5,-19 209.5,-19 209.5,0 256.5,0 256.5,-19"/>
<text text-anchor="middle" x="233" y="-7" font-family="Helvetica,sans-Serif" font-size="10.00">vector</text>
</a>
</g>
</g>
<!-- Node3&#45;&gt;Node6 -->
<g id="edge5_Node000003_Node000006" class="edge">
<title>Node3&#45;&gt;Node6</title>
<g id="a_edge5_Node000003_Node000006"><a xlink:title=" ">
<path fill="none" stroke="#63b8ff" d="M521.18,-109.94C465.18,-90.61 329.01,-43.63 266,-21.89"/>
<polygon fill="#63b8ff" stroke="#63b8ff" points="267.13,-18.57 256.54,-18.62 264.85,-25.19 267.13,-18.57"/>
</a>
</g>
</g>
<!-- Node7 -->
<g id="Node000007" class="node">
<title>Node7</title>
<g id="a_Node000007"><a xlink:href="RequestMeta_8hpp.html" target="_top" xlink:title=" ">
<polygon fill="white" stroke="#666666" points="778,-74 636,-74 636,-55 778,-55 778,-74"/>
<text text-anchor="middle" x="707" y="-62" font-family="Helvetica,sans-Serif" font-size="10.00">request/RequestMeta.hpp</text>
</a>
</g>
</g>
<!-- Node3&#45;&gt;Node7 -->
<g id="edge7_Node000003_Node000007" class="edge">
<title>Node3&#45;&gt;Node7</title>
<g id="a_edge7_Node000003_Node000007"><a xlink:title=" ">
<path fill="none" stroke="#63b8ff" d="M571.87,-109.98C598.78,-101.13 641.12,-87.19 671.23,-77.28"/>
<polygon fill="#63b8ff" stroke="#63b8ff" points="672.53,-80.53 680.93,-74.08 670.34,-73.88 672.53,-80.53"/>
</a>
</g>
</g>
<!-- Node8 -->
<g id="Node000008" class="node">
<title>Node8</title>
<g id="a_Node000008"><a xlink:href="RequestState_8hpp.html" target="_top" xlink:title=" ">
<polygon fill="white" stroke="#666666" points="939.5,-74 796.5,-74 796.5,-55 939.5,-55 939.5,-74"/>
<text text-anchor="middle" x="868" y="-62" font-family="Helvetica,sans-Serif" font-size="10.00">request/RequestState.hpp</text>
</a>
</g>
</g>
<!-- Node3&#45;&gt;Node8 -->
<g id="edge9_Node000003_Node000008" class="edge">
<title>Node3&#45;&gt;Node8</title>
<g id="a_edge9_Node000003_Node000008"><a xlink:title=" ">
<path fill="none" stroke="#63b8ff" d="M597.73,-109.98C654.45,-100.65 745.43,-85.67 805.94,-75.71"/>
<polygon fill="#63b8ff" stroke="#63b8ff" points="806.83,-79.12 816.13,-74.04 805.69,-72.21 806.83,-79.12"/>
</a>
</g>
</g>
<!-- Node9 -->
<g id="Node000009" class="node">
<title>Node9</title>
<g id="a_Node000009"><a xlink:href="ResponseStatus_8hpp.html" target="_top" xlink:title=" ">
<polygon fill="white" stroke="#666666" points="1159.5,-74 996.5,-74 996.5,-55 1159.5,-55 1159.5,-74"/>
<text text-anchor="middle" x="1078" y="-62" font-family="Helvetica,sans-Serif" font-size="10.00">response/ResponseStatus.hpp</text>
</a>
</g>
</g>
<!-- Node3&#45;&gt;Node9 -->
<g id="edge10_Node000003_Node000009" class="edge">
<title>Node3&#45;&gt;Node9</title>
<g id="a_edge10_Node000003_Node000009"><a xlink:title=" ">
<path fill="none" stroke="#63b8ff" d="M615,-111.63C709.92,-102.17 880.97,-85.13 986.48,-74.62"/>
<polygon fill="#63b8ff" stroke="#63b8ff" points="986.88,-78.09 996.49,-73.62 986.19,-71.13 986.88,-78.09"/>
</a>
</g>
</g>
<!-- Node10 -->
<g id="Node000010" class="node">
<title>Node10</title>
<g id="a_Node000010"><a xlink:href="RouteType_8hpp.html" target="_top" xlink:title=" ">
<polygon fill="white" stroke="#666666" points="617.5,-74 474.5,-74 474.5,-55 617.5,-55 617.5,-74"/>
<text text-anchor="middle" x="546" y="-62" font-family="Helvetica,sans-Serif" font-size="10.00">dispatcher/RouteType.hpp</text>
</a>
</g>
</g>
<!-- Node3&#45;&gt;Node10 -->
<g id="edge11_Node000003_Node000010" class="edge">
<title>Node3&#45;&gt;Node10</title>
<g id="a_edge11_Node000003_Node000010"><a xlink:title=" ">
<path fill="none" stroke="#63b8ff" d="M546,-109.75C546,-102.8 546,-92.85 546,-84.13"/>
<polygon fill="#63b8ff" stroke="#63b8ff" points="549.5,-84.09 546,-74.09 542.5,-84.09 549.5,-84.09"/>
</a>
</g>
</g>
<!-- Node7&#45;&gt;Node4 -->
<g id="edge8_Node000007_Node000004" class="edge">
<title>Node7&#45;&gt;Node4</title>
<g id="a_edge8_Node000007_Node000004"><a xlink:title=" ">
<path fill="none" stroke="#63b8ff" d="M684.67,-54.98C661.67,-46.21 625.62,-32.47 599.68,-22.58"/>
<polygon fill="#63b8ff" stroke="#63b8ff" points="600.87,-19.29 590.28,-18.99 598.37,-25.83 600.87,-19.29"/>
</a>
</g>
</g>
<!-- Node11&#45;&gt;Node2 -->
<g id="edge21_Node000011_Node000002" class="edge">
<title>Node11&#45;&gt;Node2</title>
<g id="a_edge21_Node000011_Node000002"><a xlink:title=" ">
<path fill="none" stroke="#63b8ff" d="M166.76,-115.55C136.27,-110.56 102.4,-99.15 82,-74 72,-61.67 71.64,-43.19 73.26,-29.34"/>
<polygon fill="#63b8ff" stroke="#63b8ff" points="76.72,-29.86 74.83,-19.43 69.81,-28.76 76.72,-29.86"/>
</a>
</g>
</g>
<!-- Node11&#45;&gt;Node4 -->
<g id="edge13_Node000011_Node000004" class="edge">
<title>Node11&#45;&gt;Node4</title>
<g id="a_edge13_Node000011_Node000004"><a xlink:title=" ">
<path fill="none" stroke="#63b8ff" d="M259.57,-109.94C320.53,-90.28 470.26,-42.01 536.08,-20.79"/>
<polygon fill="#63b8ff" stroke="#63b8ff" points="537.46,-24.02 545.9,-17.63 535.31,-17.36 537.46,-24.02"/>
</a>
</g>
</g>
<!-- Node11&#45;&gt;Node5 -->
<g id="edge15_Node000011_Node000005" class="edge">
<title>Node11&#45;&gt;Node5</title>
<g id="a_edge15_Node000011_Node000005"><a xlink:title=" ">
<path fill="none" stroke="#63b8ff" d="M252.53,-109.89C269.45,-101.93 294.12,-89.07 313,-74 330.29,-60.21 346.8,-40.9 357.56,-27.21"/>
<polygon fill="#63b8ff" stroke="#63b8ff" points="360.44,-29.2 363.75,-19.13 354.89,-24.94 360.44,-29.2"/>
</a>
</g>
</g>
<!-- Node11&#45;&gt;Node6 -->
<g id="edge14_Node000011_Node000006" class="edge">
<title>Node11&#45;&gt;Node6</title>
<g id="a_edge14_Node000011_Node000006"><a xlink:title=" ">
<path fill="none" stroke="#63b8ff" d="M201.95,-109.87C184.25,-103.18 163.55,-91.95 153,-74 138.93,-50.07 171.98,-31.66 199.79,-20.97"/>
<polygon fill="#63b8ff" stroke="#63b8ff" points="201.11,-24.21 209.32,-17.51 198.72,-17.63 201.11,-24.21"/>
</a>
</g>
</g>
<!-- Node12 -->
<g id="Node000012" class="node">
<title>Node12</title>
<g id="a_Node000012"><a xlink:href="LocationConfig_8hpp.html" target="_top" xlink:title=" ">
<polygon fill="white" stroke="#666666" points="304,-74 162,-74 162,-55 304,-55 304,-74"/>
<text text-anchor="middle" x="233" y="-62" font-family="Helvetica,sans-Serif" font-size="10.00">config/LocationConfig.hpp</text>
</a>
</g>
</g>
<!-- Node11&#45;&gt;Node12 -->
<g id="edge16_Node000011_Node000012" class="edge">
<title>Node11&#45;&gt;Node12</title>
<g id="a_edge16_Node000011_Node000012"><a xlink:title=" ">
<path fill="none" stroke="#63b8ff" d="M233,-109.75C233,-102.8 233,-92.85 233,-84.13"/>
<polygon fill="#63b8ff" stroke="#63b8ff" points="236.5,-84.09 233,-74.09 229.5,-84.09 236.5,-84.09"/>
</a>
</g>
</g>
<!-- Node12&#45;&gt;Node2 -->
<g id="edge20_Node000012_Node000002" class="edge">
<title>Node12&#45;&gt;Node2</title>
<g id="a_edge20_Node000012_Node000002"><a xlink:title=" ">
<path fill="none" stroke="#63b8ff" d="M207.94,-54.98C181.97,-46.16 141.19,-32.31 112.04,-22.41"/>
<polygon fill="#63b8ff" stroke="#63b8ff" points="112.85,-18.99 102.26,-19.08 110.6,-25.61 112.85,-18.99"/>
</a>
</g>
</g>
<!-- Node12&#45;&gt;Node4 -->
<g id="edge18_Node000012_Node000004" class="edge">
<title>Node12&#45;&gt;Node4</title>
<g id="a_edge18_Node000012_Node000004"><a xlink:title=" ">
<path fill="none" stroke="#63b8ff" d="M286.82,-54.98C357.17,-43.86 478.16,-24.71 535.73,-15.6"/>
<polygon fill="#63b8ff" stroke="#63b8ff" points="536.39,-19.04 545.72,-14.02 535.3,-12.13 536.39,-19.04"/>
</a>
</g>
</g>
<!-- Node12&#45;&gt;Node5 -->
<g id="edge19_Node000012_Node000005" class="edge">
<title>Node12&#45;&gt;Node5</title>
<g id="a_edge19_Node000012_Node000005"><a xlink:title=" ">
<path fill="none" stroke="#63b8ff" d="M255.01,-54.98C278.38,-45.94 315.42,-31.61 341.12,-21.67"/>
<polygon fill="#63b8ff" stroke="#63b8ff" points="342.64,-24.84 350.7,-17.97 340.11,-18.31 342.64,-24.84"/>
</a>
</g>
</g>
<!-- Node12&#45;&gt;Node6 -->
<g id="edge17_Node000012_Node000006" class="edge">
<title>Node12&#45;&gt;Node6</title>
<g id="a_edge17_Node000012_Node000006"><a xlink:title=" ">
<path fill="none" stroke="#63b8ff" d="M233,-54.75C233,-47.8 233,-37.85 233,-29.13"/>
<polygon fill="#63b8ff" stroke="#63b8ff" points="236.5,-29.09 233,-19.09 229.5,-29.09 236.5,-29.09"/>
</a>
</g>
</g>
</g>
</svg>
