<?xml version="1.0" encoding="UTF-8" standalone="no"?>
<!DOCTYPE svg PUBLIC "-//W3C//DTD SVG 1.1//EN"
 "http://www.w3.org/Graphics/SVG/1.1/DTD/svg11.dtd">
<!-- Generated by graphviz version 2.43.0 (0)
 -->
<!-- Title: response/ResponseStatus.hpp Pages: 1 -->
<svg width="1774pt" height="302pt"
 viewBox="0.00 0.00 1774.06 302.00" xmlns="http://www.w3.org/2000/svg" xmlns:xlink="http://www.w3.org/1999/xlink">
<g id="graph0" class="graph" transform="scale(1 1) rotate(0) translate(4 298)">
<title>response/ResponseStatus.hpp</title>
<!-- Node1 -->
<g id="Node000001" class="node">
<title>Node1</title>
<g id="a_Node000001"><a xlink:title=" ">
<polygon fill="#999999" stroke="#666666" points="947.5,-294 784.5,-294 784.5,-275 947.5,-275 947.5,-294"/>
<text text-anchor="middle" x="866" y="-282" font-family="Helvetica,sans-Serif" font-size="10.00">response/ResponseStatus.hpp</text>
</a>
</g>
</g>
<!-- Node2 -->
<g id="Node000002" class="node">
<title>Node2</title>
<g id="a_Node000002"><a xlink:href="AutoIndexHandler_8cpp.html" target="_top" xlink:title=" ">
<polygon fill="white" stroke="#666666" points="178,-74 0,-74 0,-55 178,-55 178,-74"/>
<text text-anchor="middle" x="89" y="-62" font-family="Helvetica,sans-Serif" font-size="10.00">dispatcher/AutoIndexHandler.cpp</text>
</a>
</g>
</g>
<!-- Node1&#45;&gt;Node2 -->
<g id="edge1_Node000001_Node000002" class="edge">
<title>Node1&#45;&gt;Node2</title>
<g id="a_edge1_Node000001_Node000002"><a xlink:title=" ">
<path fill="none" stroke="#63b8ff" d="M773.83,-281.43C619.5,-277.25 315.51,-265.84 212,-239 156.38,-224.58 127.01,-231.71 95,-184 71.7,-149.28 81.58,-95.11 86.67,-74.17"/>
<polygon fill="#63b8ff" stroke="#63b8ff" points="774.14,-284.94 784.23,-281.7 774.33,-277.94 774.14,-284.94"/>
</a>
</g>
</g>
<!-- Node3 -->
<g id="Node000003" class="node">
<title>Node3</title>
<g id="a_Node000003"><a xlink:href="DeleteHandler_8hpp.html" target="_top" xlink:title=" ">
<polygon fill="white" stroke="#666666" points="273.5,-184 112.5,-184 112.5,-165 273.5,-165 273.5,-184"/>
<text text-anchor="middle" x="193" y="-172" font-family="Helvetica,sans-Serif" font-size="10.00">dispatcher/DeleteHandler.hpp</text>
</a>
</g>
</g>
<!-- Node1&#45;&gt;Node3 -->
<g id="edge2_Node000001_Node000003" class="edge">
<title>Node1&#45;&gt;Node3</title>
<g id="a_edge2_Node000001_Node000003"><a xlink:title=" ">
<path fill="none" stroke="#63b8ff" d="M802.96,-273.38C671.16,-252.23 368.52,-203.67 245.97,-184"/>
<polygon fill="#63b8ff" stroke="#63b8ff" points="802.48,-276.85 812.91,-274.98 803.59,-269.94 802.48,-276.85"/>
</a>
</g>
</g>
<!-- Node6 -->
<g id="Node000006" class="node">
<title>Node6</title>
<g id="a_Node000006"><a xlink:href="Router_8cpp.html" target="_top" xlink:title=" ">
<polygon fill="white" stroke="#666666" points="1703,-74 1581,-74 1581,-55 1703,-55 1703,-74"/>
<text text-anchor="middle" x="1642" y="-62" font-family="Helvetica,sans-Serif" font-size="10.00">dispatcher/Router.cpp</text>
</a>
</g>
</g>
<!-- Node1&#45;&gt;Node6 -->
<g id="edge5_Node000001_Node000006" class="edge">
<title>Node1&#45;&gt;Node6</title>
<g id="a_edge5_Node000001_Node000006"><a xlink:title=" ">
<path fill="none" stroke="#63b8ff" d="M957.98,-282.68C1079.34,-280.29 1299.19,-271.37 1484,-239 1572.7,-223.46 1597.48,-222.24 1679,-184 1722.85,-163.43 1786.49,-149.87 1759,-110 1746.05,-91.21 1724.04,-80.35 1702.58,-74.08"/>
<polygon fill="#63b8ff" stroke="#63b8ff" points="957.56,-279.19 947.63,-282.88 957.69,-286.19 957.56,-279.19"/>
</a>
</g>
</g>
<!-- Node7 -->
<g id="Node000007" class="node">
<title>Node7</title>
<g id="a_Node000007"><a xlink:href="UploadHandler_8cpp.html" target="_top" xlink:title=" ">
<polygon fill="white" stroke="#666666" points="1549.5,-129 1386.5,-129 1386.5,-110 1549.5,-110 1549.5,-129"/>
<text text-anchor="middle" x="1468" y="-117" font-family="Helvetica,sans-Serif" font-size="10.00">dispatcher/UploadHandler.cpp</text>
</a>
</g>
</g>
<!-- Node1&#45;&gt;Node7 -->
<g id="edge6_Node000001_Node000007" class="edge">
<title>Node1&#45;&gt;Node7</title>
<g id="a_edge6_Node000001_Node000007"><a xlink:title=" ">
<path fill="none" stroke="#63b8ff" d="M957.57,-280.93C1106.37,-274.73 1390.93,-253.83 1459,-184 1473.3,-169.33 1471.69,-142.94 1469.66,-129.26"/>
<polygon fill="#63b8ff" stroke="#63b8ff" points="957.38,-277.43 947.53,-281.33 957.66,-284.43 957.38,-277.43"/>
</a>
</g>
</g>
<!-- Node8 -->
<g id="Node000008" class="node">
<title>Node8</title>
<g id="a_Node000008"><a xlink:href="HttpRequest_8hpp.html" target="_top" xlink:title=" ">
<polygon fill="white" stroke="#666666" points="1017,-239 879,-239 879,-220 1017,-220 1017,-239"/>
<text text-anchor="middle" x="948" y="-227" font-family="Helvetica,sans-Serif" font-size="10.00">request/HttpRequest.hpp</text>
</a>
</g>
</g>
<!-- Node1&#45;&gt;Node8 -->
<g id="edge7_Node000001_Node000008" class="edge">
<title>Node1&#45;&gt;Node8</title>
<g id="a_edge7_Node000001_Node000008"><a xlink:title=" ">
<path fill="none" stroke="#63b8ff" d="M887.78,-269.42C902.66,-259.81 921.91,-247.37 934.59,-239.17"/>
<polygon fill="#63b8ff" stroke="#63b8ff" points="885.67,-266.62 879.17,-274.98 889.47,-272.5 885.67,-266.62"/>
</a>
</g>
</g>
<!-- Node24 -->
<g id="Node000024" class="node">
<title>Node24</title>
<g id="a_Node000024"><a xlink:href="ResponseBuilder_8hpp.html" target="_top" xlink:title=" ">
<polygon fill="white" stroke="#666666" points="565,-129 399,-129 399,-110 565,-110 565,-129"/>
<text text-anchor="middle" x="482" y="-117" font-family="Helvetica,sans-Serif" font-size="10.00">response/ResponseBuilder.hpp</text>
</a>
</g>
</g>
<!-- Node1&#45;&gt;Node24 -->
<g id="edge59_Node000001_Node000024" class="edge">
<title>Node1&#45;&gt;Node24</title>
<g id="a_edge59_Node000001_Node000024"><a xlink:title=" ">
<path fill="none" stroke="#63b8ff" d="M774.35,-278.26C581.39,-266.29 147.33,-234.04 104,-184 98.47,-177.62 98.39,-171.31 104,-165 123.24,-143.37 293.28,-130.5 398.64,-124.53"/>
<polygon fill="#63b8ff" stroke="#63b8ff" points="774.28,-281.76 784.48,-278.88 774.71,-274.78 774.28,-281.76"/>
</a>
</g>
</g>
<!-- Node28 -->
<g id="Node000028" class="node">
<title>Node28</title>
<g id="a_Node000028"><a xlink:href="RequestParse_8cpp.html" target="_top" xlink:title=" ">
<polygon fill="white" stroke="#666666" points="1749.5,-129 1606.5,-129 1606.5,-110 1749.5,-110 1749.5,-129"/>
<text text-anchor="middle" x="1678" y="-117" font-family="Helvetica,sans-Serif" font-size="10.00">request/RequestParse.cpp</text>
</a>
</g>
</g>
<!-- Node1&#45;&gt;Node28 -->
<g id="edge49_Node000001_Node000028" class="edge">
<title>Node1&#45;&gt;Node28</title>
<g id="a_edge49_Node000001_Node000028"><a xlink:title=" ">
<path fill="none" stroke="#63b8ff" d="M957.6,-277.87C1155.17,-264.89 1607.7,-230.4 1659,-184 1674.7,-169.8 1677.65,-143.21 1678.06,-129.37"/>
<polygon fill="#63b8ff" stroke="#63b8ff" points="957.28,-274.38 947.53,-278.52 957.74,-281.36 957.28,-274.38"/>
</a>
</g>
</g>
<!-- Node29 -->
<g id="Node000029" class="node">
<title>Node29</title>
<g id="a_Node000029"><a xlink:href="HttpResponse_8hpp.html" target="_top" xlink:title=" ">
<polygon fill="white" stroke="#666666" points="860.5,-239 707.5,-239 707.5,-220 860.5,-220 860.5,-239"/>
<text text-anchor="middle" x="784" y="-227" font-family="Helvetica,sans-Serif" font-size="10.00">response/HttpResponse.hpp</text>
</a>
</g>
</g>
<!-- Node1&#45;&gt;Node29 -->
<g id="edge50_Node000001_Node000029" class="edge">
<title>Node1&#45;&gt;Node29</title>
<g id="a_edge50_Node000001_Node000029"><a xlink:title=" ">
<path fill="none" stroke="#63b8ff" d="M844.22,-269.42C829.34,-259.81 810.09,-247.37 797.41,-239.17"/>
<polygon fill="#63b8ff" stroke="#63b8ff" points="842.53,-272.5 852.83,-274.98 846.33,-266.62 842.53,-272.5"/>
</a>
</g>
</g>
<!-- Node4 -->
<g id="Node000004" class="node">
<title>Node4</title>
<g id="a_Node000004"><a xlink:href="DeleteHandler_8cpp.html" target="_top" xlink:title=" ">
<polygon fill="white" stroke="#666666" points="273.5,-129 112.5,-129 112.5,-110 273.5,-110 273.5,-129"/>
<text text-anchor="middle" x="193" y="-117" font-family="Helvetica,sans-Serif" font-size="10.00">dispatcher/DeleteHandler.cpp</text>
</a>
</g>
</g>
<!-- Node3&#45;&gt;Node4 -->
<g id="edge3_Node000003_Node000004" class="edge">
<title>Node3&#45;&gt;Node4</title>
<g id="a_edge3_Node000003_Node000004"><a xlink:title=" ">
<path fill="none" stroke="#63b8ff" d="M193,-154.66C193,-145.93 193,-135.99 193,-129.09"/>
<polygon fill="#63b8ff" stroke="#63b8ff" points="189.5,-154.75 193,-164.75 196.5,-154.75 189.5,-154.75"/>
</a>
</g>
</g>
<!-- Node5 -->
<g id="Node000005" class="node">
<title>Node5</title>
<g id="a_Node000005"><a xlink:href="Dispatcher_8cpp.html" target="_top" xlink:title=" ">
<polygon fill="white" stroke="#666666" points="920.5,-74 777.5,-74 777.5,-55 920.5,-55 920.5,-74"/>
<text text-anchor="middle" x="849" y="-62" font-family="Helvetica,sans-Serif" font-size="10.00">dispatcher/Dispatcher.cpp</text>
</a>
</g>
</g>
<!-- Node3&#45;&gt;Node5 -->
<g id="edge4_Node000003_Node000005" class="edge">
<title>Node3&#45;&gt;Node5</title>
<g id="a_edge4_Node000003_Node000005"><a xlink:title=" ">
<path fill="none" stroke="#63b8ff" d="M283.98,-164.24C378.57,-154.36 520.19,-138.83 574,-129 608.25,-122.75 616.12,-118.02 650,-110 705.12,-96.95 769.07,-82.83 809.29,-74.07"/>
<polygon fill="#63b8ff" stroke="#63b8ff" points="283.42,-160.78 273.83,-165.29 284.14,-167.74 283.42,-160.78"/>
</a>
</g>
</g>
<!-- Node8&#45;&gt;Node3 -->
<g id="edge17_Node000008_Node000003" class="edge">
<title>Node8&#45;&gt;Node3</title>
<g id="a_edge17_Node000008_Node000003"><a xlink:title=" ">
<path fill="none" stroke="#63b8ff" d="M868.54,-219.92C607.86,-198 540.28,-204.03 283,-184 280.03,-183.77 277,-183.52 273.94,-183.27"/>
<polygon fill="#63b8ff" stroke="#63b8ff" points="868.43,-223.42 878.69,-220.78 869.02,-216.44 868.43,-223.42"/>
</a>
</g>
</g>
<!-- Node9 -->
<g id="Node000009" class="node">
<title>Node9</title>
<g id="a_Node000009"><a xlink:href="AutoIndexHandler_8hpp.html" target="_top" xlink:title=" ">
<polygon fill="white" stroke="#666666" points="679.5,-184 500.5,-184 500.5,-165 679.5,-165 679.5,-184"/>
<text text-anchor="middle" x="590" y="-172" font-family="Helvetica,sans-Serif" font-size="10.00">dispatcher/AutoIndexHandler.hpp</text>
</a>
</g>
</g>
<!-- Node8&#45;&gt;Node9 -->
<g id="edge8_Node000008_Node000009" class="edge">
<title>Node8&#45;&gt;Node9</title>
<g id="a_edge8_Node000008_Node000009"><a xlink:title=" ">
<path fill="none" stroke="#63b8ff" d="M880.41,-218.49C813.2,-208.54 711.19,-193.44 647.67,-184.04"/>
<polygon fill="#63b8ff" stroke="#63b8ff" points="880.08,-221.98 890.48,-219.98 881.1,-215.06 880.08,-221.98"/>
</a>
</g>
</g>
<!-- Node10 -->
<g id="Node000010" class="node">
<title>Node10</title>
<g id="a_Node000010"><a xlink:href="CgiHandler_8hpp.html" target="_top" xlink:title=" ">
<polygon fill="white" stroke="#666666" points="850.5,-129 705.5,-129 705.5,-110 850.5,-110 850.5,-129"/>
<text text-anchor="middle" x="778" y="-117" font-family="Helvetica,sans-Serif" font-size="10.00">dispatcher/CgiHandler.hpp</text>
</a>
</g>
</g>
<!-- Node8&#45;&gt;Node10 -->
<g id="edge11_Node000008_Node000010" class="edge">
<title>Node8&#45;&gt;Node10</title>
<g id="a_edge11_Node000008_Node000010"><a xlink:title=" ">
<path fill="none" stroke="#63b8ff" d="M939.25,-210.59C931.5,-196.43 918.95,-177.08 903,-165 879.03,-146.85 847.02,-135.64 821.39,-129.01"/>
<polygon fill="#63b8ff" stroke="#63b8ff" points="936.32,-212.55 944.03,-219.82 942.54,-209.33 936.32,-212.55"/>
</a>
</g>
</g>
<!-- Node15 -->
<g id="Node000015" class="node">
<title>Node15</title>
<g id="a_Node000015"><a xlink:href="StaticPageHandler_8hpp.html" target="_top" xlink:title=" ">
<polygon fill="white" stroke="#666666" points="878,-184 698,-184 698,-165 878,-165 878,-184"/>
<text text-anchor="middle" x="788" y="-172" font-family="Helvetica,sans-Serif" font-size="10.00">dispatcher/StaticPageHandler.hpp</text>
</a>
</g>
</g>
<!-- Node8&#45;&gt;Node15 -->
<g id="edge18_Node000008_Node000015" class="edge">
<title>Node8&#45;&gt;Node15</title>
<g id="a_edge18_Node000008_Node000015"><a xlink:title=" ">
<path fill="none" stroke="#63b8ff" d="M912.67,-216.8C882.81,-206.91 840.73,-192.97 813.91,-184.08"/>
<polygon fill="#63b8ff" stroke="#63b8ff" points="911.7,-220.16 922.29,-219.98 913.9,-213.52 911.7,-220.16"/>
</a>
</g>
</g>
<!-- Node17 -->
<g id="Node000017" class="node">
<title>Node17</title>
<g id="a_Node000017"><a xlink:href="UploadHandler_8hpp.html" target="_top" xlink:title=" ">
<polygon fill="white" stroke="#666666" points="1294,-184 1130,-184 1130,-165 1294,-165 1294,-184"/>
<text text-anchor="middle" x="1212" y="-172" font-family="Helvetica,sans-Serif" font-size="10.00">dispatcher/UploadHandler.hpp</text>
</a>
</g>
</g>
<!-- Node8&#45;&gt;Node17 -->
<g id="edge21_Node000008_Node000017" class="edge">
<title>Node8&#45;&gt;Node17</title>
<g id="a_edge21_Node000008_Node000017"><a xlink:title=" ">
<path fill="none" stroke="#63b8ff" d="M1000.29,-218C1049.78,-208.07 1123.17,-193.33 1169.25,-184.08"/>
<polygon fill="#63b8ff" stroke="#63b8ff" points="999.53,-214.58 990.42,-219.98 1000.91,-221.45 999.53,-214.58"/>
</a>
</g>
</g>
<!-- Node18 -->
<g id="Node000018" class="node">
<title>Node18</title>
<g id="a_Node000018"><a xlink:href="ClientConnection_8hpp.html" target="_top" xlink:title=" ">
<polygon fill="white" stroke="#666666" points="1112,-184 972,-184 972,-165 1112,-165 1112,-184"/>
<text text-anchor="middle" x="1042" y="-172" font-family="Helvetica,sans-Serif" font-size="10.00">init/ClientConnection.hpp</text>
</a>
</g>
</g>
<!-- Node8&#45;&gt;Node18 -->
<g id="edge24_Node000008_Node000018" class="edge">
<title>Node8&#45;&gt;Node18</title>
<g id="a_edge24_Node000008_Node000018"><a xlink:title=" ">
<path fill="none" stroke="#63b8ff" d="M972,-214.97C989.19,-205.28 1011.81,-192.52 1026.62,-184.17"/>
<polygon fill="#63b8ff" stroke="#63b8ff" points="970.09,-212.02 963.1,-219.98 973.53,-218.12 970.09,-212.02"/>
</a>
</g>
</g>
<!-- Node26 -->
<g id="Node000026" class="node">
<title>Node26</title>
<g id="a_Node000026"><a xlink:href="HttpRequest_8cpp.html" target="_top" xlink:title=" ">
<polygon fill="white" stroke="#666666" points="1449.5,-184 1312.5,-184 1312.5,-165 1449.5,-165 1449.5,-184"/>
<text text-anchor="middle" x="1381" y="-172" font-family="Helvetica,sans-Serif" font-size="10.00">request/HttpRequest.cpp</text>
</a>
</g>
</g>
<!-- Node8&#45;&gt;Node26 -->
<g id="edge45_Node000008_Node000026" class="edge">
<title>Node8&#45;&gt;Node26</title>
<g id="a_edge45_Node000008_Node000026"><a xlink:title=" ">
<path fill="none" stroke="#63b8ff" d="M1027.31,-218.79C1108.88,-208.81 1234.64,-193.42 1312.16,-183.93"/>
<polygon fill="#63b8ff" stroke="#63b8ff" points="1026.59,-215.35 1017.09,-220.04 1027.44,-222.3 1026.59,-215.35"/>
</a>
</g>
</g>
<!-- Node27 -->
<g id="Node000027" class="node">
<title>Node27</title>
<g id="a_Node000027"><a xlink:href="RequestParse_8hpp.html" target="_top" xlink:title=" ">
<polygon fill="white" stroke="#666666" points="1649.5,-184 1506.5,-184 1506.5,-165 1649.5,-165 1649.5,-184"/>
<text text-anchor="middle" x="1578" y="-172" font-family="Helvetica,sans-Serif" font-size="10.00">request/RequestParse.hpp</text>
</a>
</g>
</g>
<!-- Node8&#45;&gt;Node27 -->
<g id="edge46_Node000008_Node000027" class="edge">
<title>Node8&#45;&gt;Node27</title>
<g id="a_edge46_Node000008_Node000027"><a xlink:title=" ">
<path fill="none" stroke="#63b8ff" d="M1027.37,-221.82C1150.96,-211.43 1387.5,-191.53 1506.25,-181.54"/>
<polygon fill="#63b8ff" stroke="#63b8ff" points="1026.89,-218.35 1017.22,-222.68 1027.48,-225.33 1026.89,-218.35"/>
</a>
</g>
</g>
<!-- Node9&#45;&gt;Node2 -->
<g id="edge9_Node000009_Node000002" class="edge">
<title>Node9&#45;&gt;Node2</title>
<g id="a_edge9_Node000009_Node000002"><a xlink:title=" ">
<path fill="none" stroke="#63b8ff" d="M523.49,-163.3C474.43,-155.3 406.19,-143.16 347,-129 318.14,-122.1 311.7,-117.54 283,-110 230.36,-96.16 169.06,-82.51 129.68,-74.05"/>
<polygon fill="#63b8ff" stroke="#63b8ff" points="523.23,-166.8 533.66,-164.95 524.35,-159.89 523.23,-166.8"/>
</a>
</g>
</g>
<!-- Node9&#45;&gt;Node5 -->
<g id="edge10_Node000009_Node000005" class="edge">
<title>Node9&#45;&gt;Node5</title>
<g id="a_edge10_Node000009_Node000005"><a xlink:title=" ">
<path fill="none" stroke="#63b8ff" d="M608.94,-158.71C627.97,-144.47 658.63,-123.2 688,-110 725.56,-93.12 770.99,-81.28 804,-74.07"/>
<polygon fill="#63b8ff" stroke="#63b8ff" points="606.66,-156.04 600.82,-164.88 610.9,-161.61 606.66,-156.04"/>
</a>
</g>
</g>
<!-- Node10&#45;&gt;Node5 -->
<g id="edge13_Node000010_Node000005" class="edge">
<title>Node10&#45;&gt;Node5</title>
<g id="a_edge13_Node000010_Node000005"><a xlink:title=" ">
<path fill="none" stroke="#63b8ff" d="M797.59,-103.88C810.37,-94.34 826.61,-82.21 837.39,-74.17"/>
<polygon fill="#63b8ff" stroke="#63b8ff" points="795.33,-101.2 789.41,-109.98 799.51,-106.81 795.33,-101.2"/>
</a>
</g>
</g>
<!-- Node11 -->
<g id="Node000011" class="node">
<title>Node11</title>
<g id="a_Node000011"><a xlink:href="CgiHandler_8cpp.html" target="_top" xlink:title=" ">
<polygon fill="white" stroke="#666666" points="759,-74 615,-74 615,-55 759,-55 759,-74"/>
<text text-anchor="middle" x="687" y="-62" font-family="Helvetica,sans-Serif" font-size="10.00">dispatcher/CgiHandler.cpp</text>
</a>
</g>
</g>
<!-- Node10&#45;&gt;Node11 -->
<g id="edge12_Node000010_Node000011" class="edge">
<title>Node10&#45;&gt;Node11</title>
<g id="a_edge12_Node000010_Node000011"><a xlink:title=" ">
<path fill="none" stroke="#63b8ff" d="M754.3,-104.7C737.72,-95.04 716.09,-82.44 701.89,-74.17"/>
<polygon fill="#63b8ff" stroke="#63b8ff" points="752.98,-107.98 763.38,-109.98 756.5,-101.93 752.98,-107.98"/>
</a>
</g>
</g>
<!-- Node12 -->
<g id="Node000012" class="node">
<title>Node12</title>
<g id="a_Node000012"><a xlink:href="WebServer_8hpp.html" target="_top" xlink:title=" ">
<polygon fill="white" stroke="#666666" points="1085,-74 977,-74 977,-55 1085,-55 1085,-74"/>
<text text-anchor="middle" x="1031" y="-62" font-family="Helvetica,sans-Serif" font-size="10.00">init/WebServer.hpp</text>
</a>
</g>
</g>
<!-- Node10&#45;&gt;Node12 -->
<g id="edge14_Node000010_Node000012" class="edge">
<title>Node10&#45;&gt;Node12</title>
<g id="a_edge14_Node000010_Node000012"><a xlink:title=" ">
<path fill="none" stroke="#63b8ff" d="M828.7,-107.88C876.12,-97.94 946.05,-83.3 990.03,-74.08"/>
<polygon fill="#63b8ff" stroke="#63b8ff" points="827.72,-104.51 818.65,-109.98 829.15,-111.36 827.72,-104.51"/>
</a>
</g>
</g>
<!-- Node13 -->
<g id="Node000013" class="node">
<title>Node13</title>
<g id="a_Node000013"><a xlink:href="WebServer_8cpp.html" target="_top" xlink:title=" ">
<polygon fill="white" stroke="#666666" points="1002.5,-19 895.5,-19 895.5,0 1002.5,0 1002.5,-19"/>
<text text-anchor="middle" x="949" y="-7" font-family="Helvetica,sans-Serif" font-size="10.00">init/WebServer.cpp</text>
</a>
</g>
</g>
<!-- Node12&#45;&gt;Node13 -->
<g id="edge15_Node000012_Node000013" class="edge">
<title>Node12&#45;&gt;Node13</title>
<g id="a_edge15_Node000012_Node000013"><a xlink:title=" ">
<path fill="none" stroke="#63b8ff" d="M1009.22,-49.42C994.34,-39.81 975.09,-27.37 962.41,-19.17"/>
<polygon fill="#63b8ff" stroke="#63b8ff" points="1007.53,-52.5 1017.83,-54.98 1011.33,-46.62 1007.53,-52.5"/>
</a>
</g>
</g>
<!-- Node14 -->
<g id="Node000014" class="node">
<title>Node14</title>
<g id="a_Node000014"><a xlink:href="main_8cpp.html" target="_top" xlink:title=" ">
<polygon fill="white" stroke="#666666" points="1113,-19 1051,-19 1051,0 1113,0 1113,-19"/>
<text text-anchor="middle" x="1082" y="-7" font-family="Helvetica,sans-Serif" font-size="10.00">main.cpp</text>
</a>
</g>
</g>
<!-- Node12&#45;&gt;Node14 -->
<g id="edge16_Node000012_Node000014" class="edge">
<title>Node12&#45;&gt;Node14</title>
<g id="a_edge16_Node000012_Node000014"><a xlink:title=" ">
<path fill="none" stroke="#63b8ff" d="M1046.38,-47.52C1055.37,-38.18 1066.36,-26.75 1073.74,-19.09"/>
<polygon fill="#63b8ff" stroke="#63b8ff" points="1043.83,-45.12 1039.42,-54.75 1048.88,-49.97 1043.83,-45.12"/>
</a>
</g>
</g>
<!-- Node15&#45;&gt;Node5 -->
<g id="edge19_Node000015_Node000005" class="edge">
<title>Node15&#45;&gt;Node5</title>
<g id="a_edge19_Node000015_Node000005"><a xlink:title=" ">
<path fill="none" stroke="#63b8ff" d="M745.48,-161.84C714.09,-151.06 679.62,-133.19 697,-110 709.12,-93.83 757.44,-81.55 796.39,-74.04"/>
<polygon fill="#63b8ff" stroke="#63b8ff" points="744.46,-165.2 755.06,-164.96 746.63,-158.54 744.46,-165.2"/>
</a>
</g>
</g>
<!-- Node16 -->
<g id="Node000016" class="node">
<title>Node16</title>
<g id="a_Node000016"><a xlink:href="StaticPageHandler_8cpp.html" target="_top" xlink:title=" ">
<polygon fill="white" stroke="#666666" points="375.5,-74 196.5,-74 196.5,-55 375.5,-55 375.5,-74"/>
<text text-anchor="middle" x="286" y="-62" font-family="Helvetica,sans-Serif" font-size="10.00">dispatcher/StaticPageHandler.cpp</text>
</a>
</g>
</g>
<!-- Node15&#45;&gt;Node16 -->
<g id="edge20_Node000015_Node000016" class="edge">
<title>Node15&#45;&gt;Node16</title>
<g id="a_edge20_Node000015_Node000016"><a xlink:title=" ">
<path fill="none" stroke="#63b8ff" d="M687.63,-164.56C579,-154.53 417.51,-138.42 390,-129 352.57,-116.19 314.33,-88.21 296.44,-74.06"/>
<polygon fill="#63b8ff" stroke="#63b8ff" points="687.37,-168.05 697.65,-165.48 688.01,-161.08 687.37,-168.05"/>
</a>
</g>
</g>
<!-- Node17&#45;&gt;Node5 -->
<g id="edge22_Node000017_Node000005" class="edge">
<title>Node17&#45;&gt;Node5</title>
<g id="a_edge22_Node000017_Node000005"><a xlink:title=" ">
<path fill="none" stroke="#63b8ff" d="M1165.83,-162.4C1135.09,-154.44 1094.06,-142.73 1059,-129 1041.42,-122.11 1038.68,-116.62 1021,-110 978.25,-93.99 927.44,-81.62 892.18,-74.03"/>
<polygon fill="#63b8ff" stroke="#63b8ff" points="1165.28,-165.87 1175.84,-164.95 1167.01,-159.09 1165.28,-165.87"/>
</a>
</g>
</g>
<!-- Node17&#45;&gt;Node7 -->
<g id="edge23_Node000017_Node000007" class="edge">
<title>Node17&#45;&gt;Node7</title>
<g id="a_edge23_Node000017_Node000007"><a xlink:title=" ">
<path fill="none" stroke="#63b8ff" d="M1263,-162.94C1310.99,-153.01 1381.95,-138.31 1426.55,-129.08"/>
<polygon fill="#63b8ff" stroke="#63b8ff" points="1262.21,-159.53 1253.13,-164.98 1263.63,-166.38 1262.21,-159.53"/>
</a>
</g>
</g>
<!-- Node18&#45;&gt;Node10 -->
<g id="edge25_Node000018_Node000010" class="edge">
<title>Node18&#45;&gt;Node10</title>
<g id="a_edge25_Node000018_Node000010"><a xlink:title=" ">
<path fill="none" stroke="#63b8ff" d="M989.71,-163C940.22,-153.07 866.83,-138.33 820.75,-129.08"/>
<polygon fill="#63b8ff" stroke="#63b8ff" points="989.09,-166.45 999.58,-164.98 990.47,-159.58 989.09,-166.45"/>
</a>
</g>
</g>
<!-- Node19 -->
<g id="Node000019" class="node">
<title>Node19</title>
<g id="a_Node000019"><a xlink:href="Dispatcher_8hpp.html" target="_top" xlink:title=" ">
<polygon fill="white" stroke="#666666" points="1011.5,-129 868.5,-129 868.5,-110 1011.5,-110 1011.5,-129"/>
<text text-anchor="middle" x="940" y="-117" font-family="Helvetica,sans-Serif" font-size="10.00">dispatcher/Dispatcher.hpp</text>
</a>
</g>
</g>
<!-- Node18&#45;&gt;Node19 -->
<g id="edge26_Node000018_Node000019" class="edge">
<title>Node18&#45;&gt;Node19</title>
<g id="a_edge26_Node000018_Node000019"><a xlink:title=" ">
<path fill="none" stroke="#63b8ff" d="M1016.73,-160.37C997.99,-150.63 972.98,-137.64 956.69,-129.17"/>
<polygon fill="#63b8ff" stroke="#63b8ff" points="1015.12,-163.48 1025.61,-164.98 1018.35,-157.27 1015.12,-163.48"/>
</a>
</g>
</g>
<!-- Node20 -->
<g id="Node000020" class="node">
<title>Node20</title>
<g id="a_Node000020"><a xlink:href="Router_8hpp.html" target="_top" xlink:title=" ">
<polygon fill="white" stroke="#666666" points="1329.5,-129 1206.5,-129 1206.5,-110 1329.5,-110 1329.5,-129"/>
<text text-anchor="middle" x="1268" y="-117" font-family="Helvetica,sans-Serif" font-size="10.00">dispatcher/Router.hpp</text>
</a>
</g>
</g>
<!-- Node18&#45;&gt;Node20 -->
<g id="edge29_Node000018_Node000020" class="edge">
<title>Node18&#45;&gt;Node20</title>
<g id="a_edge29_Node000018_Node000020"><a xlink:title=" ">
<path fill="none" stroke="#63b8ff" d="M1088.09,-162.69C1130.44,-152.76 1192.36,-138.24 1231.4,-129.08"/>
<polygon fill="#63b8ff" stroke="#63b8ff" points="1087.25,-159.29 1078.31,-164.98 1088.85,-166.11 1087.25,-159.29"/>
</a>
</g>
</g>
<!-- Node21 -->
<g id="Node000021" class="node">
<title>Node21</title>
<g id="a_Node000021"><a xlink:href="ClientConnection_8cpp.html" target="_top" xlink:title=" ">
<polygon fill="white" stroke="#666666" points="1427.5,-74 1288.5,-74 1288.5,-55 1427.5,-55 1427.5,-74"/>
<text text-anchor="middle" x="1358" y="-62" font-family="Helvetica,sans-Serif" font-size="10.00">init/ClientConnection.cpp</text>
</a>
</g>
</g>
<!-- Node18&#45;&gt;Node21 -->
<g id="edge32_Node000018_Node000021" class="edge">
<title>Node18&#45;&gt;Node21</title>
<g id="a_edge32_Node000018_Node000021"><a xlink:title=" ">
<path fill="none" stroke="#63b8ff" d="M1121.55,-163.72C1206.7,-152.92 1330.77,-136.14 1339,-129 1355.17,-114.98 1357.87,-87.81 1358.14,-74"/>
<polygon fill="#63b8ff" stroke="#63b8ff" points="1121.11,-160.24 1111.63,-164.97 1121.99,-167.19 1121.11,-160.24"/>
</a>
</g>
</g>
<!-- Node22 -->
<g id="Node000022" class="node">
<title>Node22</title>
<g id="a_Node000022"><a xlink:href="ServerSocket_8hpp.html" target="_top" xlink:title=" ">
<polygon fill="white" stroke="#666666" points="1188,-129 1068,-129 1068,-110 1188,-110 1188,-129"/>
<text text-anchor="middle" x="1128" y="-117" font-family="Helvetica,sans-Serif" font-size="10.00">init/ServerSocket.hpp</text>
</a>
</g>
</g>
<!-- Node18&#45;&gt;Node22 -->
<g id="edge33_Node000018_Node000022" class="edge">
<title>Node18&#45;&gt;Node22</title>
<g id="a_edge33_Node000018_Node000022"><a xlink:title=" ">
<path fill="none" stroke="#63b8ff" d="M1064.4,-159.7C1080.07,-150.04 1100.51,-137.44 1113.93,-129.17"/>
<polygon fill="#63b8ff" stroke="#63b8ff" points="1062.49,-156.76 1055.82,-164.98 1066.17,-162.72 1062.49,-156.76"/>
</a>
</g>
</g>
<!-- Node18&#45;&gt;Node24 -->
<g id="edge37_Node000018_Node000024" class="edge">
<title>Node18&#45;&gt;Node24</title>
<g id="a_edge37_Node000018_Node000024"><a xlink:title=" ">
<path fill="none" stroke="#63b8ff" d="M961.66,-165.9C856.28,-155.92 672.23,-138.5 565.37,-128.39"/>
<polygon fill="#63b8ff" stroke="#63b8ff" points="961.64,-169.41 971.93,-166.87 962.3,-162.44 961.64,-169.41"/>
</a>
</g>
</g>
<!-- Node19&#45;&gt;Node5 -->
<g id="edge27_Node000019_Node000005" class="edge">
<title>Node19&#45;&gt;Node5</title>
<g id="a_edge27_Node000019_Node000005"><a xlink:title=" ">
<path fill="none" stroke="#63b8ff" d="M916.3,-104.7C899.72,-95.04 878.09,-82.44 863.89,-74.17"/>
<polygon fill="#63b8ff" stroke="#63b8ff" points="914.98,-107.98 925.38,-109.98 918.5,-101.93 914.98,-107.98"/>
</a>
</g>
</g>
<!-- Node19&#45;&gt;Node13 -->
<g id="edge28_Node000019_Node000013" class="edge">
<title>Node19&#45;&gt;Node13</title>
<g id="a_edge28_Node000019_Node000013"><a xlink:title=" ">
<path fill="none" stroke="#63b8ff" d="M941.58,-99.48C943.55,-75.84 946.83,-36.5 948.28,-19.16"/>
<polygon fill="#63b8ff" stroke="#63b8ff" points="938.08,-99.41 940.74,-109.66 945.05,-99.99 938.08,-99.41"/>
</a>
</g>
</g>
<!-- Node20&#45;&gt;Node5 -->
<g id="edge30_Node000020_Node000005" class="edge">
<title>Node20&#45;&gt;Node5</title>
<g id="a_edge30_Node000020_Node000005"><a xlink:title=" ">
<path fill="none" stroke="#63b8ff" d="M1195.89,-109.38C1117.38,-99.45 992.84,-83.69 916.29,-74.01"/>
<polygon fill="#63b8ff" stroke="#63b8ff" points="1195.81,-112.9 1206.18,-110.68 1196.69,-105.95 1195.81,-112.9"/>
</a>
</g>
</g>
<!-- Node20&#45;&gt;Node6 -->
<g id="edge31_Node000020_Node000006" class="edge">
<title>Node20&#45;&gt;Node6</title>
<g id="a_edge31_Node000020_Node000006"><a xlink:title=" ">
<path fill="none" stroke="#63b8ff" d="M1338.17,-108.56C1408.39,-98.61 1515.26,-83.46 1581.75,-74.04"/>
<polygon fill="#63b8ff" stroke="#63b8ff" points="1337.5,-105.12 1328.09,-109.98 1338.48,-112.05 1337.5,-105.12"/>
</a>
</g>
</g>
<!-- Node22&#45;&gt;Node12 -->
<g id="edge35_Node000022_Node000012" class="edge">
<title>Node22&#45;&gt;Node12</title>
<g id="a_edge35_Node000022_Node000012"><a xlink:title=" ">
<path fill="none" stroke="#63b8ff" d="M1103.23,-104.97C1085.5,-95.28 1062.15,-82.52 1046.87,-74.17"/>
<polygon fill="#63b8ff" stroke="#63b8ff" points="1101.96,-108.26 1112.42,-109.98 1105.32,-102.12 1101.96,-108.26"/>
</a>
</g>
</g>
<!-- Node22&#45;&gt;Node14 -->
<g id="edge36_Node000022_Node000014" class="edge">
<title>Node22&#45;&gt;Node14</title>
<g id="a_edge36_Node000022_Node000014"><a xlink:title=" ">
<path fill="none" stroke="#63b8ff" d="M1120.31,-100.44C1110.29,-76.92 1093.17,-36.73 1085.69,-19.16"/>
<polygon fill="#63b8ff" stroke="#63b8ff" points="1117.1,-101.83 1124.24,-109.66 1123.54,-99.09 1117.1,-101.83"/>
</a>
</g>
</g>
<!-- Node23 -->
<g id="Node000023" class="node">
<title>Node23</title>
<g id="a_Node000023"><a xlink:href="ServerSocket_8cpp.html" target="_top" xlink:title=" ">
<polygon fill="white" stroke="#666666" points="1260.5,-74 1141.5,-74 1141.5,-55 1260.5,-55 1260.5,-74"/>
<text text-anchor="middle" x="1201" y="-62" font-family="Helvetica,sans-Serif" font-size="10.00">init/ServerSocket.cpp</text>
</a>
</g>
</g>
<!-- Node22&#45;&gt;Node23 -->
<g id="edge34_Node000022_Node000023" class="edge">
<title>Node22&#45;&gt;Node23</title>
<g id="a_edge34_Node000022_Node000023"><a xlink:title=" ">
<path fill="none" stroke="#63b8ff" d="M1148.14,-103.88C1161.28,-94.34 1177.98,-82.21 1189.06,-74.17"/>
<polygon fill="#63b8ff" stroke="#63b8ff" points="1145.76,-101.28 1139.73,-109.98 1149.88,-106.94 1145.76,-101.28"/>
</a>
</g>
</g>
<!-- Node24&#45;&gt;Node2 -->
<g id="edge38_Node000024_Node000002" class="edge">
<title>Node24&#45;&gt;Node2</title>
<g id="a_edge38_Node000024_Node000002"><a xlink:title=" ">
<path fill="none" stroke="#63b8ff" d="M408.71,-108.62C334.94,-98.67 222.32,-83.48 152.31,-74.04"/>
<polygon fill="#63b8ff" stroke="#63b8ff" points="408.48,-112.12 418.86,-109.98 409.42,-105.18 408.48,-112.12"/>
</a>
</g>
</g>
<!-- Node24&#45;&gt;Node5 -->
<g id="edge40_Node000024_Node000005" class="edge">
<title>Node24&#45;&gt;Node5</title>
<g id="a_edge40_Node000024_Node000005"><a xlink:title=" ">
<path fill="none" stroke="#63b8ff" d="M551.28,-108.49C620.19,-98.54 724.77,-83.44 789.88,-74.04"/>
<polygon fill="#63b8ff" stroke="#63b8ff" points="550.36,-105.09 540.96,-109.98 551.36,-112.02 550.36,-105.09"/>
</a>
</g>
</g>
<!-- Node24&#45;&gt;Node11 -->
<g id="edge39_Node000024_Node000011" class="edge">
<title>Node24&#45;&gt;Node11</title>
<g id="a_edge39_Node000024_Node000011"><a xlink:title=" ">
<path fill="none" stroke="#63b8ff" d="M524.79,-107.44C563.17,-97.52 618.69,-83.16 653.81,-74.08"/>
<polygon fill="#63b8ff" stroke="#63b8ff" points="523.74,-104.09 514.94,-109.98 525.49,-110.87 523.74,-104.09"/>
</a>
</g>
</g>
<!-- Node24&#45;&gt;Node13 -->
<g id="edge43_Node000024_Node000013" class="edge">
<title>Node24&#45;&gt;Node13</title>
<g id="a_edge43_Node000024_Node000013"><a xlink:title=" ">
<path fill="none" stroke="#63b8ff" d="M508.11,-104.99C543.72,-86.58 603.41,-55.8 606,-55 705.21,-24.19 826.97,-14.7 895.5,-11.78"/>
<polygon fill="#63b8ff" stroke="#63b8ff" points="506.05,-102.11 498.78,-109.82 509.27,-108.33 506.05,-102.11"/>
</a>
</g>
</g>
<!-- Node24&#45;&gt;Node16 -->
<g id="edge41_Node000024_Node000016" class="edge">
<title>Node24&#45;&gt;Node16</title>
<g id="a_edge41_Node000024_Node000016"><a xlink:title=" ">
<path fill="none" stroke="#63b8ff" d="M440.62,-107.31C403.95,-97.39 351.17,-83.12 317.74,-74.08"/>
<polygon fill="#63b8ff" stroke="#63b8ff" points="439.94,-110.75 450.51,-109.98 441.77,-104 439.94,-110.75"/>
</a>
</g>
</g>
<!-- Node24&#45;&gt;Node21 -->
<g id="edge42_Node000024_Node000021" class="edge">
<title>Node24&#45;&gt;Node21</title>
<g id="a_edge42_Node000024_Node000021"><a xlink:title=" ">
<path fill="none" stroke="#63b8ff" d="M575.55,-114.43C723.22,-107.72 1019.33,-93.18 1270,-74 1275.97,-73.54 1282.16,-73.03 1288.37,-72.48"/>
<polygon fill="#63b8ff" stroke="#63b8ff" points="575.01,-110.95 565.18,-114.89 575.33,-117.94 575.01,-110.95"/>
</a>
</g>
</g>
<!-- Node25 -->
<g id="Node000025" class="node">
<title>Node25</title>
<g id="a_Node000025"><a xlink:href="ResponseBuilder_8cpp.html" target="_top" xlink:title=" ">
<polygon fill="white" stroke="#666666" points="558.5,-74 393.5,-74 393.5,-55 558.5,-55 558.5,-74"/>
<text text-anchor="middle" x="476" y="-62" font-family="Helvetica,sans-Serif" font-size="10.00">response/ResponseBuilder.cpp</text>
</a>
</g>
</g>
<!-- Node24&#45;&gt;Node25 -->
<g id="edge44_Node000024_Node000025" class="edge">
<title>Node24&#45;&gt;Node25</title>
<g id="a_edge44_Node000024_Node000025"><a xlink:title=" ">
<path fill="none" stroke="#63b8ff" d="M479.87,-99.66C478.88,-90.93 477.75,-80.99 476.97,-74.09"/>
<polygon fill="#63b8ff" stroke="#63b8ff" points="476.41,-100.21 481.01,-109.75 483.36,-99.42 476.41,-100.21"/>
</a>
</g>
</g>
<!-- Node27&#45;&gt;Node21 -->
<g id="edge47_Node000027_Node000021" class="edge">
<title>Node27&#45;&gt;Node21</title>
<g id="a_edge47_Node000027_Node000021"><a xlink:title=" ">
<path fill="none" stroke="#63b8ff" d="M1577.28,-154.5C1575.7,-140.27 1571.24,-121.38 1559,-110 1539.99,-92.33 1477.84,-80.38 1427.63,-73.36"/>
<polygon fill="#63b8ff" stroke="#63b8ff" points="1573.8,-154.96 1578.02,-164.68 1580.79,-154.45 1573.8,-154.96"/>
</a>
</g>
</g>
<!-- Node27&#45;&gt;Node28 -->
<g id="edge48_Node000027_Node000028" class="edge">
<title>Node27&#45;&gt;Node28</title>
<g id="a_edge48_Node000027_Node000028"><a xlink:title=" ">
<path fill="none" stroke="#63b8ff" d="M1603.03,-160.23C1621.37,-150.51 1645.74,-137.6 1661.64,-129.17"/>
<polygon fill="#63b8ff" stroke="#63b8ff" points="1601.26,-157.21 1594.07,-164.98 1604.54,-163.39 1601.26,-157.21"/>
</a>
</g>
</g>
<!-- Node29&#45;&gt;Node3 -->
<g id="edge53_Node000029_Node000003" class="edge">
<title>Node29&#45;&gt;Node3</title>
<g id="a_edge53_Node000029_Node000003"><a xlink:title=" ">
<path fill="none" stroke="#63b8ff" d="M697.12,-220.93C597.2,-212.19 428.23,-197.31 283,-184 280.03,-183.73 277.01,-183.45 273.95,-183.17"/>
<polygon fill="#63b8ff" stroke="#63b8ff" points="696.9,-224.43 707.17,-221.81 697.51,-217.45 696.9,-224.43"/>
</a>
</g>
</g>
<!-- Node29&#45;&gt;Node9 -->
<g id="edge51_Node000029_Node000009" class="edge">
<title>Node29&#45;&gt;Node9</title>
<g id="a_edge51_Node000029_Node000009"><a xlink:title=" ">
<path fill="none" stroke="#63b8ff" d="M743.04,-217.31C706.74,-207.39 654.5,-193.12 621.41,-184.08"/>
<polygon fill="#63b8ff" stroke="#63b8ff" points="742.26,-220.73 752.83,-219.98 744.11,-213.97 742.26,-220.73"/>
</a>
</g>
</g>
<!-- Node29&#45;&gt;Node10 -->
<g id="edge52_Node000029_Node000010" class="edge">
<title>Node29&#45;&gt;Node10</title>
<g id="a_edge52_Node000029_Node000010"><a xlink:title=" ">
<path fill="none" stroke="#63b8ff" d="M835.4,-217.14C869.05,-207.12 903.9,-190.15 887,-165 874.35,-146.17 852.17,-135.3 831.12,-129.03"/>
<polygon fill="#63b8ff" stroke="#63b8ff" points="834.21,-213.84 825.52,-219.91 836.09,-220.58 834.21,-213.84"/>
</a>
</g>
</g>
<!-- Node29&#45;&gt;Node15 -->
<g id="edge54_Node000029_Node000015" class="edge">
<title>Node29&#45;&gt;Node15</title>
<g id="a_edge54_Node000029_Node000015"><a xlink:title=" ">
<path fill="none" stroke="#63b8ff" d="M785.42,-209.66C786.08,-200.93 786.83,-190.99 787.35,-184.09"/>
<polygon fill="#63b8ff" stroke="#63b8ff" points="781.92,-209.51 784.66,-219.75 788.9,-210.04 781.92,-209.51"/>
</a>
</g>
</g>
<!-- Node29&#45;&gt;Node17 -->
<g id="edge55_Node000029_Node000017" class="edge">
<title>Node29&#45;&gt;Node17</title>
<g id="a_edge55_Node000029_Node000017"><a xlink:title=" ">
<path fill="none" stroke="#63b8ff" d="M862.83,-218.74C943.15,-208.79 1066.5,-193.52 1143.05,-184.04"/>
<polygon fill="#63b8ff" stroke="#63b8ff" points="862.26,-215.28 852.77,-219.98 863.12,-222.23 862.26,-215.28"/>
</a>
</g>
</g>
<!-- Node29&#45;&gt;Node18 -->
<g id="edge56_Node000029_Node000018" class="edge">
<title>Node29&#45;&gt;Node18</title>
<g id="a_edge56_Node000029_Node000018"><a xlink:title=" ">
<path fill="none" stroke="#63b8ff" d="M835.4,-217.94C883.76,-208.01 955.28,-193.31 1000.22,-184.08"/>
<polygon fill="#63b8ff" stroke="#63b8ff" points="834.54,-214.54 825.45,-219.98 835.95,-221.4 834.54,-214.54"/>
</a>
</g>
</g>
<!-- Node29&#45;&gt;Node24 -->
<g id="edge58_Node000029_Node000024" class="edge">
<title>Node29&#45;&gt;Node24</title>
<g id="a_edge58_Node000029_Node000024"><a xlink:title=" ">
<path fill="none" stroke="#63b8ff" d="M697.42,-226.31C621.95,-222.5 520.27,-212.13 492,-184 477.44,-169.52 478.65,-143.05 480.47,-129.31"/>
<polygon fill="#63b8ff" stroke="#63b8ff" points="697.26,-229.81 707.42,-226.79 697.59,-222.82 697.26,-229.81"/>
</a>
</g>
</g>
<!-- Node30 -->
<g id="Node000030" class="node">
<title>Node30</title>
<g id="a_Node000030"><a xlink:href="HttpResponse_8cpp.html" target="_top" xlink:title=" ">
<polygon fill="white" stroke="#666666" points="444,-184 292,-184 292,-165 444,-165 444,-184"/>
<text text-anchor="middle" x="368" y="-172" font-family="Helvetica,sans-Serif" font-size="10.00">response/HttpResponse.cpp</text>
</a>
</g>
</g>
<!-- Node29&#45;&gt;Node30 -->
<g id="edge57_Node000029_Node000030" class="edge">
<title>Node29&#45;&gt;Node30</title>
<g id="a_edge57_Node000029_Node000030"><a xlink:title=" ">
<path fill="none" stroke="#63b8ff" d="M706.9,-218.68C628.82,-208.73 509.27,-193.5 435.02,-184.04"/>
<polygon fill="#63b8ff" stroke="#63b8ff" points="706.8,-222.19 717.16,-219.98 707.68,-215.25 706.8,-222.19"/>
</a>
</g>
</g>
</g>
</svg>
