<?xml version="1.0" encoding="UTF-8" standalone="no"?>
<!DOCTYPE svg PUBLIC "-//W3C//DTD SVG 1.1//EN"
 "http://www.w3.org/Graphics/SVG/1.1/DTD/svg11.dtd">
<!-- Generated by graphviz version 2.43.0 (0)
 -->
<!-- Title: response/ResponseStatus.hpp Pages: 1 -->
<!--zoomable 302 -->

<svg id="main" version="1.1" xmlns="http://www.w3.org/2000/svg" xmlns:xlink="http://www.w3.org/1999/xlink" xml:space="preserve" onload="init(evt)">
<style type="text/css"><![CDATA[
.node, .edge {opacity: 0.7;}
.node.selected, .edge.selected {opacity: 1;}
.edge:hover path { stroke: red; }
.edge:hover polygon { stroke: red; fill: red; }
]]></style>

<defs>
  <circle id="rim" cx="0" cy="0" r="7"/>
  <circle id="rim2" cx="0" cy="0" r="3.5"/>
  <g id="zoomPlus">
    <use xlink:href="#rim" fill="#404040"><set attributeName="fill" to="#808080" begin="zoomplus.mouseover" end="zoomplus.mouseout"/></use>
    <path d="M-4,0h8M0,-4v8" fill="none" stroke="white" stroke-width="1.5" pointer-events="none"/>
  </g>
  <g id="zoomMin">
    <use xlink:href="#rim" fill="#404040"><set attributeName="fill" to="#808080" begin="zoomminus.mouseover" end="zoomminus.mouseout"/></use>
    <path d="M-4,0h8" fill="none" stroke="white" stroke-width="1.5" pointer-events="none"/>
  </g>
  <g id="arrowUp" transform="translate(30 24)">
    <use xlink:href="#rim"/>
    <path pointer-events="none" fill="none" stroke="white" stroke-width="1.5" d="M0,-3.0v7 M-2.5,-0.5L0,-3.0L2.5,-0.5"/>
  </g>
  <g id="arrowRight" transform="rotate(90) translate(36 -43)">
    <use xlink:href="#rim"/>
    <path pointer-events="none" fill="none" stroke="white" stroke-width="1.5" d="M0,-3.0v7 M-2.5,-0.5L0,-3.0L2.5,-0.5"/>
  </g>
  <g id="arrowDown" transform="rotate(180) translate(-30 -48)">
    <use xlink:href="#rim"/>
    <path pointer-events="none" fill="none" stroke="white" stroke-width="1.5" d="M0,-3.0v7 M-2.5,-0.5L0,-3.0L2.5,-0.5"/>
  </g>
  <g id="arrowLeft" transform="rotate(270) translate(-36 17)">
    <use xlink:href="#rim"/>
    <path pointer-events="none" fill="none" stroke="white" stroke-width="1.5" d="M0,-3.0v7 M-2.5,-0.5L0,-3.0L2.5,-0.5"/>
  </g>
  <g id="resetDef">
    <use xlink:href="#rim2" fill="#404040"><set attributeName="fill" to="#808080" begin="reset.mouseover" end="reset.mouseout"/></use>
  </g>
</defs>
<script type="application/ecmascript">
var viewWidth = 1816;
var viewHeight = 302;
var sectionId = 'dynsection-0';
</script>
<script type="application/ecmascript" xlink:href="svg.min.js"/>
<svg id="graph" class="graph">
<g id="viewport">
<title>response/ResponseStatus.hpp</title>
<!-- Node1 -->
<g id="Node000001" class="node">
<title>Node1</title>
<g id="a_Node000001"><a xlink:title=" ">
<polygon fill="#999999" stroke="#666666" points="735.42,-294 572.42,-294 572.42,-275 735.42,-275 735.42,-294"/>
<text text-anchor="middle" x="653.92" y="-282" font-family="Helvetica,sans-Serif" font-size="10.00">response/ResponseStatus.hpp</text>
</a>
</g>
</g>
<!-- Node2 -->
<g id="Node000002" class="node">
<title>Node2</title>
<g id="a_Node000002"><a xlink:href="DeleteHandler_8hpp.html" target="_top" xlink:title=" ">
<polygon fill="white" stroke="#666666" points="427.42,-184 266.42,-184 266.42,-165 427.42,-165 427.42,-184"/>
<text text-anchor="middle" x="346.92" y="-172" font-family="Helvetica,sans-Serif" font-size="10.00">dispatcher/DeleteHandler.hpp</text>
</a>
</g>
</g>
<!-- Node1&#45;&gt;Node2 -->
<g id="edge1_Node000001_Node000002" class="edge">
<title>Node1&#45;&gt;Node2</title>
<g id="a_edge1_Node000001_Node000002"><a xlink:title=" ">
<path fill="none" stroke="#63b8ff" d="M619.8,-271.5C557.25,-249.49 425.68,-203.21 371.27,-184.07"/>
<polygon fill="#63b8ff" stroke="#63b8ff" points="618.98,-274.92 629.58,-274.94 621.31,-268.31 618.98,-274.92"/>
</a>
</g>
</g>
<!-- Node5 -->
<g id="Node000005" class="node">
<title>Node5</title>
<g id="a_Node000005"><a xlink:href="Router_8cpp.html" target="_top" xlink:title=" ">
<polygon fill="white" stroke="#666666" points="219.92,-74 97.92,-74 97.92,-55 219.92,-55 219.92,-74"/>
<text text-anchor="middle" x="158.92" y="-62" font-family="Helvetica,sans-Serif" font-size="10.00">dispatcher/Router.cpp</text>
</a>
</g>
</g>
<!-- Node1&#45;&gt;Node5 -->
<g id="edge4_Node000001_Node000005" class="edge">
<title>Node1&#45;&gt;Node5</title>
<g id="a_edge4_Node000001_Node000005"><a xlink:title=" ">
<path fill="none" stroke="#63b8ff" d="M562.1,-281.09C440.4,-276.88 232.79,-265.92 161.92,-239 80.04,-207.89 -39.21,-180.39 12.92,-110 32.4,-83.7 67.07,-72.42 97.73,-67.79"/>
<polygon fill="#63b8ff" stroke="#63b8ff" points="562.04,-284.59 572.16,-281.43 562.28,-277.59 562.04,-284.59"/>
</a>
</g>
</g>
<!-- Node6 -->
<g id="Node000006" class="node">
<title>Node6</title>
<g id="a_Node000006"><a xlink:href="UploadHandler_8cpp.html" target="_top" xlink:title=" ">
<polygon fill="white" stroke="#666666" points="185.42,-129 22.42,-129 22.42,-110 185.42,-110 185.42,-129"/>
<text text-anchor="middle" x="103.92" y="-117" font-family="Helvetica,sans-Serif" font-size="10.00">dispatcher/UploadHandler.cpp</text>
</a>
</g>
</g>
<!-- Node1&#45;&gt;Node6 -->
<g id="edge5_Node000001_Node000006" class="edge">
<title>Node1&#45;&gt;Node6</title>
<g id="a_edge5_Node000001_Node000006"><a xlink:title=" ">
<path fill="none" stroke="#63b8ff" d="M562.02,-280.67C420.5,-274.16 159.5,-252.88 101.92,-184 88.91,-168.43 95.64,-142.44 100.45,-129.05"/>
<polygon fill="#63b8ff" stroke="#63b8ff" points="562.27,-284.18 572.41,-281.13 562.58,-277.19 562.27,-284.18"/>
</a>
</g>
</g>
<!-- Node7 -->
<g id="Node000007" class="node">
<title>Node7</title>
<g id="a_Node000007"><a xlink:href="HttpRequest_8hpp.html" target="_top" xlink:title=" ">
<polygon fill="white" stroke="#666666" points="722.92,-239 584.92,-239 584.92,-220 722.92,-220 722.92,-239"/>
<text text-anchor="middle" x="653.92" y="-227" font-family="Helvetica,sans-Serif" font-size="10.00">request/HttpRequest.hpp</text>
</a>
</g>
</g>
<!-- Node1&#45;&gt;Node7 -->
<g id="edge6_Node000001_Node000007" class="edge">
<title>Node1&#45;&gt;Node7</title>
<g id="a_edge6_Node000001_Node000007"><a xlink:title=" ">
<path fill="none" stroke="#63b8ff" d="M653.92,-264.66C653.92,-255.93 653.92,-245.99 653.92,-239.09"/>
<polygon fill="#63b8ff" stroke="#63b8ff" points="650.42,-264.75 653.92,-274.75 657.42,-264.75 650.42,-264.75"/>
</a>
</g>
</g>
<!-- Node24 -->
<g id="Node000024" class="node">
<title>Node24</title>
<g id="a_Node000024"><a xlink:href="ResponseBuilder_8hpp.html" target="_top" xlink:title=" ">
<polygon fill="white" stroke="#666666" points="1491.92,-129 1325.92,-129 1325.92,-110 1491.92,-110 1491.92,-129"/>
<text text-anchor="middle" x="1408.92" y="-117" font-family="Helvetica,sans-Serif" font-size="10.00">response/ResponseBuilder.hpp</text>
</a>
</g>
</g>
<!-- Node1&#45;&gt;Node24 -->
<g id="edge58_Node000001_Node000024" class="edge">
<title>Node1&#45;&gt;Node24</title>
<g id="a_edge58_Node000001_Node000024"><a xlink:title=" ">
<path fill="none" stroke="#63b8ff" d="M745.76,-280.68C972.25,-272.8 1543.37,-246.82 1599.92,-184 1636.05,-143.88 1559,-129.06 1492.23,-123.61"/>
<polygon fill="#63b8ff" stroke="#63b8ff" points="745.43,-277.19 735.56,-281.04 745.68,-284.19 745.43,-277.19"/>
</a>
</g>
</g>
<!-- Node28 -->
<g id="Node000028" class="node">
<title>Node28</title>
<g id="a_Node000028"><a xlink:href="RequestParse_8cpp.html" target="_top" xlink:title=" ">
<polygon fill="white" stroke="#666666" points="1718.42,-129 1575.42,-129 1575.42,-110 1718.42,-110 1718.42,-129"/>
<text text-anchor="middle" x="1646.92" y="-117" font-family="Helvetica,sans-Serif" font-size="10.00">request/RequestParse.cpp</text>
</a>
</g>
</g>
<!-- Node1&#45;&gt;Node28 -->
<g id="edge48_Node000001_Node000028" class="edge">
<title>Node1&#45;&gt;Node28</title>
<g id="a_edge48_Node000001_Node000028"><a xlink:title=" ">
<path fill="none" stroke="#63b8ff" d="M745.69,-281.32C925.14,-276.58 1316.54,-263.69 1448.92,-239 1526.99,-224.44 1559.97,-237.21 1618.92,-184 1635.38,-169.15 1642.65,-142.84 1645.43,-129.22"/>
<polygon fill="#63b8ff" stroke="#63b8ff" points="745.39,-277.83 735.49,-281.59 745.58,-284.83 745.39,-277.83"/>
</a>
</g>
</g>
<!-- Node29 -->
<g id="Node000029" class="node">
<title>Node29</title>
<g id="a_Node000029"><a xlink:href="HttpResponse_8hpp.html" target="_top" xlink:title=" ">
<polygon fill="white" stroke="#666666" points="910.42,-239 757.42,-239 757.42,-220 910.42,-220 910.42,-239"/>
<text text-anchor="middle" x="833.92" y="-227" font-family="Helvetica,sans-Serif" font-size="10.00">response/HttpResponse.hpp</text>
</a>
</g>
</g>
<!-- Node1&#45;&gt;Node29 -->
<g id="edge49_Node000001_Node000029" class="edge">
<title>Node1&#45;&gt;Node29</title>
<g id="a_edge49_Node000001_Node000029"><a xlink:title=" ">
<path fill="none" stroke="#63b8ff" d="M692.79,-272.06C726.43,-262.15 774.34,-248.04 804.78,-239.08"/>
<polygon fill="#63b8ff" stroke="#63b8ff" points="691.45,-268.8 682.84,-274.98 693.43,-275.52 691.45,-268.8"/>
</a>
</g>
</g>
<!-- Node3 -->
<g id="Node000003" class="node">
<title>Node3</title>
<g id="a_Node000003"><a xlink:href="DeleteHandler_8cpp.html" target="_top" xlink:title=" ">
<polygon fill="white" stroke="#666666" points="364.42,-129 203.42,-129 203.42,-110 364.42,-110 364.42,-129"/>
<text text-anchor="middle" x="283.92" y="-117" font-family="Helvetica,sans-Serif" font-size="10.00">dispatcher/DeleteHandler.cpp</text>
</a>
</g>
</g>
<!-- Node2&#45;&gt;Node3 -->
<g id="edge2_Node000002_Node000003" class="edge">
<title>Node2&#45;&gt;Node3</title>
<g id="a_edge2_Node000002_Node000003"><a xlink:title=" ">
<path fill="none" stroke="#63b8ff" d="M328.88,-158.32C317.65,-148.87 303.61,-137.06 294.23,-129.17"/>
<polygon fill="#63b8ff" stroke="#63b8ff" points="326.9,-161.23 336.8,-164.98 331.4,-155.87 326.9,-161.23"/>
</a>
</g>
</g>
<!-- Node4 -->
<g id="Node000004" class="node">
<title>Node4</title>
<g id="a_Node000004"><a xlink:href="Dispatcher_8cpp.html" target="_top" xlink:title=" ">
<polygon fill="white" stroke="#666666" points="835.42,-74 692.42,-74 692.42,-55 835.42,-55 835.42,-74"/>
<text text-anchor="middle" x="763.92" y="-62" font-family="Helvetica,sans-Serif" font-size="10.00">dispatcher/Dispatcher.cpp</text>
</a>
</g>
</g>
<!-- Node2&#45;&gt;Node4 -->
<g id="edge3_Node000002_Node000004" class="edge">
<title>Node2&#45;&gt;Node4</title>
<g id="a_edge3_Node000002_Node000004"><a xlink:title=" ">
<path fill="none" stroke="#63b8ff" d="M437.7,-164.11C513.18,-155.61 614.27,-142.39 652.92,-129 668.92,-123.46 671.24,-118.42 685.92,-110 707.84,-97.44 733.25,-82.96 748.96,-74.01"/>
<polygon fill="#63b8ff" stroke="#63b8ff" points="437.25,-160.64 427.7,-165.23 438.03,-167.6 437.25,-160.64"/>
</a>
</g>
</g>
<!-- Node7&#45;&gt;Node2 -->
<g id="edge16_Node000007_Node000002" class="edge">
<title>Node7&#45;&gt;Node2</title>
<g id="a_edge16_Node000007_Node000002"><a xlink:title=" ">
<path fill="none" stroke="#63b8ff" d="M594.54,-218.25C536.89,-208.3 450.4,-193.36 396.38,-184.04"/>
<polygon fill="#63b8ff" stroke="#63b8ff" points="594.15,-221.73 604.6,-219.98 595.34,-214.83 594.15,-221.73"/>
</a>
</g>
</g>
<!-- Node8 -->
<g id="Node000008" class="node">
<title>Node8</title>
<g id="a_Node000008"><a xlink:href="AutoIndexHandler_8hpp.html" target="_top" xlink:title=" ">
<polygon fill="white" stroke="#666666" points="1041.42,-184 862.42,-184 862.42,-165 1041.42,-165 1041.42,-184"/>
<text text-anchor="middle" x="951.92" y="-172" font-family="Helvetica,sans-Serif" font-size="10.00">dispatcher/AutoIndexHandler.hpp</text>
</a>
</g>
</g>
<!-- Node7&#45;&gt;Node8 -->
<g id="edge7_Node000007_Node000008" class="edge">
<title>Node7&#45;&gt;Node8</title>
<g id="a_edge7_Node000007_Node000008"><a xlink:title=" ">
<path fill="none" stroke="#63b8ff" d="M711.9,-218.19C767.77,-208.25 851.32,-193.39 903.67,-184.08"/>
<polygon fill="#63b8ff" stroke="#63b8ff" points="711.04,-214.79 701.8,-219.98 712.26,-221.68 711.04,-214.79"/>
</a>
</g>
</g>
<!-- Node10 -->
<g id="Node000010" class="node">
<title>Node10</title>
<g id="a_Node000010"><a xlink:href="CgiHandler_8hpp.html" target="_top" xlink:title=" ">
<polygon fill="white" stroke="#666666" points="883.42,-129 738.42,-129 738.42,-110 883.42,-110 883.42,-129"/>
<text text-anchor="middle" x="810.92" y="-117" font-family="Helvetica,sans-Serif" font-size="10.00">dispatcher/CgiHandler.hpp</text>
</a>
</g>
</g>
<!-- Node7&#45;&gt;Node10 -->
<g id="edge10_Node000007_Node000010" class="edge">
<title>Node7&#45;&gt;Node10</title>
<g id="a_edge10_Node000007_Node000010"><a xlink:title=" ">
<path fill="none" stroke="#63b8ff" d="M649.47,-209.72C647.36,-195.91 647.1,-177.44 656.92,-165 669.64,-148.89 718.83,-136.57 758.24,-129.02"/>
<polygon fill="#63b8ff" stroke="#63b8ff" points="646.05,-210.46 651.41,-219.6 652.92,-209.11 646.05,-210.46"/>
</a>
</g>
</g>
<!-- Node15 -->
<g id="Node000015" class="node">
<title>Node15</title>
<g id="a_Node000015"><a xlink:href="StaticPageHandler_8hpp.html" target="_top" xlink:title=" ">
<polygon fill="white" stroke="#666666" points="1239.92,-184 1059.92,-184 1059.92,-165 1239.92,-165 1239.92,-184"/>
<text text-anchor="middle" x="1149.92" y="-172" font-family="Helvetica,sans-Serif" font-size="10.00">dispatcher/StaticPageHandler.hpp</text>
</a>
</g>
</g>
<!-- Node7&#45;&gt;Node15 -->
<g id="edge17_Node000007_Node000015" class="edge">
<title>Node7&#45;&gt;Node15</title>
<g id="a_edge17_Node000007_Node000015"><a xlink:title=" ">
<path fill="none" stroke="#63b8ff" d="M733.29,-220.02C825.73,-210.14 977.54,-193.92 1070.15,-184.02"/>
<polygon fill="#63b8ff" stroke="#63b8ff" points="732.72,-216.56 723.15,-221.1 733.47,-223.52 732.72,-216.56"/>
</a>
</g>
</g>
<!-- Node17 -->
<g id="Node000017" class="node">
<title>Node17</title>
<g id="a_Node000017"><a xlink:href="UploadHandler_8hpp.html" target="_top" xlink:title=" ">
<polygon fill="white" stroke="#666666" points="609.92,-184 445.92,-184 445.92,-165 609.92,-165 609.92,-184"/>
<text text-anchor="middle" x="527.92" y="-172" font-family="Helvetica,sans-Serif" font-size="10.00">dispatcher/UploadHandler.hpp</text>
</a>
</g>
</g>
<!-- Node7&#45;&gt;Node17 -->
<g id="edge20_Node000007_Node000017" class="edge">
<title>Node7&#45;&gt;Node17</title>
<g id="a_edge20_Node000007_Node000017"><a xlink:title=" ">
<path fill="none" stroke="#63b8ff" d="M624.28,-216.03C600.98,-206.23 569.12,-192.83 548.54,-184.17"/>
<polygon fill="#63b8ff" stroke="#63b8ff" points="623.11,-219.33 633.68,-219.98 625.82,-212.88 623.11,-219.33"/>
</a>
</g>
</g>
<!-- Node18 -->
<g id="Node000018" class="node">
<title>Node18</title>
<g id="a_Node000018"><a xlink:href="ClientConnection_8hpp.html" target="_top" xlink:title=" ">
<polygon fill="white" stroke="#666666" points="805.92,-184 665.92,-184 665.92,-165 805.92,-165 805.92,-184"/>
<text text-anchor="middle" x="735.92" y="-172" font-family="Helvetica,sans-Serif" font-size="10.00">init/ClientConnection.hpp</text>
</a>
</g>
</g>
<!-- Node7&#45;&gt;Node18 -->
<g id="edge23_Node000007_Node000018" class="edge">
<title>Node7&#45;&gt;Node18</title>
<g id="a_edge23_Node000007_Node000018"><a xlink:title=" ">
<path fill="none" stroke="#63b8ff" d="M675.7,-214.42C690.58,-204.81 709.83,-192.37 722.51,-184.17"/>
<polygon fill="#63b8ff" stroke="#63b8ff" points="673.6,-211.62 667.1,-219.98 677.4,-217.5 673.6,-211.62"/>
</a>
</g>
</g>
<!-- Node26 -->
<g id="Node000026" class="node">
<title>Node26</title>
<g id="a_Node000026"><a xlink:href="HttpRequest_8cpp.html" target="_top" xlink:title=" ">
<polygon fill="white" stroke="#666666" points="248.42,-184 111.42,-184 111.42,-165 248.42,-165 248.42,-184"/>
<text text-anchor="middle" x="179.92" y="-172" font-family="Helvetica,sans-Serif" font-size="10.00">request/HttpRequest.cpp</text>
</a>
</g>
</g>
<!-- Node7&#45;&gt;Node26 -->
<g id="edge44_Node000007_Node000026" class="edge">
<title>Node7&#45;&gt;Node26</title>
<g id="a_edge44_Node000007_Node000026"><a xlink:title=" ">
<path fill="none" stroke="#63b8ff" d="M574.73,-219.65C483.46,-209.44 334.97,-192.84 248.47,-183.16"/>
<polygon fill="#63b8ff" stroke="#63b8ff" points="574.42,-223.13 584.75,-220.76 575.2,-216.18 574.42,-223.13"/>
</a>
</g>
</g>
<!-- Node27 -->
<g id="Node000027" class="node">
<title>Node27</title>
<g id="a_Node000027"><a xlink:href="RequestParse_8hpp.html" target="_top" xlink:title=" ">
<polygon fill="white" stroke="#666666" points="1401.42,-184 1258.42,-184 1258.42,-165 1401.42,-165 1401.42,-184"/>
<text text-anchor="middle" x="1329.92" y="-172" font-family="Helvetica,sans-Serif" font-size="10.00">request/RequestParse.hpp</text>
</a>
</g>
</g>
<!-- Node7&#45;&gt;Node27 -->
<g id="edge45_Node000007_Node000027" class="edge">
<title>Node7&#45;&gt;Node27</title>
<g id="a_edge45_Node000007_Node000027"><a xlink:title=" ">
<path fill="none" stroke="#63b8ff" d="M733.21,-221.23C738.19,-220.8 743.12,-220.39 747.92,-220 970.43,-201.95 1026.55,-203.65 1248.92,-184 1252.02,-183.73 1255.19,-183.44 1258.38,-183.14"/>
<polygon fill="#63b8ff" stroke="#63b8ff" points="732.62,-217.76 722.96,-222.11 733.22,-224.74 732.62,-217.76"/>
</a>
</g>
</g>
<!-- Node8&#45;&gt;Node4 -->
<g id="edge9_Node000008_Node000004" class="edge">
<title>Node8&#45;&gt;Node4</title>
<g id="a_edge9_Node000008_Node000004"><a xlink:title=" ">
<path fill="none" stroke="#63b8ff" d="M939.62,-156.48C928.56,-142.28 911.15,-122.43 891.92,-110 864.86,-92.49 830.11,-80.98 803.64,-74.06"/>
<polygon fill="#63b8ff" stroke="#63b8ff" points="937.11,-158.97 945.92,-164.85 942.7,-154.76 937.11,-158.97"/>
</a>
</g>
</g>
<!-- Node9 -->
<g id="Node000009" class="node">
<title>Node9</title>
<g id="a_Node000009"><a xlink:href="AutoIndexHandler_8cpp.html" target="_top" xlink:title=" ">
<polygon fill="white" stroke="#666666" points="1389.92,-74 1211.92,-74 1211.92,-55 1389.92,-55 1389.92,-74"/>
<text text-anchor="middle" x="1300.92" y="-62" font-family="Helvetica,sans-Serif" font-size="10.00">dispatcher/AutoIndexHandler.cpp</text>
</a>
</g>
</g>
<!-- Node8&#45;&gt;Node9 -->
<g id="edge8_Node000008_Node000009" class="edge">
<title>Node8&#45;&gt;Node9</title>
<g id="a_edge8_Node000008_Node000009"><a xlink:title=" ">
<path fill="none" stroke="#63b8ff" d="M999.55,-162.65C1034.72,-154.31 1083.62,-142.05 1125.92,-129 1182.13,-111.66 1246.87,-86.88 1279.6,-74"/>
<polygon fill="#63b8ff" stroke="#63b8ff" points="998.49,-159.3 989.56,-165 1000.09,-166.12 998.49,-159.3"/>
</a>
</g>
</g>
<!-- Node10&#45;&gt;Node4 -->
<g id="edge12_Node000010_Node000004" class="edge">
<title>Node10&#45;&gt;Node4</title>
<g id="a_edge12_Node000010_Node000004"><a xlink:title=" ">
<path fill="none" stroke="#63b8ff" d="M796.5,-102.24C788.27,-92.95 778.27,-81.68 771.54,-74.09"/>
<polygon fill="#63b8ff" stroke="#63b8ff" points="793.91,-104.59 803.16,-109.75 799.15,-99.94 793.91,-104.59"/>
</a>
</g>
</g>
<!-- Node11 -->
<g id="Node000011" class="node">
<title>Node11</title>
<g id="a_Node000011"><a xlink:href="CgiHandler_8cpp.html" target="_top" xlink:title=" ">
<polygon fill="white" stroke="#666666" points="997.92,-74 853.92,-74 853.92,-55 997.92,-55 997.92,-74"/>
<text text-anchor="middle" x="925.92" y="-62" font-family="Helvetica,sans-Serif" font-size="10.00">dispatcher/CgiHandler.cpp</text>
</a>
</g>
</g>
<!-- Node10&#45;&gt;Node11 -->
<g id="edge11_Node000010_Node000011" class="edge">
<title>Node10&#45;&gt;Node11</title>
<g id="a_edge11_Node000010_Node000011"><a xlink:title=" ">
<path fill="none" stroke="#63b8ff" d="M838.56,-105.77C859.77,-95.99 888.49,-82.75 907.11,-74.17"/>
<polygon fill="#63b8ff" stroke="#63b8ff" points="837.02,-102.62 829.4,-109.98 839.95,-108.98 837.02,-102.62"/>
</a>
</g>
</g>
<!-- Node12 -->
<g id="Node000012" class="node">
<title>Node12</title>
<g id="a_Node000012"><a xlink:href="WebServer_8hpp.html" target="_top" xlink:title=" ">
<polygon fill="white" stroke="#666666" points="673.92,-74 565.92,-74 565.92,-55 673.92,-55 673.92,-74"/>
<text text-anchor="middle" x="619.92" y="-62" font-family="Helvetica,sans-Serif" font-size="10.00">init/WebServer.hpp</text>
</a>
</g>
</g>
<!-- Node10&#45;&gt;Node12 -->
<g id="edge13_Node000010_Node000012" class="edge">
<title>Node10&#45;&gt;Node12</title>
<g id="a_edge13_Node000010_Node000012"><a xlink:title=" ">
<path fill="none" stroke="#63b8ff" d="M770.14,-107.18C734.42,-97.27 683.29,-83.08 650.85,-74.08"/>
<polygon fill="#63b8ff" stroke="#63b8ff" points="769.67,-110.68 780.24,-109.98 771.54,-103.94 769.67,-110.68"/>
</a>
</g>
</g>
<!-- Node13 -->
<g id="Node000013" class="node">
<title>Node13</title>
<g id="a_Node000013"><a xlink:href="WebServer_8cpp.html" target="_top" xlink:title=" ">
<polygon fill="white" stroke="#666666" points="1079.42,-19 972.42,-19 972.42,0 1079.42,0 1079.42,-19"/>
<text text-anchor="middle" x="1025.92" y="-7" font-family="Helvetica,sans-Serif" font-size="10.00">init/WebServer.cpp</text>
</a>
</g>
</g>
<!-- Node12&#45;&gt;Node13 -->
<g id="edge14_Node000012_Node000013" class="edge">
<title>Node12&#45;&gt;Node13</title>
<g id="a_edge14_Node000012_Node000013"><a xlink:title=" ">
<path fill="none" stroke="#63b8ff" d="M684.32,-54.82C792.35,-40.54 906.65,-25.8 972.15,-17.39"/>
<polygon fill="#63b8ff" stroke="#63b8ff" points="683.67,-51.38 674.22,-56.16 684.59,-58.32 683.67,-51.38"/>
</a>
</g>
</g>
<!-- Node14 -->
<g id="Node000014" class="node">
<title>Node14</title>
<g id="a_Node000014"><a xlink:href="main_8cpp.html" target="_top" xlink:title=" ">
<polygon fill="white" stroke="#666666" points="540.92,-19 478.92,-19 478.92,0 540.92,0 540.92,-19"/>
<text text-anchor="middle" x="509.92" y="-7" font-family="Helvetica,sans-Serif" font-size="10.00">main.cpp</text>
</a>
</g>
</g>
<!-- Node12&#45;&gt;Node14 -->
<g id="edge15_Node000012_Node000014" class="edge">
<title>Node12&#45;&gt;Node14</title>
<g id="a_edge15_Node000012_Node000014"><a xlink:title=" ">
<path fill="none" stroke="#63b8ff" d="M593.22,-50.63C572.96,-40.87 545.65,-27.71 527.92,-19.17"/>
<polygon fill="#63b8ff" stroke="#63b8ff" points="591.72,-53.8 602.25,-54.98 594.76,-47.49 591.72,-53.8"/>
</a>
</g>
</g>
<!-- Node15&#45;&gt;Node4 -->
<g id="edge18_Node000015_Node000004" class="edge">
<title>Node15&#45;&gt;Node4</title>
<g id="a_edge18_Node000015_Node000004"><a xlink:title=" ">
<path fill="none" stroke="#63b8ff" d="M1139.05,-155.96C1128.83,-141.1 1112.1,-120.58 1091.92,-110 1080.68,-104.11 928.61,-85.14 835.53,-73.96"/>
<polygon fill="#63b8ff" stroke="#63b8ff" points="1136.4,-158.29 1144.8,-164.74 1142.26,-154.46 1136.4,-158.29"/>
</a>
</g>
</g>
<!-- Node16 -->
<g id="Node000016" class="node">
<title>Node16</title>
<g id="a_Node000016"><a xlink:href="StaticPageHandler_8cpp.html" target="_top" xlink:title=" ">
<polygon fill="white" stroke="#666666" points="1808.42,-74 1629.42,-74 1629.42,-55 1808.42,-55 1808.42,-74"/>
<text text-anchor="middle" x="1718.92" y="-62" font-family="Helvetica,sans-Serif" font-size="10.00">dispatcher/StaticPageHandler.cpp</text>
</a>
</g>
</g>
<!-- Node15&#45;&gt;Node16 -->
<g id="edge19_Node000015_Node000016" class="edge">
<title>Node15&#45;&gt;Node16</title>
<g id="a_edge19_Node000015_Node000016"><a xlink:title=" ">
<path fill="none" stroke="#63b8ff" d="M1238.86,-163.85C1325.98,-154.1 1452.48,-139.09 1500.92,-129 1530.39,-122.87 1537.03,-118.43 1565.92,-110 1608.95,-97.46 1658.79,-82.97 1689.59,-74.02"/>
<polygon fill="#63b8ff" stroke="#63b8ff" points="1238.26,-160.39 1228.71,-164.98 1239.04,-167.35 1238.26,-160.39"/>
</a>
</g>
</g>
<!-- Node17&#45;&gt;Node4 -->
<g id="edge21_Node000017_Node000004" class="edge">
<title>Node17&#45;&gt;Node4</title>
<g id="a_edge21_Node000017_Node000004"><a xlink:title=" ">
<path fill="none" stroke="#63b8ff" d="M587.65,-162.73C618.17,-155.75 655.25,-144.93 685.92,-129 714.44,-114.19 742.26,-87.87 755.65,-74.23"/>
<polygon fill="#63b8ff" stroke="#63b8ff" points="586.58,-159.38 577.57,-164.96 588.09,-166.22 586.58,-159.38"/>
</a>
</g>
</g>
<!-- Node17&#45;&gt;Node6 -->
<g id="edge22_Node000017_Node000006" class="edge">
<title>Node17&#45;&gt;Node6</title>
<g id="a_edge22_Node000017_Node000006"><a xlink:title=" ">
<path fill="none" stroke="#63b8ff" d="M449.83,-163.74C370.26,-153.79 248.07,-138.52 172.23,-129.04"/>
<polygon fill="#63b8ff" stroke="#63b8ff" points="449.44,-167.22 459.8,-164.98 450.31,-160.27 449.44,-167.22"/>
</a>
</g>
</g>
<!-- Node18&#45;&gt;Node10 -->
<g id="edge24_Node000018_Node000010" class="edge">
<title>Node18&#45;&gt;Node10</title>
<g id="a_edge24_Node000018_Node000010"><a xlink:title=" ">
<path fill="none" stroke="#63b8ff" d="M756.23,-159.15C769.79,-149.57 787.17,-137.29 798.66,-129.17"/>
<polygon fill="#63b8ff" stroke="#63b8ff" points="754.12,-156.36 747.97,-164.98 758.16,-162.07 754.12,-156.36"/>
</a>
</g>
</g>
<!-- Node19 -->
<g id="Node000019" class="node">
<title>Node19</title>
<g id="a_Node000019"><a xlink:href="Dispatcher_8hpp.html" target="_top" xlink:title=" ">
<polygon fill="white" stroke="#666666" points="1083.42,-129 940.42,-129 940.42,-110 1083.42,-110 1083.42,-129"/>
<text text-anchor="middle" x="1011.92" y="-117" font-family="Helvetica,sans-Serif" font-size="10.00">dispatcher/Dispatcher.hpp</text>
</a>
</g>
</g>
<!-- Node18&#45;&gt;Node19 -->
<g id="edge25_Node000018_Node000019" class="edge">
<title>Node18&#45;&gt;Node19</title>
<g id="a_edge25_Node000018_Node000019"><a xlink:title=" ">
<path fill="none" stroke="#63b8ff" d="M790.27,-163.07C842.01,-153.13 918.95,-138.35 967.23,-129.08"/>
<polygon fill="#63b8ff" stroke="#63b8ff" points="789.43,-159.66 780.27,-164.98 790.75,-166.54 789.43,-159.66"/>
</a>
</g>
</g>
<!-- Node20 -->
<g id="Node000020" class="node">
<title>Node20</title>
<g id="a_Node000020"><a xlink:href="Router_8hpp.html" target="_top" xlink:title=" ">
<polygon fill="white" stroke="#666666" points="505.42,-129 382.42,-129 382.42,-110 505.42,-110 505.42,-129"/>
<text text-anchor="middle" x="443.92" y="-117" font-family="Helvetica,sans-Serif" font-size="10.00">dispatcher/Router.hpp</text>
</a>
</g>
</g>
<!-- Node18&#45;&gt;Node20 -->
<g id="edge28_Node000018_Node000020" class="edge">
<title>Node18&#45;&gt;Node20</title>
<g id="a_edge28_Node000018_Node000020"><a xlink:title=" ">
<path fill="none" stroke="#63b8ff" d="M679.12,-163.19C624.37,-153.25 542.5,-138.39 491.21,-129.08"/>
<polygon fill="#63b8ff" stroke="#63b8ff" points="678.55,-166.64 689.01,-164.98 679.8,-159.75 678.55,-166.64"/>
</a>
</g>
</g>
<!-- Node21 -->
<g id="Node000021" class="node">
<title>Node21</title>
<g id="a_Node000021"><a xlink:href="ClientConnection_8cpp.html" target="_top" xlink:title=" ">
<polygon fill="white" stroke="#666666" points="1193.42,-74 1054.42,-74 1054.42,-55 1193.42,-55 1193.42,-74"/>
<text text-anchor="middle" x="1123.92" y="-62" font-family="Helvetica,sans-Serif" font-size="10.00">init/ClientConnection.cpp</text>
</a>
</g>
</g>
<!-- Node18&#45;&gt;Node21 -->
<g id="edge31_Node000018_Node000021" class="edge">
<title>Node18&#45;&gt;Node21</title>
<g id="a_edge31_Node000018_Node000021"><a xlink:title=" ">
<path fill="none" stroke="#63b8ff" d="M816.36,-167.45C914.42,-159.45 1069.86,-144.56 1091.92,-129 1110.69,-115.77 1119.08,-88.24 1122.26,-74.18"/>
<polygon fill="#63b8ff" stroke="#63b8ff" points="815.86,-163.98 806.18,-168.27 816.43,-170.95 815.86,-163.98"/>
</a>
</g>
</g>
<!-- Node22 -->
<g id="Node000022" class="node">
<title>Node22</title>
<g id="a_Node000022"><a xlink:href="ServerSocket_8hpp.html" target="_top" xlink:title=" ">
<polygon fill="white" stroke="#666666" points="643.92,-129 523.92,-129 523.92,-110 643.92,-110 643.92,-129"/>
<text text-anchor="middle" x="583.92" y="-117" font-family="Helvetica,sans-Serif" font-size="10.00">init/ServerSocket.hpp</text>
</a>
</g>
</g>
<!-- Node18&#45;&gt;Node22 -->
<g id="edge32_Node000018_Node000022" class="edge">
<title>Node18&#45;&gt;Node22</title>
<g id="a_edge32_Node000018_Node000022"><a xlink:title=" ">
<path fill="none" stroke="#63b8ff" d="M702,-161.67C673.65,-151.79 633.91,-137.93 608.54,-129.08"/>
<polygon fill="#63b8ff" stroke="#63b8ff" points="700.91,-165 711.5,-164.98 703.21,-158.39 700.91,-165"/>
</a>
</g>
</g>
<!-- Node18&#45;&gt;Node24 -->
<g id="edge36_Node000018_Node000024" class="edge">
<title>Node18&#45;&gt;Node24</title>
<g id="a_edge36_Node000018_Node000024"><a xlink:title=" ">
<path fill="none" stroke="#63b8ff" d="M816.21,-167.18C944.79,-157.05 1195.62,-137.3 1325.9,-127.04"/>
<polygon fill="#63b8ff" stroke="#63b8ff" points="815.74,-163.7 806.04,-167.98 816.29,-170.68 815.74,-163.7"/>
</a>
</g>
</g>
<!-- Node19&#45;&gt;Node4 -->
<g id="edge26_Node000019_Node000004" class="edge">
<title>Node19&#45;&gt;Node4</title>
<g id="a_edge26_Node000019_Node000004"><a xlink:title=" ">
<path fill="none" stroke="#63b8ff" d="M962.22,-107.88C915.74,-97.94 847.19,-83.3 804.08,-74.08"/>
<polygon fill="#63b8ff" stroke="#63b8ff" points="961.57,-111.32 972.08,-109.98 963.03,-104.47 961.57,-111.32"/>
</a>
</g>
</g>
<!-- Node19&#45;&gt;Node13 -->
<g id="edge27_Node000019_Node000013" class="edge">
<title>Node19&#45;&gt;Node13</title>
<g id="a_edge27_Node000019_Node000013"><a xlink:title=" ">
<path fill="none" stroke="#63b8ff" d="M1014.39,-99.48C1017.45,-75.84 1022.55,-36.5 1024.8,-19.16"/>
<polygon fill="#63b8ff" stroke="#63b8ff" points="1010.89,-99.29 1013.07,-109.66 1017.83,-100.19 1010.89,-99.29"/>
</a>
</g>
</g>
<!-- Node20&#45;&gt;Node4 -->
<g id="edge29_Node000020_Node000004" class="edge">
<title>Node20&#45;&gt;Node4</title>
<g id="a_edge29_Node000020_Node000004"><a xlink:title=" ">
<path fill="none" stroke="#63b8ff" d="M505.45,-108.31C565.54,-98.36 655.95,-83.38 712.37,-74.04"/>
<polygon fill="#63b8ff" stroke="#63b8ff" points="504.63,-104.9 495.34,-109.98 505.78,-111.8 504.63,-104.9"/>
</a>
</g>
</g>
<!-- Node20&#45;&gt;Node5 -->
<g id="edge30_Node000020_Node000005" class="edge">
<title>Node20&#45;&gt;Node5</title>
<g id="a_edge30_Node000020_Node000005"><a xlink:title=" ">
<path fill="none" stroke="#63b8ff" d="M388.15,-108.13C334.71,-98.19 255.03,-83.37 205.07,-74.08"/>
<polygon fill="#63b8ff" stroke="#63b8ff" points="387.66,-111.6 398.13,-109.98 388.94,-104.72 387.66,-111.6"/>
</a>
</g>
</g>
<!-- Node22&#45;&gt;Node12 -->
<g id="edge34_Node000022_Node000012" class="edge">
<title>Node22&#45;&gt;Node12</title>
<g id="a_edge34_Node000022_Node000012"><a xlink:title=" ">
<path fill="none" stroke="#63b8ff" d="M595.55,-101.39C601.74,-92.27 609.09,-81.45 614.09,-74.09"/>
<polygon fill="#63b8ff" stroke="#63b8ff" points="592.59,-99.51 589.87,-109.75 598.38,-103.44 592.59,-99.51"/>
</a>
</g>
</g>
<!-- Node22&#45;&gt;Node14 -->
<g id="edge35_Node000022_Node000014" class="edge">
<title>Node22&#45;&gt;Node14</title>
<g id="a_edge35_Node000022_Node000014"><a xlink:title=" ">
<path fill="none" stroke="#63b8ff" d="M513.93,-108.28C474.52,-100.94 430.86,-89.58 418.92,-74 399.13,-48.15 445.13,-28.76 478.68,-18.56"/>
<polygon fill="#63b8ff" stroke="#63b8ff" points="513.38,-111.74 523.84,-110.06 514.61,-104.85 513.38,-111.74"/>
</a>
</g>
</g>
<!-- Node23 -->
<g id="Node000023" class="node">
<title>Node23</title>
<g id="a_Node000023"><a xlink:href="ServerSocket_8cpp.html" target="_top" xlink:title=" ">
<polygon fill="white" stroke="#666666" points="547.42,-74 428.42,-74 428.42,-55 547.42,-55 547.42,-74"/>
<text text-anchor="middle" x="487.92" y="-62" font-family="Helvetica,sans-Serif" font-size="10.00">init/ServerSocket.cpp</text>
</a>
</g>
</g>
<!-- Node22&#45;&gt;Node23 -->
<g id="edge33_Node000022_Node000023" class="edge">
<title>Node22&#45;&gt;Node23</title>
<g id="a_edge33_Node000022_Node000023"><a xlink:title=" ">
<path fill="none" stroke="#63b8ff" d="M559.41,-104.97C541.86,-95.28 518.76,-82.52 503.63,-74.17"/>
<polygon fill="#63b8ff" stroke="#63b8ff" points="558.05,-108.22 568.5,-109.98 561.44,-102.09 558.05,-108.22"/>
</a>
</g>
</g>
<!-- Node24&#45;&gt;Node4 -->
<g id="edge39_Node000024_Node000004" class="edge">
<title>Node24&#45;&gt;Node4</title>
<g id="a_edge39_Node000024_Node000004"><a xlink:title=" ">
<path fill="none" stroke="#63b8ff" d="M1315.49,-111.87C1203.57,-103.76 1010.43,-89.21 844.92,-74 841.83,-73.72 838.66,-73.42 835.47,-73.11"/>
<polygon fill="#63b8ff" stroke="#63b8ff" points="1315.5,-115.38 1325.73,-112.61 1316.01,-108.4 1315.5,-115.38"/>
</a>
</g>
</g>
<!-- Node24&#45;&gt;Node9 -->
<g id="edge37_Node000024_Node000009" class="edge">
<title>Node24&#45;&gt;Node9</title>
<g id="a_edge37_Node000024_Node000009"><a xlink:title=" ">
<path fill="none" stroke="#63b8ff" d="M1382.44,-105.5C1362.57,-95.75 1335.92,-82.68 1318.59,-74.17"/>
<polygon fill="#63b8ff" stroke="#63b8ff" points="1381.05,-108.72 1391.57,-109.98 1384.14,-102.44 1381.05,-108.72"/>
</a>
</g>
</g>
<!-- Node24&#45;&gt;Node11 -->
<g id="edge38_Node000024_Node000011" class="edge">
<title>Node24&#45;&gt;Node11</title>
<g id="a_edge38_Node000024_Node000011"><a xlink:title=" ">
<path fill="none" stroke="#63b8ff" d="M1321.14,-108.87C1228.57,-98.71 1084.45,-82.89 998.2,-73.43"/>
<polygon fill="#63b8ff" stroke="#63b8ff" points="1321,-112.37 1331.32,-109.98 1321.76,-105.41 1321,-112.37"/>
</a>
</g>
</g>
<!-- Node24&#45;&gt;Node13 -->
<g id="edge42_Node000024_Node000013" class="edge">
<title>Node24&#45;&gt;Node13</title>
<g id="a_edge42_Node000024_Node000013"><a xlink:title=" ">
<path fill="none" stroke="#63b8ff" d="M1411.49,-99.43C1412.24,-85.16 1410.59,-66.24 1398.92,-55 1376.35,-33.26 1177.32,-19.07 1079.6,-13.36"/>
<polygon fill="#63b8ff" stroke="#63b8ff" points="1407.98,-99.35 1410.51,-109.64 1414.94,-100.02 1407.98,-99.35"/>
</a>
</g>
</g>
<!-- Node24&#45;&gt;Node16 -->
<g id="edge40_Node000024_Node000016" class="edge">
<title>Node24&#45;&gt;Node16</title>
<g id="a_edge40_Node000024_Node000016"><a xlink:title=" ">
<path fill="none" stroke="#63b8ff" d="M1468.89,-108.25C1527.1,-98.3 1614.44,-83.36 1668.98,-74.04"/>
<polygon fill="#63b8ff" stroke="#63b8ff" points="1468,-104.85 1458.73,-109.98 1469.18,-111.75 1468,-104.85"/>
</a>
</g>
</g>
<!-- Node24&#45;&gt;Node21 -->
<g id="edge41_Node000024_Node000021" class="edge">
<title>Node24&#45;&gt;Node21</title>
<g id="a_edge41_Node000024_Node000021"><a xlink:title=" ">
<path fill="none" stroke="#63b8ff" d="M1353.15,-108.13C1299.71,-98.19 1220.03,-83.37 1170.07,-74.08"/>
<polygon fill="#63b8ff" stroke="#63b8ff" points="1352.66,-111.6 1363.13,-109.98 1353.94,-104.72 1352.66,-111.6"/>
</a>
</g>
</g>
<!-- Node25 -->
<g id="Node000025" class="node">
<title>Node25</title>
<g id="a_Node000025"><a xlink:href="ResponseBuilder_8cpp.html" target="_top" xlink:title=" ">
<polygon fill="white" stroke="#666666" points="1611.42,-74 1446.42,-74 1446.42,-55 1611.42,-55 1611.42,-74"/>
<text text-anchor="middle" x="1528.92" y="-62" font-family="Helvetica,sans-Serif" font-size="10.00">response/ResponseBuilder.cpp</text>
</a>
</g>
</g>
<!-- Node24&#45;&gt;Node25 -->
<g id="edge43_Node000024_Node000025" class="edge">
<title>Node24&#45;&gt;Node25</title>
<g id="a_edge43_Node000024_Node000025"><a xlink:title=" ">
<path fill="none" stroke="#63b8ff" d="M1437.46,-105.9C1459.62,-96.11 1489.77,-82.79 1509.29,-74.17"/>
<polygon fill="#63b8ff" stroke="#63b8ff" points="1435.94,-102.74 1428.2,-109.98 1438.77,-109.15 1435.94,-102.74"/>
</a>
</g>
</g>
<!-- Node27&#45;&gt;Node21 -->
<g id="edge46_Node000027_Node000021" class="edge">
<title>Node27&#45;&gt;Node21</title>
<g id="a_edge46_Node000027_Node000021"><a xlink:title=" ">
<path fill="none" stroke="#63b8ff" d="M1304.45,-160.14C1261.52,-137.64 1175.98,-92.79 1140.23,-74.05"/>
<polygon fill="#63b8ff" stroke="#63b8ff" points="1302.93,-163.3 1313.42,-164.84 1306.18,-157.1 1302.93,-163.3"/>
</a>
</g>
</g>
<!-- Node27&#45;&gt;Node28 -->
<g id="edge47_Node000027_Node000028" class="edge">
<title>Node27&#45;&gt;Node28</title>
<g id="a_edge47_Node000027_Node000028"><a xlink:title=" ">
<path fill="none" stroke="#63b8ff" d="M1390.87,-163.31C1450.4,-153.36 1539.96,-138.38 1595.86,-129.04"/>
<polygon fill="#63b8ff" stroke="#63b8ff" points="1390.14,-159.88 1380.86,-164.98 1391.3,-166.79 1390.14,-159.88"/>
</a>
</g>
</g>
<!-- Node29&#45;&gt;Node2 -->
<g id="edge52_Node000029_Node000002" class="edge">
<title>Node29&#45;&gt;Node2</title>
<g id="a_edge52_Node000029_Node000002"><a xlink:title=" ">
<path fill="none" stroke="#63b8ff" d="M747.24,-219.07C655.85,-209.12 513.17,-193.59 425.12,-184.01"/>
<polygon fill="#63b8ff" stroke="#63b8ff" points="746.98,-222.56 757.3,-220.16 747.73,-215.6 746.98,-222.56"/>
</a>
</g>
</g>
<!-- Node29&#45;&gt;Node8 -->
<g id="edge50_Node000029_Node000008" class="edge">
<title>Node29&#45;&gt;Node8</title>
<g id="a_edge50_Node000029_Node000008"><a xlink:title=" ">
<path fill="none" stroke="#63b8ff" d="M862.28,-215.77C884.04,-205.99 913.51,-192.75 932.62,-184.17"/>
<polygon fill="#63b8ff" stroke="#63b8ff" points="860.57,-212.69 852.88,-219.98 863.44,-219.08 860.57,-212.69"/>
</a>
</g>
</g>
<!-- Node29&#45;&gt;Node10 -->
<g id="edge51_Node000029_Node000010" class="edge">
<title>Node29&#45;&gt;Node10</title>
<g id="a_edge51_Node000029_Node000010"><a xlink:title=" ">
<path fill="none" stroke="#63b8ff" d="M829.94,-209.8C824.92,-186.2 816.48,-146.58 812.77,-129.16"/>
<polygon fill="#63b8ff" stroke="#63b8ff" points="826.54,-210.61 832.04,-219.66 833.38,-209.15 826.54,-210.61"/>
</a>
</g>
</g>
<!-- Node29&#45;&gt;Node15 -->
<g id="edge53_Node000029_Node000015" class="edge">
<title>Node29&#45;&gt;Node15</title>
<g id="a_edge53_Node000029_Node000015"><a xlink:title=" ">
<path fill="none" stroke="#63b8ff" d="M894.68,-218.31C954.02,-208.36 1043.3,-193.38 1099.02,-184.04"/>
<polygon fill="#63b8ff" stroke="#63b8ff" points="893.98,-214.88 884.7,-219.98 895.14,-221.78 893.98,-214.88"/>
</a>
</g>
</g>
<!-- Node29&#45;&gt;Node17 -->
<g id="edge54_Node000029_Node000017" class="edge">
<title>Node29&#45;&gt;Node17</title>
<g id="a_edge54_Node000029_Node000017"><a xlink:title=" ">
<path fill="none" stroke="#63b8ff" d="M774.73,-218.25C717.27,-208.3 631.06,-193.36 577.22,-184.04"/>
<polygon fill="#63b8ff" stroke="#63b8ff" points="774.31,-221.73 784.76,-219.98 775.5,-214.83 774.31,-221.73"/>
</a>
</g>
</g>
<!-- Node29&#45;&gt;Node18 -->
<g id="edge55_Node000029_Node000018" class="edge">
<title>Node29&#45;&gt;Node18</title>
<g id="a_edge55_Node000029_Node000018"><a xlink:title=" ">
<path fill="none" stroke="#63b8ff" d="M808.9,-214.97C790.98,-205.28 767.4,-192.52 751.96,-184.17"/>
<polygon fill="#63b8ff" stroke="#63b8ff" points="807.72,-218.31 818.18,-219.98 811.05,-212.15 807.72,-218.31"/>
</a>
</g>
</g>
<!-- Node29&#45;&gt;Node24 -->
<g id="edge57_Node000029_Node000024" class="edge">
<title>Node29&#45;&gt;Node24</title>
<g id="a_edge57_Node000029_Node000024"><a xlink:title=" ">
<path fill="none" stroke="#63b8ff" d="M920.78,-226.48C1112.86,-221.58 1558.59,-207.7 1580.92,-184 1613.23,-149.71 1550.7,-133.85 1492.18,-126.56"/>
<polygon fill="#63b8ff" stroke="#63b8ff" points="920.62,-222.98 910.71,-226.73 920.8,-229.98 920.62,-222.98"/>
</a>
</g>
</g>
<!-- Node30 -->
<g id="Node000030" class="node">
<title>Node30</title>
<g id="a_Node000030"><a xlink:href="HttpResponse_8cpp.html" target="_top" xlink:title=" ">
<polygon fill="white" stroke="#666666" points="1571.92,-184 1419.92,-184 1419.92,-165 1571.92,-165 1571.92,-184"/>
<text text-anchor="middle" x="1495.92" y="-172" font-family="Helvetica,sans-Serif" font-size="10.00">response/HttpResponse.cpp</text>
</a>
</g>
</g>
<!-- Node29&#45;&gt;Node30 -->
<g id="edge56_Node000029_Node000030" class="edge">
<title>Node29&#45;&gt;Node30</title>
<g id="a_edge56_Node000029_Node000030"><a xlink:title=" ">
<path fill="none" stroke="#63b8ff" d="M921.14,-222.35C1034,-214.25 1236.74,-199.25 1409.92,-184 1413.06,-183.72 1416.27,-183.44 1419.5,-183.14"/>
<polygon fill="#63b8ff" stroke="#63b8ff" points="920.56,-218.88 910.83,-223.08 921.06,-225.86 920.56,-218.88"/>
</a>
</g>
</g>
</g>
</svg>

<g id="navigator" transform="translate(0 0)" fill="#404254">
  <rect fill="#f2f5e9" fill-opacity="0.5" stroke="#606060" stroke-width=".5" x="0" y="0" width="60" height="60"/>
  <use id="zoomplus" xlink:href="#zoomPlus" x="17" y="9" onmousedown="handleZoom(evt,'in')"/>
  <use id="zoomminus" xlink:href="#zoomMin" x="42" y="9" onmousedown="handleZoom(evt,'out')"/>
  <use id="reset" xlink:href="#resetDef" x="30" y="36" onmousedown="handleReset()"/>
   <use id="arrowup" xlink:href="#arrowUp" x="0" y="0" onmousedown="handlePan(0,-1)"/>
  <use id="arrowright" xlink:href="#arrowRight" x="0" y="0" onmousedown="handlePan(1,0)"/>
  <use id="arrowdown" xlink:href="#arrowDown" x="0" y="0" onmousedown="handlePan(0,1)"/>
  <use id="arrowleft" xlink:href="#arrowLeft" x="0" y="0" onmousedown="handlePan(-1,0)"/>
</g>
<svg viewBox="0 0 15 15" width="100%" height="30px" preserveAspectRatio="xMaxYMin meet">
 <g id="arrow_out" transform="scale(0.3 0.3)">
  <a xlink:href="ResponseStatus_8hpp__dep__incl_org.svg" target="_base">
   <rect id="button" ry="5" rx="5" y="6" x="6" height="38" width="38"
        fill="#f2f5e9" fill-opacity="0.5" stroke="#606060" stroke-width="1.0"/>
   <path id="arrow"
     d="M 11.500037,31.436501 C 11.940474,20.09759 22.043105,11.32322 32.158766,21.979434 L 37.068811,17.246167 C 37.068811,17.246167 37.088388,32 37.088388,32 L 22.160133,31.978069 C 22.160133,31.978069 26.997745,27.140456 26.997745,27.140456 C 18.528582,18.264221 13.291696,25.230495 11.500037,31.436501 z"
     style="fill:#404040;"/>
  </a>
 </g>
</svg>

<style type='text/css'>
<![CDATA[
[data-mouse-over-selected='false'] { opacity: 0.7; }
[data-mouse-over-selected='true']  { opacity: 1.0; }
]]>
</style>
<script type="application/ecmascript"><![CDATA[
document.addEventListener('DOMContentLoaded', (event) => {
  highlightEdges();
  highlightAdjacentNodes();
});
]]></script>
</svg>
