<?xml version="1.0" encoding="UTF-8" standalone="no"?>
<!DOCTYPE svg PUBLIC "-//W3C//DTD SVG 1.1//EN"
 "http://www.w3.org/Graphics/SVG/1.1/DTD/svg11.dtd">
<!-- Generated by graphviz version 2.43.0 (0)
 -->
<!-- Title: response/ResponseBuilder.cpp Pages: 1 -->
<!--zoomable 302 -->

<svg id="main" version="1.1" xmlns="http://www.w3.org/2000/svg" xmlns:xlink="http://www.w3.org/1999/xlink" xml:space="preserve" onload="init(evt)">
<style type="text/css"><![CDATA[
.node, .edge {opacity: 0.7;}
.node.selected, .edge.selected {opacity: 1;}
.edge:hover path { stroke: red; }
.edge:hover polygon { stroke: red; fill: red; }
]]></style>

<defs>
  <circle id="rim" cx="0" cy="0" r="7"/>
  <circle id="rim2" cx="0" cy="0" r="3.5"/>
  <g id="zoomPlus">
    <use xlink:href="#rim" fill="#404040"><set attributeName="fill" to="#808080" begin="zoomplus.mouseover" end="zoomplus.mouseout"/></use>
    <path d="M-4,0h8M0,-4v8" fill="none" stroke="white" stroke-width="1.5" pointer-events="none"/>
  </g>
  <g id="zoomMin">
    <use xlink:href="#rim" fill="#404040"><set attributeName="fill" to="#808080" begin="zoomminus.mouseover" end="zoomminus.mouseout"/></use>
    <path d="M-4,0h8" fill="none" stroke="white" stroke-width="1.5" pointer-events="none"/>
  </g>
  <g id="arrowUp" transform="translate(30 24)">
    <use xlink:href="#rim"/>
    <path pointer-events="none" fill="none" stroke="white" stroke-width="1.5" d="M0,-3.0v7 M-2.5,-0.5L0,-3.0L2.5,-0.5"/>
  </g>
  <g id="arrowRight" transform="rotate(90) translate(36 -43)">
    <use xlink:href="#rim"/>
    <path pointer-events="none" fill="none" stroke="white" stroke-width="1.5" d="M0,-3.0v7 M-2.5,-0.5L0,-3.0L2.5,-0.5"/>
  </g>
  <g id="arrowDown" transform="rotate(180) translate(-30 -48)">
    <use xlink:href="#rim"/>
    <path pointer-events="none" fill="none" stroke="white" stroke-width="1.5" d="M0,-3.0v7 M-2.5,-0.5L0,-3.0L2.5,-0.5"/>
  </g>
  <g id="arrowLeft" transform="rotate(270) translate(-36 17)">
    <use xlink:href="#rim"/>
    <path pointer-events="none" fill="none" stroke="white" stroke-width="1.5" d="M0,-3.0v7 M-2.5,-0.5L0,-3.0L2.5,-0.5"/>
  </g>
  <g id="resetDef">
    <use xlink:href="#rim2" fill="#404040"><set attributeName="fill" to="#808080" begin="reset.mouseover" end="reset.mouseout"/></use>
  </g>
</defs>
<script type="application/ecmascript">
var viewWidth = 1640;
var viewHeight = 302;
var sectionId = 'dynsection-0';
</script>
<script type="application/ecmascript" xlink:href="svg.min.js"/>
<svg id="graph" class="graph">
<g id="viewport">
<title>response/ResponseBuilder.cpp</title>
<!-- Node1 -->
<g id="Node000001" class="node">
<title>Node1</title>
<g id="a_Node000001"><a xlink:title=" ">
<polygon fill="#999999" stroke="#666666" points="1150.81,-294 985.81,-294 985.81,-275 1150.81,-275 1150.81,-294"/>
<text text-anchor="middle" x="1068.31" y="-282" font-family="Helvetica,sans-Serif" font-size="10.00">response/ResponseBuilder.cpp</text>
</a>
</g>
</g>
<!-- Node2 -->
<g id="Node000002" class="node">
<title>Node2</title>
<g id="a_Node000002"><a xlink:title=" ">
<polygon fill="#e0e0e0" stroke="#999999" points="943.81,-184 888.81,-184 888.81,-165 943.81,-165 943.81,-184"/>
<text text-anchor="middle" x="916.31" y="-172" font-family="Helvetica,sans-Serif" font-size="10.00">fstream</text>
</a>
</g>
</g>
<!-- Node1&#45;&gt;Node2 -->
<g id="edge1_Node000001_Node000002" class="edge">
<title>Node1&#45;&gt;Node2</title>
<g id="a_edge1_Node000001_Node000002"><a xlink:title=" ">
<path fill="none" stroke="#63b8ff" d="M1044.41,-274.96C1024.77,-267.28 996.79,-254.8 975.31,-239 957.21,-225.69 940.16,-206.31 929.08,-192.46"/>
<polygon fill="#63b8ff" stroke="#63b8ff" points="931.62,-190.03 922.72,-184.28 926.1,-194.32 931.62,-190.03"/>
</a>
</g>
</g>
<!-- Node3 -->
<g id="Node000003" class="node">
<title>Node3</title>
<g id="a_Node000003"><a xlink:title=" ">
<polygon fill="#e0e0e0" stroke="#999999" points="1134.31,-184 1078.31,-184 1078.31,-165 1134.31,-165 1134.31,-184"/>
<text text-anchor="middle" x="1106.31" y="-172" font-family="Helvetica,sans-Serif" font-size="10.00">sstream</text>
</a>
</g>
</g>
<!-- Node1&#45;&gt;Node3 -->
<g id="edge2_Node000001_Node000003" class="edge">
<title>Node1&#45;&gt;Node3</title>
<g id="a_edge2_Node000001_Node000003"><a xlink:title=" ">
<path fill="none" stroke="#63b8ff" d="M1072.39,-274.75C1076.46,-265.86 1082.74,-251.64 1087.31,-239 1092.7,-224.1 1097.79,-206.86 1101.34,-194.11"/>
<polygon fill="#63b8ff" stroke="#63b8ff" points="1104.78,-194.8 1104.04,-184.23 1098.03,-192.96 1104.78,-194.8"/>
</a>
</g>
</g>
<!-- Node4 -->
<g id="Node000004" class="node">
<title>Node4</title>
<g id="a_Node000004"><a xlink:href="ResponseBuilder_8hpp.html" target="_top" xlink:title=" ">
<polygon fill="white" stroke="#666666" points="586.31,-239 420.31,-239 420.31,-220 586.31,-220 586.31,-239"/>
<text text-anchor="middle" x="503.31" y="-227" font-family="Helvetica,sans-Serif" font-size="10.00">response/ResponseBuilder.hpp</text>
</a>
</g>
</g>
<!-- Node1&#45;&gt;Node4 -->
<g id="edge3_Node000001_Node000004" class="edge">
<title>Node1&#45;&gt;Node4</title>
<g id="a_edge3_Node000001_Node000004"><a xlink:title=" ">
<path fill="none" stroke="#63b8ff" d="M985.55,-275.74C882.07,-266.03 705.38,-249.46 597.02,-239.29"/>
<polygon fill="#63b8ff" stroke="#63b8ff" points="597.04,-235.78 586.75,-238.33 596.38,-242.75 597.04,-235.78"/>
</a>
</g>
</g>
<!-- Node20 -->
<g id="Node000020" class="node">
<title>Node20</title>
<g id="a_Node000020"><a xlink:href="Logger_8hpp.html" target="_top" xlink:title=" ">
<polygon fill="white" stroke="#666666" points="1078.31,-239 984.31,-239 984.31,-220 1078.31,-220 1078.31,-239"/>
<text text-anchor="middle" x="1031.31" y="-227" font-family="Helvetica,sans-Serif" font-size="10.00">utils/Logger.hpp</text>
</a>
</g>
</g>
<!-- Node1&#45;&gt;Node20 -->
<g id="edge35_Node000001_Node000020" class="edge">
<title>Node1&#45;&gt;Node20</title>
<g id="a_edge35_Node000001_Node000020"><a xlink:title=" ">
<path fill="none" stroke="#63b8ff" d="M1062.2,-274.75C1057.03,-267.34 1049.47,-256.5 1043.12,-247.41"/>
<polygon fill="#63b8ff" stroke="#63b8ff" points="1045.9,-245.29 1037.31,-239.09 1040.16,-249.29 1045.9,-245.29"/>
</a>
</g>
</g>
<!-- Node22 -->
<g id="Node000022" class="node">
<title>Node22</title>
<g id="a_Node000022"><a xlink:href="string__utils_8hpp.html" target="_top" xlink:title="Collection of inline string utility functions used across Webservinho.">
<polygon fill="white" stroke="#666666" points="1308.31,-239 1192.31,-239 1192.31,-220 1308.31,-220 1308.31,-239"/>
<text text-anchor="middle" x="1250.31" y="-227" font-family="Helvetica,sans-Serif" font-size="10.00">utils/string_utils.hpp</text>
</a>
</g>
</g>
<!-- Node1&#45;&gt;Node22 -->
<g id="edge40_Node000001_Node000022" class="edge">
<title>Node1&#45;&gt;Node22</title>
<g id="a_edge40_Node000001_Node000022"><a xlink:title=" ">
<path fill="none" stroke="#63b8ff" d="M1097.55,-274.98C1128.37,-266.01 1177.09,-251.82 1211.2,-241.89"/>
<polygon fill="#63b8ff" stroke="#63b8ff" points="1212.22,-245.24 1220.84,-239.08 1210.26,-238.52 1212.22,-245.24"/>
</a>
</g>
</g>
<!-- Node27 -->
<g id="Node000027" class="node">
<title>Node27</title>
<g id="a_Node000027"><a xlink:href="Signals_8hpp.html" target="_top" xlink:title=" ">
<polygon fill="white" stroke="#666666" points="1616.81,-184 1519.81,-184 1519.81,-165 1616.81,-165 1616.81,-184"/>
<text text-anchor="middle" x="1568.31" y="-172" font-family="Helvetica,sans-Serif" font-size="10.00">utils/Signals.hpp</text>
</a>
</g>
</g>
<!-- Node1&#45;&gt;Node27 -->
<g id="edge48_Node000001_Node000027" class="edge">
<title>Node1&#45;&gt;Node27</title>
<g id="a_edge48_Node000001_Node000027"><a xlink:title=" ">
<path fill="none" stroke="#63b8ff" d="M1122.44,-274.96C1173.03,-266.72 1250.56,-253.39 1317.31,-239 1392.13,-222.87 1478.46,-200.11 1527.89,-186.67"/>
<polygon fill="#63b8ff" stroke="#63b8ff" points="1528.84,-190.04 1537.56,-184.03 1527,-183.28 1528.84,-190.04"/>
</a>
</g>
</g>
<!-- Node5 -->
<g id="Node000005" class="node">
<title>Node5</title>
<g id="a_Node000005"><a xlink:href="HttpResponse_8hpp.html" target="_top" xlink:title=" ">
<polygon fill="white" stroke="#666666" points="282.81,-129 129.81,-129 129.81,-110 282.81,-110 282.81,-129"/>
<text text-anchor="middle" x="206.31" y="-117" font-family="Helvetica,sans-Serif" font-size="10.00">response/HttpResponse.hpp</text>
</a>
</g>
</g>
<!-- Node4&#45;&gt;Node5 -->
<g id="edge4_Node000004_Node000005" class="edge">
<title>Node4&#45;&gt;Node5</title>
<g id="a_edge4_Node000004_Node000005"><a xlink:title=" ">
<path fill="none" stroke="#63b8ff" d="M477.32,-219.89C451.02,-211.11 409.21,-196.97 373.31,-184 325.85,-166.86 271.28,-145.86 237.79,-132.83"/>
<polygon fill="#63b8ff" stroke="#63b8ff" points="238.7,-129.43 228.11,-129.06 236.15,-135.95 238.7,-129.43"/>
</a>
</g>
</g>
<!-- Node8 -->
<g id="Node000008" class="node">
<title>Node8</title>
<g id="a_Node000008"><a xlink:href="ResponseStatus_8hpp.html" target="_top" xlink:title=" ">
<polygon fill="white" stroke="#666666" points="182.81,-74 19.81,-74 19.81,-55 182.81,-55 182.81,-74"/>
<text text-anchor="middle" x="101.31" y="-62" font-family="Helvetica,sans-Serif" font-size="10.00">response/ResponseStatus.hpp</text>
</a>
</g>
</g>
<!-- Node4&#45;&gt;Node8 -->
<g id="edge8_Node000004_Node000008" class="edge">
<title>Node4&#45;&gt;Node8</title>
<g id="a_edge8_Node000004_Node000008"><a xlink:title=" ">
<path fill="none" stroke="#63b8ff" d="M441.36,-219.99C345.03,-205.54 165.66,-173.4 120.31,-129 108.37,-117.31 103.87,-98.46 102.2,-84.32"/>
<polygon fill="#63b8ff" stroke="#63b8ff" points="105.68,-83.91 101.38,-74.23 98.7,-84.48 105.68,-83.91"/>
</a>
</g>
</g>
<!-- Node9 -->
<g id="Node000009" class="node">
<title>Node9</title>
<g id="a_Node000009"><a xlink:href="ClientConnection_8hpp.html" target="_top" xlink:title=" ">
<polygon fill="white" stroke="#666666" points="522.31,-184 382.31,-184 382.31,-165 522.31,-165 522.31,-184"/>
<text text-anchor="middle" x="452.31" y="-172" font-family="Helvetica,sans-Serif" font-size="10.00">init/ClientConnection.hpp</text>
</a>
</g>
</g>
<!-- Node4&#45;&gt;Node9 -->
<g id="edge9_Node000004_Node000009" class="edge">
<title>Node4&#45;&gt;Node9</title>
<g id="a_edge9_Node000004_Node000009"><a xlink:title=" ">
<path fill="none" stroke="#63b8ff" d="M494.89,-219.75C487.54,-212.11 476.68,-200.82 467.77,-191.56"/>
<polygon fill="#63b8ff" stroke="#63b8ff" points="470.03,-188.87 460.58,-184.09 464.99,-193.72 470.03,-188.87"/>
</a>
</g>
</g>
<!-- Node18 -->
<g id="Node000018" class="node">
<title>Node18</title>
<g id="a_Node000018"><a xlink:href="ServerConfig_8hpp.html" target="_top" xlink:title=" ">
<polygon fill="white" stroke="#666666" points="870.31,-184 738.31,-184 738.31,-165 870.31,-165 870.31,-184"/>
<text text-anchor="middle" x="804.31" y="-172" font-family="Helvetica,sans-Serif" font-size="10.00">config/ServerConfig.hpp</text>
</a>
</g>
</g>
<!-- Node4&#45;&gt;Node18 -->
<g id="edge24_Node000004_Node000018" class="edge">
<title>Node4&#45;&gt;Node18</title>
<g id="a_edge24_Node000004_Node000018"><a xlink:title=" ">
<path fill="none" stroke="#63b8ff" d="M551.67,-219.98C604.5,-210.68 689.13,-195.78 745.7,-185.82"/>
<polygon fill="#63b8ff" stroke="#63b8ff" points="746.33,-189.26 755.57,-184.08 745.12,-182.37 746.33,-189.26"/>
</a>
</g>
</g>
<!-- Node19 -->
<g id="Node000019" class="node">
<title>Node19</title>
<g id="a_Node000019"><a xlink:href="LocationConfig_8hpp.html" target="_top" xlink:title=" ">
<polygon fill="white" stroke="#666666" points="898.31,-129 756.31,-129 756.31,-110 898.31,-110 898.31,-129"/>
<text text-anchor="middle" x="827.31" y="-117" font-family="Helvetica,sans-Serif" font-size="10.00">config/LocationConfig.hpp</text>
</a>
</g>
</g>
<!-- Node4&#45;&gt;Node19 -->
<g id="edge34_Node000004_Node000019" class="edge">
<title>Node4&#45;&gt;Node19</title>
<g id="a_edge34_Node000004_Node000019"><a xlink:title=" ">
<path fill="none" stroke="#63b8ff" d="M529.01,-219.94C586.66,-200.72 726.43,-154.13 792.11,-132.24"/>
<polygon fill="#63b8ff" stroke="#63b8ff" points="793.23,-135.55 801.61,-129.07 791.02,-128.91 793.23,-135.55"/>
</a>
</g>
</g>
<!-- Node6 -->
<g id="Node000006" class="node">
<title>Node6</title>
<g id="a_Node000006"><a xlink:title=" ">
<polygon fill="#e0e0e0" stroke="#999999" points="693.31,-19 649.31,-19 649.31,0 693.31,0 693.31,-19"/>
<text text-anchor="middle" x="671.31" y="-7" font-family="Helvetica,sans-Serif" font-size="10.00">string</text>
</a>
</g>
</g>
<!-- Node5&#45;&gt;Node6 -->
<g id="edge5_Node000005_Node000006" class="edge">
<title>Node5&#45;&gt;Node6</title>
<g id="a_edge5_Node000005_Node000006"><a xlink:title=" ">
<path fill="none" stroke="#63b8ff" d="M129.78,-116.18C59.19,-111.43 -29.14,-97.2 10.31,-55 53.58,-8.72 511.99,-9.14 638.91,-10.16"/>
<polygon fill="#63b8ff" stroke="#63b8ff" points="639.11,-13.66 649.14,-10.24 639.17,-6.66 639.11,-13.66"/>
</a>
</g>
</g>
<!-- Node7 -->
<g id="Node000007" class="node">
<title>Node7</title>
<g id="a_Node000007"><a xlink:title=" ">
<polygon fill="#e0e0e0" stroke="#999999" points="798.31,-74 760.31,-74 760.31,-55 798.31,-55 798.31,-74"/>
<text text-anchor="middle" x="779.31" y="-62" font-family="Helvetica,sans-Serif" font-size="10.00">map</text>
</a>
</g>
</g>
<!-- Node5&#45;&gt;Node7 -->
<g id="edge6_Node000005_Node000007" class="edge">
<title>Node5&#45;&gt;Node7</title>
<g id="a_edge6_Node000005_Node000007"><a xlink:title=" ">
<path fill="none" stroke="#63b8ff" d="M283.2,-110.82C286.28,-110.54 289.32,-110.26 292.31,-110 492.85,-92.23 548.45,-111.31 750.14,-73.8"/>
<polygon fill="#63b8ff" stroke="#63b8ff" points="750.99,-77.2 760.17,-71.91 749.69,-70.32 750.99,-77.2"/>
</a>
</g>
</g>
<!-- Node5&#45;&gt;Node8 -->
<g id="edge7_Node000005_Node000008" class="edge">
<title>Node5&#45;&gt;Node8</title>
<g id="a_edge7_Node000005_Node000008"><a xlink:title=" ">
<path fill="none" stroke="#63b8ff" d="M189.44,-109.98C172.7,-101.54 146.81,-88.47 127.42,-78.68"/>
<polygon fill="#63b8ff" stroke="#63b8ff" points="128.99,-75.55 118.49,-74.17 125.84,-81.8 128.99,-75.55"/>
</a>
</g>
</g>
<!-- Node9&#45;&gt;Node5 -->
<g id="edge23_Node000009_Node000005" class="edge">
<title>Node9&#45;&gt;Node5</title>
<g id="a_edge23_Node000009_Node000005"><a xlink:title=" ">
<path fill="none" stroke="#63b8ff" d="M412.79,-164.98C370.15,-155.8 302.16,-141.15 255.95,-131.19"/>
<polygon fill="#63b8ff" stroke="#63b8ff" points="256.66,-127.77 246.15,-129.08 255.18,-134.61 256.66,-127.77"/>
</a>
</g>
</g>
<!-- Node9&#45;&gt;Node6 -->
<g id="edge10_Node000009_Node000006" class="edge">
<title>Node9&#45;&gt;Node6</title>
<g id="a_edge10_Node000009_Node000006"><a xlink:title=" ">
<path fill="none" stroke="#63b8ff" d="M445.06,-164.77C433.28,-151.12 408.63,-124.79 382.31,-110 330.46,-80.87 220.58,-99.26 260.31,-55 285.5,-26.94 546.37,-14.96 638.94,-11.57"/>
<polygon fill="#63b8ff" stroke="#63b8ff" points="639.25,-15.06 649.12,-11.21 639.01,-8.06 639.25,-15.06"/>
</a>
</g>
</g>
<!-- Node10 -->
<g id="Node000010" class="node">
<title>Node10</title>
<g id="a_Node000010"><a xlink:title=" ">
<polygon fill="#e0e0e0" stroke="#999999" points="1134.31,-129 1090.31,-129 1090.31,-110 1134.31,-110 1134.31,-129"/>
<text text-anchor="middle" x="1112.31" y="-117" font-family="Helvetica,sans-Serif" font-size="10.00">ctime</text>
</a>
</g>
</g>
<!-- Node9&#45;&gt;Node10 -->
<g id="edge11_Node000009_Node000010" class="edge">
<title>Node9&#45;&gt;Node10</title>
<g id="a_edge11_Node000009_Node000010"><a xlink:title=" ">
<path fill="none" stroke="#63b8ff" d="M522.32,-167.88C663.64,-156.53 978.2,-131.27 1079.91,-123.1"/>
<polygon fill="#63b8ff" stroke="#63b8ff" points="1080.48,-126.57 1090.16,-122.28 1079.92,-119.59 1080.48,-126.57"/>
</a>
</g>
</g>
<!-- Node11 -->
<g id="Node000011" class="node">
<title>Node11</title>
<g id="a_Node000011"><a xlink:title=" ">
<polygon fill="#e0e0e0" stroke="#999999" points="373.31,-129 301.31,-129 301.31,-110 373.31,-110 373.31,-129"/>
<text text-anchor="middle" x="337.31" y="-117" font-family="Helvetica,sans-Serif" font-size="10.00">sys/types.h</text>
</a>
</g>
</g>
<!-- Node9&#45;&gt;Node11 -->
<g id="edge12_Node000009_Node000011" class="edge">
<title>Node9&#45;&gt;Node11</title>
<g id="a_edge12_Node000009_Node000011"><a xlink:title=" ">
<path fill="none" stroke="#63b8ff" d="M433.83,-164.98C415.33,-156.46 386.63,-143.23 365.33,-133.41"/>
<polygon fill="#63b8ff" stroke="#63b8ff" points="366.67,-130.18 356.12,-129.17 363.74,-136.53 366.67,-130.18"/>
</a>
</g>
</g>
<!-- Node12 -->
<g id="Node000012" class="node">
<title>Node12</title>
<g id="a_Node000012"><a xlink:href="HttpRequest_8hpp.html" target="_top" xlink:title=" ">
<polygon fill="white" stroke="#666666" points="579.31,-129 441.31,-129 441.31,-110 579.31,-110 579.31,-129"/>
<text text-anchor="middle" x="510.31" y="-117" font-family="Helvetica,sans-Serif" font-size="10.00">request/HttpRequest.hpp</text>
</a>
</g>
</g>
<!-- Node9&#45;&gt;Node12 -->
<g id="edge13_Node000009_Node000012" class="edge">
<title>Node9&#45;&gt;Node12</title>
<g id="a_edge13_Node000009_Node000012"><a xlink:title=" ">
<path fill="none" stroke="#63b8ff" d="M461.63,-164.98C470.12,-157.23 482.87,-145.58 493.19,-136.14"/>
<polygon fill="#63b8ff" stroke="#63b8ff" points="495.8,-138.5 500.82,-129.17 491.08,-133.33 495.8,-138.5"/>
</a>
</g>
</g>
<!-- Node12&#45;&gt;Node6 -->
<g id="edge14_Node000012_Node000006" class="edge">
<title>Node12&#45;&gt;Node6</title>
<g id="a_edge14_Node000012_Node000006"><a xlink:title=" ">
<path fill="none" stroke="#63b8ff" d="M441.18,-110.32C373.64,-101.63 279.4,-87.31 268.31,-74 262.91,-67.51 262.68,-61.29 268.31,-55 292.96,-27.48 548.2,-15.17 639.26,-11.63"/>
<polygon fill="#63b8ff" stroke="#63b8ff" points="639.42,-15.13 649.28,-11.25 639.15,-8.13 639.42,-15.13"/>
</a>
</g>
</g>
<!-- Node12&#45;&gt;Node7 -->
<g id="edge15_Node000012_Node000007" class="edge">
<title>Node12&#45;&gt;Node7</title>
<g id="a_edge15_Node000012_Node000007"><a xlink:title=" ">
<path fill="none" stroke="#63b8ff" d="M566.69,-109.93C613.47,-102.4 681.9,-90.43 750.06,-74.08"/>
<polygon fill="#63b8ff" stroke="#63b8ff" points="751.22,-77.4 760.11,-71.64 749.57,-70.6 751.22,-77.4"/>
</a>
</g>
</g>
<!-- Node12&#45;&gt;Node8 -->
<g id="edge21_Node000012_Node000008" class="edge">
<title>Node12&#45;&gt;Node8</title>
<g id="a_edge21_Node000012_Node000008"><a xlink:title=" ">
<path fill="none" stroke="#63b8ff" d="M444.6,-109.98C371.66,-100.53 254.13,-85.3 177.3,-75.35"/>
<polygon fill="#63b8ff" stroke="#63b8ff" points="177.57,-71.85 167.2,-74.04 176.67,-78.79 177.57,-71.85"/>
</a>
</g>
</g>
<!-- Node13 -->
<g id="Node000013" class="node">
<title>Node13</title>
<g id="a_Node000013"><a xlink:title=" ">
<polygon fill="#e0e0e0" stroke="#999999" points="1073.81,-74 1026.81,-74 1026.81,-55 1073.81,-55 1073.81,-74"/>
<text text-anchor="middle" x="1050.31" y="-62" font-family="Helvetica,sans-Serif" font-size="10.00">vector</text>
</a>
</g>
</g>
<!-- Node12&#45;&gt;Node13 -->
<g id="edge16_Node000012_Node000013" class="edge">
<title>Node12&#45;&gt;Node13</title>
<g id="a_edge16_Node000012_Node000013"><a xlink:title=" ">
<path fill="none" stroke="#63b8ff" d="M579.66,-116.03C675.72,-111.8 854.76,-101.03 1016.48,-73.83"/>
<polygon fill="#63b8ff" stroke="#63b8ff" points="1017.35,-77.23 1026.62,-72.1 1016.17,-70.33 1017.35,-77.23"/>
</a>
</g>
</g>
<!-- Node14 -->
<g id="Node000014" class="node">
<title>Node14</title>
<g id="a_Node000014"><a xlink:href="RequestMethod_8hpp.html" target="_top" xlink:title=" ">
<polygon fill="white" stroke="#666666" points="1008.31,-74 854.31,-74 854.31,-55 1008.31,-55 1008.31,-74"/>
<text text-anchor="middle" x="931.31" y="-62" font-family="Helvetica,sans-Serif" font-size="10.00">request/RequestMethod.hpp</text>
</a>
</g>
</g>
<!-- Node12&#45;&gt;Node14 -->
<g id="edge17_Node000012_Node000014" class="edge">
<title>Node12&#45;&gt;Node14</title>
<g id="a_edge17_Node000012_Node000014"><a xlink:title=" ">
<path fill="none" stroke="#63b8ff" d="M577.95,-109.98C653.03,-100.53 774.01,-85.3 853.1,-75.35"/>
<polygon fill="#63b8ff" stroke="#63b8ff" points="854.01,-78.76 863.49,-74.04 853.13,-71.81 854.01,-78.76"/>
</a>
</g>
</g>
<!-- Node15 -->
<g id="Node000015" class="node">
<title>Node15</title>
<g id="a_Node000015"><a xlink:href="RequestMeta_8hpp.html" target="_top" xlink:title=" ">
<polygon fill="white" stroke="#666666" points="742.31,-74 600.31,-74 600.31,-55 742.31,-55 742.31,-74"/>
<text text-anchor="middle" x="671.31" y="-62" font-family="Helvetica,sans-Serif" font-size="10.00">request/RequestMeta.hpp</text>
</a>
</g>
</g>
<!-- Node12&#45;&gt;Node15 -->
<g id="edge18_Node000012_Node000015" class="edge">
<title>Node12&#45;&gt;Node15</title>
<g id="a_edge18_Node000012_Node000015"><a xlink:title=" ">
<path fill="none" stroke="#63b8ff" d="M536.18,-109.98C563.09,-101.13 605.43,-87.19 635.54,-77.28"/>
<polygon fill="#63b8ff" stroke="#63b8ff" points="636.84,-80.53 645.24,-74.08 634.65,-73.88 636.84,-80.53"/>
</a>
</g>
</g>
<!-- Node16 -->
<g id="Node000016" class="node">
<title>Node16</title>
<g id="a_Node000016"><a xlink:href="RequestState_8hpp.html" target="_top" xlink:title=" ">
<polygon fill="white" stroke="#666666" points="420.81,-74 277.81,-74 277.81,-55 420.81,-55 420.81,-74"/>
<text text-anchor="middle" x="349.31" y="-62" font-family="Helvetica,sans-Serif" font-size="10.00">request/RequestState.hpp</text>
</a>
</g>
</g>
<!-- Node12&#45;&gt;Node16 -->
<g id="edge20_Node000012_Node000016" class="edge">
<title>Node12&#45;&gt;Node16</title>
<g id="a_edge20_Node000012_Node000016"><a xlink:title=" ">
<path fill="none" stroke="#63b8ff" d="M484.44,-109.98C457.53,-101.13 415.19,-87.19 385.08,-77.28"/>
<polygon fill="#63b8ff" stroke="#63b8ff" points="385.97,-73.88 375.38,-74.08 383.79,-80.53 385.97,-73.88"/>
</a>
</g>
</g>
<!-- Node17 -->
<g id="Node000017" class="node">
<title>Node17</title>
<g id="a_Node000017"><a xlink:href="RouteType_8hpp.html" target="_top" xlink:title=" ">
<polygon fill="white" stroke="#666666" points="581.81,-74 438.81,-74 438.81,-55 581.81,-55 581.81,-74"/>
<text text-anchor="middle" x="510.31" y="-62" font-family="Helvetica,sans-Serif" font-size="10.00">dispatcher/RouteType.hpp</text>
</a>
</g>
</g>
<!-- Node12&#45;&gt;Node17 -->
<g id="edge22_Node000012_Node000017" class="edge">
<title>Node12&#45;&gt;Node17</title>
<g id="a_edge22_Node000012_Node000017"><a xlink:title=" ">
<path fill="none" stroke="#63b8ff" d="M510.31,-109.75C510.31,-102.8 510.31,-92.85 510.31,-84.13"/>
<polygon fill="#63b8ff" stroke="#63b8ff" points="513.81,-84.09 510.31,-74.09 506.81,-84.09 513.81,-84.09"/>
</a>
</g>
</g>
<!-- Node15&#45;&gt;Node6 -->
<g id="edge19_Node000015_Node000006" class="edge">
<title>Node15&#45;&gt;Node6</title>
<g id="a_edge19_Node000015_Node000006"><a xlink:title=" ">
<path fill="none" stroke="#63b8ff" d="M671.31,-54.75C671.31,-47.8 671.31,-37.85 671.31,-29.13"/>
<polygon fill="#63b8ff" stroke="#63b8ff" points="674.81,-29.09 671.31,-19.09 667.81,-29.09 674.81,-29.09"/>
</a>
</g>
</g>
<!-- Node18&#45;&gt;Node6 -->
<g id="edge25_Node000018_Node000006" class="edge">
<title>Node18&#45;&gt;Node6</title>
<g id="a_edge25_Node000018_Node000006"><a xlink:title=" ">
<path fill="none" stroke="#63b8ff" d="M841.86,-164.95C925.59,-145.04 1117.58,-94.29 1082.31,-55 1057.12,-26.94 796.26,-14.96 703.68,-11.57"/>
<polygon fill="#63b8ff" stroke="#63b8ff" points="703.62,-8.06 693.5,-11.21 703.37,-15.06 703.62,-8.06"/>
</a>
</g>
</g>
<!-- Node18&#45;&gt;Node7 -->
<g id="edge27_Node000018_Node000007" class="edge">
<title>Node18&#45;&gt;Node7</title>
<g id="a_edge27_Node000018_Node000007"><a xlink:title=" ">
<path fill="none" stroke="#63b8ff" d="M785.96,-164.88C772.52,-157.46 755.29,-145.36 747.31,-129 739.41,-112.8 750.93,-94.42 762.29,-81.62"/>
<polygon fill="#63b8ff" stroke="#63b8ff" points="765.12,-83.73 769.53,-74.09 760.07,-78.88 765.12,-83.73"/>
</a>
</g>
</g>
<!-- Node18&#45;&gt;Node13 -->
<g id="edge26_Node000018_Node000013" class="edge">
<title>Node18&#45;&gt;Node13</title>
<g id="a_edge26_Node000018_Node000013"><a xlink:title=" ">
<path fill="none" stroke="#63b8ff" d="M831.33,-164.98C856.73,-156.69 895.62,-143.3 928.31,-129 963.27,-113.71 1002.12,-92.77 1026.38,-79.19"/>
<polygon fill="#63b8ff" stroke="#63b8ff" points="1028.24,-82.16 1035.23,-74.2 1024.8,-76.06 1028.24,-82.16"/>
</a>
</g>
</g>
<!-- Node18&#45;&gt;Node14 -->
<g id="edge33_Node000018_Node000014" class="edge">
<title>Node18&#45;&gt;Node14</title>
<g id="a_edge33_Node000018_Node000014"><a xlink:title=" ">
<path fill="none" stroke="#63b8ff" d="M842.4,-164.93C863.94,-158.33 889.96,-147.18 907.31,-129 919.13,-116.62 925.26,-97.86 928.36,-83.94"/>
<polygon fill="#63b8ff" stroke="#63b8ff" points="931.81,-84.5 930.24,-74.02 924.93,-83.19 931.81,-84.5"/>
</a>
</g>
</g>
<!-- Node18&#45;&gt;Node19 -->
<g id="edge28_Node000018_Node000019" class="edge">
<title>Node18&#45;&gt;Node19</title>
<g id="a_edge28_Node000018_Node000019"><a xlink:title=" ">
<path fill="none" stroke="#63b8ff" d="M808.11,-164.75C811.22,-157.57 815.73,-147.18 819.6,-138.27"/>
<polygon fill="#63b8ff" stroke="#63b8ff" points="822.81,-139.66 823.58,-129.09 816.39,-136.87 822.81,-139.66"/>
</a>
</g>
</g>
<!-- Node19&#45;&gt;Node6 -->
<g id="edge30_Node000019_Node000006" class="edge">
<title>Node19&#45;&gt;Node6</title>
<g id="a_edge30_Node000019_Node000006"><a xlink:title=" ">
<path fill="none" stroke="#63b8ff" d="M827,-109.84C826.06,-96.31 822.27,-70.12 807.31,-55 779.65,-27.03 734.18,-16.64 703.52,-12.78"/>
<polygon fill="#63b8ff" stroke="#63b8ff" points="703.66,-9.27 693.34,-11.67 702.9,-16.23 703.66,-9.27"/>
</a>
</g>
</g>
<!-- Node19&#45;&gt;Node7 -->
<g id="edge31_Node000019_Node000007" class="edge">
<title>Node19&#45;&gt;Node7</title>
<g id="a_edge31_Node000019_Node000007"><a xlink:title=" ">
<path fill="none" stroke="#63b8ff" d="M819.39,-109.75C812.47,-102.11 802.25,-90.82 793.86,-81.56"/>
<polygon fill="#63b8ff" stroke="#63b8ff" points="796.4,-79.15 787.09,-74.09 791.21,-83.85 796.4,-79.15"/>
</a>
</g>
</g>
<!-- Node19&#45;&gt;Node13 -->
<g id="edge29_Node000019_Node000013" class="edge">
<title>Node19&#45;&gt;Node13</title>
<g id="a_edge29_Node000019_Node000013"><a xlink:title=" ">
<path fill="none" stroke="#63b8ff" d="M864.86,-109.96C901.21,-101.64 958.11,-88.46 1016.73,-74.1"/>
<polygon fill="#63b8ff" stroke="#63b8ff" points="1017.66,-77.48 1026.53,-71.69 1015.99,-70.68 1017.66,-77.48"/>
</a>
</g>
</g>
<!-- Node19&#45;&gt;Node14 -->
<g id="edge32_Node000019_Node000014" class="edge">
<title>Node19&#45;&gt;Node14</title>
<g id="a_edge32_Node000019_Node000014"><a xlink:title=" ">
<path fill="none" stroke="#63b8ff" d="M844.02,-109.98C860.53,-101.57 886.01,-88.59 905.19,-78.81"/>
<polygon fill="#63b8ff" stroke="#63b8ff" points="906.98,-81.83 914.3,-74.17 903.8,-75.59 906.98,-81.83"/>
</a>
</g>
</g>
<!-- Node20&#45;&gt;Node2 -->
<g id="edge37_Node000020_Node000002" class="edge">
<title>Node20&#45;&gt;Node2</title>
<g id="a_edge37_Node000020_Node000002"><a xlink:title=" ">
<path fill="none" stroke="#63b8ff" d="M1012.83,-219.98C994.33,-211.46 965.63,-198.23 944.33,-188.41"/>
<polygon fill="#63b8ff" stroke="#63b8ff" points="945.67,-185.18 935.12,-184.17 942.74,-191.53 945.67,-185.18"/>
</a>
</g>
</g>
<!-- Node20&#45;&gt;Node3 -->
<g id="edge39_Node000020_Node000003" class="edge">
<title>Node20&#45;&gt;Node3</title>
<g id="a_edge39_Node000020_Node000003"><a xlink:title=" ">
<path fill="none" stroke="#63b8ff" d="M1043.36,-219.98C1054.77,-211.92 1072.14,-199.65 1085.75,-190.03"/>
<polygon fill="#63b8ff" stroke="#63b8ff" points="1087.9,-192.8 1094.04,-184.17 1083.86,-187.08 1087.9,-192.8"/>
</a>
</g>
</g>
<!-- Node20&#45;&gt;Node10 -->
<g id="edge36_Node000020_Node000010" class="edge">
<title>Node20&#45;&gt;Node10</title>
<g id="a_edge36_Node000020_Node000010"><a xlink:title=" ">
<path fill="none" stroke="#63b8ff" d="M1035.65,-219.89C1042.17,-207.29 1055.25,-183.36 1069.31,-165 1077.13,-154.79 1087.05,-144.4 1095.38,-136.22"/>
<polygon fill="#63b8ff" stroke="#63b8ff" points="1097.97,-138.59 1102.77,-129.15 1093.13,-133.54 1097.97,-138.59"/>
</a>
</g>
</g>
<!-- Node21 -->
<g id="Node000021" class="node">
<title>Node21</title>
<g id="a_Node000021"><a xlink:title=" ">
<polygon fill="#e0e0e0" stroke="#999999" points="1022.31,-184 962.31,-184 962.31,-165 1022.31,-165 1022.31,-184"/>
<text text-anchor="middle" x="992.31" y="-172" font-family="Helvetica,sans-Serif" font-size="10.00">iostream</text>
</a>
</g>
</g>
<!-- Node20&#45;&gt;Node21 -->
<g id="edge38_Node000020_Node000021" class="edge">
<title>Node20&#45;&gt;Node21</title>
<g id="a_edge38_Node000020_Node000021"><a xlink:title=" ">
<path fill="none" stroke="#63b8ff" d="M1024.87,-219.75C1019.42,-212.34 1011.45,-201.5 1004.76,-192.41"/>
<polygon fill="#63b8ff" stroke="#63b8ff" points="1007.38,-190.07 998.63,-184.09 1001.74,-194.22 1007.38,-190.07"/>
</a>
</g>
</g>
<!-- Node22&#45;&gt;Node3 -->
<g id="edge42_Node000022_Node000003" class="edge">
<title>Node22&#45;&gt;Node3</title>
<g id="a_edge42_Node000022_Node000003"><a xlink:title=" ">
<path fill="none" stroke="#63b8ff" d="M1227.18,-219.98C1203.49,-211.27 1166.44,-197.63 1139.6,-187.75"/>
<polygon fill="#63b8ff" stroke="#63b8ff" points="1140.46,-184.34 1129.87,-184.17 1138.04,-190.91 1140.46,-184.34"/>
</a>
</g>
</g>
<!-- Node22&#45;&gt;Node6 -->
<g id="edge41_Node000022_Node000006" class="edge">
<title>Node22&#45;&gt;Node6</title>
<g id="a_edge41_Node000022_Node000006"><a xlink:title=" ">
<path fill="none" stroke="#63b8ff" d="M1231.7,-219.92C1216.61,-212.23 1195.57,-199.74 1181.31,-184 1135.69,-133.66 1158.94,-87.56 1099.31,-55 1031.1,-17.75 791.03,-11.66 703.53,-10.68"/>
<polygon fill="#63b8ff" stroke="#63b8ff" points="703.43,-7.18 693.4,-10.58 703.36,-14.18 703.43,-7.18"/>
</a>
</g>
</g>
<!-- Node22&#45;&gt;Node13 -->
<g id="edge43_Node000022_Node000013" class="edge">
<title>Node22&#45;&gt;Node13</title>
<g id="a_edge43_Node000022_Node000013"><a xlink:title=" ">
<path fill="none" stroke="#63b8ff" d="M1274.56,-219.93C1301.68,-208.96 1339.78,-188.53 1323.31,-165 1268.19,-86.24 1143.87,-69.6 1083.9,-66.24"/>
<polygon fill="#63b8ff" stroke="#63b8ff" points="1083.98,-62.74 1073.83,-65.77 1083.65,-69.73 1083.98,-62.74"/>
</a>
</g>
</g>
<!-- Node23 -->
<g id="Node000023" class="node">
<title>Node23</title>
<g id="a_Node000023"><a xlink:title=" ">
<polygon fill="#e0e0e0" stroke="#999999" points="1434.31,-184 1370.31,-184 1370.31,-165 1434.31,-165 1434.31,-184"/>
<text text-anchor="middle" x="1402.31" y="-172" font-family="Helvetica,sans-Serif" font-size="10.00">algorithm</text>
</a>
</g>
</g>
<!-- Node22&#45;&gt;Node23 -->
<g id="edge44_Node000022_Node000023" class="edge">
<title>Node22&#45;&gt;Node23</title>
<g id="a_edge44_Node000022_Node000023"><a xlink:title=" ">
<path fill="none" stroke="#63b8ff" d="M1274.73,-219.98C1300.03,-211.16 1339.77,-197.31 1368.17,-187.41"/>
<polygon fill="#63b8ff" stroke="#63b8ff" points="1369.41,-190.68 1377.7,-184.08 1367.1,-184.07 1369.41,-190.68"/>
</a>
</g>
</g>
<!-- Node24 -->
<g id="Node000024" class="node">
<title>Node24</title>
<g id="a_Node000024"><a xlink:title=" ">
<polygon fill="#e0e0e0" stroke="#999999" points="1501.81,-184 1452.81,-184 1452.81,-165 1501.81,-165 1501.81,-184"/>
<text text-anchor="middle" x="1477.31" y="-172" font-family="Helvetica,sans-Serif" font-size="10.00">cctype</text>
</a>
</g>
</g>
<!-- Node22&#45;&gt;Node24 -->
<g id="edge45_Node000022_Node000024" class="edge">
<title>Node22&#45;&gt;Node24</title>
<g id="a_edge45_Node000022_Node000024"><a xlink:title=" ">
<path fill="none" stroke="#63b8ff" d="M1288.44,-219.92C1325.36,-211.58 1383.15,-198.38 1442.83,-184.08"/>
<polygon fill="#63b8ff" stroke="#63b8ff" points="1443.9,-187.42 1452.81,-181.68 1442.27,-180.61 1443.9,-187.42"/>
</a>
</g>
</g>
<!-- Node25 -->
<g id="Node000025" class="node">
<title>Node25</title>
<g id="a_Node000025"><a xlink:title=" ">
<polygon fill="#e0e0e0" stroke="#999999" points="1239.81,-184 1190.81,-184 1190.81,-165 1239.81,-165 1239.81,-184"/>
<text text-anchor="middle" x="1215.31" y="-172" font-family="Helvetica,sans-Serif" font-size="10.00">cstdlib</text>
</a>
</g>
</g>
<!-- Node22&#45;&gt;Node25 -->
<g id="edge46_Node000022_Node000025" class="edge">
<title>Node22&#45;&gt;Node25</title>
<g id="a_edge46_Node000022_Node000025"><a xlink:title=" ">
<path fill="none" stroke="#63b8ff" d="M1244.53,-219.75C1239.69,-212.42 1232.63,-201.73 1226.67,-192.7"/>
<polygon fill="#63b8ff" stroke="#63b8ff" points="1229.41,-190.5 1220.98,-184.09 1223.57,-194.36 1229.41,-190.5"/>
</a>
</g>
</g>
<!-- Node26 -->
<g id="Node000026" class="node">
<title>Node26</title>
<g id="a_Node000026"><a xlink:title=" ">
<polygon fill="#e0e0e0" stroke="#999999" points="1314.31,-184 1258.31,-184 1258.31,-165 1314.31,-165 1314.31,-184"/>
<text text-anchor="middle" x="1286.31" y="-172" font-family="Helvetica,sans-Serif" font-size="10.00">iomanip</text>
</a>
</g>
</g>
<!-- Node22&#45;&gt;Node26 -->
<g id="edge47_Node000022_Node000026" class="edge">
<title>Node22&#45;&gt;Node26</title>
<g id="a_edge47_Node000022_Node000026"><a xlink:title=" ">
<path fill="none" stroke="#63b8ff" d="M1256.26,-219.75C1261.29,-212.34 1268.65,-201.5 1274.82,-192.41"/>
<polygon fill="#63b8ff" stroke="#63b8ff" points="1277.75,-194.33 1280.48,-184.09 1271.96,-190.39 1277.75,-194.33"/>
</a>
</g>
</g>
<!-- Node27&#45;&gt;Node7 -->
<g id="edge51_Node000027_Node000007" class="edge">
<title>Node27&#45;&gt;Node7</title>
<g id="a_edge51_Node000027_Node000007"><a xlink:title=" ">
<path fill="none" stroke="#63b8ff" d="M1519.61,-165.77C1440.69,-153.34 1279.9,-128.45 1143.31,-110 1011.1,-92.14 977.69,-90.52 845.31,-74 833.2,-72.49 819.84,-70.78 808.33,-69.29"/>
<polygon fill="#63b8ff" stroke="#63b8ff" points="808.74,-65.81 798.37,-67.99 807.83,-72.75 808.74,-65.81"/>
</a>
</g>
</g>
<!-- Node27&#45;&gt;Node10 -->
<g id="edge50_Node000027_Node000010" class="edge">
<title>Node27&#45;&gt;Node10</title>
<g id="a_edge50_Node000027_Node000010"><a xlink:title=" ">
<path fill="none" stroke="#63b8ff" d="M1519.51,-166.1C1516.74,-165.72 1513.99,-165.35 1511.31,-165 1375.18,-147.26 1212.33,-130.48 1144.46,-123.68"/>
<polygon fill="#63b8ff" stroke="#63b8ff" points="1144.7,-120.19 1134.41,-122.67 1144.01,-127.15 1144.7,-120.19"/>
</a>
</g>
</g>
<!-- Node28 -->
<g id="Node000028" class="node">
<title>Node28</title>
<g id="a_Node000028"><a xlink:title=" ">
<polygon fill="#e0e0e0" stroke="#999999" points="1557.81,-129 1506.81,-129 1506.81,-110 1557.81,-110 1557.81,-129"/>
<text text-anchor="middle" x="1532.31" y="-117" font-family="Helvetica,sans-Serif" font-size="10.00">csignal</text>
</a>
</g>
</g>
<!-- Node27&#45;&gt;Node28 -->
<g id="edge49_Node000027_Node000028" class="edge">
<title>Node27&#45;&gt;Node28</title>
<g id="a_edge49_Node000027_Node000028"><a xlink:title=" ">
<path fill="none" stroke="#63b8ff" d="M1562.37,-164.75C1557.33,-157.34 1549.97,-146.5 1543.8,-137.41"/>
<polygon fill="#63b8ff" stroke="#63b8ff" points="1546.66,-135.39 1538.15,-129.09 1540.87,-139.33 1546.66,-135.39"/>
</a>
</g>
</g>
<!-- Node29 -->
<g id="Node000029" class="node">
<title>Node29</title>
<g id="a_Node000029"><a xlink:title=" ">
<polygon fill="#e0e0e0" stroke="#999999" points="1632.31,-129 1576.31,-129 1576.31,-110 1632.31,-110 1632.31,-129"/>
<text text-anchor="middle" x="1604.31" y="-117" font-family="Helvetica,sans-Serif" font-size="10.00">unistd.h</text>
</a>
</g>
</g>
<!-- Node27&#45;&gt;Node29 -->
<g id="edge52_Node000027_Node000029" class="edge">
<title>Node27&#45;&gt;Node29</title>
<g id="a_edge52_Node000027_Node000029"><a xlink:title=" ">
<path fill="none" stroke="#63b8ff" d="M1574.26,-164.75C1579.29,-157.34 1586.65,-146.5 1592.82,-137.41"/>
<polygon fill="#63b8ff" stroke="#63b8ff" points="1595.75,-139.33 1598.48,-129.09 1589.96,-135.39 1595.75,-139.33"/>
</a>
</g>
</g>
</g>
</svg>

<g id="navigator" transform="translate(0 0)" fill="#404254">
  <rect fill="#f2f5e9" fill-opacity="0.5" stroke="#606060" stroke-width=".5" x="0" y="0" width="60" height="60"/>
  <use id="zoomplus" xlink:href="#zoomPlus" x="17" y="9" onmousedown="handleZoom(evt,'in')"/>
  <use id="zoomminus" xlink:href="#zoomMin" x="42" y="9" onmousedown="handleZoom(evt,'out')"/>
  <use id="reset" xlink:href="#resetDef" x="30" y="36" onmousedown="handleReset()"/>
   <use id="arrowup" xlink:href="#arrowUp" x="0" y="0" onmousedown="handlePan(0,-1)"/>
  <use id="arrowright" xlink:href="#arrowRight" x="0" y="0" onmousedown="handlePan(1,0)"/>
  <use id="arrowdown" xlink:href="#arrowDown" x="0" y="0" onmousedown="handlePan(0,1)"/>
  <use id="arrowleft" xlink:href="#arrowLeft" x="0" y="0" onmousedown="handlePan(-1,0)"/>
</g>
<svg viewBox="0 0 15 15" width="100%" height="30px" preserveAspectRatio="xMaxYMin meet">
 <g id="arrow_out" transform="scale(0.3 0.3)">
  <a xlink:href="ResponseBuilder_8cpp__incl_org.svg" target="_base">
   <rect id="button" ry="5" rx="5" y="6" x="6" height="38" width="38"
        fill="#f2f5e9" fill-opacity="0.5" stroke="#606060" stroke-width="1.0"/>
   <path id="arrow"
     d="M 11.500037,31.436501 C 11.940474,20.09759 22.043105,11.32322 32.158766,21.979434 L 37.068811,17.246167 C 37.068811,17.246167 37.088388,32 37.088388,32 L 22.160133,31.978069 C 22.160133,31.978069 26.997745,27.140456 26.997745,27.140456 C 18.528582,18.264221 13.291696,25.230495 11.500037,31.436501 z"
     style="fill:#404040;"/>
  </a>
 </g>
</svg>

<style type='text/css'>
<![CDATA[
[data-mouse-over-selected='false'] { opacity: 0.7; }
[data-mouse-over-selected='true']  { opacity: 1.0; }
]]>
</style>
<script type="application/ecmascript"><![CDATA[
document.addEventListener('DOMContentLoaded', (event) => {
  highlightEdges();
  highlightAdjacentNodes();
});
]]></script>
</svg>
