<?xml version="1.0" encoding="UTF-8" standalone="no"?>
<!DOCTYPE svg PUBLIC "-//W3C//DTD SVG 1.1//EN"
 "http://www.w3.org/Graphics/SVG/1.1/DTD/svg11.dtd">
<!-- Generated by graphviz version 2.43.0 (0)
 -->
<!-- Title: response/ResponseBuilder.hpp Pages: 1 -->
<svg width="1100pt" height="247pt"
 viewBox="0.00 0.00 1100.03 247.00" xmlns="http://www.w3.org/2000/svg" xmlns:xlink="http://www.w3.org/1999/xlink">
<g id="graph0" class="graph" transform="scale(1 1) rotate(0) translate(4 243)">
<title>response/ResponseBuilder.hpp</title>
<!-- Node1 -->
<g id="Node000001" class="node">
<title>Node1</title>
<g id="a_Node000001"><a xlink:title=" ">
<polygon fill="#999999" stroke="#666666" points="557.85,-239 391.85,-239 391.85,-220 557.85,-220 557.85,-239"/>
<text text-anchor="middle" x="474.85" y="-227" font-family="Helvetica,sans-Serif" font-size="10.00">response/ResponseBuilder.hpp</text>
</a>
</g>
</g>
<!-- Node2 -->
<g id="Node000002" class="node">
<title>Node2</title>
<g id="a_Node000002"><a xlink:href="HttpResponse_8hpp.html" target="_top" xlink:title=" ">
<polygon fill="white" stroke="#666666" points="230.35,-129 77.35,-129 77.35,-110 230.35,-110 230.35,-129"/>
<text text-anchor="middle" x="153.85" y="-117" font-family="Helvetica,sans-Serif" font-size="10.00">response/HttpResponse.hpp</text>
</a>
</g>
</g>
<!-- Node1&#45;&gt;Node2 -->
<g id="edge1_Node000001_Node000002" class="edge">
<title>Node1&#45;&gt;Node2</title>
<g id="a_edge1_Node000001_Node000002"><a xlink:title=" ">
<path fill="none" stroke="#63b8ff" d="M449.39,-219.94C392.38,-200.76 254.37,-154.32 189.13,-132.37"/>
<polygon fill="#63b8ff" stroke="#63b8ff" points="189.9,-128.94 179.31,-129.07 187.67,-135.57 189.9,-128.94"/>
</a>
</g>
</g>
<!-- Node5 -->
<g id="Node000005" class="node">
<title>Node5</title>
<g id="a_Node000005"><a xlink:href="ResponseStatus_8hpp.html" target="_top" xlink:title=" ">
<polygon fill="white" stroke="#666666" points="180.35,-74 17.35,-74 17.35,-55 180.35,-55 180.35,-74"/>
<text text-anchor="middle" x="98.85" y="-62" font-family="Helvetica,sans-Serif" font-size="10.00">response/ResponseStatus.hpp</text>
</a>
</g>
</g>
<!-- Node1&#45;&gt;Node5 -->
<g id="edge5_Node000001_Node000005" class="edge">
<title>Node1&#45;&gt;Node5</title>
<g id="a_edge5_Node000001_Node000005"><a xlink:title=" ">
<path fill="none" stroke="#63b8ff" d="M391.57,-220.13C284.4,-207.43 107.29,-179.3 67.85,-129 56.46,-114.47 69.17,-95.09 81.58,-81.57"/>
<polygon fill="#63b8ff" stroke="#63b8ff" points="84.15,-83.95 88.67,-74.37 79.16,-79.04 84.15,-83.95"/>
</a>
</g>
</g>
<!-- Node6 -->
<g id="Node000006" class="node">
<title>Node6</title>
<g id="a_Node000006"><a xlink:href="ClientConnection_8hpp.html" target="_top" xlink:title=" ">
<polygon fill="white" stroke="#666666" points="544.85,-184 404.85,-184 404.85,-165 544.85,-165 544.85,-184"/>
<text text-anchor="middle" x="474.85" y="-172" font-family="Helvetica,sans-Serif" font-size="10.00">init/ClientConnection.hpp</text>
</a>
</g>
</g>
<!-- Node1&#45;&gt;Node6 -->
<g id="edge6_Node000001_Node000006" class="edge">
<title>Node1&#45;&gt;Node6</title>
<g id="a_edge6_Node000001_Node000006"><a xlink:title=" ">
<path fill="none" stroke="#63b8ff" d="M474.85,-219.75C474.85,-212.8 474.85,-202.85 474.85,-194.13"/>
<polygon fill="#63b8ff" stroke="#63b8ff" points="478.35,-194.09 474.85,-184.09 471.35,-194.09 478.35,-194.09"/>
</a>
</g>
</g>
<!-- Node15 -->
<g id="Node000015" class="node">
<title>Node15</title>
<g id="a_Node000015"><a xlink:href="ServerConfig_8hpp.html" target="_top" xlink:title=" ">
<polygon fill="white" stroke="#666666" points="964.85,-184 832.85,-184 832.85,-165 964.85,-165 964.85,-184"/>
<text text-anchor="middle" x="898.85" y="-172" font-family="Helvetica,sans-Serif" font-size="10.00">config/ServerConfig.hpp</text>
</a>
</g>
</g>
<!-- Node1&#45;&gt;Node15 -->
<g id="edge21_Node000001_Node000015" class="edge">
<title>Node1&#45;&gt;Node15</title>
<g id="a_edge21_Node000001_Node000015"><a xlink:title=" ">
<path fill="none" stroke="#63b8ff" d="M542.97,-219.98C619.41,-210.43 743.1,-194.97 822.68,-185.02"/>
<polygon fill="#63b8ff" stroke="#63b8ff" points="823.15,-188.49 832.64,-183.78 822.28,-181.54 823.15,-188.49"/>
</a>
</g>
</g>
<!-- Node16 -->
<g id="Node000016" class="node">
<title>Node16</title>
<g id="a_Node000016"><a xlink:href="LocationConfig_8hpp.html" target="_top" xlink:title=" ">
<polygon fill="white" stroke="#666666" points="920.85,-129 778.85,-129 778.85,-110 920.85,-110 920.85,-129"/>
<text text-anchor="middle" x="849.85" y="-117" font-family="Helvetica,sans-Serif" font-size="10.00">config/LocationConfig.hpp</text>
</a>
</g>
</g>
<!-- Node1&#45;&gt;Node16 -->
<g id="edge31_Node000001_Node000016" class="edge">
<title>Node1&#45;&gt;Node16</title>
<g id="a_edge31_Node000001_Node000016"><a xlink:title=" ">
<path fill="none" stroke="#63b8ff" d="M504.59,-219.94C571.73,-200.6 735.08,-153.55 810.5,-131.83"/>
<polygon fill="#63b8ff" stroke="#63b8ff" points="811.47,-135.2 820.11,-129.07 809.53,-128.47 811.47,-135.2"/>
</a>
</g>
</g>
<!-- Node3 -->
<g id="Node000003" class="node">
<title>Node3</title>
<g id="a_Node000003"><a xlink:title=" ">
<polygon fill="#e0e0e0" stroke="#999999" points="540.85,-19 496.85,-19 496.85,0 540.85,0 540.85,-19"/>
<text text-anchor="middle" x="518.85" y="-7" font-family="Helvetica,sans-Serif" font-size="10.00">string</text>
</a>
</g>
</g>
<!-- Node2&#45;&gt;Node3 -->
<g id="edge2_Node000002_Node000003" class="edge">
<title>Node2&#45;&gt;Node3</title>
<g id="a_edge2_Node000002_Node000003"><a xlink:title=" ">
<path fill="none" stroke="#63b8ff" d="M81.55,-109.97C32.25,-101.33 -19.52,-84.85 7.85,-55 40.21,-19.7 378.99,-12.3 486.38,-10.84"/>
<polygon fill="#63b8ff" stroke="#63b8ff" points="486.65,-14.34 496.61,-10.71 486.56,-7.34 486.65,-14.34"/>
</a>
</g>
</g>
<!-- Node4 -->
<g id="Node000004" class="node">
<title>Node4</title>
<g id="a_Node000004"><a xlink:title=" ">
<polygon fill="#e0e0e0" stroke="#999999" points="795.85,-74 757.85,-74 757.85,-55 795.85,-55 795.85,-74"/>
<text text-anchor="middle" x="776.85" y="-62" font-family="Helvetica,sans-Serif" font-size="10.00">map</text>
</a>
</g>
</g>
<!-- Node2&#45;&gt;Node4 -->
<g id="edge3_Node000002_Node000004" class="edge">
<title>Node2&#45;&gt;Node4</title>
<g id="a_edge3_Node000002_Node000004"><a xlink:title=" ">
<path fill="none" stroke="#63b8ff" d="M230.54,-113.55C338.04,-106.35 539.58,-91.86 710.85,-74 722.99,-72.73 736.35,-71.07 747.86,-69.54"/>
<polygon fill="#63b8ff" stroke="#63b8ff" points="748.37,-73 757.81,-68.2 747.44,-66.07 748.37,-73"/>
</a>
</g>
</g>
<!-- Node2&#45;&gt;Node5 -->
<g id="edge4_Node000002_Node000005" class="edge">
<title>Node2&#45;&gt;Node5</title>
<g id="a_edge4_Node000002_Node000005"><a xlink:title=" ">
<path fill="none" stroke="#63b8ff" d="M144.77,-109.75C136.76,-102.03 124.89,-90.6 115.23,-81.28"/>
<polygon fill="#63b8ff" stroke="#63b8ff" points="117.39,-78.51 107.76,-74.09 112.53,-83.55 117.39,-78.51"/>
</a>
</g>
</g>
<!-- Node6&#45;&gt;Node2 -->
<g id="edge20_Node000006_Node000002" class="edge">
<title>Node6&#45;&gt;Node2</title>
<g id="a_edge20_Node000006_Node000002"><a xlink:title=" ">
<path fill="none" stroke="#63b8ff" d="M423.27,-164.98C366.73,-155.65 276.04,-140.67 215.71,-130.71"/>
<polygon fill="#63b8ff" stroke="#63b8ff" points="216,-127.21 205.56,-129.04 214.86,-134.12 216,-127.21"/>
</a>
</g>
</g>
<!-- Node6&#45;&gt;Node3 -->
<g id="edge7_Node000006_Node000003" class="edge">
<title>Node6&#45;&gt;Node3</title>
<g id="a_edge7_Node000006_Node000003"><a xlink:title=" ">
<path fill="none" stroke="#63b8ff" d="M443.16,-165C369.71,-144.55 196.44,-91.58 227.85,-55 260.88,-16.54 417.47,-10.96 486.28,-10.4"/>
<polygon fill="#63b8ff" stroke="#63b8ff" points="486.56,-13.9 496.54,-10.35 486.52,-6.9 486.56,-13.9"/>
</a>
</g>
</g>
<!-- Node7 -->
<g id="Node000007" class="node">
<title>Node7</title>
<g id="a_Node000007"><a xlink:title=" ">
<polygon fill="#e0e0e0" stroke="#999999" points="605.85,-129 561.85,-129 561.85,-110 605.85,-110 605.85,-129"/>
<text text-anchor="middle" x="583.85" y="-117" font-family="Helvetica,sans-Serif" font-size="10.00">ctime</text>
</a>
</g>
</g>
<!-- Node6&#45;&gt;Node7 -->
<g id="edge8_Node000006_Node000007" class="edge">
<title>Node6&#45;&gt;Node7</title>
<g id="a_edge8_Node000006_Node000007"><a xlink:title=" ">
<path fill="none" stroke="#63b8ff" d="M492.36,-164.98C509.82,-156.5 536.86,-143.35 557.02,-133.54"/>
<polygon fill="#63b8ff" stroke="#63b8ff" points="558.55,-136.69 566.02,-129.17 555.49,-130.4 558.55,-136.69"/>
</a>
</g>
</g>
<!-- Node8 -->
<g id="Node000008" class="node">
<title>Node8</title>
<g id="a_Node000008"><a xlink:title=" ">
<polygon fill="#e0e0e0" stroke="#999999" points="695.85,-129 623.85,-129 623.85,-110 695.85,-110 695.85,-129"/>
<text text-anchor="middle" x="659.85" y="-117" font-family="Helvetica,sans-Serif" font-size="10.00">sys/types.h</text>
</a>
</g>
</g>
<!-- Node6&#45;&gt;Node8 -->
<g id="edge9_Node000006_Node000008" class="edge">
<title>Node6&#45;&gt;Node8</title>
<g id="a_edge9_Node000006_Node000008"><a xlink:title=" ">
<path fill="none" stroke="#63b8ff" d="M504.57,-164.98C535.9,-156.01 585.42,-141.82 620.09,-131.89"/>
<polygon fill="#63b8ff" stroke="#63b8ff" points="621.24,-135.2 629.89,-129.08 619.31,-128.47 621.24,-135.2"/>
</a>
</g>
</g>
<!-- Node9 -->
<g id="Node000009" class="node">
<title>Node9</title>
<g id="a_Node000009"><a xlink:href="HttpRequest_8hpp.html" target="_top" xlink:title=" ">
<polygon fill="white" stroke="#666666" points="543.85,-129 405.85,-129 405.85,-110 543.85,-110 543.85,-129"/>
<text text-anchor="middle" x="474.85" y="-117" font-family="Helvetica,sans-Serif" font-size="10.00">request/HttpRequest.hpp</text>
</a>
</g>
</g>
<!-- Node6&#45;&gt;Node9 -->
<g id="edge10_Node000006_Node000009" class="edge">
<title>Node6&#45;&gt;Node9</title>
<g id="a_edge10_Node000006_Node000009"><a xlink:title=" ">
<path fill="none" stroke="#63b8ff" d="M474.85,-164.75C474.85,-157.8 474.85,-147.85 474.85,-139.13"/>
<polygon fill="#63b8ff" stroke="#63b8ff" points="478.35,-139.09 474.85,-129.09 471.35,-139.09 478.35,-139.09"/>
</a>
</g>
</g>
<!-- Node9&#45;&gt;Node3 -->
<g id="edge11_Node000009_Node000003" class="edge">
<title>Node9&#45;&gt;Node3</title>
<g id="a_edge11_Node000009_Node000003"><a xlink:title=" ">
<path fill="none" stroke="#63b8ff" d="M544.11,-109.96C609.84,-101.15 700.15,-86.9 710.85,-74 755.11,-20.62 616.79,-11.81 551.27,-10.57"/>
<polygon fill="#63b8ff" stroke="#63b8ff" points="551.1,-7.07 541.05,-10.43 551,-14.07 551.1,-7.07"/>
</a>
</g>
</g>
<!-- Node9&#45;&gt;Node4 -->
<g id="edge12_Node000009_Node000004" class="edge">
<title>Node9&#45;&gt;Node4</title>
<g id="a_edge12_Node000009_Node000004"><a xlink:title=" ">
<path fill="none" stroke="#63b8ff" d="M535.76,-109.99C590.47,-101.97 672.87,-88.98 743.85,-74 745.12,-73.73 746.41,-73.45 747.72,-73.15"/>
<polygon fill="#63b8ff" stroke="#63b8ff" points="748.82,-76.48 757.72,-70.73 747.18,-69.68 748.82,-76.48"/>
</a>
</g>
</g>
<!-- Node9&#45;&gt;Node5 -->
<g id="edge18_Node000009_Node000005" class="edge">
<title>Node9&#45;&gt;Node5</title>
<g id="a_edge18_Node000009_Node000005"><a xlink:title=" ">
<path fill="none" stroke="#63b8ff" d="M414.44,-109.98C347.66,-100.57 240.22,-85.43 169.57,-75.47"/>
<polygon fill="#63b8ff" stroke="#63b8ff" points="169.81,-71.97 159.42,-74.04 168.83,-78.9 169.81,-71.97"/>
</a>
</g>
</g>
<!-- Node10 -->
<g id="Node000010" class="node">
<title>Node10</title>
<g id="a_Node000010"><a xlink:title=" ">
<polygon fill="#e0e0e0" stroke="#999999" points="1071.35,-74 1024.35,-74 1024.35,-55 1071.35,-55 1071.35,-74"/>
<text text-anchor="middle" x="1047.85" y="-62" font-family="Helvetica,sans-Serif" font-size="10.00">vector</text>
</a>
</g>
</g>
<!-- Node9&#45;&gt;Node10 -->
<g id="edge13_Node000009_Node000010" class="edge">
<title>Node9&#45;&gt;Node10</title>
<g id="a_edge13_Node000009_Node000010"><a xlink:title=" ">
<path fill="none" stroke="#63b8ff" d="M544.16,-110.83C547.09,-110.55 550,-110.27 552.85,-110 754.61,-91.15 809.91,-107.28 1014.01,-73.81"/>
<polygon fill="#63b8ff" stroke="#63b8ff" points="1014.87,-77.22 1024.16,-72.13 1013.72,-70.31 1014.87,-77.22"/>
</a>
</g>
</g>
<!-- Node11 -->
<g id="Node000011" class="node">
<title>Node11</title>
<g id="a_Node000011"><a xlink:href="RequestMethod_8hpp.html" target="_top" xlink:title=" ">
<polygon fill="white" stroke="#666666" points="1005.85,-74 851.85,-74 851.85,-55 1005.85,-55 1005.85,-74"/>
<text text-anchor="middle" x="928.85" y="-62" font-family="Helvetica,sans-Serif" font-size="10.00">request/RequestMethod.hpp</text>
</a>
</g>
</g>
<!-- Node9&#45;&gt;Node11 -->
<g id="edge14_Node000009_Node000011" class="edge">
<title>Node9&#45;&gt;Node11</title>
<g id="a_edge14_Node000009_Node000011"><a xlink:title=" ">
<path fill="none" stroke="#63b8ff" d="M544.3,-110.39C625.41,-100.92 759.5,-85.27 845.98,-75.17"/>
<polygon fill="#63b8ff" stroke="#63b8ff" points="846.5,-78.64 856.03,-74 845.69,-71.68 846.5,-78.64"/>
</a>
</g>
</g>
<!-- Node12 -->
<g id="Node000012" class="node">
<title>Node12</title>
<g id="a_Node000012"><a xlink:href="RequestMeta_8hpp.html" target="_top" xlink:title=" ">
<polygon fill="white" stroke="#666666" points="378.85,-74 236.85,-74 236.85,-55 378.85,-55 378.85,-74"/>
<text text-anchor="middle" x="307.85" y="-62" font-family="Helvetica,sans-Serif" font-size="10.00">request/RequestMeta.hpp</text>
</a>
</g>
</g>
<!-- Node9&#45;&gt;Node12 -->
<g id="edge15_Node000009_Node000012" class="edge">
<title>Node9&#45;&gt;Node12</title>
<g id="a_edge15_Node000009_Node000012"><a xlink:title=" ">
<path fill="none" stroke="#63b8ff" d="M448.02,-109.98C419.98,-101.09 375.8,-87.07 344.55,-77.15"/>
<polygon fill="#63b8ff" stroke="#63b8ff" points="345.48,-73.77 334.89,-74.08 343.36,-80.44 345.48,-73.77"/>
</a>
</g>
</g>
<!-- Node13 -->
<g id="Node000013" class="node">
<title>Node13</title>
<g id="a_Node000013"><a xlink:href="RequestState_8hpp.html" target="_top" xlink:title=" ">
<polygon fill="white" stroke="#666666" points="540.35,-74 397.35,-74 397.35,-55 540.35,-55 540.35,-74"/>
<text text-anchor="middle" x="468.85" y="-62" font-family="Helvetica,sans-Serif" font-size="10.00">request/RequestState.hpp</text>
</a>
</g>
</g>
<!-- Node9&#45;&gt;Node13 -->
<g id="edge17_Node000009_Node000013" class="edge">
<title>Node9&#45;&gt;Node13</title>
<g id="a_edge17_Node000009_Node000013"><a xlink:title=" ">
<path fill="none" stroke="#63b8ff" d="M473.86,-109.75C473.07,-102.8 471.94,-92.85 470.96,-84.13"/>
<polygon fill="#63b8ff" stroke="#63b8ff" points="474.42,-83.63 469.82,-74.09 467.47,-84.42 474.42,-83.63"/>
</a>
</g>
</g>
<!-- Node14 -->
<g id="Node000014" class="node">
<title>Node14</title>
<g id="a_Node000014"><a xlink:href="RouteType_8hpp.html" target="_top" xlink:title=" ">
<polygon fill="white" stroke="#666666" points="701.35,-74 558.35,-74 558.35,-55 701.35,-55 701.35,-74"/>
<text text-anchor="middle" x="629.85" y="-62" font-family="Helvetica,sans-Serif" font-size="10.00">dispatcher/RouteType.hpp</text>
</a>
</g>
</g>
<!-- Node9&#45;&gt;Node14 -->
<g id="edge19_Node000009_Node000014" class="edge">
<title>Node9&#45;&gt;Node14</title>
<g id="a_edge19_Node000009_Node000014"><a xlink:title=" ">
<path fill="none" stroke="#63b8ff" d="M499.75,-109.98C525.55,-101.16 566.07,-87.31 595.03,-77.41"/>
<polygon fill="#63b8ff" stroke="#63b8ff" points="596.42,-80.63 604.75,-74.08 594.15,-74.01 596.42,-80.63"/>
</a>
</g>
</g>
<!-- Node12&#45;&gt;Node3 -->
<g id="edge16_Node000012_Node000003" class="edge">
<title>Node12&#45;&gt;Node3</title>
<g id="a_edge16_Node000012_Node000003"><a xlink:title=" ">
<path fill="none" stroke="#63b8ff" d="M341.75,-54.98C381.74,-44.94 447.73,-28.36 486.87,-18.53"/>
<polygon fill="#63b8ff" stroke="#63b8ff" points="487.84,-21.9 496.68,-16.07 486.13,-15.11 487.84,-21.9"/>
</a>
</g>
</g>
<!-- Node15&#45;&gt;Node3 -->
<g id="edge22_Node000015_Node000003" class="edge">
<title>Node15&#45;&gt;Node3</title>
<g id="a_edge22_Node000015_Node000003"><a xlink:title=" ">
<path fill="none" stroke="#63b8ff" d="M936.5,-164.95C1003.04,-148.24 1129.98,-108.17 1080.85,-55 1044.77,-15.96 665.21,-11.13 551.11,-10.57"/>
<polygon fill="#63b8ff" stroke="#63b8ff" points="550.93,-7.07 540.92,-10.52 550.9,-14.07 550.93,-7.07"/>
</a>
</g>
</g>
<!-- Node15&#45;&gt;Node4 -->
<g id="edge24_Node000015_Node000004" class="edge">
<title>Node15&#45;&gt;Node4</title>
<g id="a_edge24_Node000015_Node000004"><a xlink:title=" ">
<path fill="none" stroke="#63b8ff" d="M832.56,-166.55C808.82,-160.49 784.36,-149.35 769.85,-129 760.51,-115.9 764,-97.26 768.78,-83.57"/>
<polygon fill="#63b8ff" stroke="#63b8ff" points="772.05,-84.82 772.49,-74.23 765.55,-82.23 772.05,-84.82"/>
</a>
</g>
</g>
<!-- Node15&#45;&gt;Node10 -->
<g id="edge23_Node000015_Node000010" class="edge">
<title>Node15&#45;&gt;Node10</title>
<g id="a_edge23_Node000015_Node000010"><a xlink:title=" ">
<path fill="none" stroke="#63b8ff" d="M910.79,-164.84C936.18,-146.44 995.79,-103.23 1027.38,-80.34"/>
<polygon fill="#63b8ff" stroke="#63b8ff" points="1029.81,-82.9 1035.85,-74.2 1025.7,-77.23 1029.81,-82.9"/>
</a>
</g>
</g>
<!-- Node15&#45;&gt;Node11 -->
<g id="edge30_Node000015_Node000011" class="edge">
<title>Node15&#45;&gt;Node11</title>
<g id="a_edge30_Node000015_Node000011"><a xlink:title=" ">
<path fill="none" stroke="#63b8ff" d="M907.33,-164.85C914.9,-156.47 925.45,-143.01 929.85,-129 934.4,-114.52 933.76,-97.25 932.21,-84.38"/>
<polygon fill="#63b8ff" stroke="#63b8ff" points="935.65,-83.75 930.71,-74.38 928.73,-84.79 935.65,-83.75"/>
</a>
</g>
</g>
<!-- Node15&#45;&gt;Node16 -->
<g id="edge25_Node000015_Node000016" class="edge">
<title>Node15&#45;&gt;Node16</title>
<g id="a_edge25_Node000015_Node000016"><a xlink:title=" ">
<path fill="none" stroke="#63b8ff" d="M890.76,-164.75C883.69,-157.11 873.26,-145.82 864.7,-136.56"/>
<polygon fill="#63b8ff" stroke="#63b8ff" points="867.15,-134.06 857.79,-129.09 862.01,-138.81 867.15,-134.06"/>
</a>
</g>
</g>
<!-- Node16&#45;&gt;Node3 -->
<g id="edge27_Node000016_Node000003" class="edge">
<title>Node16&#45;&gt;Node3</title>
<g id="a_edge27_Node000016_Node000003"><a xlink:title=" ">
<path fill="none" stroke="#63b8ff" d="M846.39,-109.82C840.29,-95.76 826.22,-68.23 804.85,-55 762.86,-29.01 616.74,-16.69 551.15,-12.38"/>
<polygon fill="#63b8ff" stroke="#63b8ff" points="551.18,-8.87 540.98,-11.73 550.74,-15.86 551.18,-8.87"/>
</a>
</g>
</g>
<!-- Node16&#45;&gt;Node4 -->
<g id="edge28_Node000016_Node000004" class="edge">
<title>Node16&#45;&gt;Node4</title>
<g id="a_edge28_Node000016_Node000004"><a xlink:title=" ">
<path fill="none" stroke="#63b8ff" d="M838.12,-109.98C827.12,-102 810.43,-89.88 797.24,-80.31"/>
<polygon fill="#63b8ff" stroke="#63b8ff" points="798.94,-77.21 788.79,-74.17 794.83,-82.88 798.94,-77.21"/>
</a>
</g>
</g>
<!-- Node16&#45;&gt;Node10 -->
<g id="edge26_Node000016_Node000010" class="edge">
<title>Node16&#45;&gt;Node10</title>
<g id="a_edge26_Node000016_Node000010"><a xlink:title=" ">
<path fill="none" stroke="#63b8ff" d="M881.66,-109.98C918.03,-100.25 977.31,-84.38 1014.37,-74.46"/>
<polygon fill="#63b8ff" stroke="#63b8ff" points="1015.44,-77.8 1024.19,-71.83 1013.63,-71.04 1015.44,-77.8"/>
</a>
</g>
</g>
<!-- Node16&#45;&gt;Node11 -->
<g id="edge29_Node000016_Node000011" class="edge">
<title>Node16&#45;&gt;Node11</title>
<g id="a_edge29_Node000016_Node000011"><a xlink:title=" ">
<path fill="none" stroke="#63b8ff" d="M862.54,-109.98C874.68,-101.84 893.21,-89.41 907.59,-79.76"/>
<polygon fill="#63b8ff" stroke="#63b8ff" points="909.57,-82.65 915.92,-74.17 905.67,-76.84 909.57,-82.65"/>
</a>
</g>
</g>
</g>
</svg>
