<?xml version="1.0" encoding="UTF-8" standalone="no"?>
<!DOCTYPE svg PUBLIC "-//W3C//DTD SVG 1.1//EN"
 "http://www.w3.org/Graphics/SVG/1.1/DTD/svg11.dtd">
<!-- Generated by graphviz version 2.43.0 (0)
 -->
<!-- Title: dispatcher/Router.cpp Pages: 1 -->
<svg width="1328pt" height="302pt"
 viewBox="0.00 0.00 1328.26 302.00" xmlns="http://www.w3.org/2000/svg" xmlns:xlink="http://www.w3.org/1999/xlink">
<g id="graph0" class="graph" transform="scale(1 1) rotate(0) translate(4 298)">
<title>dispatcher/Router.cpp</title>
<!-- Node1 -->
<g id="Node000001" class="node">
<title>Node1</title>
<g id="a_Node000001"><a xlink:title=" ">
<polygon fill="#999999" stroke="#666666" points="972.5,-294 850.5,-294 850.5,-275 972.5,-275 972.5,-294"/>
<text text-anchor="middle" x="911.5" y="-282" font-family="Helvetica,sans-Serif" font-size="10.00">dispatcher/Router.cpp</text>
</a>
</g>
</g>
<!-- Node2 -->
<g id="Node000002" class="node">
<title>Node2</title>
<g id="a_Node000002"><a xlink:title=" ">
<polygon fill="#e0e0e0" stroke="#999999" points="193.5,-239 143.5,-239 143.5,-220 193.5,-220 193.5,-239"/>
<text text-anchor="middle" x="168.5" y="-227" font-family="Helvetica,sans-Serif" font-size="10.00">cstring</text>
</a>
</g>
</g>
<!-- Node1&#45;&gt;Node2 -->
<g id="edge1_Node000001_Node000002" class="edge">
<title>Node1&#45;&gt;Node2</title>
<g id="a_edge1_Node000001_Node000002"><a xlink:title=" ">
<path fill="none" stroke="#63b8ff" d="M850.45,-282.75C727.95,-280.55 443.71,-272.01 207.5,-239 206.23,-238.82 204.93,-238.63 203.63,-238.41"/>
<polygon fill="#63b8ff" stroke="#63b8ff" points="204.04,-234.93 193.57,-236.55 202.77,-241.81 204.04,-234.93"/>
</a>
</g>
</g>
<!-- Node3 -->
<g id="Node000003" class="node">
<title>Node3</title>
<g id="a_Node000003"><a xlink:title=" ">
<polygon fill="#e0e0e0" stroke="#999999" points="1059.5,-184 995.5,-184 995.5,-165 1059.5,-165 1059.5,-184"/>
<text text-anchor="middle" x="1027.5" y="-172" font-family="Helvetica,sans-Serif" font-size="10.00">algorithm</text>
</a>
</g>
</g>
<!-- Node1&#45;&gt;Node3 -->
<g id="edge2_Node000001_Node000003" class="edge">
<title>Node1&#45;&gt;Node3</title>
<g id="a_edge2_Node000001_Node000003"><a xlink:title=" ">
<path fill="none" stroke="#63b8ff" d="M920.99,-274.66C940.63,-256.38 985.95,-214.18 1010.67,-191.17"/>
<polygon fill="#63b8ff" stroke="#63b8ff" points="1013.27,-193.53 1018.2,-184.16 1008.5,-188.41 1013.27,-193.53"/>
</a>
</g>
</g>
<!-- Node4 -->
<g id="Node000004" class="node">
<title>Node4</title>
<g id="a_Node000004"><a xlink:title=" ">
<polygon fill="#e0e0e0" stroke="#999999" points="1225.5,-239 1161.5,-239 1161.5,-220 1225.5,-220 1225.5,-239"/>
<text text-anchor="middle" x="1193.5" y="-227" font-family="Helvetica,sans-Serif" font-size="10.00">sys/stat.h</text>
</a>
</g>
</g>
<!-- Node1&#45;&gt;Node4 -->
<g id="edge3_Node000001_Node000004" class="edge">
<title>Node1&#45;&gt;Node4</title>
<g id="a_edge3_Node000001_Node000004"><a xlink:title=" ">
<path fill="none" stroke="#63b8ff" d="M959.57,-274.94C1006.07,-266.59 1078.8,-253.35 1151.09,-239.24"/>
<polygon fill="#63b8ff" stroke="#63b8ff" points="1152.14,-242.6 1161.28,-237.25 1150.8,-235.73 1152.14,-242.6"/>
</a>
</g>
</g>
<!-- Node5 -->
<g id="Node000005" class="node">
<title>Node5</title>
<g id="a_Node000005"><a xlink:title=" ">
<polygon fill="#e0e0e0" stroke="#999999" points="1299.5,-239 1243.5,-239 1243.5,-220 1299.5,-220 1299.5,-239"/>
<text text-anchor="middle" x="1271.5" y="-227" font-family="Helvetica,sans-Serif" font-size="10.00">unistd.h</text>
</a>
</g>
</g>
<!-- Node1&#45;&gt;Node5 -->
<g id="edge4_Node000001_Node000005" class="edge">
<title>Node1&#45;&gt;Node5</title>
<g id="a_edge4_Node000001_Node000005"><a xlink:title=" ">
<path fill="none" stroke="#63b8ff" d="M972.78,-276.7C1035.78,-269.34 1136.89,-256.5 1233.35,-239.07"/>
<polygon fill="#63b8ff" stroke="#63b8ff" points="1234.06,-242.5 1243.27,-237.26 1232.81,-235.61 1234.06,-242.5"/>
</a>
</g>
</g>
<!-- Node6 -->
<g id="Node000006" class="node">
<title>Node6</title>
<g id="a_Node000006"><a xlink:href="Router_8hpp.html" target="_top" xlink:title=" ">
<polygon fill="white" stroke="#666666" points="653,-239 530,-239 530,-220 653,-220 653,-239"/>
<text text-anchor="middle" x="591.5" y="-227" font-family="Helvetica,sans-Serif" font-size="10.00">dispatcher/Router.hpp</text>
</a>
</g>
</g>
<!-- Node1&#45;&gt;Node6 -->
<g id="edge5_Node000001_Node000006" class="edge">
<title>Node1&#45;&gt;Node6</title>
<g id="a_edge5_Node000001_Node000006"><a xlink:title=" ">
<path fill="none" stroke="#63b8ff" d="M860.09,-274.98C803.72,-265.65 713.31,-250.67 653.17,-240.71"/>
<polygon fill="#63b8ff" stroke="#63b8ff" points="653.49,-237.22 643.05,-239.04 652.34,-244.13 653.49,-237.22"/>
</a>
</g>
</g>
<!-- Node17 -->
<g id="Node000017" class="node">
<title>Node17</title>
<g id="a_Node000017"><a xlink:href="ResponseStatus_8hpp.html" target="_top" xlink:title=" ">
<polygon fill="white" stroke="#666666" points="163,-74 0,-74 0,-55 163,-55 163,-74"/>
<text text-anchor="middle" x="81.5" y="-62" font-family="Helvetica,sans-Serif" font-size="10.00">response/ResponseStatus.hpp</text>
</a>
</g>
</g>
<!-- Node1&#45;&gt;Node17 -->
<g id="edge29_Node000001_Node000017" class="edge">
<title>Node1&#45;&gt;Node17</title>
<g id="a_edge29_Node000001_Node000017"><a xlink:title=" ">
<path fill="none" stroke="#63b8ff" d="M850.39,-281.29C772.72,-277.41 635,-266.91 520.5,-239 453.94,-222.78 440.29,-208.99 376.5,-184 279.7,-146.08 165.64,-99.81 112.13,-78"/>
<polygon fill="#63b8ff" stroke="#63b8ff" points="113.14,-74.64 102.56,-74.1 110.49,-81.12 113.14,-74.64"/>
</a>
</g>
</g>
<!-- Node21 -->
<g id="Node000021" class="node">
<title>Node21</title>
<g id="a_Node000021"><a xlink:href="ServerConfig_8hpp.html" target="_top" xlink:title=" ">
<polygon fill="white" stroke="#666666" points="977.5,-184 845.5,-184 845.5,-165 977.5,-165 977.5,-184"/>
<text text-anchor="middle" x="911.5" y="-172" font-family="Helvetica,sans-Serif" font-size="10.00">config/ServerConfig.hpp</text>
</a>
</g>
</g>
<!-- Node1&#45;&gt;Node21 -->
<g id="edge30_Node000001_Node000021" class="edge">
<title>Node1&#45;&gt;Node21</title>
<g id="a_edge30_Node000001_Node000021"><a xlink:title=" ">
<path fill="none" stroke="#63b8ff" d="M911.5,-274.66C911.5,-257.17 911.5,-217.8 911.5,-194.27"/>
<polygon fill="#63b8ff" stroke="#63b8ff" points="915,-194.16 911.5,-184.16 908,-194.16 915,-194.16"/>
</a>
</g>
</g>
<!-- Node22 -->
<g id="Node000022" class="node">
<title>Node22</title>
<g id="a_Node000022"><a xlink:href="Logger_8hpp.html" target="_top" xlink:title=" ">
<polygon fill="white" stroke="#666666" points="772.5,-239 678.5,-239 678.5,-220 772.5,-220 772.5,-239"/>
<text text-anchor="middle" x="725.5" y="-227" font-family="Helvetica,sans-Serif" font-size="10.00">utils/Logger.hpp</text>
</a>
</g>
</g>
<!-- Node1&#45;&gt;Node22 -->
<g id="edge36_Node000001_Node000022" class="edge">
<title>Node1&#45;&gt;Node22</title>
<g id="a_edge36_Node000001_Node000022"><a xlink:title=" ">
<path fill="none" stroke="#63b8ff" d="M881.62,-274.98C850.12,-266.01 800.33,-251.82 765.47,-241.89"/>
<polygon fill="#63b8ff" stroke="#63b8ff" points="766.19,-238.46 755.62,-239.08 764.28,-245.19 766.19,-238.46"/>
</a>
</g>
</g>
<!-- Node26 -->
<g id="Node000026" class="node">
<title>Node26</title>
<g id="a_Node000026"><a xlink:href="string__utils_8hpp.html" target="_top" xlink:title="Collection of inline string utility functions used across Webservinho.">
<polygon fill="white" stroke="#666666" points="1143.5,-239 1027.5,-239 1027.5,-220 1143.5,-220 1143.5,-239"/>
<text text-anchor="middle" x="1085.5" y="-227" font-family="Helvetica,sans-Serif" font-size="10.00">utils/string_utils.hpp</text>
</a>
</g>
</g>
<!-- Node1&#45;&gt;Node26 -->
<g id="edge41_Node000001_Node000026" class="edge">
<title>Node1&#45;&gt;Node26</title>
<g id="a_edge41_Node000001_Node000026"><a xlink:title=" ">
<path fill="none" stroke="#63b8ff" d="M939.46,-274.98C968.8,-266.05 1015.1,-251.94 1047.69,-242.02"/>
<polygon fill="#63b8ff" stroke="#63b8ff" points="1048.78,-245.34 1057.32,-239.08 1046.74,-238.65 1048.78,-245.34"/>
</a>
</g>
</g>
<!-- Node7 -->
<g id="Node000007" class="node">
<title>Node7</title>
<g id="a_Node000007"><a xlink:href="ClientConnection_8hpp.html" target="_top" xlink:title=" ">
<polygon fill="white" stroke="#666666" points="525.5,-184 385.5,-184 385.5,-165 525.5,-165 525.5,-184"/>
<text text-anchor="middle" x="455.5" y="-172" font-family="Helvetica,sans-Serif" font-size="10.00">init/ClientConnection.hpp</text>
</a>
</g>
</g>
<!-- Node6&#45;&gt;Node7 -->
<g id="edge6_Node000006_Node000007" class="edge">
<title>Node6&#45;&gt;Node7</title>
<g id="a_edge6_Node000006_Node000007"><a xlink:title=" ">
<path fill="none" stroke="#63b8ff" d="M569.65,-219.98C547.38,-211.3 512.6,-197.75 487.28,-187.88"/>
<polygon fill="#63b8ff" stroke="#63b8ff" points="488.34,-184.54 477.75,-184.17 485.79,-191.06 488.34,-184.54"/>
</a>
</g>
</g>
<!-- Node20 -->
<g id="Node000020" class="node">
<title>Node20</title>
<g id="a_Node000020"><a xlink:href="LocationConfig_8hpp.html" target="_top" xlink:title=" ">
<polygon fill="white" stroke="#666666" points="947.5,-129 805.5,-129 805.5,-110 947.5,-110 947.5,-129"/>
<text text-anchor="middle" x="876.5" y="-117" font-family="Helvetica,sans-Serif" font-size="10.00">config/LocationConfig.hpp</text>
</a>
</g>
</g>
<!-- Node6&#45;&gt;Node20 -->
<g id="edge24_Node000006_Node000020" class="edge">
<title>Node6&#45;&gt;Node20</title>
<g id="a_edge24_Node000006_Node000020"><a xlink:title=" ">
<path fill="none" stroke="#63b8ff" d="M591.4,-219.58C591.75,-205.68 594.62,-179.01 610.5,-165 624.35,-152.78 722.23,-138.71 795.26,-129.72"/>
<polygon fill="#63b8ff" stroke="#63b8ff" points="795.88,-133.17 805.39,-128.49 795.04,-126.22 795.88,-133.17"/>
</a>
</g>
</g>
<!-- Node8 -->
<g id="Node000008" class="node">
<title>Node8</title>
<g id="a_Node000008"><a xlink:title=" ">
<polygon fill="#e0e0e0" stroke="#999999" points="828.5,-19 784.5,-19 784.5,0 828.5,0 828.5,-19"/>
<text text-anchor="middle" x="806.5" y="-7" font-family="Helvetica,sans-Serif" font-size="10.00">string</text>
</a>
</g>
</g>
<!-- Node7&#45;&gt;Node8 -->
<g id="edge7_Node000007_Node000008" class="edge">
<title>Node7&#45;&gt;Node8</title>
<g id="a_edge7_Node000007_Node000008"><a xlink:title=" ">
<path fill="none" stroke="#63b8ff" d="M512.11,-164.97C553.42,-157.81 610.36,-146.01 658.5,-129 676.3,-122.71 679.26,-117.7 696.5,-110 736.21,-92.26 758.1,-106.05 787.5,-74 798.68,-61.81 803.3,-43.29 805.19,-29.39"/>
<polygon fill="#63b8ff" stroke="#63b8ff" points="808.72,-29.34 806.23,-19.04 801.75,-28.64 808.72,-29.34"/>
</a>
</g>
</g>
<!-- Node9 -->
<g id="Node000009" class="node">
<title>Node9</title>
<g id="a_Node000009"><a xlink:title=" ">
<polygon fill="#e0e0e0" stroke="#999999" points="749.5,-129 705.5,-129 705.5,-110 749.5,-110 749.5,-129"/>
<text text-anchor="middle" x="727.5" y="-117" font-family="Helvetica,sans-Serif" font-size="10.00">ctime</text>
</a>
</g>
</g>
<!-- Node7&#45;&gt;Node9 -->
<g id="edge8_Node000007_Node000009" class="edge">
<title>Node7&#45;&gt;Node9</title>
<g id="a_edge8_Node000007_Node000009"><a xlink:title=" ">
<path fill="none" stroke="#63b8ff" d="M504.44,-164.94C552.26,-156.42 627.06,-142.68 691.5,-129 692.77,-128.73 694.07,-128.45 695.38,-128.16"/>
<polygon fill="#63b8ff" stroke="#63b8ff" points="696.47,-131.5 705.45,-125.87 694.92,-124.68 696.47,-131.5"/>
</a>
</g>
</g>
<!-- Node10 -->
<g id="Node000010" class="node">
<title>Node10</title>
<g id="a_Node000010"><a xlink:title=" ">
<polygon fill="#e0e0e0" stroke="#999999" points="649.5,-129 577.5,-129 577.5,-110 649.5,-110 649.5,-129"/>
<text text-anchor="middle" x="613.5" y="-117" font-family="Helvetica,sans-Serif" font-size="10.00">sys/types.h</text>
</a>
</g>
</g>
<!-- Node7&#45;&gt;Node10 -->
<g id="edge9_Node000007_Node000010" class="edge">
<title>Node7&#45;&gt;Node10</title>
<g id="a_edge9_Node000007_Node000010"><a xlink:title=" ">
<path fill="none" stroke="#63b8ff" d="M480.89,-164.98C507.3,-156.13 548.85,-142.19 578.39,-132.28"/>
<polygon fill="#63b8ff" stroke="#63b8ff" points="579.55,-135.58 587.92,-129.08 577.32,-128.94 579.55,-135.58"/>
</a>
</g>
</g>
<!-- Node11 -->
<g id="Node000011" class="node">
<title>Node11</title>
<g id="a_Node000011"><a xlink:href="HttpRequest_8hpp.html" target="_top" xlink:title=" ">
<polygon fill="white" stroke="#666666" points="559.5,-129 421.5,-129 421.5,-110 559.5,-110 559.5,-129"/>
<text text-anchor="middle" x="490.5" y="-117" font-family="Helvetica,sans-Serif" font-size="10.00">request/HttpRequest.hpp</text>
</a>
</g>
</g>
<!-- Node7&#45;&gt;Node11 -->
<g id="edge10_Node000007_Node000011" class="edge">
<title>Node7&#45;&gt;Node11</title>
<g id="a_edge10_Node000007_Node000011"><a xlink:title=" ">
<path fill="none" stroke="#63b8ff" d="M461.28,-164.75C466.12,-157.42 473.18,-146.73 479.14,-137.7"/>
<polygon fill="#63b8ff" stroke="#63b8ff" points="482.24,-139.36 484.83,-129.09 476.4,-135.5 482.24,-139.36"/>
</a>
</g>
</g>
<!-- Node19 -->
<g id="Node000019" class="node">
<title>Node19</title>
<g id="a_Node000019"><a xlink:href="HttpResponse_8hpp.html" target="_top" xlink:title=" ">
<polygon fill="white" stroke="#666666" points="403,-129 250,-129 250,-110 403,-110 403,-129"/>
<text text-anchor="middle" x="326.5" y="-117" font-family="Helvetica,sans-Serif" font-size="10.00">response/HttpResponse.hpp</text>
</a>
</g>
</g>
<!-- Node7&#45;&gt;Node19 -->
<g id="edge20_Node000007_Node000019" class="edge">
<title>Node7&#45;&gt;Node19</title>
<g id="a_edge20_Node000007_Node000019"><a xlink:title=" ">
<path fill="none" stroke="#63b8ff" d="M434.77,-164.98C413.74,-156.34 380.95,-142.87 356.96,-133.02"/>
<polygon fill="#63b8ff" stroke="#63b8ff" points="358.18,-129.73 347.6,-129.17 355.52,-136.21 358.18,-129.73"/>
</a>
</g>
</g>
<!-- Node11&#45;&gt;Node8 -->
<g id="edge11_Node000011_Node000008" class="edge">
<title>Node11&#45;&gt;Node8</title>
<g id="a_edge11_Node000011_Node000008"><a xlink:title=" ">
<path fill="none" stroke="#63b8ff" d="M498.57,-109.93C512.19,-96.03 541.23,-68.73 571.5,-55 639.38,-24.2 727.62,-14.71 774.28,-11.79"/>
<polygon fill="#63b8ff" stroke="#63b8ff" points="774.61,-15.28 784.4,-11.22 774.22,-8.29 774.61,-15.28"/>
</a>
</g>
</g>
<!-- Node12 -->
<g id="Node000012" class="node">
<title>Node12</title>
<g id="a_Node000012"><a xlink:title=" ">
<polygon fill="#e0e0e0" stroke="#999999" points="778.5,-74 740.5,-74 740.5,-55 778.5,-55 778.5,-74"/>
<text text-anchor="middle" x="759.5" y="-62" font-family="Helvetica,sans-Serif" font-size="10.00">map</text>
</a>
</g>
</g>
<!-- Node11&#45;&gt;Node12 -->
<g id="edge12_Node000011_Node000012" class="edge">
<title>Node11&#45;&gt;Node12</title>
<g id="a_edge12_Node000011_Node000012"><a xlink:title=" ">
<path fill="none" stroke="#63b8ff" d="M546.88,-109.93C593.66,-102.4 662.09,-90.43 730.25,-74.08"/>
<polygon fill="#63b8ff" stroke="#63b8ff" points="731.41,-77.4 740.3,-71.64 729.75,-70.6 731.41,-77.4"/>
</a>
</g>
</g>
<!-- Node13 -->
<g id="Node000013" class="node">
<title>Node13</title>
<g id="a_Node000013"><a xlink:title=" ">
<polygon fill="#e0e0e0" stroke="#999999" points="1092,-74 1045,-74 1045,-55 1092,-55 1092,-74"/>
<text text-anchor="middle" x="1068.5" y="-62" font-family="Helvetica,sans-Serif" font-size="10.00">vector</text>
</a>
</g>
</g>
<!-- Node11&#45;&gt;Node13 -->
<g id="edge13_Node000011_Node000013" class="edge">
<title>Node11&#45;&gt;Node13</title>
<g id="a_edge13_Node000011_Node000013"><a xlink:title=" ">
<path fill="none" stroke="#63b8ff" d="M559.81,-110.83C562.75,-110.54 565.65,-110.26 568.5,-110 772.54,-91.02 828.4,-107.56 1034.87,-73.78"/>
<polygon fill="#63b8ff" stroke="#63b8ff" points="1035.52,-77.22 1044.81,-72.13 1034.38,-70.31 1035.52,-77.22"/>
</a>
</g>
</g>
<!-- Node14 -->
<g id="Node000014" class="node">
<title>Node14</title>
<g id="a_Node000014"><a xlink:href="RequestMethod_8hpp.html" target="_top" xlink:title=" ">
<polygon fill="white" stroke="#666666" points="1026.5,-74 872.5,-74 872.5,-55 1026.5,-55 1026.5,-74"/>
<text text-anchor="middle" x="949.5" y="-62" font-family="Helvetica,sans-Serif" font-size="10.00">request/RequestMethod.hpp</text>
</a>
</g>
</g>
<!-- Node11&#45;&gt;Node14 -->
<g id="edge14_Node000011_Node000014" class="edge">
<title>Node11&#45;&gt;Node14</title>
<g id="a_edge14_Node000011_Node000014"><a xlink:title=" ">
<path fill="none" stroke="#63b8ff" d="M559.71,-110.51C641.5,-101.06 777.53,-85.36 865.34,-75.22"/>
<polygon fill="#63b8ff" stroke="#63b8ff" points="866,-78.66 875.53,-74.04 865.2,-71.71 866,-78.66"/>
</a>
</g>
</g>
<!-- Node15 -->
<g id="Node000015" class="node">
<title>Node15</title>
<g id="a_Node000015"><a xlink:href="RequestMeta_8hpp.html" target="_top" xlink:title=" ">
<polygon fill="white" stroke="#666666" points="722.5,-74 580.5,-74 580.5,-55 722.5,-55 722.5,-74"/>
<text text-anchor="middle" x="651.5" y="-62" font-family="Helvetica,sans-Serif" font-size="10.00">request/RequestMeta.hpp</text>
</a>
</g>
</g>
<!-- Node11&#45;&gt;Node15 -->
<g id="edge15_Node000011_Node000015" class="edge">
<title>Node11&#45;&gt;Node15</title>
<g id="a_edge15_Node000011_Node000015"><a xlink:title=" ">
<path fill="none" stroke="#63b8ff" d="M516.37,-109.98C543.28,-101.13 585.62,-87.19 615.73,-77.28"/>
<polygon fill="#63b8ff" stroke="#63b8ff" points="617.03,-80.53 625.43,-74.08 614.84,-73.88 617.03,-80.53"/>
</a>
</g>
</g>
<!-- Node16 -->
<g id="Node000016" class="node">
<title>Node16</title>
<g id="a_Node000016"><a xlink:href="RequestState_8hpp.html" target="_top" xlink:title=" ">
<polygon fill="white" stroke="#666666" points="363,-74 220,-74 220,-55 363,-55 363,-74"/>
<text text-anchor="middle" x="291.5" y="-62" font-family="Helvetica,sans-Serif" font-size="10.00">request/RequestState.hpp</text>
</a>
</g>
</g>
<!-- Node11&#45;&gt;Node16 -->
<g id="edge17_Node000011_Node000016" class="edge">
<title>Node11&#45;&gt;Node16</title>
<g id="a_edge17_Node000011_Node000016"><a xlink:title=" ">
<path fill="none" stroke="#63b8ff" d="M458.53,-109.98C424.68,-100.97 371.1,-86.7 333.79,-76.76"/>
<polygon fill="#63b8ff" stroke="#63b8ff" points="334.29,-73.27 323.72,-74.08 332.49,-80.04 334.29,-73.27"/>
</a>
</g>
</g>
<!-- Node11&#45;&gt;Node17 -->
<g id="edge18_Node000011_Node000017" class="edge">
<title>Node11&#45;&gt;Node17</title>
<g id="a_edge18_Node000011_Node000017"><a xlink:title=" ">
<path fill="none" stroke="#63b8ff" d="M424.79,-109.98C351.85,-100.53 234.32,-85.3 157.48,-75.35"/>
<polygon fill="#63b8ff" stroke="#63b8ff" points="157.76,-71.85 147.39,-74.04 156.86,-78.79 157.76,-71.85"/>
</a>
</g>
</g>
<!-- Node18 -->
<g id="Node000018" class="node">
<title>Node18</title>
<g id="a_Node000018"><a xlink:href="RouteType_8hpp.html" target="_top" xlink:title=" ">
<polygon fill="white" stroke="#666666" points="524,-74 381,-74 381,-55 524,-55 524,-74"/>
<text text-anchor="middle" x="452.5" y="-62" font-family="Helvetica,sans-Serif" font-size="10.00">dispatcher/RouteType.hpp</text>
</a>
</g>
</g>
<!-- Node11&#45;&gt;Node18 -->
<g id="edge19_Node000011_Node000018" class="edge">
<title>Node11&#45;&gt;Node18</title>
<g id="a_edge19_Node000011_Node000018"><a xlink:title=" ">
<path fill="none" stroke="#63b8ff" d="M484.23,-109.75C478.91,-102.34 471.14,-91.5 464.62,-82.41"/>
<polygon fill="#63b8ff" stroke="#63b8ff" points="467.33,-80.18 458.66,-74.09 461.64,-84.26 467.33,-80.18"/>
</a>
</g>
</g>
<!-- Node15&#45;&gt;Node8 -->
<g id="edge16_Node000015_Node000008" class="edge">
<title>Node15&#45;&gt;Node8</title>
<g id="a_edge16_Node000015_Node000008"><a xlink:title=" ">
<path fill="none" stroke="#63b8ff" d="M676.4,-54.98C703.04,-45.88 745.38,-31.4 774.48,-21.45"/>
<polygon fill="#63b8ff" stroke="#63b8ff" points="775.84,-24.68 784.17,-18.13 773.58,-18.06 775.84,-24.68"/>
</a>
</g>
</g>
<!-- Node19&#45;&gt;Node8 -->
<g id="edge21_Node000019_Node000008" class="edge">
<title>Node19&#45;&gt;Node8</title>
<g id="a_edge21_Node000019_Node000008"><a xlink:title=" ">
<path fill="none" stroke="#63b8ff" d="M280.04,-109.95C237.72,-100.22 185.35,-82.09 210.5,-55 249.05,-13.47 655.72,-10.41 774.25,-10.41"/>
<polygon fill="#63b8ff" stroke="#63b8ff" points="774.49,-13.91 784.49,-10.42 774.49,-6.91 774.49,-13.91"/>
</a>
</g>
</g>
<!-- Node19&#45;&gt;Node12 -->
<g id="edge22_Node000019_Node000012" class="edge">
<title>Node19&#45;&gt;Node12</title>
<g id="a_edge22_Node000019_Node000012"><a xlink:title=" ">
<path fill="none" stroke="#63b8ff" d="M403.24,-110.84C504.51,-100.63 675.55,-82.96 730.45,-73.68"/>
<polygon fill="#63b8ff" stroke="#63b8ff" points="731.15,-77.11 740.34,-71.83 729.87,-70.22 731.15,-77.11"/>
</a>
</g>
</g>
<!-- Node19&#45;&gt;Node17 -->
<g id="edge23_Node000019_Node000017" class="edge">
<title>Node19&#45;&gt;Node17</title>
<g id="a_edge23_Node000019_Node000017"><a xlink:title=" ">
<path fill="none" stroke="#63b8ff" d="M287.14,-109.98C244.76,-100.82 177.24,-86.21 131.22,-76.26"/>
<polygon fill="#63b8ff" stroke="#63b8ff" points="131.69,-72.78 121.17,-74.08 130.21,-79.62 131.69,-72.78"/>
</a>
</g>
</g>
<!-- Node20&#45;&gt;Node8 -->
<g id="edge26_Node000020_Node000008" class="edge">
<title>Node20&#45;&gt;Node8</title>
<g id="a_edge26_Node000020_Node000008"><a xlink:title=" ">
<path fill="none" stroke="#63b8ff" d="M870.77,-109.66C859.18,-91.77 832.75,-51 817.64,-27.69"/>
<polygon fill="#63b8ff" stroke="#63b8ff" points="820.49,-25.65 812.11,-19.16 814.61,-29.45 820.49,-25.65"/>
</a>
</g>
</g>
<!-- Node20&#45;&gt;Node12 -->
<g id="edge27_Node000020_Node000012" class="edge">
<title>Node20&#45;&gt;Node12</title>
<g id="a_edge27_Node000020_Node000012"><a xlink:title=" ">
<path fill="none" stroke="#63b8ff" d="M857.7,-109.98C838.88,-101.46 809.68,-88.23 788,-78.41"/>
<polygon fill="#63b8ff" stroke="#63b8ff" points="789.19,-75.11 778.64,-74.17 786.3,-81.48 789.19,-75.11"/>
</a>
</g>
</g>
<!-- Node20&#45;&gt;Node13 -->
<g id="edge25_Node000020_Node000013" class="edge">
<title>Node20&#45;&gt;Node13</title>
<g id="a_edge25_Node000020_Node000013"><a xlink:title=" ">
<path fill="none" stroke="#63b8ff" d="M907.35,-109.98C942.27,-100.34 998.98,-84.69 1034.98,-74.75"/>
<polygon fill="#63b8ff" stroke="#63b8ff" points="1036.28,-78.02 1044.99,-71.99 1034.42,-71.28 1036.28,-78.02"/>
</a>
</g>
</g>
<!-- Node20&#45;&gt;Node14 -->
<g id="edge28_Node000020_Node000014" class="edge">
<title>Node20&#45;&gt;Node14</title>
<g id="a_edge28_Node000020_Node000014"><a xlink:title=" ">
<path fill="none" stroke="#63b8ff" d="M888.23,-109.98C899.23,-102 915.92,-89.88 929.1,-80.31"/>
<polygon fill="#63b8ff" stroke="#63b8ff" points="931.52,-82.88 937.56,-74.17 927.41,-77.21 931.52,-82.88"/>
</a>
</g>
</g>
<!-- Node21&#45;&gt;Node8 -->
<g id="edge31_Node000021_Node000008" class="edge">
<title>Node21&#45;&gt;Node8</title>
<g id="a_edge31_Node000021_Node000008"><a xlink:title=" ">
<path fill="none" stroke="#63b8ff" d="M953.03,-164.97C1022.35,-148.94 1149.55,-110.84 1101.5,-55 1067.91,-15.96 908.5,-10.72 839.01,-10.33"/>
<polygon fill="#63b8ff" stroke="#63b8ff" points="838.67,-6.83 828.66,-10.3 838.65,-13.83 838.67,-6.83"/>
</a>
</g>
</g>
<!-- Node21&#45;&gt;Node12 -->
<g id="edge33_Node000021_Node000012" class="edge">
<title>Node21&#45;&gt;Node12</title>
<g id="a_edge33_Node000021_Node000012"><a xlink:title=" ">
<path fill="none" stroke="#63b8ff" d="M871.01,-164.97C847.22,-158.34 817.76,-147.13 796.5,-129 782.27,-116.86 772.2,-97.79 766.2,-83.72"/>
<polygon fill="#63b8ff" stroke="#63b8ff" points="769.33,-82.14 762.4,-74.13 762.83,-84.71 769.33,-82.14"/>
</a>
</g>
</g>
<!-- Node21&#45;&gt;Node13 -->
<g id="edge32_Node000021_Node000013" class="edge">
<title>Node21&#45;&gt;Node13</title>
<g id="a_edge32_Node000021_Node000013"><a xlink:title=" ">
<path fill="none" stroke="#63b8ff" d="M924.08,-164.84C950.95,-146.36 1014.19,-102.86 1047.36,-80.05"/>
<polygon fill="#63b8ff" stroke="#63b8ff" points="1049.6,-82.75 1055.86,-74.2 1045.63,-76.98 1049.6,-82.75"/>
</a>
</g>
</g>
<!-- Node21&#45;&gt;Node14 -->
<g id="edge35_Node000021_Node000014" class="edge">
<title>Node21&#45;&gt;Node14</title>
<g id="a_edge35_Node000021_Node000014"><a xlink:title=" ">
<path fill="none" stroke="#63b8ff" d="M924.99,-164.75C935.79,-156.87 950.15,-144.21 956.5,-129 962.51,-114.61 959.8,-96.87 956.15,-83.8"/>
<polygon fill="#63b8ff" stroke="#63b8ff" points="959.42,-82.54 953.02,-74.1 952.75,-84.69 959.42,-82.54"/>
</a>
</g>
</g>
<!-- Node21&#45;&gt;Node20 -->
<g id="edge34_Node000021_Node000020" class="edge">
<title>Node21&#45;&gt;Node20</title>
<g id="a_edge34_Node000021_Node000020"><a xlink:title=" ">
<path fill="none" stroke="#63b8ff" d="M905.72,-164.75C900.88,-157.42 893.82,-146.73 887.86,-137.7"/>
<polygon fill="#63b8ff" stroke="#63b8ff" points="890.6,-135.5 882.17,-129.09 884.76,-139.36 890.6,-135.5"/>
</a>
</g>
</g>
<!-- Node22&#45;&gt;Node9 -->
<g id="edge37_Node000022_Node000009" class="edge">
<title>Node22&#45;&gt;Node9</title>
<g id="a_edge37_Node000022_Node000009"><a xlink:title=" ">
<path fill="none" stroke="#63b8ff" d="M678.47,-220.67C638.34,-211.79 590.11,-194.57 610.5,-165 620.45,-150.57 664.29,-136.66 695.38,-128.34"/>
<polygon fill="#63b8ff" stroke="#63b8ff" points="696.57,-131.65 705.37,-125.74 694.81,-124.88 696.57,-131.65"/>
</a>
</g>
</g>
<!-- Node23 -->
<g id="Node000023" class="node">
<title>Node23</title>
<g id="a_Node000023"><a xlink:title=" ">
<polygon fill="#e0e0e0" stroke="#999999" points="753,-184 698,-184 698,-165 753,-165 753,-184"/>
<text text-anchor="middle" x="725.5" y="-172" font-family="Helvetica,sans-Serif" font-size="10.00">fstream</text>
</a>
</g>
</g>
<!-- Node22&#45;&gt;Node23 -->
<g id="edge38_Node000022_Node000023" class="edge">
<title>Node22&#45;&gt;Node23</title>
<g id="a_edge38_Node000022_Node000023"><a xlink:title=" ">
<path fill="none" stroke="#63b8ff" d="M725.5,-219.75C725.5,-212.8 725.5,-202.85 725.5,-194.13"/>
<polygon fill="#63b8ff" stroke="#63b8ff" points="729,-194.09 725.5,-184.09 722,-194.09 729,-194.09"/>
</a>
</g>
</g>
<!-- Node24 -->
<g id="Node000024" class="node">
<title>Node24</title>
<g id="a_Node000024"><a xlink:title=" ">
<polygon fill="#e0e0e0" stroke="#999999" points="679.5,-184 619.5,-184 619.5,-165 679.5,-165 679.5,-184"/>
<text text-anchor="middle" x="649.5" y="-172" font-family="Helvetica,sans-Serif" font-size="10.00">iostream</text>
</a>
</g>
</g>
<!-- Node22&#45;&gt;Node24 -->
<g id="edge39_Node000022_Node000024" class="edge">
<title>Node22&#45;&gt;Node24</title>
<g id="a_edge39_Node000022_Node000024"><a xlink:title=" ">
<path fill="none" stroke="#63b8ff" d="M713.29,-219.98C701.72,-211.92 684.12,-199.65 670.34,-190.03"/>
<polygon fill="#63b8ff" stroke="#63b8ff" points="672.14,-187.02 661.93,-184.17 668.13,-192.76 672.14,-187.02"/>
</a>
</g>
</g>
<!-- Node25 -->
<g id="Node000025" class="node">
<title>Node25</title>
<g id="a_Node000025"><a xlink:title=" ">
<polygon fill="#e0e0e0" stroke="#999999" points="827.5,-184 771.5,-184 771.5,-165 827.5,-165 827.5,-184"/>
<text text-anchor="middle" x="799.5" y="-172" font-family="Helvetica,sans-Serif" font-size="10.00">sstream</text>
</a>
</g>
</g>
<!-- Node22&#45;&gt;Node25 -->
<g id="edge40_Node000022_Node000025" class="edge">
<title>Node22&#45;&gt;Node25</title>
<g id="a_edge40_Node000022_Node000025"><a xlink:title=" ">
<path fill="none" stroke="#63b8ff" d="M737.39,-219.98C748.65,-211.92 765.79,-199.65 779.21,-190.03"/>
<polygon fill="#63b8ff" stroke="#63b8ff" points="781.3,-192.84 787.39,-184.17 777.23,-187.15 781.3,-192.84"/>
</a>
</g>
</g>
<!-- Node26&#45;&gt;Node3 -->
<g id="edge45_Node000026_Node000003" class="edge">
<title>Node26&#45;&gt;Node3</title>
<g id="a_edge45_Node000026_Node000003"><a xlink:title=" ">
<path fill="none" stroke="#63b8ff" d="M1076.18,-219.98C1067.69,-212.23 1054.94,-200.58 1044.62,-191.14"/>
<polygon fill="#63b8ff" stroke="#63b8ff" points="1046.73,-188.33 1036.99,-184.17 1042.01,-193.5 1046.73,-188.33"/>
</a>
</g>
</g>
<!-- Node26&#45;&gt;Node8 -->
<g id="edge42_Node000026_Node000008" class="edge">
<title>Node26&#45;&gt;Node8</title>
<g id="a_edge42_Node000026_Node000008"><a xlink:title=" ">
<path fill="none" stroke="#63b8ff" d="M1143.6,-221.18C1208.36,-212.44 1305.51,-197.31 1316.5,-184 1321.88,-177.49 1320.77,-172.29 1316.5,-165 1266.03,-78.8 1215.13,-87 1120.5,-55 1021.56,-21.54 896.84,-13.23 838.87,-11.18"/>
<polygon fill="#63b8ff" stroke="#63b8ff" points="838.95,-7.68 828.84,-10.86 838.73,-14.67 838.95,-7.68"/>
</a>
</g>
</g>
<!-- Node26&#45;&gt;Node13 -->
<g id="edge44_Node000026_Node000013" class="edge">
<title>Node26&#45;&gt;Node13</title>
<g id="a_edge44_Node000026_Node000013"><a xlink:title=" ">
<path fill="none" stroke="#63b8ff" d="M1143.58,-220.95C1183.65,-212.86 1226.96,-196.63 1210.5,-165 1187.74,-121.25 1135.95,-92.75 1101.62,-77.89"/>
<polygon fill="#63b8ff" stroke="#63b8ff" points="1102.58,-74.5 1092,-73.89 1099.89,-80.97 1102.58,-74.5"/>
</a>
</g>
</g>
<!-- Node26&#45;&gt;Node25 -->
<g id="edge43_Node000026_Node000025" class="edge">
<title>Node26&#45;&gt;Node25</title>
<g id="a_edge43_Node000026_Node000025"><a xlink:title=" ">
<path fill="none" stroke="#63b8ff" d="M1033.38,-219.95C985.07,-211.85 910.97,-199 837.62,-184.15"/>
<polygon fill="#63b8ff" stroke="#63b8ff" points="838.25,-180.71 827.75,-182.14 836.85,-187.57 838.25,-180.71"/>
</a>
</g>
</g>
<!-- Node27 -->
<g id="Node000027" class="node">
<title>Node27</title>
<g id="a_Node000027"><a xlink:title=" ">
<polygon fill="#e0e0e0" stroke="#999999" points="1307,-184 1258,-184 1258,-165 1307,-165 1307,-184"/>
<text text-anchor="middle" x="1282.5" y="-172" font-family="Helvetica,sans-Serif" font-size="10.00">cctype</text>
</a>
</g>
</g>
<!-- Node26&#45;&gt;Node27 -->
<g id="edge46_Node000026_Node000027" class="edge">
<title>Node26&#45;&gt;Node27</title>
<g id="a_edge46_Node000026_Node000027"><a xlink:title=" ">
<path fill="none" stroke="#63b8ff" d="M1117.15,-219.98C1152.94,-210.36 1211.03,-194.73 1247.96,-184.79"/>
<polygon fill="#63b8ff" stroke="#63b8ff" points="1249.04,-188.13 1257.79,-182.15 1247.22,-181.37 1249.04,-188.13"/>
</a>
</g>
</g>
<!-- Node28 -->
<g id="Node000028" class="node">
<title>Node28</title>
<g id="a_Node000028"><a xlink:title=" ">
<polygon fill="#e0e0e0" stroke="#999999" points="1127,-184 1078,-184 1078,-165 1127,-165 1127,-184"/>
<text text-anchor="middle" x="1102.5" y="-172" font-family="Helvetica,sans-Serif" font-size="10.00">cstdlib</text>
</a>
</g>
</g>
<!-- Node26&#45;&gt;Node28 -->
<g id="edge47_Node000026_Node000028" class="edge">
<title>Node26&#45;&gt;Node28</title>
<g id="a_edge47_Node000026_Node000028"><a xlink:title=" ">
<path fill="none" stroke="#63b8ff" d="M1088.31,-219.75C1090.56,-212.72 1093.8,-202.62 1096.62,-193.84"/>
<polygon fill="#63b8ff" stroke="#63b8ff" points="1100.02,-194.68 1099.75,-184.09 1093.36,-192.54 1100.02,-194.68"/>
</a>
</g>
</g>
<!-- Node29 -->
<g id="Node000029" class="node">
<title>Node29</title>
<g id="a_Node000029"><a xlink:title=" ">
<polygon fill="#e0e0e0" stroke="#999999" points="1201.5,-184 1145.5,-184 1145.5,-165 1201.5,-165 1201.5,-184"/>
<text text-anchor="middle" x="1173.5" y="-172" font-family="Helvetica,sans-Serif" font-size="10.00">iomanip</text>
</a>
</g>
</g>
<!-- Node26&#45;&gt;Node29 -->
<g id="edge48_Node000026_Node000029" class="edge">
<title>Node26&#45;&gt;Node29</title>
<g id="a_edge48_Node000026_Node000029"><a xlink:title=" ">
<path fill="none" stroke="#63b8ff" d="M1099.64,-219.98C1113.29,-211.77 1134.19,-199.18 1150.28,-189.49"/>
<polygon fill="#63b8ff" stroke="#63b8ff" points="1152.34,-192.33 1159.1,-184.17 1148.73,-186.33 1152.34,-192.33"/>
</a>
</g>
</g>
</g>
</svg>
