<?xml version="1.0" encoding="UTF-8" standalone="no"?>
<!DOCTYPE svg PUBLIC "-//W3C//DTD SVG 1.1//EN"
 "http://www.w3.org/Graphics/SVG/1.1/DTD/svg11.dtd">
<!-- Generated by graphviz version 2.43.0 (0)
 -->
<!-- Title: init/ServerSocket.hpp Pages: 1 -->
<svg width="313pt" height="137pt"
 viewBox="0.00 0.00 312.50 137.00" xmlns="http://www.w3.org/2000/svg" xmlns:xlink="http://www.w3.org/1999/xlink">
<g id="graph0" class="graph" transform="scale(1 1) rotate(0) translate(4 133)">
<title>init/ServerSocket.hpp</title>
<!-- Node1 -->
<g id="Node000001" class="node">
<title>Node1</title>
<g id="a_Node000001"><a xlink:title=" ">
<polygon fill="#999999" stroke="#666666" points="251.5,-129 131.5,-129 131.5,-110 251.5,-110 251.5,-129"/>
<text text-anchor="middle" x="191.5" y="-117" font-family="Helvetica,sans-Serif" font-size="10.00">init/ServerSocket.hpp</text>
</a>
</g>
</g>
<!-- Node2 -->
<g id="Node000002" class="node">
<title>Node2</title>
<g id="a_Node000002"><a xlink:href="ServerSocket_8cpp.html" target="_top" xlink:title=" ">
<polygon fill="white" stroke="#666666" points="119,-74 0,-74 0,-55 119,-55 119,-74"/>
<text text-anchor="middle" x="59.5" y="-62" font-family="Helvetica,sans-Serif" font-size="10.00">init/ServerSocket.cpp</text>
</a>
</g>
</g>
<!-- Node1&#45;&gt;Node2 -->
<g id="edge1_Node000001_Node000002" class="edge">
<title>Node1&#45;&gt;Node2</title>
<g id="a_edge1_Node000001_Node000002"><a xlink:title=" ">
<path fill="none" stroke="#63b8ff" d="M160.77,-106.16C136.33,-96.35 102.76,-82.87 81.09,-74.17"/>
<polygon fill="#63b8ff" stroke="#63b8ff" points="159.71,-109.51 170.29,-109.98 162.32,-103.01 159.71,-109.51"/>
</a>
</g>
</g>
<!-- Node3 -->
<g id="Node000003" class="node">
<title>Node3</title>
<g id="a_Node000003"><a xlink:href="WebServer_8hpp.html" target="_top" xlink:title=" ">
<polygon fill="white" stroke="#666666" points="245.5,-74 137.5,-74 137.5,-55 245.5,-55 245.5,-74"/>
<text text-anchor="middle" x="191.5" y="-62" font-family="Helvetica,sans-Serif" font-size="10.00">init/WebServer.hpp</text>
</a>
</g>
</g>
<!-- Node1&#45;&gt;Node3 -->
<g id="edge2_Node000001_Node000003" class="edge">
<title>Node1&#45;&gt;Node3</title>
<g id="a_edge2_Node000001_Node000003"><a xlink:title=" ">
<path fill="none" stroke="#63b8ff" d="M191.5,-99.66C191.5,-90.93 191.5,-80.99 191.5,-74.09"/>
<polygon fill="#63b8ff" stroke="#63b8ff" points="188,-99.75 191.5,-109.75 195,-99.75 188,-99.75"/>
</a>
</g>
</g>
<!-- Node5 -->
<g id="Node000005" class="node">
<title>Node5</title>
<g id="a_Node000005"><a xlink:href="main_8cpp.html" target="_top" xlink:title=" ">
<polygon fill="white" stroke="#666666" points="304.5,-19 242.5,-19 242.5,0 304.5,0 304.5,-19"/>
<text text-anchor="middle" x="273.5" y="-7" font-family="Helvetica,sans-Serif" font-size="10.00">main.cpp</text>
</a>
</g>
</g>
<!-- Node1&#45;&gt;Node5 -->
<g id="edge5_Node000001_Node000005" class="edge">
<title>Node1&#45;&gt;Node5</title>
<g id="a_edge5_Node000001_Node000005"><a xlink:title=" ">
<path fill="none" stroke="#63b8ff" d="M218.55,-104.89C231.1,-97.34 245.25,-86.86 254.5,-74 266.72,-56.99 271.17,-32.07 272.72,-19.09"/>
<polygon fill="#63b8ff" stroke="#63b8ff" points="216.76,-101.88 209.79,-109.86 220.21,-107.97 216.76,-101.88"/>
</a>
</g>
</g>
<!-- Node4 -->
<g id="Node000004" class="node">
<title>Node4</title>
<g id="a_Node000004"><a xlink:href="WebServer_8cpp.html" target="_top" xlink:title=" ">
<polygon fill="white" stroke="#666666" points="224,-19 117,-19 117,0 224,0 224,-19"/>
<text text-anchor="middle" x="170.5" y="-7" font-family="Helvetica,sans-Serif" font-size="10.00">init/WebServer.cpp</text>
</a>
</g>
</g>
<!-- Node3&#45;&gt;Node4 -->
<g id="edge3_Node000003_Node000004" class="edge">
<title>Node3&#45;&gt;Node4</title>
<g id="a_edge3_Node000003_Node000004"><a xlink:title=" ">
<path fill="none" stroke="#63b8ff" d="M184.26,-45.24C180.75,-36.37 176.7,-26.14 173.9,-19.09"/>
<polygon fill="#63b8ff" stroke="#63b8ff" points="181.09,-46.74 188.03,-54.75 187.6,-44.16 181.09,-46.74"/>
</a>
</g>
</g>
<!-- Node3&#45;&gt;Node5 -->
<g id="edge4_Node000003_Node000005" class="edge">
<title>Node3&#45;&gt;Node5</title>
<g id="a_edge4_Node000003_Node000005"><a xlink:title=" ">
<path fill="none" stroke="#63b8ff" d="M213.28,-49.42C228.16,-39.81 247.41,-27.37 260.09,-19.17"/>
<polygon fill="#63b8ff" stroke="#63b8ff" points="211.17,-46.62 204.67,-54.98 214.97,-52.5 211.17,-46.62"/>
</a>
</g>
</g>
</g>
</svg>
