<?xml version="1.0" encoding="UTF-8" standalone="no"?>
<!DOCTYPE svg PUBLIC "-//W3C//DTD SVG 1.1//EN"
 "http://www.w3.org/Graphics/SVG/1.1/DTD/svg11.dtd">
<!-- Generated by graphviz version 2.43.0 (0)
 -->
<!-- Title: config/ServerConfig.cpp Pages: 1 -->
<svg width="1025pt" height="192pt"
 viewBox="0.00 0.00 1024.50 192.00" xmlns="http://www.w3.org/2000/svg" xmlns:xlink="http://www.w3.org/1999/xlink">
<g id="graph0" class="graph" transform="scale(1 1) rotate(0) translate(4 188)">
<title>config/ServerConfig.cpp</title>
<!-- Node1 -->
<g id="Node000001" class="node">
<title>Node1</title>
<g id="a_Node000001"><a xlink:title=" ">
<polygon fill="#999999" stroke="#666666" points="373.5,-184 242.5,-184 242.5,-165 373.5,-165 373.5,-184"/>
<text text-anchor="middle" x="308" y="-172" font-family="Helvetica,sans-Serif" font-size="10.00">config/ServerConfig.cpp</text>
</a>
</g>
</g>
<!-- Node2 -->
<g id="Node000002" class="node">
<title>Node2</title>
<g id="a_Node000002"><a xlink:href="ServerConfig_8hpp.html" target="_top" xlink:title=" ">
<polygon fill="white" stroke="#666666" points="374,-129 242,-129 242,-110 374,-110 374,-129"/>
<text text-anchor="middle" x="308" y="-117" font-family="Helvetica,sans-Serif" font-size="10.00">config/ServerConfig.hpp</text>
</a>
</g>
</g>
<!-- Node1&#45;&gt;Node2 -->
<g id="edge1_Node000001_Node000002" class="edge">
<title>Node1&#45;&gt;Node2</title>
<g id="a_edge1_Node000001_Node000002"><a xlink:title=" ">
<path fill="none" stroke="#63b8ff" d="M308,-164.75C308,-157.8 308,-147.85 308,-139.13"/>
<polygon fill="#63b8ff" stroke="#63b8ff" points="311.5,-139.09 308,-129.09 304.5,-139.09 311.5,-139.09"/>
</a>
</g>
</g>
<!-- Node6 -->
<g id="Node000006" class="node">
<title>Node6</title>
<g id="a_Node000006"><a xlink:href="LocationConfig_8hpp.html" target="_top" xlink:title=" ">
<polygon fill="white" stroke="#666666" points="285,-74 143,-74 143,-55 285,-55 285,-74"/>
<text text-anchor="middle" x="214" y="-62" font-family="Helvetica,sans-Serif" font-size="10.00">config/LocationConfig.hpp</text>
</a>
</g>
</g>
<!-- Node1&#45;&gt;Node6 -->
<g id="edge11_Node000001_Node000006" class="edge">
<title>Node1&#45;&gt;Node6</title>
<g id="a_edge11_Node000001_Node000006"><a xlink:title=" ">
<path fill="none" stroke="#63b8ff" d="M284.5,-164.97C267.86,-157.78 246.23,-145.94 233,-129 222.93,-116.1 218.18,-97.94 215.96,-84.35"/>
<polygon fill="#63b8ff" stroke="#63b8ff" points="219.4,-83.67 214.61,-74.21 212.46,-84.59 219.4,-83.67"/>
</a>
</g>
</g>
<!-- Node7 -->
<g id="Node000007" class="node">
<title>Node7</title>
<g id="a_Node000007"><a xlink:href="RequestMethod_8hpp.html" target="_top" xlink:title=" ">
<polygon fill="white" stroke="#666666" points="154,-19 0,-19 0,0 154,0 154,-19"/>
<text text-anchor="middle" x="77" y="-7" font-family="Helvetica,sans-Serif" font-size="10.00">request/RequestMethod.hpp</text>
</a>
</g>
</g>
<!-- Node1&#45;&gt;Node7 -->
<g id="edge12_Node000001_Node000007" class="edge">
<title>Node1&#45;&gt;Node7</title>
<g id="a_edge12_Node000001_Node000007"><a xlink:title=" ">
<path fill="none" stroke="#63b8ff" d="M272.21,-164.9C226.83,-152.26 148.87,-124.52 102,-74 90.43,-61.53 83.97,-43.06 80.53,-29.26"/>
<polygon fill="#63b8ff" stroke="#63b8ff" points="83.93,-28.41 78.38,-19.39 77.09,-29.9 83.93,-28.41"/>
</a>
</g>
</g>
<!-- Node8 -->
<g id="Node000008" class="node">
<title>Node8</title>
<g id="a_Node000008"><a xlink:href="string__utils_8hpp.html" target="_top" xlink:title="Collection of inline string utility functions used across Webservinho.">
<polygon fill="white" stroke="#666666" points="830,-129 714,-129 714,-110 830,-110 830,-129"/>
<text text-anchor="middle" x="772" y="-117" font-family="Helvetica,sans-Serif" font-size="10.00">utils/string_utils.hpp</text>
</a>
</g>
</g>
<!-- Node1&#45;&gt;Node8 -->
<g id="edge13_Node000001_Node000008" class="edge">
<title>Node1&#45;&gt;Node8</title>
<g id="a_edge13_Node000001_Node000008"><a xlink:title=" ">
<path fill="none" stroke="#63b8ff" d="M373.99,-165.96C461.56,-155.96 615.4,-138.39 703.99,-128.27"/>
<polygon fill="#63b8ff" stroke="#63b8ff" points="704.39,-131.75 713.93,-127.13 703.6,-124.79 704.39,-131.75"/>
</a>
</g>
</g>
<!-- Node14 -->
<g id="Node000014" class="node">
<title>Node14</title>
<g id="a_Node000014"><a xlink:href="Logger_8hpp.html" target="_top" xlink:title=" ">
<polygon fill="white" stroke="#666666" points="526,-129 432,-129 432,-110 526,-110 526,-129"/>
<text text-anchor="middle" x="479" y="-117" font-family="Helvetica,sans-Serif" font-size="10.00">utils/Logger.hpp</text>
</a>
</g>
</g>
<!-- Node1&#45;&gt;Node14 -->
<g id="edge21_Node000001_Node000014" class="edge">
<title>Node1&#45;&gt;Node14</title>
<g id="a_edge21_Node000001_Node000014"><a xlink:title=" ">
<path fill="none" stroke="#63b8ff" d="M335.47,-164.98C364.18,-156.09 409.42,-142.07 441.42,-132.15"/>
<polygon fill="#63b8ff" stroke="#63b8ff" points="442.8,-135.39 451.31,-129.08 440.72,-128.7 442.8,-135.39"/>
</a>
</g>
</g>
<!-- Node3 -->
<g id="Node000003" class="node">
<title>Node3</title>
<g id="a_Node000003"><a xlink:title=" ">
<polygon fill="#e0e0e0" stroke="#999999" points="386,-19 342,-19 342,0 386,0 386,-19"/>
<text text-anchor="middle" x="364" y="-7" font-family="Helvetica,sans-Serif" font-size="10.00">string</text>
</a>
</g>
</g>
<!-- Node2&#45;&gt;Node3 -->
<g id="edge2_Node000002_Node000003" class="edge">
<title>Node2&#45;&gt;Node3</title>
<g id="a_edge2_Node000002_Node000003"><a xlink:title=" ">
<path fill="none" stroke="#63b8ff" d="M312.58,-109.66C321.78,-91.93 342.62,-51.73 354.76,-28.32"/>
<polygon fill="#63b8ff" stroke="#63b8ff" points="358.01,-29.65 359.51,-19.16 351.8,-26.42 358.01,-29.65"/>
</a>
</g>
</g>
<!-- Node4 -->
<g id="Node000004" class="node">
<title>Node4</title>
<g id="a_Node000004"><a xlink:title=" ">
<polygon fill="#e0e0e0" stroke="#999999" points="323.5,-19 276.5,-19 276.5,0 323.5,0 323.5,-19"/>
<text text-anchor="middle" x="300" y="-7" font-family="Helvetica,sans-Serif" font-size="10.00">vector</text>
</a>
</g>
</g>
<!-- Node2&#45;&gt;Node4 -->
<g id="edge3_Node000002_Node000004" class="edge">
<title>Node2&#45;&gt;Node4</title>
<g id="a_edge3_Node000002_Node000004"><a xlink:title=" ">
<path fill="none" stroke="#63b8ff" d="M307.35,-109.66C306.05,-92.17 303.13,-52.8 301.39,-29.27"/>
<polygon fill="#63b8ff" stroke="#63b8ff" points="304.87,-28.87 300.64,-19.16 297.89,-29.39 304.87,-28.87"/>
</a>
</g>
</g>
<!-- Node5 -->
<g id="Node000005" class="node">
<title>Node5</title>
<g id="a_Node000005"><a xlink:title=" ">
<polygon fill="#e0e0e0" stroke="#999999" points="222,-19 184,-19 184,0 222,0 222,-19"/>
<text text-anchor="middle" x="203" y="-7" font-family="Helvetica,sans-Serif" font-size="10.00">map</text>
</a>
</g>
</g>
<!-- Node2&#45;&gt;Node5 -->
<g id="edge4_Node000002_Node000005" class="edge">
<title>Node2&#45;&gt;Node5</title>
<g id="a_edge4_Node000002_Node000005"><a xlink:title=" ">
<path fill="none" stroke="#63b8ff" d="M241.91,-110.06C198.53,-103.02 147.43,-91.3 134,-74 118.06,-53.48 148.82,-33.86 174.24,-22"/>
<polygon fill="#63b8ff" stroke="#63b8ff" points="175.89,-25.1 183.62,-17.85 173.05,-18.7 175.89,-25.1"/>
</a>
</g>
</g>
<!-- Node2&#45;&gt;Node6 -->
<g id="edge5_Node000002_Node000006" class="edge">
<title>Node2&#45;&gt;Node6</title>
<g id="a_edge5_Node000002_Node000006"><a xlink:title=" ">
<path fill="none" stroke="#63b8ff" d="M292.9,-109.98C278.18,-101.69 255.58,-88.94 238.33,-79.22"/>
<polygon fill="#63b8ff" stroke="#63b8ff" points="239.81,-76.03 229.38,-74.17 236.37,-82.13 239.81,-76.03"/>
</a>
</g>
</g>
<!-- Node2&#45;&gt;Node7 -->
<g id="edge10_Node000002_Node000007" class="edge">
<title>Node2&#45;&gt;Node7</title>
<g id="a_edge10_Node000002_Node000007"><a xlink:title=" ">
<path fill="none" stroke="#63b8ff" d="M241.88,-113.08C205.34,-107.56 160.49,-96.44 126,-74 108.55,-62.65 94.77,-42.9 86.32,-28.43"/>
<polygon fill="#63b8ff" stroke="#63b8ff" points="89.25,-26.49 81.35,-19.43 83.12,-29.87 89.25,-26.49"/>
</a>
</g>
</g>
<!-- Node6&#45;&gt;Node3 -->
<g id="edge7_Node000006_Node000003" class="edge">
<title>Node6&#45;&gt;Node3</title>
<g id="a_edge7_Node000006_Node000003"><a xlink:title=" ">
<path fill="none" stroke="#63b8ff" d="M238.1,-54.98C263.62,-45.97 304.03,-31.69 332.16,-21.75"/>
<polygon fill="#63b8ff" stroke="#63b8ff" points="333.65,-24.94 341.91,-18.3 331.32,-18.33 333.65,-24.94"/>
</a>
</g>
</g>
<!-- Node6&#45;&gt;Node4 -->
<g id="edge6_Node000006_Node000004" class="edge">
<title>Node6&#45;&gt;Node4</title>
<g id="a_edge6_Node000006_Node000004"><a xlink:title=" ">
<path fill="none" stroke="#63b8ff" d="M227.82,-54.98C241.15,-46.77 261.58,-34.18 277.31,-24.49"/>
<polygon fill="#63b8ff" stroke="#63b8ff" points="279.25,-27.4 285.93,-19.17 275.58,-21.44 279.25,-27.4"/>
</a>
</g>
</g>
<!-- Node6&#45;&gt;Node5 -->
<g id="edge8_Node000006_Node000005" class="edge">
<title>Node6&#45;&gt;Node5</title>
<g id="a_edge8_Node000006_Node000005"><a xlink:title=" ">
<path fill="none" stroke="#63b8ff" d="M212.18,-54.75C210.74,-47.8 208.68,-37.85 206.87,-29.13"/>
<polygon fill="#63b8ff" stroke="#63b8ff" points="210.24,-28.17 204.78,-19.09 203.39,-29.59 210.24,-28.17"/>
</a>
</g>
</g>
<!-- Node6&#45;&gt;Node7 -->
<g id="edge9_Node000006_Node000007" class="edge">
<title>Node6&#45;&gt;Node7</title>
<g id="a_edge9_Node000006_Node000007"><a xlink:title=" ">
<path fill="none" stroke="#63b8ff" d="M191.99,-54.98C169.55,-46.3 134.52,-32.75 109.01,-22.88"/>
<polygon fill="#63b8ff" stroke="#63b8ff" points="110,-19.51 99.41,-19.17 107.48,-26.04 110,-19.51"/>
</a>
</g>
</g>
<!-- Node8&#45;&gt;Node3 -->
<g id="edge14_Node000008_Node000003" class="edge">
<title>Node8&#45;&gt;Node3</title>
<g id="a_edge14_Node000008_Node000003"><a xlink:title=" ">
<path fill="none" stroke="#63b8ff" d="M830.13,-112.49C883.71,-104.77 950.63,-88.18 920,-55 884.37,-16.4 509.64,-11.26 396.3,-10.6"/>
<polygon fill="#63b8ff" stroke="#63b8ff" points="396.18,-7.1 386.17,-10.54 396.15,-14.1 396.18,-7.1"/>
</a>
</g>
</g>
<!-- Node8&#45;&gt;Node4 -->
<g id="edge16_Node000008_Node000004" class="edge">
<title>Node8&#45;&gt;Node4</title>
<g id="a_edge16_Node000008_Node000004"><a xlink:title=" ">
<path fill="none" stroke="#63b8ff" d="M757.46,-109.97C729.16,-93.45 668.52,-58.36 658,-55 522.68,-11.76 477.96,-43.68 333.8,-18.84"/>
<polygon fill="#63b8ff" stroke="#63b8ff" points="334.16,-15.35 323.7,-17.03 332.93,-22.24 334.16,-15.35"/>
</a>
</g>
</g>
<!-- Node9 -->
<g id="Node000009" class="node">
<title>Node9</title>
<g id="a_Node000009"><a xlink:title=" ">
<polygon fill="#e0e0e0" stroke="#999999" points="649,-74 593,-74 593,-55 649,-55 649,-74"/>
<text text-anchor="middle" x="621" y="-62" font-family="Helvetica,sans-Serif" font-size="10.00">sstream</text>
</a>
</g>
</g>
<!-- Node8&#45;&gt;Node9 -->
<g id="edge15_Node000008_Node000009" class="edge">
<title>Node8&#45;&gt;Node9</title>
<g id="a_edge15_Node000008_Node000009"><a xlink:title=" ">
<path fill="none" stroke="#63b8ff" d="M747.74,-109.98C722.68,-101.19 683.37,-87.39 655.17,-77.49"/>
<polygon fill="#63b8ff" stroke="#63b8ff" points="656.3,-74.18 645.7,-74.17 653.98,-80.78 656.3,-74.18"/>
</a>
</g>
</g>
<!-- Node10 -->
<g id="Node000010" class="node">
<title>Node10</title>
<g id="a_Node000010"><a xlink:title=" ">
<polygon fill="#e0e0e0" stroke="#999999" points="843,-74 779,-74 779,-55 843,-55 843,-74"/>
<text text-anchor="middle" x="811" y="-62" font-family="Helvetica,sans-Serif" font-size="10.00">algorithm</text>
</a>
</g>
</g>
<!-- Node8&#45;&gt;Node10 -->
<g id="edge17_Node000008_Node000010" class="edge">
<title>Node8&#45;&gt;Node10</title>
<g id="a_edge17_Node000008_Node000010"><a xlink:title=" ">
<path fill="none" stroke="#63b8ff" d="M778.44,-109.75C783.89,-102.34 791.86,-91.5 798.56,-82.41"/>
<polygon fill="#63b8ff" stroke="#63b8ff" points="801.57,-84.22 804.68,-74.09 795.93,-80.07 801.57,-84.22"/>
</a>
</g>
</g>
<!-- Node11 -->
<g id="Node000011" class="node">
<title>Node11</title>
<g id="a_Node000011"><a xlink:title=" ">
<polygon fill="#e0e0e0" stroke="#999999" points="910.5,-74 861.5,-74 861.5,-55 910.5,-55 910.5,-74"/>
<text text-anchor="middle" x="886" y="-62" font-family="Helvetica,sans-Serif" font-size="10.00">cctype</text>
</a>
</g>
</g>
<!-- Node8&#45;&gt;Node11 -->
<g id="edge18_Node000008_Node000011" class="edge">
<title>Node8&#45;&gt;Node11</title>
<g id="a_edge18_Node000008_Node000011"><a xlink:title=" ">
<path fill="none" stroke="#63b8ff" d="M790.32,-109.98C808.66,-101.46 837.11,-88.23 858.23,-78.41"/>
<polygon fill="#63b8ff" stroke="#63b8ff" points="859.76,-81.56 867.35,-74.17 856.81,-75.21 859.76,-81.56"/>
</a>
</g>
</g>
<!-- Node12 -->
<g id="Node000012" class="node">
<title>Node12</title>
<g id="a_Node000012"><a xlink:title=" ">
<polygon fill="#e0e0e0" stroke="#999999" points="1016.5,-74 967.5,-74 967.5,-55 1016.5,-55 1016.5,-74"/>
<text text-anchor="middle" x="992" y="-62" font-family="Helvetica,sans-Serif" font-size="10.00">cstdlib</text>
</a>
</g>
</g>
<!-- Node8&#45;&gt;Node12 -->
<g id="edge19_Node000008_Node000012" class="edge">
<title>Node8&#45;&gt;Node12</title>
<g id="a_edge19_Node000008_Node000012"><a xlink:title=" ">
<path fill="none" stroke="#63b8ff" d="M807.35,-109.98C848.66,-100.03 916.59,-83.67 957.53,-73.8"/>
<polygon fill="#63b8ff" stroke="#63b8ff" points="958.42,-77.19 967.32,-71.45 956.78,-70.38 958.42,-77.19"/>
</a>
</g>
</g>
<!-- Node13 -->
<g id="Node000013" class="node">
<title>Node13</title>
<g id="a_Node000013"><a xlink:title=" ">
<polygon fill="#e0e0e0" stroke="#999999" points="761,-74 705,-74 705,-55 761,-55 761,-74"/>
<text text-anchor="middle" x="733" y="-62" font-family="Helvetica,sans-Serif" font-size="10.00">iomanip</text>
</a>
</g>
</g>
<!-- Node8&#45;&gt;Node13 -->
<g id="edge20_Node000008_Node000013" class="edge">
<title>Node8&#45;&gt;Node13</title>
<g id="a_edge20_Node000008_Node000013"><a xlink:title=" ">
<path fill="none" stroke="#63b8ff" d="M765.56,-109.75C760.11,-102.34 752.14,-91.5 745.44,-82.41"/>
<polygon fill="#63b8ff" stroke="#63b8ff" points="748.07,-80.07 739.32,-74.09 742.43,-84.22 748.07,-80.07"/>
</a>
</g>
</g>
<!-- Node14&#45;&gt;Node9 -->
<g id="edge25_Node000014_Node000009" class="edge">
<title>Node14&#45;&gt;Node9</title>
<g id="a_edge25_Node000014_Node000009"><a xlink:title=" ">
<path fill="none" stroke="#63b8ff" d="M501.81,-109.98C525.17,-101.27 561.7,-87.63 588.17,-77.75"/>
<polygon fill="#63b8ff" stroke="#63b8ff" points="589.63,-80.95 597.77,-74.17 587.18,-74.39 589.63,-80.95"/>
</a>
</g>
</g>
<!-- Node15 -->
<g id="Node000015" class="node">
<title>Node15</title>
<g id="a_Node000015"><a xlink:title=" ">
<polygon fill="#e0e0e0" stroke="#999999" points="501,-74 457,-74 457,-55 501,-55 501,-74"/>
<text text-anchor="middle" x="479" y="-62" font-family="Helvetica,sans-Serif" font-size="10.00">ctime</text>
</a>
</g>
</g>
<!-- Node14&#45;&gt;Node15 -->
<g id="edge22_Node000014_Node000015" class="edge">
<title>Node14&#45;&gt;Node15</title>
<g id="a_edge22_Node000014_Node000015"><a xlink:title=" ">
<path fill="none" stroke="#63b8ff" d="M479,-109.75C479,-102.8 479,-92.85 479,-84.13"/>
<polygon fill="#63b8ff" stroke="#63b8ff" points="482.5,-84.09 479,-74.09 475.5,-84.09 482.5,-84.09"/>
</a>
</g>
</g>
<!-- Node16 -->
<g id="Node000016" class="node">
<title>Node16</title>
<g id="a_Node000016"><a xlink:title=" ">
<polygon fill="#e0e0e0" stroke="#999999" points="574.5,-74 519.5,-74 519.5,-55 574.5,-55 574.5,-74"/>
<text text-anchor="middle" x="547" y="-62" font-family="Helvetica,sans-Serif" font-size="10.00">fstream</text>
</a>
</g>
</g>
<!-- Node14&#45;&gt;Node16 -->
<g id="edge23_Node000014_Node000016" class="edge">
<title>Node14&#45;&gt;Node16</title>
<g id="a_edge23_Node000014_Node000016"><a xlink:title=" ">
<path fill="none" stroke="#63b8ff" d="M489.93,-109.98C500.08,-102.07 515.42,-90.11 527.65,-80.58"/>
<polygon fill="#63b8ff" stroke="#63b8ff" points="530.14,-83.08 535.88,-74.17 525.84,-77.56 530.14,-83.08"/>
</a>
</g>
</g>
<!-- Node17 -->
<g id="Node000017" class="node">
<title>Node17</title>
<g id="a_Node000017"><a xlink:title=" ">
<polygon fill="#e0e0e0" stroke="#999999" points="439,-74 379,-74 379,-55 439,-55 439,-74"/>
<text text-anchor="middle" x="409" y="-62" font-family="Helvetica,sans-Serif" font-size="10.00">iostream</text>
</a>
</g>
</g>
<!-- Node14&#45;&gt;Node17 -->
<g id="edge24_Node000014_Node000017" class="edge">
<title>Node14&#45;&gt;Node17</title>
<g id="a_edge24_Node000014_Node000017"><a xlink:title=" ">
<path fill="none" stroke="#63b8ff" d="M467.75,-109.98C457.2,-102 441.2,-89.88 428.56,-80.31"/>
<polygon fill="#63b8ff" stroke="#63b8ff" points="430.54,-77.42 420.45,-74.17 426.31,-83 430.54,-77.42"/>
</a>
</g>
</g>
</g>
</svg>
