<?xml version="1.0" encoding="UTF-8" standalone="no"?>
<!DOCTYPE svg PUBLIC "-//W3C//DTD SVG 1.1//EN"
 "http://www.w3.org/Graphics/SVG/1.1/DTD/svg11.dtd">
<!-- Generated by graphviz version 2.43.0 (0)
 -->
<!-- Title: config/ServerConfig.hpp Pages: 1 -->
<svg width="1733pt" height="192pt"
 viewBox="0.00 0.00 1733.00 192.00" xmlns="http://www.w3.org/2000/svg" xmlns:xlink="http://www.w3.org/1999/xlink">
<g id="graph0" class="graph" transform="scale(1 1) rotate(0) translate(4 188)">
<title>config/ServerConfig.hpp</title>
<!-- Node1 -->
<g id="Node000001" class="node">
<title>Node1</title>
<g id="a_Node000001"><a xlink:title=" ">
<polygon fill="#999999" stroke="#666666" points="726.5,-184 594.5,-184 594.5,-165 726.5,-165 726.5,-184"/>
<text text-anchor="middle" x="660.5" y="-172" font-family="Helvetica,sans-Serif" font-size="10.00">config/ServerConfig.hpp</text>
</a>
</g>
</g>
<!-- Node2 -->
<g id="Node000002" class="node">
<title>Node2</title>
<g id="a_Node000002"><a xlink:href="Config_8hpp.html" target="_top" xlink:title=" ">
<polygon fill="white" stroke="#666666" points="343,-129 242,-129 242,-110 343,-110 343,-129"/>
<text text-anchor="middle" x="292.5" y="-117" font-family="Helvetica,sans-Serif" font-size="10.00">config/Config.hpp</text>
</a>
</g>
</g>
<!-- Node1&#45;&gt;Node2 -->
<g id="edge1_Node000001_Node000002" class="edge">
<title>Node1&#45;&gt;Node2</title>
<g id="a_edge1_Node000001_Node000002"><a xlink:title=" ">
<path fill="none" stroke="#63b8ff" d="M591.46,-163.56C519.25,-153.16 407.65,-137.08 343.19,-127.8"/>
<polygon fill="#63b8ff" stroke="#63b8ff" points="590.98,-167.02 601.37,-164.98 591.98,-160.09 590.98,-167.02"/>
</a>
</g>
</g>
<!-- Node4 -->
<g id="Node000004" class="node">
<title>Node4</title>
<g id="a_Node000004"><a xlink:href="ConfigParser_8hpp.html" target="_top" xlink:title=" ">
<polygon fill="white" stroke="#666666" points="186.5,-74 56.5,-74 56.5,-55 186.5,-55 186.5,-74"/>
<text text-anchor="middle" x="121.5" y="-62" font-family="Helvetica,sans-Serif" font-size="10.00">config/ConfigParser.hpp</text>
</a>
</g>
</g>
<!-- Node1&#45;&gt;Node4 -->
<g id="edge11_Node000001_Node000004" class="edge">
<title>Node1&#45;&gt;Node4</title>
<g id="a_edge11_Node000001_Node000004"><a xlink:title=" ">
<path fill="none" stroke="#63b8ff" d="M584.12,-169.36C479.12,-163.02 295.98,-149.45 232.5,-129 192.98,-116.27 151.97,-88.26 132.73,-74.08"/>
<polygon fill="#63b8ff" stroke="#63b8ff" points="584.15,-172.87 594.34,-169.97 584.57,-165.88 584.15,-172.87"/>
</a>
</g>
</g>
<!-- Node5 -->
<g id="Node000005" class="node">
<title>Node5</title>
<g id="a_Node000005"><a xlink:href="ConfigParser_8cpp.html" target="_top" xlink:title=" ">
<polygon fill="white" stroke="#666666" points="129,-19 0,-19 0,0 129,0 129,-19"/>
<text text-anchor="middle" x="64.5" y="-7" font-family="Helvetica,sans-Serif" font-size="10.00">config/ConfigParser.cpp</text>
</a>
</g>
</g>
<!-- Node1&#45;&gt;Node5 -->
<g id="edge10_Node000001_Node000005" class="edge">
<title>Node1&#45;&gt;Node5</title>
<g id="a_edge10_Node000001_Node000005"><a xlink:title=" ">
<path fill="none" stroke="#63b8ff" d="M584.1,-172.86C489.69,-170.58 324.71,-161.72 187.5,-129 122.47,-113.49 85.15,-129.24 47.5,-74 35.8,-56.84 49.33,-31.98 58.13,-19.05"/>
<polygon fill="#63b8ff" stroke="#63b8ff" points="584.06,-176.36 594.13,-173.08 584.21,-169.36 584.06,-176.36"/>
</a>
</g>
</g>
<!-- Node7 -->
<g id="Node000007" class="node">
<title>Node7</title>
<g id="a_Node000007"><a xlink:href="WebServer_8hpp.html" target="_top" xlink:title=" ">
<polygon fill="white" stroke="#666666" points="468.5,-74 360.5,-74 360.5,-55 468.5,-55 468.5,-74"/>
<text text-anchor="middle" x="414.5" y="-62" font-family="Helvetica,sans-Serif" font-size="10.00">init/WebServer.hpp</text>
</a>
</g>
</g>
<!-- Node1&#45;&gt;Node7 -->
<g id="edge16_Node000001_Node000007" class="edge">
<title>Node1&#45;&gt;Node7</title>
<g id="a_edge16_Node000001_Node000007"><a xlink:title=" ">
<path fill="none" stroke="#63b8ff" d="M631.36,-160.71C580.54,-138.4 477.03,-92.95 433.97,-74.05"/>
<polygon fill="#63b8ff" stroke="#63b8ff" points="630.22,-164.03 640.78,-164.84 633.04,-157.62 630.22,-164.03"/>
</a>
</g>
</g>
<!-- Node9 -->
<g id="Node000009" class="node">
<title>Node9</title>
<g id="a_Node000009"><a xlink:href="ServerConfig_8cpp.html" target="_top" xlink:title=" ">
<polygon fill="white" stroke="#666666" points="1109,-129 978,-129 978,-110 1109,-110 1109,-129"/>
<text text-anchor="middle" x="1043.5" y="-117" font-family="Helvetica,sans-Serif" font-size="10.00">config/ServerConfig.cpp</text>
</a>
</g>
</g>
<!-- Node1&#45;&gt;Node9 -->
<g id="edge12_Node000001_Node000009" class="edge">
<title>Node1&#45;&gt;Node9</title>
<g id="a_edge12_Node000001_Node000009"><a xlink:title=" ">
<path fill="none" stroke="#63b8ff" d="M732.36,-163.56C804.27,-153.61 913.71,-138.46 981.8,-129.04"/>
<polygon fill="#63b8ff" stroke="#63b8ff" points="731.46,-160.15 722.04,-164.98 732.42,-167.08 731.46,-160.15"/>
</a>
</g>
</g>
<!-- Node10 -->
<g id="Node000010" class="node">
<title>Node10</title>
<g id="a_Node000010"><a xlink:href="Dispatcher_8cpp.html" target="_top" xlink:title=" ">
<polygon fill="white" stroke="#666666" points="948,-74 805,-74 805,-55 948,-55 948,-74"/>
<text text-anchor="middle" x="876.5" y="-62" font-family="Helvetica,sans-Serif" font-size="10.00">dispatcher/Dispatcher.cpp</text>
</a>
</g>
</g>
<!-- Node1&#45;&gt;Node10 -->
<g id="edge13_Node000001_Node000010" class="edge">
<title>Node1&#45;&gt;Node10</title>
<g id="a_edge13_Node000001_Node000010"><a xlink:title=" ">
<path fill="none" stroke="#63b8ff" d="M686.05,-160.2C711.06,-147.23 750.29,-127.03 784.5,-110 810.07,-97.27 839.87,-82.95 858.46,-74.08"/>
<polygon fill="#63b8ff" stroke="#63b8ff" points="684.15,-157.24 676.89,-164.96 687.38,-163.46 684.15,-157.24"/>
</a>
</g>
</g>
<!-- Node11 -->
<g id="Node000011" class="node">
<title>Node11</title>
<g id="a_Node000011"><a xlink:href="Router_8cpp.html" target="_top" xlink:title=" ">
<polygon fill="white" stroke="#666666" points="1249.5,-129 1127.5,-129 1127.5,-110 1249.5,-110 1249.5,-129"/>
<text text-anchor="middle" x="1188.5" y="-117" font-family="Helvetica,sans-Serif" font-size="10.00">dispatcher/Router.cpp</text>
</a>
</g>
</g>
<!-- Node1&#45;&gt;Node11 -->
<g id="edge14_Node000001_Node000011" class="edge">
<title>Node1&#45;&gt;Node11</title>
<g id="a_edge14_Node000001_Node000011"><a xlink:title=" ">
<path fill="none" stroke="#63b8ff" d="M736.75,-166.65C827.7,-158.36 984.3,-143.67 1118.5,-129 1121.42,-128.68 1124.41,-128.35 1127.43,-128"/>
<polygon fill="#63b8ff" stroke="#63b8ff" points="736.18,-163.19 726.54,-167.58 736.81,-170.16 736.18,-163.19"/>
</a>
</g>
</g>
<!-- Node12 -->
<g id="Node000012" class="node">
<title>Node12</title>
<g id="a_Node000012"><a xlink:href="UploadHandler_8cpp.html" target="_top" xlink:title=" ">
<polygon fill="white" stroke="#666666" points="1431,-129 1268,-129 1268,-110 1431,-110 1431,-129"/>
<text text-anchor="middle" x="1349.5" y="-117" font-family="Helvetica,sans-Serif" font-size="10.00">dispatcher/UploadHandler.cpp</text>
</a>
</g>
</g>
<!-- Node1&#45;&gt;Node12 -->
<g id="edge15_Node000001_Node000012" class="edge">
<title>Node1&#45;&gt;Node12</title>
<g id="a_edge15_Node000001_Node000012"><a xlink:title=" ">
<path fill="none" stroke="#63b8ff" d="M736.9,-168.28C850.64,-160.4 1071.19,-144.72 1258.5,-129 1261.5,-128.75 1264.56,-128.49 1267.65,-128.22"/>
<polygon fill="#63b8ff" stroke="#63b8ff" points="736.64,-164.79 726.9,-168.97 737.12,-171.77 736.64,-164.79"/>
</a>
</g>
</g>
<!-- Node13 -->
<g id="Node000013" class="node">
<title>Node13</title>
<g id="a_Node000013"><a xlink:href="RequestParse_8cpp.html" target="_top" xlink:title=" ">
<polygon fill="white" stroke="#666666" points="630,-74 487,-74 487,-55 630,-55 630,-74"/>
<text text-anchor="middle" x="558.5" y="-62" font-family="Helvetica,sans-Serif" font-size="10.00">request/RequestParse.cpp</text>
</a>
</g>
</g>
<!-- Node1&#45;&gt;Node13 -->
<g id="edge17_Node000001_Node000013" class="edge">
<title>Node1&#45;&gt;Node13</title>
<g id="a_edge17_Node000001_Node000013"><a xlink:title=" ">
<path fill="none" stroke="#63b8ff" d="M625.5,-160.79C609.87,-153.57 592.35,-143.11 580.5,-129 566.85,-112.74 561.49,-87.5 559.53,-74.27"/>
<polygon fill="#63b8ff" stroke="#63b8ff" points="624.35,-164.1 634.92,-164.87 627.13,-157.68 624.35,-164.1"/>
</a>
</g>
</g>
<!-- Node14 -->
<g id="Node000014" class="node">
<title>Node14</title>
<g id="a_Node000014"><a xlink:href="RequestParse_8hpp.html" target="_top" xlink:title=" ">
<polygon fill="white" stroke="#666666" points="732,-129 589,-129 589,-110 732,-110 732,-129"/>
<text text-anchor="middle" x="660.5" y="-117" font-family="Helvetica,sans-Serif" font-size="10.00">request/RequestParse.hpp</text>
</a>
</g>
</g>
<!-- Node1&#45;&gt;Node14 -->
<g id="edge18_Node000001_Node000014" class="edge">
<title>Node1&#45;&gt;Node14</title>
<g id="a_edge18_Node000001_Node000014"><a xlink:title=" ">
<path fill="none" stroke="#63b8ff" d="M660.5,-154.66C660.5,-145.93 660.5,-135.99 660.5,-129.09"/>
<polygon fill="#63b8ff" stroke="#63b8ff" points="657,-154.75 660.5,-164.75 664,-154.75 657,-154.75"/>
</a>
</g>
</g>
<!-- Node16 -->
<g id="Node000016" class="node">
<title>Node16</title>
<g id="a_Node000016"><a xlink:href="ResponseBuilder_8hpp.html" target="_top" xlink:title=" ">
<polygon fill="white" stroke="#666666" points="959.5,-129 793.5,-129 793.5,-110 959.5,-110 959.5,-129"/>
<text text-anchor="middle" x="876.5" y="-117" font-family="Helvetica,sans-Serif" font-size="10.00">response/ResponseBuilder.hpp</text>
</a>
</g>
</g>
<!-- Node1&#45;&gt;Node16 -->
<g id="edge21_Node000001_Node000016" class="edge">
<title>Node1&#45;&gt;Node16</title>
<g id="a_edge21_Node000001_Node000016"><a xlink:title=" ">
<path fill="none" stroke="#63b8ff" d="M705.07,-162.56C745.52,-152.64 804.37,-138.2 841.52,-129.08"/>
<polygon fill="#63b8ff" stroke="#63b8ff" points="704.08,-159.2 695.2,-164.98 705.75,-166 704.08,-159.2"/>
</a>
</g>
</g>
<!-- Node3 -->
<g id="Node000003" class="node">
<title>Node3</title>
<g id="a_Node000003"><a xlink:href="Config_8cpp.html" target="_top" xlink:title=" ">
<polygon fill="white" stroke="#666666" points="342.5,-74 242.5,-74 242.5,-55 342.5,-55 342.5,-74"/>
<text text-anchor="middle" x="292.5" y="-62" font-family="Helvetica,sans-Serif" font-size="10.00">config/Config.cpp</text>
</a>
</g>
</g>
<!-- Node2&#45;&gt;Node3 -->
<g id="edge2_Node000002_Node000003" class="edge">
<title>Node2&#45;&gt;Node3</title>
<g id="a_edge2_Node000002_Node000003"><a xlink:title=" ">
<path fill="none" stroke="#63b8ff" d="M292.5,-99.66C292.5,-90.93 292.5,-80.99 292.5,-74.09"/>
<polygon fill="#63b8ff" stroke="#63b8ff" points="289,-99.75 292.5,-109.75 296,-99.75 289,-99.75"/>
</a>
</g>
</g>
<!-- Node2&#45;&gt;Node4 -->
<g id="edge3_Node000002_Node000004" class="edge">
<title>Node2&#45;&gt;Node4</title>
<g id="a_edge3_Node000002_Node000004"><a xlink:title=" ">
<path fill="none" stroke="#63b8ff" d="M255.16,-106.93C223.22,-97.03 177.98,-83.01 149.19,-74.08"/>
<polygon fill="#63b8ff" stroke="#63b8ff" points="254.44,-110.37 265.03,-109.98 256.51,-103.68 254.44,-110.37"/>
</a>
</g>
</g>
<!-- Node6 -->
<g id="Node000006" class="node">
<title>Node6</title>
<g id="a_Node000006"><a xlink:href="main_8cpp.html" target="_top" xlink:title=" ">
<polygon fill="white" stroke="#666666" points="245.5,-19 183.5,-19 183.5,0 245.5,0 245.5,-19"/>
<text text-anchor="middle" x="214.5" y="-7" font-family="Helvetica,sans-Serif" font-size="10.00">main.cpp</text>
</a>
</g>
</g>
<!-- Node2&#45;&gt;Node6 -->
<g id="edge9_Node000002_Node000006" class="edge">
<title>Node2&#45;&gt;Node6</title>
<g id="a_edge9_Node000002_Node000006"><a xlink:title=" ">
<path fill="none" stroke="#63b8ff" d="M267.3,-104.63C255.52,-96.98 242.2,-86.51 233.5,-74 221.54,-56.81 216.98,-31.96 215.35,-19.04"/>
<polygon fill="#63b8ff" stroke="#63b8ff" points="265.56,-107.66 275.91,-109.9 269.22,-101.69 265.56,-107.66"/>
</a>
</g>
</g>
<!-- Node2&#45;&gt;Node7 -->
<g id="edge6_Node000002_Node000007" class="edge">
<title>Node2&#45;&gt;Node7</title>
<g id="a_edge6_Node000002_Node000007"><a xlink:title=" ">
<path fill="none" stroke="#63b8ff" d="M321.51,-105.9C344.04,-96.11 374.7,-82.79 394.54,-74.17"/>
<polygon fill="#63b8ff" stroke="#63b8ff" points="319.88,-102.79 312.1,-109.98 322.67,-109.21 319.88,-102.79"/>
</a>
</g>
</g>
<!-- Node4&#45;&gt;Node5 -->
<g id="edge4_Node000004_Node000005" class="edge">
<title>Node4&#45;&gt;Node5</title>
<g id="a_edge4_Node000004_Node000005"><a xlink:title=" ">
<path fill="none" stroke="#63b8ff" d="M104.88,-48.04C94.77,-38.64 82.22,-26.98 73.82,-19.17"/>
<polygon fill="#63b8ff" stroke="#63b8ff" points="102.64,-50.74 112.34,-54.98 107.4,-45.61 102.64,-50.74"/>
</a>
</g>
</g>
<!-- Node4&#45;&gt;Node6 -->
<g id="edge5_Node000004_Node000006" class="edge">
<title>Node4&#45;&gt;Node6</title>
<g id="a_edge5_Node000004_Node000006"><a xlink:title=" ">
<path fill="none" stroke="#63b8ff" d="M145.25,-49.97C162.25,-40.28 184.63,-27.52 199.29,-19.17"/>
<polygon fill="#63b8ff" stroke="#63b8ff" points="143.4,-46.99 136.44,-54.98 146.86,-53.07 143.4,-46.99"/>
</a>
</g>
</g>
<!-- Node7&#45;&gt;Node6 -->
<g id="edge8_Node000007_Node000006" class="edge">
<title>Node7&#45;&gt;Node6</title>
<g id="a_edge8_Node000007_Node000006"><a xlink:title=" ">
<path fill="none" stroke="#63b8ff" d="M372.64,-52.41C334.71,-42.36 279.7,-27.78 245.57,-18.73"/>
<polygon fill="#63b8ff" stroke="#63b8ff" points="371.8,-55.81 382.37,-54.98 373.6,-49.04 371.8,-55.81"/>
</a>
</g>
</g>
<!-- Node8 -->
<g id="Node000008" class="node">
<title>Node8</title>
<g id="a_Node000008"><a xlink:href="WebServer_8cpp.html" target="_top" xlink:title=" ">
<polygon fill="white" stroke="#666666" points="840,-19 733,-19 733,0 840,0 840,-19"/>
<text text-anchor="middle" x="786.5" y="-7" font-family="Helvetica,sans-Serif" font-size="10.00">init/WebServer.cpp</text>
</a>
</g>
</g>
<!-- Node7&#45;&gt;Node8 -->
<g id="edge7_Node000007_Node000008" class="edge">
<title>Node7&#45;&gt;Node8</title>
<g id="a_edge7_Node000007_Node000008"><a xlink:title=" ">
<path fill="none" stroke="#63b8ff" d="M478.87,-54.33C550.75,-44.09 665.79,-27.7 732.95,-18.13"/>
<polygon fill="#63b8ff" stroke="#63b8ff" points="478,-50.92 468.59,-55.79 478.99,-57.85 478,-50.92"/>
</a>
</g>
</g>
<!-- Node14&#45;&gt;Node13 -->
<g id="edge20_Node000014_Node000013" class="edge">
<title>Node14&#45;&gt;Node13</title>
<g id="a_edge20_Node000014_Node000013"><a xlink:title=" ">
<path fill="none" stroke="#63b8ff" d="M635.23,-105.37C616.49,-95.63 591.48,-82.64 575.19,-74.17"/>
<polygon fill="#63b8ff" stroke="#63b8ff" points="633.62,-108.48 644.11,-109.98 636.85,-102.27 633.62,-108.48"/>
</a>
</g>
</g>
<!-- Node15 -->
<g id="Node000015" class="node">
<title>Node15</title>
<g id="a_Node000015"><a xlink:href="ClientConnection_8cpp.html" target="_top" xlink:title=" ">
<polygon fill="white" stroke="#666666" points="787,-74 648,-74 648,-55 787,-55 787,-74"/>
<text text-anchor="middle" x="717.5" y="-62" font-family="Helvetica,sans-Serif" font-size="10.00">init/ClientConnection.cpp</text>
</a>
</g>
</g>
<!-- Node14&#45;&gt;Node15 -->
<g id="edge19_Node000014_Node000015" class="edge">
<title>Node14&#45;&gt;Node15</title>
<g id="a_edge19_Node000014_Node000015"><a xlink:title=" ">
<path fill="none" stroke="#63b8ff" d="M677.12,-103.04C687.23,-93.64 699.78,-81.98 708.18,-74.17"/>
<polygon fill="#63b8ff" stroke="#63b8ff" points="674.6,-100.61 669.66,-109.98 679.36,-105.74 674.6,-100.61"/>
</a>
</g>
</g>
<!-- Node16&#45;&gt;Node8 -->
<g id="edge27_Node000016_Node000008" class="edge">
<title>Node16&#45;&gt;Node8</title>
<g id="a_edge27_Node000016_Node000008"><a xlink:title=" ">
<path fill="none" stroke="#63b8ff" d="M968.75,-108.81C1040.32,-100.33 1129.23,-87.33 1140.5,-74 1145.95,-67.55 1146.09,-61.33 1140.5,-55 1120.98,-32.88 934.49,-19.04 840.33,-13.4"/>
<polygon fill="#63b8ff" stroke="#63b8ff" points="968.3,-105.34 958.77,-109.97 969.11,-112.29 968.3,-105.34"/>
</a>
</g>
</g>
<!-- Node16&#45;&gt;Node10 -->
<g id="edge24_Node000016_Node000010" class="edge">
<title>Node16&#45;&gt;Node10</title>
<g id="a_edge24_Node000016_Node000010"><a xlink:title=" ">
<path fill="none" stroke="#63b8ff" d="M876.5,-99.66C876.5,-90.93 876.5,-80.99 876.5,-74.09"/>
<polygon fill="#63b8ff" stroke="#63b8ff" points="873,-99.75 876.5,-109.75 880,-99.75 873,-99.75"/>
</a>
</g>
</g>
<!-- Node16&#45;&gt;Node15 -->
<g id="edge26_Node000016_Node000015" class="edge">
<title>Node16&#45;&gt;Node15</title>
<g id="a_edge26_Node000016_Node000015"><a xlink:title=" ">
<path fill="none" stroke="#63b8ff" d="M841.4,-106.8C811.72,-96.91 769.9,-82.97 743.25,-74.08"/>
<polygon fill="#63b8ff" stroke="#63b8ff" points="840.36,-110.14 850.95,-109.98 842.57,-103.5 840.36,-110.14"/>
</a>
</g>
</g>
<!-- Node17 -->
<g id="Node000017" class="node">
<title>Node17</title>
<g id="a_Node000017"><a xlink:href="AutoIndexHandler_8cpp.html" target="_top" xlink:title=" ">
<polygon fill="white" stroke="#666666" points="1365.5,-74 1187.5,-74 1187.5,-55 1365.5,-55 1365.5,-74"/>
<text text-anchor="middle" x="1276.5" y="-62" font-family="Helvetica,sans-Serif" font-size="10.00">dispatcher/AutoIndexHandler.cpp</text>
</a>
</g>
</g>
<!-- Node16&#45;&gt;Node17 -->
<g id="edge22_Node000016_Node000017" class="edge">
<title>Node16&#45;&gt;Node17</title>
<g id="a_edge22_Node000016_Node000017"><a xlink:title=" ">
<path fill="none" stroke="#63b8ff" d="M951.09,-108.62C1026.18,-98.67 1140.81,-83.48 1212.06,-74.04"/>
<polygon fill="#63b8ff" stroke="#63b8ff" points="950.22,-105.2 940.77,-109.98 951.14,-112.14 950.22,-105.2"/>
</a>
</g>
</g>
<!-- Node18 -->
<g id="Node000018" class="node">
<title>Node18</title>
<g id="a_Node000018"><a xlink:href="CgiHandler_8cpp.html" target="_top" xlink:title=" ">
<polygon fill="white" stroke="#666666" points="1527.5,-74 1383.5,-74 1383.5,-55 1527.5,-55 1527.5,-74"/>
<text text-anchor="middle" x="1455.5" y="-62" font-family="Helvetica,sans-Serif" font-size="10.00">dispatcher/CgiHandler.cpp</text>
</a>
</g>
</g>
<!-- Node16&#45;&gt;Node18 -->
<g id="edge23_Node000016_Node000018" class="edge">
<title>Node16&#45;&gt;Node18</title>
<g id="a_edge23_Node000016_Node000018"><a xlink:title=" ">
<path fill="none" stroke="#63b8ff" d="M969.8,-109.98C1151.16,-93.69 1197.88,-91.12 1374.5,-74 1377.31,-73.73 1380.18,-73.45 1383.08,-73.16"/>
<polygon fill="#63b8ff" stroke="#63b8ff" points="969.3,-106.51 959.65,-110.89 969.93,-113.48 969.3,-106.51"/>
</a>
</g>
</g>
<!-- Node19 -->
<g id="Node000019" class="node">
<title>Node19</title>
<g id="a_Node000019"><a xlink:href="StaticPageHandler_8cpp.html" target="_top" xlink:title=" ">
<polygon fill="white" stroke="#666666" points="1725,-74 1546,-74 1546,-55 1725,-55 1725,-74"/>
<text text-anchor="middle" x="1635.5" y="-62" font-family="Helvetica,sans-Serif" font-size="10.00">dispatcher/StaticPageHandler.cpp</text>
</a>
</g>
</g>
<!-- Node16&#45;&gt;Node19 -->
<g id="edge25_Node000016_Node000019" class="edge">
<title>Node16&#45;&gt;Node19</title>
<g id="a_edge25_Node000016_Node000019"><a xlink:title=" ">
<path fill="none" stroke="#63b8ff" d="M969.89,-110C1222.96,-90.56 1288.01,-92.55 1536.5,-74 1539.6,-73.77 1542.75,-73.53 1545.93,-73.28"/>
<polygon fill="#63b8ff" stroke="#63b8ff" points="969.34,-106.53 959.64,-110.79 969.88,-113.51 969.34,-106.53"/>
</a>
</g>
</g>
<!-- Node20 -->
<g id="Node000020" class="node">
<title>Node20</title>
<g id="a_Node000020"><a xlink:href="ResponseBuilder_8cpp.html" target="_top" xlink:title=" ">
<polygon fill="white" stroke="#666666" points="1131,-74 966,-74 966,-55 1131,-55 1131,-74"/>
<text text-anchor="middle" x="1048.5" y="-62" font-family="Helvetica,sans-Serif" font-size="10.00">response/ResponseBuilder.cpp</text>
</a>
</g>
</g>
<!-- Node16&#45;&gt;Node20 -->
<g id="edge28_Node000016_Node000020" class="edge">
<title>Node16&#45;&gt;Node20</title>
<g id="a_edge28_Node000016_Node000020"><a xlink:title=" ">
<path fill="none" stroke="#63b8ff" d="M914.06,-106.93C946.18,-97.03 991.69,-83.01 1020.65,-74.08"/>
<polygon fill="#63b8ff" stroke="#63b8ff" points="912.66,-103.69 904.13,-109.98 914.72,-110.38 912.66,-103.69"/>
</a>
</g>
</g>
</g>
</svg>
