<?xml version="1.0" encoding="UTF-8" standalone="no"?>
<!DOCTYPE svg PUBLIC "-//W3C//DTD SVG 1.1//EN"
 "http://www.w3.org/Graphics/SVG/1.1/DTD/svg11.dtd">
<!-- Generated by graphviz version 2.43.0 (0)
 -->
<!-- Title: init/ServerSocket.cpp Pages: 1 -->
<svg width="1399pt" height="302pt"
 viewBox="0.00 0.00 1398.56 302.00" xmlns="http://www.w3.org/2000/svg" xmlns:xlink="http://www.w3.org/1999/xlink">
<g id="graph0" class="graph" transform="scale(1 1) rotate(0) translate(4 298)">
<title>init/ServerSocket.cpp</title>
<!-- Node1 -->
<g id="Node000001" class="node">
<title>Node1</title>
<g id="a_Node000001"><a xlink:title=" ">
<polygon fill="#999999" stroke="#666666" points="757.06,-294 638.06,-294 638.06,-275 757.06,-275 757.06,-294"/>
<text text-anchor="middle" x="697.56" y="-282" font-family="Helvetica,sans-Serif" font-size="10.00">init/ServerSocket.cpp</text>
</a>
</g>
</g>
<!-- Node2 -->
<g id="Node000002" class="node">
<title>Node2</title>
<g id="a_Node000002"><a xlink:href="ServerSocket_8hpp.html" target="_top" xlink:title=" ">
<polygon fill="white" stroke="#666666" points="303.56,-239 183.56,-239 183.56,-220 303.56,-220 303.56,-239"/>
<text text-anchor="middle" x="243.56" y="-227" font-family="Helvetica,sans-Serif" font-size="10.00">init/ServerSocket.hpp</text>
</a>
</g>
</g>
<!-- Node1&#45;&gt;Node2 -->
<g id="edge1_Node000001_Node000002" class="edge">
<title>Node1&#45;&gt;Node2</title>
<g id="a_edge1_Node000001_Node000002"><a xlink:title=" ">
<path fill="none" stroke="#63b8ff" d="M637.74,-276.52C554.16,-266.76 402.72,-249.08 313.86,-238.71"/>
<polygon fill="#63b8ff" stroke="#63b8ff" points="314.21,-235.22 303.87,-237.54 313.4,-242.18 314.21,-235.22"/>
</a>
</g>
</g>
<!-- Node3 -->
<g id="Node000003" class="node">
<title>Node3</title>
<g id="a_Node000003"><a xlink:title=" ">
<polygon fill="#e0e0e0" stroke="#999999" points="819.56,-19 775.56,-19 775.56,0 819.56,0 819.56,-19"/>
<text text-anchor="middle" x="797.56" y="-7" font-family="Helvetica,sans-Serif" font-size="10.00">string</text>
</a>
</g>
</g>
<!-- Node1&#45;&gt;Node3 -->
<g id="edge30_Node000001_Node000003" class="edge">
<title>Node1&#45;&gt;Node3</title>
<g id="a_edge30_Node000001_Node000003"><a xlink:title=" ">
<path fill="none" stroke="#63b8ff" d="M757.16,-281.21C879.71,-276.07 1156.11,-262.26 1247.56,-239 1314.95,-221.86 1390.56,-245.04 1390.56,-175.5 1390.56,-175.5 1390.56,-175.5 1390.56,-118.5 1390.56,-60.99 953.24,-22.61 829.7,-12.91"/>
<polygon fill="#63b8ff" stroke="#63b8ff" points="829.96,-9.42 819.72,-12.14 829.42,-16.4 829.96,-9.42"/>
</a>
</g>
</g>
<!-- Node4 -->
<g id="Node000004" class="node">
<title>Node4</title>
<g id="a_Node000004"><a xlink:title=" ">
<polygon fill="#e0e0e0" stroke="#999999" points="1033.06,-74 986.06,-74 986.06,-55 1033.06,-55 1033.06,-74"/>
<text text-anchor="middle" x="1009.56" y="-62" font-family="Helvetica,sans-Serif" font-size="10.00">vector</text>
</a>
</g>
</g>
<!-- Node1&#45;&gt;Node4 -->
<g id="edge32_Node000001_Node000004" class="edge">
<title>Node1&#45;&gt;Node4</title>
<g id="a_edge32_Node000001_Node000004"><a xlink:title=" ">
<path fill="none" stroke="#63b8ff" d="M638,-283.97C556.06,-283.21 414.97,-276.32 382.56,-239 377.02,-232.62 377.35,-226.65 382.56,-220 464.54,-115.43 827.89,-107.49 975.92,-74.01"/>
<polygon fill="#63b8ff" stroke="#63b8ff" points="976.86,-77.38 985.77,-71.66 975.23,-70.57 976.86,-77.38"/>
</a>
</g>
</g>
<!-- Node16 -->
<g id="Node000016" class="node">
<title>Node16</title>
<g id="a_Node000016"><a xlink:title=" ">
<polygon fill="#e0e0e0" stroke="#999999" points="477.06,-239 400.06,-239 400.06,-220 477.06,-220 477.06,-239"/>
<text text-anchor="middle" x="438.56" y="-227" font-family="Helvetica,sans-Serif" font-size="10.00">sys/socket.h</text>
</a>
</g>
</g>
<!-- Node1&#45;&gt;Node16 -->
<g id="edge22_Node000001_Node000016" class="edge">
<title>Node1&#45;&gt;Node16</title>
<g id="a_edge22_Node000001_Node000016"><a xlink:title=" ">
<path fill="none" stroke="#63b8ff" d="M655.94,-274.98C609.89,-265.56 535.75,-250.39 487.08,-240.43"/>
<polygon fill="#63b8ff" stroke="#63b8ff" points="487.61,-236.96 477.11,-238.39 486.2,-243.82 487.61,-236.96"/>
</a>
</g>
</g>
<!-- Node17 -->
<g id="Node000017" class="node">
<title>Node17</title>
<g id="a_Node000017"><a xlink:title=" ">
<polygon fill="#e0e0e0" stroke="#999999" points="548.06,-239 495.06,-239 495.06,-220 548.06,-220 548.06,-239"/>
<text text-anchor="middle" x="521.56" y="-227" font-family="Helvetica,sans-Serif" font-size="10.00">netdb.h</text>
</a>
</g>
</g>
<!-- Node1&#45;&gt;Node17 -->
<g id="edge23_Node000001_Node000017" class="edge">
<title>Node1&#45;&gt;Node17</title>
<g id="a_edge23_Node000001_Node000017"><a xlink:title=" ">
<path fill="none" stroke="#63b8ff" d="M669.28,-274.98C639.07,-265.89 591.1,-251.44 558.06,-241.49"/>
<polygon fill="#63b8ff" stroke="#63b8ff" points="558.91,-238.09 548.32,-238.56 556.89,-244.79 558.91,-238.09"/>
</a>
</g>
</g>
<!-- Node18 -->
<g id="Node000018" class="node">
<title>Node18</title>
<g id="a_Node000018"><a xlink:title=" ">
<polygon fill="#e0e0e0" stroke="#999999" points="622.56,-239 566.56,-239 566.56,-220 622.56,-220 622.56,-239"/>
<text text-anchor="middle" x="594.56" y="-227" font-family="Helvetica,sans-Serif" font-size="10.00">unistd.h</text>
</a>
</g>
</g>
<!-- Node1&#45;&gt;Node18 -->
<g id="edge24_Node000001_Node000018" class="edge">
<title>Node1&#45;&gt;Node18</title>
<g id="a_edge24_Node000001_Node000018"><a xlink:title=" ">
<path fill="none" stroke="#63b8ff" d="M681.01,-274.98C664.66,-266.57 639.42,-253.59 620.43,-243.81"/>
<polygon fill="#63b8ff" stroke="#63b8ff" points="621.9,-240.63 611.41,-239.17 618.7,-246.86 621.9,-240.63"/>
</a>
</g>
</g>
<!-- Node19 -->
<g id="Node000019" class="node">
<title>Node19</title>
<g id="a_Node000019"><a xlink:title=" ">
<polygon fill="#e0e0e0" stroke="#999999" points="688.06,-239 641.06,-239 641.06,-220 688.06,-220 688.06,-239"/>
<text text-anchor="middle" x="664.56" y="-227" font-family="Helvetica,sans-Serif" font-size="10.00">fcntl.h</text>
</a>
</g>
</g>
<!-- Node1&#45;&gt;Node19 -->
<g id="edge25_Node000001_Node000019" class="edge">
<title>Node1&#45;&gt;Node19</title>
<g id="a_edge25_Node000001_Node000019"><a xlink:title=" ">
<path fill="none" stroke="#63b8ff" d="M692.11,-274.75C687.54,-267.42 680.89,-256.73 675.26,-247.7"/>
<polygon fill="#63b8ff" stroke="#63b8ff" points="678.16,-245.73 669.9,-239.09 672.22,-249.43 678.16,-245.73"/>
</a>
</g>
</g>
<!-- Node20 -->
<g id="Node000020" class="node">
<title>Node20</title>
<g id="a_Node000020"><a xlink:title=" ">
<polygon fill="#e0e0e0" stroke="#999999" points="757.06,-239 706.06,-239 706.06,-220 757.06,-220 757.06,-239"/>
<text text-anchor="middle" x="731.56" y="-227" font-family="Helvetica,sans-Serif" font-size="10.00">errno.h</text>
</a>
</g>
</g>
<!-- Node1&#45;&gt;Node20 -->
<g id="edge26_Node000001_Node000020" class="edge">
<title>Node1&#45;&gt;Node20</title>
<g id="a_edge26_Node000001_Node000020"><a xlink:title=" ">
<path fill="none" stroke="#63b8ff" d="M703.17,-274.75C707.87,-267.42 714.73,-256.73 720.53,-247.7"/>
<polygon fill="#63b8ff" stroke="#63b8ff" points="723.59,-249.4 726.05,-239.09 717.7,-245.62 723.59,-249.4"/>
</a>
</g>
</g>
<!-- Node21 -->
<g id="Node000021" class="node">
<title>Node21</title>
<g id="a_Node000021"><a xlink:title=" ">
<polygon fill="#e0e0e0" stroke="#999999" points="825.56,-239 775.56,-239 775.56,-220 825.56,-220 825.56,-239"/>
<text text-anchor="middle" x="800.56" y="-227" font-family="Helvetica,sans-Serif" font-size="10.00">cstring</text>
</a>
</g>
</g>
<!-- Node1&#45;&gt;Node21 -->
<g id="edge27_Node000001_Node000021" class="edge">
<title>Node1&#45;&gt;Node21</title>
<g id="a_edge27_Node000001_Node000021"><a xlink:title=" ">
<path fill="none" stroke="#63b8ff" d="M714.11,-274.98C730.45,-266.57 755.69,-253.59 774.69,-243.81"/>
<polygon fill="#63b8ff" stroke="#63b8ff" points="776.42,-246.86 783.71,-239.17 773.21,-240.63 776.42,-246.86"/>
</a>
</g>
</g>
<!-- Node22 -->
<g id="Node000022" class="node">
<title>Node22</title>
<g id="a_Node000022"><a xlink:title=" ">
<polygon fill="#e0e0e0" stroke="#999999" points="909.06,-239 844.06,-239 844.06,-220 909.06,-220 909.06,-239"/>
<text text-anchor="middle" x="876.56" y="-227" font-family="Helvetica,sans-Serif" font-size="10.00">exception</text>
</a>
</g>
</g>
<!-- Node1&#45;&gt;Node22 -->
<g id="edge28_Node000001_Node000022" class="edge">
<title>Node1&#45;&gt;Node22</title>
<g id="a_edge28_Node000001_Node000022"><a xlink:title=" ">
<path fill="none" stroke="#63b8ff" d="M726.32,-274.98C756.5,-266.05 804.13,-251.94 837.66,-242.02"/>
<polygon fill="#63b8ff" stroke="#63b8ff" points="838.98,-245.28 847.57,-239.08 836.99,-238.57 838.98,-245.28"/>
</a>
</g>
</g>
<!-- Node23 -->
<g id="Node000023" class="node">
<title>Node23</title>
<g id="a_Node000023"><a xlink:title=" ">
<polygon fill="#e0e0e0" stroke="#999999" points="992.06,-239 927.06,-239 927.06,-220 992.06,-220 992.06,-239"/>
<text text-anchor="middle" x="959.56" y="-227" font-family="Helvetica,sans-Serif" font-size="10.00">stdexcept</text>
</a>
</g>
</g>
<!-- Node1&#45;&gt;Node23 -->
<g id="edge29_Node000001_Node000023" class="edge">
<title>Node1&#45;&gt;Node23</title>
<g id="a_edge29_Node000001_Node000023"><a xlink:title=" ">
<path fill="none" stroke="#63b8ff" d="M739.65,-274.98C788.27,-265.15 867.82,-249.06 916.74,-239.16"/>
<polygon fill="#63b8ff" stroke="#63b8ff" points="917.58,-242.56 926.69,-237.15 916.19,-235.7 917.58,-242.56"/>
</a>
</g>
</g>
<!-- Node24 -->
<g id="Node000024" class="node">
<title>Node24</title>
<g id="a_Node000024"><a xlink:title=" ">
<polygon fill="#e0e0e0" stroke="#999999" points="729.56,-184 669.56,-184 669.56,-165 729.56,-165 729.56,-184"/>
<text text-anchor="middle" x="699.56" y="-172" font-family="Helvetica,sans-Serif" font-size="10.00">iostream</text>
</a>
</g>
</g>
<!-- Node1&#45;&gt;Node24 -->
<g id="edge31_Node000001_Node000024" class="edge">
<title>Node1&#45;&gt;Node24</title>
<g id="a_edge31_Node000001_Node000024"><a xlink:title=" ">
<path fill="none" stroke="#63b8ff" d="M637.82,-283.71C557.71,-282.58 421.88,-275.19 390.56,-239 385.03,-232.61 385.03,-226.38 390.56,-220 407.94,-199.93 579.75,-184.51 659.4,-178.38"/>
<polygon fill="#63b8ff" stroke="#63b8ff" points="659.84,-181.86 669.55,-177.62 659.31,-174.88 659.84,-181.86"/>
</a>
</g>
</g>
<!-- Node25 -->
<g id="Node000025" class="node">
<title>Node25</title>
<g id="a_Node000025"><a xlink:href="Logger_8hpp.html" target="_top" xlink:title=" ">
<polygon fill="white" stroke="#666666" points="1104.56,-239 1010.56,-239 1010.56,-220 1104.56,-220 1104.56,-239"/>
<text text-anchor="middle" x="1057.56" y="-227" font-family="Helvetica,sans-Serif" font-size="10.00">utils/Logger.hpp</text>
</a>
</g>
</g>
<!-- Node1&#45;&gt;Node25 -->
<g id="edge33_Node000001_Node000025" class="edge">
<title>Node1&#45;&gt;Node25</title>
<g id="a_edge33_Node000001_Node000025"><a xlink:title=" ">
<path fill="none" stroke="#63b8ff" d="M756.42,-274.98C815.51,-266.4 909.46,-252.71 1000.56,-239.14"/>
<polygon fill="#63b8ff" stroke="#63b8ff" points="1001.13,-242.6 1010.51,-237.66 1000.1,-235.67 1001.13,-242.6"/>
</a>
</g>
</g>
<!-- Node28 -->
<g id="Node000028" class="node">
<title>Node28</title>
<g id="a_Node000028"><a xlink:href="string__utils_8hpp.html" target="_top" xlink:title="Collection of inline string utility functions used across Webservinho.">
<polygon fill="white" stroke="#666666" points="1238.56,-239 1122.56,-239 1122.56,-220 1238.56,-220 1238.56,-239"/>
<text text-anchor="middle" x="1180.56" y="-227" font-family="Helvetica,sans-Serif" font-size="10.00">utils/string_utils.hpp</text>
</a>
</g>
</g>
<!-- Node1&#45;&gt;Node28 -->
<g id="edge38_Node000001_Node000028" class="edge">
<title>Node1&#45;&gt;Node28</title>
<g id="a_edge38_Node000001_Node000028"><a xlink:title=" ">
<path fill="none" stroke="#63b8ff" d="M757.19,-277.49C836.02,-269.47 979.54,-254.57 1112.5,-239.1"/>
<polygon fill="#63b8ff" stroke="#63b8ff" points="1112.93,-242.58 1122.46,-237.94 1112.12,-235.62 1112.93,-242.58"/>
</a>
</g>
</g>
<!-- Node2&#45;&gt;Node3 -->
<g id="edge2_Node000002_Node000003" class="edge">
<title>Node2&#45;&gt;Node3</title>
<g id="a_edge2_Node000002_Node000003"><a xlink:title=" ">
<path fill="none" stroke="#63b8ff" d="M183.38,-221.78C126.98,-211.93 45.65,-187.81 6.56,-129 -5,-111.62 -0.23,-70.45 17.56,-55 46.19,-30.13 620.23,-14.75 764.75,-11.26"/>
<polygon fill="#63b8ff" stroke="#63b8ff" points="765.24,-14.75 775.16,-11.01 765.08,-7.75 765.24,-14.75"/>
</a>
</g>
</g>
<!-- Node2&#45;&gt;Node4 -->
<g id="edge3_Node000002_Node000004" class="edge">
<title>Node2&#45;&gt;Node4</title>
<g id="a_edge3_Node000002_Node000004"><a xlink:title=" ">
<path fill="none" stroke="#63b8ff" d="M260.6,-219.98C314.94,-192.81 480.56,-110 480.56,-110 690.57,-52.32 756.51,-108.03 975.98,-73.73"/>
<polygon fill="#63b8ff" stroke="#63b8ff" points="976.55,-77.19 985.87,-72.14 975.44,-70.27 976.55,-77.19"/>
</a>
</g>
</g>
<!-- Node5 -->
<g id="Node000005" class="node">
<title>Node5</title>
<g id="a_Node000005"><a xlink:href="ClientConnection_8hpp.html" target="_top" xlink:title=" ">
<polygon fill="white" stroke="#666666" points="312.56,-184 172.56,-184 172.56,-165 312.56,-165 312.56,-184"/>
<text text-anchor="middle" x="242.56" y="-172" font-family="Helvetica,sans-Serif" font-size="10.00">init/ClientConnection.hpp</text>
</a>
</g>
</g>
<!-- Node2&#45;&gt;Node5 -->
<g id="edge4_Node000002_Node000005" class="edge">
<title>Node2&#45;&gt;Node5</title>
<g id="a_edge4_Node000002_Node000005"><a xlink:title=" ">
<path fill="none" stroke="#63b8ff" d="M243.39,-219.75C243.26,-212.8 243.07,-202.85 242.91,-194.13"/>
<polygon fill="#63b8ff" stroke="#63b8ff" points="246.41,-194.02 242.72,-184.09 239.41,-194.15 246.41,-194.02"/>
</a>
</g>
</g>
<!-- Node5&#45;&gt;Node3 -->
<g id="edge5_Node000005_Node000003" class="edge">
<title>Node5&#45;&gt;Node3</title>
<g id="a_edge5_Node000005_Node000003"><a xlink:title=" ">
<path fill="none" stroke="#63b8ff" d="M172.54,-169.24C113.67,-164.02 36.08,-152.74 16.56,-129 -0.18,-108.64 16.7,-70.28 37.56,-55 96.86,-11.56 627.07,-10.01 764.92,-10.35"/>
<polygon fill="#63b8ff" stroke="#63b8ff" points="765.23,-13.86 775.24,-10.39 765.25,-6.86 765.23,-13.86"/>
</a>
</g>
</g>
<!-- Node6 -->
<g id="Node000006" class="node">
<title>Node6</title>
<g id="a_Node000006"><a xlink:title=" ">
<polygon fill="#e0e0e0" stroke="#999999" points="533.56,-129 489.56,-129 489.56,-110 533.56,-110 533.56,-129"/>
<text text-anchor="middle" x="511.56" y="-117" font-family="Helvetica,sans-Serif" font-size="10.00">ctime</text>
</a>
</g>
</g>
<!-- Node5&#45;&gt;Node6 -->
<g id="edge6_Node000005_Node000006" class="edge">
<title>Node5&#45;&gt;Node6</title>
<g id="a_edge6_Node000005_Node000006"><a xlink:title=" ">
<path fill="none" stroke="#63b8ff" d="M285.78,-164.98C339.88,-154.33 431.28,-136.32 479.53,-126.81"/>
<polygon fill="#63b8ff" stroke="#63b8ff" points="480.28,-130.23 489.42,-124.86 478.93,-123.36 480.28,-130.23"/>
</a>
</g>
</g>
<!-- Node7 -->
<g id="Node000007" class="node">
<title>Node7</title>
<g id="a_Node000007"><a xlink:title=" ">
<polygon fill="#e0e0e0" stroke="#999999" points="277.56,-129 205.56,-129 205.56,-110 277.56,-110 277.56,-129"/>
<text text-anchor="middle" x="241.56" y="-117" font-family="Helvetica,sans-Serif" font-size="10.00">sys/types.h</text>
</a>
</g>
</g>
<!-- Node5&#45;&gt;Node7 -->
<g id="edge7_Node000005_Node000007" class="edge">
<title>Node5&#45;&gt;Node7</title>
<g id="a_edge7_Node000005_Node000007"><a xlink:title=" ">
<path fill="none" stroke="#63b8ff" d="M242.39,-164.75C242.26,-157.8 242.07,-147.85 241.91,-139.13"/>
<polygon fill="#63b8ff" stroke="#63b8ff" points="245.41,-139.02 241.72,-129.09 238.41,-139.15 245.41,-139.02"/>
</a>
</g>
</g>
<!-- Node8 -->
<g id="Node000008" class="node">
<title>Node8</title>
<g id="a_Node000008"><a xlink:href="HttpRequest_8hpp.html" target="_top" xlink:title=" ">
<polygon fill="white" stroke="#666666" points="433.56,-129 295.56,-129 295.56,-110 433.56,-110 433.56,-129"/>
<text text-anchor="middle" x="364.56" y="-117" font-family="Helvetica,sans-Serif" font-size="10.00">request/HttpRequest.hpp</text>
</a>
</g>
</g>
<!-- Node5&#45;&gt;Node8 -->
<g id="edge8_Node000005_Node000008" class="edge">
<title>Node5&#45;&gt;Node8</title>
<g id="a_edge8_Node000005_Node000008"><a xlink:title=" ">
<path fill="none" stroke="#63b8ff" d="M262.16,-164.98C281.87,-156.42 312.51,-143.11 335.14,-133.28"/>
<polygon fill="#63b8ff" stroke="#63b8ff" points="336.82,-136.37 344.6,-129.17 334.03,-129.94 336.82,-136.37"/>
</a>
</g>
</g>
<!-- Node15 -->
<g id="Node000015" class="node">
<title>Node15</title>
<g id="a_Node000015"><a xlink:href="HttpResponse_8hpp.html" target="_top" xlink:title=" ">
<polygon fill="white" stroke="#666666" points="179.06,-129 26.06,-129 26.06,-110 179.06,-110 179.06,-129"/>
<text text-anchor="middle" x="102.56" y="-117" font-family="Helvetica,sans-Serif" font-size="10.00">response/HttpResponse.hpp</text>
</a>
</g>
</g>
<!-- Node5&#45;&gt;Node15 -->
<g id="edge18_Node000005_Node000015" class="edge">
<title>Node5&#45;&gt;Node15</title>
<g id="a_edge18_Node000005_Node000015"><a xlink:title=" ">
<path fill="none" stroke="#63b8ff" d="M220.06,-164.98C197.03,-156.27 161.02,-142.63 134.93,-132.75"/>
<polygon fill="#63b8ff" stroke="#63b8ff" points="136.05,-129.44 125.46,-129.17 133.57,-135.98 136.05,-129.44"/>
</a>
</g>
</g>
<!-- Node8&#45;&gt;Node3 -->
<g id="edge9_Node000008_Node000003" class="edge">
<title>Node8&#45;&gt;Node3</title>
<g id="a_edge9_Node000008_Node000003"><a xlink:title=" ">
<path fill="none" stroke="#63b8ff" d="M433.98,-111.28C551.45,-99.03 776.91,-75.37 778.56,-74 791.54,-63.2 795.88,-43.92 797.22,-29.42"/>
<polygon fill="#63b8ff" stroke="#63b8ff" points="800.74,-29.25 797.76,-19.08 793.75,-28.88 800.74,-29.25"/>
</a>
</g>
</g>
<!-- Node8&#45;&gt;Node4 -->
<g id="edge11_Node000008_Node000004" class="edge">
<title>Node8&#45;&gt;Node4</title>
<g id="a_edge11_Node000008_Node000004"><a xlink:title=" ">
<path fill="none" stroke="#63b8ff" d="M433.83,-111.23C438.48,-110.79 443.08,-110.38 447.56,-110 679.04,-90.28 742.13,-110.95 975.7,-73.79"/>
<polygon fill="#63b8ff" stroke="#63b8ff" points="976.56,-77.2 985.87,-72.16 975.45,-70.29 976.56,-77.2"/>
</a>
</g>
</g>
<!-- Node9 -->
<g id="Node000009" class="node">
<title>Node9</title>
<g id="a_Node000009"><a xlink:title=" ">
<polygon fill="#e0e0e0" stroke="#999999" points="93.56,-74 55.56,-74 55.56,-55 93.56,-55 93.56,-74"/>
<text text-anchor="middle" x="74.56" y="-62" font-family="Helvetica,sans-Serif" font-size="10.00">map</text>
</a>
</g>
</g>
<!-- Node8&#45;&gt;Node9 -->
<g id="edge10_Node000008_Node000009" class="edge">
<title>Node8&#45;&gt;Node9</title>
<g id="a_edge10_Node000008_Node000009"><a xlink:title=" ">
<path fill="none" stroke="#63b8ff" d="M300.84,-109.98C249.8,-102.63 176.23,-90.86 103.53,-73.98"/>
<polygon fill="#63b8ff" stroke="#63b8ff" points="104.29,-70.56 93.75,-71.68 102.68,-77.38 104.29,-70.56"/>
</a>
</g>
</g>
<!-- Node10 -->
<g id="Node000010" class="node">
<title>Node10</title>
<g id="a_Node000010"><a xlink:href="RequestMethod_8hpp.html" target="_top" xlink:title=" ">
<polygon fill="white" stroke="#666666" points="769.56,-74 615.56,-74 615.56,-55 769.56,-55 769.56,-74"/>
<text text-anchor="middle" x="692.56" y="-62" font-family="Helvetica,sans-Serif" font-size="10.00">request/RequestMethod.hpp</text>
</a>
</g>
</g>
<!-- Node8&#45;&gt;Node10 -->
<g id="edge12_Node000008_Node000010" class="edge">
<title>Node8&#45;&gt;Node10</title>
<g id="a_edge12_Node000008_Node000010"><a xlink:title=" ">
<path fill="none" stroke="#63b8ff" d="M417.26,-109.98C475.15,-100.63 568.08,-85.61 629.72,-75.65"/>
<polygon fill="#63b8ff" stroke="#63b8ff" points="630.4,-79.09 639.72,-74.04 629.29,-72.18 630.4,-79.09"/>
</a>
</g>
</g>
<!-- Node11 -->
<g id="Node000011" class="node">
<title>Node11</title>
<g id="a_Node000011"><a xlink:href="RequestMeta_8hpp.html" target="_top" xlink:title=" ">
<polygon fill="white" stroke="#666666" points="967.56,-74 825.56,-74 825.56,-55 967.56,-55 967.56,-74"/>
<text text-anchor="middle" x="896.56" y="-62" font-family="Helvetica,sans-Serif" font-size="10.00">request/RequestMeta.hpp</text>
</a>
</g>
</g>
<!-- Node8&#45;&gt;Node11 -->
<g id="edge13_Node000008_Node000011" class="edge">
<title>Node8&#45;&gt;Node11</title>
<g id="a_edge13_Node000008_Node000011"><a xlink:title=" ">
<path fill="none" stroke="#63b8ff" d="M433.85,-111.39C438.49,-110.92 443.09,-110.45 447.56,-110 609.31,-93.72 649.79,-90.09 811.56,-74 812.66,-73.89 813.78,-73.78 814.9,-73.67"/>
<polygon fill="#63b8ff" stroke="#63b8ff" points="815.53,-77.12 825.14,-72.65 814.84,-70.16 815.53,-77.12"/>
</a>
</g>
</g>
<!-- Node12 -->
<g id="Node000012" class="node">
<title>Node12</title>
<g id="a_Node000012"><a xlink:href="RequestState_8hpp.html" target="_top" xlink:title=" ">
<polygon fill="white" stroke="#666666" points="436.06,-74 293.06,-74 293.06,-55 436.06,-55 436.06,-74"/>
<text text-anchor="middle" x="364.56" y="-62" font-family="Helvetica,sans-Serif" font-size="10.00">request/RequestState.hpp</text>
</a>
</g>
</g>
<!-- Node8&#45;&gt;Node12 -->
<g id="edge15_Node000008_Node000012" class="edge">
<title>Node8&#45;&gt;Node12</title>
<g id="a_edge15_Node000008_Node000012"><a xlink:title=" ">
<path fill="none" stroke="#63b8ff" d="M364.56,-109.75C364.56,-102.8 364.56,-92.85 364.56,-84.13"/>
<polygon fill="#63b8ff" stroke="#63b8ff" points="368.06,-84.09 364.56,-74.09 361.06,-84.09 368.06,-84.09"/>
</a>
</g>
</g>
<!-- Node13 -->
<g id="Node000013" class="node">
<title>Node13</title>
<g id="a_Node000013"><a xlink:href="ResponseStatus_8hpp.html" target="_top" xlink:title=" ">
<polygon fill="white" stroke="#666666" points="275.06,-74 112.06,-74 112.06,-55 275.06,-55 275.06,-74"/>
<text text-anchor="middle" x="193.56" y="-62" font-family="Helvetica,sans-Serif" font-size="10.00">response/ResponseStatus.hpp</text>
</a>
</g>
</g>
<!-- Node8&#45;&gt;Node13 -->
<g id="edge16_Node000008_Node000013" class="edge">
<title>Node8&#45;&gt;Node13</title>
<g id="a_edge16_Node000008_Node000013"><a xlink:title=" ">
<path fill="none" stroke="#63b8ff" d="M337.08,-109.98C308.37,-101.09 263.14,-87.07 231.13,-77.15"/>
<polygon fill="#63b8ff" stroke="#63b8ff" points="231.83,-73.7 221.25,-74.08 229.76,-80.39 231.83,-73.7"/>
</a>
</g>
</g>
<!-- Node14 -->
<g id="Node000014" class="node">
<title>Node14</title>
<g id="a_Node000014"><a xlink:href="RouteType_8hpp.html" target="_top" xlink:title=" ">
<polygon fill="white" stroke="#666666" points="597.06,-74 454.06,-74 454.06,-55 597.06,-55 597.06,-74"/>
<text text-anchor="middle" x="525.56" y="-62" font-family="Helvetica,sans-Serif" font-size="10.00">dispatcher/RouteType.hpp</text>
</a>
</g>
</g>
<!-- Node8&#45;&gt;Node14 -->
<g id="edge17_Node000008_Node000014" class="edge">
<title>Node8&#45;&gt;Node14</title>
<g id="a_edge17_Node000008_Node000014"><a xlink:title=" ">
<path fill="none" stroke="#63b8ff" d="M390.42,-109.98C417.34,-101.13 459.68,-87.19 489.78,-77.28"/>
<polygon fill="#63b8ff" stroke="#63b8ff" points="491.08,-80.53 499.49,-74.08 488.89,-73.88 491.08,-80.53"/>
</a>
</g>
</g>
<!-- Node11&#45;&gt;Node3 -->
<g id="edge14_Node000011_Node000003" class="edge">
<title>Node11&#45;&gt;Node3</title>
<g id="a_edge14_Node000011_Node000003"><a xlink:title=" ">
<path fill="none" stroke="#63b8ff" d="M880.65,-54.98C865.01,-46.61 840.9,-33.7 822.67,-23.95"/>
<polygon fill="#63b8ff" stroke="#63b8ff" points="824.22,-20.8 813.75,-19.17 820.92,-26.98 824.22,-20.8"/>
</a>
</g>
</g>
<!-- Node15&#45;&gt;Node3 -->
<g id="edge19_Node000015_Node000003" class="edge">
<title>Node15&#45;&gt;Node3</title>
<g id="a_edge19_Node000015_Node000003"><a xlink:title=" ">
<path fill="none" stroke="#63b8ff" d="M85.51,-109.92C63.08,-97.56 28.51,-74.15 46.56,-55 71.58,-28.45 624.98,-14.35 765.4,-11.19"/>
<polygon fill="#63b8ff" stroke="#63b8ff" points="765.59,-14.69 775.51,-10.96 765.44,-7.69 765.59,-14.69"/>
</a>
</g>
</g>
<!-- Node15&#45;&gt;Node9 -->
<g id="edge20_Node000015_Node000009" class="edge">
<title>Node15&#45;&gt;Node9</title>
<g id="a_edge20_Node000015_Node000009"><a xlink:title=" ">
<path fill="none" stroke="#63b8ff" d="M97.93,-109.75C94.1,-102.49 88.53,-91.95 83.79,-82.98"/>
<polygon fill="#63b8ff" stroke="#63b8ff" points="86.86,-81.3 79.09,-74.09 80.67,-84.57 86.86,-81.3"/>
</a>
</g>
</g>
<!-- Node15&#45;&gt;Node13 -->
<g id="edge21_Node000015_Node000013" class="edge">
<title>Node15&#45;&gt;Node13</title>
<g id="a_edge21_Node000015_Node000013"><a xlink:title=" ">
<path fill="none" stroke="#63b8ff" d="M117.18,-109.98C131.42,-101.69 153.31,-88.94 170.01,-79.22"/>
<polygon fill="#63b8ff" stroke="#63b8ff" points="171.79,-82.23 178.67,-74.17 168.27,-76.18 171.79,-82.23"/>
</a>
</g>
</g>
<!-- Node25&#45;&gt;Node6 -->
<g id="edge34_Node000025_Node000006" class="edge">
<title>Node25&#45;&gt;Node6</title>
<g id="a_edge34_Node000025_Node000006"><a xlink:title=" ">
<path fill="none" stroke="#63b8ff" d="M1029.96,-219.86C1004,-211.49 964.19,-198.03 930.56,-184 912.76,-176.58 910.06,-170.42 891.56,-165 766.87,-128.47 610.86,-121.79 544.2,-120.66"/>
<polygon fill="#63b8ff" stroke="#63b8ff" points="543.97,-117.16 533.92,-120.52 543.87,-124.16 543.97,-117.16"/>
</a>
</g>
</g>
<!-- Node25&#45;&gt;Node24 -->
<g id="edge36_Node000025_Node000024" class="edge">
<title>Node25&#45;&gt;Node24</title>
<g id="a_edge36_Node000025_Node000024"><a xlink:title=" ">
<path fill="none" stroke="#63b8ff" d="M1010.51,-221.34C1007.48,-220.89 1004.47,-220.44 1001.56,-220 907.81,-205.98 797.63,-189.83 739.75,-181.37"/>
<polygon fill="#63b8ff" stroke="#63b8ff" points="739.97,-177.86 729.57,-179.88 738.96,-184.79 739.97,-177.86"/>
</a>
</g>
</g>
<!-- Node26 -->
<g id="Node000026" class="node">
<title>Node26</title>
<g id="a_Node000026"><a xlink:title=" ">
<polygon fill="#e0e0e0" stroke="#999999" points="883.06,-184 828.06,-184 828.06,-165 883.06,-165 883.06,-184"/>
<text text-anchor="middle" x="855.56" y="-172" font-family="Helvetica,sans-Serif" font-size="10.00">fstream</text>
</a>
</g>
</g>
<!-- Node25&#45;&gt;Node26 -->
<g id="edge35_Node000025_Node000026" class="edge">
<title>Node25&#45;&gt;Node26</title>
<g id="a_edge35_Node000025_Node000026"><a xlink:title=" ">
<path fill="none" stroke="#63b8ff" d="M1025.1,-219.98C989.12,-210.54 931.15,-195.33 893.2,-185.38"/>
<polygon fill="#63b8ff" stroke="#63b8ff" points="893.62,-181.87 883.06,-182.72 891.85,-188.64 893.62,-181.87"/>
</a>
</g>
</g>
<!-- Node27 -->
<g id="Node000027" class="node">
<title>Node27</title>
<g id="a_Node000027"><a xlink:title=" ">
<polygon fill="#e0e0e0" stroke="#999999" points="995.56,-184 939.56,-184 939.56,-165 995.56,-165 995.56,-184"/>
<text text-anchor="middle" x="967.56" y="-172" font-family="Helvetica,sans-Serif" font-size="10.00">sstream</text>
</a>
</g>
</g>
<!-- Node25&#45;&gt;Node27 -->
<g id="edge37_Node000025_Node000027" class="edge">
<title>Node25&#45;&gt;Node27</title>
<g id="a_edge37_Node000025_Node000027"><a xlink:title=" ">
<path fill="none" stroke="#63b8ff" d="M1043.1,-219.98C1029.14,-211.77 1007.76,-199.18 991.31,-189.49"/>
<polygon fill="#63b8ff" stroke="#63b8ff" points="992.67,-186.23 982.28,-184.17 989.12,-192.26 992.67,-186.23"/>
</a>
</g>
</g>
<!-- Node28&#45;&gt;Node3 -->
<g id="edge39_Node000028_Node000003" class="edge">
<title>Node28&#45;&gt;Node3</title>
<g id="a_edge39_Node000028_Node000003"><a xlink:title=" ">
<path fill="none" stroke="#63b8ff" d="M1143.48,-219.99C1122.62,-213.42 1097.6,-202.26 1081.56,-184 1042.02,-139.01 1087.25,-94.87 1042.56,-55 1011.58,-27.37 889.2,-16.15 829.99,-12.27"/>
<polygon fill="#63b8ff" stroke="#63b8ff" points="829.9,-8.76 819.7,-11.63 829.47,-15.74 829.9,-8.76"/>
</a>
</g>
</g>
<!-- Node28&#45;&gt;Node4 -->
<g id="edge41_Node000028_Node000004" class="edge">
<title>Node28&#45;&gt;Node4</title>
<g id="a_edge41_Node000028_Node000004"><a xlink:title=" ">
<path fill="none" stroke="#63b8ff" d="M1122.54,-221.16C1096.57,-215.12 1067.4,-204.1 1047.56,-184 1020.58,-156.68 1012.75,-110.19 1010.48,-84.31"/>
<polygon fill="#63b8ff" stroke="#63b8ff" points="1013.97,-84.04 1009.79,-74.3 1006.98,-84.52 1013.97,-84.04"/>
</a>
</g>
</g>
<!-- Node28&#45;&gt;Node27 -->
<g id="edge40_Node000028_Node000027" class="edge">
<title>Node28&#45;&gt;Node27</title>
<g id="a_edge40_Node000028_Node000027"><a xlink:title=" ">
<path fill="none" stroke="#63b8ff" d="M1146.33,-219.98C1107.82,-210.4 1045.43,-194.88 1005.47,-184.93"/>
<polygon fill="#63b8ff" stroke="#63b8ff" points="1006.12,-181.49 995.57,-182.47 1004.43,-188.28 1006.12,-181.49"/>
</a>
</g>
</g>
<!-- Node29 -->
<g id="Node000029" class="node">
<title>Node29</title>
<g id="a_Node000029"><a xlink:title=" ">
<polygon fill="#e0e0e0" stroke="#999999" points="1362.56,-184 1298.56,-184 1298.56,-165 1362.56,-165 1362.56,-184"/>
<text text-anchor="middle" x="1330.56" y="-172" font-family="Helvetica,sans-Serif" font-size="10.00">algorithm</text>
</a>
</g>
</g>
<!-- Node28&#45;&gt;Node29 -->
<g id="edge42_Node000028_Node000029" class="edge">
<title>Node28&#45;&gt;Node29</title>
<g id="a_edge42_Node000028_Node000029"><a xlink:title=" ">
<path fill="none" stroke="#63b8ff" d="M1204.66,-219.98C1229.44,-211.23 1268.26,-197.51 1296.24,-187.62"/>
<polygon fill="#63b8ff" stroke="#63b8ff" points="1297.76,-190.8 1306.02,-184.17 1295.42,-184.2 1297.76,-190.8"/>
</a>
</g>
</g>
<!-- Node30 -->
<g id="Node000030" class="node">
<title>Node30</title>
<g id="a_Node000030"><a xlink:title=" ">
<polygon fill="#e0e0e0" stroke="#999999" points="1139.06,-184 1090.06,-184 1090.06,-165 1139.06,-165 1139.06,-184"/>
<text text-anchor="middle" x="1114.56" y="-172" font-family="Helvetica,sans-Serif" font-size="10.00">cctype</text>
</a>
</g>
</g>
<!-- Node28&#45;&gt;Node30 -->
<g id="edge43_Node000028_Node000030" class="edge">
<title>Node28&#45;&gt;Node30</title>
<g id="a_edge43_Node000028_Node000030"><a xlink:title=" ">
<path fill="none" stroke="#63b8ff" d="M1169.95,-219.98C1160.1,-212.07 1145.21,-200.11 1133.34,-190.58"/>
<polygon fill="#63b8ff" stroke="#63b8ff" points="1135.34,-187.7 1125.35,-184.17 1130.96,-193.16 1135.34,-187.7"/>
</a>
</g>
</g>
<!-- Node31 -->
<g id="Node000031" class="node">
<title>Node31</title>
<g id="a_Node000031"><a xlink:title=" ">
<polygon fill="#e0e0e0" stroke="#999999" points="1206.06,-184 1157.06,-184 1157.06,-165 1206.06,-165 1206.06,-184"/>
<text text-anchor="middle" x="1181.56" y="-172" font-family="Helvetica,sans-Serif" font-size="10.00">cstdlib</text>
</a>
</g>
</g>
<!-- Node28&#45;&gt;Node31 -->
<g id="edge44_Node000028_Node000031" class="edge">
<title>Node28&#45;&gt;Node31</title>
<g id="a_edge44_Node000028_Node000031"><a xlink:title=" ">
<path fill="none" stroke="#63b8ff" d="M1180.72,-219.75C1180.85,-212.8 1181.04,-202.85 1181.21,-194.13"/>
<polygon fill="#63b8ff" stroke="#63b8ff" points="1184.71,-194.15 1181.39,-184.09 1177.71,-194.02 1184.71,-194.15"/>
</a>
</g>
</g>
<!-- Node32 -->
<g id="Node000032" class="node">
<title>Node32</title>
<g id="a_Node000032"><a xlink:title=" ">
<polygon fill="#e0e0e0" stroke="#999999" points="1280.56,-184 1224.56,-184 1224.56,-165 1280.56,-165 1280.56,-184"/>
<text text-anchor="middle" x="1252.56" y="-172" font-family="Helvetica,sans-Serif" font-size="10.00">iomanip</text>
</a>
</g>
</g>
<!-- Node28&#45;&gt;Node32 -->
<g id="edge45_Node000028_Node000032" class="edge">
<title>Node28&#45;&gt;Node32</title>
<g id="a_edge45_Node000028_Node000032"><a xlink:title=" ">
<path fill="none" stroke="#63b8ff" d="M1192.12,-219.98C1202.98,-212 1219.44,-199.88 1232.44,-190.31"/>
<polygon fill="#63b8ff" stroke="#63b8ff" points="1234.8,-192.92 1240.78,-184.17 1230.65,-187.28 1234.8,-192.92"/>
</a>
</g>
</g>
</g>
</svg>
