<?xml version="1.0" encoding="UTF-8" standalone="no"?>
<!DOCTYPE svg PUBLIC "-//W3C//DTD SVG 1.1//EN"
 "http://www.w3.org/Graphics/SVG/1.1/DTD/svg11.dtd">
<!-- Generated by graphviz version 2.43.0 (0)
 -->
<!-- Title: init/ServerSocket.hpp Pages: 1 -->
<svg width="1036pt" height="247pt"
 viewBox="0.00 0.00 1035.50 247.00" xmlns="http://www.w3.org/2000/svg" xmlns:xlink="http://www.w3.org/1999/xlink">
<g id="graph0" class="graph" transform="scale(1 1) rotate(0) translate(4 243)">
<title>init/ServerSocket.hpp</title>
<!-- Node1 -->
<g id="Node000001" class="node">
<title>Node1</title>
<g id="a_Node000001"><a xlink:title=" ">
<polygon fill="#999999" stroke="#666666" points="396,-239 276,-239 276,-220 396,-220 396,-239"/>
<text text-anchor="middle" x="336" y="-227" font-family="Helvetica,sans-Serif" font-size="10.00">init/ServerSocket.hpp</text>
</a>
</g>
</g>
<!-- Node2 -->
<g id="Node000002" class="node">
<title>Node2</title>
<g id="a_Node000002"><a xlink:title=" ">
<polygon fill="#e0e0e0" stroke="#999999" points="44,-19 0,-19 0,0 44,0 44,-19"/>
<text text-anchor="middle" x="22" y="-7" font-family="Helvetica,sans-Serif" font-size="10.00">string</text>
</a>
</g>
</g>
<!-- Node1&#45;&gt;Node2 -->
<g id="edge1_Node000001_Node000002" class="edge">
<title>Node1&#45;&gt;Node2</title>
<g id="a_edge1_Node000001_Node000002"><a xlink:title=" ">
<path fill="none" stroke="#63b8ff" d="M275.95,-223.66C209.65,-215.21 103.74,-192.11 39,-129 12.42,-103.09 14.65,-55.67 18.43,-29.35"/>
<polygon fill="#63b8ff" stroke="#63b8ff" points="21.93,-29.63 20.12,-19.19 15.03,-28.48 21.93,-29.63"/>
</a>
</g>
</g>
<!-- Node3 -->
<g id="Node000003" class="node">
<title>Node3</title>
<g id="a_Node000003"><a xlink:title=" ">
<polygon fill="#e0e0e0" stroke="#999999" points="1027.5,-74 980.5,-74 980.5,-55 1027.5,-55 1027.5,-74"/>
<text text-anchor="middle" x="1004" y="-62" font-family="Helvetica,sans-Serif" font-size="10.00">vector</text>
</a>
</g>
</g>
<!-- Node1&#45;&gt;Node3 -->
<g id="edge2_Node000001_Node000003" class="edge">
<title>Node1&#45;&gt;Node3</title>
<g id="a_edge2_Node000001_Node000003"><a xlink:title=" ">
<path fill="none" stroke="#63b8ff" d="M372.28,-219.97C468.24,-197.36 736.84,-133.66 970.55,-74.33"/>
<polygon fill="#63b8ff" stroke="#63b8ff" points="971.42,-77.72 980.25,-71.87 969.7,-70.94 971.42,-77.72"/>
</a>
</g>
</g>
<!-- Node4 -->
<g id="Node000004" class="node">
<title>Node4</title>
<g id="a_Node000004"><a xlink:href="ClientConnection_8hpp.html" target="_top" xlink:title=" ">
<polygon fill="white" stroke="#666666" points="406,-184 266,-184 266,-165 406,-165 406,-184"/>
<text text-anchor="middle" x="336" y="-172" font-family="Helvetica,sans-Serif" font-size="10.00">init/ClientConnection.hpp</text>
</a>
</g>
</g>
<!-- Node1&#45;&gt;Node4 -->
<g id="edge3_Node000001_Node000004" class="edge">
<title>Node1&#45;&gt;Node4</title>
<g id="a_edge3_Node000001_Node000004"><a xlink:title=" ">
<path fill="none" stroke="#63b8ff" d="M336,-219.75C336,-212.8 336,-202.85 336,-194.13"/>
<polygon fill="#63b8ff" stroke="#63b8ff" points="339.5,-194.09 336,-184.09 332.5,-194.09 339.5,-194.09"/>
</a>
</g>
</g>
<!-- Node4&#45;&gt;Node2 -->
<g id="edge4_Node000004_Node000002" class="edge">
<title>Node4&#45;&gt;Node2</title>
<g id="a_edge4_Node000004_Node000002"><a xlink:title=" ">
<path fill="none" stroke="#63b8ff" d="M265.79,-168.34C196.57,-162.15 96.57,-149.9 64,-129 39.2,-113.09 36.7,-101.82 27,-74 21.99,-59.62 20.92,-42.35 21.01,-29.44"/>
<polygon fill="#63b8ff" stroke="#63b8ff" points="24.5,-29.52 21.31,-19.42 17.51,-29.31 24.5,-29.52"/>
</a>
</g>
</g>
<!-- Node5 -->
<g id="Node000005" class="node">
<title>Node5</title>
<g id="a_Node000005"><a xlink:title=" ">
<polygon fill="#e0e0e0" stroke="#999999" points="467,-129 423,-129 423,-110 467,-110 467,-129"/>
<text text-anchor="middle" x="445" y="-117" font-family="Helvetica,sans-Serif" font-size="10.00">ctime</text>
</a>
</g>
</g>
<!-- Node4&#45;&gt;Node5 -->
<g id="edge5_Node000004_Node000005" class="edge">
<title>Node4&#45;&gt;Node5</title>
<g id="a_edge5_Node000004_Node000005"><a xlink:title=" ">
<path fill="none" stroke="#63b8ff" d="M353.51,-164.98C370.97,-156.5 398.01,-143.35 418.17,-133.54"/>
<polygon fill="#63b8ff" stroke="#63b8ff" points="419.71,-136.69 427.17,-129.17 416.64,-130.4 419.71,-136.69"/>
</a>
</g>
</g>
<!-- Node6 -->
<g id="Node000006" class="node">
<title>Node6</title>
<g id="a_Node000006"><a xlink:title=" ">
<polygon fill="#e0e0e0" stroke="#999999" points="557,-129 485,-129 485,-110 557,-110 557,-129"/>
<text text-anchor="middle" x="521" y="-117" font-family="Helvetica,sans-Serif" font-size="10.00">sys/types.h</text>
</a>
</g>
</g>
<!-- Node4&#45;&gt;Node6 -->
<g id="edge6_Node000004_Node000006" class="edge">
<title>Node4&#45;&gt;Node6</title>
<g id="a_edge6_Node000004_Node000006"><a xlink:title=" ">
<path fill="none" stroke="#63b8ff" d="M365.72,-164.98C397.05,-156.01 446.57,-141.82 481.24,-131.89"/>
<polygon fill="#63b8ff" stroke="#63b8ff" points="482.39,-135.2 491.04,-129.08 480.47,-128.47 482.39,-135.2"/>
</a>
</g>
</g>
<!-- Node7 -->
<g id="Node000007" class="node">
<title>Node7</title>
<g id="a_Node000007"><a xlink:href="HttpRequest_8hpp.html" target="_top" xlink:title=" ">
<polygon fill="white" stroke="#666666" points="405,-129 267,-129 267,-110 405,-110 405,-129"/>
<text text-anchor="middle" x="336" y="-117" font-family="Helvetica,sans-Serif" font-size="10.00">request/HttpRequest.hpp</text>
</a>
</g>
</g>
<!-- Node4&#45;&gt;Node7 -->
<g id="edge7_Node000004_Node000007" class="edge">
<title>Node4&#45;&gt;Node7</title>
<g id="a_edge7_Node000004_Node000007"><a xlink:title=" ">
<path fill="none" stroke="#63b8ff" d="M336,-164.75C336,-157.8 336,-147.85 336,-139.13"/>
<polygon fill="#63b8ff" stroke="#63b8ff" points="339.5,-139.09 336,-129.09 332.5,-139.09 339.5,-139.09"/>
</a>
</g>
</g>
<!-- Node14 -->
<g id="Node000014" class="node">
<title>Node14</title>
<g id="a_Node000014"><a xlink:href="HttpResponse_8hpp.html" target="_top" xlink:title=" ">
<polygon fill="white" stroke="#666666" points="226.5,-129 73.5,-129 73.5,-110 226.5,-110 226.5,-129"/>
<text text-anchor="middle" x="150" y="-117" font-family="Helvetica,sans-Serif" font-size="10.00">response/HttpResponse.hpp</text>
</a>
</g>
</g>
<!-- Node4&#45;&gt;Node14 -->
<g id="edge17_Node000004_Node000014" class="edge">
<title>Node4&#45;&gt;Node14</title>
<g id="a_edge17_Node000004_Node000014"><a xlink:title=" ">
<path fill="none" stroke="#63b8ff" d="M306.12,-164.98C274.62,-156.01 224.83,-141.82 189.97,-131.89"/>
<polygon fill="#63b8ff" stroke="#63b8ff" points="190.69,-128.46 180.12,-129.08 188.78,-135.19 190.69,-128.46"/>
</a>
</g>
</g>
<!-- Node7&#45;&gt;Node2 -->
<g id="edge8_Node000007_Node000002" class="edge">
<title>Node7&#45;&gt;Node2</title>
<g id="a_edge8_Node000007_Node000002"><a xlink:title=" ">
<path fill="none" stroke="#63b8ff" d="M330.95,-109.85C322.28,-95.82 303.11,-68.34 279,-55 206.13,-14.68 105.32,-9.33 54.32,-9.51"/>
<polygon fill="#63b8ff" stroke="#63b8ff" points="54.18,-6.01 44.22,-9.62 54.26,-13.01 54.18,-6.01"/>
</a>
</g>
</g>
<!-- Node7&#45;&gt;Node3 -->
<g id="edge10_Node000007_Node000003" class="edge">
<title>Node7&#45;&gt;Node3</title>
<g id="a_edge10_Node000007_Node000003"><a xlink:title=" ">
<path fill="none" stroke="#63b8ff" d="M405.31,-110.79C408.24,-110.51 411.15,-110.25 414,-110 658.32,-88.82 724.99,-113.42 970.41,-73.95"/>
<polygon fill="#63b8ff" stroke="#63b8ff" points="971.04,-77.4 980.35,-72.33 969.91,-70.49 971.04,-77.4"/>
</a>
</g>
</g>
<!-- Node8 -->
<g id="Node000008" class="node">
<title>Node8</title>
<g id="a_Node000008"><a xlink:title=" ">
<polygon fill="#e0e0e0" stroke="#999999" points="88,-74 50,-74 50,-55 88,-55 88,-74"/>
<text text-anchor="middle" x="69" y="-62" font-family="Helvetica,sans-Serif" font-size="10.00">map</text>
</a>
</g>
</g>
<!-- Node7&#45;&gt;Node8 -->
<g id="edge9_Node000007_Node000008" class="edge">
<title>Node7&#45;&gt;Node8</title>
<g id="a_edge9_Node000007_Node000008"><a xlink:title=" ">
<path fill="none" stroke="#63b8ff" d="M280.57,-109.97C234.18,-102.42 166.07,-90.41 98.21,-74.08"/>
<polygon fill="#63b8ff" stroke="#63b8ff" points="98.75,-70.6 88.2,-71.63 97.09,-77.4 98.75,-70.6"/>
</a>
</g>
</g>
<!-- Node9 -->
<g id="Node000009" class="node">
<title>Node9</title>
<g id="a_Node000009"><a xlink:href="RequestMethod_8hpp.html" target="_top" xlink:title=" ">
<polygon fill="white" stroke="#666666" points="640,-74 486,-74 486,-55 640,-55 640,-74"/>
<text text-anchor="middle" x="563" y="-62" font-family="Helvetica,sans-Serif" font-size="10.00">request/RequestMethod.hpp</text>
</a>
</g>
</g>
<!-- Node7&#45;&gt;Node9 -->
<g id="edge11_Node000007_Node000009" class="edge">
<title>Node7&#45;&gt;Node9</title>
<g id="a_edge11_Node000007_Node000009"><a xlink:title=" ">
<path fill="none" stroke="#63b8ff" d="M372.47,-109.98C411.57,-100.86 473.77,-86.33 516.39,-76.38"/>
<polygon fill="#63b8ff" stroke="#63b8ff" points="517.3,-79.76 526.24,-74.08 515.71,-72.95 517.3,-79.76"/>
</a>
</g>
</g>
<!-- Node10 -->
<g id="Node000010" class="node">
<title>Node10</title>
<g id="a_Node000010"><a xlink:href="RequestMeta_8hpp.html" target="_top" xlink:title=" ">
<polygon fill="white" stroke="#666666" points="468,-74 326,-74 326,-55 468,-55 468,-74"/>
<text text-anchor="middle" x="397" y="-62" font-family="Helvetica,sans-Serif" font-size="10.00">request/RequestMeta.hpp</text>
</a>
</g>
</g>
<!-- Node7&#45;&gt;Node10 -->
<g id="edge12_Node000007_Node000010" class="edge">
<title>Node7&#45;&gt;Node10</title>
<g id="a_edge12_Node000007_Node000010"><a xlink:title=" ">
<path fill="none" stroke="#63b8ff" d="M345.8,-109.98C354.82,-102.15 368.41,-90.34 379.32,-80.86"/>
<polygon fill="#63b8ff" stroke="#63b8ff" points="381.77,-83.37 387.02,-74.17 377.18,-78.09 381.77,-83.37"/>
</a>
</g>
</g>
<!-- Node11 -->
<g id="Node000011" class="node">
<title>Node11</title>
<g id="a_Node000011"><a xlink:href="RequestState_8hpp.html" target="_top" xlink:title=" ">
<polygon fill="white" stroke="#666666" points="801.5,-74 658.5,-74 658.5,-55 801.5,-55 801.5,-74"/>
<text text-anchor="middle" x="730" y="-62" font-family="Helvetica,sans-Serif" font-size="10.00">request/RequestState.hpp</text>
</a>
</g>
</g>
<!-- Node7&#45;&gt;Node11 -->
<g id="edge14_Node000007_Node000011" class="edge">
<title>Node7&#45;&gt;Node11</title>
<g id="a_edge14_Node000007_Node000011"><a xlink:title=" ">
<path fill="none" stroke="#63b8ff" d="M399.3,-109.98C469.42,-100.55 582.32,-85.36 656.35,-75.41"/>
<polygon fill="#63b8ff" stroke="#63b8ff" points="657.08,-78.84 666.53,-74.04 656.15,-71.9 657.08,-78.84"/>
</a>
</g>
</g>
<!-- Node12 -->
<g id="Node000012" class="node">
<title>Node12</title>
<g id="a_Node000012"><a xlink:href="ResponseStatus_8hpp.html" target="_top" xlink:title=" ">
<polygon fill="white" stroke="#666666" points="269.5,-74 106.5,-74 106.5,-55 269.5,-55 269.5,-74"/>
<text text-anchor="middle" x="188" y="-62" font-family="Helvetica,sans-Serif" font-size="10.00">response/ResponseStatus.hpp</text>
</a>
</g>
</g>
<!-- Node7&#45;&gt;Node12 -->
<g id="edge15_Node000007_Node000012" class="edge">
<title>Node7&#45;&gt;Node12</title>
<g id="a_edge15_Node000007_Node000012"><a xlink:title=" ">
<path fill="none" stroke="#63b8ff" d="M312.22,-109.98C287.77,-101.23 249.47,-87.51 221.85,-77.62"/>
<polygon fill="#63b8ff" stroke="#63b8ff" points="222.81,-74.25 212.21,-74.17 220.45,-80.84 222.81,-74.25"/>
</a>
</g>
</g>
<!-- Node13 -->
<g id="Node000013" class="node">
<title>Node13</title>
<g id="a_Node000013"><a xlink:href="RouteType_8hpp.html" target="_top" xlink:title=" ">
<polygon fill="white" stroke="#666666" points="962.5,-74 819.5,-74 819.5,-55 962.5,-55 962.5,-74"/>
<text text-anchor="middle" x="891" y="-62" font-family="Helvetica,sans-Serif" font-size="10.00">dispatcher/RouteType.hpp</text>
</a>
</g>
</g>
<!-- Node7&#45;&gt;Node13 -->
<g id="edge16_Node000007_Node000013" class="edge">
<title>Node7&#45;&gt;Node13</title>
<g id="a_edge16_Node000007_Node000013"><a xlink:title=" ">
<path fill="none" stroke="#63b8ff" d="M405.32,-110.88C408.25,-110.58 411.15,-110.28 414,-110 587.02,-92.73 632.99,-91.4 809.33,-74.15"/>
<polygon fill="#63b8ff" stroke="#63b8ff" points="809.87,-77.62 819.48,-73.15 809.18,-70.65 809.87,-77.62"/>
</a>
</g>
</g>
<!-- Node10&#45;&gt;Node2 -->
<g id="edge13_Node000010_Node000002" class="edge">
<title>Node10&#45;&gt;Node2</title>
<g id="a_edge13_Node000010_Node000002"><a xlink:title=" ">
<path fill="none" stroke="#63b8ff" d="M336.75,-54.98C256.51,-43.64 117.39,-23.98 54.51,-15.1"/>
<polygon fill="#63b8ff" stroke="#63b8ff" points="54.78,-11.6 44.39,-13.66 53.8,-18.53 54.78,-11.6"/>
</a>
</g>
</g>
<!-- Node14&#45;&gt;Node2 -->
<g id="edge18_Node000014_Node000002" class="edge">
<title>Node14&#45;&gt;Node2</title>
<g id="a_edge18_Node000014_Node000002"><a xlink:title=" ">
<path fill="none" stroke="#63b8ff" d="M105.72,-109.94C83.51,-103.53 57.83,-92.54 41,-74 29.88,-61.75 25.26,-43.24 23.34,-29.35"/>
<polygon fill="#63b8ff" stroke="#63b8ff" points="26.79,-28.61 22.29,-19.02 19.82,-29.33 26.79,-28.61"/>
</a>
</g>
</g>
<!-- Node14&#45;&gt;Node8 -->
<g id="edge19_Node000014_Node000008" class="edge">
<title>Node14&#45;&gt;Node8</title>
<g id="a_edge19_Node000014_Node000008"><a xlink:title=" ">
<path fill="none" stroke="#63b8ff" d="M136.99,-109.98C124.54,-101.84 105.54,-89.41 90.79,-79.76"/>
<polygon fill="#63b8ff" stroke="#63b8ff" points="92.54,-76.72 82.25,-74.17 88.7,-82.57 92.54,-76.72"/>
</a>
</g>
</g>
<!-- Node14&#45;&gt;Node12 -->
<g id="edge20_Node000014_Node000012" class="edge">
<title>Node14&#45;&gt;Node12</title>
<g id="a_edge20_Node000014_Node000012"><a xlink:title=" ">
<path fill="none" stroke="#63b8ff" d="M156.27,-109.75C161.59,-102.34 169.36,-91.5 175.88,-82.41"/>
<polygon fill="#63b8ff" stroke="#63b8ff" points="178.86,-84.26 181.84,-74.09 173.17,-80.18 178.86,-84.26"/>
</a>
</g>
</g>
</g>
</svg>
