<?xml version="1.0" encoding="UTF-8" standalone="no"?>
<!DOCTYPE svg PUBLIC "-//W3C//DTD SVG 1.1//EN"
 "http://www.w3.org/Graphics/SVG/1.1/DTD/svg11.dtd">
<!-- Generated by graphviz version 2.43.0 (0)
 -->
<!-- Title: utils/Signals.hpp Pages: 1 -->
<svg width="814pt" height="137pt"
 viewBox="0.00 0.00 814.00 137.00" xmlns="http://www.w3.org/2000/svg" xmlns:xlink="http://www.w3.org/1999/xlink">
<g id="graph0" class="graph" transform="scale(1 1) rotate(0) translate(4 133)">
<title>utils/Signals.hpp</title>
<!-- Node1 -->
<g id="Node000001" class="node">
<title>Node1</title>
<g id="a_Node000001"><a xlink:title=" ">
<polygon fill="#999999" stroke="#666666" points="464.5,-129 367.5,-129 367.5,-110 464.5,-110 464.5,-129"/>
<text text-anchor="middle" x="416" y="-117" font-family="Helvetica,sans-Serif" font-size="10.00">utils/Signals.hpp</text>
</a>
</g>
</g>
<!-- Node2 -->
<g id="Node000002" class="node">
<title>Node2</title>
<g id="a_Node000002"><a xlink:href="CgiHandler_8cpp.html" target="_top" xlink:title=" ">
<polygon fill="white" stroke="#666666" points="144,-74 0,-74 0,-55 144,-55 144,-74"/>
<text text-anchor="middle" x="72" y="-62" font-family="Helvetica,sans-Serif" font-size="10.00">dispatcher/CgiHandler.cpp</text>
</a>
</g>
</g>
<!-- Node1&#45;&gt;Node2 -->
<g id="edge1_Node000001_Node000002" class="edge">
<title>Node1&#45;&gt;Node2</title>
<g id="a_edge1_Node000001_Node000002"><a xlink:title=" ">
<path fill="none" stroke="#63b8ff" d="M357.46,-109.48C293.11,-99.57 190.51,-83.76 127.43,-74.04"/>
<polygon fill="#63b8ff" stroke="#63b8ff" points="357.03,-112.96 367.44,-111.02 358.09,-106.04 357.03,-112.96"/>
</a>
</g>
</g>
<!-- Node3 -->
<g id="Node000003" class="node">
<title>Node3</title>
<g id="a_Node000003"><a xlink:href="Dispatcher_8cpp.html" target="_top" xlink:title=" ">
<polygon fill="white" stroke="#666666" points="305.5,-74 162.5,-74 162.5,-55 305.5,-55 305.5,-74"/>
<text text-anchor="middle" x="234" y="-62" font-family="Helvetica,sans-Serif" font-size="10.00">dispatcher/Dispatcher.cpp</text>
</a>
</g>
</g>
<!-- Node1&#45;&gt;Node3 -->
<g id="edge2_Node000001_Node000003" class="edge">
<title>Node1&#45;&gt;Node3</title>
<g id="a_edge2_Node000001_Node000003"><a xlink:title=" ">
<path fill="none" stroke="#63b8ff" d="M377.14,-107.18C343.1,-97.27 294.38,-83.08 263.47,-74.08"/>
<polygon fill="#63b8ff" stroke="#63b8ff" points="376.18,-110.55 386.76,-109.98 378.14,-103.83 376.18,-110.55"/>
</a>
</g>
</g>
<!-- Node4 -->
<g id="Node000004" class="node">
<title>Node4</title>
<g id="a_Node000004"><a xlink:href="WebServer_8cpp.html" target="_top" xlink:title=" ">
<polygon fill="white" stroke="#666666" points="417.5,-19 310.5,-19 310.5,0 417.5,0 417.5,-19"/>
<text text-anchor="middle" x="364" y="-7" font-family="Helvetica,sans-Serif" font-size="10.00">init/WebServer.cpp</text>
</a>
</g>
</g>
<!-- Node1&#45;&gt;Node4 -->
<g id="edge3_Node000001_Node000004" class="edge">
<title>Node1&#45;&gt;Node4</title>
<g id="a_edge3_Node000001_Node000004"><a xlink:title=" ">
<path fill="none" stroke="#63b8ff" d="M385.92,-105.18C373.34,-97.91 360.04,-87.59 353,-74 343.74,-56.12 352.94,-31.99 359.22,-19.24"/>
<polygon fill="#63b8ff" stroke="#63b8ff" points="384.38,-108.32 394.85,-109.93 387.67,-102.14 384.38,-108.32"/>
</a>
</g>
</g>
<!-- Node5 -->
<g id="Node000005" class="node">
<title>Node5</title>
<g id="a_Node000005"><a xlink:href="WebServer_8hpp.html" target="_top" xlink:title=" ">
<polygon fill="white" stroke="#666666" points="470,-74 362,-74 362,-55 470,-55 470,-74"/>
<text text-anchor="middle" x="416" y="-62" font-family="Helvetica,sans-Serif" font-size="10.00">init/WebServer.hpp</text>
</a>
</g>
</g>
<!-- Node1&#45;&gt;Node5 -->
<g id="edge4_Node000001_Node000005" class="edge">
<title>Node1&#45;&gt;Node5</title>
<g id="a_edge4_Node000001_Node000005"><a xlink:title=" ">
<path fill="none" stroke="#63b8ff" d="M416,-99.66C416,-90.93 416,-80.99 416,-74.09"/>
<polygon fill="#63b8ff" stroke="#63b8ff" points="412.5,-99.75 416,-109.75 419.5,-99.75 412.5,-99.75"/>
</a>
</g>
</g>
<!-- Node6 -->
<g id="Node000006" class="node">
<title>Node6</title>
<g id="a_Node000006"><a xlink:href="main_8cpp.html" target="_top" xlink:title=" ">
<polygon fill="white" stroke="#666666" points="513,-19 451,-19 451,0 513,0 513,-19"/>
<text text-anchor="middle" x="482" y="-7" font-family="Helvetica,sans-Serif" font-size="10.00">main.cpp</text>
</a>
</g>
</g>
<!-- Node1&#45;&gt;Node6 -->
<g id="edge7_Node000001_Node000006" class="edge">
<title>Node1&#45;&gt;Node6</title>
<g id="a_edge7_Node000001_Node000006"><a xlink:title=" ">
<path fill="none" stroke="#63b8ff" d="M445.52,-105.17C458.12,-97.87 471.59,-87.51 479,-74 488.55,-56.58 486.15,-32.26 483.89,-19.36"/>
<polygon fill="#63b8ff" stroke="#63b8ff" points="443.76,-102.15 436.61,-109.96 447.07,-108.31 443.76,-102.15"/>
</a>
</g>
</g>
<!-- Node7 -->
<g id="Node000007" class="node">
<title>Node7</title>
<g id="a_Node000007"><a xlink:href="ResponseBuilder_8cpp.html" target="_top" xlink:title=" ">
<polygon fill="white" stroke="#666666" points="691.5,-74 526.5,-74 526.5,-55 691.5,-55 691.5,-74"/>
<text text-anchor="middle" x="609" y="-62" font-family="Helvetica,sans-Serif" font-size="10.00">response/ResponseBuilder.cpp</text>
</a>
</g>
</g>
<!-- Node1&#45;&gt;Node7 -->
<g id="edge8_Node000001_Node000007" class="edge">
<title>Node1&#45;&gt;Node7</title>
<g id="a_edge8_Node000001_Node000007"><a xlink:title=" ">
<path fill="none" stroke="#63b8ff" d="M456.75,-107.31C492.86,-97.39 544.83,-83.12 577.75,-74.08"/>
<polygon fill="#63b8ff" stroke="#63b8ff" points="455.72,-103.96 447.01,-109.98 457.58,-110.71 455.72,-103.96"/>
</a>
</g>
</g>
<!-- Node8 -->
<g id="Node000008" class="node">
<title>Node8</title>
<g id="a_Node000008"><a xlink:href="Signals_8cpp.html" target="_top" xlink:title=" ">
<polygon fill="white" stroke="#666666" points="806,-74 710,-74 710,-55 806,-55 806,-74"/>
<text text-anchor="middle" x="758" y="-62" font-family="Helvetica,sans-Serif" font-size="10.00">utils/Signals.cpp</text>
</a>
</g>
</g>
<!-- Node1&#45;&gt;Node8 -->
<g id="edge9_Node000001_Node000008" class="edge">
<title>Node1&#45;&gt;Node8</title>
<g id="a_edge9_Node000001_Node000008"><a xlink:title=" ">
<path fill="none" stroke="#63b8ff" d="M474.53,-109.43C540.94,-99.14 648.02,-82.54 709.81,-72.97"/>
<polygon fill="#63b8ff" stroke="#63b8ff" points="473.98,-105.97 464.64,-110.96 475.06,-112.89 473.98,-105.97"/>
</a>
</g>
</g>
<!-- Node5&#45;&gt;Node4 -->
<g id="edge5_Node000005_Node000004" class="edge">
<title>Node5&#45;&gt;Node4</title>
<g id="a_edge5_Node000005_Node000004"><a xlink:title=" ">
<path fill="none" stroke="#63b8ff" d="M400.32,-47.52C391.16,-38.18 379.95,-26.75 372.43,-19.09"/>
<polygon fill="#63b8ff" stroke="#63b8ff" points="397.91,-50.06 407.41,-54.75 402.91,-45.16 397.91,-50.06"/>
</a>
</g>
</g>
<!-- Node5&#45;&gt;Node6 -->
<g id="edge6_Node000005_Node000006" class="edge">
<title>Node5&#45;&gt;Node6</title>
<g id="a_edge6_Node000005_Node000006"><a xlink:title=" ">
<path fill="none" stroke="#63b8ff" d="M434.55,-48.6C446.38,-39.11 461.29,-27.13 471.2,-19.17"/>
<polygon fill="#63b8ff" stroke="#63b8ff" points="432.21,-45.99 426.6,-54.98 436.59,-51.45 432.21,-45.99"/>
</a>
</g>
</g>
</g>
</svg>
