<?xml version="1.0" encoding="UTF-8" standalone="no"?>
<!DOCTYPE svg PUBLIC "-//W3C//DTD SVG 1.1//EN"
 "http://www.w3.org/Graphics/SVG/1.1/DTD/svg11.dtd">
<!-- Generated by graphviz version 2.43.0 (0)
 -->
<!-- Title: utils/Signals.cpp Pages: 1 -->
<svg width="897pt" height="137pt"
 viewBox="0.00 0.00 897.00 137.00" xmlns="http://www.w3.org/2000/svg" xmlns:xlink="http://www.w3.org/1999/xlink">
<g id="graph0" class="graph" transform="scale(1 1) rotate(0) translate(4 133)">
<title>utils/Signals.cpp</title>
<!-- Node1 -->
<g id="Node000001" class="node">
<title>Node1</title>
<g id="a_Node000001"><a xlink:title=" ">
<polygon fill="#999999" stroke="#666666" points="264,-129 168,-129 168,-110 264,-110 264,-129"/>
<text text-anchor="middle" x="216" y="-117" font-family="Helvetica,sans-Serif" font-size="10.00">utils/Signals.cpp</text>
</a>
</g>
</g>
<!-- Node2 -->
<g id="Node000002" class="node">
<title>Node2</title>
<g id="a_Node000002"><a xlink:href="Signals_8hpp.html" target="_top" xlink:title=" ">
<polygon fill="white" stroke="#666666" points="149.5,-74 52.5,-74 52.5,-55 149.5,-55 149.5,-74"/>
<text text-anchor="middle" x="101" y="-62" font-family="Helvetica,sans-Serif" font-size="10.00">utils/Signals.hpp</text>
</a>
</g>
</g>
<!-- Node1&#45;&gt;Node2 -->
<g id="edge1_Node000001_Node000002" class="edge">
<title>Node1&#45;&gt;Node2</title>
<g id="a_edge1_Node000001_Node000002"><a xlink:title=" ">
<path fill="none" stroke="#63b8ff" d="M197.52,-109.98C179.02,-101.46 150.32,-88.23 129.02,-78.41"/>
<polygon fill="#63b8ff" stroke="#63b8ff" points="130.36,-75.18 119.81,-74.17 127.43,-81.53 130.36,-75.18"/>
</a>
</g>
</g>
<!-- Node4 -->
<g id="Node000004" class="node">
<title>Node4</title>
<g id="a_Node000004"><a xlink:title=" ">
<polygon fill="#e0e0e0" stroke="#999999" points="44,-19 0,-19 0,0 44,0 44,-19"/>
<text text-anchor="middle" x="22" y="-7" font-family="Helvetica,sans-Serif" font-size="10.00">ctime</text>
</a>
</g>
</g>
<!-- Node1&#45;&gt;Node4 -->
<g id="edge21_Node000001_Node000004" class="edge">
<title>Node1&#45;&gt;Node4</title>
<g id="a_edge21_Node000001_Node000004"><a xlink:title=" ">
<path fill="none" stroke="#63b8ff" d="M167.9,-118.18C129.47,-115.38 76.65,-105.45 43,-74 30.68,-62.49 25.58,-43.61 23.47,-29.42"/>
<polygon fill="#63b8ff" stroke="#63b8ff" points="26.93,-28.83 22.34,-19.28 19.97,-29.61 26.93,-28.83"/>
</a>
</g>
</g>
<!-- Node5 -->
<g id="Node000005" class="node">
<title>Node5</title>
<g id="a_Node000005"><a xlink:title=" ">
<polygon fill="#e0e0e0" stroke="#999999" points="170,-19 132,-19 132,0 170,0 170,-19"/>
<text text-anchor="middle" x="151" y="-7" font-family="Helvetica,sans-Serif" font-size="10.00">map</text>
</a>
</g>
</g>
<!-- Node1&#45;&gt;Node5 -->
<g id="edge22_Node000001_Node000005" class="edge">
<title>Node1&#45;&gt;Node5</title>
<g id="a_edge22_Node000001_Node000005"><a xlink:title=" ">
<path fill="none" stroke="#63b8ff" d="M210.68,-109.66C199.96,-91.85 175.6,-51.37 161.54,-28.01"/>
<polygon fill="#63b8ff" stroke="#63b8ff" points="164.37,-25.92 156.21,-19.16 158.37,-29.53 164.37,-25.92"/>
</a>
</g>
</g>
<!-- Node6 -->
<g id="Node000006" class="node">
<title>Node6</title>
<g id="a_Node000006"><a xlink:title=" ">
<polygon fill="#e0e0e0" stroke="#999999" points="244,-19 188,-19 188,0 244,0 244,-19"/>
<text text-anchor="middle" x="216" y="-7" font-family="Helvetica,sans-Serif" font-size="10.00">unistd.h</text>
</a>
</g>
</g>
<!-- Node1&#45;&gt;Node6 -->
<g id="edge20_Node000001_Node000006" class="edge">
<title>Node1&#45;&gt;Node6</title>
<g id="a_edge20_Node000001_Node000006"><a xlink:title=" ">
<path fill="none" stroke="#63b8ff" d="M216,-109.66C216,-92.17 216,-52.8 216,-29.27"/>
<polygon fill="#63b8ff" stroke="#63b8ff" points="219.5,-29.16 216,-19.16 212.5,-29.16 219.5,-29.16"/>
</a>
</g>
</g>
<!-- Node7 -->
<g id="Node000007" class="node">
<title>Node7</title>
<g id="a_Node000007"><a xlink:href="Logger_8hpp.html" target="_top" xlink:title=" ">
<polygon fill="white" stroke="#666666" points="339,-74 245,-74 245,-55 339,-55 339,-74"/>
<text text-anchor="middle" x="292" y="-62" font-family="Helvetica,sans-Serif" font-size="10.00">utils/Logger.hpp</text>
</a>
</g>
</g>
<!-- Node1&#45;&gt;Node7 -->
<g id="edge6_Node000001_Node000007" class="edge">
<title>Node1&#45;&gt;Node7</title>
<g id="a_edge6_Node000001_Node000007"><a xlink:title=" ">
<path fill="none" stroke="#63b8ff" d="M228.21,-109.98C239.78,-101.92 257.38,-89.65 271.16,-80.03"/>
<polygon fill="#63b8ff" stroke="#63b8ff" points="273.37,-82.76 279.57,-74.17 269.36,-77.02 273.37,-82.76"/>
</a>
</g>
</g>
<!-- Node11 -->
<g id="Node000011" class="node">
<title>Node11</title>
<g id="a_Node000011"><a xlink:href="string__utils_8hpp.html" target="_top" xlink:title="Collection of inline string utility functions used across Webservinho.">
<polygon fill="white" stroke="#666666" points="638,-74 522,-74 522,-55 638,-55 638,-74"/>
<text text-anchor="middle" x="580" y="-62" font-family="Helvetica,sans-Serif" font-size="10.00">utils/string_utils.hpp</text>
</a>
</g>
</g>
<!-- Node1&#45;&gt;Node11 -->
<g id="edge11_Node000001_Node000011" class="edge">
<title>Node1&#45;&gt;Node11</title>
<g id="a_edge11_Node000001_Node000011"><a xlink:title=" ">
<path fill="none" stroke="#63b8ff" d="M264.34,-111.46C327.87,-102.21 439.85,-85.91 511.93,-75.41"/>
<polygon fill="#63b8ff" stroke="#63b8ff" points="512.44,-78.87 521.83,-73.97 511.43,-71.95 512.44,-78.87"/>
</a>
</g>
</g>
<!-- Node18 -->
<g id="Node000018" class="node">
<title>Node18</title>
<g id="a_Node000018"><a xlink:title=" ">
<polygon fill="#e0e0e0" stroke="#999999" points="722,-74 656,-74 656,-55 722,-55 722,-74"/>
<text text-anchor="middle" x="689" y="-62" font-family="Helvetica,sans-Serif" font-size="10.00">sys/wait.h</text>
</a>
</g>
</g>
<!-- Node1&#45;&gt;Node18 -->
<g id="edge19_Node000001_Node000018" class="edge">
<title>Node1&#45;&gt;Node18</title>
<g id="a_edge19_Node000001_Node000018"><a xlink:title=" ">
<path fill="none" stroke="#63b8ff" d="M264.03,-115.07C342.04,-109.16 501.32,-95.71 645.66,-74.07"/>
<polygon fill="#63b8ff" stroke="#63b8ff" points="646.22,-77.53 655.58,-72.57 645.17,-70.61 646.22,-77.53"/>
</a>
</g>
</g>
<!-- Node3 -->
<g id="Node000003" class="node">
<title>Node3</title>
<g id="a_Node000003"><a xlink:title=" ">
<polygon fill="#e0e0e0" stroke="#999999" points="113.5,-19 62.5,-19 62.5,0 113.5,0 113.5,-19"/>
<text text-anchor="middle" x="88" y="-7" font-family="Helvetica,sans-Serif" font-size="10.00">csignal</text>
</a>
</g>
</g>
<!-- Node2&#45;&gt;Node3 -->
<g id="edge2_Node000002_Node000003" class="edge">
<title>Node2&#45;&gt;Node3</title>
<g id="a_edge2_Node000002_Node000003"><a xlink:title=" ">
<path fill="none" stroke="#63b8ff" d="M98.85,-54.75C97.13,-47.72 94.65,-37.62 92.5,-28.84"/>
<polygon fill="#63b8ff" stroke="#63b8ff" points="95.89,-27.97 90.11,-19.09 89.09,-29.63 95.89,-27.97"/>
</a>
</g>
</g>
<!-- Node2&#45;&gt;Node4 -->
<g id="edge3_Node000002_Node000004" class="edge">
<title>Node2&#45;&gt;Node4</title>
<g id="a_edge3_Node000002_Node000004"><a xlink:title=" ">
<path fill="none" stroke="#63b8ff" d="M88.31,-54.98C76.17,-46.84 57.64,-34.41 43.25,-24.76"/>
<polygon fill="#63b8ff" stroke="#63b8ff" points="45.18,-21.84 34.92,-19.17 41.28,-27.65 45.18,-21.84"/>
</a>
</g>
</g>
<!-- Node2&#45;&gt;Node5 -->
<g id="edge4_Node000002_Node000005" class="edge">
<title>Node2&#45;&gt;Node5</title>
<g id="a_edge4_Node000002_Node000005"><a xlink:title=" ">
<path fill="none" stroke="#63b8ff" d="M109.26,-54.75C116.46,-47.11 127.11,-35.82 135.85,-26.56"/>
<polygon fill="#63b8ff" stroke="#63b8ff" points="138.58,-28.76 142.9,-19.09 133.49,-23.96 138.58,-28.76"/>
</a>
</g>
</g>
<!-- Node2&#45;&gt;Node6 -->
<g id="edge5_Node000002_Node000006" class="edge">
<title>Node2&#45;&gt;Node6</title>
<g id="a_edge5_Node000002_Node000006"><a xlink:title=" ">
<path fill="none" stroke="#63b8ff" d="M119.48,-54.98C137.98,-46.46 166.68,-33.23 187.98,-23.41"/>
<polygon fill="#63b8ff" stroke="#63b8ff" points="189.57,-26.53 197.19,-19.17 186.64,-20.18 189.57,-26.53"/>
</a>
</g>
</g>
<!-- Node7&#45;&gt;Node4 -->
<g id="edge7_Node000007_Node000004" class="edge">
<title>Node7&#45;&gt;Node4</title>
<g id="a_edge7_Node000007_Node000004"><a xlink:title=" ">
<path fill="none" stroke="#63b8ff" d="M244.6,-55.88C198.38,-48.17 125.9,-35.38 54.38,-19.16"/>
<polygon fill="#63b8ff" stroke="#63b8ff" points="54.82,-15.68 44.29,-16.85 53.26,-22.5 54.82,-15.68"/>
</a>
</g>
</g>
<!-- Node8 -->
<g id="Node000008" class="node">
<title>Node8</title>
<g id="a_Node000008"><a xlink:title=" ">
<polygon fill="#e0e0e0" stroke="#999999" points="395.5,-19 340.5,-19 340.5,0 395.5,0 395.5,-19"/>
<text text-anchor="middle" x="368" y="-7" font-family="Helvetica,sans-Serif" font-size="10.00">fstream</text>
</a>
</g>
</g>
<!-- Node7&#45;&gt;Node8 -->
<g id="edge8_Node000007_Node000008" class="edge">
<title>Node7&#45;&gt;Node8</title>
<g id="a_edge8_Node000007_Node000008"><a xlink:title=" ">
<path fill="none" stroke="#63b8ff" d="M304.21,-54.98C315.78,-46.92 333.38,-34.65 347.16,-25.03"/>
<polygon fill="#63b8ff" stroke="#63b8ff" points="349.37,-27.76 355.57,-19.17 345.36,-22.02 349.37,-27.76"/>
</a>
</g>
</g>
<!-- Node9 -->
<g id="Node000009" class="node">
<title>Node9</title>
<g id="a_Node000009"><a xlink:title=" ">
<polygon fill="#e0e0e0" stroke="#999999" points="322,-19 262,-19 262,0 322,0 322,-19"/>
<text text-anchor="middle" x="292" y="-7" font-family="Helvetica,sans-Serif" font-size="10.00">iostream</text>
</a>
</g>
</g>
<!-- Node7&#45;&gt;Node9 -->
<g id="edge9_Node000007_Node000009" class="edge">
<title>Node7&#45;&gt;Node9</title>
<g id="a_edge9_Node000007_Node000009"><a xlink:title=" ">
<path fill="none" stroke="#63b8ff" d="M292,-54.75C292,-47.8 292,-37.85 292,-29.13"/>
<polygon fill="#63b8ff" stroke="#63b8ff" points="295.5,-29.09 292,-19.09 288.5,-29.09 295.5,-29.09"/>
</a>
</g>
</g>
<!-- Node10 -->
<g id="Node000010" class="node">
<title>Node10</title>
<g id="a_Node000010"><a xlink:title=" ">
<polygon fill="#e0e0e0" stroke="#999999" points="470,-19 414,-19 414,0 470,0 470,-19"/>
<text text-anchor="middle" x="442" y="-7" font-family="Helvetica,sans-Serif" font-size="10.00">sstream</text>
</a>
</g>
</g>
<!-- Node7&#45;&gt;Node10 -->
<g id="edge10_Node000007_Node000010" class="edge">
<title>Node7&#45;&gt;Node10</title>
<g id="a_edge10_Node000007_Node000010"><a xlink:title=" ">
<path fill="none" stroke="#63b8ff" d="M316.1,-54.98C340.88,-46.23 379.7,-32.51 407.69,-22.62"/>
<polygon fill="#63b8ff" stroke="#63b8ff" points="409.2,-25.8 417.46,-19.17 406.87,-19.2 409.2,-25.8"/>
</a>
</g>
</g>
<!-- Node11&#45;&gt;Node10 -->
<g id="edge13_Node000011_Node000010" class="edge">
<title>Node11&#45;&gt;Node10</title>
<g id="a_edge13_Node000011_Node000010"><a xlink:title=" ">
<path fill="none" stroke="#63b8ff" d="M557.83,-54.98C535.23,-46.3 499.94,-32.75 474.25,-22.88"/>
<polygon fill="#63b8ff" stroke="#63b8ff" points="475.17,-19.49 464.58,-19.17 472.66,-26.02 475.17,-19.49"/>
</a>
</g>
</g>
<!-- Node12 -->
<g id="Node000012" class="node">
<title>Node12</title>
<g id="a_Node000012"><a xlink:title=" ">
<polygon fill="#e0e0e0" stroke="#999999" points="741,-19 697,-19 697,0 741,0 741,-19"/>
<text text-anchor="middle" x="719" y="-7" font-family="Helvetica,sans-Serif" font-size="10.00">string</text>
</a>
</g>
</g>
<!-- Node11&#45;&gt;Node12 -->
<g id="edge12_Node000011_Node000012" class="edge">
<title>Node11&#45;&gt;Node12</title>
<g id="a_edge12_Node000011_Node000012"><a xlink:title=" ">
<path fill="none" stroke="#63b8ff" d="M602.33,-54.98C625.33,-46.21 661.38,-32.47 687.32,-22.58"/>
<polygon fill="#63b8ff" stroke="#63b8ff" points="688.63,-25.83 696.72,-18.99 686.13,-19.29 688.63,-25.83"/>
</a>
</g>
</g>
<!-- Node13 -->
<g id="Node000013" class="node">
<title>Node13</title>
<g id="a_Node000013"><a xlink:title=" ">
<polygon fill="#e0e0e0" stroke="#999999" points="806.5,-19 759.5,-19 759.5,0 806.5,0 806.5,-19"/>
<text text-anchor="middle" x="783" y="-7" font-family="Helvetica,sans-Serif" font-size="10.00">vector</text>
</a>
</g>
</g>
<!-- Node11&#45;&gt;Node13 -->
<g id="edge14_Node000011_Node000013" class="edge">
<title>Node11&#45;&gt;Node13</title>
<g id="a_edge14_Node000011_Node000013"><a xlink:title=" ">
<path fill="none" stroke="#63b8ff" d="M612.62,-54.98C650.11,-45.2 711.35,-29.21 749.3,-19.3"/>
<polygon fill="#63b8ff" stroke="#63b8ff" points="750.55,-22.59 759.34,-16.68 748.78,-15.82 750.55,-22.59"/>
</a>
</g>
</g>
<!-- Node14 -->
<g id="Node000014" class="node">
<title>Node14</title>
<g id="a_Node000014"><a xlink:title=" ">
<polygon fill="#e0e0e0" stroke="#999999" points="889,-19 825,-19 825,0 889,0 889,-19"/>
<text text-anchor="middle" x="857" y="-7" font-family="Helvetica,sans-Serif" font-size="10.00">algorithm</text>
</a>
</g>
</g>
<!-- Node11&#45;&gt;Node14 -->
<g id="edge15_Node000011_Node000014" class="edge">
<title>Node11&#45;&gt;Node14</title>
<g id="a_edge15_Node000011_Node000014"><a xlink:title=" ">
<path fill="none" stroke="#63b8ff" d="M626.62,-54.97C672.12,-46.58 743.57,-33.26 814.74,-19.22"/>
<polygon fill="#63b8ff" stroke="#63b8ff" points="815.65,-22.61 824.78,-17.24 814.29,-15.74 815.65,-22.61"/>
</a>
</g>
</g>
<!-- Node15 -->
<g id="Node000015" class="node">
<title>Node15</title>
<g id="a_Node000015"><a xlink:title=" ">
<polygon fill="#e0e0e0" stroke="#999999" points="537.5,-19 488.5,-19 488.5,0 537.5,0 537.5,-19"/>
<text text-anchor="middle" x="513" y="-7" font-family="Helvetica,sans-Serif" font-size="10.00">cctype</text>
</a>
</g>
</g>
<!-- Node11&#45;&gt;Node15 -->
<g id="edge16_Node000011_Node000015" class="edge">
<title>Node11&#45;&gt;Node15</title>
<g id="a_edge16_Node000011_Node000015"><a xlink:title=" ">
<path fill="none" stroke="#63b8ff" d="M569.24,-54.98C559.23,-47.07 544.11,-35.11 532.07,-25.58"/>
<polygon fill="#63b8ff" stroke="#63b8ff" points="533.97,-22.63 523.96,-19.17 529.63,-28.12 533.97,-22.63"/>
</a>
</g>
</g>
<!-- Node16 -->
<g id="Node000016" class="node">
<title>Node16</title>
<g id="a_Node000016"><a xlink:title=" ">
<polygon fill="#e0e0e0" stroke="#999999" points="604.5,-19 555.5,-19 555.5,0 604.5,0 604.5,-19"/>
<text text-anchor="middle" x="580" y="-7" font-family="Helvetica,sans-Serif" font-size="10.00">cstdlib</text>
</a>
</g>
</g>
<!-- Node11&#45;&gt;Node16 -->
<g id="edge17_Node000011_Node000016" class="edge">
<title>Node11&#45;&gt;Node16</title>
<g id="a_edge17_Node000011_Node000016"><a xlink:title=" ">
<path fill="none" stroke="#63b8ff" d="M580,-54.75C580,-47.8 580,-37.85 580,-29.13"/>
<polygon fill="#63b8ff" stroke="#63b8ff" points="583.5,-29.09 580,-19.09 576.5,-29.09 583.5,-29.09"/>
</a>
</g>
</g>
<!-- Node17 -->
<g id="Node000017" class="node">
<title>Node17</title>
<g id="a_Node000017"><a xlink:title=" ">
<polygon fill="#e0e0e0" stroke="#999999" points="679,-19 623,-19 623,0 679,0 679,-19"/>
<text text-anchor="middle" x="651" y="-7" font-family="Helvetica,sans-Serif" font-size="10.00">iomanip</text>
</a>
</g>
</g>
<!-- Node11&#45;&gt;Node17 -->
<g id="edge18_Node000011_Node000017" class="edge">
<title>Node11&#45;&gt;Node17</title>
<g id="a_edge18_Node000011_Node000017"><a xlink:title=" ">
<path fill="none" stroke="#63b8ff" d="M591.41,-54.98C602.11,-47 618.34,-34.88 631.16,-25.31"/>
<polygon fill="#63b8ff" stroke="#63b8ff" points="633.47,-27.96 639.39,-19.17 629.28,-22.35 633.47,-27.96"/>
</a>
</g>
</g>
</g>
</svg>
