<?xml version="1.0" encoding="UTF-8" standalone="no"?>
<!DOCTYPE svg PUBLIC "-//W3C//DTD SVG 1.1//EN"
 "http://www.w3.org/Graphics/SVG/1.1/DTD/svg11.dtd">
<!-- Generated by graphviz version 2.43.0 (0)
 -->
<!-- Title: dispatcher/StaticPageHandler.cpp Pages: 1 -->
<svg width="1698pt" height="302pt"
 viewBox="0.00 0.00 1697.97 302.00" xmlns="http://www.w3.org/2000/svg" xmlns:xlink="http://www.w3.org/1999/xlink">
<g id="graph0" class="graph" transform="scale(1 1) rotate(0) translate(4 298)">
<title>dispatcher/StaticPageHandler.cpp</title>
<!-- Node1 -->
<g id="Node000001" class="node">
<title>Node1</title>
<g id="a_Node000001"><a xlink:title=" ">
<polygon fill="#999999" stroke="#666666" points="1380.97,-294 1201.97,-294 1201.97,-275 1380.97,-275 1380.97,-294"/>
<text text-anchor="middle" x="1291.47" y="-282" font-family="Helvetica,sans-Serif" font-size="10.00">dispatcher/StaticPageHandler.cpp</text>
</a>
</g>
</g>
<!-- Node2 -->
<g id="Node000002" class="node">
<title>Node2</title>
<g id="a_Node000002"><a xlink:title=" ">
<polygon fill="#e0e0e0" stroke="#999999" points="1689.97,-184 1634.97,-184 1634.97,-165 1689.97,-165 1689.97,-184"/>
<text text-anchor="middle" x="1662.47" y="-172" font-family="Helvetica,sans-Serif" font-size="10.00">fstream</text>
</a>
</g>
</g>
<!-- Node1&#45;&gt;Node2 -->
<g id="edge1_Node000001_Node000002" class="edge">
<title>Node1&#45;&gt;Node2</title>
<g id="a_edge1_Node000001_Node000002"><a xlink:title=" ">
<path fill="none" stroke="#63b8ff" d="M1381.09,-282.08C1440.93,-278.25 1520.14,-267.5 1584.47,-239 1609.52,-227.9 1633.17,-206.55 1647.72,-191.68"/>
<polygon fill="#63b8ff" stroke="#63b8ff" points="1650.48,-193.86 1654.82,-184.2 1645.4,-189.04 1650.48,-193.86"/>
</a>
</g>
</g>
<!-- Node3 -->
<g id="Node000003" class="node">
<title>Node3</title>
<g id="a_Node000003"><a xlink:title=" ">
<polygon fill="#e0e0e0" stroke="#999999" points="1500.47,-184 1444.47,-184 1444.47,-165 1500.47,-165 1500.47,-184"/>
<text text-anchor="middle" x="1472.47" y="-172" font-family="Helvetica,sans-Serif" font-size="10.00">sstream</text>
</a>
</g>
</g>
<!-- Node1&#45;&gt;Node3 -->
<g id="edge2_Node000001_Node000003" class="edge">
<title>Node1&#45;&gt;Node3</title>
<g id="a_edge2_Node000001_Node000003"><a xlink:title=" ">
<path fill="none" stroke="#63b8ff" d="M1305.97,-274.84C1337.29,-256.16 1411.47,-211.9 1449.35,-189.3"/>
<polygon fill="#63b8ff" stroke="#63b8ff" points="1451.35,-192.18 1458.14,-184.05 1447.76,-186.17 1451.35,-192.18"/>
</a>
</g>
</g>
<!-- Node4 -->
<g id="Node000004" class="node">
<title>Node4</title>
<g id="a_Node000004"><a xlink:title=" ">
<polygon fill="#e0e0e0" stroke="#999999" points="1215.47,-239 1151.47,-239 1151.47,-220 1215.47,-220 1215.47,-239"/>
<text text-anchor="middle" x="1183.47" y="-227" font-family="Helvetica,sans-Serif" font-size="10.00">sys/stat.h</text>
</a>
</g>
</g>
<!-- Node1&#45;&gt;Node4 -->
<g id="edge3_Node000001_Node000004" class="edge">
<title>Node1&#45;&gt;Node4</title>
<g id="a_edge3_Node000001_Node000004"><a xlink:title=" ">
<path fill="none" stroke="#63b8ff" d="M1274.12,-274.98C1256.9,-266.54 1230.27,-253.47 1210.32,-243.68"/>
<polygon fill="#63b8ff" stroke="#63b8ff" points="1211.66,-240.43 1201.14,-239.17 1208.57,-246.72 1211.66,-240.43"/>
</a>
</g>
</g>
<!-- Node5 -->
<g id="Node000005" class="node">
<title>Node5</title>
<g id="a_Node000005"><a xlink:href="StaticPageHandler_8hpp.html" target="_top" xlink:title=" ">
<polygon fill="white" stroke="#666666" points="287.47,-184 107.47,-184 107.47,-165 287.47,-165 287.47,-184"/>
<text text-anchor="middle" x="197.47" y="-172" font-family="Helvetica,sans-Serif" font-size="10.00">dispatcher/StaticPageHandler.hpp</text>
</a>
</g>
</g>
<!-- Node1&#45;&gt;Node5 -->
<g id="edge4_Node000001_Node000005" class="edge">
<title>Node1&#45;&gt;Node5</title>
<g id="a_edge4_Node000001_Node000005"><a xlink:title=" ">
<path fill="none" stroke="#63b8ff" d="M1201.95,-278.7C1082.1,-271.89 862.96,-258.09 676.47,-239 528.47,-223.85 355.64,-199.21 263.41,-185.51"/>
<polygon fill="#63b8ff" stroke="#63b8ff" points="263.79,-182.03 253.39,-184.01 262.76,-188.95 263.79,-182.03"/>
</a>
</g>
</g>
<!-- Node16 -->
<g id="Node000016" class="node">
<title>Node16</title>
<g id="a_Node000016"><a xlink:href="ResponseBuilder_8hpp.html" target="_top" xlink:title=" ">
<polygon fill="white" stroke="#666666" points="851.47,-239 685.47,-239 685.47,-220 851.47,-220 851.47,-239"/>
<text text-anchor="middle" x="768.47" y="-227" font-family="Helvetica,sans-Serif" font-size="10.00">response/ResponseBuilder.hpp</text>
</a>
</g>
</g>
<!-- Node1&#45;&gt;Node16 -->
<g id="edge20_Node000001_Node000016" class="edge">
<title>Node1&#45;&gt;Node16</title>
<g id="a_edge20_Node000001_Node000016"><a xlink:title=" ">
<path fill="none" stroke="#63b8ff" d="M1207.44,-274.98C1113.04,-265.42 960.21,-249.93 862.07,-239.99"/>
<polygon fill="#63b8ff" stroke="#63b8ff" points="862.16,-236.48 851.86,-238.95 861.45,-243.44 862.16,-236.48"/>
</a>
</g>
</g>
<!-- Node22 -->
<g id="Node000022" class="node">
<title>Node22</title>
<g id="a_Node000022"><a xlink:href="string__utils_8hpp.html" target="_top" xlink:title="Collection of inline string utility functions used across Webservinho.">
<polygon fill="white" stroke="#666666" points="1349.47,-239 1233.47,-239 1233.47,-220 1349.47,-220 1349.47,-239"/>
<text text-anchor="middle" x="1291.47" y="-227" font-family="Helvetica,sans-Serif" font-size="10.00">utils/string_utils.hpp</text>
</a>
</g>
</g>
<!-- Node1&#45;&gt;Node22 -->
<g id="edge40_Node000001_Node000022" class="edge">
<title>Node1&#45;&gt;Node22</title>
<g id="a_edge40_Node000001_Node000022"><a xlink:title=" ">
<path fill="none" stroke="#63b8ff" d="M1291.47,-274.75C1291.47,-267.8 1291.47,-257.85 1291.47,-249.13"/>
<polygon fill="#63b8ff" stroke="#63b8ff" points="1294.97,-249.09 1291.47,-239.09 1287.97,-249.09 1294.97,-249.09"/>
</a>
</g>
</g>
<!-- Node27 -->
<g id="Node000027" class="node">
<title>Node27</title>
<g id="a_Node000027"><a xlink:href="Logger_8hpp.html" target="_top" xlink:title=" ">
<polygon fill="white" stroke="#666666" points="1575.47,-239 1481.47,-239 1481.47,-220 1575.47,-220 1575.47,-239"/>
<text text-anchor="middle" x="1528.47" y="-227" font-family="Helvetica,sans-Serif" font-size="10.00">utils/Logger.hpp</text>
</a>
</g>
</g>
<!-- Node1&#45;&gt;Node27 -->
<g id="edge48_Node000001_Node000027" class="edge">
<title>Node1&#45;&gt;Node27</title>
<g id="a_edge48_Node000001_Node000027"><a xlink:title=" ">
<path fill="none" stroke="#63b8ff" d="M1329.55,-274.98C1370.46,-265.84 1435.58,-251.27 1480.09,-241.32"/>
<polygon fill="#63b8ff" stroke="#63b8ff" points="1481.1,-244.68 1490.09,-239.08 1479.57,-237.85 1481.1,-244.68"/>
</a>
</g>
</g>
<!-- Node6 -->
<g id="Node000006" class="node">
<title>Node6</title>
<g id="a_Node000006"><a xlink:title=" ">
<polygon fill="#e0e0e0" stroke="#999999" points="743.47,-19 699.47,-19 699.47,0 743.47,0 743.47,-19"/>
<text text-anchor="middle" x="721.47" y="-7" font-family="Helvetica,sans-Serif" font-size="10.00">string</text>
</a>
</g>
</g>
<!-- Node5&#45;&gt;Node6 -->
<g id="edge5_Node000005_Node000006" class="edge">
<title>Node5&#45;&gt;Node6</title>
<g id="a_edge5_Node000005_Node000006"><a xlink:title=" ">
<path fill="none" stroke="#63b8ff" d="M158.7,-164.97C90.59,-148.34 -38.8,-108.51 11.47,-55 34.96,-29.99 552.71,-14.87 688.89,-11.31"/>
<polygon fill="#63b8ff" stroke="#63b8ff" points="689.19,-14.81 699.1,-11.05 689.01,-7.81 689.19,-14.81"/>
</a>
</g>
</g>
<!-- Node7 -->
<g id="Node000007" class="node">
<title>Node7</title>
<g id="a_Node000007"><a xlink:href="HttpRequest_8hpp.html" target="_top" xlink:title=" ">
<polygon fill="white" stroke="#666666" points="653.47,-129 515.47,-129 515.47,-110 653.47,-110 653.47,-129"/>
<text text-anchor="middle" x="584.47" y="-117" font-family="Helvetica,sans-Serif" font-size="10.00">request/HttpRequest.hpp</text>
</a>
</g>
</g>
<!-- Node5&#45;&gt;Node7 -->
<g id="edge6_Node000005_Node000007" class="edge">
<title>Node5&#45;&gt;Node7</title>
<g id="a_edge6_Node000005_Node000007"><a xlink:title=" ">
<path fill="none" stroke="#63b8ff" d="M259.65,-164.98C328.52,-155.55 439.42,-140.36 512.13,-130.41"/>
<polygon fill="#63b8ff" stroke="#63b8ff" points="512.69,-133.86 522.12,-129.04 511.74,-126.93 512.69,-133.86"/>
</a>
</g>
</g>
<!-- Node15 -->
<g id="Node000015" class="node">
<title>Node15</title>
<g id="a_Node000015"><a xlink:href="HttpResponse_8hpp.html" target="_top" xlink:title=" ">
<polygon fill="white" stroke="#666666" points="496.97,-129 343.97,-129 343.97,-110 496.97,-110 496.97,-129"/>
<text text-anchor="middle" x="420.47" y="-117" font-family="Helvetica,sans-Serif" font-size="10.00">response/HttpResponse.hpp</text>
</a>
</g>
</g>
<!-- Node5&#45;&gt;Node15 -->
<g id="edge16_Node000005_Node000015" class="edge">
<title>Node5&#45;&gt;Node15</title>
<g id="a_edge16_Node000005_Node000015"><a xlink:title=" ">
<path fill="none" stroke="#63b8ff" d="M233.3,-164.98C271.63,-155.87 332.55,-141.4 374.41,-131.45"/>
<polygon fill="#63b8ff" stroke="#63b8ff" points="375.44,-134.8 384.36,-129.08 373.82,-127.99 375.44,-134.8"/>
</a>
</g>
</g>
<!-- Node7&#45;&gt;Node6 -->
<g id="edge7_Node000007_Node000006" class="edge">
<title>Node7&#45;&gt;Node6</title>
<g id="a_edge7_Node000007_Node000006"><a xlink:title=" ">
<path fill="none" stroke="#63b8ff" d="M582.89,-109.59C581.06,-96.17 579.72,-70.7 592.47,-55 615.98,-26.04 659.36,-15.87 689.28,-12.33"/>
<polygon fill="#63b8ff" stroke="#63b8ff" points="689.65,-15.81 699.25,-11.34 688.95,-8.85 689.65,-15.81"/>
</a>
</g>
</g>
<!-- Node8 -->
<g id="Node000008" class="node">
<title>Node8</title>
<g id="a_Node000008"><a xlink:title=" ">
<polygon fill="#e0e0e0" stroke="#999999" points="837.47,-74 799.47,-74 799.47,-55 837.47,-55 837.47,-74"/>
<text text-anchor="middle" x="818.47" y="-62" font-family="Helvetica,sans-Serif" font-size="10.00">map</text>
</a>
</g>
</g>
<!-- Node7&#45;&gt;Node8 -->
<g id="edge8_Node000007_Node000008" class="edge">
<title>Node7&#45;&gt;Node8</title>
<g id="a_edge8_Node000007_Node000008"><a xlink:title=" ">
<path fill="none" stroke="#63b8ff" d="M622.06,-109.98C668.63,-99.44 746.98,-81.69 789.27,-72.11"/>
<polygon fill="#63b8ff" stroke="#63b8ff" points="790.23,-75.48 799.21,-69.86 788.68,-68.66 790.23,-75.48"/>
</a>
</g>
</g>
<!-- Node9 -->
<g id="Node000009" class="node">
<title>Node9</title>
<g id="a_Node000009"><a xlink:title=" ">
<polygon fill="#e0e0e0" stroke="#999999" points="1112.97,-74 1065.97,-74 1065.97,-55 1112.97,-55 1112.97,-74"/>
<text text-anchor="middle" x="1089.47" y="-62" font-family="Helvetica,sans-Serif" font-size="10.00">vector</text>
</a>
</g>
</g>
<!-- Node7&#45;&gt;Node9 -->
<g id="edge9_Node000007_Node000009" class="edge">
<title>Node7&#45;&gt;Node9</title>
<g id="a_edge9_Node000007_Node000009"><a xlink:title=" ">
<path fill="none" stroke="#63b8ff" d="M653.79,-110.92C656.72,-110.61 659.62,-110.3 662.47,-110 820.63,-93.39 860.4,-91.45 1018.47,-74 1030.56,-72.66 1043.8,-71.11 1055.54,-69.69"/>
<polygon fill="#63b8ff" stroke="#63b8ff" points="1056.31,-73.12 1065.81,-68.44 1055.46,-66.17 1056.31,-73.12"/>
</a>
</g>
</g>
<!-- Node10 -->
<g id="Node000010" class="node">
<title>Node10</title>
<g id="a_Node000010"><a xlink:href="RequestMethod_8hpp.html" target="_top" xlink:title=" ">
<polygon fill="white" stroke="#666666" points="1009.47,-74 855.47,-74 855.47,-55 1009.47,-55 1009.47,-74"/>
<text text-anchor="middle" x="932.47" y="-62" font-family="Helvetica,sans-Serif" font-size="10.00">request/RequestMethod.hpp</text>
</a>
</g>
</g>
<!-- Node7&#45;&gt;Node10 -->
<g id="edge10_Node000007_Node000010" class="edge">
<title>Node7&#45;&gt;Node10</title>
<g id="a_edge10_Node000007_Node000010"><a xlink:title=" ">
<path fill="none" stroke="#63b8ff" d="M640.38,-109.98C701.93,-100.61 800.81,-85.55 866.21,-75.59"/>
<polygon fill="#63b8ff" stroke="#63b8ff" points="867.05,-79 876.41,-74.04 865.99,-72.08 867.05,-79"/>
</a>
</g>
</g>
<!-- Node11 -->
<g id="Node000011" class="node">
<title>Node11</title>
<g id="a_Node000011"><a xlink:href="RequestMeta_8hpp.html" target="_top" xlink:title=" ">
<polygon fill="white" stroke="#666666" points="743.47,-74 601.47,-74 601.47,-55 743.47,-55 743.47,-74"/>
<text text-anchor="middle" x="672.47" y="-62" font-family="Helvetica,sans-Serif" font-size="10.00">request/RequestMeta.hpp</text>
</a>
</g>
</g>
<!-- Node7&#45;&gt;Node11 -->
<g id="edge11_Node000007_Node000011" class="edge">
<title>Node7&#45;&gt;Node11</title>
<g id="a_edge11_Node000007_Node000011"><a xlink:title=" ">
<path fill="none" stroke="#63b8ff" d="M598.61,-109.98C612.25,-101.77 633.16,-89.18 649.25,-79.49"/>
<polygon fill="#63b8ff" stroke="#63b8ff" points="651.31,-82.33 658.07,-74.17 647.7,-76.33 651.31,-82.33"/>
</a>
</g>
</g>
<!-- Node12 -->
<g id="Node000012" class="node">
<title>Node12</title>
<g id="a_Node000012"><a xlink:href="RequestState_8hpp.html" target="_top" xlink:title=" ">
<polygon fill="white" stroke="#666666" points="544.97,-74 401.97,-74 401.97,-55 544.97,-55 544.97,-74"/>
<text text-anchor="middle" x="473.47" y="-62" font-family="Helvetica,sans-Serif" font-size="10.00">request/RequestState.hpp</text>
</a>
</g>
</g>
<!-- Node7&#45;&gt;Node12 -->
<g id="edge13_Node000007_Node000012" class="edge">
<title>Node7&#45;&gt;Node12</title>
<g id="a_edge13_Node000007_Node000012"><a xlink:title=" ">
<path fill="none" stroke="#63b8ff" d="M566.63,-109.98C548.86,-101.5 521.32,-88.35 500.79,-78.54"/>
<polygon fill="#63b8ff" stroke="#63b8ff" points="502.16,-75.32 491.63,-74.17 499.14,-81.64 502.16,-75.32"/>
</a>
</g>
</g>
<!-- Node13 -->
<g id="Node000013" class="node">
<title>Node13</title>
<g id="a_Node000013"><a xlink:href="ResponseStatus_8hpp.html" target="_top" xlink:title=" ">
<polygon fill="white" stroke="#666666" points="183.97,-74 20.97,-74 20.97,-55 183.97,-55 183.97,-74"/>
<text text-anchor="middle" x="102.47" y="-62" font-family="Helvetica,sans-Serif" font-size="10.00">response/ResponseStatus.hpp</text>
</a>
</g>
</g>
<!-- Node7&#45;&gt;Node13 -->
<g id="edge14_Node000007_Node000013" class="edge">
<title>Node7&#45;&gt;Node13</title>
<g id="a_edge14_Node000007_Node000013"><a xlink:title=" ">
<path fill="none" stroke="#63b8ff" d="M515.41,-110.91C429.64,-101.48 283.24,-85.38 189.78,-75.1"/>
<polygon fill="#63b8ff" stroke="#63b8ff" points="190.1,-71.61 179.77,-74 189.33,-78.57 190.1,-71.61"/>
</a>
</g>
</g>
<!-- Node14 -->
<g id="Node000014" class="node">
<title>Node14</title>
<g id="a_Node000014"><a xlink:href="RouteType_8hpp.html" target="_top" xlink:title=" ">
<polygon fill="white" stroke="#666666" points="383.97,-74 240.97,-74 240.97,-55 383.97,-55 383.97,-74"/>
<text text-anchor="middle" x="312.47" y="-62" font-family="Helvetica,sans-Serif" font-size="10.00">dispatcher/RouteType.hpp</text>
</a>
</g>
</g>
<!-- Node7&#45;&gt;Node14 -->
<g id="edge15_Node000007_Node000014" class="edge">
<title>Node7&#45;&gt;Node14</title>
<g id="a_edge15_Node000007_Node000014"><a xlink:title=" ">
<path fill="none" stroke="#63b8ff" d="M540.77,-109.98C493.32,-100.74 417.5,-85.97 366.39,-76.01"/>
<polygon fill="#63b8ff" stroke="#63b8ff" points="367,-72.56 356.51,-74.08 365.66,-79.43 367,-72.56"/>
</a>
</g>
</g>
<!-- Node11&#45;&gt;Node6 -->
<g id="edge12_Node000011_Node000006" class="edge">
<title>Node11&#45;&gt;Node6</title>
<g id="a_edge12_Node000011_Node000006"><a xlink:title=" ">
<path fill="none" stroke="#63b8ff" d="M680.56,-54.75C687.62,-47.11 698.06,-35.82 706.62,-26.56"/>
<polygon fill="#63b8ff" stroke="#63b8ff" points="709.31,-28.81 713.53,-19.09 704.17,-24.06 709.31,-28.81"/>
</a>
</g>
</g>
<!-- Node15&#45;&gt;Node6 -->
<g id="edge17_Node000015_Node000006" class="edge">
<title>Node15&#45;&gt;Node6</title>
<g id="a_edge17_Node000015_Node000006"><a xlink:title=" ">
<path fill="none" stroke="#63b8ff" d="M343.94,-110.14C297.96,-103.36 245.67,-91.94 231.47,-74 226.23,-67.38 225.77,-61.24 231.47,-55 262.31,-21.23 584.5,-12.82 688.97,-10.97"/>
<polygon fill="#63b8ff" stroke="#63b8ff" points="689.28,-14.47 699.22,-10.8 689.16,-7.47 689.28,-14.47"/>
</a>
</g>
</g>
<!-- Node15&#45;&gt;Node8 -->
<g id="edge18_Node000015_Node000008" class="edge">
<title>Node15&#45;&gt;Node8</title>
<g id="a_edge18_Node000015_Node000008"><a xlink:title=" ">
<path fill="none" stroke="#63b8ff" d="M484.41,-109.98C571.86,-98.34 725.2,-77.92 789.16,-69.4"/>
<polygon fill="#63b8ff" stroke="#63b8ff" points="789.88,-72.84 799.33,-68.05 788.95,-65.9 789.88,-72.84"/>
</a>
</g>
</g>
<!-- Node15&#45;&gt;Node13 -->
<g id="edge19_Node000015_Node000013" class="edge">
<title>Node15&#45;&gt;Node13</title>
<g id="a_edge19_Node000015_Node000013"><a xlink:title=" ">
<path fill="none" stroke="#63b8ff" d="M369.38,-109.98C313.36,-100.65 223.52,-85.67 163.75,-75.71"/>
<polygon fill="#63b8ff" stroke="#63b8ff" points="164.14,-72.23 153.7,-74.04 162.99,-79.13 164.14,-72.23"/>
</a>
</g>
</g>
<!-- Node16&#45;&gt;Node13 -->
<g id="edge22_Node000016_Node000013" class="edge">
<title>Node16&#45;&gt;Node13</title>
<g id="a_edge22_Node000016_Node000013"><a xlink:title=" ">
<path fill="none" stroke="#63b8ff" d="M730.12,-219.98C690.22,-211.08 625.93,-196.7 570.47,-184 465.48,-159.97 438.87,-155.44 334.47,-129 266.73,-111.84 188.41,-89.98 142.3,-76.9"/>
<polygon fill="#63b8ff" stroke="#63b8ff" points="142.98,-73.45 132.4,-74.09 141.07,-80.19 142.98,-73.45"/>
</a>
</g>
</g>
<!-- Node16&#45;&gt;Node15 -->
<g id="edge21_Node000016_Node000015" class="edge">
<title>Node16&#45;&gt;Node15</title>
<g id="a_edge21_Node000016_Node000015"><a xlink:title=" ">
<path fill="none" stroke="#63b8ff" d="M740.87,-219.94C678.81,-200.68 528.21,-153.94 457.85,-132.1"/>
<polygon fill="#63b8ff" stroke="#63b8ff" points="458.66,-128.69 448.07,-129.07 456.58,-135.37 458.66,-128.69"/>
</a>
</g>
</g>
<!-- Node17 -->
<g id="Node000017" class="node">
<title>Node17</title>
<g id="a_Node000017"><a xlink:href="ClientConnection_8hpp.html" target="_top" xlink:title=" ">
<polygon fill="white" stroke="#666666" points="789.47,-184 649.47,-184 649.47,-165 789.47,-165 789.47,-184"/>
<text text-anchor="middle" x="719.47" y="-172" font-family="Helvetica,sans-Serif" font-size="10.00">init/ClientConnection.hpp</text>
</a>
</g>
</g>
<!-- Node16&#45;&gt;Node17 -->
<g id="edge23_Node000016_Node000017" class="edge">
<title>Node16&#45;&gt;Node17</title>
<g id="a_edge23_Node000016_Node000017"><a xlink:title=" ">
<path fill="none" stroke="#63b8ff" d="M760.38,-219.75C753.31,-212.11 742.88,-200.82 734.32,-191.56"/>
<polygon fill="#63b8ff" stroke="#63b8ff" points="736.77,-189.06 727.41,-184.09 731.63,-193.81 736.77,-189.06"/>
</a>
</g>
</g>
<!-- Node20 -->
<g id="Node000020" class="node">
<title>Node20</title>
<g id="a_Node000020"><a xlink:href="ServerConfig_8hpp.html" target="_top" xlink:title=" ">
<polygon fill="white" stroke="#666666" points="1035.47,-184 903.47,-184 903.47,-165 1035.47,-165 1035.47,-184"/>
<text text-anchor="middle" x="969.47" y="-172" font-family="Helvetica,sans-Serif" font-size="10.00">config/ServerConfig.hpp</text>
</a>
</g>
</g>
<!-- Node16&#45;&gt;Node20 -->
<g id="edge29_Node000016_Node000020" class="edge">
<title>Node16&#45;&gt;Node20</title>
<g id="a_edge29_Node000016_Node000020"><a xlink:title=" ">
<path fill="none" stroke="#63b8ff" d="M800.76,-219.98C835.09,-210.93 889.53,-196.58 927.24,-186.64"/>
<polygon fill="#63b8ff" stroke="#63b8ff" points="928.14,-190.02 936.92,-184.08 926.36,-183.25 928.14,-190.02"/>
</a>
</g>
</g>
<!-- Node21 -->
<g id="Node000021" class="node">
<title>Node21</title>
<g id="a_Node000021"><a xlink:href="LocationConfig_8hpp.html" target="_top" xlink:title=" ">
<polygon fill="white" stroke="#666666" points="983.47,-129 841.47,-129 841.47,-110 983.47,-110 983.47,-129"/>
<text text-anchor="middle" x="912.47" y="-117" font-family="Helvetica,sans-Serif" font-size="10.00">config/LocationConfig.hpp</text>
</a>
</g>
</g>
<!-- Node16&#45;&gt;Node21 -->
<g id="edge39_Node000016_Node000021" class="edge">
<title>Node16&#45;&gt;Node21</title>
<g id="a_edge39_Node000016_Node000021"><a xlink:title=" ">
<path fill="none" stroke="#63b8ff" d="M780.25,-219.66C804.95,-201.14 862.37,-158.08 892.77,-135.28"/>
<polygon fill="#63b8ff" stroke="#63b8ff" points="895.02,-137.96 900.92,-129.16 890.82,-132.36 895.02,-137.96"/>
</a>
</g>
</g>
<!-- Node17&#45;&gt;Node6 -->
<g id="edge24_Node000017_Node000006" class="edge">
<title>Node17&#45;&gt;Node6</title>
<g id="a_edge24_Node000017_Node000006"><a xlink:title=" ">
<path fill="none" stroke="#63b8ff" d="M728.49,-164.96C736.54,-156.66 747.76,-143.25 752.47,-129 762.78,-97.77 762.32,-86.38 752.47,-55 749.24,-44.71 742.69,-34.72 736.44,-26.82"/>
<polygon fill="#63b8ff" stroke="#63b8ff" points="739.08,-24.52 729.95,-19.15 733.74,-29.04 739.08,-24.52"/>
</a>
</g>
</g>
<!-- Node17&#45;&gt;Node7 -->
<g id="edge27_Node000017_Node000007" class="edge">
<title>Node17&#45;&gt;Node7</title>
<g id="a_edge27_Node000017_Node000007"><a xlink:title=" ">
<path fill="none" stroke="#63b8ff" d="M697.78,-164.98C675.67,-156.3 641.15,-142.75 616.01,-132.88"/>
<polygon fill="#63b8ff" stroke="#63b8ff" points="617.14,-129.57 606.55,-129.17 614.58,-136.08 617.14,-129.57"/>
</a>
</g>
</g>
<!-- Node17&#45;&gt;Node15 -->
<g id="edge28_Node000017_Node000015" class="edge">
<title>Node17&#45;&gt;Node15</title>
<g id="a_edge28_Node000017_Node000015"><a xlink:title=" ">
<path fill="none" stroke="#63b8ff" d="M671.43,-164.98C619.06,-155.7 535.23,-140.84 479.04,-130.88"/>
<polygon fill="#63b8ff" stroke="#63b8ff" points="479.34,-127.38 468.88,-129.08 478.12,-134.27 479.34,-127.38"/>
</a>
</g>
</g>
<!-- Node18 -->
<g id="Node000018" class="node">
<title>Node18</title>
<g id="a_Node000018"><a xlink:title=" ">
<polygon fill="#e0e0e0" stroke="#999999" points="1224.47,-129 1180.47,-129 1180.47,-110 1224.47,-110 1224.47,-129"/>
<text text-anchor="middle" x="1202.47" y="-117" font-family="Helvetica,sans-Serif" font-size="10.00">ctime</text>
</a>
</g>
</g>
<!-- Node17&#45;&gt;Node18 -->
<g id="edge25_Node000017_Node000018" class="edge">
<title>Node17&#45;&gt;Node18</title>
<g id="a_edge25_Node000017_Node000018"><a xlink:title=" ">
<path fill="none" stroke="#63b8ff" d="M789.7,-165.79C895.9,-154.14 1093.14,-132.5 1170.32,-124.03"/>
<polygon fill="#63b8ff" stroke="#63b8ff" points="1170.84,-127.49 1180.4,-122.92 1170.07,-120.53 1170.84,-127.49"/>
</a>
</g>
</g>
<!-- Node19 -->
<g id="Node000019" class="node">
<title>Node19</title>
<g id="a_Node000019"><a xlink:title=" ">
<polygon fill="#e0e0e0" stroke="#999999" points="743.47,-129 671.47,-129 671.47,-110 743.47,-110 743.47,-129"/>
<text text-anchor="middle" x="707.47" y="-117" font-family="Helvetica,sans-Serif" font-size="10.00">sys/types.h</text>
</a>
</g>
</g>
<!-- Node17&#45;&gt;Node19 -->
<g id="edge26_Node000017_Node000019" class="edge">
<title>Node17&#45;&gt;Node19</title>
<g id="a_edge26_Node000017_Node000019"><a xlink:title=" ">
<path fill="none" stroke="#63b8ff" d="M717.49,-164.75C715.9,-157.72 713.61,-147.62 711.62,-138.84"/>
<polygon fill="#63b8ff" stroke="#63b8ff" points="715.03,-138.07 709.41,-129.09 708.21,-139.62 715.03,-138.07"/>
</a>
</g>
</g>
<!-- Node20&#45;&gt;Node6 -->
<g id="edge30_Node000020_Node000006" class="edge">
<title>Node20&#45;&gt;Node6</title>
<g id="a_edge30_Node000020_Node000006"><a xlink:title=" ">
<path fill="none" stroke="#63b8ff" d="M998.41,-164.97C1053.95,-147.24 1166.28,-103.94 1122.47,-55 1097.98,-27.64 844.55,-15.24 753.67,-11.66"/>
<polygon fill="#63b8ff" stroke="#63b8ff" points="753.8,-8.16 743.67,-11.27 753.53,-15.15 753.8,-8.16"/>
</a>
</g>
</g>
<!-- Node20&#45;&gt;Node8 -->
<g id="edge32_Node000020_Node000008" class="edge">
<title>Node20&#45;&gt;Node8</title>
<g id="a_edge32_Node000020_Node000008"><a xlink:title=" ">
<path fill="none" stroke="#63b8ff" d="M903.24,-166.13C877.84,-160.05 850.62,-149 832.47,-129 821.56,-116.98 818.49,-98.44 817.89,-84.49"/>
<polygon fill="#63b8ff" stroke="#63b8ff" points="821.39,-84.08 817.86,-74.09 814.39,-84.11 821.39,-84.08"/>
</a>
</g>
</g>
<!-- Node20&#45;&gt;Node9 -->
<g id="edge31_Node000020_Node000009" class="edge">
<title>Node20&#45;&gt;Node9</title>
<g id="a_edge31_Node000020_Node000009"><a xlink:title=" ">
<path fill="none" stroke="#63b8ff" d="M979.29,-164.66C999.69,-146.3 1046.9,-103.81 1072.39,-80.87"/>
<polygon fill="#63b8ff" stroke="#63b8ff" points="1074.76,-83.45 1079.85,-74.16 1070.07,-78.25 1074.76,-83.45"/>
</a>
</g>
</g>
<!-- Node20&#45;&gt;Node10 -->
<g id="edge38_Node000020_Node000010" class="edge">
<title>Node20&#45;&gt;Node10</title>
<g id="a_edge38_Node000020_Node000010"><a xlink:title=" ">
<path fill="none" stroke="#63b8ff" d="M977.19,-164.6C987.07,-152.06 1001.85,-128.64 992.47,-110 985.78,-96.71 973.03,-86.39 961,-79.05"/>
<polygon fill="#63b8ff" stroke="#63b8ff" points="962.48,-75.87 952.05,-74.02 959.05,-81.97 962.48,-75.87"/>
</a>
</g>
</g>
<!-- Node20&#45;&gt;Node21 -->
<g id="edge33_Node000020_Node000021" class="edge">
<title>Node20&#45;&gt;Node21</title>
<g id="a_edge33_Node000020_Node000021"><a xlink:title=" ">
<path fill="none" stroke="#63b8ff" d="M960.31,-164.98C951.97,-157.23 939.44,-145.58 929.29,-136.14"/>
<polygon fill="#63b8ff" stroke="#63b8ff" points="931.5,-133.42 921.79,-129.17 926.73,-138.54 931.5,-133.42"/>
</a>
</g>
</g>
<!-- Node21&#45;&gt;Node6 -->
<g id="edge35_Node000021_Node000006" class="edge">
<title>Node21&#45;&gt;Node6</title>
<g id="a_edge35_Node000021_Node000006"><a xlink:title=" ">
<path fill="none" stroke="#63b8ff" d="M953.31,-109.94C992.08,-99.99 1041.29,-81.49 1018.47,-55 984.64,-15.72 824.15,-10.61 754.19,-10.29"/>
<polygon fill="#63b8ff" stroke="#63b8ff" points="753.78,-6.79 743.78,-10.28 753.77,-13.79 753.78,-6.79"/>
</a>
</g>
</g>
<!-- Node21&#45;&gt;Node8 -->
<g id="edge36_Node000021_Node000008" class="edge">
<title>Node21&#45;&gt;Node8</title>
<g id="a_edge36_Node000021_Node000008"><a xlink:title=" ">
<path fill="none" stroke="#63b8ff" d="M897.37,-109.98C882.65,-101.69 860.04,-88.94 842.79,-79.22"/>
<polygon fill="#63b8ff" stroke="#63b8ff" points="844.28,-76.03 833.85,-74.17 840.84,-82.13 844.28,-76.03"/>
</a>
</g>
</g>
<!-- Node21&#45;&gt;Node9 -->
<g id="edge34_Node000021_Node000009" class="edge">
<title>Node21&#45;&gt;Node9</title>
<g id="a_edge34_Node000021_Node000009"><a xlink:title=" ">
<path fill="none" stroke="#63b8ff" d="M940.91,-109.98C972.35,-100.57 1022.93,-85.42 1056.19,-75.46"/>
<polygon fill="#63b8ff" stroke="#63b8ff" points="1057.34,-78.77 1065.91,-72.55 1055.33,-72.07 1057.34,-78.77"/>
</a>
</g>
</g>
<!-- Node21&#45;&gt;Node10 -->
<g id="edge37_Node000021_Node000010" class="edge">
<title>Node21&#45;&gt;Node10</title>
<g id="a_edge37_Node000021_Node000010"><a xlink:title=" ">
<path fill="none" stroke="#63b8ff" d="M915.77,-109.75C918.45,-102.65 922.32,-92.4 925.65,-83.56"/>
<polygon fill="#63b8ff" stroke="#63b8ff" points="928.97,-84.68 929.23,-74.09 922.42,-82.21 928.97,-84.68"/>
</a>
</g>
</g>
<!-- Node22&#45;&gt;Node3 -->
<g id="edge42_Node000022_Node000003" class="edge">
<title>Node22&#45;&gt;Node3</title>
<g id="a_edge42_Node000022_Node000003"><a xlink:title=" ">
<path fill="none" stroke="#63b8ff" d="M1320.55,-219.98C1351.43,-210.94 1400.38,-196.61 1434.33,-186.67"/>
<polygon fill="#63b8ff" stroke="#63b8ff" points="1435.74,-189.9 1444.35,-183.73 1433.77,-183.18 1435.74,-189.9"/>
</a>
</g>
</g>
<!-- Node22&#45;&gt;Node6 -->
<g id="edge41_Node000022_Node000006" class="edge">
<title>Node22&#45;&gt;Node6</title>
<g id="a_edge41_Node000022_Node000006"><a xlink:title=" ">
<path fill="none" stroke="#63b8ff" d="M1289.1,-219.76C1283,-198.65 1265.02,-144.15 1233.47,-110 1200.88,-74.73 1186.05,-70.1 1140.47,-55 1068.63,-31.2 839.22,-16.8 753.87,-12.16"/>
<polygon fill="#63b8ff" stroke="#63b8ff" points="753.9,-8.65 743.73,-11.61 753.53,-15.64 753.9,-8.65"/>
</a>
</g>
</g>
<!-- Node22&#45;&gt;Node9 -->
<g id="edge43_Node000022_Node000009" class="edge">
<title>Node22&#45;&gt;Node9</title>
<g id="a_edge43_Node000022_Node000009"><a xlink:title=" ">
<path fill="none" stroke="#63b8ff" d="M1244.23,-219.98C1192.56,-210.22 1115.81,-194.26 1106.47,-184 1081.6,-156.69 1083.07,-110.2 1086.29,-84.31"/>
<polygon fill="#63b8ff" stroke="#63b8ff" points="1089.77,-84.7 1087.75,-74.3 1082.84,-83.69 1089.77,-84.7"/>
</a>
</g>
</g>
<!-- Node23 -->
<g id="Node000023" class="node">
<title>Node23</title>
<g id="a_Node000023"><a xlink:title=" ">
<polygon fill="#e0e0e0" stroke="#999999" points="1358.47,-184 1294.47,-184 1294.47,-165 1358.47,-165 1358.47,-184"/>
<text text-anchor="middle" x="1326.47" y="-172" font-family="Helvetica,sans-Serif" font-size="10.00">algorithm</text>
</a>
</g>
</g>
<!-- Node22&#45;&gt;Node23 -->
<g id="edge44_Node000022_Node000023" class="edge">
<title>Node22&#45;&gt;Node23</title>
<g id="a_edge44_Node000022_Node000023"><a xlink:title=" ">
<path fill="none" stroke="#63b8ff" d="M1297.25,-219.75C1302.09,-212.42 1309.15,-201.73 1315.11,-192.7"/>
<polygon fill="#63b8ff" stroke="#63b8ff" points="1318.21,-194.36 1320.8,-184.09 1312.37,-190.5 1318.21,-194.36"/>
</a>
</g>
</g>
<!-- Node24 -->
<g id="Node000024" class="node">
<title>Node24</title>
<g id="a_Node000024"><a xlink:title=" ">
<polygon fill="#e0e0e0" stroke="#999999" points="1425.97,-184 1376.97,-184 1376.97,-165 1425.97,-165 1425.97,-184"/>
<text text-anchor="middle" x="1401.47" y="-172" font-family="Helvetica,sans-Serif" font-size="10.00">cctype</text>
</a>
</g>
</g>
<!-- Node22&#45;&gt;Node24 -->
<g id="edge45_Node000022_Node000024" class="edge">
<title>Node22&#45;&gt;Node24</title>
<g id="a_edge45_Node000022_Node000024"><a xlink:title=" ">
<path fill="none" stroke="#63b8ff" d="M1309.14,-219.98C1326.76,-211.5 1354.05,-198.35 1374.39,-188.54"/>
<polygon fill="#63b8ff" stroke="#63b8ff" points="1375.98,-191.66 1383.47,-184.17 1372.95,-185.36 1375.98,-191.66"/>
</a>
</g>
</g>
<!-- Node25 -->
<g id="Node000025" class="node">
<title>Node25</title>
<g id="a_Node000025"><a xlink:title=" ">
<polygon fill="#e0e0e0" stroke="#999999" points="1163.97,-184 1114.97,-184 1114.97,-165 1163.97,-165 1163.97,-184"/>
<text text-anchor="middle" x="1139.47" y="-172" font-family="Helvetica,sans-Serif" font-size="10.00">cstdlib</text>
</a>
</g>
</g>
<!-- Node22&#45;&gt;Node25 -->
<g id="edge46_Node000022_Node000025" class="edge">
<title>Node22&#45;&gt;Node25</title>
<g id="a_edge46_Node000022_Node000025"><a xlink:title=" ">
<path fill="none" stroke="#63b8ff" d="M1267.05,-219.98C1241.75,-211.16 1202.01,-197.31 1173.61,-187.41"/>
<polygon fill="#63b8ff" stroke="#63b8ff" points="1174.68,-184.07 1164.08,-184.08 1172.37,-190.68 1174.68,-184.07"/>
</a>
</g>
</g>
<!-- Node26 -->
<g id="Node000026" class="node">
<title>Node26</title>
<g id="a_Node000026"><a xlink:title=" ">
<polygon fill="#e0e0e0" stroke="#999999" points="1238.47,-184 1182.47,-184 1182.47,-165 1238.47,-165 1238.47,-184"/>
<text text-anchor="middle" x="1210.47" y="-172" font-family="Helvetica,sans-Serif" font-size="10.00">iomanip</text>
</a>
</g>
</g>
<!-- Node22&#45;&gt;Node26 -->
<g id="edge47_Node000022_Node000026" class="edge">
<title>Node22&#45;&gt;Node26</title>
<g id="a_edge47_Node000022_Node000026"><a xlink:title=" ">
<path fill="none" stroke="#63b8ff" d="M1278.45,-219.98C1266.01,-211.84 1247.01,-199.41 1232.26,-189.76"/>
<polygon fill="#63b8ff" stroke="#63b8ff" points="1234,-186.72 1223.72,-184.17 1230.17,-192.57 1234,-186.72"/>
</a>
</g>
</g>
<!-- Node27&#45;&gt;Node2 -->
<g id="edge50_Node000027_Node000002" class="edge">
<title>Node27&#45;&gt;Node2</title>
<g id="a_edge50_Node000027_Node000002"><a xlink:title=" ">
<path fill="none" stroke="#63b8ff" d="M1550,-219.98C1571.94,-211.3 1606.21,-197.75 1631.16,-187.88"/>
<polygon fill="#63b8ff" stroke="#63b8ff" points="1632.54,-191.1 1640.55,-184.17 1629.96,-184.59 1632.54,-191.1"/>
</a>
</g>
</g>
<!-- Node27&#45;&gt;Node3 -->
<g id="edge52_Node000027_Node000003" class="edge">
<title>Node27&#45;&gt;Node3</title>
<g id="a_edge52_Node000027_Node000003"><a xlink:title=" ">
<path fill="none" stroke="#63b8ff" d="M1519.47,-219.98C1511.27,-212.23 1498.96,-200.58 1489,-191.14"/>
<polygon fill="#63b8ff" stroke="#63b8ff" points="1491.3,-188.5 1481.63,-184.17 1486.49,-193.59 1491.3,-188.5"/>
</a>
</g>
</g>
<!-- Node27&#45;&gt;Node18 -->
<g id="edge49_Node000027_Node000018" class="edge">
<title>Node27&#45;&gt;Node18</title>
<g id="a_edge49_Node000027_Node000018"><a xlink:title=" ">
<path fill="none" stroke="#63b8ff" d="M1528.62,-219.99C1528.36,-206.17 1525.67,-178.98 1509.47,-165 1468.75,-129.86 1304.67,-122.46 1234.53,-120.91"/>
<polygon fill="#63b8ff" stroke="#63b8ff" points="1234.56,-117.41 1224.5,-120.72 1234.43,-124.41 1234.56,-117.41"/>
</a>
</g>
</g>
<!-- Node28 -->
<g id="Node000028" class="node">
<title>Node28</title>
<g id="a_Node000028"><a xlink:title=" ">
<polygon fill="#e0e0e0" stroke="#999999" points="1616.47,-184 1556.47,-184 1556.47,-165 1616.47,-165 1616.47,-184"/>
<text text-anchor="middle" x="1586.47" y="-172" font-family="Helvetica,sans-Serif" font-size="10.00">iostream</text>
</a>
</g>
</g>
<!-- Node27&#45;&gt;Node28 -->
<g id="edge51_Node000027_Node000028" class="edge">
<title>Node27&#45;&gt;Node28</title>
<g id="a_edge51_Node000027_Node000028"><a xlink:title=" ">
<path fill="none" stroke="#63b8ff" d="M1537.79,-219.98C1546.28,-212.23 1559.03,-200.58 1569.35,-191.14"/>
<polygon fill="#63b8ff" stroke="#63b8ff" points="1571.96,-193.5 1576.98,-184.17 1567.24,-188.33 1571.96,-193.5"/>
</a>
</g>
</g>
</g>
</svg>
