<?xml version="1.0" encoding="UTF-8" standalone="no"?>
<!DOCTYPE svg PUBLIC "-//W3C//DTD SVG 1.1//EN"
 "http://www.w3.org/Graphics/SVG/1.1/DTD/svg11.dtd">
<!-- Generated by graphviz version 2.43.0 (0)
 -->
<!-- Title: dispatcher/StaticPageHandler.hpp Pages: 1 -->
<svg width="348pt" height="82pt"
 viewBox="0.00 0.00 348.00 82.00" xmlns="http://www.w3.org/2000/svg" xmlns:xlink="http://www.w3.org/1999/xlink">
<g id="graph0" class="graph" transform="scale(1 1) rotate(0) translate(4 78)">
<title>dispatcher/StaticPageHandler.hpp</title>
<!-- Node1 -->
<g id="Node000001" class="node">
<title>Node1</title>
<g id="a_Node000001"><a xlink:title=" ">
<polygon fill="#999999" stroke="#666666" points="250.5,-74 70.5,-74 70.5,-55 250.5,-55 250.5,-74"/>
<text text-anchor="middle" x="160.5" y="-62" font-family="Helvetica,sans-Serif" font-size="10.00">dispatcher/StaticPageHandler.hpp</text>
</a>
</g>
</g>
<!-- Node2 -->
<g id="Node000002" class="node">
<title>Node2</title>
<g id="a_Node000002"><a xlink:href="Dispatcher_8cpp.html" target="_top" xlink:title=" ">
<polygon fill="white" stroke="#666666" points="143,-19 0,-19 0,0 143,0 143,-19"/>
<text text-anchor="middle" x="71.5" y="-7" font-family="Helvetica,sans-Serif" font-size="10.00">dispatcher/Dispatcher.cpp</text>
</a>
</g>
</g>
<!-- Node1&#45;&gt;Node2 -->
<g id="edge1_Node000001_Node000002" class="edge">
<title>Node1&#45;&gt;Node2</title>
<g id="a_edge1_Node000001_Node000002"><a xlink:title=" ">
<path fill="none" stroke="#63b8ff" d="M137.32,-49.7C121.11,-40.04 99.95,-27.44 86.06,-19.17"/>
<polygon fill="#63b8ff" stroke="#63b8ff" points="135.82,-52.88 146.2,-54.98 139.4,-46.86 135.82,-52.88"/>
</a>
</g>
</g>
<!-- Node3 -->
<g id="Node000003" class="node">
<title>Node3</title>
<g id="a_Node000003"><a xlink:href="StaticPageHandler_8cpp.html" target="_top" xlink:title=" ">
<polygon fill="white" stroke="#666666" points="340,-19 161,-19 161,0 340,0 340,-19"/>
<text text-anchor="middle" x="250.5" y="-7" font-family="Helvetica,sans-Serif" font-size="10.00">dispatcher/StaticPageHandler.cpp</text>
</a>
</g>
</g>
<!-- Node1&#45;&gt;Node3 -->
<g id="edge2_Node000001_Node000003" class="edge">
<title>Node1&#45;&gt;Node3</title>
<g id="a_edge2_Node000001_Node000003"><a xlink:title=" ">
<path fill="none" stroke="#63b8ff" d="M183.94,-49.7C200.34,-40.04 221.73,-27.44 235.78,-19.17"/>
<polygon fill="#63b8ff" stroke="#63b8ff" points="181.8,-46.89 174.96,-54.98 185.35,-52.93 181.8,-46.89"/>
</a>
</g>
</g>
</g>
</svg>
