<?xml version="1.0" encoding="UTF-8" standalone="no"?>
<!DOCTYPE svg PUBLIC "-//W3C//DTD SVG 1.1//EN"
 "http://www.w3.org/Graphics/SVG/1.1/DTD/svg11.dtd">
<!-- Generated by graphviz version 2.43.0 (0)
 -->
<!-- Title: utils/string_utils.hpp Pages: 1 -->
<svg width="2211pt" height="82pt"
 viewBox="0.00 0.00 2210.50 82.00" xmlns="http://www.w3.org/2000/svg" xmlns:xlink="http://www.w3.org/1999/xlink">
<g id="graph0" class="graph" transform="scale(1 1) rotate(0) translate(4 78)">
<title>utils/string_utils.hpp</title>
<!-- Node1 -->
<g id="Node000001" class="node">
<title>Node1</title>
<g id="a_Node000001"><a xlink:title="Collection of inline string utility functions used across Webservinho.">
<polygon fill="#999999" stroke="#666666" points="1230.5,-74 1114.5,-74 1114.5,-55 1230.5,-55 1230.5,-74"/>
<text text-anchor="middle" x="1172.5" y="-62" font-family="Helvetica,sans-Serif" font-size="10.00">utils/string_utils.hpp</text>
</a>
</g>
</g>
<!-- Node2 -->
<g id="Node000002" class="node">
<title>Node2</title>
<g id="a_Node000002"><a xlink:href="ServerConfig_8cpp.html" target="_top" xlink:title=" ">
<polygon fill="white" stroke="#666666" points="131,-19 0,-19 0,0 131,0 131,-19"/>
<text text-anchor="middle" x="65.5" y="-7" font-family="Helvetica,sans-Serif" font-size="10.00">config/ServerConfig.cpp</text>
</a>
</g>
</g>
<!-- Node1&#45;&gt;Node2 -->
<g id="edge1_Node000001_Node000002" class="edge">
<title>Node1&#45;&gt;Node2</title>
<g id="a_edge1_Node000001_Node000002"><a xlink:title=" ">
<path fill="none" stroke="#63b8ff" d="M1104.18,-62.2C938.65,-58.7 503,-47.32 140.5,-19 137.5,-18.77 134.42,-18.5 131.33,-18.22"/>
<polygon fill="#63b8ff" stroke="#63b8ff" points="1104.15,-65.7 1114.22,-62.41 1104.3,-58.7 1104.15,-65.7"/>
</a>
</g>
</g>
<!-- Node3 -->
<g id="Node000003" class="node">
<title>Node3</title>
<g id="a_Node000003"><a xlink:href="AutoIndexHandler_8cpp.html" target="_top" xlink:title=" ">
<polygon fill="white" stroke="#666666" points="327.5,-19 149.5,-19 149.5,0 327.5,0 327.5,-19"/>
<text text-anchor="middle" x="238.5" y="-7" font-family="Helvetica,sans-Serif" font-size="10.00">dispatcher/AutoIndexHandler.cpp</text>
</a>
</g>
</g>
<!-- Node1&#45;&gt;Node3 -->
<g id="edge2_Node000001_Node000003" class="edge">
<title>Node1&#45;&gt;Node3</title>
<g id="a_edge2_Node000001_Node000003"><a xlink:title=" ">
<path fill="none" stroke="#63b8ff" d="M1104.09,-60.63C961.34,-54.48 621.35,-38.93 336.5,-19 333.6,-18.8 330.66,-18.58 327.69,-18.36"/>
<polygon fill="#63b8ff" stroke="#63b8ff" points="1104.29,-64.14 1114.43,-61.08 1104.59,-57.15 1104.29,-64.14"/>
</a>
</g>
</g>
<!-- Node4 -->
<g id="Node000004" class="node">
<title>Node4</title>
<g id="a_Node000004"><a xlink:href="CgiHandler_8cpp.html" target="_top" xlink:title=" ">
<polygon fill="white" stroke="#666666" points="489.5,-19 345.5,-19 345.5,0 489.5,0 489.5,-19"/>
<text text-anchor="middle" x="417.5" y="-7" font-family="Helvetica,sans-Serif" font-size="10.00">dispatcher/CgiHandler.cpp</text>
</a>
</g>
</g>
<!-- Node1&#45;&gt;Node4 -->
<g id="edge3_Node000001_Node000004" class="edge">
<title>Node1&#45;&gt;Node4</title>
<g id="a_edge3_Node000001_Node000004"><a xlink:title=" ">
<path fill="none" stroke="#63b8ff" d="M1104,-59.85C982.11,-53.17 719.61,-37.89 498.5,-19 495.68,-18.76 492.81,-18.5 489.91,-18.24"/>
<polygon fill="#63b8ff" stroke="#63b8ff" points="1104.12,-63.37 1114.29,-60.42 1104.5,-56.38 1104.12,-63.37"/>
</a>
</g>
</g>
<!-- Node5 -->
<g id="Node000005" class="node">
<title>Node5</title>
<g id="a_Node000005"><a xlink:href="Dispatcher_8cpp.html" target="_top" xlink:title=" ">
<polygon fill="white" stroke="#666666" points="651,-19 508,-19 508,0 651,0 651,-19"/>
<text text-anchor="middle" x="579.5" y="-7" font-family="Helvetica,sans-Serif" font-size="10.00">dispatcher/Dispatcher.cpp</text>
</a>
</g>
</g>
<!-- Node1&#45;&gt;Node5 -->
<g id="edge4_Node000001_Node000005" class="edge">
<title>Node1&#45;&gt;Node5</title>
<g id="a_edge4_Node000001_Node000005"><a xlink:title=" ">
<path fill="none" stroke="#63b8ff" d="M1104.42,-57.97C1006.29,-49.92 819.41,-34.24 660.5,-19 657.4,-18.7 654.24,-18.39 651.05,-18.08"/>
<polygon fill="#63b8ff" stroke="#63b8ff" points="1104.25,-61.47 1114.5,-58.8 1104.82,-54.49 1104.25,-61.47"/>
</a>
</g>
</g>
<!-- Node6 -->
<g id="Node000006" class="node">
<title>Node6</title>
<g id="a_Node000006"><a xlink:href="Router_8cpp.html" target="_top" xlink:title=" ">
<polygon fill="white" stroke="#666666" points="791.5,-19 669.5,-19 669.5,0 791.5,0 791.5,-19"/>
<text text-anchor="middle" x="730.5" y="-7" font-family="Helvetica,sans-Serif" font-size="10.00">dispatcher/Router.cpp</text>
</a>
</g>
</g>
<!-- Node1&#45;&gt;Node6 -->
<g id="edge5_Node000001_Node000006" class="edge">
<title>Node1&#45;&gt;Node6</title>
<g id="a_edge5_Node000001_Node000006"><a xlink:title=" ">
<path fill="none" stroke="#63b8ff" d="M1103.98,-55.34C1029.34,-46.44 906.43,-31.77 800.5,-19 797.58,-18.65 794.6,-18.29 791.58,-17.92"/>
<polygon fill="#63b8ff" stroke="#63b8ff" points="1103.84,-58.85 1114.19,-56.56 1104.67,-51.9 1103.84,-58.85"/>
</a>
</g>
</g>
<!-- Node7 -->
<g id="Node000007" class="node">
<title>Node7</title>
<g id="a_Node000007"><a xlink:href="StaticPageHandler_8cpp.html" target="_top" xlink:title=" ">
<polygon fill="white" stroke="#666666" points="989,-19 810,-19 810,0 989,0 989,-19"/>
<text text-anchor="middle" x="899.5" y="-7" font-family="Helvetica,sans-Serif" font-size="10.00">dispatcher/StaticPageHandler.cpp</text>
</a>
</g>
</g>
<!-- Node1&#45;&gt;Node7 -->
<g id="edge6_Node000001_Node000007" class="edge">
<title>Node1&#45;&gt;Node7</title>
<g id="a_edge6_Node000001_Node000007"><a xlink:title=" ">
<path fill="none" stroke="#63b8ff" d="M1118.75,-53.07C1067.57,-43.13 991.46,-28.35 943.71,-19.08"/>
<polygon fill="#63b8ff" stroke="#63b8ff" points="1118.15,-56.51 1128.64,-54.98 1119.49,-49.64 1118.15,-56.51"/>
</a>
</g>
</g>
<!-- Node8 -->
<g id="Node000008" class="node">
<title>Node8</title>
<g id="a_Node000008"><a xlink:href="UploadHandler_8cpp.html" target="_top" xlink:title=" ">
<polygon fill="white" stroke="#666666" points="1170,-19 1007,-19 1007,0 1170,0 1170,-19"/>
<text text-anchor="middle" x="1088.5" y="-7" font-family="Helvetica,sans-Serif" font-size="10.00">dispatcher/UploadHandler.cpp</text>
</a>
</g>
</g>
<!-- Node1&#45;&gt;Node8 -->
<g id="edge7_Node000001_Node000008" class="edge">
<title>Node1&#45;&gt;Node8</title>
<g id="a_edge7_Node000001_Node000008"><a xlink:title=" ">
<path fill="none" stroke="#63b8ff" d="M1150.19,-49.42C1134.95,-39.81 1115.23,-27.37 1102.24,-19.17"/>
<polygon fill="#63b8ff" stroke="#63b8ff" points="1148.68,-52.61 1159,-54.98 1152.41,-46.69 1148.68,-52.61"/>
</a>
</g>
</g>
<!-- Node9 -->
<g id="Node000009" class="node">
<title>Node9</title>
<g id="a_Node000009"><a xlink:href="ClientConnection_8cpp.html" target="_top" xlink:title=" ">
<polygon fill="white" stroke="#666666" points="1327,-19 1188,-19 1188,0 1327,0 1327,-19"/>
<text text-anchor="middle" x="1257.5" y="-7" font-family="Helvetica,sans-Serif" font-size="10.00">init/ClientConnection.cpp</text>
</a>
</g>
</g>
<!-- Node1&#45;&gt;Node9 -->
<g id="edge8_Node000001_Node000009" class="edge">
<title>Node1&#45;&gt;Node9</title>
<g id="a_edge8_Node000001_Node000009"><a xlink:title=" ">
<path fill="none" stroke="#63b8ff" d="M1195.07,-49.42C1210.5,-39.81 1230.45,-27.37 1243.59,-19.17"/>
<polygon fill="#63b8ff" stroke="#63b8ff" points="1192.79,-46.72 1186.16,-54.98 1196.49,-52.66 1192.79,-46.72"/>
</a>
</g>
</g>
<!-- Node10 -->
<g id="Node000010" class="node">
<title>Node10</title>
<g id="a_Node000010"><a xlink:href="ServerSocket_8cpp.html" target="_top" xlink:title=" ">
<polygon fill="white" stroke="#666666" points="1464,-19 1345,-19 1345,0 1464,0 1464,-19"/>
<text text-anchor="middle" x="1404.5" y="-7" font-family="Helvetica,sans-Serif" font-size="10.00">init/ServerSocket.cpp</text>
</a>
</g>
</g>
<!-- Node1&#45;&gt;Node10 -->
<g id="edge9_Node000001_Node000010" class="edge">
<title>Node1&#45;&gt;Node10</title>
<g id="a_edge9_Node000001_Node000010"><a xlink:title=" ">
<path fill="none" stroke="#63b8ff" d="M1219.54,-52.75C1263.02,-42.82 1326.77,-28.26 1366.93,-19.08"/>
<polygon fill="#63b8ff" stroke="#63b8ff" points="1218.74,-49.35 1209.77,-54.98 1220.3,-56.17 1218.74,-49.35"/>
</a>
</g>
</g>
<!-- Node11 -->
<g id="Node000011" class="node">
<title>Node11</title>
<g id="a_Node000011"><a xlink:href="WebServer_8cpp.html" target="_top" xlink:title=" ">
<polygon fill="white" stroke="#666666" points="1589,-19 1482,-19 1482,0 1589,0 1589,-19"/>
<text text-anchor="middle" x="1535.5" y="-7" font-family="Helvetica,sans-Serif" font-size="10.00">init/WebServer.cpp</text>
</a>
</g>
</g>
<!-- Node1&#45;&gt;Node11 -->
<g id="edge10_Node000001_Node000011" class="edge">
<title>Node1&#45;&gt;Node11</title>
<g id="a_edge10_Node000001_Node000011"><a xlink:title=" ">
<path fill="none" stroke="#63b8ff" d="M1240.85,-53.52C1310.7,-43.32 1417.74,-27.69 1481.76,-18.35"/>
<polygon fill="#63b8ff" stroke="#63b8ff" points="1240.21,-50.08 1230.82,-54.98 1241.22,-57 1240.21,-50.08"/>
</a>
</g>
</g>
<!-- Node12 -->
<g id="Node000012" class="node">
<title>Node12</title>
<g id="a_Node000012"><a xlink:href="HttpRequest_8cpp.html" target="_top" xlink:title=" ">
<polygon fill="white" stroke="#666666" points="1744,-19 1607,-19 1607,0 1744,0 1744,-19"/>
<text text-anchor="middle" x="1675.5" y="-7" font-family="Helvetica,sans-Serif" font-size="10.00">request/HttpRequest.cpp</text>
</a>
</g>
</g>
<!-- Node1&#45;&gt;Node12 -->
<g id="edge11_Node000001_Node000012" class="edge">
<title>Node1&#45;&gt;Node12</title>
<g id="a_edge11_Node000001_Node000012"><a xlink:title=" ">
<path fill="none" stroke="#63b8ff" d="M1240.93,-56.48C1325.1,-47.81 1472.34,-32.55 1598.5,-19 1601.17,-18.71 1603.9,-18.42 1606.66,-18.12"/>
<polygon fill="#63b8ff" stroke="#63b8ff" points="1240.33,-53.02 1230.74,-57.53 1241.04,-59.98 1240.33,-53.02"/>
</a>
</g>
</g>
<!-- Node13 -->
<g id="Node000013" class="node">
<title>Node13</title>
<g id="a_Node000013"><a xlink:href="RequestParse_8cpp.html" target="_top" xlink:title=" ">
<polygon fill="white" stroke="#666666" points="1905,-19 1762,-19 1762,0 1905,0 1905,-19"/>
<text text-anchor="middle" x="1833.5" y="-7" font-family="Helvetica,sans-Serif" font-size="10.00">request/RequestParse.cpp</text>
</a>
</g>
</g>
<!-- Node1&#45;&gt;Node13 -->
<g id="edge12_Node000001_Node000013" class="edge">
<title>Node1&#45;&gt;Node13</title>
<g id="a_edge12_Node000001_Node000013"><a xlink:title=" ">
<path fill="none" stroke="#63b8ff" d="M1240.85,-58.92C1349.51,-51.49 1568.31,-35.93 1753.5,-19 1756.28,-18.75 1759.12,-18.48 1761.98,-18.2"/>
<polygon fill="#63b8ff" stroke="#63b8ff" points="1240.42,-55.44 1230.69,-59.61 1240.9,-62.42 1240.42,-55.44"/>
</a>
</g>
</g>
<!-- Node14 -->
<g id="Node000014" class="node">
<title>Node14</title>
<g id="a_Node000014"><a xlink:href="ResponseBuilder_8cpp.html" target="_top" xlink:title=" ">
<polygon fill="white" stroke="#666666" points="2088,-19 1923,-19 1923,0 2088,0 2088,-19"/>
<text text-anchor="middle" x="2005.5" y="-7" font-family="Helvetica,sans-Serif" font-size="10.00">response/ResponseBuilder.cpp</text>
</a>
</g>
</g>
<!-- Node1&#45;&gt;Node14 -->
<g id="edge13_Node000001_Node000014" class="edge">
<title>Node1&#45;&gt;Node14</title>
<g id="a_edge13_Node000001_Node000014"><a xlink:title=" ">
<path fill="none" stroke="#63b8ff" d="M1241.02,-60.15C1371.96,-53.59 1666.76,-37.99 1914.5,-19 1917.19,-18.79 1919.92,-18.58 1922.68,-18.35"/>
<polygon fill="#63b8ff" stroke="#63b8ff" points="1240.56,-56.67 1230.74,-60.67 1240.91,-63.66 1240.56,-56.67"/>
</a>
</g>
</g>
<!-- Node15 -->
<g id="Node000015" class="node">
<title>Node15</title>
<g id="a_Node000015"><a xlink:href="Signals_8cpp.html" target="_top" xlink:title=" ">
<polygon fill="white" stroke="#666666" points="2202.5,-19 2106.5,-19 2106.5,0 2202.5,0 2202.5,-19"/>
<text text-anchor="middle" x="2154.5" y="-7" font-family="Helvetica,sans-Serif" font-size="10.00">utils/Signals.cpp</text>
</a>
</g>
</g>
<!-- Node1&#45;&gt;Node15 -->
<g id="edge14_Node000001_Node000015" class="edge">
<title>Node1&#45;&gt;Node15</title>
<g id="a_edge14_Node000001_Node000015"><a xlink:title=" ">
<path fill="none" stroke="#63b8ff" d="M1240.76,-62.55C1394.22,-59.9 1778.03,-50.43 2097.5,-19 2100.39,-18.72 2103.35,-18.39 2106.34,-18.03"/>
<polygon fill="#63b8ff" stroke="#63b8ff" points="1240.49,-59.05 1230.55,-62.72 1240.61,-66.05 1240.49,-59.05"/>
</a>
</g>
</g>
</g>
</svg>
