<?xml version="1.0" encoding="UTF-8" standalone="no"?>
<!DOCTYPE svg PUBLIC "-//W3C//DTD SVG 1.1//EN"
 "http://www.w3.org/Graphics/SVG/1.1/DTD/svg11.dtd">
<!-- Generated by graphviz version 2.43.0 (0)
 -->
<!-- Title: dispatcher/UploadHandler.cpp Pages: 1 -->
<!--zoomable 247 -->

<svg id="main" version="1.1" xmlns="http://www.w3.org/2000/svg" xmlns:xlink="http://www.w3.org/1999/xlink" xml:space="preserve" onload="init(evt)">
<style type="text/css"><![CDATA[
.node, .edge {opacity: 0.7;}
.node.selected, .edge.selected {opacity: 1;}
.edge:hover path { stroke: red; }
.edge:hover polygon { stroke: red; fill: red; }
]]></style>

<defs>
  <circle id="rim" cx="0" cy="0" r="7"/>
  <circle id="rim2" cx="0" cy="0" r="3.5"/>
  <g id="zoomPlus">
    <use xlink:href="#rim" fill="#404040"><set attributeName="fill" to="#808080" begin="zoomplus.mouseover" end="zoomplus.mouseout"/></use>
    <path d="M-4,0h8M0,-4v8" fill="none" stroke="white" stroke-width="1.5" pointer-events="none"/>
  </g>
  <g id="zoomMin">
    <use xlink:href="#rim" fill="#404040"><set attributeName="fill" to="#808080" begin="zoomminus.mouseover" end="zoomminus.mouseout"/></use>
    <path d="M-4,0h8" fill="none" stroke="white" stroke-width="1.5" pointer-events="none"/>
  </g>
  <g id="arrowUp" transform="translate(30 24)">
    <use xlink:href="#rim"/>
    <path pointer-events="none" fill="none" stroke="white" stroke-width="1.5" d="M0,-3.0v7 M-2.5,-0.5L0,-3.0L2.5,-0.5"/>
  </g>
  <g id="arrowRight" transform="rotate(90) translate(36 -43)">
    <use xlink:href="#rim"/>
    <path pointer-events="none" fill="none" stroke="white" stroke-width="1.5" d="M0,-3.0v7 M-2.5,-0.5L0,-3.0L2.5,-0.5"/>
  </g>
  <g id="arrowDown" transform="rotate(180) translate(-30 -48)">
    <use xlink:href="#rim"/>
    <path pointer-events="none" fill="none" stroke="white" stroke-width="1.5" d="M0,-3.0v7 M-2.5,-0.5L0,-3.0L2.5,-0.5"/>
  </g>
  <g id="arrowLeft" transform="rotate(270) translate(-36 17)">
    <use xlink:href="#rim"/>
    <path pointer-events="none" fill="none" stroke="white" stroke-width="1.5" d="M0,-3.0v7 M-2.5,-0.5L0,-3.0L2.5,-0.5"/>
  </g>
  <g id="resetDef">
    <use xlink:href="#rim2" fill="#404040"><set attributeName="fill" to="#808080" begin="reset.mouseover" end="reset.mouseout"/></use>
  </g>
</defs>
<script type="application/ecmascript">
var viewWidth = 1532;
var viewHeight = 247;
var sectionId = 'dynsection-0';
</script>
<script type="application/ecmascript" xlink:href="svg.min.js"/>
<svg id="graph" class="graph">
<g id="viewport">
<title>dispatcher/UploadHandler.cpp</title>
<!-- Node1 -->
<g id="Node000001" class="node">
<title>Node1</title>
<g id="a_Node000001"><a xlink:title=" ">
<polygon fill="#999999" stroke="#666666" points="841.85,-239 678.85,-239 678.85,-220 841.85,-220 841.85,-239"/>
<text text-anchor="middle" x="760.35" y="-227" font-family="Helvetica,sans-Serif" font-size="10.00">dispatcher/UploadHandler.cpp</text>
</a>
</g>
</g>
<!-- Node2 -->
<g id="Node000002" class="node">
<title>Node2</title>
<g id="a_Node000002"><a xlink:title=" ">
<polygon fill="#e0e0e0" stroke="#999999" points="630.85,-129 575.85,-129 575.85,-110 630.85,-110 630.85,-129"/>
<text text-anchor="middle" x="603.35" y="-117" font-family="Helvetica,sans-Serif" font-size="10.00">fstream</text>
</a>
</g>
</g>
<!-- Node1&#45;&gt;Node2 -->
<g id="edge1_Node000001_Node000002" class="edge">
<title>Node1&#45;&gt;Node2</title>
<g id="a_edge1_Node000001_Node000002"><a xlink:title=" ">
<path fill="none" stroke="#63b8ff" d="M691.9,-219.94C667.13,-213.66 640.76,-202.8 622.35,-184 610.67,-172.06 606.12,-153.24 604.38,-139.18"/>
<polygon fill="#63b8ff" stroke="#63b8ff" points="607.86,-138.81 603.5,-129.15 600.89,-139.42 607.86,-138.81"/>
</a>
</g>
</g>
<!-- Node3 -->
<g id="Node000003" class="node">
<title>Node3</title>
<g id="a_Node000003"><a xlink:title=" ">
<polygon fill="#e0e0e0" stroke="#999999" points="1157.35,-129 1101.35,-129 1101.35,-110 1157.35,-110 1157.35,-129"/>
<text text-anchor="middle" x="1129.35" y="-117" font-family="Helvetica,sans-Serif" font-size="10.00">sstream</text>
</a>
</g>
</g>
<!-- Node1&#45;&gt;Node3 -->
<g id="edge2_Node000001_Node000003" class="edge">
<title>Node1&#45;&gt;Node3</title>
<g id="a_edge2_Node000001_Node000003"><a xlink:title=" ">
<path fill="none" stroke="#63b8ff" d="M824.73,-219.99C870.95,-212.9 934.35,-201.18 988.35,-184 1030.46,-170.61 1076.71,-148.19 1104.37,-133.88"/>
<polygon fill="#63b8ff" stroke="#63b8ff" points="1106.1,-136.93 1113.34,-129.19 1102.85,-130.72 1106.1,-136.93"/>
</a>
</g>
</g>
<!-- Node4 -->
<g id="Node000004" class="node">
<title>Node4</title>
<g id="a_Node000004"><a xlink:title=" ">
<polygon fill="#e0e0e0" stroke="#999999" points="1239.35,-129 1175.35,-129 1175.35,-110 1239.35,-110 1239.35,-129"/>
<text text-anchor="middle" x="1207.35" y="-117" font-family="Helvetica,sans-Serif" font-size="10.00">algorithm</text>
</a>
</g>
</g>
<!-- Node1&#45;&gt;Node4 -->
<g id="edge3_Node000001_Node000004" class="edge">
<title>Node1&#45;&gt;Node4</title>
<g id="a_edge3_Node000001_Node000004"><a xlink:title=" ">
<path fill="none" stroke="#63b8ff" d="M831.61,-219.96C885.58,-212.68 961.28,-200.73 1026.35,-184 1080.75,-170.02 1142.02,-146.9 1177.51,-132.75"/>
<polygon fill="#63b8ff" stroke="#63b8ff" points="1178.84,-135.99 1186.81,-129.01 1176.22,-129.5 1178.84,-135.99"/>
</a>
</g>
</g>
<!-- Node5 -->
<g id="Node000005" class="node">
<title>Node5</title>
<g id="a_Node000005"><a xlink:title=" ">
<polygon fill="#e0e0e0" stroke="#999999" points="695.35,-184 631.35,-184 631.35,-165 695.35,-165 695.35,-184"/>
<text text-anchor="middle" x="663.35" y="-172" font-family="Helvetica,sans-Serif" font-size="10.00">sys/stat.h</text>
</a>
</g>
</g>
<!-- Node1&#45;&gt;Node5 -->
<g id="edge4_Node000001_Node000005" class="edge">
<title>Node1&#45;&gt;Node5</title>
<g id="a_edge4_Node000001_Node000005"><a xlink:title=" ">
<path fill="none" stroke="#63b8ff" d="M744.77,-219.98C729.59,-211.69 706.26,-198.94 688.45,-189.22"/>
<polygon fill="#63b8ff" stroke="#63b8ff" points="689.68,-185.89 679.22,-184.17 686.32,-192.04 689.68,-185.89"/>
</a>
</g>
</g>
<!-- Node6 -->
<g id="Node000006" class="node">
<title>Node6</title>
<g id="a_Node000006"><a xlink:href="UploadHandler_8hpp.html" target="_top" xlink:title=" ">
<polygon fill="white" stroke="#666666" points="438.35,-184 274.35,-184 274.35,-165 438.35,-165 438.35,-184"/>
<text text-anchor="middle" x="356.35" y="-172" font-family="Helvetica,sans-Serif" font-size="10.00">dispatcher/UploadHandler.hpp</text>
</a>
</g>
</g>
<!-- Node1&#45;&gt;Node6 -->
<g id="edge5_Node000001_Node000006" class="edge">
<title>Node1&#45;&gt;Node6</title>
<g id="a_edge5_Node000001_Node000006"><a xlink:title=" ">
<path fill="none" stroke="#63b8ff" d="M695.44,-219.98C623.4,-210.53 507.3,-195.3 431.41,-185.35"/>
<polygon fill="#63b8ff" stroke="#63b8ff" points="431.81,-181.87 421.44,-184.04 430.9,-188.81 431.81,-181.87"/>
</a>
</g>
</g>
<!-- Node14 -->
<g id="Node000014" class="node">
<title>Node14</title>
<g id="a_Node000014"><a xlink:href="ResponseStatus_8hpp.html" target="_top" xlink:title=" ">
<polygon fill="white" stroke="#666666" points="202.85,-74 39.85,-74 39.85,-55 202.85,-55 202.85,-74"/>
<text text-anchor="middle" x="121.35" y="-62" font-family="Helvetica,sans-Serif" font-size="10.00">response/ResponseStatus.hpp</text>
</a>
</g>
</g>
<!-- Node1&#45;&gt;Node14 -->
<g id="edge21_Node000001_Node000014" class="edge">
<title>Node1&#45;&gt;Node14</title>
<g id="a_edge21_Node000001_Node000014"><a xlink:title=" ">
<path fill="none" stroke="#63b8ff" d="M678.43,-229.05C579.15,-227.93 407.51,-220.17 265.35,-184 205.74,-168.83 178.53,-175.57 138.35,-129 127.75,-116.71 123.68,-98.49 122.16,-84.71"/>
<polygon fill="#63b8ff" stroke="#63b8ff" points="125.63,-84.12 121.39,-74.41 118.65,-84.64 125.63,-84.12"/>
</a>
</g>
</g>
<!-- Node17 -->
<g id="Node000017" class="node">
<title>Node17</title>
<g id="a_Node000017"><a xlink:href="ServerConfig_8hpp.html" target="_top" xlink:title=" ">
<polygon fill="white" stroke="#666666" points="979.35,-184 847.35,-184 847.35,-165 979.35,-165 979.35,-184"/>
<text text-anchor="middle" x="913.35" y="-172" font-family="Helvetica,sans-Serif" font-size="10.00">config/ServerConfig.hpp</text>
</a>
</g>
</g>
<!-- Node1&#45;&gt;Node17 -->
<g id="edge22_Node000001_Node000017" class="edge">
<title>Node1&#45;&gt;Node17</title>
<g id="a_edge22_Node000001_Node000017"><a xlink:title=" ">
<path fill="none" stroke="#63b8ff" d="M784.94,-219.98C810.4,-211.16 850.4,-197.31 878.98,-187.41"/>
<polygon fill="#63b8ff" stroke="#63b8ff" points="880.28,-190.66 888.58,-184.08 877.98,-184.05 880.28,-190.66"/>
</a>
</g>
</g>
<!-- Node19 -->
<g id="Node000019" class="node">
<title>Node19</title>
<g id="a_Node000019"><a xlink:href="Logger_8hpp.html" target="_top" xlink:title=" ">
<polygon fill="white" stroke="#666666" points="807.35,-184 713.35,-184 713.35,-165 807.35,-165 807.35,-184"/>
<text text-anchor="middle" x="760.35" y="-172" font-family="Helvetica,sans-Serif" font-size="10.00">utils/Logger.hpp</text>
</a>
</g>
</g>
<!-- Node1&#45;&gt;Node19 -->
<g id="edge32_Node000001_Node000019" class="edge">
<title>Node1&#45;&gt;Node19</title>
<g id="a_edge32_Node000001_Node000019"><a xlink:title=" ">
<path fill="none" stroke="#63b8ff" d="M760.35,-219.75C760.35,-212.8 760.35,-202.85 760.35,-194.13"/>
<polygon fill="#63b8ff" stroke="#63b8ff" points="763.85,-194.09 760.35,-184.09 756.85,-194.09 763.85,-194.09"/>
</a>
</g>
</g>
<!-- Node22 -->
<g id="Node000022" class="node">
<title>Node22</title>
<g id="a_Node000022"><a xlink:href="string__utils_8hpp.html" target="_top" xlink:title="Collection of inline string utility functions used across Webservinho.">
<polygon fill="white" stroke="#666666" points="1341.35,-184 1225.35,-184 1225.35,-165 1341.35,-165 1341.35,-184"/>
<text text-anchor="middle" x="1283.35" y="-172" font-family="Helvetica,sans-Serif" font-size="10.00">utils/string_utils.hpp</text>
</a>
</g>
</g>
<!-- Node1&#45;&gt;Node22 -->
<g id="edge37_Node000001_Node000022" class="edge">
<title>Node1&#45;&gt;Node22</title>
<g id="a_edge37_Node000001_Node000022"><a xlink:title=" ">
<path fill="none" stroke="#63b8ff" d="M842.2,-220.48C931.31,-211.7 1077.98,-197.13 1204.35,-184 1207.82,-183.64 1211.37,-183.27 1214.96,-182.89"/>
<polygon fill="#63b8ff" stroke="#63b8ff" points="1215.54,-186.35 1225.12,-181.81 1214.8,-179.39 1215.54,-186.35"/>
</a>
</g>
</g>
<!-- Node7 -->
<g id="Node000007" class="node">
<title>Node7</title>
<g id="a_Node000007"><a xlink:title=" ">
<polygon fill="#e0e0e0" stroke="#999999" points="675.35,-19 631.35,-19 631.35,0 675.35,0 675.35,-19"/>
<text text-anchor="middle" x="653.35" y="-7" font-family="Helvetica,sans-Serif" font-size="10.00">string</text>
</a>
</g>
</g>
<!-- Node6&#45;&gt;Node7 -->
<g id="edge6_Node000006_Node000007" class="edge">
<title>Node6&#45;&gt;Node7</title>
<g id="a_edge6_Node000006_Node000007"><a xlink:title=" ">
<path fill="none" stroke="#63b8ff" d="M274.19,-170.66C150.47,-163.64 -61.25,-139.3 17.35,-55 58.8,-10.55 497.22,-9.62 620.99,-10.25"/>
<polygon fill="#63b8ff" stroke="#63b8ff" points="621.29,-13.75 631.31,-10.31 621.33,-6.75 621.29,-13.75"/>
</a>
</g>
</g>
<!-- Node8 -->
<g id="Node000008" class="node">
<title>Node8</title>
<g id="a_Node000008"><a xlink:href="HttpRequest_8hpp.html" target="_top" xlink:title=" ">
<polygon fill="white" stroke="#666666" points="557.35,-129 419.35,-129 419.35,-110 557.35,-110 557.35,-129"/>
<text text-anchor="middle" x="488.35" y="-117" font-family="Helvetica,sans-Serif" font-size="10.00">request/HttpRequest.hpp</text>
</a>
</g>
</g>
<!-- Node6&#45;&gt;Node8 -->
<g id="edge7_Node000006_Node000008" class="edge">
<title>Node6&#45;&gt;Node8</title>
<g id="a_edge7_Node000006_Node000008"><a xlink:title=" ">
<path fill="none" stroke="#63b8ff" d="M377.56,-164.98C399.08,-156.34 432.64,-142.87 457.18,-133.02"/>
<polygon fill="#63b8ff" stroke="#63b8ff" points="458.78,-136.14 466.76,-129.17 456.18,-129.65 458.78,-136.14"/>
</a>
</g>
</g>
<!-- Node16 -->
<g id="Node000016" class="node">
<title>Node16</title>
<g id="a_Node000016"><a xlink:href="HttpResponse_8hpp.html" target="_top" xlink:title=" ">
<polygon fill="white" stroke="#666666" points="300.85,-129 147.85,-129 147.85,-110 300.85,-110 300.85,-129"/>
<text text-anchor="middle" x="224.35" y="-117" font-family="Helvetica,sans-Serif" font-size="10.00">response/HttpResponse.hpp</text>
</a>
</g>
</g>
<!-- Node6&#45;&gt;Node16 -->
<g id="edge17_Node000006_Node000016" class="edge">
<title>Node6&#45;&gt;Node16</title>
<g id="a_edge17_Node000006_Node000016"><a xlink:title=" ">
<path fill="none" stroke="#63b8ff" d="M335.15,-164.98C313.62,-156.34 280.07,-142.87 255.52,-133.02"/>
<polygon fill="#63b8ff" stroke="#63b8ff" points="256.53,-129.65 245.95,-129.17 253.92,-136.14 256.53,-129.65"/>
</a>
</g>
</g>
<!-- Node8&#45;&gt;Node7 -->
<g id="edge8_Node000008_Node000007" class="edge">
<title>Node8&#45;&gt;Node7</title>
<g id="a_edge8_Node000008_Node000007"><a xlink:title=" ">
<path fill="none" stroke="#63b8ff" d="M463.02,-109.97C433.84,-98.81 392.22,-77.97 411.35,-55 437.67,-23.4 561.26,-14.16 620.94,-11.52"/>
<polygon fill="#63b8ff" stroke="#63b8ff" points="621.46,-15.01 631.31,-11.1 621.17,-8.01 621.46,-15.01"/>
</a>
</g>
</g>
<!-- Node9 -->
<g id="Node000009" class="node">
<title>Node9</title>
<g id="a_Node000009"><a xlink:title=" ">
<polygon fill="#e0e0e0" stroke="#999999" points="780.35,-74 742.35,-74 742.35,-55 780.35,-55 780.35,-74"/>
<text text-anchor="middle" x="761.35" y="-62" font-family="Helvetica,sans-Serif" font-size="10.00">map</text>
</a>
</g>
</g>
<!-- Node8&#45;&gt;Node9 -->
<g id="edge9_Node000008_Node000009" class="edge">
<title>Node8&#45;&gt;Node9</title>
<g id="a_edge9_Node000008_Node000009"><a xlink:title=" ">
<path fill="none" stroke="#63b8ff" d="M546.17,-109.92C593.82,-102.42 663.32,-90.47 732.41,-74"/>
<polygon fill="#63b8ff" stroke="#63b8ff" points="733.26,-77.4 742.15,-71.65 731.61,-70.59 733.26,-77.4"/>
</a>
</g>
</g>
<!-- Node10 -->
<g id="Node000010" class="node">
<title>Node10</title>
<g id="a_Node000010"><a xlink:title=" ">
<polygon fill="#e0e0e0" stroke="#999999" points="1055.85,-74 1008.85,-74 1008.85,-55 1055.85,-55 1055.85,-74"/>
<text text-anchor="middle" x="1032.35" y="-62" font-family="Helvetica,sans-Serif" font-size="10.00">vector</text>
</a>
</g>
</g>
<!-- Node8&#45;&gt;Node10 -->
<g id="edge10_Node000008_Node000010" class="edge">
<title>Node8&#45;&gt;Node10</title>
<g id="a_edge10_Node000008_Node000010"><a xlink:title=" ">
<path fill="none" stroke="#63b8ff" d="M557.67,-110.88C560.6,-110.58 563.51,-110.28 566.35,-110 741.76,-92.45 786.04,-92.48 961.35,-74 973.45,-72.72 986.69,-71.18 998.43,-69.76"/>
<polygon fill="#63b8ff" stroke="#63b8ff" points="999.21,-73.19 1008.71,-68.5 998.35,-66.24 999.21,-73.19"/>
</a>
</g>
</g>
<!-- Node11 -->
<g id="Node000011" class="node">
<title>Node11</title>
<g id="a_Node000011"><a xlink:href="RequestMethod_8hpp.html" target="_top" xlink:title=" ">
<polygon fill="white" stroke="#666666" points="952.35,-74 798.35,-74 798.35,-55 952.35,-55 952.35,-74"/>
<text text-anchor="middle" x="875.35" y="-62" font-family="Helvetica,sans-Serif" font-size="10.00">request/RequestMethod.hpp</text>
</a>
</g>
</g>
<!-- Node8&#45;&gt;Node11 -->
<g id="edge11_Node000008_Node000011" class="edge">
<title>Node8&#45;&gt;Node11</title>
<g id="a_edge11_Node000008_Node000011"><a xlink:title=" ">
<path fill="none" stroke="#63b8ff" d="M550.53,-109.98C619.4,-100.55 730.3,-85.36 803.01,-75.41"/>
<polygon fill="#63b8ff" stroke="#63b8ff" points="803.58,-78.86 813.01,-74.04 802.63,-71.93 803.58,-78.86"/>
</a>
</g>
</g>
<!-- Node12 -->
<g id="Node000012" class="node">
<title>Node12</title>
<g id="a_Node000012"><a xlink:href="RequestMeta_8hpp.html" target="_top" xlink:title=" ">
<polygon fill="white" stroke="#666666" points="724.35,-74 582.35,-74 582.35,-55 724.35,-55 724.35,-74"/>
<text text-anchor="middle" x="653.35" y="-62" font-family="Helvetica,sans-Serif" font-size="10.00">request/RequestMeta.hpp</text>
</a>
</g>
</g>
<!-- Node8&#45;&gt;Node12 -->
<g id="edge12_Node000008_Node000012" class="edge">
<title>Node8&#45;&gt;Node12</title>
<g id="a_edge12_Node000008_Node000012"><a xlink:title=" ">
<path fill="none" stroke="#63b8ff" d="M514.86,-109.98C542.57,-101.09 586.21,-87.07 617.09,-77.15"/>
<polygon fill="#63b8ff" stroke="#63b8ff" points="618.18,-80.47 626.64,-74.08 616.04,-73.81 618.18,-80.47"/>
</a>
</g>
</g>
<!-- Node13 -->
<g id="Node000013" class="node">
<title>Node13</title>
<g id="a_Node000013"><a xlink:href="RequestState_8hpp.html" target="_top" xlink:title=" ">
<polygon fill="white" stroke="#666666" points="563.85,-74 420.85,-74 420.85,-55 563.85,-55 563.85,-74"/>
<text text-anchor="middle" x="492.35" y="-62" font-family="Helvetica,sans-Serif" font-size="10.00">request/RequestState.hpp</text>
</a>
</g>
</g>
<!-- Node8&#45;&gt;Node13 -->
<g id="edge14_Node000008_Node000013" class="edge">
<title>Node8&#45;&gt;Node13</title>
<g id="a_edge14_Node000008_Node000013"><a xlink:title=" ">
<path fill="none" stroke="#63b8ff" d="M489.01,-109.75C489.54,-102.8 490.29,-92.85 490.95,-84.13"/>
<polygon fill="#63b8ff" stroke="#63b8ff" points="494.44,-84.32 491.71,-74.09 487.46,-83.8 494.44,-84.32"/>
</a>
</g>
</g>
<!-- Node8&#45;&gt;Node14 -->
<g id="edge15_Node000008_Node000014" class="edge">
<title>Node8&#45;&gt;Node14</title>
<g id="a_edge15_Node000008_Node000014"><a xlink:title=" ">
<path fill="none" stroke="#63b8ff" d="M429.39,-109.98C364.21,-100.57 259.34,-85.43 190.38,-75.47"/>
<polygon fill="#63b8ff" stroke="#63b8ff" points="190.87,-72 180.48,-74.04 189.87,-78.93 190.87,-72"/>
</a>
</g>
</g>
<!-- Node15 -->
<g id="Node000015" class="node">
<title>Node15</title>
<g id="a_Node000015"><a xlink:href="RouteType_8hpp.html" target="_top" xlink:title=" ">
<polygon fill="white" stroke="#666666" points="363.85,-74 220.85,-74 220.85,-55 363.85,-55 363.85,-74"/>
<text text-anchor="middle" x="292.35" y="-62" font-family="Helvetica,sans-Serif" font-size="10.00">dispatcher/RouteType.hpp</text>
</a>
</g>
</g>
<!-- Node8&#45;&gt;Node15 -->
<g id="edge16_Node000008_Node000015" class="edge">
<title>Node8&#45;&gt;Node15</title>
<g id="a_edge16_Node000008_Node000015"><a xlink:title=" ">
<path fill="none" stroke="#63b8ff" d="M456.86,-109.98C423.53,-100.97 370.76,-86.7 334,-76.76"/>
<polygon fill="#63b8ff" stroke="#63b8ff" points="334.66,-73.31 324.09,-74.08 332.83,-80.07 334.66,-73.31"/>
</a>
</g>
</g>
<!-- Node12&#45;&gt;Node7 -->
<g id="edge13_Node000012_Node000007" class="edge">
<title>Node12&#45;&gt;Node7</title>
<g id="a_edge13_Node000012_Node000007"><a xlink:title=" ">
<path fill="none" stroke="#63b8ff" d="M653.35,-54.75C653.35,-47.8 653.35,-37.85 653.35,-29.13"/>
<polygon fill="#63b8ff" stroke="#63b8ff" points="656.85,-29.09 653.35,-19.09 649.85,-29.09 656.85,-29.09"/>
</a>
</g>
</g>
<!-- Node16&#45;&gt;Node7 -->
<g id="edge18_Node000016_Node000007" class="edge">
<title>Node16&#45;&gt;Node7</title>
<g id="a_edge18_Node000016_Node000007"><a xlink:title=" ">
<path fill="none" stroke="#63b8ff" d="M147.65,-115.98C77.96,-111.06 -8.47,-96.69 30.35,-55 70.84,-11.52 498.51,-9.87 620.84,-10.3"/>
<polygon fill="#63b8ff" stroke="#63b8ff" points="621.04,-13.8 631.06,-10.34 621.07,-6.8 621.04,-13.8"/>
</a>
</g>
</g>
<!-- Node16&#45;&gt;Node9 -->
<g id="edge19_Node000016_Node000009" class="edge">
<title>Node16&#45;&gt;Node9</title>
<g id="a_edge19_Node000016_Node000009"><a xlink:title=" ">
<path fill="none" stroke="#63b8ff" d="M301.01,-113.76C417.97,-106.2 636.61,-90.73 732.25,-73.75"/>
<polygon fill="#63b8ff" stroke="#63b8ff" points="733.02,-77.16 742.21,-71.89 731.73,-70.28 733.02,-77.16"/>
</a>
</g>
</g>
<!-- Node16&#45;&gt;Node14 -->
<g id="edge20_Node000016_Node000014" class="edge">
<title>Node16&#45;&gt;Node14</title>
<g id="a_edge20_Node000016_Node000014"><a xlink:title=" ">
<path fill="none" stroke="#63b8ff" d="M207.8,-109.98C191.46,-101.57 166.22,-88.59 147.22,-78.81"/>
<polygon fill="#63b8ff" stroke="#63b8ff" points="148.7,-75.63 138.2,-74.17 145.49,-81.86 148.7,-75.63"/>
</a>
</g>
</g>
<!-- Node17&#45;&gt;Node7 -->
<g id="edge23_Node000017_Node000007" class="edge">
<title>Node17&#45;&gt;Node7</title>
<g id="a_edge23_Node000017_Node000007"><a xlink:title=" ">
<path fill="none" stroke="#63b8ff" d="M961.2,-165C985.97,-158.58 1015.33,-147.57 1036.35,-129 1062.71,-105.72 1087.84,-81.17 1064.35,-55 1039.16,-26.94 778.3,-14.96 685.72,-11.57"/>
<polygon fill="#63b8ff" stroke="#63b8ff" points="685.66,-8.06 675.54,-11.21 685.41,-15.06 685.66,-8.06"/>
</a>
</g>
</g>
<!-- Node17&#45;&gt;Node9 -->
<g id="edge25_Node000017_Node000009" class="edge">
<title>Node17&#45;&gt;Node9</title>
<g id="a_edge25_Node000017_Node000009"><a xlink:title=" ">
<path fill="none" stroke="#63b8ff" d="M900.56,-164.7C887.6,-155.77 867.02,-141.52 849.35,-129 826.05,-112.49 799.49,-93.27 781.7,-80.34"/>
<polygon fill="#63b8ff" stroke="#63b8ff" points="783.41,-77.25 773.26,-74.19 779.29,-82.91 783.41,-77.25"/>
</a>
</g>
</g>
<!-- Node17&#45;&gt;Node10 -->
<g id="edge24_Node000017_Node000010" class="edge">
<title>Node17&#45;&gt;Node10</title>
<g id="a_edge24_Node000017_Node000010"><a xlink:title=" ">
<path fill="none" stroke="#63b8ff" d="M954.53,-164.96C975.85,-158.5 1000.64,-147.47 1016.35,-129 1026.83,-116.69 1030.6,-98.46 1031.89,-84.69"/>
<polygon fill="#63b8ff" stroke="#63b8ff" points="1035.4,-84.58 1032.48,-74.4 1028.41,-84.18 1035.4,-84.58"/>
</a>
</g>
</g>
<!-- Node17&#45;&gt;Node11 -->
<g id="edge31_Node000017_Node000011" class="edge">
<title>Node17&#45;&gt;Node11</title>
<g id="a_edge31_Node000017_Node000011"><a xlink:title=" ">
<path fill="none" stroke="#63b8ff" d="M895,-164.88C881.56,-157.46 864.34,-145.36 856.35,-129 849.04,-114.02 856.09,-95.66 863.58,-82.55"/>
<polygon fill="#63b8ff" stroke="#63b8ff" points="866.57,-84.37 868.92,-74.04 860.64,-80.65 866.57,-84.37"/>
</a>
</g>
</g>
<!-- Node18 -->
<g id="Node000018" class="node">
<title>Node18</title>
<g id="a_Node000018"><a xlink:href="LocationConfig_8hpp.html" target="_top" xlink:title=" ">
<polygon fill="white" stroke="#666666" points="1007.35,-129 865.35,-129 865.35,-110 1007.35,-110 1007.35,-129"/>
<text text-anchor="middle" x="936.35" y="-117" font-family="Helvetica,sans-Serif" font-size="10.00">config/LocationConfig.hpp</text>
</a>
</g>
</g>
<!-- Node17&#45;&gt;Node18 -->
<g id="edge26_Node000017_Node000018" class="edge">
<title>Node17&#45;&gt;Node18</title>
<g id="a_edge26_Node000017_Node000018"><a xlink:title=" ">
<path fill="none" stroke="#63b8ff" d="M917.15,-164.75C920.27,-157.57 924.78,-147.18 928.64,-138.27"/>
<polygon fill="#63b8ff" stroke="#63b8ff" points="931.86,-139.66 932.63,-129.09 925.43,-136.87 931.86,-139.66"/>
</a>
</g>
</g>
<!-- Node18&#45;&gt;Node7 -->
<g id="edge28_Node000018_Node000007" class="edge">
<title>Node18&#45;&gt;Node7</title>
<g id="a_edge28_Node000018_Node000007"><a xlink:title=" ">
<path fill="none" stroke="#63b8ff" d="M944.95,-109.74C956.88,-96.52 975.47,-71.3 961.35,-55 925.95,-14.11 757.52,-9.96 685.8,-10.09"/>
<polygon fill="#63b8ff" stroke="#63b8ff" points="685.54,-6.59 675.56,-10.14 685.57,-13.59 685.54,-6.59"/>
</a>
</g>
</g>
<!-- Node18&#45;&gt;Node9 -->
<g id="edge29_Node000018_Node000009" class="edge">
<title>Node18&#45;&gt;Node9</title>
<g id="a_edge29_Node000018_Node000009"><a xlink:title=" ">
<path fill="none" stroke="#63b8ff" d="M908.17,-109.98C880.49,-101.6 836.79,-88.38 790.28,-74.28"/>
<polygon fill="#63b8ff" stroke="#63b8ff" points="791.22,-70.91 780.63,-71.35 789.19,-77.61 791.22,-70.91"/>
</a>
</g>
</g>
<!-- Node18&#45;&gt;Node10 -->
<g id="edge27_Node000018_Node000010" class="edge">
<title>Node18&#45;&gt;Node10</title>
<g id="a_edge27_Node000018_Node000010"><a xlink:title=" ">
<path fill="none" stroke="#63b8ff" d="M951.78,-109.98C966.8,-101.69 989.89,-88.94 1007.51,-79.22"/>
<polygon fill="#63b8ff" stroke="#63b8ff" points="1009.59,-82.07 1016.65,-74.17 1006.2,-75.94 1009.59,-82.07"/>
</a>
</g>
</g>
<!-- Node18&#45;&gt;Node11 -->
<g id="edge30_Node000018_Node000011" class="edge">
<title>Node18&#45;&gt;Node11</title>
<g id="a_edge30_Node000018_Node000011"><a xlink:title=" ">
<path fill="none" stroke="#63b8ff" d="M926.55,-109.98C917.54,-102.15 903.95,-90.34 893.04,-80.86"/>
<polygon fill="#63b8ff" stroke="#63b8ff" points="895.18,-78.09 885.33,-74.17 890.59,-83.37 895.18,-78.09"/>
</a>
</g>
</g>
<!-- Node19&#45;&gt;Node2 -->
<g id="edge34_Node000019_Node000002" class="edge">
<title>Node19&#45;&gt;Node2</title>
<g id="a_edge34_Node000019_Node000002"><a xlink:title=" ">
<path fill="none" stroke="#63b8ff" d="M735.13,-164.98C709,-156.16 667.96,-142.31 638.62,-132.41"/>
<polygon fill="#63b8ff" stroke="#63b8ff" points="639.37,-128.96 628.78,-129.08 637.13,-135.6 639.37,-128.96"/>
</a>
</g>
</g>
<!-- Node19&#45;&gt;Node3 -->
<g id="edge36_Node000019_Node000003" class="edge">
<title>Node19&#45;&gt;Node3</title>
<g id="a_edge36_Node000019_Node000003"><a xlink:title=" ">
<path fill="none" stroke="#63b8ff" d="M807.46,-166.73C881.23,-156.14 1022.61,-135.83 1090.75,-126.04"/>
<polygon fill="#63b8ff" stroke="#63b8ff" points="1091.64,-129.45 1101.04,-124.57 1090.64,-122.52 1091.64,-129.45"/>
</a>
</g>
</g>
<!-- Node20 -->
<g id="Node000020" class="node">
<title>Node20</title>
<g id="a_Node000020"><a xlink:title=" ">
<polygon fill="#e0e0e0" stroke="#999999" points="693.35,-129 649.35,-129 649.35,-110 693.35,-110 693.35,-129"/>
<text text-anchor="middle" x="671.35" y="-117" font-family="Helvetica,sans-Serif" font-size="10.00">ctime</text>
</a>
</g>
</g>
<!-- Node19&#45;&gt;Node20 -->
<g id="edge33_Node000019_Node000020" class="edge">
<title>Node19&#45;&gt;Node20</title>
<g id="a_edge33_Node000019_Node000020"><a xlink:title=" ">
<path fill="none" stroke="#63b8ff" d="M746.05,-164.98C732.25,-156.77 711.11,-144.18 694.84,-134.49"/>
<polygon fill="#63b8ff" stroke="#63b8ff" points="696.3,-131.28 685.91,-129.17 692.71,-137.29 696.3,-131.28"/>
</a>
</g>
</g>
<!-- Node21 -->
<g id="Node000021" class="node">
<title>Node21</title>
<g id="a_Node000021"><a xlink:title=" ">
<polygon fill="#e0e0e0" stroke="#999999" points="771.35,-129 711.35,-129 711.35,-110 771.35,-110 771.35,-129"/>
<text text-anchor="middle" x="741.35" y="-117" font-family="Helvetica,sans-Serif" font-size="10.00">iostream</text>
</a>
</g>
</g>
<!-- Node19&#45;&gt;Node21 -->
<g id="edge35_Node000019_Node000021" class="edge">
<title>Node19&#45;&gt;Node21</title>
<g id="a_edge35_Node000019_Node000021"><a xlink:title=" ">
<path fill="none" stroke="#63b8ff" d="M757.22,-164.75C754.67,-157.65 751,-147.4 747.83,-138.56"/>
<polygon fill="#63b8ff" stroke="#63b8ff" points="751.1,-137.32 744.43,-129.09 744.51,-139.68 751.1,-137.32"/>
</a>
</g>
</g>
<!-- Node22&#45;&gt;Node3 -->
<g id="edge39_Node000022_Node000003" class="edge">
<title>Node22&#45;&gt;Node3</title>
<g id="a_edge39_Node000022_Node000003"><a xlink:title=" ">
<path fill="none" stroke="#63b8ff" d="M1258.61,-164.98C1232.98,-156.16 1192.72,-142.31 1163.95,-132.41"/>
<polygon fill="#63b8ff" stroke="#63b8ff" points="1164.88,-129.03 1154.29,-129.08 1162.61,-135.65 1164.88,-129.03"/>
</a>
</g>
</g>
<!-- Node22&#45;&gt;Node4 -->
<g id="edge41_Node000022_Node000004" class="edge">
<title>Node22&#45;&gt;Node4</title>
<g id="a_edge41_Node000022_Node000004"><a xlink:title=" ">
<path fill="none" stroke="#63b8ff" d="M1271.14,-164.98C1259.58,-156.92 1241.98,-144.65 1228.19,-135.03"/>
<polygon fill="#63b8ff" stroke="#63b8ff" points="1229.99,-132.02 1219.79,-129.17 1225.99,-137.76 1229.99,-132.02"/>
</a>
</g>
</g>
<!-- Node22&#45;&gt;Node7 -->
<g id="edge38_Node000022_Node000007" class="edge">
<title>Node22&#45;&gt;Node7</title>
<g id="a_edge38_Node000022_Node000007"><a xlink:title=" ">
<path fill="none" stroke="#63b8ff" d="M1284.33,-164.89C1285.35,-151.41 1285.22,-125.29 1271.35,-110 1212.88,-45.5 1168.78,-71.77 1083.35,-55 936.6,-26.19 757.77,-15.27 685.72,-11.84"/>
<polygon fill="#63b8ff" stroke="#63b8ff" points="685.64,-8.34 675.49,-11.37 685.32,-15.33 685.64,-8.34"/>
</a>
</g>
</g>
<!-- Node22&#45;&gt;Node10 -->
<g id="edge40_Node000022_Node000010" class="edge">
<title>Node22&#45;&gt;Node10</title>
<g id="a_edge40_Node000022_Node000010"><a xlink:title=" ">
<path fill="none" stroke="#63b8ff" d="M1281.16,-164.97C1277.14,-151.12 1267.2,-123.89 1248.35,-110 1219.75,-88.92 1119.06,-75.01 1065.86,-68.96"/>
<polygon fill="#63b8ff" stroke="#63b8ff" points="1066.22,-65.48 1055.89,-67.85 1065.45,-72.44 1066.22,-65.48"/>
</a>
</g>
</g>
<!-- Node23 -->
<g id="Node000023" class="node">
<title>Node23</title>
<g id="a_Node000023"><a xlink:title=" ">
<polygon fill="#e0e0e0" stroke="#999999" points="1456.85,-129 1407.85,-129 1407.85,-110 1456.85,-110 1456.85,-129"/>
<text text-anchor="middle" x="1432.35" y="-117" font-family="Helvetica,sans-Serif" font-size="10.00">cctype</text>
</a>
</g>
</g>
<!-- Node22&#45;&gt;Node23 -->
<g id="edge42_Node000022_Node000023" class="edge">
<title>Node22&#45;&gt;Node23</title>
<g id="a_edge42_Node000022_Node000023"><a xlink:title=" ">
<path fill="none" stroke="#63b8ff" d="M1307.29,-164.98C1331.91,-156.23 1370.47,-142.51 1398.27,-132.62"/>
<polygon fill="#63b8ff" stroke="#63b8ff" points="1399.73,-135.82 1407.98,-129.17 1397.38,-129.22 1399.73,-135.82"/>
</a>
</g>
</g>
<!-- Node24 -->
<g id="Node000024" class="node">
<title>Node24</title>
<g id="a_Node000024"><a xlink:title=" ">
<polygon fill="#e0e0e0" stroke="#999999" points="1523.85,-129 1474.85,-129 1474.85,-110 1523.85,-110 1523.85,-129"/>
<text text-anchor="middle" x="1499.35" y="-117" font-family="Helvetica,sans-Serif" font-size="10.00">cstdlib</text>
</a>
</g>
</g>
<!-- Node22&#45;&gt;Node24 -->
<g id="edge43_Node000022_Node000024" class="edge">
<title>Node22&#45;&gt;Node24</title>
<g id="a_edge43_Node000022_Node000024"><a xlink:title=" ">
<path fill="none" stroke="#63b8ff" d="M1318.6,-164.94C1353.26,-156.51 1407.96,-143.17 1464.94,-129.09"/>
<polygon fill="#63b8ff" stroke="#63b8ff" points="1465.98,-132.44 1474.84,-126.64 1464.3,-125.65 1465.98,-132.44"/>
</a>
</g>
</g>
<!-- Node25 -->
<g id="Node000025" class="node">
<title>Node25</title>
<g id="a_Node000025"><a xlink:title=" ">
<polygon fill="#e0e0e0" stroke="#999999" points="1389.35,-129 1333.35,-129 1333.35,-110 1389.35,-110 1389.35,-129"/>
<text text-anchor="middle" x="1361.35" y="-117" font-family="Helvetica,sans-Serif" font-size="10.00">iomanip</text>
</a>
</g>
</g>
<!-- Node22&#45;&gt;Node25 -->
<g id="edge44_Node000022_Node000025" class="edge">
<title>Node22&#45;&gt;Node25</title>
<g id="a_edge44_Node000022_Node000025"><a xlink:title=" ">
<path fill="none" stroke="#63b8ff" d="M1295.89,-164.98C1307.75,-156.92 1325.82,-144.65 1339.97,-135.03"/>
<polygon fill="#63b8ff" stroke="#63b8ff" points="1342.29,-137.69 1348.59,-129.17 1338.35,-131.9 1342.29,-137.69"/>
</a>
</g>
</g>
</g>
</svg>

<g id="navigator" transform="translate(0 0)" fill="#404254">
  <rect fill="#f2f5e9" fill-opacity="0.5" stroke="#606060" stroke-width=".5" x="0" y="0" width="60" height="60"/>
  <use id="zoomplus" xlink:href="#zoomPlus" x="17" y="9" onmousedown="handleZoom(evt,'in')"/>
  <use id="zoomminus" xlink:href="#zoomMin" x="42" y="9" onmousedown="handleZoom(evt,'out')"/>
  <use id="reset" xlink:href="#resetDef" x="30" y="36" onmousedown="handleReset()"/>
   <use id="arrowup" xlink:href="#arrowUp" x="0" y="0" onmousedown="handlePan(0,-1)"/>
  <use id="arrowright" xlink:href="#arrowRight" x="0" y="0" onmousedown="handlePan(1,0)"/>
  <use id="arrowdown" xlink:href="#arrowDown" x="0" y="0" onmousedown="handlePan(0,1)"/>
  <use id="arrowleft" xlink:href="#arrowLeft" x="0" y="0" onmousedown="handlePan(-1,0)"/>
</g>
<svg viewBox="0 0 15 15" width="100%" height="30px" preserveAspectRatio="xMaxYMin meet">
 <g id="arrow_out" transform="scale(0.3 0.3)">
  <a xlink:href="UploadHandler_8cpp__incl_org.svg" target="_base">
   <rect id="button" ry="5" rx="5" y="6" x="6" height="38" width="38"
        fill="#f2f5e9" fill-opacity="0.5" stroke="#606060" stroke-width="1.0"/>
   <path id="arrow"
     d="M 11.500037,31.436501 C 11.940474,20.09759 22.043105,11.32322 32.158766,21.979434 L 37.068811,17.246167 C 37.068811,17.246167 37.088388,32 37.088388,32 L 22.160133,31.978069 C 22.160133,31.978069 26.997745,27.140456 26.997745,27.140456 C 18.528582,18.264221 13.291696,25.230495 11.500037,31.436501 z"
     style="fill:#404040;"/>
  </a>
 </g>
</svg>

<style type='text/css'>
<![CDATA[
[data-mouse-over-selected='false'] { opacity: 0.7; }
[data-mouse-over-selected='true']  { opacity: 1.0; }
]]>
</style>
<script type="application/ecmascript"><![CDATA[
document.addEventListener('DOMContentLoaded', (event) => {
  highlightEdges();
  highlightAdjacentNodes();
});
]]></script>
</svg>
