<?xml version="1.0" encoding="UTF-8" standalone="no"?>
<!DOCTYPE svg PUBLIC "-//W3C//DTD SVG 1.1//EN"
 "http://www.w3.org/Graphics/SVG/1.1/DTD/svg11.dtd">
<!-- Generated by graphviz version 2.43.0 (0)
 -->
<!-- Title: init/WebServer.hpp Pages: 1 -->
<svg width="1278pt" height="302pt"
 viewBox="0.00 0.00 1278.38 302.00" xmlns="http://www.w3.org/2000/svg" xmlns:xlink="http://www.w3.org/1999/xlink">
<g id="graph0" class="graph" transform="scale(1 1) rotate(0) translate(4 298)">
<title>init/WebServer.hpp</title>
<!-- Node1 -->
<g id="Node000001" class="node">
<title>Node1</title>
<g id="a_Node000001"><a xlink:title=" ">
<polygon fill="#999999" stroke="#666666" points="403.38,-294 295.38,-294 295.38,-275 403.38,-275 403.38,-294"/>
<text text-anchor="middle" x="349.38" y="-282" font-family="Helvetica,sans-Serif" font-size="10.00">init/WebServer.hpp</text>
</a>
</g>
</g>
<!-- Node2 -->
<g id="Node000002" class="node">
<title>Node2</title>
<g id="a_Node000002"><a xlink:title=" ">
<polygon fill="#e0e0e0" stroke="#999999" points="136.88,-74 89.88,-74 89.88,-55 136.88,-55 136.88,-74"/>
<text text-anchor="middle" x="113.38" y="-62" font-family="Helvetica,sans-Serif" font-size="10.00">vector</text>
</a>
</g>
</g>
<!-- Node1&#45;&gt;Node2 -->
<g id="edge1_Node000001_Node000002" class="edge">
<title>Node1&#45;&gt;Node2</title>
<g id="a_edge1_Node000001_Node000002"><a xlink:title=" ">
<path fill="none" stroke="#63b8ff" d="M295.24,-283.96C214.7,-283.35 69.25,-276.88 36.38,-239 17.32,-217.04 -41.13,-262.25 50.38,-110 58.37,-96.7 72.04,-86.32 84.6,-78.95"/>
<polygon fill="#63b8ff" stroke="#63b8ff" points="86.36,-81.98 93.46,-74.11 83.01,-75.83 86.36,-81.98"/>
</a>
</g>
</g>
<!-- Node3 -->
<g id="Node000003" class="node">
<title>Node3</title>
<g id="a_Node000003"><a xlink:title=" ">
<polygon fill="#e0e0e0" stroke="#999999" points="1270.38,-74 1232.38,-74 1232.38,-55 1270.38,-55 1270.38,-74"/>
<text text-anchor="middle" x="1251.38" y="-62" font-family="Helvetica,sans-Serif" font-size="10.00">map</text>
</a>
</g>
</g>
<!-- Node1&#45;&gt;Node3 -->
<g id="edge2_Node000001_Node000003" class="edge">
<title>Node1&#45;&gt;Node3</title>
<g id="a_edge2_Node000001_Node000003"><a xlink:title=" ">
<path fill="none" stroke="#63b8ff" d="M403.58,-282.88C574.51,-280.61 1095,-271.1 1163.38,-239 1223.76,-210.66 1243.35,-122.78 1249.15,-84.1"/>
<polygon fill="#63b8ff" stroke="#63b8ff" points="1252.62,-84.56 1250.49,-74.18 1245.69,-83.63 1252.62,-84.56"/>
</a>
</g>
</g>
<!-- Node4 -->
<g id="Node000004" class="node">
<title>Node4</title>
<g id="a_Node000004"><a xlink:href="ServerSocket_8hpp.html" target="_top" xlink:title=" ">
<polygon fill="white" stroke="#666666" points="165.38,-239 45.38,-239 45.38,-220 165.38,-220 165.38,-239"/>
<text text-anchor="middle" x="105.38" y="-227" font-family="Helvetica,sans-Serif" font-size="10.00">init/ServerSocket.hpp</text>
</a>
</g>
</g>
<!-- Node1&#45;&gt;Node4 -->
<g id="edge3_Node000001_Node000004" class="edge">
<title>Node1&#45;&gt;Node4</title>
<g id="a_edge3_Node000001_Node000004"><a xlink:title=" ">
<path fill="none" stroke="#63b8ff" d="M310.18,-274.98C267.97,-265.82 200.73,-251.21 154.9,-241.26"/>
<polygon fill="#63b8ff" stroke="#63b8ff" points="155.41,-237.78 144.89,-239.08 153.92,-244.63 155.41,-237.78"/>
</a>
</g>
</g>
<!-- Node16 -->
<g id="Node000016" class="node">
<title>Node16</title>
<g id="a_Node000016"><a xlink:href="Signals_8hpp.html" target="_top" xlink:title=" ">
<polygon fill="white" stroke="#666666" points="1153.88,-239 1056.88,-239 1056.88,-220 1153.88,-220 1153.88,-239"/>
<text text-anchor="middle" x="1105.38" y="-227" font-family="Helvetica,sans-Serif" font-size="10.00">utils/Signals.hpp</text>
</a>
</g>
</g>
<!-- Node1&#45;&gt;Node16 -->
<g id="edge24_Node000001_Node000016" class="edge">
<title>Node1&#45;&gt;Node16</title>
<g id="a_edge24_Node000001_Node000016"><a xlink:title=" ">
<path fill="none" stroke="#63b8ff" d="M403.45,-279.71C540.93,-270.07 903.09,-244.68 1046.09,-234.66"/>
<polygon fill="#63b8ff" stroke="#63b8ff" points="1046.67,-238.12 1056.41,-233.93 1046.18,-231.14 1046.67,-238.12"/>
</a>
</g>
</g>
<!-- Node19 -->
<g id="Node000019" class="node">
<title>Node19</title>
<g id="a_Node000019"><a xlink:href="CgiHandler_8hpp.html" target="_top" xlink:title=" ">
<polygon fill="white" stroke="#666666" points="808.88,-239 663.88,-239 663.88,-220 808.88,-220 808.88,-239"/>
<text text-anchor="middle" x="736.38" y="-227" font-family="Helvetica,sans-Serif" font-size="10.00">dispatcher/CgiHandler.hpp</text>
</a>
</g>
</g>
<!-- Node1&#45;&gt;Node19 -->
<g id="edge29_Node000001_Node000019" class="edge">
<title>Node1&#45;&gt;Node19</title>
<g id="a_edge29_Node000001_Node000019"><a xlink:title=" ">
<path fill="none" stroke="#63b8ff" d="M403.6,-276.07C471.69,-266.75 588.72,-250.72 664.29,-240.37"/>
<polygon fill="#63b8ff" stroke="#63b8ff" points="664.78,-243.84 674.21,-239.01 663.83,-236.9 664.78,-243.84"/>
</a>
</g>
</g>
<!-- Node20 -->
<g id="Node000020" class="node">
<title>Node20</title>
<g id="a_Node000020"><a xlink:href="ServerConfig_8hpp.html" target="_top" xlink:title=" ">
<polygon fill="white" stroke="#666666" points="354.38,-184 222.38,-184 222.38,-165 354.38,-165 354.38,-184"/>
<text text-anchor="middle" x="288.38" y="-172" font-family="Helvetica,sans-Serif" font-size="10.00">config/ServerConfig.hpp</text>
</a>
</g>
</g>
<!-- Node1&#45;&gt;Node20 -->
<g id="edge38_Node000001_Node000020" class="edge">
<title>Node1&#45;&gt;Node20</title>
<g id="a_edge38_Node000001_Node000020"><a xlink:title=" ">
<path fill="none" stroke="#63b8ff" d="M347.89,-274.79C345.46,-262.08 339.8,-238 329.38,-220 323.22,-209.36 314.13,-199.15 306.07,-191.2"/>
<polygon fill="#63b8ff" stroke="#63b8ff" points="308.18,-188.38 298.5,-184.07 303.38,-193.48 308.18,-188.38"/>
</a>
</g>
</g>
<!-- Node22 -->
<g id="Node000022" class="node">
<title>Node22</title>
<g id="a_Node000022"><a xlink:href="Config_8hpp.html" target="_top" xlink:title=" ">
<polygon fill="white" stroke="#666666" points="320.88,-239 219.88,-239 219.88,-220 320.88,-220 320.88,-239"/>
<text text-anchor="middle" x="270.38" y="-227" font-family="Helvetica,sans-Serif" font-size="10.00">config/Config.hpp</text>
</a>
</g>
</g>
<!-- Node1&#45;&gt;Node22 -->
<g id="edge48_Node000001_Node000022" class="edge">
<title>Node1&#45;&gt;Node22</title>
<g id="a_edge48_Node000001_Node000022"><a xlink:title=" ">
<path fill="none" stroke="#63b8ff" d="M336.69,-274.98C324.55,-266.84 306.02,-254.41 291.63,-244.76"/>
<polygon fill="#63b8ff" stroke="#63b8ff" points="293.56,-241.84 283.3,-239.17 289.66,-247.65 293.56,-241.84"/>
</a>
</g>
</g>
<!-- Node4&#45;&gt;Node2 -->
<g id="edge5_Node000004_Node000002" class="edge">
<title>Node4&#45;&gt;Node2</title>
<g id="a_edge5_Node000004_Node000002"><a xlink:title=" ">
<path fill="none" stroke="#63b8ff" d="M92.6,-220C81.99,-212.1 67.66,-199.27 61.38,-184 48.88,-153.58 47.63,-139.87 61.38,-110 67.13,-97.52 78.29,-87.24 88.8,-79.71"/>
<polygon fill="#63b8ff" stroke="#63b8ff" points="90.95,-82.49 97.35,-74.05 87.08,-76.65 90.95,-82.49"/>
</a>
</g>
</g>
<!-- Node5 -->
<g id="Node000005" class="node">
<title>Node5</title>
<g id="a_Node000005"><a xlink:title=" ">
<polygon fill="#e0e0e0" stroke="#999999" points="466.38,-19 422.38,-19 422.38,0 466.38,0 466.38,-19"/>
<text text-anchor="middle" x="444.38" y="-7" font-family="Helvetica,sans-Serif" font-size="10.00">string</text>
</a>
</g>
</g>
<!-- Node4&#45;&gt;Node5 -->
<g id="edge4_Node000004_Node000005" class="edge">
<title>Node4&#45;&gt;Node5</title>
<g id="a_edge4_Node000004_Node000005"><a xlink:title=" ">
<path fill="none" stroke="#63b8ff" d="M88.57,-219.91C75.8,-212.37 59.15,-200.08 51.38,-184 25.83,-131.08 31.77,-88.01 80.38,-55 134.08,-18.53 333.17,-11.93 411.97,-10.75"/>
<polygon fill="#63b8ff" stroke="#63b8ff" points="412.31,-14.24 422.26,-10.62 412.22,-7.24 412.31,-14.24"/>
</a>
</g>
</g>
<!-- Node6 -->
<g id="Node000006" class="node">
<title>Node6</title>
<g id="a_Node000006"><a xlink:href="ClientConnection_8hpp.html" target="_top" xlink:title=" ">
<polygon fill="white" stroke="#666666" points="708.38,-184 568.38,-184 568.38,-165 708.38,-165 708.38,-184"/>
<text text-anchor="middle" x="638.38" y="-172" font-family="Helvetica,sans-Serif" font-size="10.00">init/ClientConnection.hpp</text>
</a>
</g>
</g>
<!-- Node4&#45;&gt;Node6 -->
<g id="edge6_Node000004_Node000006" class="edge">
<title>Node4&#45;&gt;Node6</title>
<g id="a_edge6_Node000004_Node000006"><a xlink:title=" ">
<path fill="none" stroke="#63b8ff" d="M165.49,-222.52C261.62,-212.96 450.08,-194.22 557.79,-183.51"/>
<polygon fill="#63b8ff" stroke="#63b8ff" points="558.35,-186.97 567.96,-182.5 557.66,-180.01 558.35,-186.97"/>
</a>
</g>
</g>
<!-- Node6&#45;&gt;Node5 -->
<g id="edge7_Node000006_Node000005" class="edge">
<title>Node6&#45;&gt;Node5</title>
<g id="a_edge7_Node000006_Node000005"><a xlink:title=" ">
<path fill="none" stroke="#63b8ff" d="M597.75,-164.99C573.16,-158.31 542.23,-147.04 519.38,-129 484.95,-101.82 461.83,-54.2 451.16,-28.38"/>
<polygon fill="#63b8ff" stroke="#63b8ff" points="454.4,-27.06 447.46,-19.05 447.89,-29.64 454.4,-27.06"/>
</a>
</g>
</g>
<!-- Node7 -->
<g id="Node000007" class="node">
<title>Node7</title>
<g id="a_Node000007"><a xlink:title=" ">
<polygon fill="#e0e0e0" stroke="#999999" points="1028.38,-129 984.38,-129 984.38,-110 1028.38,-110 1028.38,-129"/>
<text text-anchor="middle" x="1006.38" y="-117" font-family="Helvetica,sans-Serif" font-size="10.00">ctime</text>
</a>
</g>
</g>
<!-- Node6&#45;&gt;Node7 -->
<g id="edge8_Node000006_Node000007" class="edge">
<title>Node6&#45;&gt;Node7</title>
<g id="a_edge8_Node000006_Node000007"><a xlink:title=" ">
<path fill="none" stroke="#63b8ff" d="M708.65,-166.12C776.07,-158.56 880.59,-145.58 970.38,-129 971.66,-128.76 972.96,-128.51 974.27,-128.25"/>
<polygon fill="#63b8ff" stroke="#63b8ff" points="975.34,-131.6 984.37,-126.06 973.85,-124.76 975.34,-131.6"/>
</a>
</g>
</g>
<!-- Node8 -->
<g id="Node000008" class="node">
<title>Node8</title>
<g id="a_Node000008"><a xlink:title=" ">
<polygon fill="#e0e0e0" stroke="#999999" points="600.38,-129 528.38,-129 528.38,-110 600.38,-110 600.38,-129"/>
<text text-anchor="middle" x="564.38" y="-117" font-family="Helvetica,sans-Serif" font-size="10.00">sys/types.h</text>
</a>
</g>
</g>
<!-- Node6&#45;&gt;Node8 -->
<g id="edge9_Node000006_Node000008" class="edge">
<title>Node6&#45;&gt;Node8</title>
<g id="a_edge9_Node000006_Node000008"><a xlink:title=" ">
<path fill="none" stroke="#63b8ff" d="M626.49,-164.98C615.23,-156.92 598.09,-144.65 584.67,-135.03"/>
<polygon fill="#63b8ff" stroke="#63b8ff" points="586.65,-132.15 576.49,-129.17 582.58,-137.84 586.65,-132.15"/>
</a>
</g>
</g>
<!-- Node9 -->
<g id="Node000009" class="node">
<title>Node9</title>
<g id="a_Node000009"><a xlink:href="HttpRequest_8hpp.html" target="_top" xlink:title=" ">
<polygon fill="white" stroke="#666666" points="756.38,-129 618.38,-129 618.38,-110 756.38,-110 756.38,-129"/>
<text text-anchor="middle" x="687.38" y="-117" font-family="Helvetica,sans-Serif" font-size="10.00">request/HttpRequest.hpp</text>
</a>
</g>
</g>
<!-- Node6&#45;&gt;Node9 -->
<g id="edge10_Node000006_Node000009" class="edge">
<title>Node6&#45;&gt;Node9</title>
<g id="a_edge10_Node000006_Node000009"><a xlink:title=" ">
<path fill="none" stroke="#63b8ff" d="M646.47,-164.75C653.54,-157.11 663.97,-145.82 672.53,-136.56"/>
<polygon fill="#63b8ff" stroke="#63b8ff" points="675.22,-138.81 679.44,-129.09 670.08,-134.06 675.22,-138.81"/>
</a>
</g>
</g>
<!-- Node15 -->
<g id="Node000015" class="node">
<title>Node15</title>
<g id="a_Node000015"><a xlink:href="HttpResponse_8hpp.html" target="_top" xlink:title=" ">
<polygon fill="white" stroke="#666666" points="927.88,-129 774.88,-129 774.88,-110 927.88,-110 927.88,-129"/>
<text text-anchor="middle" x="851.38" y="-117" font-family="Helvetica,sans-Serif" font-size="10.00">response/HttpResponse.hpp</text>
</a>
</g>
</g>
<!-- Node6&#45;&gt;Node15 -->
<g id="edge20_Node000006_Node000015" class="edge">
<title>Node6&#45;&gt;Node15</title>
<g id="a_edge20_Node000006_Node000015"><a xlink:title=" ">
<path fill="none" stroke="#63b8ff" d="M672.6,-164.98C709.14,-155.89 767.16,-141.46 807.14,-131.51"/>
<polygon fill="#63b8ff" stroke="#63b8ff" points="808.03,-134.89 816.89,-129.08 806.34,-128.1 808.03,-134.89"/>
</a>
</g>
</g>
<!-- Node9&#45;&gt;Node2 -->
<g id="edge13_Node000009_Node000002" class="edge">
<title>Node9&#45;&gt;Node2</title>
<g id="a_edge13_Node000009_Node000002"><a xlink:title=" ">
<path fill="none" stroke="#63b8ff" d="M618.06,-110.88C615.13,-110.58 612.23,-110.28 609.38,-110 435.44,-92.72 226.89,-74.98 146.87,-68.28"/>
<polygon fill="#63b8ff" stroke="#63b8ff" points="147.15,-64.79 136.89,-67.45 146.56,-71.77 147.15,-64.79"/>
</a>
</g>
</g>
<!-- Node9&#45;&gt;Node3 -->
<g id="edge12_Node000009_Node000003" class="edge">
<title>Node9&#45;&gt;Node3</title>
<g id="a_edge12_Node000009_Node000003"><a xlink:title=" ">
<path fill="none" stroke="#63b8ff" d="M756.73,-110.95C759.99,-110.62 763.22,-110.31 766.38,-110 952.42,-92 999.54,-93.94 1185.38,-74 1197.52,-72.7 1210.88,-71.02 1222.38,-69.5"/>
<polygon fill="#63b8ff" stroke="#63b8ff" points="1222.9,-72.97 1232.34,-68.17 1221.97,-66.03 1222.9,-72.97"/>
</a>
</g>
</g>
<!-- Node9&#45;&gt;Node5 -->
<g id="edge11_Node000009_Node000005" class="edge">
<title>Node9&#45;&gt;Node5</title>
<g id="a_edge11_Node000009_Node000005"><a xlink:title=" ">
<path fill="none" stroke="#63b8ff" d="M754.28,-109.99C834.34,-99.49 958.53,-82.03 965.38,-74 970.86,-67.57 971.09,-61.22 965.38,-55 932.25,-18.92 584.71,-12.05 476.42,-10.78"/>
<polygon fill="#63b8ff" stroke="#63b8ff" points="476.45,-7.28 466.41,-10.67 476.37,-14.28 476.45,-7.28"/>
</a>
</g>
</g>
<!-- Node10 -->
<g id="Node000010" class="node">
<title>Node10</title>
<g id="a_Node000010"><a xlink:href="RequestMethod_8hpp.html" target="_top" xlink:title=" ">
<polygon fill="white" stroke="#666666" points="397.38,-74 243.38,-74 243.38,-55 397.38,-55 397.38,-74"/>
<text text-anchor="middle" x="320.38" y="-62" font-family="Helvetica,sans-Serif" font-size="10.00">request/RequestMethod.hpp</text>
</a>
</g>
</g>
<!-- Node9&#45;&gt;Node10 -->
<g id="edge14_Node000009_Node000010" class="edge">
<title>Node9&#45;&gt;Node10</title>
<g id="a_edge14_Node000009_Node000010"><a xlink:title=" ">
<path fill="none" stroke="#63b8ff" d="M628.42,-109.98C563.24,-100.57 458.37,-85.43 389.41,-75.47"/>
<polygon fill="#63b8ff" stroke="#63b8ff" points="389.9,-72 379.5,-74.04 388.9,-78.93 389.9,-72"/>
</a>
</g>
</g>
<!-- Node11 -->
<g id="Node000011" class="node">
<title>Node11</title>
<g id="a_Node000011"><a xlink:href="RequestMeta_8hpp.html" target="_top" xlink:title=" ">
<polygon fill="white" stroke="#666666" points="956.38,-74 814.38,-74 814.38,-55 956.38,-55 956.38,-74"/>
<text text-anchor="middle" x="885.38" y="-62" font-family="Helvetica,sans-Serif" font-size="10.00">request/RequestMeta.hpp</text>
</a>
</g>
</g>
<!-- Node9&#45;&gt;Node11 -->
<g id="edge15_Node000009_Node000011" class="edge">
<title>Node9&#45;&gt;Node11</title>
<g id="a_edge15_Node000009_Node000011"><a xlink:title=" ">
<path fill="none" stroke="#63b8ff" d="M719.19,-109.98C752.87,-100.97 806.18,-86.7 843.31,-76.76"/>
<polygon fill="#63b8ff" stroke="#63b8ff" points="844.56,-80.05 853.32,-74.08 842.75,-73.29 844.56,-80.05"/>
</a>
</g>
</g>
<!-- Node12 -->
<g id="Node000012" class="node">
<title>Node12</title>
<g id="a_Node000012"><a xlink:href="RequestState_8hpp.html" target="_top" xlink:title=" ">
<polygon fill="white" stroke="#666666" points="634.88,-74 491.88,-74 491.88,-55 634.88,-55 634.88,-74"/>
<text text-anchor="middle" x="563.38" y="-62" font-family="Helvetica,sans-Serif" font-size="10.00">request/RequestState.hpp</text>
</a>
</g>
</g>
<!-- Node9&#45;&gt;Node12 -->
<g id="edge17_Node000009_Node000012" class="edge">
<title>Node9&#45;&gt;Node12</title>
<g id="a_edge17_Node000009_Node000012"><a xlink:title=" ">
<path fill="none" stroke="#63b8ff" d="M667.46,-109.98C647.33,-101.38 616,-87.99 592.97,-78.15"/>
<polygon fill="#63b8ff" stroke="#63b8ff" points="594.24,-74.88 583.67,-74.17 591.48,-81.32 594.24,-74.88"/>
</a>
</g>
</g>
<!-- Node13 -->
<g id="Node000013" class="node">
<title>Node13</title>
<g id="a_Node000013"><a xlink:href="ResponseStatus_8hpp.html" target="_top" xlink:title=" ">
<polygon fill="white" stroke="#666666" points="1175.88,-74 1012.88,-74 1012.88,-55 1175.88,-55 1175.88,-74"/>
<text text-anchor="middle" x="1094.38" y="-62" font-family="Helvetica,sans-Serif" font-size="10.00">response/ResponseStatus.hpp</text>
</a>
</g>
</g>
<!-- Node9&#45;&gt;Node13 -->
<g id="edge18_Node000009_Node000013" class="edge">
<title>Node9&#45;&gt;Node13</title>
<g id="a_edge18_Node000009_Node000013"><a xlink:title=" ">
<path fill="none" stroke="#63b8ff" d="M752.77,-109.98C825.35,-100.53 942.31,-85.3 1018.77,-75.35"/>
<polygon fill="#63b8ff" stroke="#63b8ff" points="1019.35,-78.8 1028.81,-74.04 1018.45,-71.86 1019.35,-78.8"/>
</a>
</g>
</g>
<!-- Node14 -->
<g id="Node000014" class="node">
<title>Node14</title>
<g id="a_Node000014"><a xlink:href="RouteType_8hpp.html" target="_top" xlink:title=" ">
<polygon fill="white" stroke="#666666" points="795.88,-74 652.88,-74 652.88,-55 795.88,-55 795.88,-74"/>
<text text-anchor="middle" x="724.38" y="-62" font-family="Helvetica,sans-Serif" font-size="10.00">dispatcher/RouteType.hpp</text>
</a>
</g>
</g>
<!-- Node9&#45;&gt;Node14 -->
<g id="edge19_Node000009_Node000014" class="edge">
<title>Node9&#45;&gt;Node14</title>
<g id="a_edge19_Node000009_Node000014"><a xlink:title=" ">
<path fill="none" stroke="#63b8ff" d="M693.49,-109.75C698.66,-102.34 706.23,-91.5 712.57,-82.41"/>
<polygon fill="#63b8ff" stroke="#63b8ff" points="715.53,-84.29 718.38,-74.09 709.79,-80.29 715.53,-84.29"/>
</a>
</g>
</g>
<!-- Node11&#45;&gt;Node5 -->
<g id="edge16_Node000011_Node000005" class="edge">
<title>Node11&#45;&gt;Node5</title>
<g id="a_edge16_Node000011_Node000005"><a xlink:title=" ">
<path fill="none" stroke="#63b8ff" d="M814.53,-54.98C717.49,-43.32 547.25,-22.86 476.56,-14.37"/>
<polygon fill="#63b8ff" stroke="#63b8ff" points="476.83,-10.87 466.48,-13.16 475.99,-17.82 476.83,-10.87"/>
</a>
</g>
</g>
<!-- Node15&#45;&gt;Node3 -->
<g id="edge22_Node000015_Node000003" class="edge">
<title>Node15&#45;&gt;Node3</title>
<g id="a_edge22_Node000015_Node000003"><a xlink:title=" ">
<path fill="none" stroke="#63b8ff" d="M928.06,-110.4C1018.82,-100.61 1164.45,-84.17 1218.38,-74 1219.66,-73.76 1220.95,-73.5 1222.26,-73.22"/>
<polygon fill="#63b8ff" stroke="#63b8ff" points="1223.34,-76.56 1232.28,-70.87 1221.75,-69.75 1223.34,-76.56"/>
</a>
</g>
</g>
<!-- Node15&#45;&gt;Node5 -->
<g id="edge21_Node000015_Node000005" class="edge">
<title>Node15&#45;&gt;Node5</title>
<g id="a_edge21_Node000015_Node000005"><a xlink:title=" ">
<path fill="none" stroke="#63b8ff" d="M928,-110.85C1023.97,-100.89 1176.95,-83.63 1185.38,-74 1190.94,-67.65 1191.17,-61.15 1185.38,-55 1160.73,-28.83 615.85,-14.47 476.57,-11.22"/>
<polygon fill="#63b8ff" stroke="#63b8ff" points="476.6,-7.72 466.53,-10.98 476.44,-14.71 476.6,-7.72"/>
</a>
</g>
</g>
<!-- Node15&#45;&gt;Node13 -->
<g id="edge23_Node000015_Node000013" class="edge">
<title>Node15&#45;&gt;Node13</title>
<g id="a_edge23_Node000015_Node000013"><a xlink:title=" ">
<path fill="none" stroke="#63b8ff" d="M890.42,-109.98C932.46,-100.82 999.42,-86.21 1045.06,-76.26"/>
<polygon fill="#63b8ff" stroke="#63b8ff" points="1046.01,-79.63 1055.03,-74.08 1044.52,-72.79 1046.01,-79.63"/>
</a>
</g>
</g>
<!-- Node16&#45;&gt;Node3 -->
<g id="edge27_Node000016_Node000003" class="edge">
<title>Node16&#45;&gt;Node3</title>
<g id="a_edge27_Node000016_Node000003"><a xlink:title=" ">
<path fill="none" stroke="#63b8ff" d="M1133.19,-219.98C1152.38,-212.93 1177.41,-201.23 1194.38,-184 1209.29,-168.86 1232.65,-113.09 1244.29,-83.78"/>
<polygon fill="#63b8ff" stroke="#63b8ff" points="1247.62,-84.88 1248.01,-74.3 1241.1,-82.33 1247.62,-84.88"/>
</a>
</g>
</g>
<!-- Node16&#45;&gt;Node7 -->
<g id="edge26_Node000016_Node000007" class="edge">
<title>Node16&#45;&gt;Node7</title>
<g id="a_edge26_Node000016_Node000007"><a xlink:title=" ">
<path fill="none" stroke="#63b8ff" d="M1104.82,-219.74C1103.57,-206.53 1099.5,-181.32 1086.38,-165 1073.9,-149.47 1054.45,-138.47 1037.85,-131.3"/>
<polygon fill="#63b8ff" stroke="#63b8ff" points="1039.07,-128.02 1028.49,-127.51 1036.45,-134.51 1039.07,-128.02"/>
</a>
</g>
</g>
<!-- Node17 -->
<g id="Node000017" class="node">
<title>Node17</title>
<g id="a_Node000017"><a xlink:title=" ">
<polygon fill="#e0e0e0" stroke="#999999" points="1184.88,-184 1133.88,-184 1133.88,-165 1184.88,-165 1184.88,-184"/>
<text text-anchor="middle" x="1159.38" y="-172" font-family="Helvetica,sans-Serif" font-size="10.00">csignal</text>
</a>
</g>
</g>
<!-- Node16&#45;&gt;Node17 -->
<g id="edge25_Node000016_Node000017" class="edge">
<title>Node16&#45;&gt;Node17</title>
<g id="a_edge25_Node000016_Node000017"><a xlink:title=" ">
<path fill="none" stroke="#63b8ff" d="M1114.3,-219.75C1122.16,-212.03 1133.81,-200.6 1143.3,-191.28"/>
<polygon fill="#63b8ff" stroke="#63b8ff" points="1145.94,-193.59 1150.63,-184.09 1141.04,-188.6 1145.94,-193.59"/>
</a>
</g>
</g>
<!-- Node18 -->
<g id="Node000018" class="node">
<title>Node18</title>
<g id="a_Node000018"><a xlink:title=" ">
<polygon fill="#e0e0e0" stroke="#999999" points="1077.38,-184 1021.38,-184 1021.38,-165 1077.38,-165 1077.38,-184"/>
<text text-anchor="middle" x="1049.38" y="-172" font-family="Helvetica,sans-Serif" font-size="10.00">unistd.h</text>
</a>
</g>
</g>
<!-- Node16&#45;&gt;Node18 -->
<g id="edge28_Node000016_Node000018" class="edge">
<title>Node16&#45;&gt;Node18</title>
<g id="a_edge28_Node000016_Node000018"><a xlink:title=" ">
<path fill="none" stroke="#63b8ff" d="M1096.38,-219.98C1088.19,-212.23 1075.87,-200.58 1065.91,-191.14"/>
<polygon fill="#63b8ff" stroke="#63b8ff" points="1068.21,-188.5 1058.54,-184.17 1063.4,-193.59 1068.21,-188.5"/>
</a>
</g>
</g>
<!-- Node19&#45;&gt;Node2 -->
<g id="edge31_Node000019_Node000002" class="edge">
<title>Node19&#45;&gt;Node2</title>
<g id="a_edge31_Node000019_Node000002"><a xlink:title=" ">
<path fill="none" stroke="#63b8ff" d="M663.48,-227.79C539.36,-225.68 292.68,-217.28 213.38,-184 178.8,-169.48 173.2,-157.97 149.38,-129 137.83,-114.96 127.92,-96.72 121.44,-83.39"/>
<polygon fill="#63b8ff" stroke="#63b8ff" points="124.6,-81.88 117.18,-74.31 118.26,-84.85 124.6,-81.88"/>
</a>
</g>
</g>
<!-- Node19&#45;&gt;Node3 -->
<g id="edge32_Node000019_Node000003" class="edge">
<title>Node19&#45;&gt;Node3</title>
<g id="a_edge32_Node000019_Node000003"><a xlink:title=" ">
<path fill="none" stroke="#63b8ff" d="M765.56,-220C795.64,-211.19 843.88,-196.91 885.38,-184 1011.38,-144.79 1160.89,-95.52 1222.58,-75.07"/>
<polygon fill="#63b8ff" stroke="#63b8ff" points="1223.99,-78.29 1232.38,-71.82 1221.78,-71.65 1223.99,-78.29"/>
</a>
</g>
</g>
<!-- Node19&#45;&gt;Node5 -->
<g id="edge30_Node000019_Node000005" class="edge">
<title>Node19&#45;&gt;Node5</title>
<g id="a_edge30_Node000019_Node000005"><a xlink:title=" ">
<path fill="none" stroke="#63b8ff" d="M672.76,-219.97C637.84,-213.49 594.61,-202.43 559.38,-184 501.1,-153.51 486.79,-134.24 460.38,-74 454.02,-59.5 449.85,-42 447.36,-29.04"/>
<polygon fill="#63b8ff" stroke="#63b8ff" points="450.78,-28.25 445.6,-19.01 443.89,-29.47 450.78,-28.25"/>
</a>
</g>
</g>
<!-- Node19&#45;&gt;Node6 -->
<g id="edge37_Node000019_Node000006" class="edge">
<title>Node19&#45;&gt;Node6</title>
<g id="a_edge37_Node000019_Node000006"><a xlink:title=" ">
<path fill="none" stroke="#63b8ff" d="M720.63,-219.98C705.15,-211.61 681.29,-198.7 663.24,-188.95"/>
<polygon fill="#63b8ff" stroke="#63b8ff" points="664.87,-185.85 654.41,-184.17 661.54,-192.01 664.87,-185.85"/>
</a>
</g>
</g>
<!-- Node19&#45;&gt;Node7 -->
<g id="edge33_Node000019_Node000007" class="edge">
<title>Node19&#45;&gt;Node7</title>
<g id="a_edge33_Node000019_Node000007"><a xlink:title=" ">
<path fill="none" stroke="#63b8ff" d="M758.02,-219.84C805.73,-200.76 920.11,-155.01 975.4,-132.89"/>
<polygon fill="#63b8ff" stroke="#63b8ff" points="977.03,-136.01 985.01,-129.05 974.43,-129.51 977.03,-136.01"/>
</a>
</g>
</g>
<!-- Node19&#45;&gt;Node9 -->
<g id="edge35_Node000019_Node000009" class="edge">
<title>Node19&#45;&gt;Node9</title>
<g id="a_edge35_Node000019_Node000009"><a xlink:title=" ">
<path fill="none" stroke="#63b8ff" d="M734.69,-219.98C732.03,-207.51 726.24,-183.72 717.38,-165 712.81,-155.33 706.3,-145.39 700.52,-137.36"/>
<polygon fill="#63b8ff" stroke="#63b8ff" points="703.23,-135.13 694.44,-129.22 697.62,-139.33 703.23,-135.13"/>
</a>
</g>
</g>
<!-- Node19&#45;&gt;Node15 -->
<g id="edge36_Node000019_Node000015" class="edge">
<title>Node19&#45;&gt;Node15</title>
<g id="a_edge36_Node000019_Node000015"><a xlink:title=" ">
<path fill="none" stroke="#63b8ff" d="M745.79,-219.66C765.26,-201.38 810.19,-159.18 834.7,-136.17"/>
<polygon fill="#63b8ff" stroke="#63b8ff" points="837.27,-138.56 842.16,-129.16 832.47,-133.45 837.27,-138.56"/>
</a>
</g>
</g>
<!-- Node19&#45;&gt;Node18 -->
<g id="edge34_Node000019_Node000018" class="edge">
<title>Node19&#45;&gt;Node18</title>
<g id="a_edge34_Node000019_Node000018"><a xlink:title=" ">
<path fill="none" stroke="#63b8ff" d="M792.02,-219.98C846.88,-211.43 933.05,-197.62 1007.38,-184 1008.48,-183.8 1009.59,-183.59 1010.71,-183.38"/>
<polygon fill="#63b8ff" stroke="#63b8ff" points="1011.79,-186.74 1020.94,-181.4 1010.46,-179.87 1011.79,-186.74"/>
</a>
</g>
</g>
<!-- Node20&#45;&gt;Node2 -->
<g id="edge40_Node000020_Node000002" class="edge">
<title>Node20&#45;&gt;Node2</title>
<g id="a_edge40_Node000020_Node000002"><a xlink:title=" ">
<path fill="none" stroke="#63b8ff" d="M256.45,-164.89C232.81,-157.61 200.5,-145.68 175.38,-129 155.82,-116.01 137.58,-95.99 126.02,-81.91"/>
<polygon fill="#63b8ff" stroke="#63b8ff" points="128.7,-79.66 119.73,-74.02 123.23,-84.02 128.7,-79.66"/>
</a>
</g>
</g>
<!-- Node20&#45;&gt;Node3 -->
<g id="edge41_Node000020_Node000003" class="edge">
<title>Node20&#45;&gt;Node3</title>
<g id="a_edge41_Node000020_Node000003"><a xlink:title=" ">
<path fill="none" stroke="#63b8ff" d="M354.62,-170.44C508.7,-163.1 882.25,-144.02 937.38,-129 955.6,-124.04 957.4,-115.77 975.38,-110 1072.22,-78.89 1101.02,-90.52 1201.38,-74 1207.99,-72.91 1215.1,-71.72 1221.81,-70.58"/>
<polygon fill="#63b8ff" stroke="#63b8ff" points="1222.65,-73.99 1231.92,-68.86 1221.47,-67.09 1222.65,-73.99"/>
</a>
</g>
</g>
<!-- Node20&#45;&gt;Node5 -->
<g id="edge39_Node000020_Node000005" class="edge">
<title>Node20&#45;&gt;Node5</title>
<g id="a_edge39_Node000020_Node000005"><a xlink:title=" ">
<path fill="none" stroke="#63b8ff" d="M257.33,-164.87C239.63,-158.18 218.93,-146.95 208.38,-129 195.98,-107.92 215.24,-64.92 226.38,-55 253.48,-30.85 358.31,-18.17 412.12,-13.14"/>
<polygon fill="#63b8ff" stroke="#63b8ff" points="412.52,-16.62 422.16,-12.23 411.89,-9.65 412.52,-16.62"/>
</a>
</g>
</g>
<!-- Node20&#45;&gt;Node10 -->
<g id="edge47_Node000020_Node000010" class="edge">
<title>Node20&#45;&gt;Node10</title>
<g id="a_edge47_Node000020_Node000010"><a xlink:title=" ">
<path fill="none" stroke="#63b8ff" d="M319.43,-164.87C337.13,-158.18 357.83,-146.95 368.38,-129 378.88,-111.15 360.63,-92.43 343.7,-79.99"/>
<polygon fill="#63b8ff" stroke="#63b8ff" points="345.35,-76.87 335.12,-74.09 341.38,-82.64 345.35,-76.87"/>
</a>
</g>
</g>
<!-- Node21 -->
<g id="Node000021" class="node">
<title>Node21</title>
<g id="a_Node000021"><a xlink:href="LocationConfig_8hpp.html" target="_top" xlink:title=" ">
<polygon fill="white" stroke="#666666" points="359.38,-129 217.38,-129 217.38,-110 359.38,-110 359.38,-129"/>
<text text-anchor="middle" x="288.38" y="-117" font-family="Helvetica,sans-Serif" font-size="10.00">config/LocationConfig.hpp</text>
</a>
</g>
</g>
<!-- Node20&#45;&gt;Node21 -->
<g id="edge42_Node000020_Node000021" class="edge">
<title>Node20&#45;&gt;Node21</title>
<g id="a_edge42_Node000020_Node000021"><a xlink:title=" ">
<path fill="none" stroke="#63b8ff" d="M288.38,-164.75C288.38,-157.8 288.38,-147.85 288.38,-139.13"/>
<polygon fill="#63b8ff" stroke="#63b8ff" points="291.88,-139.09 288.38,-129.09 284.88,-139.09 291.88,-139.09"/>
</a>
</g>
</g>
<!-- Node21&#45;&gt;Node2 -->
<g id="edge43_Node000021_Node000002" class="edge">
<title>Node21&#45;&gt;Node2</title>
<g id="a_edge43_Node000021_Node000002"><a xlink:title=" ">
<path fill="none" stroke="#63b8ff" d="M260.26,-109.98C229.27,-100.6 179.45,-85.51 146.56,-75.55"/>
<polygon fill="#63b8ff" stroke="#63b8ff" points="147.52,-72.18 136.94,-72.63 145.49,-78.88 147.52,-72.18"/>
</a>
</g>
</g>
<!-- Node21&#45;&gt;Node3 -->
<g id="edge45_Node000021_Node000003" class="edge">
<title>Node21&#45;&gt;Node3</title>
<g id="a_edge45_Node000021_Node000003"><a xlink:title=" ">
<path fill="none" stroke="#63b8ff" d="M359.69,-115.69C542.65,-108.36 1025.51,-88.24 1185.38,-74 1197.54,-72.92 1210.9,-71.28 1222.41,-69.73"/>
<polygon fill="#63b8ff" stroke="#63b8ff" points="1222.94,-73.19 1232.36,-68.35 1221.98,-66.26 1222.94,-73.19"/>
</a>
</g>
</g>
<!-- Node21&#45;&gt;Node5 -->
<g id="edge44_Node000021_Node000005" class="edge">
<title>Node21&#45;&gt;Node5</title>
<g id="a_edge44_Node000021_Node000005"><a xlink:title=" ">
<path fill="none" stroke="#63b8ff" d="M271.88,-109.98C250.6,-97.9 218.16,-75.01 234.38,-55 256.39,-27.84 358.89,-16.59 412.11,-12.52"/>
<polygon fill="#63b8ff" stroke="#63b8ff" points="412.64,-15.99 422.37,-11.77 412.14,-9.01 412.64,-15.99"/>
</a>
</g>
</g>
<!-- Node21&#45;&gt;Node10 -->
<g id="edge46_Node000021_Node000010" class="edge">
<title>Node21&#45;&gt;Node10</title>
<g id="a_edge46_Node000021_Node000010"><a xlink:title=" ">
<path fill="none" stroke="#63b8ff" d="M293.66,-109.75C298.09,-102.42 304.54,-91.73 310,-82.7"/>
<polygon fill="#63b8ff" stroke="#63b8ff" points="313.02,-84.46 315.19,-74.09 307.03,-80.84 313.02,-84.46"/>
</a>
</g>
</g>
<!-- Node22&#45;&gt;Node2 -->
<g id="edge49_Node000022_Node000002" class="edge">
<title>Node22&#45;&gt;Node2</title>
<g id="a_edge49_Node000022_Node000002"><a xlink:title=" ">
<path fill="none" stroke="#63b8ff" d="M219.62,-222.17C174.7,-215.39 114.06,-202.99 99.38,-184 76.66,-154.61 92.63,-108.26 104.24,-83.13"/>
<polygon fill="#63b8ff" stroke="#63b8ff" points="107.44,-84.56 108.68,-74.04 101.15,-81.49 107.44,-84.56"/>
</a>
</g>
</g>
<!-- Node22&#45;&gt;Node20 -->
<g id="edge50_Node000022_Node000020" class="edge">
<title>Node22&#45;&gt;Node20</title>
<g id="a_edge50_Node000022_Node000020"><a xlink:title=" ">
<path fill="none" stroke="#63b8ff" d="M273.35,-219.75C275.74,-212.72 279.17,-202.62 282.15,-193.84"/>
<polygon fill="#63b8ff" stroke="#63b8ff" points="285.56,-194.68 285.46,-184.09 278.93,-192.43 285.56,-194.68"/>
</a>
</g>
</g>
</g>
</svg>
